G04*
G04 #@! TF.GenerationSoftware,Altium Limited,Altium Designer,24.4.1 (13)*
G04*
G04 Layer_Color=16711935*
%FSLAX44Y44*%
%MOMM*%
G71*
G04*
G04 #@! TF.SameCoordinates,CB49997C-C3C6-4264-A903-5888FDE2464A*
G04*
G04*
G04 #@! TF.FilePolarity,Negative*
G04*
G01*
G75*
%ADD104C,2.5016*%
%ADD105R,1.9016X1.9016*%
%ADD106C,1.9016*%
%ADD107C,1.2016*%
%ADD108C,0.7516*%
%ADD109O,2.2016X1.1016*%
G04:AMPARAMS|DCode=110|XSize=1.9016mm|YSize=1.1016mm|CornerRadius=0.3008mm|HoleSize=0mm|Usage=FLASHONLY|Rotation=0.000|XOffset=0mm|YOffset=0mm|HoleType=Round|Shape=RoundedRectangle|*
%AMROUNDEDRECTD110*
21,1,1.9016,0.5000,0,0,0.0*
21,1,1.3000,1.1016,0,0,0.0*
1,1,0.6016,0.6500,-0.2500*
1,1,0.6016,-0.6500,-0.2500*
1,1,0.6016,-0.6500,0.2500*
1,1,0.6016,0.6500,0.2500*
%
%ADD110ROUNDEDRECTD110*%
%ADD111C,1.5494*%
%ADD112C,0.1016*%
D104*
X672900Y961750D02*
D03*
X801000D02*
D03*
D105*
X756000Y952750D02*
D03*
D106*
X717900D02*
D03*
D107*
X287250Y874000D02*
D03*
Y802000D02*
D03*
X519750Y1003000D02*
D03*
X472750D02*
D03*
D108*
X320250Y686950D02*
D03*
Y629150D02*
D03*
D109*
X325250Y614850D02*
D03*
Y701250D02*
D03*
D110*
X283450Y614850D02*
D03*
Y701250D02*
D03*
D111*
X685748Y785051D02*
D03*
X755852D02*
D03*
X870914D02*
D03*
Y832041D02*
D03*
D112*
X873000Y995250D02*
D03*
Y453500D02*
D03*
X294250D02*
D03*
Y995250D02*
D03*
M02*
