G04*
G04 #@! TF.GenerationSoftware,Altium Limited,Altium Designer,24.4.1 (13)*
G04*
G04 Layer_Color=65535*
%FSLAX44Y44*%
%MOMM*%
G71*
G04*
G04 #@! TF.SameCoordinates,92E24F71-BE29-44F9-BD6D-AE99B804E02A*
G04*
G04*
G04 #@! TF.FilePolarity,Positive*
G04*
G01*
G75*
%ADD10C,0.1270*%
%ADD11C,0.2500*%
%ADD12C,0.2000*%
%ADD13C,0.2540*%
%ADD14C,0.1000*%
%ADD15C,0.1200*%
%ADD16C,0.1500*%
%ADD17C,0.1300*%
%ADD18C,0.1524*%
%ADD19C,0.0762*%
%ADD20R,0.1500X0.8000*%
%ADD21R,0.8000X0.1500*%
D10*
X347598Y532964D02*
G03*
X347598Y532964I-500J0D01*
G01*
X382175Y644100D02*
X398425D01*
X382175Y675400D02*
X398425D01*
X646900Y1029500D02*
X827000D01*
Y940750D02*
Y1029500D01*
X768200Y940750D02*
X827000D01*
X646900D02*
X705700D01*
X646900D02*
Y1029500D01*
X260750Y792000D02*
X267550D01*
X260750D02*
Y884000D01*
X267550D01*
X333750Y872200D02*
Y884000D01*
Y792000D02*
Y803800D01*
X330750Y884000D02*
X333750D01*
X330750Y792000D02*
X333750D01*
X462750Y956500D02*
Y959500D01*
X529750Y956500D02*
Y959500D01*
X462750Y956500D02*
X474550D01*
X517950D02*
X529750D01*
Y1022700D02*
Y1029500D01*
X462750D02*
X529750D01*
X462750Y1022700D02*
Y1029500D01*
X753340Y724940D02*
Y732560D01*
X734000Y724880D02*
Y732500D01*
X753340Y715190D02*
Y722810D01*
X734000Y715130D02*
Y722750D01*
X565340Y908190D02*
Y915810D01*
X546000Y908130D02*
Y915750D01*
X565340Y898690D02*
Y906310D01*
X546000Y898630D02*
Y906250D01*
X536190Y897660D02*
X543810D01*
X536130Y917000D02*
X543750D01*
X540910Y838940D02*
Y846560D01*
X560250Y839000D02*
Y846620D01*
X560340Y847940D02*
Y855560D01*
X541000Y847880D02*
Y855500D01*
X510912Y880358D02*
X518532D01*
X510972Y861018D02*
X518592D01*
X534090Y903690D02*
Y911310D01*
X514750Y903630D02*
Y911250D01*
X501768Y860932D02*
X509388D01*
X501708Y880272D02*
X509328D01*
X400160Y748940D02*
Y756560D01*
X419500Y749000D02*
Y756620D01*
X453410Y525690D02*
Y533310D01*
X472750Y525750D02*
Y533370D01*
X565690Y552340D02*
X573310D01*
X565750Y533000D02*
X573370D01*
X443590Y839190D02*
Y846810D01*
X424250Y839130D02*
Y846750D01*
X500840Y525690D02*
Y533310D01*
X481500Y525630D02*
Y533250D01*
X605928Y487548D02*
Y495168D01*
X625268Y487608D02*
Y495228D01*
X524690Y581840D02*
X532310D01*
X524750Y562500D02*
X532370D01*
X524690Y584910D02*
X532310D01*
X524630Y604250D02*
X532250D01*
X537190Y525840D02*
X544810D01*
X537250Y506500D02*
X544870D01*
X444840Y748940D02*
Y756560D01*
X425500Y748880D02*
Y756500D01*
X362534Y576796D02*
Y584416D01*
X343194Y576736D02*
Y584356D01*
X343090Y576690D02*
Y584310D01*
X323750Y576630D02*
Y584250D01*
X340910Y672440D02*
Y680060D01*
X360250Y672500D02*
Y680120D01*
X341740Y636190D02*
Y643810D01*
X361080Y636250D02*
Y643870D01*
X835590Y538190D02*
Y545810D01*
X816250Y538130D02*
Y545750D01*
X395440Y566340D02*
X403060D01*
X395500Y547000D02*
X403120D01*
X812690Y575410D02*
X820310D01*
X812630Y555750D02*
X820250D01*
X800702Y585786D02*
X808322D01*
X800642Y566126D02*
X808262D01*
X719940Y510410D02*
X727560D01*
X719880Y490750D02*
X727500D01*
X720190Y476660D02*
X727810D01*
X720130Y457000D02*
X727750D01*
X797000Y531500D02*
X804620D01*
X797000Y510500D02*
X804620D01*
X778010Y567296D02*
Y574916D01*
X799010Y567296D02*
Y574916D01*
X778010Y577456D02*
Y585076D01*
X799010Y577456D02*
Y585076D01*
X751772Y658054D02*
X759392D01*
X751772Y637054D02*
X759392D01*
X757002Y489744D02*
Y497364D01*
X778002Y489744D02*
Y497364D01*
X787756Y601882D02*
Y609502D01*
X766756Y601882D02*
Y609502D01*
X781250Y540130D02*
Y547750D01*
X760250Y540130D02*
Y547750D01*
X740850Y658308D02*
X748470D01*
X740850Y637308D02*
X748470D01*
X739750Y517000D02*
X747370D01*
X739750Y496000D02*
X747370D01*
X787800Y612456D02*
Y620076D01*
X766800Y612456D02*
Y620076D01*
X800750Y564750D02*
X808370D01*
X800750Y543750D02*
X808370D01*
X708250Y514000D02*
Y521620D01*
X729250Y514000D02*
Y521620D01*
X708500Y480000D02*
Y487620D01*
X729500Y480000D02*
Y487620D01*
X691916Y636468D02*
X699536D01*
X691916Y615468D02*
X699536D01*
X674500Y544750D02*
Y552370D01*
X695500Y544750D02*
Y552370D01*
X681502Y636544D02*
X689122D01*
X681502Y615544D02*
X689122D01*
X528000Y822630D02*
Y830250D01*
X507000Y822630D02*
Y830250D01*
X574500Y861880D02*
Y869500D01*
X553500Y861880D02*
Y869500D01*
X569250Y825250D02*
Y832870D01*
X590250Y825250D02*
Y832870D01*
X670500Y597500D02*
Y605120D01*
X691500Y597500D02*
Y605120D01*
X662250Y567500D02*
Y575120D01*
X683250Y567500D02*
Y575120D01*
X497328Y624762D02*
Y632382D01*
X518328Y624762D02*
Y632382D01*
X396630Y807500D02*
X404250D01*
X396630Y828500D02*
X404250D01*
X427250Y625000D02*
Y632620D01*
X448250Y625000D02*
Y632620D01*
X427000Y585000D02*
Y592620D01*
X448000Y585000D02*
Y592620D01*
X601884Y487488D02*
Y495108D01*
X580884Y487488D02*
Y495108D01*
X306238Y569146D02*
Y576766D01*
X285238Y569146D02*
Y576766D01*
X284730Y547930D02*
Y555550D01*
X305730Y547930D02*
Y555550D01*
X342500Y586750D02*
Y594370D01*
X363500Y586750D02*
Y594370D01*
X579250Y875500D02*
Y889500D01*
X565250Y875500D02*
X579250D01*
X565250D02*
Y889500D01*
X579250D01*
X507750Y805000D02*
Y819000D01*
Y805000D02*
X521750D01*
Y819000D01*
X507750D02*
X521750D01*
X536000Y760750D02*
X550000D01*
Y746750D02*
Y760750D01*
X536000Y746750D02*
X550000D01*
X536000D02*
Y760750D01*
X508000Y787750D02*
Y801750D01*
Y787750D02*
X522000D01*
Y801750D01*
X508000D02*
X522000D01*
X556750Y760250D02*
X570750D01*
Y746250D02*
Y760250D01*
X556750Y746250D02*
X570750D01*
X556750D02*
Y760250D01*
X577250Y746500D02*
Y760500D01*
Y746500D02*
X591250D01*
Y760500D01*
X577250D02*
X591250D01*
X407500Y730250D02*
X421500D01*
X407500D02*
Y744250D01*
X421500D01*
Y730250D02*
Y744250D01*
X451500Y535500D02*
X465500D01*
Y549500D01*
X451500D02*
X465500D01*
X451500Y535500D02*
Y549500D01*
X403250Y836000D02*
X417250D01*
X403250D02*
Y850000D01*
X417250D01*
Y836000D02*
Y850000D01*
X478250Y553000D02*
Y567000D01*
Y553000D02*
X492250D01*
Y567000D01*
X478250D02*
X492250D01*
X504250D02*
X518250D01*
Y553000D02*
Y567000D01*
X504250Y553000D02*
X518250D01*
X504250D02*
Y567000D01*
X503500Y526000D02*
X517500D01*
Y540000D01*
X503500D02*
X517500D01*
X503500Y526000D02*
Y540000D01*
X447000Y729500D02*
X461000D01*
X447000D02*
Y743500D01*
X461000D01*
Y729500D02*
Y743500D01*
X465000Y835500D02*
Y849500D01*
X451000D02*
X465000D01*
X451000Y835500D02*
Y849500D01*
Y835500D02*
X465000D01*
X435850Y488250D02*
X466100D01*
X435850Y437250D02*
Y488250D01*
Y437250D02*
X466100D01*
X532100D02*
X562350D01*
Y488250D01*
X532100D02*
X562350D01*
X666750Y434750D02*
X686750D01*
X666750Y418750D02*
X686750D01*
D11*
X756100Y610138D02*
G03*
X756100Y610138I-1250J0D01*
G01*
D12*
X365750Y669200D02*
G03*
X365750Y669200I-1000J0D01*
G01*
X757000Y933250D02*
G03*
X757000Y933250I-1000J0D01*
G01*
X364750Y863000D02*
G03*
X364750Y863000I-1000J0D01*
G01*
X509750Y926500D02*
G03*
X509750Y926500I-1000J0D01*
G01*
X344450Y690550D02*
G03*
X344450Y690550I-1000J0D01*
G01*
X752122Y506604D02*
G03*
X752122Y506604I-750J0D01*
G01*
X474700Y424750D02*
G03*
X474700Y424750I-1000J0D01*
G01*
X574466Y506250D02*
G03*
X574466Y507250I0J500D01*
G01*
D02*
G03*
X574466Y506250I0J-500D01*
G01*
D02*
G03*
X574466Y507250I0J500D01*
G01*
X701800Y430950D02*
G03*
X701800Y430950I-1000J0D01*
G01*
X257450Y702750D02*
X270250D01*
X257450Y613350D02*
X270250D01*
X297450Y702750D02*
X309950D01*
X297450Y613350D02*
X309950D01*
X421001Y502170D02*
X425666D01*
X427999Y504502D01*
X425666Y506835D01*
X421001D01*
Y509167D02*
X427999D01*
Y512666D01*
X426833Y513833D01*
X422167D01*
X421001Y512666D01*
Y509167D01*
Y520830D02*
Y516165D01*
X424500D01*
X423334Y518498D01*
Y519664D01*
X424500Y520830D01*
X426833D01*
X427999Y519664D01*
Y517332D01*
X426833Y516165D01*
X435001Y502420D02*
X439666D01*
X441999Y504752D01*
X439666Y507085D01*
X435001D01*
Y509417D02*
X441999D01*
Y512916D01*
X440833Y514083D01*
X436167D01*
X435001Y512916D01*
Y509417D01*
X441999Y519914D02*
X435001D01*
X438500Y516415D01*
Y521080D01*
X448251Y502420D02*
X452916D01*
X455249Y504752D01*
X452916Y507085D01*
X448251D01*
Y509417D02*
X455249D01*
Y512916D01*
X454083Y514083D01*
X449417D01*
X448251Y512916D01*
Y509417D01*
X449417Y516415D02*
X448251Y517581D01*
Y519914D01*
X449417Y521080D01*
X450584D01*
X451750Y519914D01*
Y518748D01*
Y519914D01*
X452916Y521080D01*
X454083D01*
X455249Y519914D01*
Y517581D01*
X454083Y516415D01*
D13*
X765204Y624548D02*
G03*
X765204Y624548I-250J0D01*
G01*
X443054Y595466D02*
G03*
X443054Y595466I-250J0D01*
G01*
X556139Y888832D02*
G03*
X556139Y888832I-901J0D01*
G01*
X763134Y749024D02*
G03*
X763134Y749024I-1000J0D01*
G01*
X464140Y631560D02*
G03*
X464140Y631560I-1270J0D01*
G01*
X399460Y770370D02*
G03*
X399460Y770370I-1270J0D01*
G01*
X537150Y830950D02*
G03*
X537150Y830950I-1000J0D01*
G01*
X297834Y924749D02*
X295501D01*
X296667D01*
Y918917D01*
X295501Y917751D01*
X294335D01*
X293169Y918917D01*
X300166Y923583D02*
X301333Y924749D01*
X303665D01*
X304832Y923583D01*
Y922416D01*
X303665Y921250D01*
X302499D01*
X303665D01*
X304832Y920084D01*
Y918917D01*
X303665Y917751D01*
X301333D01*
X300166Y918917D01*
X415584Y983499D02*
X413251D01*
X414417D01*
Y977667D01*
X413251Y976501D01*
X412085D01*
X410919Y977667D01*
X422581Y976501D02*
X417916D01*
X422581Y981166D01*
Y982333D01*
X421415Y983499D01*
X419083D01*
X417916Y982333D01*
X620250Y981749D02*
X617917D01*
X619084D01*
Y975917D01*
X617917Y974751D01*
X616751D01*
X615585Y975917D01*
X622583Y974751D02*
X624915D01*
X623749D01*
Y981749D01*
X622583Y980583D01*
X395732Y611518D02*
Y606853D01*
X398065Y604520D01*
X400397Y606853D01*
Y611518D01*
X402730D02*
Y604520D01*
X406229D01*
X407395Y605686D01*
Y610351D01*
X406229Y611518D01*
X402730D01*
X414393D02*
X412060Y610351D01*
X409728Y608019D01*
Y605686D01*
X410894Y604520D01*
X413226D01*
X414393Y605686D01*
Y606853D01*
X413226Y608019D01*
X409728D01*
X813420Y520249D02*
Y515584D01*
X815752Y513251D01*
X818085Y515584D01*
Y520249D01*
X820417D02*
Y513251D01*
X823916D01*
X825083Y514417D01*
Y519083D01*
X823916Y520249D01*
X820417D01*
X832080Y513251D02*
X827415D01*
X832080Y517916D01*
Y519083D01*
X830914Y520249D01*
X828581D01*
X827415Y519083D01*
X406621Y563249D02*
X413619D01*
Y559750D01*
X412453Y558584D01*
X410120D01*
X408954Y559750D01*
Y563249D01*
Y560916D02*
X406621Y558584D01*
Y551586D02*
Y556251D01*
X411286Y551586D01*
X412453D01*
X413619Y552752D01*
Y555085D01*
X412453Y556251D01*
X413619Y549254D02*
Y544588D01*
X412453D01*
X407787Y549254D01*
X406621D01*
X841668Y539001D02*
Y545999D01*
X845167D01*
X846334Y544833D01*
Y542500D01*
X845167Y541334D01*
X841668D01*
X844001D02*
X846334Y539001D01*
X848666Y544833D02*
X849833Y545999D01*
X852165D01*
X853332Y544833D01*
Y543666D01*
X852165Y542500D01*
X853332Y541334D01*
Y540167D01*
X852165Y539001D01*
X849833D01*
X848666Y540167D01*
Y541334D01*
X849833Y542500D01*
X848666Y543666D01*
Y544833D01*
X849833Y542500D02*
X852165D01*
X430249Y615331D02*
X423251Y610666D01*
X430249D02*
X423251Y615331D01*
X429083Y608334D02*
X430249Y607167D01*
Y604835D01*
X429083Y603669D01*
X427916D01*
X426750Y604835D01*
Y606001D01*
Y604835D01*
X425584Y603669D01*
X424417D01*
X423251Y604835D01*
Y607167D01*
X424417Y608334D01*
X763419Y639999D02*
X768084Y633001D01*
Y639999D02*
X763419Y633001D01*
X775081D02*
X770416D01*
X775081Y637666D01*
Y638833D01*
X773915Y639999D01*
X771583D01*
X770416Y638833D01*
X783085Y496499D02*
X787750Y489501D01*
Y496499D02*
X783085Y489501D01*
X790083D02*
X792415D01*
X791249D01*
Y496499D01*
X790083Y495333D01*
X852749Y748914D02*
X848084D01*
X845751Y746581D01*
X848084Y744249D01*
X852749D01*
Y741916D02*
X845751D01*
Y738417D01*
X846917Y737251D01*
X851582D01*
X852749Y738417D01*
Y741916D01*
X845751Y734919D02*
Y732586D01*
Y733752D01*
X852749D01*
X851582Y734919D01*
X328833Y531297D02*
Y525465D01*
X329999Y524299D01*
X332331D01*
X333498Y525465D01*
Y531297D01*
X335830Y530131D02*
X336997Y531297D01*
X339329D01*
X340495Y530131D01*
Y528964D01*
X339329Y527798D01*
X340495Y526632D01*
Y525465D01*
X339329Y524299D01*
X336997D01*
X335830Y525465D01*
Y526632D01*
X336997Y527798D01*
X335830Y528964D01*
Y530131D01*
X336997Y527798D02*
X339329D01*
X384169Y688749D02*
Y682917D01*
X385335Y681751D01*
X387667D01*
X388834Y682917D01*
Y688749D01*
X391166D02*
X395831D01*
Y687583D01*
X391166Y682917D01*
Y681751D01*
X419608Y902856D02*
Y897024D01*
X420774Y895858D01*
X423107D01*
X424273Y897024D01*
Y902856D01*
X431271D02*
X428938Y901690D01*
X426606Y899357D01*
Y897024D01*
X427772Y895858D01*
X430105D01*
X431271Y897024D01*
Y898191D01*
X430105Y899357D01*
X426606D01*
X384919Y791749D02*
Y785917D01*
X386085Y784751D01*
X388417D01*
X389584Y785917D01*
Y791749D01*
X396581D02*
X391916D01*
Y788250D01*
X394249Y789416D01*
X395415D01*
X396581Y788250D01*
Y785917D01*
X395415Y784751D01*
X393083D01*
X391916Y785917D01*
X474418Y637499D02*
Y631667D01*
X475585Y630501D01*
X477917D01*
X479084Y631667D01*
Y637499D01*
X484915Y630501D02*
Y637499D01*
X481416Y634000D01*
X486082D01*
X607419Y799249D02*
Y793417D01*
X608585Y792251D01*
X610917D01*
X612084Y793417D01*
Y799249D01*
X614416Y798083D02*
X615583Y799249D01*
X617915D01*
X619081Y798083D01*
Y796916D01*
X617915Y795750D01*
X616749D01*
X617915D01*
X619081Y794584D01*
Y793417D01*
X617915Y792251D01*
X615583D01*
X614416Y793417D01*
X499669Y900499D02*
Y894667D01*
X500835Y893501D01*
X503167D01*
X504334Y894667D01*
Y900499D01*
X511331Y893501D02*
X506666D01*
X511331Y898166D01*
Y899333D01*
X510165Y900499D01*
X507833D01*
X506666Y899333D01*
X724835Y642249D02*
Y636417D01*
X726001Y635251D01*
X728334D01*
X729500Y636417D01*
Y642249D01*
X731833Y635251D02*
X734165D01*
X732999D01*
Y642249D01*
X731833Y641083D01*
X466754Y829999D02*
X471419D01*
X469086D01*
Y823001D01*
X473752D02*
Y829999D01*
X477251D01*
X478417Y828833D01*
Y826500D01*
X477251Y825334D01*
X473752D01*
X480750Y823001D02*
X483082D01*
X481916D01*
Y829999D01*
X480750Y828833D01*
X490080Y823001D02*
Y829999D01*
X486581Y826500D01*
X491246D01*
X445254Y721999D02*
X449919D01*
X447587D01*
Y715001D01*
X452252D02*
Y721999D01*
X455751D01*
X456917Y720833D01*
Y718500D01*
X455751Y717334D01*
X452252D01*
X459249Y715001D02*
X461582D01*
X460416D01*
Y721999D01*
X459249Y720833D01*
X465081D02*
X466247Y721999D01*
X468580D01*
X469746Y720833D01*
Y719666D01*
X468580Y718500D01*
X467413D01*
X468580D01*
X469746Y717334D01*
Y716167D01*
X468580Y715001D01*
X466247D01*
X465081Y716167D01*
X524004Y538249D02*
X528669D01*
X526337D01*
Y531251D01*
X531002D02*
Y538249D01*
X534501D01*
X535667Y537083D01*
Y534750D01*
X534501Y533584D01*
X531002D01*
X537999Y531251D02*
X540332D01*
X539166D01*
Y538249D01*
X537999Y537083D01*
X548496Y531251D02*
X543831D01*
X548496Y535916D01*
Y537083D01*
X547330Y538249D01*
X544997D01*
X543831Y537083D01*
X522420Y555249D02*
X527085D01*
X524753D01*
Y548251D01*
X529418D02*
Y555249D01*
X532917D01*
X534083Y554083D01*
Y551750D01*
X532917Y550584D01*
X529418D01*
X536416Y548251D02*
X538748D01*
X537582D01*
Y555249D01*
X536416Y554083D01*
X542247Y548251D02*
X544580D01*
X543414D01*
Y555249D01*
X542247Y554083D01*
X446504Y564999D02*
X451169D01*
X448837D01*
Y558001D01*
X453502D02*
Y564999D01*
X457001D01*
X458167Y563833D01*
Y561500D01*
X457001Y560334D01*
X453502D01*
X460499Y558001D02*
X462832D01*
X461666D01*
Y564999D01*
X460499Y563833D01*
X466331D02*
X467497Y564999D01*
X469830D01*
X470996Y563833D01*
Y559167D01*
X469830Y558001D01*
X467497D01*
X466331Y559167D01*
Y563833D01*
X392670Y864749D02*
X397335D01*
X395002D01*
Y857751D01*
X399667D02*
Y864749D01*
X403166D01*
X404333Y863583D01*
Y861250D01*
X403166Y860084D01*
X399667D01*
X406665Y858917D02*
X407831Y857751D01*
X410164D01*
X411330Y858917D01*
Y863583D01*
X410164Y864749D01*
X407831D01*
X406665Y863583D01*
Y862416D01*
X407831Y861250D01*
X411330D01*
X427920Y548499D02*
X432585D01*
X430252D01*
Y541501D01*
X434917D02*
Y548499D01*
X438416D01*
X439583Y547333D01*
Y545000D01*
X438416Y543834D01*
X434917D01*
X441915Y547333D02*
X443082Y548499D01*
X445414D01*
X446580Y547333D01*
Y546166D01*
X445414Y545000D01*
X446580Y543834D01*
Y542667D01*
X445414Y541501D01*
X443082D01*
X441915Y542667D01*
Y543834D01*
X443082Y545000D01*
X441915Y546166D01*
Y547333D01*
X443082Y545000D02*
X445414D01*
X405170Y722249D02*
X409835D01*
X407502D01*
Y715251D01*
X412167D02*
Y722249D01*
X415666D01*
X416833Y721083D01*
Y718750D01*
X415666Y717584D01*
X412167D01*
X419165Y722249D02*
X423830D01*
Y721083D01*
X419165Y716417D01*
Y715251D01*
X595920Y757749D02*
X600585D01*
X598252D01*
Y750751D01*
X602917D02*
Y757749D01*
X606416D01*
X607583Y756583D01*
Y754250D01*
X606416Y753084D01*
X602917D01*
X614580Y757749D02*
X612248Y756583D01*
X609915Y754250D01*
Y751917D01*
X611082Y750751D01*
X613414D01*
X614580Y751917D01*
Y753084D01*
X613414Y754250D01*
X609915D01*
X568499Y740080D02*
Y735415D01*
Y737748D01*
X561501D01*
Y733083D02*
X568499D01*
Y729584D01*
X567333Y728417D01*
X565000D01*
X563834Y729584D01*
Y733083D01*
X568499Y721420D02*
Y726085D01*
X565000D01*
X566166Y723752D01*
Y722586D01*
X565000Y721420D01*
X562667D01*
X561501Y722586D01*
Y724919D01*
X562667Y726085D01*
X485670Y798249D02*
X490335D01*
X488002D01*
Y791251D01*
X492667D02*
Y798249D01*
X496166D01*
X497333Y797083D01*
Y794750D01*
X496166Y793584D01*
X492667D01*
X503164Y791251D02*
Y798249D01*
X499665Y794750D01*
X504330D01*
X511920Y756749D02*
X516585D01*
X514252D01*
Y749751D01*
X518917D02*
Y756749D01*
X522416D01*
X523583Y755583D01*
Y753250D01*
X522416Y752084D01*
X518917D01*
X525915Y755583D02*
X527081Y756749D01*
X529414D01*
X530580Y755583D01*
Y754416D01*
X529414Y753250D01*
X528248D01*
X529414D01*
X530580Y752084D01*
Y750917D01*
X529414Y749751D01*
X527081D01*
X525915Y750917D01*
X484670Y815999D02*
X489335D01*
X487002D01*
Y809001D01*
X491667D02*
Y815999D01*
X495166D01*
X496333Y814833D01*
Y812500D01*
X495166Y811334D01*
X491667D01*
X503330Y809001D02*
X498665D01*
X503330Y813666D01*
Y814833D01*
X502164Y815999D01*
X499832D01*
X498665Y814833D01*
X583586Y886999D02*
X588251D01*
X585919D01*
Y880001D01*
X590584D02*
Y886999D01*
X594082D01*
X595249Y885833D01*
Y883500D01*
X594082Y882334D01*
X590584D01*
X597581Y880001D02*
X599914D01*
X598748D01*
Y886999D01*
X597581Y885833D01*
X345250Y648751D02*
Y655749D01*
X348749D01*
X349915Y654583D01*
Y652250D01*
X348749Y651084D01*
X345250D01*
X347582D02*
X349915Y648751D01*
X356913D02*
X352247D01*
X356913Y653416D01*
Y654583D01*
X355746Y655749D01*
X353414D01*
X352247Y654583D01*
X363910Y655749D02*
X361578Y654583D01*
X359245Y652250D01*
Y649917D01*
X360411Y648751D01*
X362744D01*
X363910Y649917D01*
Y651084D01*
X362744Y652250D01*
X359245D01*
X355170Y685501D02*
Y692499D01*
X358669D01*
X359835Y691333D01*
Y689000D01*
X358669Y687834D01*
X355170D01*
X357502D02*
X359835Y685501D01*
X366833D02*
X362167D01*
X366833Y690166D01*
Y691333D01*
X365666Y692499D01*
X363334D01*
X362167Y691333D01*
X373830Y692499D02*
X369165D01*
Y689000D01*
X371498Y690166D01*
X372664D01*
X373830Y689000D01*
Y686667D01*
X372664Y685501D01*
X370331D01*
X369165Y686667D01*
X320420Y588001D02*
Y594999D01*
X323918D01*
X325085Y593833D01*
Y591500D01*
X323918Y590334D01*
X320420D01*
X322752D02*
X325085Y588001D01*
X332083D02*
X327417D01*
X332083Y592666D01*
Y593833D01*
X330916Y594999D01*
X328584D01*
X327417Y593833D01*
X337914Y588001D02*
Y594999D01*
X334415Y591500D01*
X339080D01*
X366224Y577615D02*
Y584613D01*
X369723D01*
X370889Y583447D01*
Y581114D01*
X369723Y579948D01*
X366224D01*
X368556D02*
X370889Y577615D01*
X377887D02*
X373221D01*
X377887Y582280D01*
Y583447D01*
X376720Y584613D01*
X374388D01*
X373221Y583447D01*
X380219D02*
X381385Y584613D01*
X383718D01*
X384884Y583447D01*
Y582280D01*
X383718Y581114D01*
X382552D01*
X383718D01*
X384884Y579948D01*
Y578781D01*
X383718Y577615D01*
X381385D01*
X380219Y578781D01*
X449670Y748501D02*
Y755499D01*
X453168D01*
X454335Y754333D01*
Y752000D01*
X453168Y750834D01*
X449670D01*
X452002D02*
X454335Y748501D01*
X461333D02*
X456667D01*
X461333Y753166D01*
Y754333D01*
X460166Y755499D01*
X457834D01*
X456667Y754333D01*
X468330Y748501D02*
X463665D01*
X468330Y753166D01*
Y754333D01*
X467164Y755499D01*
X464832D01*
X463665Y754333D01*
X550001Y522164D02*
X556999D01*
Y518665D01*
X555833Y517499D01*
X553500D01*
X552334Y518665D01*
Y522164D01*
Y519831D02*
X550001Y517499D01*
Y510501D02*
Y515166D01*
X554666Y510501D01*
X555833D01*
X556999Y511667D01*
Y514000D01*
X555833Y515166D01*
X550001Y508168D02*
Y505836D01*
Y507002D01*
X556999D01*
X555833Y508168D01*
X526591Y627076D02*
X533589D01*
Y623577D01*
X532423Y622411D01*
X530090D01*
X528924Y623577D01*
Y627076D01*
Y624744D02*
X526591Y622411D01*
Y615413D02*
Y620079D01*
X531256Y615413D01*
X532423D01*
X533589Y616580D01*
Y618912D01*
X532423Y620079D01*
Y613081D02*
X533589Y611914D01*
Y609582D01*
X532423Y608416D01*
X527757D01*
X526591Y609582D01*
Y611914D01*
X527757Y613081D01*
X532423D01*
X539001Y578747D02*
X545999D01*
Y575248D01*
X544833Y574082D01*
X542500D01*
X541334Y575248D01*
Y578747D01*
Y576415D02*
X539001Y574082D01*
Y571749D02*
Y569417D01*
Y570583D01*
X545999D01*
X544833Y571749D01*
X540167Y565918D02*
X539001Y564752D01*
Y562419D01*
X540167Y561253D01*
X544833D01*
X545999Y562419D01*
Y564752D01*
X544833Y565918D01*
X543666D01*
X542500Y564752D01*
Y561253D01*
X609003Y475251D02*
Y482249D01*
X612502D01*
X613668Y481083D01*
Y478750D01*
X612502Y477584D01*
X609003D01*
X611335D02*
X613668Y475251D01*
X616001D02*
X618333D01*
X617167D01*
Y482249D01*
X616001Y481083D01*
X621832D02*
X622998Y482249D01*
X625331D01*
X626497Y481083D01*
Y479916D01*
X625331Y478750D01*
X626497Y477584D01*
Y476417D01*
X625331Y475251D01*
X622998D01*
X621832Y476417D01*
Y477584D01*
X622998Y478750D01*
X621832Y479916D01*
Y481083D01*
X622998Y478750D02*
X625331D01*
X482753Y536501D02*
Y543499D01*
X486252D01*
X487418Y542333D01*
Y540000D01*
X486252Y538834D01*
X482753D01*
X485085D02*
X487418Y536501D01*
X489751D02*
X492083D01*
X490917D01*
Y543499D01*
X489751Y542333D01*
X495582Y543499D02*
X500247D01*
Y542333D01*
X495582Y537667D01*
Y536501D01*
X393499Y835003D02*
X386501D01*
Y838502D01*
X387667Y839668D01*
X390000D01*
X391166Y838502D01*
Y835003D01*
Y837335D02*
X393499Y839668D01*
Y842001D02*
Y844333D01*
Y843167D01*
X386501D01*
X387667Y842001D01*
X386501Y852497D02*
X387667Y850165D01*
X390000Y847832D01*
X392333D01*
X393499Y848998D01*
Y851331D01*
X392333Y852497D01*
X391166D01*
X390000Y851331D01*
Y847832D01*
X567001Y575747D02*
X573999D01*
Y572248D01*
X572833Y571082D01*
X570500D01*
X569334Y572248D01*
Y575747D01*
Y573415D02*
X567001Y571082D01*
Y568749D02*
Y566417D01*
Y567583D01*
X573999D01*
X572833Y568749D01*
X573999Y558253D02*
Y562918D01*
X570500D01*
X571666Y560585D01*
Y559419D01*
X570500Y558253D01*
X568167D01*
X567001Y559419D01*
Y561752D01*
X568167Y562918D01*
X428753Y528501D02*
Y535499D01*
X432252D01*
X433418Y534333D01*
Y532000D01*
X432252Y530834D01*
X428753D01*
X431085D02*
X433418Y528501D01*
X435751D02*
X438083D01*
X436917D01*
Y535499D01*
X435751Y534333D01*
X445081Y528501D02*
Y535499D01*
X441582Y532000D01*
X446247D01*
X376253Y748751D02*
Y755749D01*
X379752D01*
X380918Y754583D01*
Y752250D01*
X379752Y751084D01*
X376253D01*
X378585D02*
X380918Y748751D01*
X383251D02*
X385583D01*
X384417D01*
Y755749D01*
X383251Y754583D01*
X389082D02*
X390248Y755749D01*
X392581D01*
X393747Y754583D01*
Y753416D01*
X392581Y752250D01*
X391415D01*
X392581D01*
X393747Y751084D01*
Y749917D01*
X392581Y748751D01*
X390248D01*
X389082Y749917D01*
X486499Y861753D02*
X479501D01*
Y865252D01*
X480667Y866418D01*
X483000D01*
X484166Y865252D01*
Y861753D01*
Y864085D02*
X486499Y866418D01*
Y868751D02*
Y871083D01*
Y869917D01*
X479501D01*
X480667Y868751D01*
X486499Y879247D02*
Y874582D01*
X481834Y879247D01*
X480667D01*
X479501Y878081D01*
Y875748D01*
X480667Y874582D01*
X515669Y915751D02*
Y922749D01*
X519168D01*
X520334Y921583D01*
Y919250D01*
X519168Y918084D01*
X515669D01*
X518002D02*
X520334Y915751D01*
X522667D02*
X525000D01*
X523833D01*
Y922749D01*
X522667Y921583D01*
X528498Y915751D02*
X530831D01*
X529665D01*
Y922749D01*
X528498Y921583D01*
X498249Y862503D02*
X491251D01*
Y866002D01*
X492417Y867168D01*
X494750D01*
X495916Y866002D01*
Y862503D01*
Y864835D02*
X498249Y867168D01*
Y869501D02*
Y871833D01*
Y870667D01*
X491251D01*
X492417Y869501D01*
Y875332D02*
X491251Y876498D01*
Y878831D01*
X492417Y879997D01*
X497083D01*
X498249Y878831D01*
Y876498D01*
X497083Y875332D01*
X492417D01*
X524919Y850251D02*
Y857249D01*
X528417D01*
X529584Y856083D01*
Y853750D01*
X528417Y852584D01*
X524919D01*
X527251D02*
X529584Y850251D01*
X531916Y851417D02*
X533083Y850251D01*
X535415D01*
X536581Y851417D01*
Y856083D01*
X535415Y857249D01*
X533083D01*
X531916Y856083D01*
Y854916D01*
X533083Y853750D01*
X536581D01*
X525668Y838751D02*
Y845749D01*
X529167D01*
X530334Y844583D01*
Y842250D01*
X529167Y841084D01*
X525668D01*
X528001D02*
X530334Y838751D01*
X532666Y845749D02*
X537332D01*
Y844583D01*
X532666Y839917D01*
Y838751D01*
X536501Y936081D02*
X543499D01*
Y932583D01*
X542333Y931416D01*
X540000D01*
X538834Y932583D01*
Y936081D01*
Y933749D02*
X536501Y931416D01*
X543499Y924418D02*
X542333Y926751D01*
X540000Y929084D01*
X537667D01*
X536501Y927917D01*
Y925585D01*
X537667Y924418D01*
X538834D01*
X540000Y925585D01*
Y929084D01*
X570919Y897001D02*
Y903999D01*
X574417D01*
X575584Y902833D01*
Y900500D01*
X574417Y899334D01*
X570919D01*
X573251D02*
X575584Y897001D01*
X582581Y903999D02*
X577916D01*
Y900500D01*
X580249Y901666D01*
X581415D01*
X582581Y900500D01*
Y898167D01*
X581415Y897001D01*
X579083D01*
X577916Y898167D01*
X570668Y909501D02*
Y916499D01*
X574167D01*
X575334Y915333D01*
Y913000D01*
X574167Y911834D01*
X570668D01*
X573001D02*
X575334Y909501D01*
X581165D02*
Y916499D01*
X577666Y913000D01*
X582331D01*
X630919Y865251D02*
Y872249D01*
X634417D01*
X635584Y871083D01*
Y868750D01*
X634417Y867584D01*
X630919D01*
X633251D02*
X635584Y865251D01*
X637916Y871083D02*
X639083Y872249D01*
X641415D01*
X642581Y871083D01*
Y869916D01*
X641415Y868750D01*
X640249D01*
X641415D01*
X642581Y867584D01*
Y866417D01*
X641415Y865251D01*
X639083D01*
X637916Y866417D01*
X738169Y735251D02*
Y742249D01*
X741667D01*
X742834Y741083D01*
Y738750D01*
X741667Y737584D01*
X738169D01*
X740501D02*
X742834Y735251D01*
X749831D02*
X745166D01*
X749831Y739916D01*
Y741083D01*
X748665Y742249D01*
X746333D01*
X745166Y741083D01*
X739085Y746751D02*
Y753749D01*
X742584D01*
X743750Y752583D01*
Y750250D01*
X742584Y749084D01*
X739085D01*
X741417D02*
X743750Y746751D01*
X746083D02*
X748415D01*
X747249D01*
Y753749D01*
X746083Y752583D01*
X761077Y760118D02*
Y764783D01*
X759911Y765950D01*
X757578D01*
X756412Y764783D01*
Y760118D01*
X757578Y758952D01*
X759911D01*
X758745Y761285D02*
X761077Y758952D01*
X759911D02*
X761077Y760118D01*
X763410Y758952D02*
X765742D01*
X764576D01*
Y765950D01*
X763410Y764783D01*
X365168Y517749D02*
Y510751D01*
X369834D01*
X376832Y517749D02*
X372166D01*
Y514250D01*
X374499Y515416D01*
X375665D01*
X376832Y514250D01*
Y511917D01*
X375665Y510751D01*
X373333D01*
X372166Y511917D01*
X711499Y471831D02*
X704501D01*
Y467166D01*
Y461335D02*
X711499D01*
X708000Y464834D01*
Y460168D01*
X712999Y507331D02*
X706001D01*
Y502666D01*
X711833Y500334D02*
X712999Y499167D01*
Y496835D01*
X711833Y495668D01*
X710666D01*
X709500Y496835D01*
Y498001D01*
Y496835D01*
X708334Y495668D01*
X707167D01*
X706001Y496835D01*
Y499167D01*
X707167Y500334D01*
X812669Y586999D02*
Y580001D01*
X817334D01*
X824331D02*
X819666D01*
X824331Y584666D01*
Y585833D01*
X823165Y586999D01*
X820833D01*
X819666Y585833D01*
X849499Y575915D02*
X842501D01*
Y571250D01*
Y568917D02*
Y566585D01*
Y567751D01*
X849499D01*
X848333Y568917D01*
X608669Y553999D02*
Y547001D01*
Y549334D01*
X613334Y553999D01*
X609835Y550500D01*
X613334Y547001D01*
X620331D02*
X615666D01*
X620331Y551666D01*
Y552833D01*
X619165Y553999D01*
X616833D01*
X615666Y552833D01*
X837835Y869999D02*
Y863001D01*
Y865334D01*
X842500Y869999D01*
X839001Y866500D01*
X842500Y863001D01*
X844833D02*
X847165D01*
X845999D01*
Y869999D01*
X844833Y868833D01*
X292584Y725499D02*
X290251D01*
X291417D01*
Y719667D01*
X290251Y718501D01*
X289085D01*
X287919Y719667D01*
X299582Y725499D02*
X294916D01*
Y722000D01*
X297249Y723166D01*
X298415D01*
X299582Y722000D01*
Y719667D01*
X298415Y718501D01*
X296083D01*
X294916Y719667D01*
X412834Y462499D02*
X410501D01*
X411667D01*
Y456667D01*
X410501Y455501D01*
X409335D01*
X408169Y456667D01*
X418665Y455501D02*
Y462499D01*
X415166Y459000D01*
X419832D01*
X268263Y567909D02*
X263598D01*
Y564410D01*
X265931D01*
X263598D01*
Y560911D01*
X270596Y567909D02*
Y560911D01*
X274095D01*
X275261Y562077D01*
Y563244D01*
X274095Y564410D01*
X270596D01*
X274095D01*
X275261Y565576D01*
Y566743D01*
X274095Y567909D01*
X270596D01*
X277593Y560911D02*
X279926D01*
X278760D01*
Y567909D01*
X277593Y566743D01*
X374038Y569083D02*
X372872Y570249D01*
X370539D01*
X369373Y569083D01*
Y564417D01*
X370539Y563251D01*
X372872D01*
X374038Y564417D01*
X376370Y569083D02*
X377537Y570249D01*
X379869D01*
X381036Y569083D01*
Y567916D01*
X379869Y566750D01*
X378703D01*
X379869D01*
X381036Y565584D01*
Y564417D01*
X379869Y563251D01*
X377537D01*
X376370Y564417D01*
X383368Y569083D02*
X384534Y570249D01*
X386867D01*
X388033Y569083D01*
Y567916D01*
X386867Y566750D01*
X385701D01*
X386867D01*
X388033Y565584D01*
Y564417D01*
X386867Y563251D01*
X384534D01*
X383368Y564417D01*
X348589Y605025D02*
X347422Y606191D01*
X345090D01*
X343924Y605025D01*
Y600359D01*
X345090Y599193D01*
X347422D01*
X348589Y600359D01*
X350921Y605025D02*
X352088Y606191D01*
X354420D01*
X355587Y605025D01*
Y603858D01*
X354420Y602692D01*
X353254D01*
X354420D01*
X355587Y601526D01*
Y600359D01*
X354420Y599193D01*
X352088D01*
X350921Y600359D01*
X362584Y599193D02*
X357919D01*
X362584Y603858D01*
Y605025D01*
X361418Y606191D01*
X359085D01*
X357919Y605025D01*
X317075Y576193D02*
X318241Y577359D01*
Y579692D01*
X317075Y580858D01*
X312409D01*
X311243Y579692D01*
Y577359D01*
X312409Y576193D01*
X317075Y573860D02*
X318241Y572694D01*
Y570361D01*
X317075Y569195D01*
X315908D01*
X314742Y570361D01*
Y571528D01*
Y570361D01*
X313576Y569195D01*
X312409D01*
X311243Y570361D01*
Y572694D01*
X312409Y573860D01*
X311243Y566863D02*
Y564530D01*
Y565696D01*
X318241D01*
X317075Y566863D01*
X267085Y554082D02*
X265919Y555249D01*
X263586D01*
X262420Y554082D01*
Y549417D01*
X263586Y548251D01*
X265919D01*
X267085Y549417D01*
X269417Y554082D02*
X270584Y555249D01*
X272916D01*
X274083Y554082D01*
Y552916D01*
X272916Y551750D01*
X271750D01*
X272916D01*
X274083Y550584D01*
Y549417D01*
X272916Y548251D01*
X270584D01*
X269417Y549417D01*
X276415Y554082D02*
X277581Y555249D01*
X279914D01*
X281080Y554082D01*
Y549417D01*
X279914Y548251D01*
X277581D01*
X276415Y549417D01*
Y554082D01*
X267335Y578083D02*
X266168Y579249D01*
X263836D01*
X262670Y578083D01*
Y573417D01*
X263836Y572251D01*
X266168D01*
X267335Y573417D01*
X274333Y572251D02*
X269667D01*
X274333Y576916D01*
Y578083D01*
X273166Y579249D01*
X270834D01*
X269667Y578083D01*
X276665Y573417D02*
X277831Y572251D01*
X280164D01*
X281330Y573417D01*
Y578083D01*
X280164Y579249D01*
X277831D01*
X276665Y578083D01*
Y576916D01*
X277831Y575750D01*
X281330D01*
X585585Y479833D02*
X584418Y480999D01*
X582086D01*
X580920Y479833D01*
Y475167D01*
X582086Y474001D01*
X584418D01*
X585585Y475167D01*
X592583Y474001D02*
X587917D01*
X592583Y478666D01*
Y479833D01*
X591416Y480999D01*
X589084D01*
X587917Y479833D01*
X594915D02*
X596082Y480999D01*
X598414D01*
X599580Y479833D01*
Y478666D01*
X598414Y477500D01*
X599580Y476334D01*
Y475167D01*
X598414Y474001D01*
X596082D01*
X594915Y475167D01*
Y476334D01*
X596082Y477500D01*
X594915Y478666D01*
Y479833D01*
X596082Y477500D02*
X598414D01*
X431835Y578583D02*
X430668Y579749D01*
X428336D01*
X427170Y578583D01*
Y573917D01*
X428336Y572751D01*
X430668D01*
X431835Y573917D01*
X438833Y572751D02*
X434167D01*
X438833Y577416D01*
Y578583D01*
X437666Y579749D01*
X435334D01*
X434167Y578583D01*
X441165Y579749D02*
X445830D01*
Y578583D01*
X441165Y573917D01*
Y572751D01*
X432835Y645083D02*
X431669Y646249D01*
X429336D01*
X428170Y645083D01*
Y640417D01*
X429336Y639251D01*
X431669D01*
X432835Y640417D01*
X439833Y639251D02*
X435167D01*
X439833Y643916D01*
Y645083D01*
X438666Y646249D01*
X436334D01*
X435167Y645083D01*
X446830Y646249D02*
X444498Y645083D01*
X442165Y642750D01*
Y640417D01*
X443331Y639251D01*
X445664D01*
X446830Y640417D01*
Y641584D01*
X445664Y642750D01*
X442165D01*
X390333Y822165D02*
X391499Y823331D01*
Y825664D01*
X390333Y826830D01*
X385667D01*
X384501Y825664D01*
Y823331D01*
X385667Y822165D01*
X384501Y815167D02*
Y819833D01*
X389166Y815167D01*
X390333D01*
X391499Y816334D01*
Y818666D01*
X390333Y819833D01*
X391499Y808170D02*
Y812835D01*
X388000D01*
X389166Y810502D01*
Y809336D01*
X388000Y808170D01*
X385667D01*
X384501Y809336D01*
Y811668D01*
X385667Y812835D01*
X503085Y643833D02*
X501918Y644999D01*
X499586D01*
X498420Y643833D01*
Y639167D01*
X499586Y638001D01*
X501918D01*
X503085Y639167D01*
X510083Y638001D02*
X505417D01*
X510083Y642666D01*
Y643833D01*
X508916Y644999D01*
X506584D01*
X505417Y643833D01*
X515914Y638001D02*
Y644999D01*
X512415Y641500D01*
X517080D01*
X668085Y585833D02*
X666918Y586999D01*
X664586D01*
X663420Y585833D01*
Y581167D01*
X664586Y580001D01*
X666918D01*
X668085Y581167D01*
X675083Y580001D02*
X670417D01*
X675083Y584666D01*
Y585833D01*
X673916Y586999D01*
X671584D01*
X670417Y585833D01*
X677415D02*
X678581Y586999D01*
X680914D01*
X682080Y585833D01*
Y584666D01*
X680914Y583500D01*
X679748D01*
X680914D01*
X682080Y582334D01*
Y581167D01*
X680914Y580001D01*
X678581D01*
X677415Y581167D01*
X651443Y603837D02*
X650277Y605003D01*
X647944D01*
X646778Y603837D01*
Y599171D01*
X647944Y598005D01*
X650277D01*
X651443Y599171D01*
X658441Y598005D02*
X653775D01*
X658441Y602670D01*
Y603837D01*
X657274Y605003D01*
X654942D01*
X653775Y603837D01*
X665438Y598005D02*
X660773D01*
X665438Y602670D01*
Y603837D01*
X664272Y605003D01*
X661939D01*
X660773Y603837D01*
X575751Y845332D02*
X574585Y846499D01*
X572252D01*
X571086Y845332D01*
Y840667D01*
X572252Y839501D01*
X574585D01*
X575751Y840667D01*
X582749Y839501D02*
X578084D01*
X582749Y844166D01*
Y845332D01*
X581583Y846499D01*
X579250D01*
X578084Y845332D01*
X585081Y839501D02*
X587414D01*
X586248D01*
Y846499D01*
X585081Y845332D01*
X586585Y867333D02*
X585419Y868499D01*
X583086D01*
X581920Y867333D01*
Y862667D01*
X583086Y861501D01*
X585419D01*
X586585Y862667D01*
X593583Y861501D02*
X588917D01*
X593583Y866166D01*
Y867333D01*
X592416Y868499D01*
X590084D01*
X588917Y867333D01*
X595915D02*
X597081Y868499D01*
X599414D01*
X600580Y867333D01*
Y862667D01*
X599414Y861501D01*
X597081D01*
X595915Y862667D01*
Y867333D01*
X505918Y839833D02*
X504752Y840999D01*
X502419D01*
X501253Y839833D01*
Y835167D01*
X502419Y834001D01*
X504752D01*
X505918Y835167D01*
X508251Y834001D02*
X510583D01*
X509417D01*
Y840999D01*
X508251Y839833D01*
X514082Y835167D02*
X515248Y834001D01*
X517581D01*
X518747Y835167D01*
Y839833D01*
X517581Y840999D01*
X515248D01*
X514082Y839833D01*
Y838666D01*
X515248Y837500D01*
X518747D01*
X687838Y654764D02*
X689005Y655930D01*
Y658263D01*
X687838Y659429D01*
X683173D01*
X682007Y658263D01*
Y655930D01*
X683173Y654764D01*
X682007Y652432D02*
Y650099D01*
Y651265D01*
X689005D01*
X687838Y652432D01*
Y646600D02*
X689005Y645434D01*
Y643101D01*
X687838Y641935D01*
X686672D01*
X685506Y643101D01*
X684339Y641935D01*
X683173D01*
X682007Y643101D01*
Y645434D01*
X683173Y646600D01*
X684339D01*
X685506Y645434D01*
X686672Y646600D01*
X687838D01*
X685506Y645434D02*
Y643101D01*
X680168Y539333D02*
X679002Y540499D01*
X676669D01*
X675503Y539333D01*
Y534667D01*
X676669Y533501D01*
X679002D01*
X680168Y534667D01*
X682501Y533501D02*
X684833D01*
X683667D01*
Y540499D01*
X682501Y539333D01*
X688332Y540499D02*
X692997D01*
Y539333D01*
X688332Y534667D01*
Y533501D01*
X700538Y654510D02*
X701705Y655676D01*
Y658009D01*
X700538Y659175D01*
X695873D01*
X694707Y658009D01*
Y655676D01*
X695873Y654510D01*
X694707Y652178D02*
Y649845D01*
Y651011D01*
X701705D01*
X700538Y652178D01*
X701705Y641681D02*
X700538Y644014D01*
X698206Y646346D01*
X695873D01*
X694707Y645180D01*
Y642847D01*
X695873Y641681D01*
X697039D01*
X698206Y642847D01*
Y646346D01*
X690668Y484833D02*
X689502Y485999D01*
X687169D01*
X686003Y484833D01*
Y480167D01*
X687169Y479001D01*
X689502D01*
X690668Y480167D01*
X693001Y479001D02*
X695333D01*
X694167D01*
Y485999D01*
X693001Y484833D01*
X703497Y485999D02*
X698832D01*
Y482500D01*
X701165Y483666D01*
X702331D01*
X703497Y482500D01*
Y480167D01*
X702331Y479001D01*
X699998D01*
X698832Y480167D01*
X690918Y521833D02*
X689752Y522999D01*
X687419D01*
X686253Y521833D01*
Y517167D01*
X687419Y516001D01*
X689752D01*
X690918Y517167D01*
X693251Y516001D02*
X695583D01*
X694417D01*
Y522999D01*
X693251Y521833D01*
X702581Y516001D02*
Y522999D01*
X699082Y519500D01*
X703747D01*
X831168Y558083D02*
X830002Y559249D01*
X827669D01*
X826503Y558083D01*
Y553417D01*
X827669Y552251D01*
X830002D01*
X831168Y553417D01*
X833501Y552251D02*
X835833D01*
X834667D01*
Y559249D01*
X833501Y558083D01*
X839332D02*
X840498Y559249D01*
X842831D01*
X843997Y558083D01*
Y556916D01*
X842831Y555750D01*
X841665D01*
X842831D01*
X843997Y554584D01*
Y553417D01*
X842831Y552251D01*
X840498D01*
X839332Y553417D01*
X798418Y619083D02*
X797252Y620249D01*
X794919D01*
X793753Y619083D01*
Y614417D01*
X794919Y613251D01*
X797252D01*
X798418Y614417D01*
X800751Y613251D02*
X803083D01*
X801917D01*
Y620249D01*
X800751Y619083D01*
X811247Y613251D02*
X806582D01*
X811247Y617916D01*
Y619083D01*
X810081Y620249D01*
X807748D01*
X806582Y619083D01*
X745325Y485540D02*
X746491Y486706D01*
Y489039D01*
X745325Y490205D01*
X740659D01*
X739493Y489039D01*
Y486706D01*
X740659Y485540D01*
X739493Y483207D02*
Y480875D01*
Y482041D01*
X746491D01*
X745325Y483207D01*
X739493Y477376D02*
Y475043D01*
Y476209D01*
X746491D01*
X745325Y477376D01*
X798486Y912030D02*
X797320Y913197D01*
X794987D01*
X793821Y912030D01*
Y907365D01*
X794987Y906199D01*
X797320D01*
X798486Y907365D01*
X800818Y906199D02*
X803151D01*
X801985D01*
Y913197D01*
X800818Y912030D01*
X806650D02*
X807816Y913197D01*
X810149D01*
X811315Y912030D01*
Y907365D01*
X810149Y906199D01*
X807816D01*
X806650Y907365D01*
Y912030D01*
X801084Y880833D02*
X799917Y881999D01*
X797585D01*
X796419Y880833D01*
Y876167D01*
X797585Y875001D01*
X799917D01*
X801084Y876167D01*
X803416D02*
X804583Y875001D01*
X806915D01*
X808082Y876167D01*
Y880833D01*
X806915Y881999D01*
X804583D01*
X803416Y880833D01*
Y879666D01*
X804583Y878500D01*
X808082D01*
X746933Y670564D02*
X748099Y671731D01*
Y674063D01*
X746933Y675230D01*
X742268D01*
X741101Y674063D01*
Y671731D01*
X742268Y670564D01*
X746933Y668232D02*
X748099Y667066D01*
Y664733D01*
X746933Y663567D01*
X745767D01*
X744600Y664733D01*
X743434Y663567D01*
X742268D01*
X741101Y664733D01*
Y667066D01*
X742268Y668232D01*
X743434D01*
X744600Y667066D01*
X745767Y668232D01*
X746933D01*
X744600Y667066D02*
Y664733D01*
X771834Y559083D02*
X770667Y560249D01*
X768335D01*
X767169Y559083D01*
Y554417D01*
X768335Y553251D01*
X770667D01*
X771834Y554417D01*
X774166Y560249D02*
X778831D01*
Y559083D01*
X774166Y554417D01*
Y553251D01*
X798084Y606833D02*
X796917Y607999D01*
X794585D01*
X793419Y606833D01*
Y602167D01*
X794585Y601001D01*
X796917D01*
X798084Y602167D01*
X805081Y607999D02*
X802749Y606833D01*
X800416Y604500D01*
Y602167D01*
X801583Y601001D01*
X803915D01*
X805081Y602167D01*
Y603334D01*
X803915Y604500D01*
X800416D01*
X766584Y485333D02*
X765417Y486499D01*
X763085D01*
X761919Y485333D01*
Y480667D01*
X763085Y479501D01*
X765417D01*
X766584Y480667D01*
X773581Y486499D02*
X768916D01*
Y483000D01*
X771249Y484166D01*
X772415D01*
X773581Y483000D01*
Y480667D01*
X772415Y479501D01*
X770083D01*
X768916Y480667D01*
X759379Y670057D02*
X760545Y671223D01*
Y673555D01*
X759379Y674722D01*
X754714D01*
X753547Y673555D01*
Y671223D01*
X754714Y670057D01*
X753547Y664225D02*
X760545D01*
X757046Y667724D01*
Y663059D01*
X785584Y596083D02*
X784417Y597249D01*
X782085D01*
X780919Y596083D01*
Y591417D01*
X782085Y590251D01*
X784417D01*
X785584Y591417D01*
X787916Y596083D02*
X789083Y597249D01*
X791415D01*
X792581Y596083D01*
Y594916D01*
X791415Y593750D01*
X790249D01*
X791415D01*
X792581Y592584D01*
Y591417D01*
X791415Y590251D01*
X789083D01*
X787916Y591417D01*
X828084Y572083D02*
X826917Y573249D01*
X824585D01*
X823419Y572083D01*
Y567417D01*
X824585Y566251D01*
X826917D01*
X828084Y567417D01*
X835081Y566251D02*
X830416D01*
X835081Y570916D01*
Y572083D01*
X833915Y573249D01*
X831583D01*
X830416Y572083D01*
X804333Y501250D02*
X805499Y502416D01*
Y504749D01*
X804333Y505915D01*
X799667D01*
X798501Y504749D01*
Y502416D01*
X799667Y501250D01*
X798501Y498917D02*
Y496585D01*
Y497751D01*
X805499D01*
X804333Y498917D01*
X656590Y467614D02*
Y472279D01*
X658923Y474612D01*
X661255Y472279D01*
Y467614D01*
Y471113D01*
X656590D01*
X663588Y467614D02*
Y474612D01*
X668253Y467614D01*
Y474612D01*
X670585D02*
X675251D01*
X672918D01*
Y467614D01*
X677583D02*
X679916D01*
X678749D01*
Y474612D01*
X677583Y473446D01*
D14*
X528500Y512000D02*
G03*
X529500Y512000I500J0D01*
G01*
D02*
G03*
X528500Y512000I-500J0D01*
G01*
X482500Y512250D02*
G03*
X481500Y512250I-500J0D01*
G01*
D02*
G03*
X482500Y512250I500J0D01*
G01*
X463750Y512750D02*
G03*
X462750Y512750I-500J0D01*
G01*
D02*
G03*
X463750Y512750I500J0D01*
G01*
X749104Y630548D02*
X752104D01*
X749104Y618548D02*
X752104D01*
X448804Y608316D02*
Y611316D01*
X436804Y608316D02*
Y611316D01*
X588966Y498750D02*
X635966D01*
X588966D02*
X635966D01*
X588966Y533750D02*
X635966D01*
X588966D02*
X635966D01*
D15*
X326598Y537214D02*
X347598D01*
X326598Y558214D02*
X347598D01*
X672600Y881550D02*
X687100D01*
X672600Y853950D02*
X687100D01*
X382250Y538600D02*
Y544400D01*
X360250Y538600D02*
Y544400D01*
X724928Y852634D02*
X745928D01*
X724928Y887634D02*
X745928D01*
X725000Y890500D02*
X746000D01*
X725000Y925500D02*
X746000D01*
X771272Y530454D02*
X778972D01*
X771272Y502254D02*
X778972D01*
X521938Y868782D02*
Y885382D01*
X551538Y868782D02*
Y885382D01*
X419250Y863550D02*
Y877950D01*
X429950D01*
X450250Y863550D02*
Y877950D01*
X439550D02*
X450250D01*
X812800Y755250D02*
X827200D01*
Y744550D02*
Y755250D01*
X812800Y724250D02*
X827200D01*
Y734950D01*
X765634Y713524D02*
Y714774D01*
Y713524D02*
X782634D01*
Y714774D01*
X765634Y743274D02*
Y744524D01*
X782634D01*
Y743274D02*
Y744524D01*
X467000Y621000D02*
X507000D01*
X467000Y571000D02*
X507000D01*
X408750Y774500D02*
Y814500D01*
X458750Y774500D02*
Y814500D01*
X539650Y771450D02*
Y772800D01*
Y771450D02*
X580650D01*
Y772800D01*
X539650Y821100D02*
Y822450D01*
X580650D01*
Y821100D02*
Y822450D01*
D16*
X752600Y603638D02*
X756350D01*
Y599888D02*
Y603638D01*
Y550638D02*
Y554388D01*
X752600Y550638D02*
X756350D01*
X703350D02*
X707100D01*
X703350D02*
Y554388D01*
Y603638D02*
X707100D01*
X703350Y599888D02*
Y603638D01*
D17*
X310250Y530000D02*
X320250D01*
X310250Y559500D02*
X320250D01*
X335000Y561750D02*
Y571750D01*
X364500Y561750D02*
Y571750D01*
D18*
X675080Y771208D02*
Y782078D01*
X882598Y771208D02*
Y845884D01*
X675080D02*
X882598D01*
X675080Y788024D02*
Y845884D01*
Y771208D02*
X882598D01*
D19*
X866920Y863000D02*
X875384Y871464D01*
Y863000D02*
X866920Y871464D01*
X871152Y863000D02*
Y871464D01*
X875384Y867232D02*
X866920D01*
D20*
X808250Y531000D02*
D03*
D21*
X399500Y596250D02*
D03*
M02*
