%TF.GenerationSoftware,Altium Limited,Altium Designer,24.4.1 (13)*%
G04 Layer_Color=255*
%FSLAX45Y45*%
%MOMM*%
%TF.SameCoordinates,EFC9E65E-F59A-4C70-970D-A36E2AA460D7*%
%TF.FilePolarity,Positive*%
%TF.FileFunction,Pads,Top*%
%TF.Part,Single*%
G01*
G75*
%TA.AperFunction,SMDPad,SMDef*%
G04:AMPARAMS|DCode=11|XSize=1mm|YSize=1.54mm|CornerRadius=0.25mm|HoleSize=0mm|Usage=FLASHONLY|Rotation=180.000|XOffset=0mm|YOffset=0mm|HoleType=Round|Shape=RoundedRectangle|*
%AMROUNDEDRECTD11*
21,1,1.00000,1.04000,0,0,180.0*
21,1,0.50000,1.54000,0,0,180.0*
1,1,0.50000,-0.25000,0.52000*
1,1,0.50000,0.25000,0.52000*
1,1,0.50000,0.25000,-0.52000*
1,1,0.50000,-0.25000,-0.52000*
%
%ADD11ROUNDEDRECTD11*%
%TA.AperFunction,SMDPad,CuDef*%
G04:AMPARAMS|DCode=12|XSize=0.56mm|YSize=0.32mm|CornerRadius=0.08mm|HoleSize=0mm|Usage=FLASHONLY|Rotation=180.000|XOffset=0mm|YOffset=0mm|HoleType=Round|Shape=RoundedRectangle|*
%AMROUNDEDRECTD12*
21,1,0.56000,0.16000,0,0,180.0*
21,1,0.40000,0.32000,0,0,180.0*
1,1,0.16000,-0.20000,0.08000*
1,1,0.16000,0.20000,0.08000*
1,1,0.16000,0.20000,-0.08000*
1,1,0.16000,-0.20000,-0.08000*
%
%ADD12ROUNDEDRECTD12*%
%ADD13R,0.80000X0.80000*%
%ADD14R,0.80000X0.80000*%
%ADD15R,3.50000X3.50000*%
%ADD16O,0.85000X0.20000*%
%ADD17O,0.20000X0.85000*%
G04:AMPARAMS|DCode=18|XSize=0.58mm|YSize=0.58mm|CornerRadius=0.1508mm|HoleSize=0mm|Usage=FLASHONLY|Rotation=0.000|XOffset=0mm|YOffset=0mm|HoleType=Round|Shape=RoundedRectangle|*
%AMROUNDEDRECTD18*
21,1,0.58000,0.27840,0,0,0.0*
21,1,0.27840,0.58000,0,0,0.0*
1,1,0.30160,0.13920,-0.13920*
1,1,0.30160,-0.13920,-0.13920*
1,1,0.30160,-0.13920,0.13920*
1,1,0.30160,0.13920,0.13920*
%
%ADD18ROUNDEDRECTD18*%
G04:AMPARAMS|DCode=19|XSize=1.21mm|YSize=0.59mm|CornerRadius=0.07375mm|HoleSize=0mm|Usage=FLASHONLY|Rotation=0.000|XOffset=0mm|YOffset=0mm|HoleType=Round|Shape=RoundedRectangle|*
%AMROUNDEDRECTD19*
21,1,1.21000,0.44250,0,0,0.0*
21,1,1.06250,0.59000,0,0,0.0*
1,1,0.14750,0.53125,-0.22125*
1,1,0.14750,-0.53125,-0.22125*
1,1,0.14750,-0.53125,0.22125*
1,1,0.14750,0.53125,0.22125*
%
%ADD19ROUNDEDRECTD19*%
%TA.AperFunction,ConnectorPad*%
%ADD20R,3.20000X1.20000*%
%ADD21R,5.60000X2.20000*%
%ADD22R,2.20000X5.60000*%
%ADD23R,1.20000X3.20000*%
%TA.AperFunction,SMDPad,CuDef*%
G04:AMPARAMS|DCode=24|XSize=0.75mm|YSize=1.4mm|CornerRadius=0.1875mm|HoleSize=0mm|Usage=FLASHONLY|Rotation=180.000|XOffset=0mm|YOffset=0mm|HoleType=Round|Shape=RoundedRectangle|*
%AMROUNDEDRECTD24*
21,1,0.75000,1.02500,0,0,180.0*
21,1,0.37500,1.40000,0,0,180.0*
1,1,0.37500,-0.18750,0.51250*
1,1,0.37500,0.18750,0.51250*
1,1,0.37500,0.18750,-0.51250*
1,1,0.37500,-0.18750,-0.51250*
%
%ADD24ROUNDEDRECTD24*%
G04:AMPARAMS|DCode=25|XSize=0.75mm|YSize=1.4mm|CornerRadius=0.1875mm|HoleSize=0mm|Usage=FLASHONLY|Rotation=90.000|XOffset=0mm|YOffset=0mm|HoleType=Round|Shape=RoundedRectangle|*
%AMROUNDEDRECTD25*
21,1,0.75000,1.02500,0,0,90.0*
21,1,0.37500,1.40000,0,0,90.0*
1,1,0.37500,0.51250,0.18750*
1,1,0.37500,0.51250,-0.18750*
1,1,0.37500,-0.51250,-0.18750*
1,1,0.37500,-0.51250,0.18750*
%
%ADD25ROUNDEDRECTD25*%
%TA.AperFunction,ConnectorPad*%
%ADD26R,1.15000X0.60000*%
%ADD27R,1.15000X0.30000*%
%TA.AperFunction,SMDPad,CuDef*%
%ADD28R,0.35000X0.60000*%
G04:AMPARAMS|DCode=29|XSize=1.05mm|YSize=2.77mm|CornerRadius=0.252mm|HoleSize=0mm|Usage=FLASHONLY|Rotation=0.000|XOffset=0mm|YOffset=0mm|HoleType=Round|Shape=RoundedRectangle|*
%AMROUNDEDRECTD29*
21,1,1.05000,2.26600,0,0,0.0*
21,1,0.54600,2.77000,0,0,0.0*
1,1,0.50400,0.27300,-1.13300*
1,1,0.50400,-0.27300,-1.13300*
1,1,0.50400,-0.27300,1.13300*
1,1,0.50400,0.27300,1.13300*
%
%ADD29ROUNDEDRECTD29*%
G04:AMPARAMS|DCode=30|XSize=1.07mm|YSize=2.77mm|CornerRadius=0.25145mm|HoleSize=0mm|Usage=FLASHONLY|Rotation=180.000|XOffset=0mm|YOffset=0mm|HoleType=Round|Shape=RoundedRectangle|*
%AMROUNDEDRECTD30*
21,1,1.07000,2.26710,0,0,180.0*
21,1,0.56710,2.77000,0,0,180.0*
1,1,0.50290,-0.28355,1.13355*
1,1,0.50290,0.28355,1.13355*
1,1,0.50290,0.28355,-1.13355*
1,1,0.50290,-0.28355,-1.13355*
%
%ADD30ROUNDEDRECTD30*%
G04:AMPARAMS|DCode=31|XSize=0.58mm|YSize=0.58mm|CornerRadius=0.1305mm|HoleSize=0mm|Usage=FLASHONLY|Rotation=180.000|XOffset=0mm|YOffset=0mm|HoleType=Round|Shape=RoundedRectangle|*
%AMROUNDEDRECTD31*
21,1,0.58000,0.31900,0,0,180.0*
21,1,0.31900,0.58000,0,0,180.0*
1,1,0.26100,-0.15950,0.15950*
1,1,0.26100,0.15950,0.15950*
1,1,0.26100,0.15950,-0.15950*
1,1,0.26100,-0.15950,-0.15950*
%
%ADD31ROUNDEDRECTD31*%
G04:AMPARAMS|DCode=32|XSize=0.58mm|YSize=0.58mm|CornerRadius=0.1508mm|HoleSize=0mm|Usage=FLASHONLY|Rotation=270.000|XOffset=0mm|YOffset=0mm|HoleType=Round|Shape=RoundedRectangle|*
%AMROUNDEDRECTD32*
21,1,0.58000,0.27840,0,0,270.0*
21,1,0.27840,0.58000,0,0,270.0*
1,1,0.30160,-0.13920,-0.13920*
1,1,0.30160,-0.13920,0.13920*
1,1,0.30160,0.13920,0.13920*
1,1,0.30160,0.13920,-0.13920*
%
%ADD32ROUNDEDRECTD32*%
G04:AMPARAMS|DCode=33|XSize=0.58mm|YSize=0.58mm|CornerRadius=0.1305mm|HoleSize=0mm|Usage=FLASHONLY|Rotation=90.000|XOffset=0mm|YOffset=0mm|HoleType=Round|Shape=RoundedRectangle|*
%AMROUNDEDRECTD33*
21,1,0.58000,0.31900,0,0,90.0*
21,1,0.31900,0.58000,0,0,90.0*
1,1,0.26100,0.15950,0.15950*
1,1,0.26100,0.15950,-0.15950*
1,1,0.26100,-0.15950,-0.15950*
1,1,0.26100,-0.15950,0.15950*
%
%ADD33ROUNDEDRECTD33*%
G04:AMPARAMS|DCode=34|XSize=1.19mm|YSize=2.22mm|CornerRadius=0.2499mm|HoleSize=0mm|Usage=FLASHONLY|Rotation=270.000|XOffset=0mm|YOffset=0mm|HoleType=Round|Shape=RoundedRectangle|*
%AMROUNDEDRECTD34*
21,1,1.19000,1.72020,0,0,270.0*
21,1,0.69020,2.22000,0,0,270.0*
1,1,0.49980,-0.86010,-0.34510*
1,1,0.49980,-0.86010,0.34510*
1,1,0.49980,0.86010,0.34510*
1,1,0.49980,0.86010,-0.34510*
%
%ADD34ROUNDEDRECTD34*%
G04:AMPARAMS|DCode=35|XSize=1.62mm|YSize=3.51mm|CornerRadius=0.2511mm|HoleSize=0mm|Usage=FLASHONLY|Rotation=0.000|XOffset=0mm|YOffset=0mm|HoleType=Round|Shape=RoundedRectangle|*
%AMROUNDEDRECTD35*
21,1,1.62000,3.00780,0,0,0.0*
21,1,1.11780,3.51000,0,0,0.0*
1,1,0.50220,0.55890,-1.50390*
1,1,0.50220,-0.55890,-1.50390*
1,1,0.50220,-0.55890,1.50390*
1,1,0.50220,0.55890,1.50390*
%
%ADD35ROUNDEDRECTD35*%
G04:AMPARAMS|DCode=36|XSize=0.95mm|YSize=1.02mm|CornerRadius=0.24225mm|HoleSize=0mm|Usage=FLASHONLY|Rotation=90.000|XOffset=0mm|YOffset=0mm|HoleType=Round|Shape=RoundedRectangle|*
%AMROUNDEDRECTD36*
21,1,0.95000,0.53550,0,0,90.0*
21,1,0.46550,1.02000,0,0,90.0*
1,1,0.48450,0.26775,0.23275*
1,1,0.48450,0.26775,-0.23275*
1,1,0.48450,-0.26775,-0.23275*
1,1,0.48450,-0.26775,0.23275*
%
%ADD36ROUNDEDRECTD36*%
G04:AMPARAMS|DCode=37|XSize=0.95mm|YSize=1.02mm|CornerRadius=0.24225mm|HoleSize=0mm|Usage=FLASHONLY|Rotation=0.000|XOffset=0mm|YOffset=0mm|HoleType=Round|Shape=RoundedRectangle|*
%AMROUNDEDRECTD37*
21,1,0.95000,0.53550,0,0,0.0*
21,1,0.46550,1.02000,0,0,0.0*
1,1,0.48450,0.23275,-0.26775*
1,1,0.48450,-0.23275,-0.26775*
1,1,0.48450,-0.23275,0.26775*
1,1,0.48450,0.23275,0.26775*
%
%ADD37ROUNDEDRECTD37*%
G04:AMPARAMS|DCode=38|XSize=0.66mm|YSize=0.7mm|CornerRadius=0.1716mm|HoleSize=0mm|Usage=FLASHONLY|Rotation=270.000|XOffset=0mm|YOffset=0mm|HoleType=Round|Shape=RoundedRectangle|*
%AMROUNDEDRECTD38*
21,1,0.66000,0.35680,0,0,270.0*
21,1,0.31680,0.70000,0,0,270.0*
1,1,0.34320,-0.17840,-0.15840*
1,1,0.34320,-0.17840,0.15840*
1,1,0.34320,0.17840,0.15840*
1,1,0.34320,0.17840,-0.15840*
%
%ADD38ROUNDEDRECTD38*%
G04:AMPARAMS|DCode=39|XSize=0.66mm|YSize=0.7mm|CornerRadius=0.1716mm|HoleSize=0mm|Usage=FLASHONLY|Rotation=0.000|XOffset=0mm|YOffset=0mm|HoleType=Round|Shape=RoundedRectangle|*
%AMROUNDEDRECTD39*
21,1,0.66000,0.35680,0,0,0.0*
21,1,0.31680,0.70000,0,0,0.0*
1,1,0.34320,0.15840,-0.17840*
1,1,0.34320,-0.15840,-0.17840*
1,1,0.34320,-0.15840,0.17840*
1,1,0.34320,0.15840,0.17840*
%
%ADD39ROUNDEDRECTD39*%
G04:AMPARAMS|DCode=40|XSize=1mm|YSize=1mm|CornerRadius=0.25mm|HoleSize=0mm|Usage=FLASHONLY|Rotation=270.000|XOffset=0mm|YOffset=0mm|HoleType=Round|Shape=RoundedRectangle|*
%AMROUNDEDRECTD40*
21,1,1.00000,0.50000,0,0,270.0*
21,1,0.50000,1.00000,0,0,270.0*
1,1,0.50000,-0.25000,-0.25000*
1,1,0.50000,-0.25000,0.25000*
1,1,0.50000,0.25000,0.25000*
1,1,0.50000,0.25000,-0.25000*
%
%ADD40ROUNDEDRECTD40*%
G04:AMPARAMS|DCode=41|XSize=1mm|YSize=1mm|CornerRadius=0.25mm|HoleSize=0mm|Usage=FLASHONLY|Rotation=0.000|XOffset=0mm|YOffset=0mm|HoleType=Round|Shape=RoundedRectangle|*
%AMROUNDEDRECTD41*
21,1,1.00000,0.50000,0,0,0.0*
21,1,0.50000,1.00000,0,0,0.0*
1,1,0.50000,0.25000,-0.25000*
1,1,0.50000,-0.25000,-0.25000*
1,1,0.50000,-0.25000,0.25000*
1,1,0.50000,0.25000,0.25000*
%
%ADD41ROUNDEDRECTD41*%
G04:AMPARAMS|DCode=42|XSize=1.19mm|YSize=1.29mm|CornerRadius=0.2499mm|HoleSize=0mm|Usage=FLASHONLY|Rotation=270.000|XOffset=0mm|YOffset=0mm|HoleType=Round|Shape=RoundedRectangle|*
%AMROUNDEDRECTD42*
21,1,1.19000,0.79020,0,0,270.0*
21,1,0.69020,1.29000,0,0,270.0*
1,1,0.49980,-0.39510,-0.34510*
1,1,0.49980,-0.39510,0.34510*
1,1,0.49980,0.39510,0.34510*
1,1,0.49980,0.39510,-0.34510*
%
%ADD42ROUNDEDRECTD42*%
%ADD43R,0.76000X2.40000*%
G04:AMPARAMS|DCode=44|XSize=1.02mm|YSize=0.46mm|CornerRadius=0.1196mm|HoleSize=0mm|Usage=FLASHONLY|Rotation=270.000|XOffset=0mm|YOffset=0mm|HoleType=Round|Shape=RoundedRectangle|*
%AMROUNDEDRECTD44*
21,1,1.02000,0.22080,0,0,270.0*
21,1,0.78080,0.46000,0,0,270.0*
1,1,0.23920,-0.11040,-0.39040*
1,1,0.23920,-0.11040,0.39040*
1,1,0.23920,0.11040,0.39040*
1,1,0.23920,0.11040,-0.39040*
%
%ADD44ROUNDEDRECTD44*%
G04:AMPARAMS|DCode=45|XSize=1.03mm|YSize=0.6mm|CornerRadius=0.15mm|HoleSize=0mm|Usage=FLASHONLY|Rotation=270.000|XOffset=0mm|YOffset=0mm|HoleType=Round|Shape=RoundedRectangle|*
%AMROUNDEDRECTD45*
21,1,1.03000,0.30000,0,0,270.0*
21,1,0.73000,0.60000,0,0,270.0*
1,1,0.30000,-0.15000,-0.36500*
1,1,0.30000,-0.15000,0.36500*
1,1,0.30000,0.15000,0.36500*
1,1,0.30000,0.15000,-0.36500*
%
%ADD45ROUNDEDRECTD45*%
G04:AMPARAMS|DCode=46|XSize=1.03mm|YSize=0.6mm|CornerRadius=0.15mm|HoleSize=0mm|Usage=FLASHONLY|Rotation=180.000|XOffset=0mm|YOffset=0mm|HoleType=Round|Shape=RoundedRectangle|*
%AMROUNDEDRECTD46*
21,1,1.03000,0.30000,0,0,180.0*
21,1,0.73000,0.60000,0,0,180.0*
1,1,0.30000,-0.36500,0.15000*
1,1,0.30000,0.36500,0.15000*
1,1,0.30000,0.36500,-0.15000*
1,1,0.30000,-0.36500,-0.15000*
%
%ADD46ROUNDEDRECTD46*%
G04:AMPARAMS|DCode=47|XSize=1.29mm|YSize=0.59mm|CornerRadius=0.15045mm|HoleSize=0mm|Usage=FLASHONLY|Rotation=0.000|XOffset=0mm|YOffset=0mm|HoleType=Round|Shape=RoundedRectangle|*
%AMROUNDEDRECTD47*
21,1,1.29000,0.28910,0,0,0.0*
21,1,0.98910,0.59000,0,0,0.0*
1,1,0.30090,0.49455,-0.14455*
1,1,0.30090,-0.49455,-0.14455*
1,1,0.30090,-0.49455,0.14455*
1,1,0.30090,0.49455,0.14455*
%
%ADD47ROUNDEDRECTD47*%
%ADD48R,1.45000X1.00000*%
G04:AMPARAMS|DCode=49|XSize=2.07mm|YSize=0.63mm|CornerRadius=0.16065mm|HoleSize=0mm|Usage=FLASHONLY|Rotation=180.000|XOffset=0mm|YOffset=0mm|HoleType=Round|Shape=RoundedRectangle|*
%AMROUNDEDRECTD49*
21,1,2.07000,0.30870,0,0,180.0*
21,1,1.74870,0.63000,0,0,180.0*
1,1,0.32130,-0.87435,0.15435*
1,1,0.32130,0.87435,0.15435*
1,1,0.32130,0.87435,-0.15435*
1,1,0.32130,-0.87435,-0.15435*
%
%ADD49ROUNDEDRECTD49*%
G04:AMPARAMS|DCode=50|XSize=2.07mm|YSize=0.63mm|CornerRadius=0.16065mm|HoleSize=0mm|Usage=FLASHONLY|Rotation=270.000|XOffset=0mm|YOffset=0mm|HoleType=Round|Shape=RoundedRectangle|*
%AMROUNDEDRECTD50*
21,1,2.07000,0.30870,0,0,270.0*
21,1,1.74870,0.63000,0,0,270.0*
1,1,0.32130,-0.15435,-0.87435*
1,1,0.32130,-0.15435,0.87435*
1,1,0.32130,0.15435,0.87435*
1,1,0.32130,0.15435,-0.87435*
%
%ADD50ROUNDEDRECTD50*%
G04:AMPARAMS|DCode=51|XSize=2.01mm|YSize=0.66mm|CornerRadius=0.1716mm|HoleSize=0mm|Usage=FLASHONLY|Rotation=180.000|XOffset=0mm|YOffset=0mm|HoleType=Round|Shape=RoundedRectangle|*
%AMROUNDEDRECTD51*
21,1,2.01000,0.31680,0,0,180.0*
21,1,1.66680,0.66000,0,0,180.0*
1,1,0.34320,-0.83340,0.15840*
1,1,0.34320,0.83340,0.15840*
1,1,0.34320,0.83340,-0.15840*
1,1,0.34320,-0.83340,-0.15840*
%
%ADD51ROUNDEDRECTD51*%
%TA.AperFunction,ConnectorPad*%
%ADD52R,0.80000X1.60000*%
%ADD53R,0.80000X0.65000*%
%TA.AperFunction,ComponentPad*%
%ADD67C,2.40000*%
%ADD68R,1.80000X1.80000*%
%ADD69C,1.80000*%
%ADD70C,1.10000*%
G04:AMPARAMS|DCode=71|XSize=1.8mm|YSize=1mm|CornerRadius=0.25mm|HoleSize=0mm|Usage=FLASHONLY|Rotation=0.000|XOffset=0mm|YOffset=0mm|HoleType=Round|Shape=RoundedRectangle|*
%AMROUNDEDRECTD71*
21,1,1.80000,0.50000,0,0,0.0*
21,1,1.30000,1.00000,0,0,0.0*
1,1,0.50000,0.65000,-0.25000*
1,1,0.50000,-0.65000,-0.25000*
1,1,0.50000,-0.65000,0.25000*
1,1,0.50000,0.65000,0.25000*
%
%ADD71ROUNDEDRECTD71*%
%ADD72O,2.10000X1.00000*%
%ADD73C,0.65000*%
%ADD74C,1.54940*%
D11*
X3370980Y5477140D02*
D03*
D12*
X3272980Y5412140D02*
D03*
Y5477140D02*
D03*
Y5542140D02*
D03*
X3468980D02*
D03*
Y5477140D02*
D03*
Y5412140D02*
D03*
D13*
X8310000Y5310000D02*
D03*
X8150000D02*
D03*
D14*
X3995000Y5735000D02*
D03*
Y5895000D02*
D03*
D15*
X7298497Y5771382D02*
D03*
D16*
X7538497Y5951382D02*
D03*
Y5911382D02*
D03*
Y5871382D02*
D03*
Y5831382D02*
D03*
Y5791382D02*
D03*
Y5751382D02*
D03*
Y5711382D02*
D03*
Y5671382D02*
D03*
Y5631382D02*
D03*
Y5591382D02*
D03*
X7058497D02*
D03*
Y5631382D02*
D03*
Y5671382D02*
D03*
Y5711382D02*
D03*
Y5751382D02*
D03*
Y5791382D02*
D03*
Y5831382D02*
D03*
Y5871382D02*
D03*
Y5911382D02*
D03*
Y5951382D02*
D03*
D17*
X7478497Y5531382D02*
D03*
X7438497D02*
D03*
X7398497D02*
D03*
X7358497D02*
D03*
X7318497D02*
D03*
X7278497D02*
D03*
X7238497D02*
D03*
X7198497D02*
D03*
X7158497D02*
D03*
X7118497D02*
D03*
Y6011382D02*
D03*
X7158497D02*
D03*
X7198497D02*
D03*
X7238497D02*
D03*
X7278497D02*
D03*
X7318497D02*
D03*
X7358497D02*
D03*
X7398497D02*
D03*
X7438497D02*
D03*
X7478497D02*
D03*
D18*
X3011000Y5625000D02*
D03*
X2919000D02*
D03*
X7484999Y7287500D02*
D03*
Y7190000D02*
D03*
X5605000Y9120000D02*
D03*
X5605000Y9025000D02*
D03*
X5457500Y8427500D02*
D03*
X5555000Y8517500D02*
D03*
X5292500Y9075000D02*
D03*
X4050000Y7527500D02*
D03*
X4582500Y5295000D02*
D03*
X4387500Y8430000D02*
D03*
X4960001Y5294999D02*
D03*
X6107679Y4913580D02*
D03*
X4400000Y7527500D02*
D03*
X3576940Y5806060D02*
D03*
X3382500Y5805000D02*
D03*
X3457500Y6762500D02*
D03*
X3465800Y6400000D02*
D03*
X8307500Y5420000D02*
D03*
D19*
X3777500Y6692500D02*
D03*
Y6597500D02*
D03*
Y6502500D02*
D03*
X4028500D02*
D03*
Y6597500D02*
D03*
Y6692500D02*
D03*
D20*
X3407500Y8130000D02*
D03*
Y8380000D02*
D03*
Y8630000D02*
D03*
D21*
X2987500Y7805000D02*
D03*
Y8955000D02*
D03*
D22*
X5412500Y9915000D02*
D03*
X4512500D02*
D03*
D23*
X5087500Y9495000D02*
D03*
X4837500D02*
D03*
D24*
X7434536Y6245482D02*
D03*
X7579537D02*
D03*
D25*
X4428040Y6169661D02*
D03*
Y6024660D02*
D03*
D26*
X3310000Y6900500D02*
D03*
Y6260500D02*
D03*
Y6820500D02*
D03*
Y6340500D02*
D03*
D27*
Y6555500D02*
D03*
Y6605500D02*
D03*
Y6505500D02*
D03*
Y6455500D02*
D03*
Y6405500D02*
D03*
Y6655500D02*
D03*
Y6705500D02*
D03*
Y6755500D02*
D03*
D28*
X5242500Y5120000D02*
D03*
X5177500D02*
D03*
X4867500Y5122500D02*
D03*
X4932500D02*
D03*
X4680000Y5127500D02*
D03*
X4745000D02*
D03*
D29*
X6941500Y8677500D02*
D03*
D30*
X6654500D02*
D03*
D31*
X7388999Y7287500D02*
D03*
Y7190000D02*
D03*
X5509000Y9120000D02*
D03*
X5509001Y9025000D02*
D03*
X5553500Y8427500D02*
D03*
X5459000Y8517500D02*
D03*
X5196500Y9075000D02*
D03*
X4146000Y7527500D02*
D03*
X4678500Y5295000D02*
D03*
X4291500Y8430000D02*
D03*
X4864001Y5294999D02*
D03*
X6203679Y4913580D02*
D03*
X4304000Y7527500D02*
D03*
X3480940Y5806060D02*
D03*
X3286500Y5805000D02*
D03*
X3553500Y6762500D02*
D03*
X3561800Y6400000D02*
D03*
X8211500Y5420000D02*
D03*
D32*
X5400000Y9025000D02*
D03*
X5147221Y8755179D02*
D03*
X5055781Y8657719D02*
D03*
X5695000Y5475000D02*
D03*
X5285000Y5770000D02*
D03*
Y5897500D02*
D03*
X5410000Y5210000D02*
D03*
X3992500Y5615000D02*
D03*
X8165000Y5607500D02*
D03*
X8045116Y5711262D02*
D03*
X7237500Y4957500D02*
D03*
X7240000Y4620000D02*
D03*
D33*
X5400000Y9121000D02*
D03*
X5147221Y8659179D02*
D03*
X5055781Y8753719D02*
D03*
X5695000Y5379000D02*
D03*
X5285000Y5674000D02*
D03*
Y5993500D02*
D03*
X5410000Y5114000D02*
D03*
X3992500Y5519000D02*
D03*
X8165000Y5703500D02*
D03*
X8045116Y5807262D02*
D03*
X7237500Y5053500D02*
D03*
X7240000Y4716000D02*
D03*
D34*
X3712500Y5308500D02*
D03*
Y5521500D02*
D03*
D35*
X7558281Y8701341D02*
D03*
X7150280D02*
D03*
X7559000Y9080000D02*
D03*
X7151000D02*
D03*
D36*
X3152500Y5521200D02*
D03*
Y5374200D02*
D03*
D37*
X3571200Y5667500D02*
D03*
X3424200D02*
D03*
D38*
X8007500Y5162500D02*
D03*
Y5257500D02*
D03*
X7555222Y6428043D02*
D03*
Y6523043D02*
D03*
X7446002Y6430583D02*
D03*
Y6525583D02*
D03*
X7435000Y5017500D02*
D03*
Y5112500D02*
D03*
X8045000Y5495000D02*
D03*
Y5590000D02*
D03*
X6956657Y6212182D02*
D03*
Y6307182D02*
D03*
X6852517Y6212942D02*
D03*
Y6307942D02*
D03*
X4005000Y8227500D02*
D03*
Y8132500D02*
D03*
D39*
X7932597Y5710462D02*
D03*
X7837596D02*
D03*
X7932597Y5812062D02*
D03*
X7837596D02*
D03*
X7722523Y4934944D02*
D03*
X7627522D02*
D03*
X7725057Y6057522D02*
D03*
X7820057D02*
D03*
X7660000Y5440000D02*
D03*
X7755000D02*
D03*
X7725497Y6163262D02*
D03*
X7820497D02*
D03*
X7235000Y5177500D02*
D03*
X7140000D02*
D03*
X7237500Y4837500D02*
D03*
X7142500D02*
D03*
X6897500Y5485000D02*
D03*
X6802500D02*
D03*
X5127500Y8265000D02*
D03*
X5222500D02*
D03*
X5592500Y8657500D02*
D03*
X5687500D02*
D03*
X5845000Y8290000D02*
D03*
X5750000D02*
D03*
X6857500Y6012500D02*
D03*
X6762500D02*
D03*
X6775000Y5712500D02*
D03*
X6680000D02*
D03*
X5125780Y6285120D02*
D03*
X5030780D02*
D03*
X4425000Y6287500D02*
D03*
X4330000D02*
D03*
X4422500Y5887500D02*
D03*
X4327500D02*
D03*
X5866339Y4913580D02*
D03*
X5961339D02*
D03*
X2909880Y5730160D02*
D03*
X3004880D02*
D03*
X2999800Y5516800D02*
D03*
X2904800D02*
D03*
X3577500Y5905000D02*
D03*
X3482500D02*
D03*
D40*
X5722500Y8825000D02*
D03*
X4585000Y5425000D02*
D03*
X5105000Y5330000D02*
D03*
D41*
X5147500Y8120000D02*
D03*
X5430000Y7537500D02*
D03*
X5150000Y7947500D02*
D03*
X5637500Y7532500D02*
D03*
X5842500Y7535000D02*
D03*
X4145000Y7372500D02*
D03*
X4102500Y8430000D02*
D03*
X4852500Y5600000D02*
D03*
X5112500D02*
D03*
X4540000Y7365000D02*
D03*
X4580000Y8425000D02*
D03*
D42*
X7630222Y5072544D02*
D03*
X7872223D02*
D03*
Y5254544D02*
D03*
X7630222D02*
D03*
D43*
X4991000Y4822500D02*
D03*
Y4432500D02*
D03*
X5118000Y4822500D02*
D03*
X5245000D02*
D03*
X5118000Y4432500D02*
D03*
X5245000D02*
D03*
X4864000Y4822500D02*
D03*
X4737000D02*
D03*
Y4432500D02*
D03*
X4864000D02*
D03*
D44*
X5464880Y8658320D02*
D03*
X5399880D02*
D03*
X5334880D02*
D03*
X5269880D02*
D03*
Y8883320D02*
D03*
X5334880D02*
D03*
X5399880D02*
D03*
X5464880D02*
D03*
D45*
X4247500Y8607500D02*
D03*
X4447500D02*
D03*
X4347500Y8807500D02*
D03*
D46*
X8100000Y7497500D02*
D03*
Y7297500D02*
D03*
X8300000Y7397500D02*
D03*
D47*
X7856839Y7385240D02*
D03*
Y7290240D02*
D03*
Y7195240D02*
D03*
X7625839D02*
D03*
Y7290240D02*
D03*
Y7385240D02*
D03*
D48*
X6382159Y5247501D02*
D03*
Y5077500D02*
D03*
X5867159Y5247501D02*
D03*
Y5077500D02*
D03*
D49*
X4627500Y6150500D02*
D03*
Y6023500D02*
D03*
Y5896500D02*
D03*
Y5769500D02*
D03*
X5112500D02*
D03*
Y5896500D02*
D03*
Y6023500D02*
D03*
Y6150500D02*
D03*
D50*
X4147000Y7702500D02*
D03*
X4274000D02*
D03*
X4401000D02*
D03*
X4528000D02*
D03*
Y8187500D02*
D03*
X4401000D02*
D03*
X4274000D02*
D03*
X4147000D02*
D03*
D51*
X5360500Y8160000D02*
D03*
Y8033000D02*
D03*
Y7906000D02*
D03*
Y7779000D02*
D03*
X5842500D02*
D03*
Y7906000D02*
D03*
Y8033000D02*
D03*
Y8160000D02*
D03*
D52*
X6607500Y4267500D02*
D03*
D53*
X6927500Y4315000D02*
D03*
Y4220000D02*
D03*
D67*
X6729000Y9617500D02*
D03*
X8010000D02*
D03*
D68*
X7560000Y9527500D02*
D03*
D69*
X7179000D02*
D03*
D70*
X2872500Y8020000D02*
D03*
Y8740000D02*
D03*
X5197500Y10030000D02*
D03*
X4727500D02*
D03*
D71*
X2834500Y7012500D02*
D03*
Y6148500D02*
D03*
D72*
X3252500Y7012500D02*
D03*
Y6148500D02*
D03*
D73*
X3202500Y6291500D02*
D03*
Y6869500D02*
D03*
D74*
X8709144Y8320410D02*
D03*
Y7850510D02*
D03*
X7558524D02*
D03*
X6857484D02*
D03*
%TF.MD5,bbca3611860a109a4829322adc8e61b0*%
M02*
