%TF.GenerationSoftware,Altium Limited,Altium Designer,24.4.1 (13)*%
G04 Layer_Color=65535*
%FSLAX45Y45*%
%MOMM*%
%TF.SameCoordinates,EFC9E65E-F59A-4C70-970D-A36E2AA460D7*%
%TF.FilePolarity,Positive*%
%TF.FileFunction,Legend,Top*%
%TF.Part,Single*%
G01*
G75*
%TA.AperFunction,NonConductor*%
%ADD78C,0.12700*%
%ADD79C,0.25000*%
%ADD80C,0.20000*%
%ADD81C,0.25400*%
%ADD82C,0.10000*%
%ADD83C,0.12000*%
%ADD84C,0.15000*%
%ADD85C,0.13000*%
%ADD86C,0.15240*%
%ADD87R,0.15000X0.80000*%
%ADD88R,0.80000X0.15000*%
D78*
X3475980Y5329640D02*
G03*
X3475980Y5329640I-5000J0D01*
G01*
X3821750Y6754000D02*
X3984250D01*
X3821750Y6441000D02*
X3984250D01*
X6469000Y9407500D02*
Y10295000D01*
Y9407500D02*
X7057000D01*
X7682000D02*
X8270000D01*
Y10295000D01*
X6469000D02*
X8270000D01*
X3307500Y7920000D02*
X3337500D01*
X3307500Y8840000D02*
X3337500D01*
Y7920000D02*
Y8038000D01*
Y8722000D02*
Y8840000D01*
X2607500D02*
X2675500D01*
X2607500Y7920000D02*
Y8840000D01*
Y7920000D02*
X2675500D01*
X4627500Y10227000D02*
Y10295000D01*
X5297500D01*
Y10227000D02*
Y10295000D01*
X5179500Y9565000D02*
X5297500D01*
X4627500D02*
X4745500D01*
X5297500D02*
Y9595000D01*
X4627500Y9565000D02*
Y9595000D01*
X7339999Y7248800D02*
Y7325000D01*
X7533399Y7249400D02*
Y7325600D01*
X7339999Y7151300D02*
Y7227500D01*
X7533399Y7151900D02*
Y7228100D01*
X5460000Y9081300D02*
Y9157500D01*
X5653400Y9081900D02*
Y9158100D01*
X5460001Y8986301D02*
Y9062501D01*
X5653400Y8986900D02*
Y9063100D01*
X5361300Y9170000D02*
X5437500D01*
X5361900Y8976600D02*
X5438100D01*
X5602500Y8390000D02*
Y8466200D01*
X5409100Y8389400D02*
Y8465600D01*
X5410000Y8478800D02*
Y8555000D01*
X5603400Y8479400D02*
Y8555600D01*
X5109721Y8610179D02*
X5185921D01*
X5109121Y8803579D02*
X5185321D01*
X5147500Y9036300D02*
Y9112500D01*
X5340900Y9036900D02*
Y9113100D01*
X5017081Y8802719D02*
X5093281D01*
X5017681Y8609319D02*
X5093881D01*
X4195000Y7490000D02*
Y7566200D01*
X4001600Y7489400D02*
Y7565600D01*
X4727500Y5257500D02*
Y5333700D01*
X4534100Y5256900D02*
Y5333100D01*
X5657500Y5330000D02*
X5733700D01*
X5656900Y5523400D02*
X5733100D01*
X4242500Y8391300D02*
Y8467500D01*
X4435900Y8391900D02*
Y8468100D01*
X4815001Y5256299D02*
Y5332499D01*
X5008401Y5256899D02*
Y5333099D01*
X6252679Y4876080D02*
Y4952280D01*
X6059279Y4875480D02*
Y4951680D01*
X5247500Y5625000D02*
X5323700D01*
X5246900Y5818400D02*
X5323100D01*
X5246300Y6042500D02*
X5322500D01*
X5246900Y5849100D02*
X5323100D01*
X5372500Y5065000D02*
X5448700D01*
X5371900Y5258400D02*
X5448100D01*
X4255000Y7488800D02*
Y7565000D01*
X4448400Y7489400D02*
Y7565600D01*
X3431940Y5767360D02*
Y5843560D01*
X3625340Y5767960D02*
Y5844160D01*
X3237500Y5766300D02*
Y5842500D01*
X3430900Y5766900D02*
Y5843100D01*
X3602500Y6725000D02*
Y6801200D01*
X3409100Y6724400D02*
Y6800600D01*
X3610800Y6362500D02*
Y6438700D01*
X3417400Y6361900D02*
Y6438100D01*
X8162500Y5381300D02*
Y5457500D01*
X8355900Y5381900D02*
Y5458100D01*
X3955000Y5470000D02*
X4031200D01*
X3954400Y5663400D02*
X4030600D01*
X8126300Y5557500D02*
X8202500D01*
X8126900Y5754100D02*
X8203100D01*
X8006417Y5661262D02*
X8082617D01*
X8007016Y5857862D02*
X8083216D01*
X7198800Y4907500D02*
X7275000D01*
X7199400Y5104100D02*
X7275600D01*
X7201300Y4570000D02*
X7277500D01*
X7201900Y4766600D02*
X7278100D01*
X7970000Y5105000D02*
X8046200D01*
X7970000Y5315000D02*
X8046200D01*
X7990097Y5672962D02*
Y5749162D01*
X7780096Y5672962D02*
Y5749162D01*
X7990097Y5774562D02*
Y5850762D01*
X7780096Y5774562D02*
Y5850762D01*
X7517722Y6370543D02*
X7593922D01*
X7517722Y6580543D02*
X7593922D01*
X7780023Y4897444D02*
Y4973644D01*
X7570022Y4897444D02*
Y4973644D01*
X7667557Y6018822D02*
Y6095022D01*
X7877557Y6018822D02*
Y6095022D01*
X7602500Y5401300D02*
Y5477500D01*
X7812500Y5401300D02*
Y5477500D01*
X7408502Y6373083D02*
X7484702D01*
X7408502Y6583083D02*
X7484702D01*
X7397500Y4960000D02*
X7473700D01*
X7397500Y5170000D02*
X7473700D01*
X7667997Y6124562D02*
Y6200762D01*
X7877997Y6124562D02*
Y6200762D01*
X8007500Y5437500D02*
X8083700D01*
X8007500Y5647500D02*
X8083700D01*
X7292500Y5140000D02*
Y5216200D01*
X7082500Y5140000D02*
Y5216200D01*
X7295000Y4800000D02*
Y4876200D01*
X7085000Y4800000D02*
Y4876200D01*
X6919157Y6154682D02*
X6995357D01*
X6919157Y6364682D02*
X6995357D01*
X6955000Y5447500D02*
Y5523700D01*
X6745000Y5447500D02*
Y5523700D01*
X6815017Y6155442D02*
X6891217D01*
X6815017Y6365442D02*
X6891217D01*
X5070000Y8226300D02*
Y8302500D01*
X5280000Y8226300D02*
Y8302500D01*
X5535000Y8618800D02*
Y8695000D01*
X5745000Y8618800D02*
Y8695000D01*
X5902500Y8252500D02*
Y8328700D01*
X5692500Y8252500D02*
Y8328700D01*
X6915000Y5975000D02*
Y6051200D01*
X6705000Y5975000D02*
Y6051200D01*
X6832500Y5675000D02*
Y5751200D01*
X6622500Y5675000D02*
Y5751200D01*
X5183280Y6247620D02*
Y6323820D01*
X4973280Y6247620D02*
Y6323820D01*
X3966300Y8285000D02*
X4042500D01*
X3966300Y8075000D02*
X4042500D01*
X4482500Y6250000D02*
Y6326200D01*
X4272500Y6250000D02*
Y6326200D01*
X4480000Y5850000D02*
Y5926200D01*
X4270000Y5850000D02*
Y5926200D01*
X5808839Y4874881D02*
Y4951081D01*
X6018839Y4874881D02*
Y4951081D01*
X2852380Y5691460D02*
Y5767660D01*
X3062380Y5691460D02*
Y5767660D01*
X3057300Y5479300D02*
Y5555500D01*
X2847300Y5479300D02*
Y5555500D01*
X3635000Y5867500D02*
Y5943700D01*
X3425000Y5867500D02*
Y5943700D01*
X5652500Y8895000D02*
X5792500D01*
X5652500Y8755000D02*
Y8895000D01*
Y8755000D02*
X5792500D01*
Y8895000D01*
X5077500Y8050000D02*
Y8190000D01*
Y8050000D02*
X5217500D01*
Y8190000D01*
X5077500D02*
X5217500D01*
X5360000Y7467500D02*
Y7607500D01*
Y7467500D02*
X5500000D01*
Y7607500D01*
X5360000D02*
X5500000D01*
X5080000Y7877500D02*
Y8017500D01*
Y7877500D02*
X5220000D01*
Y8017500D01*
X5080000D02*
X5220000D01*
X5567500Y7462500D02*
Y7602500D01*
Y7462500D02*
X5707500D01*
Y7602500D01*
X5567500D02*
X5707500D01*
X5772500Y7465000D02*
Y7605000D01*
Y7465000D02*
X5912500D01*
Y7605000D01*
X5772500D02*
X5912500D01*
X4215000Y7302500D02*
Y7442500D01*
X4075000D02*
X4215000D01*
X4075000Y7302500D02*
Y7442500D01*
Y7302500D02*
X4215000D01*
X4515000Y5355000D02*
X4655000D01*
Y5495000D01*
X4515000D02*
X4655000D01*
X4515000Y5355000D02*
Y5495000D01*
X4172500Y8360000D02*
Y8500000D01*
X4032500D02*
X4172500D01*
X4032500Y8360000D02*
Y8500000D01*
Y8360000D02*
X4172500D01*
X4782500Y5530000D02*
Y5670000D01*
Y5530000D02*
X4922500D01*
Y5670000D01*
X4782500D02*
X4922500D01*
X5042500Y5530000D02*
Y5670000D01*
Y5530000D02*
X5182500D01*
Y5670000D01*
X5042500D02*
X5182500D01*
X5035000Y5260000D02*
X5175000D01*
Y5400000D01*
X5035000D02*
X5175000D01*
X5035000Y5260000D02*
Y5400000D01*
X4610000Y7295000D02*
Y7435000D01*
X4470000D02*
X4610000D01*
X4470000Y7295000D02*
Y7435000D01*
Y7295000D02*
X4610000D01*
X4650000Y8355000D02*
Y8495000D01*
X4510000D02*
X4650000D01*
X4510000Y8355000D02*
Y8495000D01*
Y8355000D02*
X4650000D01*
X4358501Y4882500D02*
X4661000D01*
X4358501Y4372500D02*
Y4882500D01*
Y4372500D02*
X4661000D01*
X5321001D02*
X5623500D01*
Y4882500D01*
X5321001D02*
X5623500D01*
X6667500Y4347500D02*
X6867500D01*
X6667500Y4187500D02*
X6867500D01*
D79*
X7560997Y6101382D02*
G03*
X7560997Y6101382I-12500J0D01*
G01*
D80*
X3657500Y6692000D02*
G03*
X3657500Y6692000I-10000J0D01*
G01*
X7570000Y9332500D02*
G03*
X7570000Y9332500I-10000J0D01*
G01*
X3647500Y8630000D02*
G03*
X3647500Y8630000I-10000J0D01*
G01*
X5097500Y9265000D02*
G03*
X5097500Y9265000I-10000J0D01*
G01*
X3444500Y6905500D02*
G03*
X3444500Y6905500I-10000J0D01*
G01*
X7521223Y5066044D02*
G03*
X7521223Y5066044I-7500J0D01*
G01*
X4747000Y4247500D02*
G03*
X4747000Y4247500I-10000J0D01*
G01*
X5744659Y5062500D02*
G03*
X5744659Y5072500I0J5000D01*
G01*
D02*
G03*
X5744659Y5062500I0J-5000D01*
G01*
D02*
G03*
X5744659Y5072500I0J5000D01*
G01*
X7018000Y4309500D02*
G03*
X7018000Y4309500I-10000J0D01*
G01*
X2574500Y7027500D02*
X2702500D01*
X2574500Y6133500D02*
X2702500D01*
X2974500Y7027500D02*
X3099500D01*
X2974500Y6133500D02*
X3099500D01*
X4210011Y5021697D02*
X4256662D01*
X4279988Y5045022D01*
X4256662Y5068348D01*
X4210011D01*
Y5091674D02*
X4279988D01*
Y5126663D01*
X4268325Y5138326D01*
X4221674D01*
X4210011Y5126663D01*
Y5091674D01*
Y5208303D02*
Y5161652D01*
X4244999D01*
X4233336Y5184977D01*
Y5196640D01*
X4244999Y5208303D01*
X4268325D01*
X4279988Y5196640D01*
Y5173315D01*
X4268325Y5161652D01*
X4350011Y5024196D02*
X4396663D01*
X4419989Y5047522D01*
X4396663Y5070848D01*
X4350011D01*
Y5094174D02*
X4419989D01*
Y5129163D01*
X4408326Y5140826D01*
X4361674D01*
X4350011Y5129163D01*
Y5094174D01*
X4419989Y5199140D02*
X4350011D01*
X4385000Y5164151D01*
Y5210803D01*
X4482511Y5024197D02*
X4529163D01*
X4552489Y5047523D01*
X4529163Y5070848D01*
X4482511D01*
Y5094174D02*
X4552489D01*
Y5129163D01*
X4540826Y5140826D01*
X4494174D01*
X4482511Y5129163D01*
Y5094174D01*
X4494174Y5164152D02*
X4482511Y5175815D01*
Y5199140D01*
X4494174Y5210803D01*
X4505837D01*
X4517500Y5199140D01*
Y5187478D01*
Y5199140D01*
X4529163Y5210803D01*
X4540826D01*
X4552489Y5199140D01*
Y5175815D01*
X4540826Y5164152D01*
D81*
X7652037Y6245482D02*
G03*
X7652037Y6245482I-2500J0D01*
G01*
X4430540Y5954660D02*
G03*
X4430540Y5954660I-2500J0D01*
G01*
X5561394Y8888320D02*
G03*
X5561394Y8888320I-9014J0D01*
G01*
X7631339Y7490240D02*
G03*
X7631339Y7490240I-10000J0D01*
G01*
X4641400Y6315600D02*
G03*
X4641400Y6315600I-12700J0D01*
G01*
X3994600Y7703700D02*
G03*
X3994600Y7703700I-12700J0D01*
G01*
X5371500Y8309500D02*
G03*
X5371500Y8309500I-10000J0D01*
G01*
X2978337Y9247489D02*
X2955011D01*
X2966674D01*
Y9189174D01*
X2955011Y9177511D01*
X2943348D01*
X2931686Y9189174D01*
X3001663Y9235826D02*
X3013326Y9247489D01*
X3036652D01*
X3048315Y9235826D01*
Y9224163D01*
X3036652Y9212500D01*
X3024989D01*
X3036652D01*
X3048315Y9200837D01*
Y9189174D01*
X3036652Y9177511D01*
X3013326D01*
X3001663Y9189174D01*
X4155837Y9834989D02*
X4132511D01*
X4144174D01*
Y9776674D01*
X4132511Y9765011D01*
X4120848D01*
X4109185Y9776674D01*
X4225815Y9765011D02*
X4179163D01*
X4225815Y9811663D01*
Y9823326D01*
X4214152Y9834989D01*
X4190826D01*
X4179163Y9823326D01*
X6202500Y9817489D02*
X6179174D01*
X6190837D01*
Y9759174D01*
X6179174Y9747511D01*
X6167511D01*
X6155848Y9759174D01*
X6225826Y9747511D02*
X6249152D01*
X6237489D01*
Y9817489D01*
X6225826Y9805826D01*
X3957320Y6115178D02*
Y6068526D01*
X3980646Y6045200D01*
X4003972Y6068526D01*
Y6115178D01*
X4027298D02*
Y6045200D01*
X4062286D01*
X4073949Y6056863D01*
Y6103515D01*
X4062286Y6115178D01*
X4027298D01*
X4143927D02*
X4120601Y6103515D01*
X4097275Y6080189D01*
Y6056863D01*
X4108938Y6045200D01*
X4132264D01*
X4143927Y6056863D01*
Y6068526D01*
X4132264Y6080189D01*
X4097275D01*
X8134197Y5202489D02*
Y5155837D01*
X8157522Y5132511D01*
X8180848Y5155837D01*
Y5202489D01*
X8204174D02*
Y5132511D01*
X8239163D01*
X8250826Y5144174D01*
Y5190826D01*
X8239163Y5202489D01*
X8204174D01*
X8320803Y5132511D02*
X8274152D01*
X8320803Y5179163D01*
Y5190826D01*
X8309140Y5202489D01*
X8285815D01*
X8274152Y5190826D01*
X4066210Y5632491D02*
X4136188D01*
Y5597502D01*
X4124525Y5585839D01*
X4101199D01*
X4089536Y5597502D01*
Y5632491D01*
Y5609165D02*
X4066210Y5585839D01*
Y5515861D02*
Y5562513D01*
X4112862Y5515861D01*
X4124525D01*
X4136188Y5527524D01*
Y5550850D01*
X4124525Y5562513D01*
X4136188Y5492536D02*
Y5445884D01*
X4124525D01*
X4077873Y5492536D01*
X4066210D01*
X8416685Y5390011D02*
Y5459989D01*
X8451674D01*
X8463337Y5448326D01*
Y5425000D01*
X8451674Y5413337D01*
X8416685D01*
X8440011D02*
X8463337Y5390011D01*
X8486663Y5448326D02*
X8498326Y5459989D01*
X8521652D01*
X8533315Y5448326D01*
Y5436663D01*
X8521652Y5425000D01*
X8533315Y5413337D01*
Y5401674D01*
X8521652Y5390011D01*
X8498326D01*
X8486663Y5401674D01*
Y5413337D01*
X8498326Y5425000D01*
X8486663Y5436663D01*
Y5448326D01*
X8498326Y5425000D02*
X8521652D01*
X4302489Y6153315D02*
X4232511Y6106663D01*
X4302489D02*
X4232511Y6153315D01*
X4290826Y6083337D02*
X4302489Y6071674D01*
Y6048348D01*
X4290826Y6036685D01*
X4279163D01*
X4267500Y6048348D01*
Y6060011D01*
Y6048348D01*
X4255837Y6036685D01*
X4244174D01*
X4232511Y6048348D01*
Y6071674D01*
X4244174Y6083337D01*
X7634185Y6399989D02*
X7680837Y6330011D01*
Y6399989D02*
X7634185Y6330011D01*
X7750815D02*
X7704163D01*
X7750815Y6376663D01*
Y6388326D01*
X7739152Y6399989D01*
X7715826D01*
X7704163Y6388326D01*
X7830848Y4964989D02*
X7877500Y4895011D01*
Y4964989D02*
X7830848Y4895011D01*
X7900826D02*
X7924152D01*
X7912489D01*
Y4964989D01*
X7900826Y4953326D01*
X8527488Y7489140D02*
X8480837D01*
X8457511Y7465814D01*
X8480837Y7442489D01*
X8527488D01*
Y7419163D02*
X8457511D01*
Y7384174D01*
X8469174Y7372511D01*
X8515825D01*
X8527488Y7384174D01*
Y7419163D01*
X8457511Y7349185D02*
Y7325859D01*
Y7337522D01*
X8527488D01*
X8515825Y7349185D01*
X3288326Y5312969D02*
Y5254654D01*
X3299989Y5242992D01*
X3323314D01*
X3334977Y5254654D01*
Y5312969D01*
X3358303Y5301306D02*
X3369966Y5312969D01*
X3393292D01*
X3404955Y5301306D01*
Y5289643D01*
X3393292Y5277980D01*
X3404955Y5266317D01*
Y5254654D01*
X3393292Y5242992D01*
X3369966D01*
X3358303Y5254654D01*
Y5266317D01*
X3369966Y5277980D01*
X3358303Y5289643D01*
Y5301306D01*
X3369966Y5277980D02*
X3393292D01*
X3841685Y6887489D02*
Y6829174D01*
X3853348Y6817511D01*
X3876674D01*
X3888337Y6829174D01*
Y6887489D01*
X3911663D02*
X3958315D01*
Y6875826D01*
X3911663Y6829174D01*
Y6817511D01*
X4196080Y9028558D02*
Y8970243D01*
X4207743Y8958580D01*
X4231069D01*
X4242732Y8970243D01*
Y9028558D01*
X4312709D02*
X4289383Y9016895D01*
X4266058Y8993569D01*
Y8970243D01*
X4277720Y8958580D01*
X4301046D01*
X4312709Y8970243D01*
Y8981906D01*
X4301046Y8993569D01*
X4266058D01*
X3849185Y7917489D02*
Y7859174D01*
X3860848Y7847511D01*
X3884174D01*
X3895837Y7859174D01*
Y7917489D01*
X3965815D02*
X3919163D01*
Y7882500D01*
X3942489Y7894163D01*
X3954152D01*
X3965815Y7882500D01*
Y7859174D01*
X3954152Y7847511D01*
X3930826D01*
X3919163Y7859174D01*
X4744185Y6374989D02*
Y6316674D01*
X4755848Y6305011D01*
X4779174D01*
X4790837Y6316674D01*
Y6374989D01*
X4849152Y6305011D02*
Y6374989D01*
X4814163Y6340000D01*
X4860815D01*
X6074185Y7992488D02*
Y7934174D01*
X6085848Y7922511D01*
X6109174D01*
X6120837Y7934174D01*
Y7992488D01*
X6144163Y7980826D02*
X6155826Y7992488D01*
X6179152D01*
X6190815Y7980826D01*
Y7969163D01*
X6179152Y7957500D01*
X6167489D01*
X6179152D01*
X6190815Y7945837D01*
Y7934174D01*
X6179152Y7922511D01*
X6155826D01*
X6144163Y7934174D01*
X4996685Y9004989D02*
Y8946674D01*
X5008348Y8935011D01*
X5031674D01*
X5043337Y8946674D01*
Y9004989D01*
X5113315Y8935011D02*
X5066663D01*
X5113315Y8981663D01*
Y8993326D01*
X5101652Y9004989D01*
X5078326D01*
X5066663Y8993326D01*
X7248348Y6422489D02*
Y6364174D01*
X7260011Y6352511D01*
X7283337D01*
X7295000Y6364174D01*
Y6422489D01*
X7318326Y6352511D02*
X7341652D01*
X7329989D01*
Y6422489D01*
X7318326Y6410826D01*
X4667540Y8299989D02*
X4714191D01*
X4690865D01*
Y8230011D01*
X4737517D02*
Y8299989D01*
X4772506D01*
X4784169Y8288326D01*
Y8265000D01*
X4772506Y8253337D01*
X4737517D01*
X4807495Y8230011D02*
X4830820D01*
X4819157D01*
Y8299989D01*
X4807495Y8288326D01*
X4900798Y8230011D02*
Y8299989D01*
X4865809Y8265000D01*
X4912461D01*
X4452539Y7219989D02*
X4499191D01*
X4475865D01*
Y7150011D01*
X4522517D02*
Y7219989D01*
X4557506D01*
X4569169Y7208326D01*
Y7185000D01*
X4557506Y7173337D01*
X4522517D01*
X4592494Y7150011D02*
X4615820D01*
X4604157D01*
Y7219989D01*
X4592494Y7208326D01*
X4650809D02*
X4662472Y7219989D01*
X4685798D01*
X4697461Y7208326D01*
Y7196663D01*
X4685798Y7185000D01*
X4674135D01*
X4685798D01*
X4697461Y7173337D01*
Y7161674D01*
X4685798Y7150011D01*
X4662472D01*
X4650809Y7161674D01*
X5240040Y5382489D02*
X5286691D01*
X5263365D01*
Y5312511D01*
X5310017D02*
Y5382489D01*
X5345006D01*
X5356669Y5370826D01*
Y5347500D01*
X5345006Y5335837D01*
X5310017D01*
X5379995Y5312511D02*
X5403320D01*
X5391657D01*
Y5382489D01*
X5379995Y5370826D01*
X5484961Y5312511D02*
X5438309D01*
X5484961Y5359163D01*
Y5370826D01*
X5473298Y5382489D01*
X5449972D01*
X5438309Y5370826D01*
X5224202Y5552489D02*
X5270854D01*
X5247528D01*
Y5482511D01*
X5294180D02*
Y5552489D01*
X5329169D01*
X5340832Y5540826D01*
Y5517500D01*
X5329169Y5505837D01*
X5294180D01*
X5364157Y5482511D02*
X5387483D01*
X5375820D01*
Y5552489D01*
X5364157Y5540826D01*
X5422472Y5482511D02*
X5445798D01*
X5434135D01*
Y5552489D01*
X5422472Y5540826D01*
X4465040Y5649989D02*
X4511691D01*
X4488365D01*
Y5580011D01*
X4535017D02*
Y5649989D01*
X4570006D01*
X4581669Y5638326D01*
Y5615000D01*
X4570006Y5603337D01*
X4535017D01*
X4604995Y5580011D02*
X4628320D01*
X4616658D01*
Y5649989D01*
X4604995Y5638326D01*
X4663309D02*
X4674972Y5649989D01*
X4698298D01*
X4709961Y5638326D01*
Y5591674D01*
X4698298Y5580011D01*
X4674972D01*
X4663309Y5591674D01*
Y5638326D01*
X3926697Y8647489D02*
X3973348D01*
X3950023D01*
Y8577511D01*
X3996674D02*
Y8647489D01*
X4031663D01*
X4043326Y8635826D01*
Y8612500D01*
X4031663Y8600837D01*
X3996674D01*
X4066652Y8589174D02*
X4078315Y8577511D01*
X4101641D01*
X4113303Y8589174D01*
Y8635826D01*
X4101641Y8647489D01*
X4078315D01*
X4066652Y8635826D01*
Y8624163D01*
X4078315Y8612500D01*
X4113303D01*
X4279197Y5484989D02*
X4325848D01*
X4302523D01*
Y5415011D01*
X4349174D02*
Y5484989D01*
X4384163D01*
X4395826Y5473326D01*
Y5450000D01*
X4384163Y5438337D01*
X4349174D01*
X4419152Y5473326D02*
X4430815Y5484989D01*
X4454140D01*
X4465803Y5473326D01*
Y5461663D01*
X4454140Y5450000D01*
X4465803Y5438337D01*
Y5426674D01*
X4454140Y5415011D01*
X4430815D01*
X4419152Y5426674D01*
Y5438337D01*
X4430815Y5450000D01*
X4419152Y5461663D01*
Y5473326D01*
X4430815Y5450000D02*
X4454140D01*
X4051697Y7222489D02*
X4098348D01*
X4075023D01*
Y7152511D01*
X4121674D02*
Y7222489D01*
X4156663D01*
X4168326Y7210826D01*
Y7187500D01*
X4156663Y7175837D01*
X4121674D01*
X4191652Y7222489D02*
X4238303D01*
Y7210826D01*
X4191652Y7164174D01*
Y7152511D01*
X5959197Y7577489D02*
X6005848D01*
X5982522D01*
Y7507511D01*
X6029174D02*
Y7577489D01*
X6064163D01*
X6075826Y7565826D01*
Y7542500D01*
X6064163Y7530837D01*
X6029174D01*
X6145803Y7577489D02*
X6122477Y7565826D01*
X6099152Y7542500D01*
Y7519174D01*
X6110815Y7507511D01*
X6134140D01*
X6145803Y7519174D01*
Y7530837D01*
X6134140Y7542500D01*
X6099152D01*
X5684989Y7400803D02*
Y7354151D01*
Y7377477D01*
X5615011D01*
Y7330825D02*
X5684989D01*
Y7295837D01*
X5673326Y7284174D01*
X5650000D01*
X5638337Y7295837D01*
Y7330825D01*
X5684989Y7214196D02*
Y7260848D01*
X5650000D01*
X5661663Y7237522D01*
Y7225859D01*
X5650000Y7214196D01*
X5626674D01*
X5615011Y7225859D01*
Y7249185D01*
X5626674Y7260848D01*
X4856697Y7982489D02*
X4903348D01*
X4880022D01*
Y7912511D01*
X4926674D02*
Y7982489D01*
X4961663D01*
X4973326Y7970826D01*
Y7947500D01*
X4961663Y7935837D01*
X4926674D01*
X5031640Y7912511D02*
Y7982489D01*
X4996652Y7947500D01*
X5043303D01*
X5119197Y7567489D02*
X5165848D01*
X5142523D01*
Y7497511D01*
X5189174D02*
Y7567489D01*
X5224163D01*
X5235826Y7555826D01*
Y7532500D01*
X5224163Y7520837D01*
X5189174D01*
X5259152Y7555826D02*
X5270815Y7567489D01*
X5294141D01*
X5305803Y7555826D01*
Y7544163D01*
X5294141Y7532500D01*
X5282478D01*
X5294141D01*
X5305803Y7520837D01*
Y7509174D01*
X5294141Y7497511D01*
X5270815D01*
X5259152Y7509174D01*
X4846697Y8159989D02*
X4893348D01*
X4870023D01*
Y8090011D01*
X4916674D02*
Y8159989D01*
X4951663D01*
X4963326Y8148326D01*
Y8125000D01*
X4951663Y8113337D01*
X4916674D01*
X5033303Y8090011D02*
X4986652D01*
X5033303Y8136663D01*
Y8148326D01*
X5021640Y8159989D01*
X4998315D01*
X4986652Y8148326D01*
X5835859Y8869989D02*
X5882511D01*
X5859185D01*
Y8800011D01*
X5905837D02*
Y8869989D01*
X5940825D01*
X5952488Y8858326D01*
Y8835000D01*
X5940825Y8823337D01*
X5905837D01*
X5975814Y8800011D02*
X5999140D01*
X5987477D01*
Y8869989D01*
X5975814Y8858326D01*
X3452497Y6487511D02*
Y6557489D01*
X3487485D01*
X3499148Y6545826D01*
Y6522500D01*
X3487485Y6510837D01*
X3452497D01*
X3475822D02*
X3499148Y6487511D01*
X3569126D02*
X3522474D01*
X3569126Y6534163D01*
Y6545826D01*
X3557463Y6557489D01*
X3534137D01*
X3522474Y6545826D01*
X3639103Y6557489D02*
X3615777Y6545826D01*
X3592452Y6522500D01*
Y6499174D01*
X3604114Y6487511D01*
X3627440D01*
X3639103Y6499174D01*
Y6510837D01*
X3627440Y6522500D01*
X3592452D01*
X3551697Y6855011D02*
Y6924989D01*
X3586685D01*
X3598348Y6913326D01*
Y6890000D01*
X3586685Y6878337D01*
X3551697D01*
X3575023D02*
X3598348Y6855011D01*
X3668326D02*
X3621674D01*
X3668326Y6901663D01*
Y6913326D01*
X3656663Y6924989D01*
X3633337D01*
X3621674Y6913326D01*
X3738303Y6924989D02*
X3691652D01*
Y6890000D01*
X3714978Y6901663D01*
X3726641D01*
X3738303Y6890000D01*
Y6866674D01*
X3726641Y6855011D01*
X3703315D01*
X3691652Y6866674D01*
X3204197Y5880011D02*
Y5949989D01*
X3239185D01*
X3250848Y5938326D01*
Y5915000D01*
X3239185Y5903337D01*
X3204197D01*
X3227522D02*
X3250848Y5880011D01*
X3320826D02*
X3274174D01*
X3320826Y5926663D01*
Y5938326D01*
X3309163Y5949989D01*
X3285837D01*
X3274174Y5938326D01*
X3379140Y5880011D02*
Y5949989D01*
X3344152Y5915000D01*
X3390803D01*
X3662237Y5776152D02*
Y5846129D01*
X3697226D01*
X3708888Y5834466D01*
Y5811140D01*
X3697226Y5799477D01*
X3662237D01*
X3685563D02*
X3708888Y5776152D01*
X3778866D02*
X3732214D01*
X3778866Y5822803D01*
Y5834466D01*
X3767203Y5846129D01*
X3743877D01*
X3732214Y5834466D01*
X3802192D02*
X3813855Y5846129D01*
X3837181D01*
X3848843Y5834466D01*
Y5822803D01*
X3837181Y5811140D01*
X3825518D01*
X3837181D01*
X3848843Y5799477D01*
Y5787814D01*
X3837181Y5776152D01*
X3813855D01*
X3802192Y5787814D01*
X4496697Y7485011D02*
Y7554989D01*
X4531685D01*
X4543348Y7543326D01*
Y7520000D01*
X4531685Y7508337D01*
X4496697D01*
X4520022D02*
X4543348Y7485011D01*
X4613326D02*
X4566674D01*
X4613326Y7531663D01*
Y7543326D01*
X4601663Y7554989D01*
X4578337D01*
X4566674Y7543326D01*
X4683303Y7485011D02*
X4636652D01*
X4683303Y7531663D01*
Y7543326D01*
X4671640Y7554989D01*
X4648315D01*
X4636652Y7543326D01*
X5500011Y5221640D02*
X5569989D01*
Y5186651D01*
X5558326Y5174988D01*
X5535000D01*
X5523337Y5186651D01*
Y5221640D01*
Y5198314D02*
X5500011Y5174988D01*
Y5105011D02*
Y5151663D01*
X5546663Y5105011D01*
X5558326D01*
X5569989Y5116674D01*
Y5140000D01*
X5558326Y5151663D01*
X5500011Y5081685D02*
Y5058359D01*
Y5070022D01*
X5569989D01*
X5558326Y5081685D01*
X5265911Y6270763D02*
X5335888D01*
Y6235774D01*
X5324226Y6224111D01*
X5300900D01*
X5289237Y6235774D01*
Y6270763D01*
Y6247437D02*
X5265911Y6224111D01*
Y6154134D02*
Y6200785D01*
X5312563Y6154134D01*
X5324226D01*
X5335888Y6165797D01*
Y6189122D01*
X5324226Y6200785D01*
Y6130808D02*
X5335888Y6119145D01*
Y6095819D01*
X5324226Y6084156D01*
X5277574D01*
X5265911Y6095819D01*
Y6119145D01*
X5277574Y6130808D01*
X5324226D01*
X5390012Y5787472D02*
X5459989D01*
Y5752483D01*
X5448326Y5740820D01*
X5425000D01*
X5413337Y5752483D01*
Y5787472D01*
Y5764146D02*
X5390012Y5740820D01*
Y5717494D02*
Y5694168D01*
Y5705831D01*
X5459989D01*
X5448326Y5717494D01*
X5401674Y5659179D02*
X5390012Y5647517D01*
Y5624191D01*
X5401674Y5612528D01*
X5448326D01*
X5459989Y5624191D01*
Y5647517D01*
X5448326Y5659179D01*
X5436663D01*
X5425000Y5647517D01*
Y5612528D01*
X6090028Y4752511D02*
Y4822489D01*
X6125017D01*
X6136680Y4810826D01*
Y4787500D01*
X6125017Y4775837D01*
X6090028D01*
X6113354D02*
X6136680Y4752511D01*
X6160006D02*
X6183332D01*
X6171669D01*
Y4822489D01*
X6160006Y4810826D01*
X6218320D02*
X6229983Y4822489D01*
X6253309D01*
X6264972Y4810826D01*
Y4799163D01*
X6253309Y4787500D01*
X6264972Y4775837D01*
Y4764174D01*
X6253309Y4752511D01*
X6229983D01*
X6218320Y4764174D01*
Y4775837D01*
X6229983Y4787500D01*
X6218320Y4799163D01*
Y4810826D01*
X6229983Y4787500D02*
X6253309D01*
X4827528Y5365011D02*
Y5434989D01*
X4862517D01*
X4874180Y5423326D01*
Y5400000D01*
X4862517Y5388337D01*
X4827528D01*
X4850854D02*
X4874180Y5365011D01*
X4897506D02*
X4920832D01*
X4909169D01*
Y5434989D01*
X4897506Y5423326D01*
X4955820Y5434989D02*
X5002472D01*
Y5423326D01*
X4955820Y5376674D01*
Y5365011D01*
X3934989Y8350028D02*
X3865011D01*
Y8385017D01*
X3876674Y8396680D01*
X3900000D01*
X3911663Y8385017D01*
Y8350028D01*
Y8373354D02*
X3934989Y8396680D01*
Y8420006D02*
Y8443331D01*
Y8431668D01*
X3865011D01*
X3876674Y8420006D01*
X3865011Y8524972D02*
X3876674Y8501646D01*
X3900000Y8478320D01*
X3923326D01*
X3934989Y8489983D01*
Y8513309D01*
X3923326Y8524972D01*
X3911663D01*
X3900000Y8513309D01*
Y8478320D01*
X5670011Y5757472D02*
X5739989D01*
Y5722483D01*
X5728326Y5710820D01*
X5705000D01*
X5693337Y5722483D01*
Y5757472D01*
Y5734146D02*
X5670011Y5710820D01*
Y5687494D02*
Y5664169D01*
Y5675831D01*
X5739989D01*
X5728326Y5687494D01*
X5739989Y5582528D02*
Y5629180D01*
X5705000D01*
X5716663Y5605854D01*
Y5594191D01*
X5705000Y5582528D01*
X5681674D01*
X5670011Y5594191D01*
Y5617517D01*
X5681674Y5629180D01*
X4287528Y5285011D02*
Y5354989D01*
X4322517D01*
X4334180Y5343326D01*
Y5320000D01*
X4322517Y5308337D01*
X4287528D01*
X4310854D02*
X4334180Y5285011D01*
X4357506D02*
X4380831D01*
X4369169D01*
Y5354989D01*
X4357506Y5343326D01*
X4450809Y5285011D02*
Y5354989D01*
X4415820Y5320000D01*
X4462472D01*
X3762528Y7487511D02*
Y7557489D01*
X3797517D01*
X3809180Y7545826D01*
Y7522500D01*
X3797517Y7510837D01*
X3762528D01*
X3785854D02*
X3809180Y7487511D01*
X3832506D02*
X3855832D01*
X3844169D01*
Y7557489D01*
X3832506Y7545826D01*
X3890820D02*
X3902483Y7557489D01*
X3925809D01*
X3937472Y7545826D01*
Y7534163D01*
X3925809Y7522500D01*
X3914146D01*
X3925809D01*
X3937472Y7510837D01*
Y7499174D01*
X3925809Y7487511D01*
X3902483D01*
X3890820Y7499174D01*
X4864989Y8617528D02*
X4795011D01*
Y8652517D01*
X4806674Y8664180D01*
X4830000D01*
X4841663Y8652517D01*
Y8617528D01*
Y8640854D02*
X4864989Y8664180D01*
Y8687506D02*
Y8710832D01*
Y8699169D01*
X4795011D01*
X4806674Y8687506D01*
X4864989Y8792472D02*
Y8745820D01*
X4818337Y8792472D01*
X4806674D01*
X4795011Y8780809D01*
Y8757483D01*
X4806674Y8745820D01*
X5156691Y9157511D02*
Y9227489D01*
X5191680D01*
X5203343Y9215826D01*
Y9192500D01*
X5191680Y9180837D01*
X5156691D01*
X5180017D02*
X5203343Y9157511D01*
X5226669D02*
X5249995D01*
X5238332D01*
Y9227489D01*
X5226669Y9215826D01*
X5284983Y9157511D02*
X5308309D01*
X5296646D01*
Y9227489D01*
X5284983Y9215826D01*
X4982489Y8625028D02*
X4912511D01*
Y8660017D01*
X4924174Y8671680D01*
X4947500D01*
X4959163Y8660017D01*
Y8625028D01*
Y8648354D02*
X4982489Y8671680D01*
Y8695006D02*
Y8718332D01*
Y8706669D01*
X4912511D01*
X4924174Y8695006D01*
Y8753320D02*
X4912511Y8764983D01*
Y8788309D01*
X4924174Y8799972D01*
X4970826D01*
X4982489Y8788309D01*
Y8764983D01*
X4970826Y8753320D01*
X4924174D01*
X5249185Y8502511D02*
Y8572489D01*
X5284174D01*
X5295837Y8560826D01*
Y8537500D01*
X5284174Y8525837D01*
X5249185D01*
X5272511D02*
X5295837Y8502511D01*
X5319163Y8514174D02*
X5330826Y8502511D01*
X5354152D01*
X5365815Y8514174D01*
Y8560826D01*
X5354152Y8572489D01*
X5330826D01*
X5319163Y8560826D01*
Y8549163D01*
X5330826Y8537500D01*
X5365815D01*
X5256685Y8387511D02*
Y8457489D01*
X5291674D01*
X5303337Y8445826D01*
Y8422500D01*
X5291674Y8410837D01*
X5256685D01*
X5280011D02*
X5303337Y8387511D01*
X5326663Y8457489D02*
X5373315D01*
Y8445826D01*
X5326663Y8399174D01*
Y8387511D01*
X5365011Y9360814D02*
X5434989D01*
Y9325826D01*
X5423326Y9314163D01*
X5400000D01*
X5388337Y9325826D01*
Y9360814D01*
Y9337489D02*
X5365011Y9314163D01*
X5434989Y9244185D02*
X5423326Y9267511D01*
X5400000Y9290837D01*
X5376674D01*
X5365011Y9279174D01*
Y9255848D01*
X5376674Y9244185D01*
X5388337D01*
X5400000Y9255848D01*
Y9290837D01*
X5709185Y8970011D02*
Y9039989D01*
X5744174D01*
X5755837Y9028326D01*
Y9005000D01*
X5744174Y8993337D01*
X5709185D01*
X5732511D02*
X5755837Y8970011D01*
X5825815Y9039989D02*
X5779163D01*
Y9005000D01*
X5802489Y9016663D01*
X5814152D01*
X5825815Y9005000D01*
Y8981674D01*
X5814152Y8970011D01*
X5790826D01*
X5779163Y8981674D01*
X5706685Y9095011D02*
Y9164989D01*
X5741674D01*
X5753337Y9153326D01*
Y9130000D01*
X5741674Y9118337D01*
X5706685D01*
X5730011D02*
X5753337Y9095011D01*
X5811652D02*
Y9164989D01*
X5776663Y9130000D01*
X5823314D01*
X6309186Y8652511D02*
Y8722489D01*
X6344174D01*
X6355837Y8710826D01*
Y8687500D01*
X6344174Y8675837D01*
X6309186D01*
X6332511D02*
X6355837Y8652511D01*
X6379163Y8710826D02*
X6390826Y8722489D01*
X6414152D01*
X6425815Y8710826D01*
Y8699163D01*
X6414152Y8687500D01*
X6402489D01*
X6414152D01*
X6425815Y8675837D01*
Y8664174D01*
X6414152Y8652511D01*
X6390826D01*
X6379163Y8664174D01*
X7381686Y7352511D02*
Y7422489D01*
X7416674D01*
X7428337Y7410826D01*
Y7387500D01*
X7416674Y7375837D01*
X7381686D01*
X7405011D02*
X7428337Y7352511D01*
X7498315D02*
X7451663D01*
X7498315Y7399163D01*
Y7410826D01*
X7486652Y7422489D01*
X7463326D01*
X7451663Y7410826D01*
X7390848Y7467511D02*
Y7537489D01*
X7425837D01*
X7437500Y7525826D01*
Y7502500D01*
X7425837Y7490837D01*
X7390848D01*
X7414174D02*
X7437500Y7467511D01*
X7460826D02*
X7484152D01*
X7472489D01*
Y7537489D01*
X7460826Y7525826D01*
X7610772Y7601183D02*
Y7647835D01*
X7599109Y7659498D01*
X7575783D01*
X7564120Y7647835D01*
Y7601183D01*
X7575783Y7589520D01*
X7599109D01*
X7587446Y7612846D02*
X7610772Y7589520D01*
X7599109D02*
X7610772Y7601183D01*
X7634098Y7589520D02*
X7657423D01*
X7645760D01*
Y7659498D01*
X7634098Y7647835D01*
X3651685Y5177489D02*
Y5107511D01*
X3698337D01*
X3768315Y5177489D02*
X3721663D01*
Y5142500D01*
X3744989Y5154163D01*
X3756652D01*
X3768315Y5142500D01*
Y5119174D01*
X3756652Y5107511D01*
X3733326D01*
X3721663Y5119174D01*
X7114989Y4718314D02*
X7045012D01*
Y4671663D01*
Y4613348D02*
X7114989D01*
X7080000Y4648337D01*
Y4601685D01*
X7129989Y5073314D02*
X7060011D01*
Y5026663D01*
X7118326Y5003337D02*
X7129989Y4991674D01*
Y4968348D01*
X7118326Y4956685D01*
X7106663D01*
X7095000Y4968348D01*
Y4980011D01*
Y4968348D01*
X7083337Y4956685D01*
X7071674D01*
X7060011Y4968348D01*
Y4991674D01*
X7071674Y5003337D01*
X8126685Y5869989D02*
Y5800011D01*
X8173337D01*
X8243314D02*
X8196663D01*
X8243314Y5846663D01*
Y5858326D01*
X8231652Y5869989D01*
X8208326D01*
X8196663Y5858326D01*
X8494989Y5759151D02*
X8425011D01*
Y5712500D01*
Y5689174D02*
Y5665848D01*
Y5677511D01*
X8494989D01*
X8483326Y5689174D01*
X6086685Y5539989D02*
Y5470011D01*
Y5493337D01*
X6133337Y5539989D01*
X6098348Y5505000D01*
X6133337Y5470011D01*
X6203314D02*
X6156663D01*
X6203314Y5516663D01*
Y5528326D01*
X6191652Y5539989D01*
X6168326D01*
X6156663Y5528326D01*
X8378348Y8699989D02*
Y8630011D01*
Y8653337D01*
X8425000Y8699989D01*
X8390011Y8665000D01*
X8425000Y8630011D01*
X8448326D02*
X8471652D01*
X8459989D01*
Y8699989D01*
X8448326Y8688326D01*
X2925837Y7254989D02*
X2902511D01*
X2914174D01*
Y7196674D01*
X2902511Y7185011D01*
X2890848D01*
X2879186Y7196674D01*
X2995815Y7254989D02*
X2949163D01*
Y7220000D01*
X2972489Y7231663D01*
X2984152D01*
X2995815Y7220000D01*
Y7196674D01*
X2984152Y7185011D01*
X2960826D01*
X2949163Y7196674D01*
X4128337Y4624989D02*
X4105011D01*
X4116674D01*
Y4566674D01*
X4105011Y4555011D01*
X4093348D01*
X4081686Y4566674D01*
X4186652Y4555011D02*
Y4624989D01*
X4151663Y4590000D01*
X4198315D01*
X2682630Y5679088D02*
X2635979D01*
Y5644099D01*
X2659305D01*
X2635979D01*
Y5609111D01*
X2705956Y5679088D02*
Y5609111D01*
X2740945D01*
X2752608Y5620774D01*
Y5632437D01*
X2740945Y5644099D01*
X2705956D01*
X2740945D01*
X2752608Y5655762D01*
Y5667425D01*
X2740945Y5679088D01*
X2705956D01*
X2775934Y5609111D02*
X2799260D01*
X2787597D01*
Y5679088D01*
X2775934Y5667425D01*
X3740378Y5690826D02*
X3728715Y5702489D01*
X3705389D01*
X3693726Y5690826D01*
Y5644174D01*
X3705389Y5632511D01*
X3728715D01*
X3740378Y5644174D01*
X3763704Y5690826D02*
X3775367Y5702489D01*
X3798693D01*
X3810356Y5690826D01*
Y5679163D01*
X3798693Y5667500D01*
X3787030D01*
X3798693D01*
X3810356Y5655837D01*
Y5644174D01*
X3798693Y5632511D01*
X3775367D01*
X3763704Y5644174D01*
X3833681Y5690826D02*
X3845344Y5702489D01*
X3868670D01*
X3880333Y5690826D01*
Y5679163D01*
X3868670Y5667500D01*
X3857007D01*
X3868670D01*
X3880333Y5655837D01*
Y5644174D01*
X3868670Y5632511D01*
X3845344D01*
X3833681Y5644174D01*
X3485888Y6050246D02*
X3474225Y6061909D01*
X3450899D01*
X3439236Y6050246D01*
Y6003594D01*
X3450899Y5991931D01*
X3474225D01*
X3485888Y6003594D01*
X3509214Y6050246D02*
X3520877Y6061909D01*
X3544203D01*
X3555866Y6050246D01*
Y6038583D01*
X3544203Y6026920D01*
X3532540D01*
X3544203D01*
X3555866Y6015257D01*
Y6003594D01*
X3544203Y5991931D01*
X3520877D01*
X3509214Y6003594D01*
X3625843Y5991931D02*
X3579191D01*
X3625843Y6038583D01*
Y6050246D01*
X3614180Y6061909D01*
X3590854D01*
X3579191Y6050246D01*
X3170746Y5761929D02*
X3182409Y5773592D01*
Y5796918D01*
X3170746Y5808581D01*
X3124094D01*
X3112431Y5796918D01*
Y5773592D01*
X3124094Y5761929D01*
X3170746Y5738603D02*
X3182409Y5726940D01*
Y5703614D01*
X3170746Y5691952D01*
X3159083D01*
X3147420Y5703614D01*
Y5715277D01*
Y5703614D01*
X3135757Y5691952D01*
X3124094D01*
X3112431Y5703614D01*
Y5726940D01*
X3124094Y5738603D01*
X3112431Y5668626D02*
Y5645300D01*
Y5656963D01*
X3182409D01*
X3170746Y5668626D01*
X2670848Y5540825D02*
X2659185Y5552488D01*
X2635859D01*
X2624196Y5540825D01*
Y5494174D01*
X2635859Y5482511D01*
X2659185D01*
X2670848Y5494174D01*
X2694174Y5540825D02*
X2705837Y5552488D01*
X2729163D01*
X2740826Y5540825D01*
Y5529162D01*
X2729163Y5517500D01*
X2717500D01*
X2729163D01*
X2740826Y5505837D01*
Y5494174D01*
X2729163Y5482511D01*
X2705837D01*
X2694174Y5494174D01*
X2764151Y5540825D02*
X2775814Y5552488D01*
X2799140D01*
X2810803Y5540825D01*
Y5494174D01*
X2799140Y5482511D01*
X2775814D01*
X2764151Y5494174D01*
Y5540825D01*
X2673348Y5780826D02*
X2661685Y5792489D01*
X2638359D01*
X2626697Y5780826D01*
Y5734174D01*
X2638359Y5722511D01*
X2661685D01*
X2673348Y5734174D01*
X2743326Y5722511D02*
X2696674D01*
X2743326Y5769163D01*
Y5780826D01*
X2731663Y5792489D01*
X2708337D01*
X2696674Y5780826D01*
X2766652Y5734174D02*
X2778314Y5722511D01*
X2801640D01*
X2813303Y5734174D01*
Y5780826D01*
X2801640Y5792489D01*
X2778314D01*
X2766652Y5780826D01*
Y5769163D01*
X2778314Y5757500D01*
X2813303D01*
X5855848Y4798326D02*
X5844185Y4809989D01*
X5820860D01*
X5809197Y4798326D01*
Y4751674D01*
X5820860Y4740011D01*
X5844185D01*
X5855848Y4751674D01*
X5925826Y4740011D02*
X5879174D01*
X5925826Y4786663D01*
Y4798326D01*
X5914163Y4809989D01*
X5890837D01*
X5879174Y4798326D01*
X5949152D02*
X5960815Y4809989D01*
X5984140D01*
X5995803Y4798326D01*
Y4786663D01*
X5984140Y4775000D01*
X5995803Y4763337D01*
Y4751674D01*
X5984140Y4740011D01*
X5960815D01*
X5949152Y4751674D01*
Y4763337D01*
X5960815Y4775000D01*
X5949152Y4786663D01*
Y4798326D01*
X5960815Y4775000D02*
X5984140D01*
X4318348Y5785826D02*
X4306685Y5797489D01*
X4283359D01*
X4271697Y5785826D01*
Y5739174D01*
X4283359Y5727511D01*
X4306685D01*
X4318348Y5739174D01*
X4388326Y5727511D02*
X4341674D01*
X4388326Y5774163D01*
Y5785826D01*
X4376663Y5797489D01*
X4353337D01*
X4341674Y5785826D01*
X4411652Y5797489D02*
X4458303D01*
Y5785826D01*
X4411652Y5739174D01*
Y5727511D01*
X4328348Y6450826D02*
X4316685Y6462489D01*
X4293359D01*
X4281697Y6450826D01*
Y6404174D01*
X4293359Y6392511D01*
X4316685D01*
X4328348Y6404174D01*
X4398326Y6392511D02*
X4351674D01*
X4398326Y6439163D01*
Y6450826D01*
X4386663Y6462489D01*
X4363337D01*
X4351674Y6450826D01*
X4468303Y6462489D02*
X4444977Y6450826D01*
X4421652Y6427500D01*
Y6404174D01*
X4433314Y6392511D01*
X4456640D01*
X4468303Y6404174D01*
Y6415837D01*
X4456640Y6427500D01*
X4421652D01*
X3903326Y8221651D02*
X3914989Y8233314D01*
Y8256640D01*
X3903326Y8268303D01*
X3856674D01*
X3845011Y8256640D01*
Y8233314D01*
X3856674Y8221651D01*
X3845011Y8151674D02*
Y8198325D01*
X3891663Y8151674D01*
X3903326D01*
X3914989Y8163337D01*
Y8186663D01*
X3903326Y8198325D01*
X3914989Y8081696D02*
Y8128348D01*
X3880000D01*
X3891663Y8105022D01*
Y8093359D01*
X3880000Y8081696D01*
X3856674D01*
X3845011Y8093359D01*
Y8116685D01*
X3856674Y8128348D01*
X5030848Y6438326D02*
X5019185Y6449989D01*
X4995859D01*
X4984197Y6438326D01*
Y6391674D01*
X4995859Y6380011D01*
X5019185D01*
X5030848Y6391674D01*
X5100826Y6380011D02*
X5054174D01*
X5100826Y6426663D01*
Y6438326D01*
X5089163Y6449989D01*
X5065837D01*
X5054174Y6438326D01*
X5159140Y6380011D02*
Y6449989D01*
X5124152Y6415000D01*
X5170803D01*
X6680848Y5858326D02*
X6669185Y5869989D01*
X6645859D01*
X6634197Y5858326D01*
Y5811674D01*
X6645859Y5800011D01*
X6669185D01*
X6680848Y5811674D01*
X6750826Y5800011D02*
X6704174D01*
X6750826Y5846663D01*
Y5858326D01*
X6739163Y5869989D01*
X6715837D01*
X6704174Y5858326D01*
X6774152D02*
X6785814Y5869989D01*
X6809140D01*
X6820803Y5858326D01*
Y5846663D01*
X6809140Y5835000D01*
X6797477D01*
X6809140D01*
X6820803Y5823337D01*
Y5811674D01*
X6809140Y5800011D01*
X6785814D01*
X6774152Y5811674D01*
X6514428Y6038366D02*
X6502766Y6050029D01*
X6479440D01*
X6467777Y6038366D01*
Y5991714D01*
X6479440Y5980051D01*
X6502766D01*
X6514428Y5991714D01*
X6584406Y5980051D02*
X6537754D01*
X6584406Y6026703D01*
Y6038366D01*
X6572743Y6050029D01*
X6549417D01*
X6537754Y6038366D01*
X6654383Y5980051D02*
X6607732D01*
X6654383Y6026703D01*
Y6038366D01*
X6642721Y6050029D01*
X6619395D01*
X6607732Y6038366D01*
X5757511Y8453325D02*
X5745848Y8464988D01*
X5722522D01*
X5710860Y8453325D01*
Y8406674D01*
X5722522Y8395011D01*
X5745848D01*
X5757511Y8406674D01*
X5827489Y8395011D02*
X5780837D01*
X5827489Y8441663D01*
Y8453325D01*
X5815826Y8464988D01*
X5792500D01*
X5780837Y8453325D01*
X5850815Y8395011D02*
X5874140D01*
X5862477D01*
Y8464988D01*
X5850815Y8453325D01*
X5865848Y8673326D02*
X5854185Y8684989D01*
X5830860D01*
X5819197Y8673326D01*
Y8626674D01*
X5830860Y8615011D01*
X5854185D01*
X5865848Y8626674D01*
X5935826Y8615011D02*
X5889174D01*
X5935826Y8661663D01*
Y8673326D01*
X5924163Y8684989D01*
X5900837D01*
X5889174Y8673326D01*
X5959152D02*
X5970815Y8684989D01*
X5994140D01*
X6005803Y8673326D01*
Y8626674D01*
X5994140Y8615011D01*
X5970815D01*
X5959152Y8626674D01*
Y8673326D01*
X5059180Y8398326D02*
X5047517Y8409989D01*
X5024191D01*
X5012528Y8398326D01*
Y8351674D01*
X5024191Y8340011D01*
X5047517D01*
X5059180Y8351674D01*
X5082506Y8340011D02*
X5105832D01*
X5094169D01*
Y8409989D01*
X5082506Y8398326D01*
X5140820Y8351674D02*
X5152483Y8340011D01*
X5175809D01*
X5187472Y8351674D01*
Y8398326D01*
X5175809Y8409989D01*
X5152483D01*
X5140820Y8398326D01*
Y8386663D01*
X5152483Y8375000D01*
X5187472D01*
X6878383Y6547642D02*
X6890046Y6559305D01*
Y6582631D01*
X6878383Y6594294D01*
X6831731D01*
X6820068Y6582631D01*
Y6559305D01*
X6831731Y6547642D01*
X6820068Y6524316D02*
Y6500991D01*
Y6512653D01*
X6890046D01*
X6878383Y6524316D01*
Y6466002D02*
X6890046Y6454339D01*
Y6431013D01*
X6878383Y6419350D01*
X6866720D01*
X6855057Y6431013D01*
X6843394Y6419350D01*
X6831731D01*
X6820068Y6431013D01*
Y6454339D01*
X6831731Y6466002D01*
X6843394D01*
X6855057Y6454339D01*
X6866720Y6466002D01*
X6878383D01*
X6855057Y6454339D02*
Y6431013D01*
X6801680Y5393326D02*
X6790017Y5404989D01*
X6766691D01*
X6755028Y5393326D01*
Y5346674D01*
X6766691Y5335011D01*
X6790017D01*
X6801680Y5346674D01*
X6825006Y5335011D02*
X6848331D01*
X6836669D01*
Y5404989D01*
X6825006Y5393326D01*
X6883320Y5404989D02*
X6929972D01*
Y5393326D01*
X6883320Y5346674D01*
Y5335011D01*
X7005383Y6545102D02*
X7017046Y6556765D01*
Y6580091D01*
X7005383Y6591754D01*
X6958731D01*
X6947068Y6580091D01*
Y6556765D01*
X6958731Y6545102D01*
X6947068Y6521776D02*
Y6498450D01*
Y6510113D01*
X7017046D01*
X7005383Y6521776D01*
X7017046Y6416810D02*
X7005383Y6440136D01*
X6982057Y6463462D01*
X6958731D01*
X6947068Y6451799D01*
Y6428473D01*
X6958731Y6416810D01*
X6970394D01*
X6982057Y6428473D01*
Y6463462D01*
X6906680Y4848326D02*
X6895017Y4859989D01*
X6871691D01*
X6860028Y4848326D01*
Y4801674D01*
X6871691Y4790011D01*
X6895017D01*
X6906680Y4801674D01*
X6930006Y4790011D02*
X6953332D01*
X6941669D01*
Y4859989D01*
X6930006Y4848326D01*
X7034972Y4859989D02*
X6988320D01*
Y4825000D01*
X7011646Y4836663D01*
X7023309D01*
X7034972Y4825000D01*
Y4801674D01*
X7023309Y4790011D01*
X6999983D01*
X6988320Y4801674D01*
X6909180Y5218326D02*
X6897517Y5229989D01*
X6874191D01*
X6862528Y5218326D01*
Y5171674D01*
X6874191Y5160011D01*
X6897517D01*
X6909180Y5171674D01*
X6932506Y5160011D02*
X6955832D01*
X6944169D01*
Y5229989D01*
X6932506Y5218326D01*
X7025809Y5160011D02*
Y5229989D01*
X6990820Y5195000D01*
X7037472D01*
X8311680Y5580826D02*
X8300017Y5592489D01*
X8276691D01*
X8265028Y5580826D01*
Y5534174D01*
X8276691Y5522511D01*
X8300017D01*
X8311680Y5534174D01*
X8335006Y5522511D02*
X8358332D01*
X8346669D01*
Y5592489D01*
X8335006Y5580826D01*
X8393320D02*
X8404983Y5592489D01*
X8428309D01*
X8439972Y5580826D01*
Y5569163D01*
X8428309Y5557500D01*
X8416646D01*
X8428309D01*
X8439972Y5545837D01*
Y5534174D01*
X8428309Y5522511D01*
X8404983D01*
X8393320Y5534174D01*
X7984180Y6190826D02*
X7972517Y6202489D01*
X7949191D01*
X7937528Y6190826D01*
Y6144174D01*
X7949191Y6132511D01*
X7972517D01*
X7984180Y6144174D01*
X8007506Y6132511D02*
X8030832D01*
X8019169D01*
Y6202489D01*
X8007506Y6190826D01*
X8112472Y6132511D02*
X8065820D01*
X8112472Y6179163D01*
Y6190826D01*
X8100809Y6202489D01*
X8077483D01*
X8065820Y6190826D01*
X7453246Y4855397D02*
X7464909Y4867060D01*
Y4890386D01*
X7453246Y4902049D01*
X7406595D01*
X7394932Y4890386D01*
Y4867060D01*
X7406595Y4855397D01*
X7394932Y4832071D02*
Y4808745D01*
Y4820408D01*
X7464909D01*
X7453246Y4832071D01*
X7394932Y4773757D02*
Y4750431D01*
Y4762094D01*
X7464909D01*
X7453246Y4773757D01*
X7984860Y9120305D02*
X7973197Y9131968D01*
X7949871D01*
X7938208Y9120305D01*
Y9073653D01*
X7949871Y9061990D01*
X7973197D01*
X7984860Y9073653D01*
X8008185Y9061990D02*
X8031511D01*
X8019848D01*
Y9131968D01*
X8008185Y9120305D01*
X8066500D02*
X8078163Y9131968D01*
X8101489D01*
X8113152Y9120305D01*
Y9073653D01*
X8101489Y9061990D01*
X8078163D01*
X8066500Y9073653D01*
Y9120305D01*
X8010837Y8808326D02*
X7999174Y8819989D01*
X7975848D01*
X7964185Y8808326D01*
Y8761674D01*
X7975848Y8750011D01*
X7999174D01*
X8010837Y8761674D01*
X8034163D02*
X8045826Y8750011D01*
X8069152D01*
X8080815Y8761674D01*
Y8808326D01*
X8069152Y8819989D01*
X8045826D01*
X8034163Y8808326D01*
Y8796663D01*
X8045826Y8785000D01*
X8080815D01*
X7469328Y6705645D02*
X7480991Y6717308D01*
Y6740634D01*
X7469328Y6752297D01*
X7422676D01*
X7411013Y6740634D01*
Y6717308D01*
X7422676Y6705645D01*
X7469328Y6682319D02*
X7480991Y6670656D01*
Y6647330D01*
X7469328Y6635667D01*
X7457665D01*
X7446002Y6647330D01*
X7434339Y6635667D01*
X7422676D01*
X7411013Y6647330D01*
Y6670656D01*
X7422676Y6682319D01*
X7434339D01*
X7446002Y6670656D01*
X7457665Y6682319D01*
X7469328D01*
X7446002Y6670656D02*
Y6647330D01*
X7718337Y5590826D02*
X7706674Y5602489D01*
X7683348D01*
X7671685Y5590826D01*
Y5544174D01*
X7683348Y5532511D01*
X7706674D01*
X7718337Y5544174D01*
X7741663Y5602489D02*
X7788314D01*
Y5590826D01*
X7741663Y5544174D01*
Y5532511D01*
X7980837Y6068326D02*
X7969174Y6079989D01*
X7945848D01*
X7934185Y6068326D01*
Y6021674D01*
X7945848Y6010011D01*
X7969174D01*
X7980837Y6021674D01*
X8050814Y6079989D02*
X8027489Y6068326D01*
X8004163Y6045000D01*
Y6021674D01*
X8015826Y6010011D01*
X8039152D01*
X8050814Y6021674D01*
Y6033337D01*
X8039152Y6045000D01*
X8004163D01*
X7665837Y4853326D02*
X7654174Y4864988D01*
X7630849D01*
X7619186Y4853326D01*
Y4806674D01*
X7630849Y4795011D01*
X7654174D01*
X7665837Y4806674D01*
X7735815Y4864988D02*
X7689163D01*
Y4830000D01*
X7712489Y4841663D01*
X7724152D01*
X7735815Y4830000D01*
Y4806674D01*
X7724152Y4795011D01*
X7700826D01*
X7689163Y4806674D01*
X7593788Y6700565D02*
X7605451Y6712228D01*
Y6735554D01*
X7593788Y6747217D01*
X7547136D01*
X7535473Y6735554D01*
Y6712228D01*
X7547136Y6700565D01*
X7535473Y6642250D02*
X7605451D01*
X7570462Y6677239D01*
Y6630587D01*
X7855837Y5960826D02*
X7844174Y5972489D01*
X7820848D01*
X7809185Y5960826D01*
Y5914174D01*
X7820848Y5902511D01*
X7844174D01*
X7855837Y5914174D01*
X7879163Y5960826D02*
X7890826Y5972489D01*
X7914152D01*
X7925814Y5960826D01*
Y5949163D01*
X7914152Y5937500D01*
X7902489D01*
X7914152D01*
X7925814Y5925837D01*
Y5914174D01*
X7914152Y5902511D01*
X7890826D01*
X7879163Y5914174D01*
X8280837Y5720826D02*
X8269174Y5732489D01*
X8245848D01*
X8234185Y5720826D01*
Y5674174D01*
X8245848Y5662511D01*
X8269174D01*
X8280837Y5674174D01*
X8350815Y5662511D02*
X8304163D01*
X8350815Y5709163D01*
Y5720826D01*
X8339152Y5732489D01*
X8315826D01*
X8304163Y5720826D01*
X8043326Y5012499D02*
X8054989Y5024162D01*
Y5047488D01*
X8043326Y5059151D01*
X7996674D01*
X7985011Y5047488D01*
Y5024162D01*
X7996674Y5012499D01*
X7985011Y4989173D02*
Y4965848D01*
Y4977510D01*
X8054989D01*
X8043326Y4989173D01*
X6565900Y4676140D02*
Y4722792D01*
X6589226Y4746118D01*
X6612552Y4722792D01*
Y4676140D01*
Y4711129D01*
X6565900D01*
X6635878Y4676140D02*
Y4746118D01*
X6682529Y4676140D01*
Y4746118D01*
X6705855D02*
X6752507D01*
X6729181D01*
Y4676140D01*
X6775833D02*
X6799158D01*
X6787495D01*
Y4746118D01*
X6775833Y4734455D01*
D82*
X5285000Y5120000D02*
G03*
X5295000Y5120000I5000J0D01*
G01*
D02*
G03*
X5285000Y5120000I-5000J0D01*
G01*
X4825000Y5122500D02*
G03*
X4815000Y5122500I-5000J0D01*
G01*
D02*
G03*
X4825000Y5122500I5000J0D01*
G01*
X4637500Y5127500D02*
G03*
X4627500Y5127500I-5000J0D01*
G01*
D02*
G03*
X4637500Y5127500I5000J0D01*
G01*
X7491037Y6185482D02*
X7521037D01*
X7491037Y6305482D02*
X7521037D01*
X4368040Y6083160D02*
Y6113160D01*
X4488040Y6083160D02*
Y6113160D01*
X5889659Y5337500D02*
X6359659D01*
X5889659D02*
X6359659D01*
X5889659Y4987501D02*
X6359659D01*
X5889659D02*
X6359659D01*
D83*
X3265980Y5582140D02*
X3475980D01*
X3265980Y5372140D02*
X3475980D01*
X6726000Y8539500D02*
X6871000D01*
X6726000Y8815500D02*
X6871000D01*
X3602500Y5386000D02*
Y5444000D01*
X3822500Y5386000D02*
Y5444000D01*
X7249280Y8526341D02*
X7459280D01*
X7249280Y8876341D02*
X7459280D01*
X7250000Y8905000D02*
X7460000D01*
X7250000Y9255000D02*
X7460000D01*
X7712722Y5022544D02*
X7789723D01*
X7712722Y5304544D02*
X7789723D01*
X5219380Y8687820D02*
Y8853820D01*
X5515380Y8687820D02*
Y8853820D01*
X4192500Y8635500D02*
Y8779500D01*
X4299500D01*
X4502500Y8635500D02*
Y8779500D01*
X4395500D02*
X4502500D01*
X8128000Y7552500D02*
X8272000D01*
Y7445500D02*
Y7552500D01*
X8128000Y7242500D02*
X8272000D01*
Y7349500D01*
X7826339Y7432740D02*
Y7445240D01*
X7656339D02*
X7826339D01*
X7656339Y7432740D02*
Y7445240D01*
X7826339Y7135240D02*
Y7147740D01*
X7656339Y7135240D02*
X7826339D01*
X7656339D02*
Y7147740D01*
X4670000Y6210000D02*
X5070000D01*
X4670000Y5710000D02*
X5070000D01*
X4087500Y7745000D02*
Y8145000D01*
X4587500Y7745000D02*
Y8145000D01*
X5396500Y7714500D02*
Y7728000D01*
Y7714500D02*
X5806500D01*
Y7728000D01*
X5396500Y8211000D02*
Y8224500D01*
X5806500D01*
Y8211000D02*
Y8224500D01*
D84*
X7033497Y5998882D02*
Y6036382D01*
X7070997D01*
X7033497Y5506382D02*
Y5543882D01*
Y5506382D02*
X7070997D01*
X7525997D02*
X7563497D01*
Y5543882D01*
Y5998882D02*
Y6036382D01*
X7525997D02*
X7563497D01*
D85*
X3102500Y5595000D02*
X3202500D01*
X3102500Y5300000D02*
X3202500D01*
X3645000Y5617500D02*
Y5717500D01*
X3350000Y5617500D02*
Y5717500D01*
D86*
X6750804Y7712080D02*
X8825984D01*
X6750804Y7880235D02*
Y8458840D01*
X8825984D01*
Y7712080D02*
Y8458840D01*
X6750804Y7712080D02*
Y7820784D01*
D87*
X8082500Y5310000D02*
D03*
D88*
X3994999Y5962499D02*
D03*
%TF.MD5,cdd906a3bf4d9adaf88ca538d5fd0248*%
M02*
