%TF.GenerationSoftware,Altium Limited,Altium Designer,24.4.1 (13)*%
G04 Layer_Color=16711935*
%FSLAX45Y45*%
%MOMM*%
%TF.SameCoordinates,BD841E63-566E-43FA-B15A-678BD665FBE9*%
%TF.FilePolarity,Negative*%
%TF.FileFunction,Soldermask,Bot*%
%TF.Part,Single*%
G01*
G75*
%TA.AperFunction,ComponentPad*%
%ADD72C,1.54940*%
%ADD130C,1.90160*%
%ADD131R,1.90160X1.90160*%
%ADD132C,2.50160*%
%ADD133C,1.20160*%
G04:AMPARAMS|DCode=134|XSize=1.9016mm|YSize=1.1016mm|CornerRadius=0.3008mm|HoleSize=0mm|Usage=FLASHONLY|Rotation=0.000|XOffset=0mm|YOffset=0mm|HoleType=Round|Shape=RoundedRectangle|*
%AMROUNDEDRECTD134*
21,1,1.90160,0.50000,0,0,0.0*
21,1,1.30000,1.10160,0,0,0.0*
1,1,0.60160,0.65000,-0.25000*
1,1,0.60160,-0.65000,-0.25000*
1,1,0.60160,-0.65000,0.25000*
1,1,0.60160,0.65000,0.25000*
%
%ADD134ROUNDEDRECTD134*%
%ADD135O,2.20160X1.10160*%
%ADD136C,0.75160*%
%TA.AperFunction,WasherPad*%
%ADD137C,0.10160*%
D72*
X6857484Y7850510D02*
D03*
X7558524D02*
D03*
X8709144D02*
D03*
Y8320410D02*
D03*
D130*
X7179000Y9527500D02*
D03*
D131*
X7560000D02*
D03*
D132*
X8010000Y9617500D02*
D03*
X6729000D02*
D03*
D133*
X2872500Y8740000D02*
D03*
Y8020000D02*
D03*
X4727500Y10030000D02*
D03*
X5197500D02*
D03*
D134*
X2834500Y7012500D02*
D03*
Y6148500D02*
D03*
D135*
X3252500Y7012500D02*
D03*
Y6148500D02*
D03*
D136*
X3202500Y6291500D02*
D03*
Y6869500D02*
D03*
D137*
X8730000Y9952500D02*
D03*
Y4535000D02*
D03*
X2942500D02*
D03*
Y9952500D02*
D03*
%TF.MD5,b4142fa3d19f148c92138794a7aba311*%
M02*
