G04*
G04 #@! TF.GenerationSoftware,Altium Limited,Altium Designer,24.4.1 (13)*
G04*
G04 Layer_Color=8388736*
%FSLAX44Y44*%
%MOMM*%
G71*
G04*
G04 #@! TF.SameCoordinates,CB49997C-C3C6-4264-A903-5888FDE2464A*
G04*
G04*
G04 #@! TF.FilePolarity,Negative*
G04*
G01*
G75*
G04:AMPARAMS|DCode=62|XSize=0.6616mm|YSize=0.4216mm|CornerRadius=0.1308mm|HoleSize=0mm|Usage=FLASHONLY|Rotation=0.000|XOffset=0mm|YOffset=0mm|HoleType=Round|Shape=RoundedRectangle|*
%AMROUNDEDRECTD62*
21,1,0.6616,0.1600,0,0,0.0*
21,1,0.4000,0.4216,0,0,0.0*
1,1,0.2616,0.2000,-0.0800*
1,1,0.2616,-0.2000,-0.0800*
1,1,0.2616,-0.2000,0.0800*
1,1,0.2616,0.2000,0.0800*
%
%ADD62ROUNDEDRECTD62*%
%ADD63R,0.9016X0.9016*%
%ADD64R,0.9016X0.9016*%
%ADD65R,3.6016X3.6016*%
%ADD66O,0.9516X0.3016*%
%ADD67O,0.3016X0.9516*%
G04:AMPARAMS|DCode=68|XSize=0.6816mm|YSize=0.6816mm|CornerRadius=0.2016mm|HoleSize=0mm|Usage=FLASHONLY|Rotation=0.000|XOffset=0mm|YOffset=0mm|HoleType=Round|Shape=RoundedRectangle|*
%AMROUNDEDRECTD68*
21,1,0.6816,0.2784,0,0,0.0*
21,1,0.2784,0.6816,0,0,0.0*
1,1,0.4032,0.1392,-0.1392*
1,1,0.4032,-0.1392,-0.1392*
1,1,0.4032,-0.1392,0.1392*
1,1,0.4032,0.1392,0.1392*
%
%ADD68ROUNDEDRECTD68*%
G04:AMPARAMS|DCode=69|XSize=1.3116mm|YSize=0.6916mm|CornerRadius=0.1246mm|HoleSize=0mm|Usage=FLASHONLY|Rotation=0.000|XOffset=0mm|YOffset=0mm|HoleType=Round|Shape=RoundedRectangle|*
%AMROUNDEDRECTD69*
21,1,1.3116,0.4425,0,0,0.0*
21,1,1.0625,0.6916,0,0,0.0*
1,1,0.2491,0.5313,-0.2213*
1,1,0.2491,-0.5313,-0.2213*
1,1,0.2491,-0.5313,0.2213*
1,1,0.2491,0.5313,0.2213*
%
%ADD69ROUNDEDRECTD69*%
%ADD70R,5.7016X2.3016*%
%ADD71R,3.3016X1.3016*%
%ADD72R,2.3000X5.7000*%
%ADD73R,1.3000X3.3000*%
G04:AMPARAMS|DCode=74|XSize=0.8516mm|YSize=1.5016mm|CornerRadius=0.2383mm|HoleSize=0mm|Usage=FLASHONLY|Rotation=180.000|XOffset=0mm|YOffset=0mm|HoleType=Round|Shape=RoundedRectangle|*
%AMROUNDEDRECTD74*
21,1,0.8516,1.0250,0,0,180.0*
21,1,0.3750,1.5016,0,0,180.0*
1,1,0.4766,-0.1875,0.5125*
1,1,0.4766,0.1875,0.5125*
1,1,0.4766,0.1875,-0.5125*
1,1,0.4766,-0.1875,-0.5125*
%
%ADD74ROUNDEDRECTD74*%
G04:AMPARAMS|DCode=75|XSize=0.8516mm|YSize=1.5016mm|CornerRadius=0.2383mm|HoleSize=0mm|Usage=FLASHONLY|Rotation=90.000|XOffset=0mm|YOffset=0mm|HoleType=Round|Shape=RoundedRectangle|*
%AMROUNDEDRECTD75*
21,1,0.8516,1.0250,0,0,90.0*
21,1,0.3750,1.5016,0,0,90.0*
1,1,0.4766,0.5125,0.1875*
1,1,0.4766,0.5125,-0.1875*
1,1,0.4766,-0.5125,-0.1875*
1,1,0.4766,-0.5125,0.1875*
%
%ADD75ROUNDEDRECTD75*%
%ADD76R,1.2516X0.4016*%
%ADD77R,1.2516X0.7016*%
%ADD78R,0.4516X0.7016*%
G04:AMPARAMS|DCode=79|XSize=1.1716mm|YSize=2.8716mm|CornerRadius=0.3023mm|HoleSize=0mm|Usage=FLASHONLY|Rotation=180.000|XOffset=0mm|YOffset=0mm|HoleType=Round|Shape=RoundedRectangle|*
%AMROUNDEDRECTD79*
21,1,1.1716,2.2671,0,0,180.0*
21,1,0.5671,2.8716,0,0,180.0*
1,1,0.6045,-0.2836,1.1336*
1,1,0.6045,0.2836,1.1336*
1,1,0.6045,0.2836,-1.1336*
1,1,0.6045,-0.2836,-1.1336*
%
%ADD79ROUNDEDRECTD79*%
G04:AMPARAMS|DCode=80|XSize=1.1516mm|YSize=2.8716mm|CornerRadius=0.3028mm|HoleSize=0mm|Usage=FLASHONLY|Rotation=0.000|XOffset=0mm|YOffset=0mm|HoleType=Round|Shape=RoundedRectangle|*
%AMROUNDEDRECTD80*
21,1,1.1516,2.2660,0,0,0.0*
21,1,0.5460,2.8716,0,0,0.0*
1,1,0.6056,0.2730,-1.1330*
1,1,0.6056,-0.2730,-1.1330*
1,1,0.6056,-0.2730,1.1330*
1,1,0.6056,0.2730,1.1330*
%
%ADD80ROUNDEDRECTD80*%
G04:AMPARAMS|DCode=81|XSize=0.6816mm|YSize=0.6816mm|CornerRadius=0.1813mm|HoleSize=0mm|Usage=FLASHONLY|Rotation=180.000|XOffset=0mm|YOffset=0mm|HoleType=Round|Shape=RoundedRectangle|*
%AMROUNDEDRECTD81*
21,1,0.6816,0.3190,0,0,180.0*
21,1,0.3190,0.6816,0,0,180.0*
1,1,0.3626,-0.1595,0.1595*
1,1,0.3626,0.1595,0.1595*
1,1,0.3626,0.1595,-0.1595*
1,1,0.3626,-0.1595,-0.1595*
%
%ADD81ROUNDEDRECTD81*%
G04:AMPARAMS|DCode=82|XSize=0.6816mm|YSize=0.6816mm|CornerRadius=0.1813mm|HoleSize=0mm|Usage=FLASHONLY|Rotation=90.000|XOffset=0mm|YOffset=0mm|HoleType=Round|Shape=RoundedRectangle|*
%AMROUNDEDRECTD82*
21,1,0.6816,0.3190,0,0,90.0*
21,1,0.3190,0.6816,0,0,90.0*
1,1,0.3626,0.1595,0.1595*
1,1,0.3626,0.1595,-0.1595*
1,1,0.3626,-0.1595,-0.1595*
1,1,0.3626,-0.1595,0.1595*
%
%ADD82ROUNDEDRECTD82*%
G04:AMPARAMS|DCode=83|XSize=0.6816mm|YSize=0.6816mm|CornerRadius=0.2016mm|HoleSize=0mm|Usage=FLASHONLY|Rotation=270.000|XOffset=0mm|YOffset=0mm|HoleType=Round|Shape=RoundedRectangle|*
%AMROUNDEDRECTD83*
21,1,0.6816,0.2784,0,0,270.0*
21,1,0.2784,0.6816,0,0,270.0*
1,1,0.4032,-0.1392,-0.1392*
1,1,0.4032,-0.1392,0.1392*
1,1,0.4032,0.1392,0.1392*
1,1,0.4032,0.1392,-0.1392*
%
%ADD83ROUNDEDRECTD83*%
G04:AMPARAMS|DCode=84|XSize=1.2916mm|YSize=2.3216mm|CornerRadius=0.3007mm|HoleSize=0mm|Usage=FLASHONLY|Rotation=90.000|XOffset=0mm|YOffset=0mm|HoleType=Round|Shape=RoundedRectangle|*
%AMROUNDEDRECTD84*
21,1,1.2916,1.7202,0,0,90.0*
21,1,0.6902,2.3216,0,0,90.0*
1,1,0.6014,0.8601,0.3451*
1,1,0.6014,0.8601,-0.3451*
1,1,0.6014,-0.8601,-0.3451*
1,1,0.6014,-0.8601,0.3451*
%
%ADD84ROUNDEDRECTD84*%
G04:AMPARAMS|DCode=85|XSize=1.7216mm|YSize=3.6116mm|CornerRadius=0.3019mm|HoleSize=0mm|Usage=FLASHONLY|Rotation=180.000|XOffset=0mm|YOffset=0mm|HoleType=Round|Shape=RoundedRectangle|*
%AMROUNDEDRECTD85*
21,1,1.7216,3.0078,0,0,180.0*
21,1,1.1178,3.6116,0,0,180.0*
1,1,0.6038,-0.5589,1.5039*
1,1,0.6038,0.5589,1.5039*
1,1,0.6038,0.5589,-1.5039*
1,1,0.6038,-0.5589,-1.5039*
%
%ADD85ROUNDEDRECTD85*%
G04:AMPARAMS|DCode=86|XSize=1.0516mm|YSize=1.1216mm|CornerRadius=0.2931mm|HoleSize=0mm|Usage=FLASHONLY|Rotation=90.000|XOffset=0mm|YOffset=0mm|HoleType=Round|Shape=RoundedRectangle|*
%AMROUNDEDRECTD86*
21,1,1.0516,0.5355,0,0,90.0*
21,1,0.4655,1.1216,0,0,90.0*
1,1,0.5861,0.2677,0.2328*
1,1,0.5861,0.2677,-0.2328*
1,1,0.5861,-0.2677,-0.2328*
1,1,0.5861,-0.2677,0.2328*
%
%ADD86ROUNDEDRECTD86*%
G04:AMPARAMS|DCode=87|XSize=1.0516mm|YSize=1.1216mm|CornerRadius=0.2931mm|HoleSize=0mm|Usage=FLASHONLY|Rotation=0.000|XOffset=0mm|YOffset=0mm|HoleType=Round|Shape=RoundedRectangle|*
%AMROUNDEDRECTD87*
21,1,1.0516,0.5355,0,0,0.0*
21,1,0.4655,1.1216,0,0,0.0*
1,1,0.5861,0.2328,-0.2677*
1,1,0.5861,-0.2328,-0.2677*
1,1,0.5861,-0.2328,0.2677*
1,1,0.5861,0.2328,0.2677*
%
%ADD87ROUNDEDRECTD87*%
G04:AMPARAMS|DCode=88|XSize=0.7616mm|YSize=0.8016mm|CornerRadius=0.2224mm|HoleSize=0mm|Usage=FLASHONLY|Rotation=270.000|XOffset=0mm|YOffset=0mm|HoleType=Round|Shape=RoundedRectangle|*
%AMROUNDEDRECTD88*
21,1,0.7616,0.3568,0,0,270.0*
21,1,0.3168,0.8016,0,0,270.0*
1,1,0.4448,-0.1784,-0.1584*
1,1,0.4448,-0.1784,0.1584*
1,1,0.4448,0.1784,0.1584*
1,1,0.4448,0.1784,-0.1584*
%
%ADD88ROUNDEDRECTD88*%
G04:AMPARAMS|DCode=89|XSize=0.7616mm|YSize=0.8016mm|CornerRadius=0.2224mm|HoleSize=0mm|Usage=FLASHONLY|Rotation=0.000|XOffset=0mm|YOffset=0mm|HoleType=Round|Shape=RoundedRectangle|*
%AMROUNDEDRECTD89*
21,1,0.7616,0.3568,0,0,0.0*
21,1,0.3168,0.8016,0,0,0.0*
1,1,0.4448,0.1584,-0.1784*
1,1,0.4448,-0.1584,-0.1784*
1,1,0.4448,-0.1584,0.1784*
1,1,0.4448,0.1584,0.1784*
%
%ADD89ROUNDEDRECTD89*%
G04:AMPARAMS|DCode=90|XSize=1.1016mm|YSize=1.1016mm|CornerRadius=0.3008mm|HoleSize=0mm|Usage=FLASHONLY|Rotation=270.000|XOffset=0mm|YOffset=0mm|HoleType=Round|Shape=RoundedRectangle|*
%AMROUNDEDRECTD90*
21,1,1.1016,0.5000,0,0,270.0*
21,1,0.5000,1.1016,0,0,270.0*
1,1,0.6016,-0.2500,-0.2500*
1,1,0.6016,-0.2500,0.2500*
1,1,0.6016,0.2500,0.2500*
1,1,0.6016,0.2500,-0.2500*
%
%ADD90ROUNDEDRECTD90*%
G04:AMPARAMS|DCode=91|XSize=1.1016mm|YSize=1.1016mm|CornerRadius=0.3008mm|HoleSize=0mm|Usage=FLASHONLY|Rotation=0.000|XOffset=0mm|YOffset=0mm|HoleType=Round|Shape=RoundedRectangle|*
%AMROUNDEDRECTD91*
21,1,1.1016,0.5000,0,0,0.0*
21,1,0.5000,1.1016,0,0,0.0*
1,1,0.6016,0.2500,-0.2500*
1,1,0.6016,-0.2500,-0.2500*
1,1,0.6016,-0.2500,0.2500*
1,1,0.6016,0.2500,0.2500*
%
%ADD91ROUNDEDRECTD91*%
G04:AMPARAMS|DCode=92|XSize=1.2916mm|YSize=1.3916mm|CornerRadius=0.3007mm|HoleSize=0mm|Usage=FLASHONLY|Rotation=270.000|XOffset=0mm|YOffset=0mm|HoleType=Round|Shape=RoundedRectangle|*
%AMROUNDEDRECTD92*
21,1,1.2916,0.7902,0,0,270.0*
21,1,0.6902,1.3916,0,0,270.0*
1,1,0.6014,-0.3951,-0.3451*
1,1,0.6014,-0.3951,0.3451*
1,1,0.6014,0.3951,0.3451*
1,1,0.6014,0.3951,-0.3451*
%
%ADD92ROUNDEDRECTD92*%
%ADD93R,0.8616X2.5016*%
G04:AMPARAMS|DCode=94|XSize=1.1216mm|YSize=0.5616mm|CornerRadius=0.1704mm|HoleSize=0mm|Usage=FLASHONLY|Rotation=270.000|XOffset=0mm|YOffset=0mm|HoleType=Round|Shape=RoundedRectangle|*
%AMROUNDEDRECTD94*
21,1,1.1216,0.2208,0,0,270.0*
21,1,0.7808,0.5616,0,0,270.0*
1,1,0.3408,-0.1104,-0.3904*
1,1,0.3408,-0.1104,0.3904*
1,1,0.3408,0.1104,0.3904*
1,1,0.3408,0.1104,-0.3904*
%
%ADD94ROUNDEDRECTD94*%
G04:AMPARAMS|DCode=95|XSize=1.1316mm|YSize=0.7016mm|CornerRadius=0.2008mm|HoleSize=0mm|Usage=FLASHONLY|Rotation=90.000|XOffset=0mm|YOffset=0mm|HoleType=Round|Shape=RoundedRectangle|*
%AMROUNDEDRECTD95*
21,1,1.1316,0.3000,0,0,90.0*
21,1,0.7300,0.7016,0,0,90.0*
1,1,0.4016,0.1500,0.3650*
1,1,0.4016,0.1500,-0.3650*
1,1,0.4016,-0.1500,-0.3650*
1,1,0.4016,-0.1500,0.3650*
%
%ADD95ROUNDEDRECTD95*%
G04:AMPARAMS|DCode=96|XSize=1.1316mm|YSize=0.7016mm|CornerRadius=0.2008mm|HoleSize=0mm|Usage=FLASHONLY|Rotation=0.000|XOffset=0mm|YOffset=0mm|HoleType=Round|Shape=RoundedRectangle|*
%AMROUNDEDRECTD96*
21,1,1.1316,0.3000,0,0,0.0*
21,1,0.7300,0.7016,0,0,0.0*
1,1,0.4016,0.3650,-0.1500*
1,1,0.4016,-0.3650,-0.1500*
1,1,0.4016,-0.3650,0.1500*
1,1,0.4016,0.3650,0.1500*
%
%ADD96ROUNDEDRECTD96*%
G04:AMPARAMS|DCode=97|XSize=1.3916mm|YSize=0.6916mm|CornerRadius=0.2013mm|HoleSize=0mm|Usage=FLASHONLY|Rotation=180.000|XOffset=0mm|YOffset=0mm|HoleType=Round|Shape=RoundedRectangle|*
%AMROUNDEDRECTD97*
21,1,1.3916,0.2891,0,0,180.0*
21,1,0.9891,0.6916,0,0,180.0*
1,1,0.4025,-0.4946,0.1446*
1,1,0.4025,0.4946,0.1446*
1,1,0.4025,0.4946,-0.1446*
1,1,0.4025,-0.4946,-0.1446*
%
%ADD97ROUNDEDRECTD97*%
%ADD98R,1.5516X1.1016*%
G04:AMPARAMS|DCode=99|XSize=2.1716mm|YSize=0.7316mm|CornerRadius=0.2115mm|HoleSize=0mm|Usage=FLASHONLY|Rotation=180.000|XOffset=0mm|YOffset=0mm|HoleType=Round|Shape=RoundedRectangle|*
%AMROUNDEDRECTD99*
21,1,2.1716,0.3087,0,0,180.0*
21,1,1.7487,0.7316,0,0,180.0*
1,1,0.4229,-0.8743,0.1544*
1,1,0.4229,0.8743,0.1544*
1,1,0.4229,0.8743,-0.1544*
1,1,0.4229,-0.8743,-0.1544*
%
%ADD99ROUNDEDRECTD99*%
G04:AMPARAMS|DCode=100|XSize=2.1716mm|YSize=0.7316mm|CornerRadius=0.2115mm|HoleSize=0mm|Usage=FLASHONLY|Rotation=270.000|XOffset=0mm|YOffset=0mm|HoleType=Round|Shape=RoundedRectangle|*
%AMROUNDEDRECTD100*
21,1,2.1716,0.3087,0,0,270.0*
21,1,1.7487,0.7316,0,0,270.0*
1,1,0.4229,-0.1544,-0.8743*
1,1,0.4229,-0.1544,0.8743*
1,1,0.4229,0.1544,0.8743*
1,1,0.4229,0.1544,-0.8743*
%
%ADD100ROUNDEDRECTD100*%
G04:AMPARAMS|DCode=101|XSize=2.1116mm|YSize=0.7616mm|CornerRadius=0.2224mm|HoleSize=0mm|Usage=FLASHONLY|Rotation=180.000|XOffset=0mm|YOffset=0mm|HoleType=Round|Shape=RoundedRectangle|*
%AMROUNDEDRECTD101*
21,1,2.1116,0.3168,0,0,180.0*
21,1,1.6668,0.7616,0,0,180.0*
1,1,0.4448,-0.8334,0.1584*
1,1,0.4448,0.8334,0.1584*
1,1,0.4448,0.8334,-0.1584*
1,1,0.4448,-0.8334,-0.1584*
%
%ADD101ROUNDEDRECTD101*%
%ADD102R,0.9016X0.7516*%
%ADD103R,0.9016X1.7016*%
%ADD104C,2.5016*%
%ADD105R,1.9016X1.9016*%
%ADD106C,1.9016*%
%ADD107C,1.2016*%
%ADD108C,0.7516*%
%ADD109O,2.2016X1.1016*%
G04:AMPARAMS|DCode=110|XSize=1.9016mm|YSize=1.1016mm|CornerRadius=0.3008mm|HoleSize=0mm|Usage=FLASHONLY|Rotation=0.000|XOffset=0mm|YOffset=0mm|HoleType=Round|Shape=RoundedRectangle|*
%AMROUNDEDRECTD110*
21,1,1.9016,0.5000,0,0,0.0*
21,1,1.3000,1.1016,0,0,0.0*
1,1,0.6016,0.6500,-0.2500*
1,1,0.6016,-0.6500,-0.2500*
1,1,0.6016,-0.6500,0.2500*
1,1,0.6016,0.6500,0.2500*
%
%ADD110ROUNDEDRECTD110*%
%ADD111C,1.5494*%
%ADD112C,0.1016*%
D62*
X346898Y541214D02*
D03*
Y547714D02*
D03*
Y554214D02*
D03*
X327298D02*
D03*
Y547714D02*
D03*
Y541214D02*
D03*
D63*
X831000Y531000D02*
D03*
X815000D02*
D03*
D64*
X399500Y573500D02*
D03*
Y589500D02*
D03*
D65*
X729850Y577138D02*
D03*
D66*
X753850Y595138D02*
D03*
Y591138D02*
D03*
Y587138D02*
D03*
Y583138D02*
D03*
Y579138D02*
D03*
Y575138D02*
D03*
Y571138D02*
D03*
Y567138D02*
D03*
Y563138D02*
D03*
Y559138D02*
D03*
X705850D02*
D03*
Y563138D02*
D03*
Y567138D02*
D03*
Y571138D02*
D03*
Y575138D02*
D03*
Y579138D02*
D03*
Y583138D02*
D03*
Y587138D02*
D03*
Y591138D02*
D03*
Y595138D02*
D03*
D67*
X747850Y553138D02*
D03*
X743850D02*
D03*
X739850D02*
D03*
X735850D02*
D03*
X731850D02*
D03*
X727850D02*
D03*
X723850D02*
D03*
X719850D02*
D03*
X715850D02*
D03*
X711850D02*
D03*
Y601138D02*
D03*
X715850D02*
D03*
X719850D02*
D03*
X723850D02*
D03*
X727850D02*
D03*
X731850D02*
D03*
X735850D02*
D03*
X739850D02*
D03*
X743850D02*
D03*
X747850D02*
D03*
D68*
X301100Y562500D02*
D03*
X291900D02*
D03*
X748500Y728750D02*
D03*
Y719000D02*
D03*
X560500Y912000D02*
D03*
X560500Y902500D02*
D03*
X545750Y842750D02*
D03*
X555500Y851750D02*
D03*
X529250Y907500D02*
D03*
X405000Y752750D02*
D03*
X458250Y529500D02*
D03*
X438750Y843000D02*
D03*
X496000Y529500D02*
D03*
X610768Y491358D02*
D03*
X440000Y752750D02*
D03*
X357694Y580606D02*
D03*
X338250Y580500D02*
D03*
X345750Y676250D02*
D03*
X346580Y640000D02*
D03*
X830750Y542000D02*
D03*
D69*
X402850Y669250D02*
D03*
Y659750D02*
D03*
Y650250D02*
D03*
X377750D02*
D03*
Y659750D02*
D03*
Y669250D02*
D03*
D70*
X298750Y895500D02*
D03*
Y780500D02*
D03*
D71*
X340750Y863000D02*
D03*
Y838000D02*
D03*
Y813000D02*
D03*
D72*
X541250Y991500D02*
D03*
X451250D02*
D03*
D73*
X508750Y949500D02*
D03*
X483750D02*
D03*
D74*
X743454Y624548D02*
D03*
X757954D02*
D03*
D75*
X442804Y616966D02*
D03*
Y602466D02*
D03*
D76*
X331000Y675550D02*
D03*
Y670550D02*
D03*
Y665550D02*
D03*
Y640550D02*
D03*
Y645550D02*
D03*
Y650550D02*
D03*
Y660550D02*
D03*
Y655550D02*
D03*
D77*
Y634050D02*
D03*
Y682050D02*
D03*
Y626050D02*
D03*
Y690050D02*
D03*
D78*
X517750Y512000D02*
D03*
X524250D02*
D03*
X493250Y512250D02*
D03*
X486750D02*
D03*
X474500Y512750D02*
D03*
X468000D02*
D03*
D79*
X665450Y867750D02*
D03*
D80*
X694150D02*
D03*
D81*
X738900Y728750D02*
D03*
Y719000D02*
D03*
X550900Y912000D02*
D03*
X550900Y902500D02*
D03*
X555350Y842750D02*
D03*
X545900Y851750D02*
D03*
X519650Y907500D02*
D03*
X414600Y752750D02*
D03*
X467850Y529500D02*
D03*
X429150Y843000D02*
D03*
X486400Y529500D02*
D03*
X620368Y491358D02*
D03*
X430400Y752750D02*
D03*
X348094Y580606D02*
D03*
X328650Y580500D02*
D03*
X355350Y676250D02*
D03*
X356180Y640000D02*
D03*
X821150Y542000D02*
D03*
D82*
X540000Y912100D02*
D03*
X514722Y865918D02*
D03*
X505578Y875372D02*
D03*
X569500Y537900D02*
D03*
X528500Y567400D02*
D03*
Y599350D02*
D03*
X541000Y511400D02*
D03*
X399250Y551900D02*
D03*
X816500Y570350D02*
D03*
X804512Y580726D02*
D03*
X723750Y505350D02*
D03*
X724000Y471600D02*
D03*
D83*
X540000Y902500D02*
D03*
X514722Y875518D02*
D03*
X505578Y865772D02*
D03*
X569500Y547500D02*
D03*
X528500Y577000D02*
D03*
Y589750D02*
D03*
X541000Y521000D02*
D03*
X399250Y561500D02*
D03*
X816500Y560750D02*
D03*
X804512Y571126D02*
D03*
X723750Y495750D02*
D03*
X724000Y462000D02*
D03*
D84*
X371250Y552150D02*
D03*
Y530850D02*
D03*
D85*
X715028Y870134D02*
D03*
X755828D02*
D03*
X715100Y908000D02*
D03*
X755900D02*
D03*
D86*
X315250Y552120D02*
D03*
Y537420D02*
D03*
D87*
X357120Y566750D02*
D03*
X342420D02*
D03*
D88*
X800750Y516250D02*
D03*
Y525750D02*
D03*
X755522Y642804D02*
D03*
Y652304D02*
D03*
X744600Y643058D02*
D03*
Y652558D02*
D03*
X743500Y501750D02*
D03*
Y511250D02*
D03*
X804500Y549500D02*
D03*
Y559000D02*
D03*
X695666Y621218D02*
D03*
Y630718D02*
D03*
X685252Y621294D02*
D03*
Y630794D02*
D03*
X400500Y822750D02*
D03*
Y813250D02*
D03*
D89*
X793260Y571046D02*
D03*
X783760D02*
D03*
X793260Y581206D02*
D03*
X783760D02*
D03*
X772252Y493494D02*
D03*
X762752D02*
D03*
X772506Y605752D02*
D03*
X782006D02*
D03*
X766000Y544000D02*
D03*
X775500D02*
D03*
X772550Y616326D02*
D03*
X782050D02*
D03*
X723500Y517750D02*
D03*
X714000D02*
D03*
X723750Y483750D02*
D03*
X714250D02*
D03*
X689750Y548500D02*
D03*
X680250D02*
D03*
X512750Y826500D02*
D03*
X522250D02*
D03*
X559250Y865750D02*
D03*
X568750D02*
D03*
X584500Y829000D02*
D03*
X575000D02*
D03*
X685750Y601250D02*
D03*
X676250D02*
D03*
X677500Y571250D02*
D03*
X668000D02*
D03*
X512578Y628512D02*
D03*
X503078D02*
D03*
X442500Y628750D02*
D03*
X433000D02*
D03*
X442250Y588750D02*
D03*
X432750D02*
D03*
X586634Y491358D02*
D03*
X596134D02*
D03*
X290988Y573016D02*
D03*
X300488D02*
D03*
X299980Y551680D02*
D03*
X290480D02*
D03*
X357750Y590500D02*
D03*
X348250D02*
D03*
D90*
X572250Y882500D02*
D03*
X458500Y542500D02*
D03*
X510500Y533000D02*
D03*
D91*
X514750Y812000D02*
D03*
X543000Y753750D02*
D03*
X515000Y794750D02*
D03*
X563750Y753250D02*
D03*
X584250Y753500D02*
D03*
X414500Y737250D02*
D03*
X410250Y843000D02*
D03*
X485250Y560000D02*
D03*
X511250D02*
D03*
X454000Y736500D02*
D03*
X458000Y842500D02*
D03*
D92*
X763022Y507254D02*
D03*
X787222D02*
D03*
Y525454D02*
D03*
X763022D02*
D03*
D93*
X486400Y443250D02*
D03*
X473700D02*
D03*
Y482250D02*
D03*
X486400D02*
D03*
X524500Y443250D02*
D03*
X511800D02*
D03*
X524500Y482250D02*
D03*
X511800D02*
D03*
X499100Y443250D02*
D03*
Y482250D02*
D03*
D94*
X546488Y865832D02*
D03*
X539988D02*
D03*
X533488D02*
D03*
X526988D02*
D03*
Y888332D02*
D03*
X533488D02*
D03*
X539988D02*
D03*
X546488D02*
D03*
D95*
X434750Y880750D02*
D03*
X444750Y860750D02*
D03*
X424750D02*
D03*
D96*
X830000Y739750D02*
D03*
X810000Y729750D02*
D03*
Y749750D02*
D03*
D97*
X762584Y738524D02*
D03*
Y729024D02*
D03*
Y719524D02*
D03*
X785684D02*
D03*
Y729024D02*
D03*
Y738524D02*
D03*
D98*
X638216Y524750D02*
D03*
Y507750D02*
D03*
X586716Y524750D02*
D03*
Y507750D02*
D03*
D99*
X462750Y615050D02*
D03*
Y602350D02*
D03*
Y589650D02*
D03*
Y576950D02*
D03*
X511250D02*
D03*
Y589650D02*
D03*
Y602350D02*
D03*
Y615050D02*
D03*
D100*
X414700Y770250D02*
D03*
X427400D02*
D03*
X440100D02*
D03*
X452800D02*
D03*
Y818750D02*
D03*
X440100D02*
D03*
X427400D02*
D03*
X414700D02*
D03*
D101*
X536050Y816000D02*
D03*
Y803300D02*
D03*
Y790600D02*
D03*
Y777900D02*
D03*
X584250D02*
D03*
Y790600D02*
D03*
Y803300D02*
D03*
Y816000D02*
D03*
D102*
X692750Y422000D02*
D03*
Y431500D02*
D03*
D103*
X660750Y426750D02*
D03*
D104*
X672900Y961750D02*
D03*
X801000D02*
D03*
D105*
X756000Y952750D02*
D03*
D106*
X717900D02*
D03*
D107*
X287250Y874000D02*
D03*
Y802000D02*
D03*
X519750Y1003000D02*
D03*
X472750D02*
D03*
D108*
X320250Y686950D02*
D03*
Y629150D02*
D03*
D109*
X325250Y614850D02*
D03*
Y701250D02*
D03*
D110*
X283450Y614850D02*
D03*
Y701250D02*
D03*
D111*
X685748Y785051D02*
D03*
X755852D02*
D03*
X870914D02*
D03*
Y832041D02*
D03*
D112*
X873000Y995250D02*
D03*
Y453500D02*
D03*
X294250D02*
D03*
Y995250D02*
D03*
M02*
