G04*
G04 #@! TF.GenerationSoftware,Altium Limited,Altium Designer,24.4.1 (13)*
G04*
G04 Layer_Physical_Order=3*
G04 Layer_Color=16440176*
%FSLAX44Y44*%
%MOMM*%
G71*
G04*
G04 #@! TF.SameCoordinates,8C4884AE-FE68-42B2-B831-9760C43879B3*
G04*
G04*
G04 #@! TF.FilePolarity,Positive*
G04*
G01*
G75*
%ADD13C,0.2540*%
%ADD116C,0.3000*%
%ADD126C,2.4000*%
%ADD127R,1.8000X1.8000*%
%ADD128C,1.8000*%
%ADD129C,1.1000*%
G04:AMPARAMS|DCode=130|XSize=1.8mm|YSize=1mm|CornerRadius=0.25mm|HoleSize=0mm|Usage=FLASHONLY|Rotation=0.000|XOffset=0mm|YOffset=0mm|HoleType=Round|Shape=RoundedRectangle|*
%AMROUNDEDRECTD130*
21,1,1.8000,0.5000,0,0,0.0*
21,1,1.3000,1.0000,0,0,0.0*
1,1,0.5000,0.6500,-0.2500*
1,1,0.5000,-0.6500,-0.2500*
1,1,0.5000,-0.6500,0.2500*
1,1,0.5000,0.6500,0.2500*
%
%ADD130ROUNDEDRECTD130*%
%ADD131O,2.1000X1.0000*%
%ADD132C,0.6500*%
%ADD133C,0.6000*%
%ADD134C,0.6096*%
%ADD135C,1.5240*%
G36*
X878919Y1032619D02*
X884692Y1031233D01*
X890177Y1028961D01*
X895239Y1025859D01*
X899753Y1022003D01*
X903609Y1017489D01*
X906711Y1012427D01*
X908983Y1006942D01*
X910369Y1001169D01*
X910824Y995379D01*
X910799Y995250D01*
Y453500D01*
X910824Y453371D01*
X910369Y447581D01*
X908983Y441809D01*
X906711Y436324D01*
X903609Y431261D01*
X899753Y426747D01*
X895239Y422891D01*
X890177Y419789D01*
X884692Y417517D01*
X878919Y416131D01*
X873129Y415676D01*
X873000Y415701D01*
X698400D01*
Y416750D01*
X697916Y417916D01*
X696750Y418400D01*
X688400D01*
Y435100D01*
X696750D01*
X697916Y435584D01*
X698400Y436750D01*
Y457250D01*
X697916Y458416D01*
X696750Y458900D01*
X656750D01*
X655584Y458416D01*
X655100Y457250D01*
Y436750D01*
X655584Y435584D01*
X656750Y435100D01*
X665350D01*
Y418400D01*
X656750D01*
X655584Y417916D01*
X655100Y416750D01*
Y415701D01*
X294250D01*
X294121Y415676D01*
X288331Y416131D01*
X282558Y417517D01*
X277073Y419789D01*
X272011Y422891D01*
X267497Y426747D01*
X263641Y431261D01*
X260539Y436324D01*
X258267Y441809D01*
X256881Y447581D01*
X256426Y453371D01*
X256451Y453500D01*
Y995250D01*
X256426Y995379D01*
X256881Y1001169D01*
X258267Y1006942D01*
X260539Y1012427D01*
X263641Y1017489D01*
X267497Y1022003D01*
X272011Y1025859D01*
X277073Y1028961D01*
X282558Y1031233D01*
X288331Y1032619D01*
X294121Y1033074D01*
X294250Y1033049D01*
X872500D01*
X873000Y1033053D01*
Y1033053D01*
X873032Y1033082D01*
X878919Y1032619D01*
D02*
G37*
%LPC*%
G36*
X520675Y1010024D02*
X518825D01*
X517039Y1009545D01*
X515437Y1008621D01*
X514129Y1007313D01*
X513205Y1005711D01*
X512726Y1003925D01*
Y1002075D01*
X513205Y1000289D01*
X514129Y998687D01*
X515437Y997379D01*
X517039Y996455D01*
X518825Y995976D01*
X520675D01*
X522461Y996455D01*
X524063Y997379D01*
X525371Y998687D01*
X526295Y1000289D01*
X526774Y1002075D01*
Y1003925D01*
X526295Y1005711D01*
X525371Y1007313D01*
X524063Y1008621D01*
X522461Y1009545D01*
X520675Y1010024D01*
D02*
G37*
G36*
X473675D02*
X471825D01*
X470039Y1009545D01*
X468437Y1008621D01*
X467129Y1007313D01*
X466205Y1005711D01*
X465726Y1003925D01*
Y1002075D01*
X466205Y1000289D01*
X467129Y998687D01*
X468437Y997379D01*
X470039Y996455D01*
X471825Y995976D01*
X473675D01*
X475461Y996455D01*
X477063Y997379D01*
X478371Y998687D01*
X479295Y1000289D01*
X479774Y1002075D01*
Y1003925D01*
X479295Y1005711D01*
X478371Y1007313D01*
X477063Y1008621D01*
X475461Y1009545D01*
X473675Y1010024D01*
D02*
G37*
G36*
X874874Y1014274D02*
X871126D01*
X867451Y1013543D01*
X863989Y1012109D01*
X860873Y1010027D01*
X858223Y1007377D01*
X856141Y1004261D01*
X854707Y1000799D01*
X853976Y997124D01*
Y993376D01*
X854707Y989701D01*
X856141Y986239D01*
X858223Y983123D01*
X860873Y980473D01*
X863989Y978391D01*
X867451Y976957D01*
X871126Y976226D01*
X874874D01*
X878549Y976957D01*
X882011Y978391D01*
X885127Y980473D01*
X887777Y983123D01*
X889859Y986239D01*
X891293Y989701D01*
X892024Y993376D01*
Y997124D01*
X891293Y1000799D01*
X889859Y1004261D01*
X887777Y1007377D01*
X885127Y1010027D01*
X882011Y1012109D01*
X878549Y1013543D01*
X874874Y1014274D01*
D02*
G37*
G36*
X296124D02*
X292376D01*
X288701Y1013543D01*
X285239Y1012109D01*
X282123Y1010027D01*
X279473Y1007377D01*
X277391Y1004261D01*
X275957Y1000799D01*
X275226Y997124D01*
Y993376D01*
X275957Y989701D01*
X277391Y986239D01*
X279473Y983123D01*
X282123Y980473D01*
X285239Y978391D01*
X288701Y976957D01*
X292376Y976226D01*
X296124D01*
X299799Y976957D01*
X303261Y978391D01*
X306377Y980473D01*
X309027Y983123D01*
X311109Y986239D01*
X312543Y989701D01*
X313274Y993376D01*
Y997124D01*
X312543Y1000799D01*
X311109Y1004261D01*
X309027Y1007377D01*
X306377Y1010027D01*
X303261Y1012109D01*
X299799Y1013543D01*
X296124Y1014274D01*
D02*
G37*
G36*
X288175Y881024D02*
X286325D01*
X284539Y880545D01*
X282937Y879621D01*
X281629Y878313D01*
X280705Y876711D01*
X280226Y874925D01*
Y873075D01*
X280705Y871289D01*
X281629Y869687D01*
X282937Y868379D01*
X284539Y867455D01*
X286325Y866976D01*
X288175D01*
X289961Y867455D01*
X291563Y868379D01*
X292871Y869687D01*
X293795Y871289D01*
X294274Y873075D01*
Y874925D01*
X293795Y876711D01*
X292871Y878313D01*
X291563Y879621D01*
X289961Y880545D01*
X288175Y881024D01*
D02*
G37*
G36*
X872118Y841185D02*
X869711D01*
X867385Y840562D01*
X865300Y839358D01*
X863597Y837655D01*
X862394Y835570D01*
X861770Y833245D01*
Y830837D01*
X862394Y828512D01*
X863597Y826426D01*
X865300Y824724D01*
X867385Y823520D01*
X869711Y822897D01*
X872118D01*
X874444Y823520D01*
X876529Y824724D01*
X878231Y826426D01*
X879435Y828512D01*
X880058Y830837D01*
Y833245D01*
X879435Y835570D01*
X878231Y837655D01*
X876529Y839358D01*
X874444Y840562D01*
X872118Y841185D01*
D02*
G37*
G36*
X288175Y809024D02*
X286325D01*
X284539Y808545D01*
X282937Y807621D01*
X281629Y806313D01*
X280705Y804711D01*
X280226Y802925D01*
Y801075D01*
X280705Y799289D01*
X281629Y797687D01*
X282937Y796379D01*
X284539Y795455D01*
X286325Y794976D01*
X288175D01*
X289961Y795455D01*
X291563Y796379D01*
X292871Y797687D01*
X293795Y799289D01*
X294274Y801075D01*
Y802925D01*
X293795Y804711D01*
X292871Y806313D01*
X291563Y807621D01*
X289961Y808545D01*
X288175Y809024D01*
D02*
G37*
G36*
X872118Y794195D02*
X869711D01*
X867385Y793572D01*
X865300Y792368D01*
X863597Y790666D01*
X862394Y788580D01*
X861770Y786255D01*
Y783847D01*
X862394Y781522D01*
X863597Y779436D01*
X865300Y777734D01*
X867385Y776530D01*
X869711Y775907D01*
X872118D01*
X874444Y776530D01*
X876529Y777734D01*
X878231Y779436D01*
X879435Y781522D01*
X880058Y783847D01*
Y786255D01*
X879435Y788580D01*
X878231Y790666D01*
X876529Y792368D01*
X874444Y793572D01*
X872118Y794195D01*
D02*
G37*
G36*
X728500Y1006621D02*
X646500D01*
X641599Y1006138D01*
X636887Y1004709D01*
X632543Y1002387D01*
X628737Y999263D01*
X625613Y995456D01*
X623291Y991113D01*
X621862Y986401D01*
X621379Y981500D01*
Y774022D01*
X621382Y773988D01*
X621379Y773952D01*
X621624Y771532D01*
X621862Y769121D01*
X621872Y769088D01*
X621875Y769053D01*
X622587Y766730D01*
X623291Y764409D01*
X623308Y764378D01*
X623318Y764344D01*
X624468Y762208D01*
X625613Y760066D01*
X625635Y760039D01*
X625652Y760008D01*
X627194Y758139D01*
X628737Y756259D01*
X628764Y756237D01*
X628786Y756210D01*
X629867Y755135D01*
X629894Y755113D01*
X629916Y755086D01*
X631804Y753554D01*
X633682Y752022D01*
X633713Y752005D01*
X633740Y751983D01*
X635890Y750849D01*
X638032Y749712D01*
X638065Y749702D01*
X638096Y749686D01*
X640425Y748994D01*
X642748Y748296D01*
X642783Y748292D01*
X642817Y748283D01*
X645231Y748058D01*
X647651Y747827D01*
X647685Y747830D01*
X647720Y747827D01*
X702140Y748129D01*
X704520Y748377D01*
X706901Y748612D01*
X706968Y748632D01*
X707038Y748639D01*
X709323Y749346D01*
X711613Y750041D01*
X711675Y750074D01*
X711742Y750095D01*
X713846Y751235D01*
X715956Y752363D01*
X716011Y752407D01*
X716072Y752440D01*
X717913Y753969D01*
X719763Y755487D01*
X719808Y755541D01*
X719862Y755586D01*
X721369Y757443D01*
X721907Y758099D01*
X722531Y758226D01*
X723066Y758190D01*
X723764Y757960D01*
X723819Y757858D01*
X725178Y756216D01*
X726494Y754537D01*
X726746Y754320D01*
X726958Y754064D01*
X728612Y752717D01*
X730229Y751328D01*
X730519Y751164D01*
X730777Y750954D01*
X732661Y749956D01*
X734519Y748909D01*
X734835Y748805D01*
X735129Y748650D01*
X737171Y748038D01*
X739198Y747374D01*
X739528Y747334D01*
X739847Y747238D01*
X741970Y747037D01*
X744086Y746780D01*
X785844Y745839D01*
X785985Y745849D01*
X786127Y745834D01*
X788442Y746036D01*
X790754Y746211D01*
X790891Y746249D01*
X791033Y746261D01*
X793262Y746910D01*
X795498Y747533D01*
X795625Y747598D01*
X795761Y747637D01*
X797819Y748708D01*
X799892Y749756D01*
X800004Y749844D01*
X800130Y749910D01*
X801940Y751361D01*
X803768Y752794D01*
X803861Y752902D01*
X803972Y752991D01*
X805062Y754056D01*
X805153Y754165D01*
X805263Y754255D01*
X806736Y756050D01*
X808229Y757827D01*
X808297Y757952D01*
X808387Y758062D01*
X809482Y760109D01*
X810599Y762144D01*
X810642Y762280D01*
X810709Y762405D01*
X811382Y764626D01*
X812081Y766840D01*
X812097Y766982D01*
X812138Y767118D01*
X812366Y769426D01*
X812619Y771735D01*
X812607Y771877D01*
X812621Y772019D01*
Y954830D01*
X813602Y956530D01*
X814524Y959969D01*
Y963531D01*
X813602Y966970D01*
X812621Y968670D01*
Y980750D01*
X812138Y985651D01*
X810709Y990363D01*
X808387Y994706D01*
X805263Y998513D01*
X801457Y1001637D01*
X797113Y1003959D01*
X792401Y1005388D01*
X787500Y1005871D01*
X744930D01*
X744906Y1005869D01*
X744882Y1005871D01*
X742450Y1005627D01*
X740029Y1005388D01*
X740006Y1005381D01*
X739982Y1005379D01*
X737950Y1004758D01*
X733401Y1006138D01*
X728500Y1006621D01*
D02*
G37*
G36*
X469400Y741024D02*
X467600D01*
X465937Y740335D01*
X464665Y739063D01*
X463976Y737400D01*
Y735600D01*
X464665Y733937D01*
X465937Y732665D01*
X467600Y731976D01*
X469400D01*
X471063Y732665D01*
X472335Y733937D01*
X473024Y735600D01*
Y737400D01*
X472335Y739063D01*
X471063Y740335D01*
X469400Y741024D01*
D02*
G37*
G36*
X440650Y740774D02*
X438850D01*
X437187Y740085D01*
X435915Y738813D01*
X435226Y737150D01*
Y735350D01*
X435915Y733687D01*
X437187Y732415D01*
X438850Y731726D01*
X440650D01*
X442313Y732415D01*
X443585Y733687D01*
X444274Y735350D01*
Y737150D01*
X443585Y738813D01*
X442313Y740085D01*
X440650Y740774D01*
D02*
G37*
G36*
X365162Y697265D02*
X365159Y697264D01*
X365156Y697265D01*
X333605Y697026D01*
X333308Y696900D01*
X332986D01*
X332023Y696501D01*
X330642Y696319D01*
X319858D01*
X318478Y696501D01*
X317815Y696775D01*
X317481D01*
X317171Y696901D01*
X310488Y696850D01*
X291654Y696707D01*
X291300Y696557D01*
X291198Y696577D01*
X289788Y696297D01*
X277113D01*
X275826Y696553D01*
X275654Y696518D01*
X275491Y696584D01*
X267237Y696522D01*
X266662Y696278D01*
X266084Y696039D01*
X266081Y696032D01*
X266075Y696030D01*
X265840Y695451D01*
X265600Y694872D01*
X265600Y569750D01*
X266084Y568584D01*
X267250Y568100D01*
X306750D01*
X307916Y568583D01*
X367416Y628084D01*
X367900Y629250D01*
Y671492D01*
X367835Y671648D01*
X367868Y671814D01*
X367601Y672214D01*
X367416Y672658D01*
X367260Y672723D01*
X367166Y672864D01*
X366816Y673098D01*
X366344Y673192D01*
X365900Y673376D01*
X364428D01*
X363372Y673813D01*
X362563Y674622D01*
X362126Y675678D01*
Y676822D01*
X362563Y677878D01*
X363372Y678687D01*
X364428Y679124D01*
X365900D01*
X366344Y679308D01*
X366816Y679402D01*
X367166Y679636D01*
X367260Y679777D01*
X367416Y679842D01*
X367601Y680286D01*
X367868Y680686D01*
X367835Y680852D01*
X367900Y681008D01*
Y694542D01*
X367898Y694545D01*
X367900Y694548D01*
X367657Y695129D01*
X367416Y695709D01*
X367413Y695710D01*
X367412Y695713D01*
X366330Y696787D01*
X366327Y696788D01*
X366326Y696791D01*
X365745Y697027D01*
X365162Y697265D01*
D02*
G37*
G36*
X831025Y719899D02*
X829225D01*
X827562Y719210D01*
X826290Y717938D01*
X825601Y716275D01*
Y714475D01*
X826290Y712812D01*
X827042Y712060D01*
Y665099D01*
X704000D01*
X704000Y665099D01*
X702910Y664882D01*
X701986Y664264D01*
X701986Y664264D01*
X669745Y632024D01*
X668350D01*
X666687Y631335D01*
X665415Y630063D01*
X664726Y628400D01*
Y626600D01*
X665415Y624937D01*
X666687Y623665D01*
X668350Y622976D01*
X670150D01*
X671813Y623665D01*
X673085Y624937D01*
X673774Y626600D01*
Y627995D01*
X705180Y659401D01*
X827042D01*
Y524402D01*
X797223Y494583D01*
X375852D01*
X318333Y552102D01*
Y558935D01*
X319085Y559687D01*
X319774Y561350D01*
Y563150D01*
X319085Y564813D01*
X317813Y566085D01*
X316150Y566774D01*
X314350D01*
X312687Y566085D01*
X311415Y564813D01*
X310726Y563150D01*
Y561350D01*
X311415Y559687D01*
X312167Y558935D01*
Y550825D01*
X312167Y550825D01*
X312402Y549645D01*
X313070Y548644D01*
X372394Y489320D01*
X372394Y489320D01*
X373395Y488652D01*
X374574Y488417D01*
X374575Y488417D01*
X798500D01*
X798500Y488417D01*
X799680Y488652D01*
X800680Y489320D01*
X832305Y520945D01*
X832305Y520945D01*
X832973Y521945D01*
X833208Y523125D01*
Y662250D01*
Y712060D01*
X833960Y712812D01*
X834649Y714475D01*
Y716275D01*
X833960Y717938D01*
X832688Y719210D01*
X831025Y719899D01*
D02*
G37*
G36*
X725150Y642618D02*
X723350D01*
X721687Y641929D01*
X720415Y640657D01*
X719726Y638994D01*
Y637194D01*
X720415Y635531D01*
X721687Y634259D01*
X723350Y633570D01*
X725150D01*
X726813Y634259D01*
X728085Y635531D01*
X728774Y637194D01*
Y638994D01*
X728085Y640657D01*
X726813Y641929D01*
X725150Y642618D01*
D02*
G37*
G36*
X793650Y555524D02*
X791850D01*
X790187Y554835D01*
X788915Y553563D01*
X788226Y551900D01*
Y550100D01*
X788915Y548437D01*
X790187Y547165D01*
X791850Y546476D01*
X793650D01*
X795313Y547165D01*
X796585Y548437D01*
X797274Y550100D01*
Y551900D01*
X796585Y553563D01*
X795313Y554835D01*
X793650Y555524D01*
D02*
G37*
G36*
X517000Y972900D02*
X471000D01*
X469834Y972416D01*
X469350Y971250D01*
Y836433D01*
X464067Y831150D01*
X392750D01*
X391584Y830666D01*
X391100Y829500D01*
Y716933D01*
X390834Y716666D01*
X390350Y715500D01*
X390834Y714333D01*
X395584Y709584D01*
X396750Y709100D01*
X430000D01*
X431166Y709584D01*
X431650Y710750D01*
Y719267D01*
X431585Y719423D01*
X431618Y719589D01*
X431351Y719989D01*
X431166Y720434D01*
X431304Y721906D01*
X431335Y721937D01*
X432024Y723600D01*
Y725400D01*
X431335Y727063D01*
X431304Y727094D01*
X431166Y728566D01*
X431351Y729011D01*
X431618Y729411D01*
X431585Y729577D01*
X431650Y729733D01*
Y790100D01*
X497100D01*
Y605424D01*
X362733Y605154D01*
X362431Y605028D01*
X362104Y605027D01*
X361871Y604795D01*
X361568Y604668D01*
X361443Y604365D01*
X361212Y604134D01*
X360630Y602725D01*
X360630Y602398D01*
X360505Y602095D01*
X360631Y601791D01*
X360631Y601463D01*
X360863Y601231D01*
X360988Y600929D01*
X361100Y600817D01*
Y526250D01*
X361584Y525084D01*
X362750Y524600D01*
X649976D01*
Y523100D01*
X650665Y521437D01*
X651937Y520165D01*
X653600Y519476D01*
X655400D01*
X657063Y520165D01*
X658335Y521437D01*
X659024Y523100D01*
Y524600D01*
X678734D01*
X679262Y524819D01*
X679750Y524978D01*
X680238Y524819D01*
X680766Y524600D01*
X710042D01*
X711208Y525084D01*
X711691Y526250D01*
Y527074D01*
X712129Y528131D01*
X712938Y528939D01*
X713994Y529377D01*
X715138D01*
X716194Y528939D01*
X717003Y528131D01*
X717440Y527074D01*
Y526250D01*
X717923Y525084D01*
X719090Y524600D01*
X731874D01*
X732177Y524726D01*
X732505D01*
X732562Y524750D01*
X733705D01*
X733762Y524726D01*
X734090D01*
X734393Y524600D01*
X766750D01*
X767916Y525084D01*
X776693Y533860D01*
X777176Y535027D01*
X776893Y535710D01*
X776693Y536193D01*
X776308Y536579D01*
X775870Y537635D01*
Y538779D01*
X776308Y539835D01*
X777116Y540644D01*
X778173Y541081D01*
X779644D01*
X780089Y541265D01*
X780561Y541359D01*
X780667Y541430D01*
X780736Y541533D01*
X780811Y541564D01*
X780824Y541597D01*
X780916Y541635D01*
X781101Y542080D01*
X781368Y542480D01*
X781335Y542645D01*
X781400Y542802D01*
Y558585D01*
X781274Y558888D01*
Y559216D01*
X780876Y560178D01*
Y561322D01*
X781274Y562284D01*
Y562612D01*
X781400Y562915D01*
Y615250D01*
X780916Y616416D01*
X779750Y616900D01*
X720524D01*
Y616900D01*
X719835Y618563D01*
X718563Y619835D01*
X716900Y620524D01*
X715100D01*
X713437Y619835D01*
X712165Y618563D01*
X711476Y616900D01*
Y616900D01*
X667683D01*
X596900Y687683D01*
Y893000D01*
X596416Y894166D01*
X518166Y972416D01*
X517000Y972900D01*
D02*
G37*
G36*
X874874Y472524D02*
X871126D01*
X867451Y471793D01*
X863989Y470359D01*
X860873Y468277D01*
X858223Y465627D01*
X856141Y462511D01*
X854707Y459049D01*
X853976Y455374D01*
Y451626D01*
X854707Y447951D01*
X856141Y444489D01*
X858223Y441373D01*
X860873Y438723D01*
X863989Y436641D01*
X867451Y435207D01*
X871126Y434476D01*
X874874D01*
X878549Y435207D01*
X882011Y436641D01*
X885127Y438723D01*
X887777Y441373D01*
X889859Y444489D01*
X891293Y447951D01*
X892024Y451626D01*
Y455374D01*
X891293Y459049D01*
X889859Y462511D01*
X887777Y465627D01*
X885127Y468277D01*
X882011Y470359D01*
X878549Y471793D01*
X874874Y472524D01*
D02*
G37*
G36*
X296124D02*
X292376D01*
X288701Y471793D01*
X285239Y470359D01*
X282123Y468277D01*
X279473Y465627D01*
X277391Y462511D01*
X275957Y459049D01*
X275226Y455374D01*
Y451626D01*
X275957Y447951D01*
X277391Y444489D01*
X279473Y441373D01*
X282123Y438723D01*
X285239Y436641D01*
X288701Y435207D01*
X292376Y434476D01*
X296124D01*
X299799Y435207D01*
X303261Y436641D01*
X306377Y438723D01*
X309027Y441373D01*
X311109Y444489D01*
X312543Y447951D01*
X313274Y451626D01*
Y455374D01*
X312543Y459049D01*
X311109Y462511D01*
X309027Y465627D01*
X306377Y468277D01*
X303261Y470359D01*
X299799Y471793D01*
X296124Y472524D01*
D02*
G37*
%LPD*%
G36*
X728500Y940500D02*
X681500D01*
Y832000D01*
X702000D01*
Y773250D01*
X647581Y772948D01*
X646500Y774022D01*
Y981500D01*
X728500D01*
Y940500D01*
D02*
G37*
G36*
X787500Y963620D02*
X787476Y963531D01*
Y959969D01*
X787500Y959880D01*
Y772019D01*
X786410Y770953D01*
X744653Y771895D01*
X743855Y979670D01*
X744930Y980750D01*
X787500D01*
Y963620D01*
D02*
G37*
%LPC*%
G36*
X674680Y975274D02*
X671120D01*
X667680Y974352D01*
X664596Y972572D01*
X662078Y970054D01*
X660298Y966970D01*
X659376Y963531D01*
Y959969D01*
X660298Y956530D01*
X662078Y953446D01*
X664596Y950928D01*
X667680Y949148D01*
X671120Y948226D01*
X674680D01*
X678120Y949148D01*
X681204Y950928D01*
X683722Y953446D01*
X685502Y956530D01*
X686424Y959969D01*
Y963531D01*
X685502Y966970D01*
X683722Y970054D01*
X681204Y972572D01*
X678120Y974352D01*
X674680Y975274D01*
D02*
G37*
%LPD*%
G36*
X365119Y695500D02*
X366135Y694492D01*
X366250Y694217D01*
Y681234D01*
X366229Y681202D01*
X366196Y681037D01*
X366101Y680942D01*
X366023Y680926D01*
X365882Y680833D01*
X365713D01*
X365572Y680774D01*
X364100D01*
X362437Y680085D01*
X361165Y678813D01*
X360476Y677150D01*
Y675350D01*
X361165Y673687D01*
X362437Y672415D01*
X364100Y671726D01*
X365572D01*
X365713Y671667D01*
X365882D01*
X366022Y671574D01*
X366101Y671558D01*
X366196Y671463D01*
X366229Y671298D01*
X366250Y671266D01*
Y629578D01*
X366018Y629018D01*
X336500Y599500D01*
X306982Y569982D01*
X306422Y569750D01*
X267578D01*
X267346Y569846D01*
X267250Y570078D01*
X267250Y694544D01*
X267346Y694777D01*
X267578Y694875D01*
X275504Y694935D01*
X276950Y694647D01*
X289950D01*
X291520Y694959D01*
X291634Y695036D01*
X291943Y695038D01*
X291995Y695060D01*
X302911Y695143D01*
X312486Y695216D01*
X316856Y695249D01*
X316861Y695247D01*
X317183Y695249D01*
X317481Y695126D01*
X317487D01*
X318047Y694894D01*
X319750Y694670D01*
X330750D01*
X332453Y694894D01*
X332654Y694977D01*
X332654D01*
X333617Y695376D01*
X343309Y695450D01*
X354101Y695532D01*
X364843Y695613D01*
X365119Y695500D01*
D02*
G37*
%LPC*%
G36*
X321200Y691724D02*
X319300D01*
X317546Y690997D01*
X316203Y689654D01*
X315476Y687900D01*
Y686000D01*
X316203Y684246D01*
X317546Y682903D01*
X319300Y682176D01*
X321200D01*
X322954Y682903D01*
X324297Y684246D01*
X325024Y686000D01*
Y687900D01*
X324297Y689654D01*
X322954Y690997D01*
X321200Y691724D01*
D02*
G37*
G36*
X280900Y684524D02*
X279100D01*
X277437Y683835D01*
X276165Y682563D01*
X275476Y680900D01*
Y679100D01*
X276165Y677437D01*
X277437Y676165D01*
X279100Y675476D01*
X280900D01*
X282563Y676165D01*
X283835Y677437D01*
X284524Y679100D01*
Y680900D01*
X283835Y682563D01*
X282563Y683835D01*
X280900Y684524D01*
D02*
G37*
G36*
X357150Y654274D02*
X355350D01*
X353687Y653585D01*
X352415Y652313D01*
X351726Y650650D01*
Y648850D01*
X352415Y647187D01*
X353687Y645915D01*
X355350Y645226D01*
X357150D01*
X358813Y645915D01*
X360085Y647187D01*
X360774Y648850D01*
Y650650D01*
X360085Y652313D01*
X358813Y653585D01*
X357150Y654274D01*
D02*
G37*
G36*
X300900Y644524D02*
X299100D01*
X297437Y643835D01*
X296165Y642563D01*
X295476Y640900D01*
Y639100D01*
X296165Y637437D01*
X297437Y636165D01*
X299100Y635476D01*
X300900D01*
X302563Y636165D01*
X303835Y637437D01*
X304524Y639100D01*
Y640900D01*
X303835Y642563D01*
X302563Y643835D01*
X300900Y644524D01*
D02*
G37*
G36*
X321200Y633924D02*
X319300D01*
X317546Y633197D01*
X316203Y631854D01*
X315476Y630100D01*
Y628200D01*
X316203Y626446D01*
X317546Y625103D01*
X319300Y624376D01*
X321200D01*
X322954Y625103D01*
X324297Y626446D01*
X325024Y628200D01*
Y630100D01*
X324297Y631854D01*
X322954Y633197D01*
X321200Y633924D01*
D02*
G37*
G36*
X330750Y621430D02*
X319750D01*
X318047Y621206D01*
X316460Y620549D01*
X315269Y619635D01*
X315269Y619635D01*
X315097Y619503D01*
X314965Y619331D01*
X314965Y619331D01*
X314051Y618140D01*
X313968Y617939D01*
X313968Y617939D01*
X313477Y616754D01*
Y616754D01*
X313394Y616553D01*
X313170Y614850D01*
X313394Y613147D01*
X314051Y611560D01*
X314965Y610369D01*
X314965Y610369D01*
X315097Y610197D01*
X315269Y610065D01*
X315269Y610065D01*
X316460Y609151D01*
X316660Y609068D01*
X316660Y609068D01*
X317846Y608577D01*
X317846D01*
X318047Y608494D01*
X319750Y608270D01*
X330750D01*
X332453Y608494D01*
X334040Y609151D01*
X335231Y610065D01*
X335231Y610065D01*
X335403Y610197D01*
X335535Y610369D01*
X335535Y610369D01*
X336449Y611560D01*
X336532Y611760D01*
X336532Y611760D01*
X337023Y612946D01*
Y612946D01*
X337106Y613147D01*
X337330Y614850D01*
X337106Y616553D01*
X336449Y618140D01*
X335535Y619331D01*
X335535Y619331D01*
X335403Y619503D01*
X335231Y619635D01*
X335231Y619635D01*
X334040Y620549D01*
X333839Y620632D01*
X333839Y620632D01*
X332654Y621123D01*
X332654D01*
X332453Y621206D01*
X330857Y621416D01*
X330750Y621430D01*
D02*
G37*
G36*
X289950Y621453D02*
X276950D01*
X275380Y621141D01*
X274322Y620434D01*
X274322Y620434D01*
X274049Y620251D01*
X273160Y618920D01*
X272847Y617350D01*
Y612350D01*
X273160Y610780D01*
X273867Y609722D01*
X273867Y609722D01*
X274049Y609449D01*
X275380Y608559D01*
X276950Y608247D01*
X289950D01*
X291520Y608559D01*
X292578Y609267D01*
X292578Y609267D01*
X292851Y609449D01*
X293741Y610780D01*
X294053Y612350D01*
Y617350D01*
X293741Y618920D01*
X293034Y619978D01*
X293034Y619978D01*
X292851Y620251D01*
X291520Y621141D01*
X290109Y621421D01*
X289950Y621453D01*
D02*
G37*
G36*
X306650Y586524D02*
X304850D01*
X303187Y585835D01*
X301915Y584563D01*
X301226Y582900D01*
Y581100D01*
X301915Y579437D01*
X303187Y578165D01*
X304850Y577476D01*
X306650D01*
X308313Y578165D01*
X309585Y579437D01*
X310274Y581100D01*
Y582900D01*
X309585Y584563D01*
X308313Y585835D01*
X306650Y586524D01*
D02*
G37*
%LPD*%
G36*
X332023Y619599D02*
X333208Y619108D01*
X334226Y618326D01*
X335008Y617308D01*
X335499Y616123D01*
X335667Y614850D01*
X335499Y613577D01*
X335008Y612392D01*
X334226Y611373D01*
X333208Y610592D01*
X332023Y610101D01*
X330642Y609919D01*
X319858D01*
X318477Y610101D01*
X317292Y610592D01*
X316273Y611373D01*
X315492Y612392D01*
X315001Y613577D01*
X314834Y614850D01*
X315001Y616123D01*
X315492Y617308D01*
X316273Y618326D01*
X317292Y619108D01*
X318477Y619599D01*
X319858Y619781D01*
X330642D01*
X332023Y619599D01*
D02*
G37*
G36*
X290876Y619587D02*
X291662Y619062D01*
X292187Y618276D01*
X292403Y617188D01*
Y612513D01*
X292187Y611424D01*
X291662Y610638D01*
X290876Y610113D01*
X289788Y609897D01*
X277113D01*
X276024Y610113D01*
X275238Y610638D01*
X274713Y611424D01*
X274497Y612513D01*
Y617188D01*
X274713Y618276D01*
X275238Y619062D01*
X276024Y619587D01*
X277113Y619803D01*
X289788D01*
X290876Y619587D01*
D02*
G37*
G36*
X517232Y971018D02*
X556125Y932125D01*
X595018Y893232D01*
X595250Y892672D01*
Y687683D01*
Y687000D01*
X667000Y615250D01*
X673120D01*
X673526Y614237D01*
X673578Y613726D01*
X672415Y612563D01*
X671726Y610900D01*
Y609100D01*
X672415Y607437D01*
X673687Y606165D01*
X675350Y605476D01*
X677150D01*
X678813Y606165D01*
X680085Y607437D01*
X680774Y609100D01*
Y610900D01*
X680085Y612563D01*
X678922Y613726D01*
X678974Y614237D01*
X679380Y615250D01*
X711476D01*
Y615100D01*
X712165Y613437D01*
X713437Y612165D01*
X715100Y611476D01*
X716900D01*
X718563Y612165D01*
X719835Y613437D01*
X720524Y615100D01*
Y615250D01*
X779422D01*
X779654Y615154D01*
X779750Y614922D01*
Y563243D01*
X779750Y563243D01*
Y562915D01*
X779226Y561650D01*
Y559850D01*
X779750Y558585D01*
Y543027D01*
X779729Y542996D01*
X779697Y542837D01*
X779627Y542789D01*
X779458D01*
X779316Y542731D01*
X777845D01*
X776182Y542042D01*
X774909Y540770D01*
X774221Y539107D01*
Y537307D01*
X774784Y535947D01*
X775022Y534522D01*
X766982Y526482D01*
X766422Y526250D01*
X734722D01*
X734722Y526250D01*
X734393D01*
X734337Y526273D01*
X734337D01*
X734034Y526399D01*
X732234D01*
X731874Y526250D01*
X719418D01*
X719186Y526346D01*
X719090Y526578D01*
Y527402D01*
X718401Y529065D01*
X717128Y530338D01*
X715466Y531027D01*
X713666D01*
X712003Y530338D01*
X710731Y529065D01*
X710042Y527402D01*
Y526578D01*
X709946Y526346D01*
X709714Y526250D01*
X682253D01*
X681790Y526560D01*
X682313Y528415D01*
X683585Y529687D01*
X684274Y531350D01*
Y533150D01*
X683585Y534813D01*
X682313Y536085D01*
X680650Y536774D01*
X678850D01*
X677187Y536085D01*
X675915Y534813D01*
X675226Y533150D01*
Y531350D01*
X675915Y529687D01*
X677187Y528415D01*
X677710Y526560D01*
X677246Y526250D01*
X658465D01*
X658335Y526563D01*
X657063Y527835D01*
X655400Y528524D01*
X653600D01*
X651937Y527835D01*
X650665Y526563D01*
X650535Y526250D01*
X363078D01*
X362846Y526346D01*
X362750Y526578D01*
Y600817D01*
Y601500D01*
X362155Y602095D01*
X362155Y602095D01*
X362737Y603504D01*
X362737Y603504D01*
X424453Y603628D01*
X498750Y603778D01*
Y791750D01*
X430000D01*
Y790100D01*
Y748524D01*
X429600D01*
X427937Y747835D01*
X426665Y746563D01*
X425976Y744900D01*
Y743100D01*
X426665Y741437D01*
X427937Y740165D01*
X429600Y739476D01*
X430000D01*
Y729959D01*
X429979Y729927D01*
X428957Y729102D01*
X428400Y729024D01*
X426600D01*
X424937Y728335D01*
X423665Y727063D01*
X422976Y725400D01*
Y723600D01*
X423665Y721937D01*
X424937Y720665D01*
X426600Y719976D01*
X428118D01*
X428500Y719932D01*
X429394Y719546D01*
X429979Y719073D01*
X430000Y719041D01*
Y711078D01*
X429904Y710846D01*
X429672Y710750D01*
X397078D01*
X396518Y710982D01*
X392232Y715268D01*
X392136Y715500D01*
X392232Y715732D01*
X392750Y716250D01*
Y817726D01*
X392900D01*
X394563Y818415D01*
X395835Y819687D01*
X396524Y821350D01*
Y823150D01*
X395835Y824813D01*
X394563Y826085D01*
X392900Y826774D01*
X392750D01*
Y829172D01*
X392846Y829404D01*
X393078Y829500D01*
X464750D01*
X465233Y829983D01*
X465233Y829983D01*
X471000Y835750D01*
Y970922D01*
X471096Y971154D01*
X471328Y971250D01*
X516672D01*
X517232Y971018D01*
D02*
G37*
%LPC*%
G36*
X540900Y926024D02*
X539100D01*
X537437Y925335D01*
X536165Y924063D01*
X535476Y922400D01*
Y920600D01*
X536165Y918937D01*
X537437Y917665D01*
X539100Y916976D01*
X540900D01*
X542563Y917665D01*
X543835Y918937D01*
X544524Y920600D01*
Y922400D01*
X543835Y924063D01*
X542563Y925335D01*
X540900Y926024D01*
D02*
G37*
G36*
X511400Y912024D02*
X509600D01*
X507937Y911335D01*
X506665Y910063D01*
X505976Y908400D01*
Y906600D01*
X506665Y904937D01*
X507937Y903665D01*
X509600Y902976D01*
X511400D01*
X513063Y903665D01*
X514335Y904937D01*
X515024Y906600D01*
Y908400D01*
X514335Y910063D01*
X513063Y911335D01*
X511400Y912024D01*
D02*
G37*
G36*
X521650Y900274D02*
X519850D01*
X518187Y899585D01*
X516915Y898313D01*
X516226Y896650D01*
Y894850D01*
X516915Y893187D01*
X518187Y891915D01*
X519850Y891226D01*
X521650D01*
X523313Y891915D01*
X524585Y893187D01*
X525274Y894850D01*
Y896650D01*
X524585Y898313D01*
X523313Y899585D01*
X521650Y900274D01*
D02*
G37*
G36*
X498150Y879524D02*
X496350D01*
X494687Y878835D01*
X493415Y877563D01*
X492726Y875900D01*
Y874100D01*
X493415Y872437D01*
X494687Y871165D01*
X496350Y870476D01*
X498150D01*
X499813Y871165D01*
X501085Y872437D01*
X501774Y874100D01*
Y875900D01*
X501085Y877563D01*
X499813Y878835D01*
X498150Y879524D01*
D02*
G37*
G36*
X569650Y863274D02*
X567850D01*
X566187Y862585D01*
X564915Y861313D01*
X564226Y859650D01*
Y857850D01*
X564915Y856187D01*
X566187Y854915D01*
X567850Y854226D01*
X569650D01*
X571313Y854915D01*
X572585Y856187D01*
X573274Y857850D01*
Y859650D01*
X572585Y861313D01*
X571313Y862585D01*
X569650Y863274D01*
D02*
G37*
G36*
X541150Y856024D02*
X539350D01*
X537687Y855335D01*
X536415Y854063D01*
X535726Y852400D01*
Y850600D01*
X536415Y848937D01*
X537687Y847665D01*
X539350Y846976D01*
X541150D01*
X542813Y847665D01*
X544085Y848937D01*
X544774Y850600D01*
Y852400D01*
X544085Y854063D01*
X542813Y855335D01*
X541150Y856024D01*
D02*
G37*
G36*
X513650Y841024D02*
X511850D01*
X510187Y840335D01*
X508915Y839063D01*
X508226Y837400D01*
Y835600D01*
X508915Y833937D01*
X510187Y832665D01*
X511850Y831976D01*
X513650D01*
X515313Y832665D01*
X516585Y833937D01*
X517274Y835600D01*
Y837400D01*
X516585Y839063D01*
X515313Y840335D01*
X513650Y841024D01*
D02*
G37*
G36*
X565150Y833274D02*
X563350D01*
X561687Y832585D01*
X560415Y831313D01*
X559726Y829650D01*
Y827850D01*
X560415Y826187D01*
X561687Y824915D01*
X563350Y824226D01*
X565150D01*
X566813Y824915D01*
X568085Y826187D01*
X568774Y827850D01*
Y829650D01*
X568085Y831313D01*
X566813Y832585D01*
X565150Y833274D01*
D02*
G37*
G36*
X463650Y823274D02*
X461850D01*
X460187Y822585D01*
X458915Y821313D01*
X458226Y819650D01*
Y817850D01*
X458915Y816187D01*
X460187Y814915D01*
X461850Y814226D01*
X463650D01*
X465313Y814915D01*
X466585Y816187D01*
X467274Y817850D01*
Y819650D01*
X466585Y821313D01*
X465313Y822585D01*
X463650Y823274D01*
D02*
G37*
G36*
X551400Y795024D02*
X549600D01*
X547937Y794335D01*
X546665Y793063D01*
X545976Y791400D01*
Y789600D01*
X546665Y787937D01*
X547937Y786665D01*
X549600Y785976D01*
X551400D01*
X553063Y786665D01*
X554335Y787937D01*
X555024Y789600D01*
Y791400D01*
X554335Y793063D01*
X553063Y794335D01*
X551400Y795024D01*
D02*
G37*
G36*
X521400Y782524D02*
X519600D01*
X517937Y781835D01*
X516665Y780563D01*
X515976Y778900D01*
Y777100D01*
X516665Y775437D01*
X517937Y774165D01*
X519600Y773476D01*
X521400D01*
X523063Y774165D01*
X524335Y775437D01*
X525024Y777100D01*
Y778900D01*
X524335Y780563D01*
X523063Y781835D01*
X521400Y782524D01*
D02*
G37*
G36*
X410900Y594274D02*
X409100D01*
X407437Y593585D01*
X406165Y592313D01*
X405476Y590650D01*
Y588850D01*
X406165Y587187D01*
X407437Y585915D01*
X409100Y585226D01*
X410900D01*
X412563Y585915D01*
X413835Y587187D01*
X414524Y588850D01*
Y590650D01*
X413835Y592313D01*
X412563Y593585D01*
X410900Y594274D01*
D02*
G37*
G36*
X741759Y592710D02*
X739940D01*
X738260Y592014D01*
X736974Y590728D01*
X736278Y589048D01*
Y587229D01*
X736974Y585548D01*
X738260Y584262D01*
X739940Y583566D01*
X741759D01*
X743439Y584262D01*
X744726Y585548D01*
X745422Y587229D01*
Y589048D01*
X744726Y590728D01*
X743439Y592014D01*
X741759Y592710D01*
D02*
G37*
G36*
X730759D02*
X728940D01*
X727260Y592014D01*
X725974Y590728D01*
X725278Y589048D01*
Y587229D01*
X725974Y585548D01*
X727260Y584262D01*
X728940Y583566D01*
X730759D01*
X732439Y584262D01*
X733726Y585548D01*
X734422Y587229D01*
Y589048D01*
X733726Y590728D01*
X732439Y592014D01*
X730759Y592710D01*
D02*
G37*
G36*
X719759D02*
X717940D01*
X716260Y592014D01*
X714974Y590728D01*
X714278Y589048D01*
Y587229D01*
X714974Y585548D01*
X716260Y584262D01*
X717940Y583566D01*
X719759D01*
X721440Y584262D01*
X722726Y585548D01*
X723422Y587229D01*
Y589048D01*
X722726Y590728D01*
X721440Y592014D01*
X719759Y592710D01*
D02*
G37*
G36*
X773400Y582024D02*
X771600D01*
X769937Y581335D01*
X768665Y580063D01*
X768171Y578871D01*
X766848Y578424D01*
X766466Y578432D01*
X765813Y579085D01*
X764150Y579774D01*
X762350D01*
X760687Y579085D01*
X759415Y577813D01*
X758726Y576150D01*
Y574350D01*
X759415Y572687D01*
X760687Y571415D01*
X762350Y570726D01*
X764150D01*
X765813Y571415D01*
X767085Y572687D01*
X767579Y573879D01*
X768903Y574326D01*
X769285Y574318D01*
X769937Y573665D01*
X771600Y572976D01*
X773400D01*
X775063Y573665D01*
X776335Y574937D01*
X777024Y576600D01*
Y578400D01*
X776335Y580063D01*
X775063Y581335D01*
X773400Y582024D01*
D02*
G37*
G36*
X433650Y583024D02*
X431850D01*
X430187Y582335D01*
X428915Y581063D01*
X428226Y579400D01*
Y577600D01*
X428915Y575937D01*
X430187Y574665D01*
X431850Y573976D01*
X433650D01*
X435313Y574665D01*
X436585Y575937D01*
X437274Y577600D01*
Y579400D01*
X436585Y581063D01*
X435313Y582335D01*
X433650Y583024D01*
D02*
G37*
G36*
X741759Y581710D02*
X739940D01*
X738260Y581014D01*
X736974Y579728D01*
X736278Y578048D01*
Y576229D01*
X736974Y574548D01*
X738260Y573262D01*
X739940Y572566D01*
X741759D01*
X743439Y573262D01*
X744726Y574548D01*
X745422Y576229D01*
Y578048D01*
X744726Y579728D01*
X743439Y581014D01*
X741759Y581710D01*
D02*
G37*
G36*
X730759D02*
X728940D01*
X727260Y581014D01*
X725974Y579728D01*
X725278Y578048D01*
Y576229D01*
X725974Y574548D01*
X727260Y573262D01*
X728940Y572566D01*
X730759D01*
X732439Y573262D01*
X733726Y574548D01*
X734422Y576229D01*
Y578048D01*
X733726Y579728D01*
X732439Y581014D01*
X730759Y581710D01*
D02*
G37*
G36*
X719759D02*
X717940D01*
X716260Y581014D01*
X714974Y579728D01*
X714278Y578048D01*
Y576229D01*
X714974Y574548D01*
X716260Y573262D01*
X717940Y572566D01*
X719759D01*
X721440Y573262D01*
X722726Y574548D01*
X723422Y576229D01*
Y578048D01*
X722726Y579728D01*
X721440Y581014D01*
X719759Y581710D01*
D02*
G37*
G36*
X697150Y578524D02*
X695350D01*
X693687Y577835D01*
X692415Y576563D01*
X691726Y574900D01*
Y573100D01*
X692415Y571437D01*
X693687Y570165D01*
X695350Y569476D01*
X697150D01*
X698813Y570165D01*
X700085Y571437D01*
X700774Y573100D01*
Y574900D01*
X700085Y576563D01*
X698813Y577835D01*
X697150Y578524D01*
D02*
G37*
G36*
X656650Y575274D02*
X654850D01*
X653187Y574585D01*
X651915Y573313D01*
X651226Y571650D01*
Y569850D01*
X651915Y568187D01*
X653187Y566915D01*
X654850Y566226D01*
X656650D01*
X658313Y566915D01*
X659585Y568187D01*
X660274Y569850D01*
Y571650D01*
X659585Y573313D01*
X658313Y574585D01*
X656650Y575274D01*
D02*
G37*
G36*
X463650Y572274D02*
X461850D01*
X460187Y571585D01*
X458915Y570313D01*
X458226Y568650D01*
Y566850D01*
X458915Y565187D01*
X460187Y563915D01*
X461850Y563226D01*
X463650D01*
X465313Y563915D01*
X466585Y565187D01*
X467274Y566850D01*
Y568650D01*
X466585Y570313D01*
X465313Y571585D01*
X463650Y572274D01*
D02*
G37*
G36*
X773224Y570698D02*
X771424D01*
X769761Y570009D01*
X768489Y568737D01*
X767800Y567074D01*
Y565274D01*
X768489Y563611D01*
X769761Y562339D01*
X771424Y561650D01*
X773224D01*
X774887Y562339D01*
X776159Y563611D01*
X776848Y565274D01*
Y567074D01*
X776159Y568737D01*
X774887Y570009D01*
X773224Y570698D01*
D02*
G37*
G36*
X741759Y570710D02*
X739940D01*
X738260Y570014D01*
X736974Y568728D01*
X736278Y567048D01*
Y565229D01*
X736974Y563548D01*
X738260Y562262D01*
X739940Y561566D01*
X741759D01*
X743439Y562262D01*
X744726Y563548D01*
X745422Y565229D01*
Y567048D01*
X744726Y568728D01*
X743439Y570014D01*
X741759Y570710D01*
D02*
G37*
G36*
X730759D02*
X728940D01*
X727260Y570014D01*
X725974Y568728D01*
X725278Y567048D01*
Y565229D01*
X725974Y563548D01*
X727260Y562262D01*
X728940Y561566D01*
X730759D01*
X732439Y562262D01*
X733726Y563548D01*
X734422Y565229D01*
Y567048D01*
X733726Y568728D01*
X732439Y570014D01*
X730759Y570710D01*
D02*
G37*
G36*
X719759D02*
X717940D01*
X716260Y570014D01*
X714974Y568728D01*
X714278Y567048D01*
Y565229D01*
X714974Y563548D01*
X716260Y562262D01*
X717940Y561566D01*
X719759D01*
X721440Y562262D01*
X722726Y563548D01*
X723422Y565229D01*
Y567048D01*
X722726Y568728D01*
X721440Y570014D01*
X719759Y570710D01*
D02*
G37*
G36*
X668900Y553274D02*
X667100D01*
X665437Y552585D01*
X664165Y551313D01*
X663476Y549650D01*
Y547850D01*
X664165Y546187D01*
X665437Y544915D01*
X667100Y544226D01*
X668900D01*
X670563Y544915D01*
X671835Y546187D01*
X672524Y547850D01*
Y549650D01*
X671835Y551313D01*
X670563Y552585D01*
X668900Y553274D01*
D02*
G37*
G36*
X715466Y542027D02*
X713666D01*
X712003Y541338D01*
X710731Y540065D01*
X710042Y538402D01*
Y536603D01*
X710731Y534940D01*
X712003Y533667D01*
X713666Y532979D01*
X715466D01*
X717128Y533667D01*
X718401Y534940D01*
X719090Y536603D01*
Y538402D01*
X718401Y540065D01*
X717128Y541338D01*
X715466Y542027D01*
D02*
G37*
G36*
X731857Y546747D02*
X730057D01*
X728395Y546058D01*
X727122Y544785D01*
X726433Y543123D01*
Y541323D01*
X727122Y539660D01*
X728395Y538388D01*
X729668Y537860D01*
X730046Y536632D01*
X730042Y536181D01*
X729298Y535438D01*
X728610Y533775D01*
Y531975D01*
X729298Y530312D01*
X730571Y529040D01*
X732234Y528351D01*
X734034D01*
X735696Y529040D01*
X736969Y530312D01*
X737658Y531975D01*
Y533775D01*
X736969Y535438D01*
X735696Y536710D01*
X734423Y537238D01*
X734044Y538466D01*
X734049Y538917D01*
X734792Y539660D01*
X735481Y541323D01*
Y543123D01*
X734792Y544785D01*
X733520Y546058D01*
X731857Y546747D01*
D02*
G37*
%LPD*%
D13*
X669250Y627500D02*
X704000Y662250D01*
X830125D01*
D116*
Y715375D01*
Y523125D02*
Y662250D01*
X374574Y491500D02*
X798500D01*
X830125Y523125D01*
X315250Y550825D02*
X374574Y491500D01*
X315250Y550825D02*
Y562250D01*
D126*
X672900Y961750D02*
D03*
X801000D02*
D03*
D127*
X756000Y952750D02*
D03*
D128*
X717900D02*
D03*
D129*
X287250Y802000D02*
D03*
Y874000D02*
D03*
X519750Y1003000D02*
D03*
X472750D02*
D03*
D130*
X283450Y701250D02*
D03*
Y614850D02*
D03*
D131*
X325250Y701250D02*
D03*
Y614850D02*
D03*
D132*
X320250Y629150D02*
D03*
Y686950D02*
D03*
D133*
X462750Y818750D02*
D03*
X430500Y744000D02*
D03*
X497250Y875000D02*
D03*
X786000Y708750D02*
D03*
X493250Y628500D02*
D03*
X816000Y757000D02*
D03*
X765500Y652750D02*
D03*
X752882Y672882D02*
D03*
X740863Y713113D02*
D03*
X704500Y483750D02*
D03*
X900000Y960000D02*
D03*
X880000Y920000D02*
D03*
X900000Y880000D02*
D03*
Y800000D02*
D03*
X880000Y760000D02*
D03*
X900000Y720000D02*
D03*
X880000Y680000D02*
D03*
X900000Y640000D02*
D03*
X880000Y600000D02*
D03*
X900000Y560000D02*
D03*
X880000Y520000D02*
D03*
X900000Y480000D02*
D03*
X840000Y1000000D02*
D03*
X860000Y960000D02*
D03*
X840000Y920000D02*
D03*
X860000Y880000D02*
D03*
X840000Y840000D02*
D03*
X860000Y800000D02*
D03*
Y720000D02*
D03*
X840000Y680000D02*
D03*
X860000Y640000D02*
D03*
X840000Y600000D02*
D03*
X860000Y560000D02*
D03*
X840000Y520000D02*
D03*
X860000Y480000D02*
D03*
X840000Y440000D02*
D03*
X820000Y960000D02*
D03*
Y880000D02*
D03*
Y800000D02*
D03*
Y720000D02*
D03*
X800000Y680000D02*
D03*
X820000Y640000D02*
D03*
Y480000D02*
D03*
X800000Y440000D02*
D03*
X780000Y480000D02*
D03*
X760000Y440000D02*
D03*
X680000Y520000D02*
D03*
X660000Y640000D02*
D03*
Y480000D02*
D03*
X640000Y440000D02*
D03*
X600000Y1000000D02*
D03*
Y920000D02*
D03*
Y840000D02*
D03*
Y760000D02*
D03*
Y520000D02*
D03*
X620000Y480000D02*
D03*
X600000Y440000D02*
D03*
X560000Y1000000D02*
D03*
X580000Y960000D02*
D03*
X560000Y520000D02*
D03*
X580000Y480000D02*
D03*
X560000Y440000D02*
D03*
X540000Y480000D02*
D03*
X480000Y760000D02*
D03*
Y680000D02*
D03*
X440000Y920000D02*
D03*
X460000Y880000D02*
D03*
X440000Y680000D02*
D03*
X460000Y640000D02*
D03*
X440000Y520000D02*
D03*
X460000Y480000D02*
D03*
X440000Y440000D02*
D03*
X400000Y1000000D02*
D03*
X420000Y960000D02*
D03*
X400000Y920000D02*
D03*
Y840000D02*
D03*
Y680000D02*
D03*
X420000Y640000D02*
D03*
X400000Y520000D02*
D03*
Y440000D02*
D03*
X360000Y1000000D02*
D03*
X380000Y960000D02*
D03*
X360000Y920000D02*
D03*
X380000Y880000D02*
D03*
Y800000D02*
D03*
X360000Y760000D02*
D03*
X380000Y720000D02*
D03*
Y480000D02*
D03*
X360000Y440000D02*
D03*
X320000Y1000000D02*
D03*
X340000Y960000D02*
D03*
X320000Y920000D02*
D03*
X340000Y880000D02*
D03*
X320000Y840000D02*
D03*
X340000Y800000D02*
D03*
X320000Y760000D02*
D03*
X340000Y720000D02*
D03*
X320000Y520000D02*
D03*
X340000Y480000D02*
D03*
X320000Y440000D02*
D03*
X300000Y960000D02*
D03*
X280000Y920000D02*
D03*
Y840000D02*
D03*
X300000Y800000D02*
D03*
X280000Y760000D02*
D03*
X300000Y720000D02*
D03*
X280000Y680000D02*
D03*
X300000Y640000D02*
D03*
X280000Y520000D02*
D03*
X300000Y480000D02*
D03*
X492750Y423500D02*
D03*
X492500Y462750D02*
D03*
X363000Y813000D02*
D03*
X392000Y822250D02*
D03*
X434750Y892750D02*
D03*
X540000Y921500D02*
D03*
X510500Y907500D02*
D03*
X520750Y895750D02*
D03*
X512750Y836500D02*
D03*
X564250Y828750D02*
D03*
X550500Y790500D02*
D03*
X520500Y778000D02*
D03*
X797750Y719500D02*
D03*
X752500Y499750D02*
D03*
X772000Y484000D02*
D03*
X804500Y534750D02*
D03*
X782000Y624250D02*
D03*
X787599Y609197D02*
D03*
X691250Y639000D02*
D03*
X676250Y610000D02*
D03*
X586500Y498500D02*
D03*
X462750Y567750D02*
D03*
X432750Y578500D02*
D03*
X410000Y589750D02*
D03*
X423500Y628500D02*
D03*
X280250Y551000D02*
D03*
X331000Y566250D02*
D03*
X321250Y577500D02*
D03*
X778745Y538207D02*
D03*
X766000Y553000D02*
D03*
X540250Y851500D02*
D03*
X568750Y858750D02*
D03*
X337000Y543750D02*
D03*
Y552250D02*
D03*
X352750Y547750D02*
D03*
X336500Y590250D02*
D03*
X305750Y582000D02*
D03*
X280750Y542000D02*
D03*
X660001Y464001D02*
D03*
X704001Y456001D02*
D03*
X648001Y424001D02*
D03*
Y456001D02*
D03*
X652001Y432001D02*
D03*
X700001Y464001D02*
D03*
X692001D02*
D03*
X652001D02*
D03*
X668001D02*
D03*
X648001Y440000D02*
D03*
X652001Y448000D02*
D03*
X676001Y464001D02*
D03*
X684001D02*
D03*
X305500Y537000D02*
D03*
X655750Y570750D02*
D03*
X668000Y548750D02*
D03*
X488000Y644750D02*
D03*
X679750Y532250D02*
D03*
X703750Y627500D02*
D03*
X732750Y653000D02*
D03*
X767250Y624250D02*
D03*
X816500Y551250D02*
D03*
X812000Y518750D02*
D03*
X514500Y886000D02*
D03*
X780000Y960001D02*
D03*
Y940001D02*
D03*
Y920001D02*
D03*
Y900001D02*
D03*
Y880001D02*
D03*
Y860001D02*
D03*
Y840001D02*
D03*
Y820000D02*
D03*
Y800000D02*
D03*
Y780000D02*
D03*
X775000Y970001D02*
D03*
X770000Y960001D02*
D03*
X775000Y950001D02*
D03*
X770000Y940001D02*
D03*
X775000Y930001D02*
D03*
X770000Y920001D02*
D03*
X775000Y910001D02*
D03*
X770000Y900001D02*
D03*
X775000Y890001D02*
D03*
X770000Y880001D02*
D03*
X775000Y870001D02*
D03*
X770000Y860001D02*
D03*
X775000Y850001D02*
D03*
X770000Y840001D02*
D03*
X775000Y830000D02*
D03*
X770000Y820000D02*
D03*
X775000Y810000D02*
D03*
X770000Y800000D02*
D03*
X775000Y790000D02*
D03*
X770000Y780000D02*
D03*
X765000Y970001D02*
D03*
Y930001D02*
D03*
X760000Y840001D02*
D03*
X765000Y830000D02*
D03*
X760000Y820000D02*
D03*
X765000Y810000D02*
D03*
X760000Y800000D02*
D03*
X755000Y970001D02*
D03*
Y930001D02*
D03*
X750000Y840001D02*
D03*
X755000Y830000D02*
D03*
X750000Y820000D02*
D03*
X755000Y810000D02*
D03*
X750000Y800000D02*
D03*
X725000Y970001D02*
D03*
X715000D02*
D03*
X705000D02*
D03*
X700000Y960001D02*
D03*
X695000Y970001D02*
D03*
X690000Y960001D02*
D03*
X695000Y950001D02*
D03*
X690000Y820000D02*
D03*
X695000Y810000D02*
D03*
X690000Y800000D02*
D03*
X685000Y950001D02*
D03*
X680000Y820000D02*
D03*
X685000Y810000D02*
D03*
X680000Y800000D02*
D03*
X670000Y940001D02*
D03*
X675000Y930001D02*
D03*
X670000Y920001D02*
D03*
X675000Y910001D02*
D03*
X670000Y900001D02*
D03*
X675000Y890001D02*
D03*
Y850001D02*
D03*
X670000Y840001D02*
D03*
X675000Y830000D02*
D03*
X670000Y820000D02*
D03*
X675000Y810000D02*
D03*
X670000Y800000D02*
D03*
Y780000D02*
D03*
X660000Y940001D02*
D03*
X665000Y930001D02*
D03*
X660000Y920001D02*
D03*
X665000Y910001D02*
D03*
X660000Y900001D02*
D03*
X665000Y890001D02*
D03*
X660000Y840001D02*
D03*
X665000Y830000D02*
D03*
X660000Y820000D02*
D03*
X665000Y810000D02*
D03*
X660000Y800000D02*
D03*
X665000Y790000D02*
D03*
X660000Y780000D02*
D03*
X655000Y970001D02*
D03*
X650000Y960001D02*
D03*
X655000Y950001D02*
D03*
X650000Y940001D02*
D03*
X655000Y930001D02*
D03*
X650000Y920001D02*
D03*
X655000Y910001D02*
D03*
X650000Y900001D02*
D03*
X655000Y890001D02*
D03*
X650000Y880001D02*
D03*
X655000Y870001D02*
D03*
X650000Y860001D02*
D03*
X655000Y850001D02*
D03*
X650000Y840001D02*
D03*
X655000Y830000D02*
D03*
X650000Y820000D02*
D03*
X655000Y810000D02*
D03*
X650000Y800000D02*
D03*
X655000Y790000D02*
D03*
X650000Y780000D02*
D03*
X538750Y567000D02*
D03*
X765250Y598000D02*
D03*
X669250Y627500D02*
D03*
X579500Y547500D02*
D03*
X408500Y551750D02*
D03*
X512000Y641250D02*
D03*
X528500Y610250D02*
D03*
X521750Y936250D02*
D03*
Y949000D02*
D03*
X551250Y923500D02*
D03*
X571250Y907500D02*
D03*
X559250Y877750D02*
D03*
X585000Y840750D02*
D03*
X400250Y801000D02*
D03*
X401750Y763750D02*
D03*
X734000Y485000D02*
D03*
X713750Y498750D02*
D03*
X792750Y551000D02*
D03*
X763250Y575250D02*
D03*
X714000Y507250D02*
D03*
X772324Y566174D02*
D03*
X733134Y521875D02*
D03*
X772500Y577500D02*
D03*
X733134Y532875D02*
D03*
X714566Y537503D02*
D03*
X500500Y512250D02*
D03*
X517750Y519263D02*
D03*
X474750D02*
D03*
X724250Y638094D02*
D03*
X700750Y610500D02*
D03*
X716000Y616000D02*
D03*
X687500Y571250D02*
D03*
X654500Y524000D02*
D03*
X696250Y574000D02*
D03*
X427500Y724500D02*
D03*
X468500Y736500D02*
D03*
X280500Y576250D02*
D03*
X285750Y583250D02*
D03*
X290500Y591250D02*
D03*
X280750D02*
D03*
X344500Y625000D02*
D03*
X343500Y690500D02*
D03*
X314750Y639000D02*
D03*
Y675250D02*
D03*
X365000Y676250D02*
D03*
X356250Y649750D02*
D03*
X381250Y568000D02*
D03*
X371000D02*
D03*
X381000Y578500D02*
D03*
X371500D02*
D03*
X381000Y587750D02*
D03*
X371500D02*
D03*
X315250Y562250D02*
D03*
X783750Y560750D02*
D03*
X830125Y715375D02*
D03*
X388250Y660000D02*
D03*
X439750Y736250D02*
D03*
X715501Y460533D02*
D03*
X712985Y449824D02*
D03*
X705067Y442189D02*
D03*
X730957Y542223D02*
D03*
X714566Y526503D02*
D03*
X714728Y471506D02*
D03*
X708002Y423522D02*
D03*
X717986Y428140D02*
D03*
X726021Y435652D02*
D03*
X731302Y445302D02*
D03*
X733297Y456119D02*
D03*
X732250Y465750D02*
D03*
X734000Y476500D02*
D03*
X732010Y499923D02*
D03*
X733034Y510876D02*
D03*
D134*
X718850Y566138D02*
D03*
Y577138D02*
D03*
Y588138D02*
D03*
X729850Y566138D02*
D03*
Y577138D02*
D03*
Y588138D02*
D03*
X740850Y566138D02*
D03*
Y577138D02*
D03*
Y588138D02*
D03*
D135*
X870914Y832041D02*
D03*
Y785051D02*
D03*
X755852D02*
D03*
X685748D02*
D03*
M02*
