G04*
G04 #@! TF.GenerationSoftware,Altium Limited,Altium Designer,24.4.1 (13)*
G04*
G04 Layer_Color=128*
%FSLAX44Y44*%
%MOMM*%
G71*
G04*
G04 #@! TF.SameCoordinates,92E24F71-BE29-44F9-BD6D-AE99B804E02A*
G04*
G04*
G04 #@! TF.FilePolarity,Positive*
G04*
G01*
G75*
%ADD10C,0.1270*%
D10*
X711900Y952750D02*
X723900D01*
X717900Y946750D02*
Y958750D01*
X750000Y952750D02*
X762000D01*
X756000Y946750D02*
Y958750D01*
X789000Y961750D02*
X813000D01*
X801000Y949750D02*
Y973750D01*
X660900Y961750D02*
X684900D01*
X672900Y949750D02*
Y973750D01*
X281750Y874000D02*
X292750D01*
X287250Y868500D02*
Y879500D01*
X281750Y802000D02*
X292750D01*
X287250Y796500D02*
Y807500D01*
X467250Y1003000D02*
X478250D01*
X472750Y997500D02*
Y1008500D01*
X514250Y1003000D02*
X525250D01*
X519750Y997500D02*
Y1008500D01*
X280450Y701250D02*
X286450D01*
X283450Y698250D02*
Y704250D01*
X280450Y614850D02*
X286450D01*
X283450Y611850D02*
Y617850D01*
X322250Y701250D02*
X328250D01*
X325250Y698250D02*
Y704250D01*
X322250Y614850D02*
X328250D01*
X325250Y611850D02*
Y617850D01*
X317000Y629150D02*
X323500D01*
X320250Y625900D02*
Y632400D01*
X317000Y686950D02*
X323500D01*
X320250Y683700D02*
Y690200D01*
X680541Y785051D02*
X690955D01*
X685748Y779844D02*
Y790258D01*
X750645Y785051D02*
X761059D01*
X755852Y779844D02*
Y790258D01*
X865707Y785051D02*
X876121D01*
X870914Y779844D02*
Y790258D01*
X865707Y832041D02*
X876121D01*
X870914Y826834D02*
Y837248D01*
X855500Y995250D02*
X890500D01*
X873000Y977750D02*
Y1012750D01*
X855500Y453500D02*
X890500D01*
X873000Y436000D02*
Y471000D01*
X276750Y453500D02*
X311750D01*
X294250Y436000D02*
Y471000D01*
X276750Y995250D02*
X311750D01*
X294250Y977750D02*
Y1012750D01*
X739326Y588138D02*
X742374D01*
X740850Y586614D02*
Y589662D01*
X739326Y577138D02*
X742374D01*
X740850Y575614D02*
Y578662D01*
X739326Y566138D02*
X742374D01*
X740850Y564614D02*
Y567662D01*
X728326Y588138D02*
X731374D01*
X729850Y586614D02*
Y589662D01*
X728326Y577138D02*
X731374D01*
X729850Y575614D02*
Y578662D01*
X728326Y566138D02*
X731374D01*
X729850Y564614D02*
Y567662D01*
X717326Y588138D02*
X720374D01*
X718850Y586614D02*
Y589662D01*
X717326Y577138D02*
X720374D01*
X718850Y575614D02*
Y578662D01*
X717326Y566138D02*
X720374D01*
X718850Y564614D02*
Y567662D01*
X335000Y590250D02*
X338000D01*
X336500Y588750D02*
Y591750D01*
X307000Y586250D02*
X310000D01*
X308500Y584750D02*
Y587750D01*
X279250Y542000D02*
X282250D01*
X280750Y540500D02*
Y543500D01*
X658501Y464001D02*
X661501D01*
X660001Y462500D02*
Y465500D01*
X702501Y456001D02*
X705501D01*
X704001Y454501D02*
Y457500D01*
X646501Y424001D02*
X649501D01*
X648001Y422500D02*
Y425500D01*
X646501Y456001D02*
X649501D01*
X648001Y454501D02*
Y457500D01*
X650501Y432001D02*
X653501D01*
X652001Y430500D02*
Y433501D01*
X698501Y464001D02*
X701501D01*
X700001Y462500D02*
Y465500D01*
X690501Y464001D02*
X693501D01*
X692001Y462500D02*
Y465500D01*
X650501Y464001D02*
X653501D01*
X652001Y462500D02*
Y465500D01*
X666501Y464001D02*
X669501D01*
X668001Y462500D02*
Y465500D01*
X646501Y440000D02*
X649501D01*
X648001Y438501D02*
Y441501D01*
X650501Y448000D02*
X653501D01*
X652001Y446501D02*
Y449501D01*
X674501Y464001D02*
X677501D01*
X676001Y462500D02*
Y465500D01*
X682501Y464001D02*
X685501D01*
X684001Y462500D02*
Y465500D01*
X304000Y537000D02*
X307000D01*
X305500Y535500D02*
Y538500D01*
X898500Y960000D02*
X901500D01*
X900000Y958500D02*
Y961500D01*
X878500Y920000D02*
X881500D01*
X880000Y918500D02*
Y921500D01*
X898500Y880000D02*
X901500D01*
X900000Y878500D02*
Y881500D01*
X898500Y800000D02*
X901500D01*
X900000Y798500D02*
Y801500D01*
X878500Y760000D02*
X881500D01*
X880000Y758500D02*
Y761500D01*
X898500Y720000D02*
X901500D01*
X900000Y718500D02*
Y721500D01*
X878500Y680000D02*
X881500D01*
X880000Y678500D02*
Y681500D01*
X898500Y640000D02*
X901500D01*
X900000Y638500D02*
Y641500D01*
X878500Y600000D02*
X881500D01*
X880000Y598500D02*
Y601500D01*
X898500Y560000D02*
X901500D01*
X900000Y558500D02*
Y561500D01*
X878500Y520000D02*
X881500D01*
X880000Y518500D02*
Y521500D01*
X898500Y480000D02*
X901500D01*
X900000Y478500D02*
Y481500D01*
X838500Y1000000D02*
X841500D01*
X840000Y998500D02*
Y1001500D01*
X858500Y960000D02*
X861500D01*
X860000Y958500D02*
Y961500D01*
X838500Y920000D02*
X841500D01*
X840000Y918500D02*
Y921500D01*
X858500Y880000D02*
X861500D01*
X860000Y878500D02*
Y881500D01*
X838500Y840000D02*
X841500D01*
X840000Y838500D02*
Y841500D01*
X858500Y800000D02*
X861500D01*
X860000Y798500D02*
Y801500D01*
X858500Y720000D02*
X861500D01*
X860000Y718500D02*
Y721500D01*
X838500Y680000D02*
X841500D01*
X840000Y678500D02*
Y681500D01*
X858500Y640000D02*
X861500D01*
X860000Y638500D02*
Y641500D01*
X838500Y600000D02*
X841500D01*
X840000Y598500D02*
Y601500D01*
X858500Y560000D02*
X861500D01*
X860000Y558500D02*
Y561500D01*
X838500Y520000D02*
X841500D01*
X840000Y518500D02*
Y521500D01*
X858500Y480000D02*
X861500D01*
X860000Y478500D02*
Y481500D01*
X838500Y440000D02*
X841500D01*
X840000Y438500D02*
Y441500D01*
X818500Y960000D02*
X821500D01*
X820000Y958500D02*
Y961500D01*
X818500Y880000D02*
X821500D01*
X820000Y878500D02*
Y881500D01*
X818500Y800000D02*
X821500D01*
X820000Y798500D02*
Y801500D01*
X818500Y720000D02*
X821500D01*
X820000Y718500D02*
Y721500D01*
X798500Y680000D02*
X801500D01*
X800000Y678500D02*
Y681500D01*
X818500Y640000D02*
X821500D01*
X820000Y638500D02*
Y641500D01*
X818500Y480000D02*
X821500D01*
X820000Y478500D02*
Y481500D01*
X798500Y440000D02*
X801500D01*
X800000Y438500D02*
Y441500D01*
X758500Y680000D02*
X761500D01*
X760000Y678500D02*
Y681500D01*
X778500Y480000D02*
X781500D01*
X780000Y478500D02*
Y481500D01*
X758500Y440000D02*
X761500D01*
X760000Y438500D02*
Y441500D01*
X678500Y520000D02*
X681500D01*
X680000Y518500D02*
Y521500D01*
X698500Y480000D02*
X701500D01*
X700000Y478500D02*
Y481500D01*
X658500Y640000D02*
X661500D01*
X660000Y638500D02*
Y641500D01*
X658500Y480000D02*
X661500D01*
X660000Y478500D02*
Y481500D01*
X638500Y440000D02*
X641500D01*
X640000Y438500D02*
Y441500D01*
X598500Y1000000D02*
X601500D01*
X600000Y998500D02*
Y1001500D01*
X598500Y920000D02*
X601500D01*
X600000Y918500D02*
Y921500D01*
X598500Y840000D02*
X601500D01*
X600000Y838500D02*
Y841500D01*
X598500Y760000D02*
X601500D01*
X600000Y758500D02*
Y761500D01*
X598500Y520000D02*
X601500D01*
X600000Y518500D02*
Y521500D01*
X618500Y480000D02*
X621500D01*
X620000Y478500D02*
Y481500D01*
X598500Y440000D02*
X601500D01*
X600000Y438500D02*
Y441500D01*
X558500Y1000000D02*
X561500D01*
X560000Y998500D02*
Y1001500D01*
X578500Y960000D02*
X581500D01*
X580000Y958500D02*
Y961500D01*
X558500Y520000D02*
X561500D01*
X560000Y518500D02*
Y521500D01*
X578500Y480000D02*
X581500D01*
X580000Y478500D02*
Y481500D01*
X558500Y440000D02*
X561500D01*
X560000Y438500D02*
Y441500D01*
X538500Y480000D02*
X541500D01*
X540000Y478500D02*
Y481500D01*
X478500Y760000D02*
X481500D01*
X480000Y758500D02*
Y761500D01*
X478500Y680000D02*
X481500D01*
X480000Y678500D02*
Y681500D01*
X438500Y920000D02*
X441500D01*
X440000Y918500D02*
Y921500D01*
X458500Y880000D02*
X461500D01*
X460000Y878500D02*
Y881500D01*
X438500Y680000D02*
X441500D01*
X440000Y678500D02*
Y681500D01*
X458500Y640000D02*
X461500D01*
X460000Y638500D02*
Y641500D01*
X438500Y520000D02*
X441500D01*
X440000Y518500D02*
Y521500D01*
X458500Y480000D02*
X461500D01*
X460000Y478500D02*
Y481500D01*
X438500Y440000D02*
X441500D01*
X440000Y438500D02*
Y441500D01*
X398500Y1000000D02*
X401500D01*
X400000Y998500D02*
Y1001500D01*
X418500Y960000D02*
X421500D01*
X420000Y958500D02*
Y961500D01*
X398500Y920000D02*
X401500D01*
X400000Y918500D02*
Y921500D01*
X398500Y840000D02*
X401500D01*
X400000Y838500D02*
Y841500D01*
X398500Y680000D02*
X401500D01*
X400000Y678500D02*
Y681500D01*
X418500Y640000D02*
X421500D01*
X420000Y638500D02*
Y641500D01*
X398500Y520000D02*
X401500D01*
X400000Y518500D02*
Y521500D01*
X398500Y440000D02*
X401500D01*
X400000Y438500D02*
Y441500D01*
X358500Y1000000D02*
X361500D01*
X360000Y998500D02*
Y1001500D01*
X378500Y960000D02*
X381500D01*
X380000Y958500D02*
Y961500D01*
X358500Y920000D02*
X361500D01*
X360000Y918500D02*
Y921500D01*
X378500Y880000D02*
X381500D01*
X380000Y878500D02*
Y881500D01*
X378500Y800000D02*
X381500D01*
X380000Y798500D02*
Y801500D01*
X358500Y760000D02*
X361500D01*
X360000Y758500D02*
Y761500D01*
X378500Y720000D02*
X381500D01*
X380000Y718500D02*
Y721500D01*
X378500Y480000D02*
X381500D01*
X380000Y478500D02*
Y481500D01*
X358500Y440000D02*
X361500D01*
X360000Y438500D02*
Y441500D01*
X318500Y1000000D02*
X321500D01*
X320000Y998500D02*
Y1001500D01*
X338500Y960000D02*
X341500D01*
X340000Y958500D02*
Y961500D01*
X318500Y920000D02*
X321500D01*
X320000Y918500D02*
Y921500D01*
X338500Y880000D02*
X341500D01*
X340000Y878500D02*
Y881500D01*
X318500Y840000D02*
X321500D01*
X320000Y838500D02*
Y841500D01*
X338500Y800000D02*
X341500D01*
X340000Y798500D02*
Y801500D01*
X318500Y760000D02*
X321500D01*
X320000Y758500D02*
Y761500D01*
X338500Y720000D02*
X341500D01*
X340000Y718500D02*
Y721500D01*
X318500Y520000D02*
X321500D01*
X320000Y518500D02*
Y521500D01*
X338500Y480000D02*
X341500D01*
X340000Y478500D02*
Y481500D01*
X318500Y440000D02*
X321500D01*
X320000Y438500D02*
Y441500D01*
X298500Y960000D02*
X301500D01*
X300000Y958500D02*
Y961500D01*
X278500Y920000D02*
X281500D01*
X280000Y918500D02*
Y921500D01*
X278500Y840000D02*
X281500D01*
X280000Y838500D02*
Y841500D01*
X298500Y800000D02*
X301500D01*
X300000Y798500D02*
Y801500D01*
X278500Y760000D02*
X281500D01*
X280000Y758500D02*
Y761500D01*
X298500Y720000D02*
X301500D01*
X300000Y718500D02*
Y721500D01*
X278500Y680000D02*
X281500D01*
X280000Y678500D02*
Y681500D01*
X298500Y640000D02*
X301500D01*
X300000Y638500D02*
Y641500D01*
X278500Y520000D02*
X281500D01*
X280000Y518500D02*
Y521500D01*
X298500Y480000D02*
X301500D01*
X300000Y478500D02*
Y481500D01*
X654250Y570750D02*
X657250D01*
X655750Y569250D02*
Y572250D01*
X666500Y548750D02*
X669500D01*
X668000Y547250D02*
Y550250D01*
X486500Y644750D02*
X489500D01*
X488000Y643250D02*
Y646250D01*
X678250Y532250D02*
X681250D01*
X679750Y530750D02*
Y533750D01*
X702250Y627500D02*
X705250D01*
X703750Y626000D02*
Y629000D01*
X731250Y653000D02*
X734250D01*
X732750Y651500D02*
Y654500D01*
X765750Y624250D02*
X768750D01*
X767250Y622750D02*
Y625750D01*
X815000Y551250D02*
X818000D01*
X816500Y549750D02*
Y552750D01*
X810500Y518750D02*
X813500D01*
X812000Y517250D02*
Y520250D01*
X513000Y886000D02*
X516000D01*
X514500Y884500D02*
Y887500D01*
X778500Y960001D02*
X781500D01*
X780000Y958501D02*
Y961500D01*
X778500Y940001D02*
X781500D01*
X780000Y938501D02*
Y941500D01*
X778500Y920001D02*
X781500D01*
X780000Y918501D02*
Y921500D01*
X778500Y900001D02*
X781500D01*
X780000Y898501D02*
Y901500D01*
X778500Y880001D02*
X781500D01*
X780000Y878501D02*
Y881500D01*
X778500Y860001D02*
X781500D01*
X780000Y858501D02*
Y861500D01*
X778500Y840001D02*
X781500D01*
X780000Y838501D02*
Y841500D01*
X778500Y820000D02*
X781500D01*
X780000Y818500D02*
Y821500D01*
X778500Y800000D02*
X781500D01*
X780000Y798500D02*
Y801500D01*
X778500Y780000D02*
X781500D01*
X780000Y778500D02*
Y781500D01*
X773500Y970001D02*
X776500D01*
X775000Y968501D02*
Y971500D01*
X768500Y960001D02*
X771500D01*
X770000Y958501D02*
Y961500D01*
X773500Y950001D02*
X776500D01*
X775000Y948501D02*
Y951500D01*
X768500Y940001D02*
X771500D01*
X770000Y938501D02*
Y941500D01*
X773500Y930001D02*
X776500D01*
X775000Y928501D02*
Y931500D01*
X768500Y920001D02*
X771500D01*
X770000Y918501D02*
Y921500D01*
X773500Y910001D02*
X776500D01*
X775000Y908501D02*
Y911500D01*
X768500Y900001D02*
X771500D01*
X770000Y898501D02*
Y901500D01*
X773500Y890001D02*
X776500D01*
X775000Y888501D02*
Y891500D01*
X768500Y880001D02*
X771500D01*
X770000Y878501D02*
Y881500D01*
X773500Y870001D02*
X776500D01*
X775000Y868501D02*
Y871500D01*
X768500Y860001D02*
X771500D01*
X770000Y858501D02*
Y861500D01*
X773500Y850001D02*
X776500D01*
X775000Y848501D02*
Y851500D01*
X768500Y840001D02*
X771500D01*
X770000Y838501D02*
Y841500D01*
X773500Y830000D02*
X776500D01*
X775000Y828501D02*
Y831500D01*
X768500Y820000D02*
X771500D01*
X770000Y818500D02*
Y821500D01*
X773500Y810000D02*
X776500D01*
X775000Y808500D02*
Y811500D01*
X768500Y800000D02*
X771500D01*
X770000Y798500D02*
Y801500D01*
X773500Y790000D02*
X776500D01*
X775000Y788500D02*
Y791500D01*
X768500Y780000D02*
X771500D01*
X770000Y778500D02*
Y781500D01*
X763500Y970001D02*
X766500D01*
X765000Y968501D02*
Y971500D01*
X763500Y930001D02*
X766500D01*
X765000Y928501D02*
Y931500D01*
X758500Y840001D02*
X761500D01*
X760000Y838501D02*
Y841500D01*
X763500Y830000D02*
X766500D01*
X765000Y828501D02*
Y831500D01*
X758500Y820000D02*
X761500D01*
X760000Y818500D02*
Y821500D01*
X763500Y810000D02*
X766500D01*
X765000Y808500D02*
Y811500D01*
X758500Y800000D02*
X761500D01*
X760000Y798500D02*
Y801500D01*
X753500Y970001D02*
X756500D01*
X755000Y968501D02*
Y971500D01*
X753500Y930001D02*
X756500D01*
X755000Y928501D02*
Y931500D01*
X748500Y840001D02*
X751500D01*
X750000Y838501D02*
Y841500D01*
X753500Y830000D02*
X756500D01*
X755000Y828501D02*
Y831500D01*
X748500Y820000D02*
X751500D01*
X750000Y818500D02*
Y821500D01*
X753500Y810000D02*
X756500D01*
X755000Y808500D02*
Y811500D01*
X748500Y800000D02*
X751500D01*
X750000Y798500D02*
Y801500D01*
X723500Y970001D02*
X726500D01*
X725000Y968501D02*
Y971500D01*
X713500Y970001D02*
X716500D01*
X715000Y968501D02*
Y971500D01*
X703500Y970001D02*
X706500D01*
X705000Y968501D02*
Y971500D01*
X698500Y960001D02*
X701500D01*
X700000Y958501D02*
Y961500D01*
X693500Y970001D02*
X696500D01*
X695000Y968501D02*
Y971500D01*
X688500Y960001D02*
X691500D01*
X690000Y958501D02*
Y961500D01*
X693500Y950001D02*
X696500D01*
X695000Y948501D02*
Y951500D01*
X688500Y820000D02*
X691500D01*
X690000Y818500D02*
Y821500D01*
X693500Y810000D02*
X696500D01*
X695000Y808500D02*
Y811500D01*
X688500Y800000D02*
X691500D01*
X690000Y798500D02*
Y801500D01*
X683500Y950001D02*
X686500D01*
X685000Y948501D02*
Y951500D01*
X678500Y820000D02*
X681500D01*
X680000Y818500D02*
Y821500D01*
X683500Y810000D02*
X686500D01*
X685000Y808500D02*
Y811500D01*
X678500Y800000D02*
X681500D01*
X680000Y798500D02*
Y801500D01*
X668500Y940001D02*
X671500D01*
X670000Y938501D02*
Y941500D01*
X673500Y930001D02*
X676500D01*
X675000Y928501D02*
Y931500D01*
X668500Y920001D02*
X671500D01*
X670000Y918501D02*
Y921500D01*
X673500Y910001D02*
X676500D01*
X675000Y908501D02*
Y911500D01*
X668500Y900001D02*
X671500D01*
X670000Y898501D02*
Y901500D01*
X673500Y890001D02*
X676500D01*
X675000Y888501D02*
Y891500D01*
X673500Y850001D02*
X676500D01*
X675000Y848501D02*
Y851500D01*
X668500Y840001D02*
X671500D01*
X670000Y838501D02*
Y841500D01*
X673500Y830000D02*
X676500D01*
X675000Y828501D02*
Y831500D01*
X668500Y820000D02*
X671500D01*
X670000Y818500D02*
Y821500D01*
X673500Y810000D02*
X676500D01*
X675000Y808500D02*
Y811500D01*
X668500Y800000D02*
X671500D01*
X670000Y798500D02*
Y801500D01*
X668500Y780000D02*
X671500D01*
X670000Y778500D02*
Y781500D01*
X658500Y940001D02*
X661500D01*
X660000Y938501D02*
Y941500D01*
X663500Y930001D02*
X666500D01*
X665000Y928501D02*
Y931500D01*
X658500Y920001D02*
X661500D01*
X660000Y918501D02*
Y921500D01*
X663500Y910001D02*
X666500D01*
X665000Y908501D02*
Y911500D01*
X658500Y900001D02*
X661500D01*
X660000Y898501D02*
Y901500D01*
X663500Y890001D02*
X666500D01*
X665000Y888501D02*
Y891500D01*
X658500Y840001D02*
X661500D01*
X660000Y838501D02*
Y841500D01*
X663500Y830000D02*
X666500D01*
X665000Y828501D02*
Y831500D01*
X658500Y820000D02*
X661500D01*
X660000Y818500D02*
Y821500D01*
X663500Y810000D02*
X666500D01*
X665000Y808500D02*
Y811500D01*
X658500Y800000D02*
X661500D01*
X660000Y798500D02*
Y801500D01*
X663500Y790000D02*
X666500D01*
X665000Y788500D02*
Y791500D01*
X658500Y780000D02*
X661500D01*
X660000Y778500D02*
Y781500D01*
X653500Y970001D02*
X656500D01*
X655000Y968501D02*
Y971500D01*
X648500Y960001D02*
X651500D01*
X650000Y958501D02*
Y961500D01*
X653500Y950001D02*
X656500D01*
X655000Y948501D02*
Y951500D01*
X648500Y940001D02*
X651500D01*
X650000Y938501D02*
Y941500D01*
X653500Y930001D02*
X656500D01*
X655000Y928501D02*
Y931500D01*
X648500Y920001D02*
X651500D01*
X650000Y918501D02*
Y921500D01*
X653500Y910001D02*
X656500D01*
X655000Y908501D02*
Y911500D01*
X648500Y900001D02*
X651500D01*
X650000Y898501D02*
Y901500D01*
X653500Y890001D02*
X656500D01*
X655000Y888501D02*
Y891500D01*
X648500Y880001D02*
X651500D01*
X650000Y878501D02*
Y881500D01*
X653500Y870001D02*
X656500D01*
X655000Y868501D02*
Y871500D01*
X648500Y860001D02*
X651500D01*
X650000Y858501D02*
Y861500D01*
X653500Y850001D02*
X656500D01*
X655000Y848501D02*
Y851500D01*
X648500Y840001D02*
X651500D01*
X650000Y838501D02*
Y841500D01*
X653500Y830000D02*
X656500D01*
X655000Y828501D02*
Y831500D01*
X648500Y820000D02*
X651500D01*
X650000Y818500D02*
Y821500D01*
X653500Y810000D02*
X656500D01*
X655000Y808500D02*
Y811500D01*
X648500Y800000D02*
X651500D01*
X650000Y798500D02*
Y801500D01*
X653500Y790000D02*
X656500D01*
X655000Y788500D02*
Y791500D01*
X648500Y780000D02*
X651500D01*
X650000Y778500D02*
Y781500D01*
X537250Y567000D02*
X540250D01*
X538750Y565500D02*
Y568500D01*
X763750Y598000D02*
X766750D01*
X765250Y596500D02*
Y599500D01*
X667750Y627500D02*
X670750D01*
X669250Y626000D02*
Y629000D01*
X578000Y547500D02*
X581000D01*
X579500Y546000D02*
Y549000D01*
X407000Y551750D02*
X410000D01*
X408500Y550250D02*
Y553250D01*
X510500Y641250D02*
X513500D01*
X512000Y639750D02*
Y642750D01*
X527000Y610250D02*
X530000D01*
X528500Y608750D02*
Y611750D01*
X520250Y936250D02*
X523250D01*
X521750Y934750D02*
Y937750D01*
X520250Y949000D02*
X523250D01*
X521750Y947500D02*
Y950500D01*
X549750Y923500D02*
X552750D01*
X551250Y922000D02*
Y925000D01*
X569750Y907500D02*
X572750D01*
X571250Y906000D02*
Y909000D01*
X557750Y877750D02*
X560750D01*
X559250Y876250D02*
Y879250D01*
X583500Y840750D02*
X586500D01*
X585000Y839250D02*
Y842250D01*
X398750Y801000D02*
X401750D01*
X400250Y799500D02*
Y802500D01*
Y763750D02*
X403250D01*
X401750Y762250D02*
Y765250D01*
X732500Y485000D02*
X735500D01*
X734000Y483500D02*
Y486500D01*
X712250Y498750D02*
X715250D01*
X713750Y497250D02*
Y500250D01*
X791250Y551000D02*
X794250D01*
X792750Y549500D02*
Y552500D01*
X764500Y553000D02*
X767500D01*
X766000Y551500D02*
Y554500D01*
X761750Y575250D02*
X764750D01*
X763250Y573750D02*
Y576750D01*
X712500Y507250D02*
X715500D01*
X714000Y505750D02*
Y508750D01*
X770824Y566174D02*
X773824D01*
X772324Y564674D02*
Y567674D01*
X731634Y521875D02*
X734634D01*
X733134Y520375D02*
Y523375D01*
X771000Y577500D02*
X774000D01*
X772500Y576000D02*
Y579000D01*
X731634Y532875D02*
X734634D01*
X733134Y531375D02*
Y534375D01*
X713066Y537503D02*
X716066D01*
X714566Y536003D02*
Y539003D01*
X499000Y512250D02*
X502000D01*
X500500Y510750D02*
Y513750D01*
X516250Y519263D02*
X519250D01*
X517750Y517763D02*
Y520763D01*
X473250Y519263D02*
X476250D01*
X474750Y517763D02*
Y520763D01*
X722750Y638094D02*
X725750D01*
X724250Y636594D02*
Y639594D01*
X699250Y610500D02*
X702250D01*
X700750Y609000D02*
Y612000D01*
X714500Y616000D02*
X717500D01*
X716000Y614500D02*
Y617500D01*
X686000Y571250D02*
X689000D01*
X687500Y569750D02*
Y572750D01*
X653000Y524000D02*
X656000D01*
X654500Y522500D02*
Y525500D01*
X694750Y574000D02*
X697750D01*
X696250Y572500D02*
Y575500D01*
X426000Y724500D02*
X429000D01*
X427500Y723000D02*
Y726000D01*
X467000Y736500D02*
X470000D01*
X468500Y735000D02*
Y738000D01*
X279000Y576250D02*
X282000D01*
X280500Y574750D02*
Y577750D01*
X284250Y583250D02*
X287250D01*
X285750Y581750D02*
Y584750D01*
X289000Y591250D02*
X292000D01*
X290500Y589750D02*
Y592750D01*
X279250Y591250D02*
X282250D01*
X280750Y589750D02*
Y592750D01*
X343000Y625000D02*
X346000D01*
X344500Y623500D02*
Y626500D01*
X342000Y690500D02*
X345000D01*
X343500Y689000D02*
Y692000D01*
X313250Y639000D02*
X316250D01*
X314750Y637500D02*
Y640500D01*
X313250Y675250D02*
X316250D01*
X314750Y673750D02*
Y676750D01*
X363500Y676250D02*
X366500D01*
X365000Y674750D02*
Y677750D01*
X354750Y649750D02*
X357750D01*
X356250Y648250D02*
Y651250D01*
X379750Y568000D02*
X382750D01*
X381250Y566500D02*
Y569500D01*
X369500Y568000D02*
X372500D01*
X371000Y566500D02*
Y569500D01*
X379500Y578500D02*
X382500D01*
X381000Y577000D02*
Y580000D01*
X370000Y578500D02*
X373000D01*
X371500Y577000D02*
Y580000D01*
X379500Y587750D02*
X382500D01*
X381000Y586250D02*
Y589250D01*
X370000Y587750D02*
X373000D01*
X371500Y586250D02*
Y589250D01*
X313750Y562250D02*
X316750D01*
X315250Y560750D02*
Y563750D01*
X782250Y560750D02*
X785250D01*
X783750Y559250D02*
Y562250D01*
X828625Y715375D02*
X831625D01*
X830125Y713875D02*
Y716875D01*
X386750Y660000D02*
X389750D01*
X388250Y658500D02*
Y661500D01*
X438250Y736250D02*
X441250D01*
X439750Y734750D02*
Y737750D01*
X714001Y460533D02*
X717001D01*
X715501Y459033D02*
Y462033D01*
X711485Y449824D02*
X714485D01*
X712985Y448325D02*
Y451325D01*
X703567Y442189D02*
X706567D01*
X705067Y440689D02*
Y443689D01*
X729457Y542223D02*
X732457D01*
X730957Y540723D02*
Y543723D01*
X713066Y526503D02*
X716066D01*
X714566Y525003D02*
Y528003D01*
X713229Y471506D02*
X716228D01*
X714728Y470006D02*
Y473006D01*
X706502Y423522D02*
X709502D01*
X708002Y422022D02*
Y425022D01*
X716486Y428140D02*
X719486D01*
X717986Y426640D02*
Y429640D01*
X724521Y435652D02*
X727521D01*
X726021Y434152D02*
Y437152D01*
X729802Y445302D02*
X732802D01*
X731302Y443802D02*
Y446802D01*
X731796Y456119D02*
X734797D01*
X733297Y454619D02*
Y457619D01*
X730750Y465750D02*
X733750D01*
X732250Y464250D02*
Y467250D01*
X732500Y476500D02*
X735500D01*
X734000Y475000D02*
Y478000D01*
X730509Y499923D02*
X733510D01*
X732010Y498423D02*
Y501423D01*
X731534Y510876D02*
X734534D01*
X733034Y509376D02*
Y512376D01*
M02*
