G04*
G04 #@! TF.GenerationSoftware,Altium Limited,Altium Designer,24.4.1 (13)*
G04*
G04 Layer_Physical_Order=1*
G04 Layer_Color=255*
%FSLAX44Y44*%
%MOMM*%
G71*
G04*
G04 #@! TF.SameCoordinates,8C4884AE-FE68-42B2-B831-9760C43879B3*
G04*
G04*
G04 #@! TF.FilePolarity,Positive*
G04*
G01*
G75*
%ADD12C,0.2000*%
%ADD13C,0.2540*%
%ADD18C,0.1524*%
G04:AMPARAMS|DCode=21|XSize=0.56mm|YSize=0.32mm|CornerRadius=0.08mm|HoleSize=0mm|Usage=FLASHONLY|Rotation=180.000|XOffset=0mm|YOffset=0mm|HoleType=Round|Shape=RoundedRectangle|*
%AMROUNDEDRECTD21*
21,1,0.5600,0.1600,0,0,180.0*
21,1,0.4000,0.3200,0,0,180.0*
1,1,0.1600,-0.2000,0.0800*
1,1,0.1600,0.2000,0.0800*
1,1,0.1600,0.2000,-0.0800*
1,1,0.1600,-0.2000,-0.0800*
%
%ADD21ROUNDEDRECTD21*%
%ADD22R,0.8000X0.8000*%
%ADD23R,0.8000X0.8000*%
%ADD24R,3.5000X3.5000*%
%ADD25O,0.8500X0.2000*%
%ADD26O,0.2000X0.8500*%
G04:AMPARAMS|DCode=27|XSize=0.58mm|YSize=0.58mm|CornerRadius=0.1508mm|HoleSize=0mm|Usage=FLASHONLY|Rotation=0.000|XOffset=0mm|YOffset=0mm|HoleType=Round|Shape=RoundedRectangle|*
%AMROUNDEDRECTD27*
21,1,0.5800,0.2784,0,0,0.0*
21,1,0.2784,0.5800,0,0,0.0*
1,1,0.3016,0.1392,-0.1392*
1,1,0.3016,-0.1392,-0.1392*
1,1,0.3016,-0.1392,0.1392*
1,1,0.3016,0.1392,0.1392*
%
%ADD27ROUNDEDRECTD27*%
G04:AMPARAMS|DCode=28|XSize=1.21mm|YSize=0.59mm|CornerRadius=0.0738mm|HoleSize=0mm|Usage=FLASHONLY|Rotation=0.000|XOffset=0mm|YOffset=0mm|HoleType=Round|Shape=RoundedRectangle|*
%AMROUNDEDRECTD28*
21,1,1.2100,0.4425,0,0,0.0*
21,1,1.0625,0.5900,0,0,0.0*
1,1,0.1475,0.5313,-0.2213*
1,1,0.1475,-0.5313,-0.2213*
1,1,0.1475,-0.5313,0.2213*
1,1,0.1475,0.5313,0.2213*
%
%ADD28ROUNDEDRECTD28*%
%ADD29R,3.2000X1.2000*%
%ADD30R,5.6000X2.2000*%
%ADD31R,2.2000X5.6000*%
%ADD32R,1.2000X3.2000*%
G04:AMPARAMS|DCode=33|XSize=0.75mm|YSize=1.4mm|CornerRadius=0.1875mm|HoleSize=0mm|Usage=FLASHONLY|Rotation=180.000|XOffset=0mm|YOffset=0mm|HoleType=Round|Shape=RoundedRectangle|*
%AMROUNDEDRECTD33*
21,1,0.7500,1.0250,0,0,180.0*
21,1,0.3750,1.4000,0,0,180.0*
1,1,0.3750,-0.1875,0.5125*
1,1,0.3750,0.1875,0.5125*
1,1,0.3750,0.1875,-0.5125*
1,1,0.3750,-0.1875,-0.5125*
%
%ADD33ROUNDEDRECTD33*%
G04:AMPARAMS|DCode=34|XSize=0.75mm|YSize=1.4mm|CornerRadius=0.1875mm|HoleSize=0mm|Usage=FLASHONLY|Rotation=90.000|XOffset=0mm|YOffset=0mm|HoleType=Round|Shape=RoundedRectangle|*
%AMROUNDEDRECTD34*
21,1,0.7500,1.0250,0,0,90.0*
21,1,0.3750,1.4000,0,0,90.0*
1,1,0.3750,0.5125,0.1875*
1,1,0.3750,0.5125,-0.1875*
1,1,0.3750,-0.5125,-0.1875*
1,1,0.3750,-0.5125,0.1875*
%
%ADD34ROUNDEDRECTD34*%
%ADD35R,1.1500X0.6000*%
%ADD36R,1.1500X0.3000*%
%ADD37R,0.3500X0.6000*%
G04:AMPARAMS|DCode=38|XSize=1.05mm|YSize=2.77mm|CornerRadius=0.252mm|HoleSize=0mm|Usage=FLASHONLY|Rotation=0.000|XOffset=0mm|YOffset=0mm|HoleType=Round|Shape=RoundedRectangle|*
%AMROUNDEDRECTD38*
21,1,1.0500,2.2660,0,0,0.0*
21,1,0.5460,2.7700,0,0,0.0*
1,1,0.5040,0.2730,-1.1330*
1,1,0.5040,-0.2730,-1.1330*
1,1,0.5040,-0.2730,1.1330*
1,1,0.5040,0.2730,1.1330*
%
%ADD38ROUNDEDRECTD38*%
G04:AMPARAMS|DCode=39|XSize=1.07mm|YSize=2.77mm|CornerRadius=0.2515mm|HoleSize=0mm|Usage=FLASHONLY|Rotation=180.000|XOffset=0mm|YOffset=0mm|HoleType=Round|Shape=RoundedRectangle|*
%AMROUNDEDRECTD39*
21,1,1.0700,2.2671,0,0,180.0*
21,1,0.5671,2.7700,0,0,180.0*
1,1,0.5029,-0.2836,1.1336*
1,1,0.5029,0.2836,1.1336*
1,1,0.5029,0.2836,-1.1336*
1,1,0.5029,-0.2836,-1.1336*
%
%ADD39ROUNDEDRECTD39*%
G04:AMPARAMS|DCode=40|XSize=0.58mm|YSize=0.58mm|CornerRadius=0.1305mm|HoleSize=0mm|Usage=FLASHONLY|Rotation=180.000|XOffset=0mm|YOffset=0mm|HoleType=Round|Shape=RoundedRectangle|*
%AMROUNDEDRECTD40*
21,1,0.5800,0.3190,0,0,180.0*
21,1,0.3190,0.5800,0,0,180.0*
1,1,0.2610,-0.1595,0.1595*
1,1,0.2610,0.1595,0.1595*
1,1,0.2610,0.1595,-0.1595*
1,1,0.2610,-0.1595,-0.1595*
%
%ADD40ROUNDEDRECTD40*%
G04:AMPARAMS|DCode=41|XSize=0.58mm|YSize=0.58mm|CornerRadius=0.1508mm|HoleSize=0mm|Usage=FLASHONLY|Rotation=270.000|XOffset=0mm|YOffset=0mm|HoleType=Round|Shape=RoundedRectangle|*
%AMROUNDEDRECTD41*
21,1,0.5800,0.2784,0,0,270.0*
21,1,0.2784,0.5800,0,0,270.0*
1,1,0.3016,-0.1392,-0.1392*
1,1,0.3016,-0.1392,0.1392*
1,1,0.3016,0.1392,0.1392*
1,1,0.3016,0.1392,-0.1392*
%
%ADD41ROUNDEDRECTD41*%
G04:AMPARAMS|DCode=42|XSize=0.58mm|YSize=0.58mm|CornerRadius=0.1305mm|HoleSize=0mm|Usage=FLASHONLY|Rotation=90.000|XOffset=0mm|YOffset=0mm|HoleType=Round|Shape=RoundedRectangle|*
%AMROUNDEDRECTD42*
21,1,0.5800,0.3190,0,0,90.0*
21,1,0.3190,0.5800,0,0,90.0*
1,1,0.2610,0.1595,0.1595*
1,1,0.2610,0.1595,-0.1595*
1,1,0.2610,-0.1595,-0.1595*
1,1,0.2610,-0.1595,0.1595*
%
%ADD42ROUNDEDRECTD42*%
G04:AMPARAMS|DCode=43|XSize=1.19mm|YSize=2.22mm|CornerRadius=0.2499mm|HoleSize=0mm|Usage=FLASHONLY|Rotation=270.000|XOffset=0mm|YOffset=0mm|HoleType=Round|Shape=RoundedRectangle|*
%AMROUNDEDRECTD43*
21,1,1.1900,1.7202,0,0,270.0*
21,1,0.6902,2.2200,0,0,270.0*
1,1,0.4998,-0.8601,-0.3451*
1,1,0.4998,-0.8601,0.3451*
1,1,0.4998,0.8601,0.3451*
1,1,0.4998,0.8601,-0.3451*
%
%ADD43ROUNDEDRECTD43*%
G04:AMPARAMS|DCode=44|XSize=1.62mm|YSize=3.51mm|CornerRadius=0.2511mm|HoleSize=0mm|Usage=FLASHONLY|Rotation=0.000|XOffset=0mm|YOffset=0mm|HoleType=Round|Shape=RoundedRectangle|*
%AMROUNDEDRECTD44*
21,1,1.6200,3.0078,0,0,0.0*
21,1,1.1178,3.5100,0,0,0.0*
1,1,0.5022,0.5589,-1.5039*
1,1,0.5022,-0.5589,-1.5039*
1,1,0.5022,-0.5589,1.5039*
1,1,0.5022,0.5589,1.5039*
%
%ADD44ROUNDEDRECTD44*%
G04:AMPARAMS|DCode=45|XSize=0.95mm|YSize=1.02mm|CornerRadius=0.2423mm|HoleSize=0mm|Usage=FLASHONLY|Rotation=90.000|XOffset=0mm|YOffset=0mm|HoleType=Round|Shape=RoundedRectangle|*
%AMROUNDEDRECTD45*
21,1,0.9500,0.5355,0,0,90.0*
21,1,0.4655,1.0200,0,0,90.0*
1,1,0.4845,0.2677,0.2328*
1,1,0.4845,0.2677,-0.2328*
1,1,0.4845,-0.2677,-0.2328*
1,1,0.4845,-0.2677,0.2328*
%
%ADD45ROUNDEDRECTD45*%
G04:AMPARAMS|DCode=46|XSize=0.95mm|YSize=1.02mm|CornerRadius=0.2423mm|HoleSize=0mm|Usage=FLASHONLY|Rotation=0.000|XOffset=0mm|YOffset=0mm|HoleType=Round|Shape=RoundedRectangle|*
%AMROUNDEDRECTD46*
21,1,0.9500,0.5355,0,0,0.0*
21,1,0.4655,1.0200,0,0,0.0*
1,1,0.4845,0.2328,-0.2677*
1,1,0.4845,-0.2328,-0.2677*
1,1,0.4845,-0.2328,0.2677*
1,1,0.4845,0.2328,0.2677*
%
%ADD46ROUNDEDRECTD46*%
G04:AMPARAMS|DCode=47|XSize=0.66mm|YSize=0.7mm|CornerRadius=0.1716mm|HoleSize=0mm|Usage=FLASHONLY|Rotation=270.000|XOffset=0mm|YOffset=0mm|HoleType=Round|Shape=RoundedRectangle|*
%AMROUNDEDRECTD47*
21,1,0.6600,0.3568,0,0,270.0*
21,1,0.3168,0.7000,0,0,270.0*
1,1,0.3432,-0.1784,-0.1584*
1,1,0.3432,-0.1784,0.1584*
1,1,0.3432,0.1784,0.1584*
1,1,0.3432,0.1784,-0.1584*
%
%ADD47ROUNDEDRECTD47*%
G04:AMPARAMS|DCode=48|XSize=0.66mm|YSize=0.7mm|CornerRadius=0.1716mm|HoleSize=0mm|Usage=FLASHONLY|Rotation=0.000|XOffset=0mm|YOffset=0mm|HoleType=Round|Shape=RoundedRectangle|*
%AMROUNDEDRECTD48*
21,1,0.6600,0.3568,0,0,0.0*
21,1,0.3168,0.7000,0,0,0.0*
1,1,0.3432,0.1584,-0.1784*
1,1,0.3432,-0.1584,-0.1784*
1,1,0.3432,-0.1584,0.1784*
1,1,0.3432,0.1584,0.1784*
%
%ADD48ROUNDEDRECTD48*%
G04:AMPARAMS|DCode=49|XSize=1.19mm|YSize=1.29mm|CornerRadius=0.2499mm|HoleSize=0mm|Usage=FLASHONLY|Rotation=270.000|XOffset=0mm|YOffset=0mm|HoleType=Round|Shape=RoundedRectangle|*
%AMROUNDEDRECTD49*
21,1,1.1900,0.7902,0,0,270.0*
21,1,0.6902,1.2900,0,0,270.0*
1,1,0.4998,-0.3951,-0.3451*
1,1,0.4998,-0.3951,0.3451*
1,1,0.4998,0.3951,0.3451*
1,1,0.4998,0.3951,-0.3451*
%
%ADD49ROUNDEDRECTD49*%
%ADD50R,0.7600X2.4000*%
G04:AMPARAMS|DCode=51|XSize=1.02mm|YSize=0.46mm|CornerRadius=0.1196mm|HoleSize=0mm|Usage=FLASHONLY|Rotation=270.000|XOffset=0mm|YOffset=0mm|HoleType=Round|Shape=RoundedRectangle|*
%AMROUNDEDRECTD51*
21,1,1.0200,0.2208,0,0,270.0*
21,1,0.7808,0.4600,0,0,270.0*
1,1,0.2392,-0.1104,-0.3904*
1,1,0.2392,-0.1104,0.3904*
1,1,0.2392,0.1104,0.3904*
1,1,0.2392,0.1104,-0.3904*
%
%ADD51ROUNDEDRECTD51*%
G04:AMPARAMS|DCode=52|XSize=1.03mm|YSize=0.6mm|CornerRadius=0.15mm|HoleSize=0mm|Usage=FLASHONLY|Rotation=270.000|XOffset=0mm|YOffset=0mm|HoleType=Round|Shape=RoundedRectangle|*
%AMROUNDEDRECTD52*
21,1,1.0300,0.3000,0,0,270.0*
21,1,0.7300,0.6000,0,0,270.0*
1,1,0.3000,-0.1500,-0.3650*
1,1,0.3000,-0.1500,0.3650*
1,1,0.3000,0.1500,0.3650*
1,1,0.3000,0.1500,-0.3650*
%
%ADD52ROUNDEDRECTD52*%
G04:AMPARAMS|DCode=53|XSize=1.03mm|YSize=0.6mm|CornerRadius=0.15mm|HoleSize=0mm|Usage=FLASHONLY|Rotation=180.000|XOffset=0mm|YOffset=0mm|HoleType=Round|Shape=RoundedRectangle|*
%AMROUNDEDRECTD53*
21,1,1.0300,0.3000,0,0,180.0*
21,1,0.7300,0.6000,0,0,180.0*
1,1,0.3000,-0.3650,0.1500*
1,1,0.3000,0.3650,0.1500*
1,1,0.3000,0.3650,-0.1500*
1,1,0.3000,-0.3650,-0.1500*
%
%ADD53ROUNDEDRECTD53*%
G04:AMPARAMS|DCode=54|XSize=1.29mm|YSize=0.59mm|CornerRadius=0.1505mm|HoleSize=0mm|Usage=FLASHONLY|Rotation=0.000|XOffset=0mm|YOffset=0mm|HoleType=Round|Shape=RoundedRectangle|*
%AMROUNDEDRECTD54*
21,1,1.2900,0.2891,0,0,0.0*
21,1,0.9891,0.5900,0,0,0.0*
1,1,0.3009,0.4946,-0.1446*
1,1,0.3009,-0.4946,-0.1446*
1,1,0.3009,-0.4946,0.1446*
1,1,0.3009,0.4946,0.1446*
%
%ADD54ROUNDEDRECTD54*%
%ADD55R,1.4500X1.0000*%
G04:AMPARAMS|DCode=56|XSize=2.07mm|YSize=0.63mm|CornerRadius=0.1606mm|HoleSize=0mm|Usage=FLASHONLY|Rotation=180.000|XOffset=0mm|YOffset=0mm|HoleType=Round|Shape=RoundedRectangle|*
%AMROUNDEDRECTD56*
21,1,2.0700,0.3087,0,0,180.0*
21,1,1.7487,0.6300,0,0,180.0*
1,1,0.3213,-0.8743,0.1544*
1,1,0.3213,0.8743,0.1544*
1,1,0.3213,0.8743,-0.1544*
1,1,0.3213,-0.8743,-0.1544*
%
%ADD56ROUNDEDRECTD56*%
G04:AMPARAMS|DCode=57|XSize=2.07mm|YSize=0.63mm|CornerRadius=0.1606mm|HoleSize=0mm|Usage=FLASHONLY|Rotation=270.000|XOffset=0mm|YOffset=0mm|HoleType=Round|Shape=RoundedRectangle|*
%AMROUNDEDRECTD57*
21,1,2.0700,0.3087,0,0,270.0*
21,1,1.7487,0.6300,0,0,270.0*
1,1,0.3213,-0.1544,-0.8743*
1,1,0.3213,-0.1544,0.8743*
1,1,0.3213,0.1544,0.8743*
1,1,0.3213,0.1544,-0.8743*
%
%ADD57ROUNDEDRECTD57*%
G04:AMPARAMS|DCode=58|XSize=2.01mm|YSize=0.66mm|CornerRadius=0.1716mm|HoleSize=0mm|Usage=FLASHONLY|Rotation=180.000|XOffset=0mm|YOffset=0mm|HoleType=Round|Shape=RoundedRectangle|*
%AMROUNDEDRECTD58*
21,1,2.0100,0.3168,0,0,180.0*
21,1,1.6668,0.6600,0,0,180.0*
1,1,0.3432,-0.8334,0.1584*
1,1,0.3432,0.8334,0.1584*
1,1,0.3432,0.8334,-0.1584*
1,1,0.3432,-0.8334,-0.1584*
%
%ADD58ROUNDEDRECTD58*%
%ADD59R,0.8000X1.6000*%
%ADD60R,0.8000X0.6500*%
%ADD110C,1.5494*%
%ADD112C,0.3213*%
G04:AMPARAMS|DCode=113|XSize=1mm|YSize=1.54mm|CornerRadius=0.25mm|HoleSize=0mm|Usage=FLASHONLY|Rotation=180.000|XOffset=0mm|YOffset=0mm|HoleType=Round|Shape=RoundedRectangle|*
%AMROUNDEDRECTD113*
21,1,1.0000,1.0400,0,0,180.0*
21,1,0.5000,1.5400,0,0,180.0*
1,1,0.5000,-0.2500,0.5200*
1,1,0.5000,0.2500,0.5200*
1,1,0.5000,0.2500,-0.5200*
1,1,0.5000,-0.2500,-0.5200*
%
%ADD113ROUNDEDRECTD113*%
G04:AMPARAMS|DCode=114|XSize=1mm|YSize=1mm|CornerRadius=0.25mm|HoleSize=0mm|Usage=FLASHONLY|Rotation=270.000|XOffset=0mm|YOffset=0mm|HoleType=Round|Shape=RoundedRectangle|*
%AMROUNDEDRECTD114*
21,1,1.0000,0.5000,0,0,270.0*
21,1,0.5000,1.0000,0,0,270.0*
1,1,0.5000,-0.2500,-0.2500*
1,1,0.5000,-0.2500,0.2500*
1,1,0.5000,0.2500,0.2500*
1,1,0.5000,0.2500,-0.2500*
%
%ADD114ROUNDEDRECTD114*%
G04:AMPARAMS|DCode=115|XSize=1mm|YSize=1mm|CornerRadius=0.25mm|HoleSize=0mm|Usage=FLASHONLY|Rotation=0.000|XOffset=0mm|YOffset=0mm|HoleType=Round|Shape=RoundedRectangle|*
%AMROUNDEDRECTD115*
21,1,1.0000,0.5000,0,0,0.0*
21,1,0.5000,1.0000,0,0,0.0*
1,1,0.5000,0.2500,-0.2500*
1,1,0.5000,-0.2500,-0.2500*
1,1,0.5000,-0.2500,0.2500*
1,1,0.5000,0.2500,0.2500*
%
%ADD115ROUNDEDRECTD115*%
%ADD116C,0.3000*%
%ADD117C,0.1540*%
%ADD118C,0.2849*%
%ADD119C,0.1520*%
%ADD120C,0.2021*%
%ADD121C,0.2032*%
%ADD122C,0.3210*%
%ADD123C,0.5080*%
%ADD124C,0.1750*%
%ADD125C,0.2607*%
%ADD126C,2.4000*%
%ADD127R,1.8000X1.8000*%
%ADD128C,1.8000*%
%ADD129C,1.1000*%
G04:AMPARAMS|DCode=130|XSize=1.8mm|YSize=1mm|CornerRadius=0.25mm|HoleSize=0mm|Usage=FLASHONLY|Rotation=0.000|XOffset=0mm|YOffset=0mm|HoleType=Round|Shape=RoundedRectangle|*
%AMROUNDEDRECTD130*
21,1,1.8000,0.5000,0,0,0.0*
21,1,1.3000,1.0000,0,0,0.0*
1,1,0.5000,0.6500,-0.2500*
1,1,0.5000,-0.6500,-0.2500*
1,1,0.5000,-0.6500,0.2500*
1,1,0.5000,0.6500,0.2500*
%
%ADD130ROUNDEDRECTD130*%
%ADD131O,2.1000X1.0000*%
%ADD132C,0.6500*%
%ADD133C,0.6000*%
%ADD134C,0.6096*%
G36*
X878919Y1032619D02*
X884692Y1031233D01*
X890177Y1028961D01*
X895239Y1025859D01*
X899753Y1022003D01*
X903609Y1017489D01*
X906711Y1012427D01*
X908983Y1006942D01*
X910369Y1001169D01*
X910824Y995379D01*
X910799Y995250D01*
Y453500D01*
X910824Y453371D01*
X910369Y447581D01*
X908983Y441809D01*
X906711Y436324D01*
X903609Y431261D01*
X899753Y426747D01*
X895239Y422891D01*
X890177Y419789D01*
X884692Y417517D01*
X878919Y416131D01*
X873129Y415676D01*
X873000Y415701D01*
X698400D01*
Y416750D01*
X697916Y417916D01*
X696750Y418400D01*
X688400D01*
Y423392D01*
X688400Y423393D01*
X688545Y423655D01*
X691144Y425420D01*
X691400Y425424D01*
X691865Y425332D01*
X692312D01*
X692750Y425244D01*
X698345D01*
X698600Y425194D01*
X698777Y425229D01*
X698956Y425208D01*
X703206Y425542D01*
X703551Y425639D01*
X703909Y425654D01*
X708055Y426649D01*
X708380Y426799D01*
X708732Y426869D01*
X712671Y428500D01*
X712969Y428699D01*
X713305Y428824D01*
X716940Y431051D01*
X717204Y431295D01*
X717516Y431470D01*
X720758Y434239D01*
X720980Y434520D01*
X721262Y434742D01*
X724030Y437984D01*
X724205Y438297D01*
X724449Y438560D01*
X726676Y442195D01*
X726801Y442531D01*
X727000Y442829D01*
X728631Y446768D01*
X728701Y447120D01*
X728851Y447445D01*
X729846Y451591D01*
X729860Y451949D01*
X729958Y452294D01*
X730292Y456544D01*
X730271Y456723D01*
X730306Y456900D01*
X730168Y457593D01*
Y457785D01*
X730112Y458071D01*
X730084Y458302D01*
X730055Y458353D01*
X730038Y458443D01*
X729964Y458620D01*
X729961Y458636D01*
X729952Y458649D01*
X729360Y460078D01*
X728988Y460636D01*
X728483Y461140D01*
Y461860D01*
X728750Y464750D01*
X728750D01*
Y464750D01*
X728837Y467714D01*
X728988Y467864D01*
X729360Y468422D01*
X730038Y470057D01*
X730168Y470715D01*
Y471162D01*
X730256Y471600D01*
Y483500D01*
X730168Y483938D01*
Y484385D01*
X730038Y485043D01*
X730006Y485120D01*
Y495750D01*
X729918Y496188D01*
Y496635D01*
X729788Y497293D01*
X729110Y498928D01*
X728737Y499486D01*
Y499487D01*
X729110Y502172D01*
X729788Y503807D01*
X729918Y504465D01*
Y504912D01*
X730006Y505350D01*
Y517152D01*
X730018Y517215D01*
Y517662D01*
X730105Y518100D01*
Y537699D01*
X731857D01*
X733520Y538388D01*
X734792Y539660D01*
X738075Y539745D01*
X741169Y536651D01*
Y516029D01*
X740452Y515886D01*
X739380Y515170D01*
X738664Y514098D01*
X738412Y512834D01*
Y509666D01*
X738664Y508402D01*
X738648Y506402D01*
X737707Y504995D01*
X737377Y503334D01*
Y503020D01*
X743500D01*
X749623D01*
Y503334D01*
X749293Y504995D01*
X748352Y506402D01*
X748336Y508402D01*
X748587Y509666D01*
Y512834D01*
X748336Y514098D01*
X747620Y515170D01*
X746548Y515886D01*
X745831Y516029D01*
Y529978D01*
X748831Y531581D01*
X749169Y531355D01*
Y518777D01*
X749347Y517885D01*
X749852Y517128D01*
X755186Y511794D01*
X754969Y510705D01*
Y503803D01*
X755282Y502234D01*
X756171Y500903D01*
X757263Y500173D01*
X757595Y499632D01*
X758287Y496799D01*
X758116Y496543D01*
X757865Y495278D01*
Y491710D01*
X758116Y490446D01*
X758832Y489375D01*
X759904Y488658D01*
X761168Y488407D01*
X764336D01*
X765600Y488658D01*
X767600Y488642D01*
X769008Y487701D01*
X770668Y487371D01*
X770982D01*
Y493494D01*
X772252D01*
Y494764D01*
X778176D01*
Y495278D01*
X777845Y496939D01*
X776905Y498347D01*
X775497Y499287D01*
X773836Y499618D01*
X772623D01*
X771136Y501709D01*
X770839Y502618D01*
X771075Y503803D01*
Y510705D01*
X770763Y512275D01*
X769874Y513606D01*
X768543Y514495D01*
X766973Y514807D01*
X761617D01*
X761562Y514902D01*
X763282Y517902D01*
X766973D01*
X768543Y518214D01*
X769874Y519103D01*
X770763Y520434D01*
X771075Y522003D01*
Y527136D01*
X774075Y528379D01*
X774532Y527922D01*
X775288Y527417D01*
X776180Y527239D01*
X779169D01*
Y522003D01*
X779482Y520434D01*
X780371Y519103D01*
X781702Y518214D01*
X783271Y517902D01*
X789275D01*
X790442Y516512D01*
X789419Y514807D01*
X783271D01*
X781702Y514495D01*
X780371Y513606D01*
X779482Y512275D01*
X779169Y510705D01*
Y503803D01*
X779482Y502234D01*
X780371Y500903D01*
X781702Y500014D01*
X783271Y499701D01*
X791173D01*
X792743Y500014D01*
X794074Y500903D01*
X794963Y502234D01*
X795275Y503803D01*
Y508405D01*
X795809Y508998D01*
X798275Y510464D01*
X798966Y510327D01*
X799480D01*
Y516250D01*
X800750D01*
Y517520D01*
X806873D01*
Y517834D01*
X806543Y519495D01*
X805602Y520902D01*
X805586Y522902D01*
X805754Y523749D01*
X808460Y524460D01*
X808460Y524460D01*
Y524460D01*
X808460Y524460D01*
X813730D01*
Y529730D01*
X807331D01*
X805680Y528755D01*
X805460Y528787D01*
X804870Y529670D01*
X803798Y530386D01*
X802534Y530638D01*
X798966D01*
X797702Y530386D01*
X794532Y531282D01*
X794309Y531453D01*
X794074Y531806D01*
X792743Y532695D01*
X791173Y533007D01*
X783271D01*
X781702Y532695D01*
X780513Y531901D01*
X777145D01*
X774170Y534877D01*
X775412Y537877D01*
X777084D01*
X778745Y538207D01*
X780152Y539148D01*
X781093Y540555D01*
X781423Y542216D01*
Y542788D01*
X784423Y544030D01*
X788102Y540352D01*
X788858Y539847D01*
X789750Y539669D01*
X806358D01*
X808460Y537540D01*
Y532270D01*
X821540D01*
X821540Y534800D01*
X822482Y535253D01*
X825476Y533363D01*
Y525476D01*
X836524D01*
Y536524D01*
X836476D01*
X835003Y539415D01*
X835018Y539524D01*
X835233Y540608D01*
Y543392D01*
X834998Y544575D01*
X834328Y545578D01*
X833325Y546248D01*
X832142Y546483D01*
X829358D01*
X828175Y546248D01*
X827957Y546102D01*
X827590Y545900D01*
X826159Y545765D01*
X823992Y546164D01*
X823849Y546260D01*
X822745Y546479D01*
X819555D01*
X818451Y546260D01*
X817515Y545635D01*
X816890Y544699D01*
X816817Y544331D01*
X812615D01*
X812058Y544792D01*
X810507Y547331D01*
X810623Y547916D01*
Y548230D01*
X804500D01*
Y550770D01*
X810623D01*
Y551084D01*
X810293Y552745D01*
X809352Y554152D01*
X809348Y554643D01*
X810265Y555748D01*
X812922Y557172D01*
X813925Y556502D01*
X815108Y556267D01*
X817892D01*
X819075Y556502D01*
X820078Y557172D01*
X820748Y558175D01*
X820983Y559358D01*
Y562142D01*
X820748Y563325D01*
X820602Y563543D01*
X820400Y563910D01*
X820265Y565341D01*
X820664Y567508D01*
X820760Y567651D01*
X820979Y568755D01*
Y571945D01*
X820760Y573049D01*
X820135Y573985D01*
X819199Y574610D01*
X818095Y574829D01*
X814905D01*
X813801Y574610D01*
X812865Y573985D01*
X812253Y573069D01*
X809147D01*
X808296Y575825D01*
X808676Y577884D01*
X808772Y578027D01*
X808991Y579131D01*
Y582321D01*
X808772Y583425D01*
X808146Y584361D01*
X807210Y584986D01*
X806107Y585206D01*
X803328D01*
X795748Y592786D01*
X794992Y593292D01*
X794100Y593469D01*
X771270D01*
X770840Y593857D01*
X769513Y596469D01*
X769774Y597100D01*
Y598900D01*
X772060Y600665D01*
X774090D01*
X775354Y600916D01*
X777353Y600900D01*
X778761Y599959D01*
X780422Y599629D01*
X780736D01*
Y605752D01*
X782006D01*
Y607022D01*
X787929D01*
Y607536D01*
X787599Y609197D01*
X786658Y610605D01*
X787643Y612882D01*
X787973Y614542D01*
Y615056D01*
X782050D01*
Y616326D01*
X780780D01*
Y622450D01*
X780466D01*
X778805Y622119D01*
X777397Y621179D01*
X775398Y621162D01*
X774134Y621414D01*
X770966D01*
X769702Y621162D01*
X768630Y620446D01*
X767914Y619374D01*
X765785Y619289D01*
X763294Y621595D01*
Y629673D01*
X763030Y630999D01*
X762279Y632124D01*
X761155Y632875D01*
X760285Y633048D01*
Y639374D01*
X760212Y639737D01*
X760358Y639956D01*
X760610Y641220D01*
Y644388D01*
X760358Y645652D01*
X760375Y647652D01*
X761315Y649060D01*
X761646Y650720D01*
Y651034D01*
X755522D01*
Y652304D01*
X754252D01*
Y658228D01*
X753738D01*
X752078Y657897D01*
X750670Y656957D01*
X748045Y658151D01*
X746384Y658482D01*
X745870D01*
Y652558D01*
X744600D01*
Y651288D01*
X738477D01*
Y650974D01*
X738807Y649314D01*
X739748Y647906D01*
X739764Y645906D01*
X739513Y644642D01*
Y641474D01*
X739764Y640210D01*
X740480Y639138D01*
X741552Y638422D01*
X741839Y638365D01*
Y633139D01*
X741579D01*
X740252Y632875D01*
X739128Y632124D01*
X738377Y630999D01*
X738113Y629673D01*
Y624426D01*
X735113Y623183D01*
X727147Y631150D01*
X727064Y631915D01*
X727546Y634992D01*
X728085Y635531D01*
X728774Y637194D01*
Y638994D01*
X728085Y640657D01*
X726813Y641929D01*
X726581Y642025D01*
Y722285D01*
X729930Y725634D01*
X732927Y725508D01*
X733310Y724997D01*
X734099Y722717D01*
X733683Y722095D01*
X733385Y720595D01*
Y720270D01*
X738900D01*
Y719000D01*
X740170D01*
Y713485D01*
X740495D01*
X741995Y713783D01*
X743267Y714633D01*
X745925Y714752D01*
X747108Y714517D01*
X749892D01*
X751075Y714752D01*
X752078Y715422D01*
X752213Y715624D01*
X755187Y715873D01*
X755643Y715769D01*
X756457Y715226D01*
X757638Y714991D01*
X767529D01*
X768711Y715226D01*
X769713Y715895D01*
X770382Y716897D01*
X770617Y718079D01*
Y720969D01*
X771946Y723041D01*
X773866Y723152D01*
X775337Y722784D01*
X776615Y720969D01*
Y720794D01*
X794753D01*
Y720969D01*
X794439Y722548D01*
X793886Y723403D01*
X795073Y726146D01*
X796820Y726530D01*
X796983Y726538D01*
X803857D01*
X804170Y726070D01*
X805170Y725402D01*
X806350Y725167D01*
X813650D01*
X814830Y725402D01*
X815830Y726070D01*
X816498Y727070D01*
X816733Y728250D01*
Y731250D01*
X816498Y732430D01*
X815830Y733430D01*
X815768Y736671D01*
X815807Y736779D01*
X820267Y741238D01*
X823267Y739995D01*
Y738250D01*
X823502Y737070D01*
X824170Y736070D01*
X825170Y735402D01*
X826350Y735167D01*
X827276D01*
Y718924D01*
X826290Y717938D01*
X825601Y716275D01*
Y714475D01*
X826290Y712812D01*
X827562Y711540D01*
X829225Y710851D01*
X831025D01*
X832688Y711540D01*
X833960Y712812D01*
X834649Y714475D01*
Y716275D01*
X833960Y717938D01*
X832974Y718924D01*
Y735167D01*
X833650D01*
X834830Y735402D01*
X835830Y736070D01*
X836386Y736901D01*
X857500D01*
X857500Y736901D01*
X858590Y737118D01*
X859514Y737736D01*
X873264Y751486D01*
X873264Y751486D01*
X873882Y752410D01*
X874099Y753500D01*
X874099Y753500D01*
Y776306D01*
X874493Y776412D01*
X876607Y777632D01*
X878333Y779358D01*
X879554Y781472D01*
X880185Y783830D01*
Y786272D01*
X879554Y788629D01*
X878333Y790743D01*
X876607Y792470D01*
X874493Y793690D01*
X872135Y794322D01*
X869694D01*
X867336Y793690D01*
X865222Y792470D01*
X863496Y790743D01*
X862275Y788629D01*
X861643Y786272D01*
Y783830D01*
X862275Y781472D01*
X863496Y779358D01*
X865222Y777632D01*
X867336Y776412D01*
X868401Y776126D01*
Y754680D01*
X856320Y742599D01*
X836386D01*
X835830Y743430D01*
X834830Y744099D01*
X833650Y744333D01*
X827605D01*
X826362Y747333D01*
X843264Y764236D01*
X843264Y764236D01*
X843882Y765160D01*
X844099Y766250D01*
X844099Y766250D01*
Y812070D01*
X859524Y827495D01*
X859702Y827558D01*
X862999Y827209D01*
X863496Y826348D01*
X865222Y824622D01*
X867336Y823402D01*
X869694Y822770D01*
X872135D01*
X874493Y823402D01*
X876607Y824622D01*
X878333Y826348D01*
X879554Y828463D01*
X880185Y830820D01*
Y833261D01*
X879554Y835619D01*
X878333Y837734D01*
X876607Y839460D01*
X874493Y840680D01*
X872135Y841312D01*
X869694D01*
X867336Y840680D01*
X865222Y839460D01*
X863496Y837734D01*
X862275Y835619D01*
X861897Y834206D01*
X859358D01*
X859357Y834206D01*
X858267Y833989D01*
X857343Y833372D01*
X857343Y833372D01*
X839236Y815264D01*
X838618Y814340D01*
X838401Y813250D01*
X838401Y813250D01*
Y767430D01*
X820769Y749798D01*
X817769Y751040D01*
Y751250D01*
X817456Y752826D01*
X816563Y754163D01*
X815226Y755056D01*
X813650Y755369D01*
X810082D01*
X809056Y756730D01*
X808551Y758369D01*
X809482Y760109D01*
X810599Y762144D01*
X810642Y762280D01*
X810709Y762405D01*
X811382Y764626D01*
X812081Y766840D01*
X812097Y766982D01*
X812138Y767118D01*
X812366Y769426D01*
X812619Y771735D01*
X812607Y771877D01*
X812621Y772019D01*
Y954830D01*
X813602Y956530D01*
X814524Y959969D01*
Y963531D01*
X813602Y966970D01*
X812621Y968670D01*
Y980750D01*
X812138Y985651D01*
X810709Y990363D01*
X808387Y994706D01*
X805263Y998513D01*
X801457Y1001637D01*
X797113Y1003959D01*
X792401Y1005388D01*
X787500Y1005871D01*
X744930D01*
X744906Y1005869D01*
X744882Y1005871D01*
X742450Y1005627D01*
X740029Y1005388D01*
X740006Y1005381D01*
X739982Y1005379D01*
X737950Y1004758D01*
X733401Y1006138D01*
X728500Y1006621D01*
X646500D01*
X641599Y1006138D01*
X636887Y1004709D01*
X632543Y1002387D01*
X628737Y999263D01*
X625613Y995456D01*
X623291Y991113D01*
X621862Y986401D01*
X621379Y981500D01*
Y774022D01*
X621382Y773988D01*
X621379Y773952D01*
X621624Y771532D01*
X621862Y769121D01*
X621872Y769088D01*
X621875Y769053D01*
X622587Y766730D01*
X623291Y764409D01*
X623308Y764378D01*
X623318Y764344D01*
X624468Y762208D01*
X625613Y760066D01*
X625635Y760039D01*
X625652Y760008D01*
X627194Y758139D01*
X628737Y756259D01*
X628764Y756237D01*
X628786Y756210D01*
X629867Y755135D01*
X629894Y755113D01*
X629916Y755086D01*
X631804Y753554D01*
X633682Y752022D01*
X633713Y752005D01*
X633740Y751983D01*
X635890Y750849D01*
X638032Y749712D01*
X638065Y749702D01*
X638096Y749686D01*
X640425Y748994D01*
X642748Y748296D01*
X642783Y748292D01*
X642817Y748283D01*
X645231Y748058D01*
X647651Y747827D01*
X647685Y747830D01*
X647720Y747827D01*
X702140Y748129D01*
X704520Y748377D01*
X706901Y748612D01*
X706968Y748632D01*
X707038Y748639D01*
X709323Y749346D01*
X711613Y750041D01*
X711675Y750074D01*
X711742Y750095D01*
X713846Y751235D01*
X715956Y752363D01*
X716011Y752407D01*
X716072Y752440D01*
X717913Y753969D01*
X719763Y755487D01*
X719808Y755541D01*
X719862Y755586D01*
X720943Y756918D01*
X721111Y757018D01*
X721664Y757190D01*
X722408Y757238D01*
X724708Y756784D01*
X725178Y756216D01*
X726494Y754537D01*
X726746Y754320D01*
X726958Y754064D01*
X728612Y752717D01*
X730229Y751328D01*
X730519Y751164D01*
X730777Y750954D01*
X732661Y749956D01*
X734519Y748909D01*
X734835Y748805D01*
X735129Y748650D01*
X737171Y748038D01*
X739198Y747374D01*
X739528Y747334D01*
X739847Y747238D01*
X741970Y747037D01*
X744086Y746780D01*
X756136Y746509D01*
X756410Y745477D01*
X756576Y743611D01*
X755874Y743321D01*
X755642Y743089D01*
X755339Y742963D01*
X754802Y742426D01*
X754676Y742123D01*
X754444Y741891D01*
X754153Y741189D01*
Y740860D01*
X754028Y740557D01*
X754028Y740177D01*
Y734398D01*
X751075Y732998D01*
X749892Y733233D01*
X747108D01*
X745925Y732998D01*
X745602Y732782D01*
X744808Y732349D01*
X741742Y732914D01*
X741599Y733010D01*
X740495Y733229D01*
X737305D01*
X736201Y733010D01*
X735265Y732385D01*
X734640Y731449D01*
X734427Y730379D01*
X729048D01*
X728156Y730201D01*
X727400Y729696D01*
X722602Y724898D01*
X722097Y724142D01*
X721919Y723250D01*
Y642993D01*
X719443Y640761D01*
X717306Y640990D01*
X675148Y683148D01*
X674392Y683653D01*
X673500Y683831D01*
X639465D01*
X586581Y736715D01*
Y746897D01*
X586750D01*
X588320Y747209D01*
X589651Y748099D01*
X590541Y749430D01*
X590853Y751000D01*
Y756000D01*
X590541Y757570D01*
X589651Y758901D01*
X588320Y759790D01*
X586750Y760103D01*
X586581D01*
Y773013D01*
X592584D01*
X593848Y773264D01*
X594920Y773980D01*
X595636Y775052D01*
X595887Y776316D01*
Y779484D01*
X595636Y780748D01*
X594920Y781820D01*
X593848Y782536D01*
X592584Y782787D01*
Y785713D01*
X593848Y785964D01*
X594920Y786680D01*
X595636Y787752D01*
X595887Y789016D01*
Y792184D01*
X595636Y793448D01*
X594920Y794520D01*
X593848Y795236D01*
X592584Y795488D01*
Y798413D01*
X593848Y798664D01*
X594920Y799380D01*
X595636Y800452D01*
X595887Y801716D01*
Y804884D01*
X595636Y806148D01*
X594920Y807220D01*
X593848Y807936D01*
X592584Y808187D01*
Y811113D01*
X593848Y811364D01*
X594920Y812080D01*
X595636Y813152D01*
X595887Y814416D01*
Y817584D01*
X595636Y818848D01*
X594920Y819920D01*
X593848Y820636D01*
X592584Y820888D01*
X586839D01*
Y824063D01*
X587348Y824164D01*
X588420Y824880D01*
X589136Y825952D01*
X589388Y827216D01*
Y830784D01*
X589136Y832048D01*
X588420Y833120D01*
X587348Y833836D01*
X587089Y833888D01*
Y836719D01*
X587563Y836915D01*
X588835Y838187D01*
X589524Y839850D01*
Y841650D01*
X588835Y843313D01*
X587563Y844585D01*
X585900Y845274D01*
X584100D01*
X582437Y844585D01*
X581165Y843313D01*
X580476Y841650D01*
Y839850D01*
X581165Y838187D01*
X581491Y837861D01*
X581278Y836208D01*
X578291Y834815D01*
X578101Y834822D01*
X576584Y835123D01*
X576270D01*
Y829000D01*
X575000D01*
Y827730D01*
X569077D01*
Y827216D01*
X569407Y825555D01*
X570348Y824148D01*
X571755Y823207D01*
X572791Y823001D01*
X573509Y821203D01*
X573580Y819920D01*
X572864Y818848D01*
X572612Y817584D01*
Y814416D01*
X572864Y813152D01*
X573580Y812080D01*
X574652Y811364D01*
X575916Y811113D01*
Y808187D01*
X574652Y807936D01*
X573580Y807220D01*
X572864Y806148D01*
X572761Y805631D01*
X563800D01*
X562908Y805453D01*
X562152Y804948D01*
X554352Y797148D01*
X553847Y796392D01*
X553669Y795500D01*
Y780503D01*
X551437Y778612D01*
X549362Y779279D01*
X548677Y779716D01*
X548393Y781145D01*
X547506Y782472D01*
X547452Y782565D01*
Y784250D01*
Y785935D01*
X547506Y786028D01*
X548393Y787355D01*
X548723Y789016D01*
Y789330D01*
X536050D01*
Y791870D01*
X548723D01*
Y792184D01*
X548393Y793845D01*
X547452Y795252D01*
X546492Y795894D01*
X546332Y796419D01*
X546238Y797742D01*
X546417Y799178D01*
X546720Y799380D01*
X547436Y800452D01*
X547539Y800969D01*
X549800D01*
X550692Y801147D01*
X551448Y801652D01*
X556648Y806852D01*
X557153Y807608D01*
X557331Y808500D01*
Y824250D01*
X557153Y825142D01*
X556648Y825898D01*
X548846Y833700D01*
X548968Y836868D01*
X551395Y838791D01*
X552508Y838586D01*
X552651Y838490D01*
X553755Y838271D01*
X556945D01*
X558049Y838490D01*
X558985Y839115D01*
X559610Y840051D01*
X559829Y841155D01*
Y844345D01*
X559610Y845449D01*
X559272Y847178D01*
X561245Y849919D01*
X575250D01*
X576142Y850097D01*
X576898Y850602D01*
X580648Y854352D01*
X581153Y855108D01*
X581331Y856000D01*
Y875750D01*
X581153Y876642D01*
X580648Y877398D01*
X578719Y879327D01*
X578853Y880000D01*
Y885000D01*
X578540Y886570D01*
X577651Y887901D01*
X576320Y888791D01*
X574750Y889103D01*
X569750D01*
X569077Y888969D01*
X564898Y893148D01*
X564142Y893653D01*
X563250Y893831D01*
X562831D01*
Y898203D01*
X563075Y898252D01*
X564078Y898922D01*
X564748Y899925D01*
X564983Y901108D01*
Y902332D01*
X564990Y903453D01*
X565612Y903834D01*
X566329Y904141D01*
X567917Y904435D01*
X568687Y903665D01*
X570350Y902976D01*
X572150D01*
X573813Y903665D01*
X575085Y904937D01*
X575774Y906600D01*
Y908400D01*
X575085Y910063D01*
X573813Y911335D01*
X572150Y912024D01*
X570350D01*
X568687Y911335D01*
X567847Y910495D01*
X565391Y911302D01*
X564983Y911551D01*
Y913392D01*
X564748Y914575D01*
X564078Y915578D01*
X563075Y916248D01*
X561892Y916483D01*
X559324D01*
X558105Y917703D01*
Y918984D01*
X557927Y919879D01*
X557420Y920638D01*
X555681Y922376D01*
X555774Y922600D01*
Y924400D01*
X555085Y926063D01*
X553813Y927335D01*
X552150Y928024D01*
X550350D01*
X548687Y927335D01*
X547415Y926063D01*
X546726Y924400D01*
Y922600D01*
X547415Y920937D01*
X547608Y920744D01*
X547824Y917279D01*
X547665Y916841D01*
X546954Y916131D01*
X544813Y916339D01*
X544367Y916467D01*
X543095Y917317D01*
X541595Y917615D01*
X541270D01*
Y912100D01*
X538730D01*
Y917615D01*
X538405D01*
X536905Y917317D01*
X535633Y916467D01*
X534783Y915195D01*
X534674Y914650D01*
X533572Y914330D01*
X531553Y914333D01*
X531264Y914764D01*
X531264Y914764D01*
X528502Y917526D01*
X527578Y918144D01*
X526488Y918361D01*
X526488Y918361D01*
X495168D01*
X485849Y927680D01*
Y931976D01*
X491274D01*
Y967024D01*
X476226D01*
Y931976D01*
X480151D01*
Y926500D01*
X480151Y926500D01*
X480368Y925410D01*
X480986Y924486D01*
X491973Y913498D01*
X491974Y913498D01*
X492898Y912880D01*
X493988Y912663D01*
X493988Y912663D01*
X512207D01*
X512813Y912100D01*
X514248Y909663D01*
X514135Y909095D01*
Y908770D01*
X519650D01*
Y907500D01*
X520920D01*
Y901985D01*
X521245D01*
X522745Y902283D01*
X523401Y902721D01*
X525589Y901985D01*
X526401Y901393D01*
Y899024D01*
X526314Y898522D01*
X524993Y896298D01*
X524461Y895762D01*
X524426Y895755D01*
X523190Y894930D01*
X522365Y893694D01*
X522075Y892236D01*
Y889602D01*
X526988D01*
Y888332D01*
X528258D01*
Y880652D01*
X529550Y880909D01*
X530786Y881734D01*
X530804Y881763D01*
X531323Y881866D01*
X532384Y881655D01*
X534592D01*
X535653Y881866D01*
X536553Y882467D01*
X536923D01*
X537823Y881866D01*
X538884Y881655D01*
X541092D01*
X542153Y881866D01*
X543053Y882467D01*
X543423D01*
X544323Y881866D01*
X545384Y881655D01*
X547592D01*
X548653Y881866D01*
X549553Y882467D01*
X550154Y883367D01*
X550365Y884428D01*
Y886001D01*
X557332D01*
X558224Y886179D01*
X558980Y886684D01*
X561465Y889169D01*
X562285D01*
X565781Y885673D01*
X565647Y885000D01*
Y881670D01*
X564719Y881179D01*
X562647Y880751D01*
X561813Y881585D01*
X560150Y882274D01*
X558350D01*
X556687Y881585D01*
X555415Y880313D01*
X554726Y878650D01*
Y876850D01*
X555415Y875187D01*
X556687Y873915D01*
X556911Y873822D01*
Y870687D01*
X556402Y870586D01*
X555330Y869870D01*
X554614Y868798D01*
X554473Y868089D01*
X550365D01*
Y869736D01*
X550154Y870797D01*
X549553Y871697D01*
X548653Y872298D01*
X547592Y872509D01*
X545384D01*
X544323Y872298D01*
X543238Y871785D01*
X542153Y872298D01*
X541092Y872509D01*
X538884D01*
X537823Y872298D01*
X536738Y871785D01*
X535653Y872298D01*
X534592Y872509D01*
X532384D01*
X531323Y872298D01*
X530238Y871785D01*
X529153Y872298D01*
X528092Y872509D01*
X525884D01*
X524823Y872298D01*
X523923Y871697D01*
X523322Y870797D01*
X523111Y869736D01*
Y868767D01*
X518882D01*
X518321Y871826D01*
X518755Y872620D01*
X518970Y872943D01*
X519206Y874126D01*
Y876910D01*
X518970Y878093D01*
X518300Y879096D01*
X517925Y879346D01*
X517702Y880076D01*
X517535Y881771D01*
X517652Y882754D01*
X518335Y883437D01*
X519024Y885100D01*
Y886900D01*
X518335Y888563D01*
X517063Y889835D01*
X515400Y890524D01*
X513600D01*
X511937Y889835D01*
X510665Y888563D01*
X509976Y886900D01*
Y885100D01*
X510512Y883806D01*
X510541Y883023D01*
X510510Y882923D01*
X508673Y880589D01*
X507173Y880887D01*
X506848D01*
Y875372D01*
X505578D01*
Y874102D01*
X500063D01*
Y873777D01*
X500361Y872277D01*
X501211Y871005D01*
X501330Y868347D01*
X501095Y867164D01*
Y864380D01*
X501330Y863197D01*
X502000Y862194D01*
X503003Y861524D01*
X504186Y861289D01*
X506970D01*
X508153Y861524D01*
X509156Y862194D01*
X512023Y861658D01*
X513127Y861439D01*
X516317D01*
X517421Y861658D01*
X518357Y862283D01*
X518882Y863069D01*
X523111D01*
Y861928D01*
X523322Y860867D01*
X523923Y859967D01*
X524823Y859366D01*
X525884Y859155D01*
X528092D01*
X530420Y857208D01*
X530639Y856835D01*
Y828711D01*
X527053D01*
X526886Y829548D01*
X526170Y830620D01*
X525098Y831336D01*
X523834Y831588D01*
X520666D01*
X519402Y831336D01*
X517402Y831352D01*
X515995Y832293D01*
X514334Y832623D01*
X514020D01*
Y826500D01*
X512750D01*
Y825230D01*
X506827D01*
Y824716D01*
X507157Y823055D01*
X508098Y821648D01*
X509303Y820843D01*
X509565Y819584D01*
X509670Y817616D01*
X509349Y817401D01*
X508460Y816070D01*
X508147Y814500D01*
Y809500D01*
X508460Y807930D01*
X509349Y806599D01*
X510680Y805710D01*
X512250Y805397D01*
X517250D01*
X518321Y805610D01*
X519500Y804332D01*
X519990Y803338D01*
X518043Y801245D01*
X517500Y801353D01*
X512500D01*
X510930Y801040D01*
X509599Y800151D01*
X508709Y798820D01*
X508397Y797250D01*
Y792250D01*
X508709Y790680D01*
X509599Y789349D01*
X510930Y788459D01*
X512500Y788147D01*
X517500D01*
X519070Y788459D01*
X520401Y789349D01*
X522135Y789155D01*
X523337Y788604D01*
X523542Y788183D01*
X523707Y787355D01*
X524594Y786028D01*
X524648Y785935D01*
Y784250D01*
Y782565D01*
X524594Y782472D01*
X523707Y781145D01*
X523377Y779484D01*
Y779170D01*
X536050D01*
Y777900D01*
X537320D01*
Y771977D01*
X540938D01*
X542180Y768977D01*
X541352Y768148D01*
X540847Y767392D01*
X540669Y766500D01*
Y760353D01*
X540500D01*
X538930Y760041D01*
X537599Y759151D01*
X536710Y757820D01*
X536397Y756250D01*
Y751250D01*
X536710Y749680D01*
X537599Y748349D01*
X538930Y747459D01*
X540500Y747147D01*
X540669D01*
Y736000D01*
X540847Y735108D01*
X541352Y734352D01*
X607852Y667852D01*
X608608Y667347D01*
X609500Y667169D01*
X669268D01*
X696796Y639642D01*
X695553Y636642D01*
X693882D01*
X692221Y636311D01*
X690813Y635371D01*
X690155D01*
X690104Y635447D01*
X688696Y636387D01*
X687036Y636718D01*
X686522D01*
Y630794D01*
X685252D01*
Y629524D01*
X679128D01*
Y629210D01*
X679459Y627550D01*
X679730Y627143D01*
X678531Y624434D01*
X676587Y624253D01*
X675624Y624310D01*
X673774Y626600D01*
Y628400D01*
X673085Y630063D01*
X671813Y631335D01*
X670150Y632024D01*
X668350D01*
X666687Y631335D01*
X665415Y630063D01*
X664726Y628400D01*
Y626600D01*
X665415Y624937D01*
X666687Y623665D01*
X668350Y622976D01*
X668809D01*
X670563Y621222D01*
X670661Y621076D01*
X672457Y619280D01*
X672457Y619280D01*
X673381Y618662D01*
X674471Y618446D01*
X680416D01*
X681132Y617374D01*
X682204Y616658D01*
X682919Y616516D01*
Y614250D01*
X683097Y613358D01*
X683602Y612602D01*
X686866Y609338D01*
X685624Y606338D01*
X684166D01*
X682902Y606086D01*
X680902Y606102D01*
X679495Y607043D01*
X677834Y607373D01*
X677520D01*
Y601250D01*
X674980D01*
Y607373D01*
X674666D01*
X673005Y607043D01*
X671598Y606102D01*
X670657Y604695D01*
X670327Y603034D01*
Y602328D01*
X667327Y601086D01*
X601157Y667255D01*
X599669Y668397D01*
X597935Y669115D01*
X596076Y669360D01*
X416140D01*
X414770Y670730D01*
X414179Y671183D01*
X411031Y674331D01*
X409543Y675473D01*
X407810Y676191D01*
X405950Y676436D01*
X402850D01*
X400990Y676191D01*
X399257Y675473D01*
X397769Y674331D01*
X397301Y673721D01*
X396655Y673593D01*
X395907Y673093D01*
X395407Y672345D01*
X392485Y671063D01*
X379484Y684064D01*
X378559Y684682D01*
X377469Y684899D01*
X377469Y684899D01*
X348539D01*
X347297Y687899D01*
X347335Y687937D01*
X348024Y689600D01*
Y691400D01*
X347335Y693063D01*
X346063Y694335D01*
X344400Y695024D01*
X342600D01*
X342290Y694895D01*
X339290Y695590D01*
X337809Y698590D01*
X338096Y699282D01*
X338188Y699980D01*
X312312D01*
X312404Y699282D01*
X313164Y697447D01*
X314372Y695872D01*
X315947Y694664D01*
X317253Y694123D01*
X317645Y692227D01*
X317546Y690997D01*
X316203Y689654D01*
X315476Y687900D01*
Y686000D01*
X316203Y684246D01*
X316307Y684142D01*
X316457Y682546D01*
X316407Y682374D01*
X313850Y679774D01*
X312187Y679085D01*
X310915Y677813D01*
X310226Y676150D01*
Y674350D01*
X310915Y672687D01*
X312187Y671415D01*
X313850Y670726D01*
X315352D01*
X316060Y669861D01*
X316919Y668051D01*
X315777Y666562D01*
X315059Y664829D01*
X314814Y662970D01*
Y658130D01*
X315059Y656271D01*
X315777Y654538D01*
X316919Y653049D01*
X319424Y650545D01*
X320912Y649402D01*
X322645Y648685D01*
X323726Y648542D01*
Y638043D01*
X320672D01*
X319274Y639441D01*
Y639900D01*
X318585Y641563D01*
X317313Y642835D01*
X315650Y643524D01*
X313850D01*
X312187Y642835D01*
X310915Y641563D01*
X310226Y639900D01*
Y638255D01*
X300986Y629014D01*
X300368Y628090D01*
X300151Y627000D01*
X300151Y627000D01*
Y604930D01*
X292776Y597555D01*
X289896Y596666D01*
X289593Y596792D01*
X289361Y597024D01*
X289033D01*
X288730Y597150D01*
X277000D01*
X275834Y596666D01*
X275350Y595500D01*
Y559500D01*
X275834Y558334D01*
X277000Y557850D01*
X283100D01*
X284763Y555313D01*
X284832Y554850D01*
X284557Y553464D01*
Y552950D01*
X290480D01*
Y551680D01*
X291750D01*
Y545557D01*
X292064D01*
X293725Y545887D01*
X295132Y546828D01*
X297495Y546047D01*
X298873Y545476D01*
X299201D01*
X299504Y545350D01*
X307014D01*
X307055Y545309D01*
X308343Y542350D01*
X307898Y541684D01*
X307513Y539748D01*
Y538690D01*
X315250D01*
Y537420D01*
X316520D01*
Y530033D01*
X317927D01*
X319864Y530418D01*
X321505Y531515D01*
X322602Y533156D01*
X322901Y534659D01*
X322904Y534667D01*
X324099Y536014D01*
X325298Y537009D01*
X326028D01*
Y541214D01*
X327298D01*
Y542484D01*
X332610D01*
X332444Y543317D01*
X331706Y544422D01*
X331706Y544422D01*
X331320Y545010D01*
X331450Y545517D01*
X331481Y545593D01*
X331556Y545736D01*
X331549Y545757D01*
X331650Y546000D01*
Y546824D01*
X331668Y546914D01*
Y548514D01*
X331650Y548604D01*
X331650Y553323D01*
X331668Y553414D01*
Y555014D01*
X331650Y555105D01*
X331650Y557000D01*
X331166Y558167D01*
X321416Y567916D01*
X320250Y568400D01*
X308631D01*
X306411Y571232D01*
Y571746D01*
X300488D01*
Y573016D01*
X299218D01*
Y579139D01*
X298904D01*
X296400Y581579D01*
Y589480D01*
X296274Y589783D01*
Y590111D01*
X296042Y590343D01*
X295916Y590646D01*
X296805Y593526D01*
X305014Y601736D01*
X305014Y601736D01*
X305632Y602660D01*
X305849Y603750D01*
Y625820D01*
X312373Y632344D01*
X313195Y632432D01*
X315254Y630456D01*
X315476Y630100D01*
Y628200D01*
X316203Y626446D01*
X317546Y625103D01*
X317645Y623873D01*
X317253Y621977D01*
X315947Y621436D01*
X314372Y620228D01*
X313164Y618652D01*
X312404Y616818D01*
X312312Y616120D01*
X338188D01*
X338096Y616818D01*
X337809Y617510D01*
X339290Y620510D01*
X342290Y621019D01*
X343600Y620476D01*
X345400D01*
X347063Y621165D01*
X348335Y622437D01*
X349024Y624100D01*
Y625900D01*
X348335Y627563D01*
X347697Y628201D01*
X348189Y631201D01*
X374050D01*
X374050Y631201D01*
X375140Y631418D01*
X376064Y632036D01*
X386481Y642453D01*
X386540Y642492D01*
X388608Y644560D01*
X388608Y644560D01*
X388647Y644619D01*
X392490Y648461D01*
X395407Y647155D01*
X395907Y646407D01*
X396655Y645907D01*
X397301Y645779D01*
X397769Y645169D01*
X399257Y644027D01*
X400990Y643309D01*
X402850Y643064D01*
X405950D01*
X407810Y643309D01*
X409543Y644027D01*
X411031Y645169D01*
X414179Y648317D01*
X414770Y648771D01*
X416140Y650140D01*
X591091D01*
X652990Y588241D01*
X651842Y585469D01*
X541327D01*
X535398Y591398D01*
X534642Y591903D01*
X533750Y592081D01*
X532368Y594903D01*
X532664Y596508D01*
X532760Y596651D01*
X532979Y597755D01*
Y600945D01*
X532760Y602049D01*
X532135Y602985D01*
X531327Y603524D01*
X531215Y604987D01*
X531234Y606586D01*
X532335Y607687D01*
X533024Y609350D01*
Y611150D01*
X532335Y612813D01*
X531063Y614085D01*
X529400Y614774D01*
X527600D01*
X526185Y614188D01*
X524916Y614639D01*
X523185Y615576D01*
Y616594D01*
X522942Y617815D01*
X522251Y618851D01*
X521215Y619542D01*
X519994Y619785D01*
X514917D01*
Y623575D01*
X515426Y623676D01*
X516498Y624392D01*
X517214Y625464D01*
X517466Y626728D01*
Y630296D01*
X517214Y631560D01*
X516498Y632632D01*
X515426Y633348D01*
X514628Y633507D01*
Y637480D01*
X515835Y638687D01*
X516524Y640350D01*
Y642150D01*
X515835Y643813D01*
X514563Y645085D01*
X512900Y645774D01*
X511100D01*
X509437Y645085D01*
X508165Y643813D01*
X507476Y642150D01*
Y640350D01*
X508165Y638687D01*
X509023Y637829D01*
X509145Y637141D01*
X509042Y636048D01*
X508980Y635836D01*
X506323Y634305D01*
X504662Y634635D01*
X504348D01*
Y628512D01*
X503078D01*
Y627242D01*
X497155D01*
Y626728D01*
X497485Y625067D01*
X498426Y623660D01*
X499833Y622719D01*
X500855Y622516D01*
X501250Y619786D01*
X501223Y619501D01*
X500249Y618851D01*
X499558Y617815D01*
X499315Y616594D01*
Y613507D01*
X499558Y612285D01*
X500249Y611250D01*
X501285Y610558D01*
X502506Y610315D01*
X519994D01*
X522192Y608789D01*
X520007Y607096D01*
X519891Y607085D01*
X502506D01*
X501285Y606842D01*
X500249Y606151D01*
X499558Y605115D01*
X499315Y603894D01*
Y600807D01*
X499558Y599585D01*
X500249Y598550D01*
X501285Y597858D01*
X502506Y597615D01*
X519994D01*
X521021Y597819D01*
X521329Y597812D01*
X521543Y597727D01*
X522496Y594913D01*
X521215Y594142D01*
X519994Y594385D01*
X502506D01*
X501285Y594142D01*
X500249Y593451D01*
X499558Y592415D01*
X499342Y591331D01*
X488750D01*
X487858Y591153D01*
X487102Y590648D01*
X483602Y587148D01*
X483097Y586392D01*
X482919Y585500D01*
Y566603D01*
X482750D01*
X481180Y566291D01*
X479849Y565401D01*
X478960Y564070D01*
X478647Y562500D01*
Y557500D01*
X478960Y555930D01*
X479849Y554599D01*
X481180Y553709D01*
X482750Y553397D01*
X487750D01*
X489320Y553709D01*
X490651Y554599D01*
X491540Y555930D01*
X491853Y557500D01*
Y562500D01*
X491540Y564070D01*
X490651Y565401D01*
X489320Y566291D01*
X487750Y566603D01*
X487581D01*
Y584534D01*
X489715Y586669D01*
X499702D01*
X500249Y585850D01*
X501285Y585158D01*
X502506Y584915D01*
X519994D01*
X521215Y585158D01*
X521942Y585643D01*
X522253Y585849D01*
X525544Y585757D01*
X525925Y585502D01*
X527108Y585267D01*
X529892D01*
X531075Y585502D01*
X532078Y586172D01*
X535023Y585180D01*
X536754Y583450D01*
X537774Y581879D01*
X535983Y579331D01*
X532797D01*
X532748Y579575D01*
X532078Y580578D01*
X531075Y581248D01*
X529892Y581483D01*
X527108D01*
X525925Y581248D01*
X525518Y580976D01*
X522289Y580753D01*
X521873Y581003D01*
X521215Y581442D01*
X519994Y581685D01*
X502506D01*
X501285Y581442D01*
X500249Y580751D01*
X499558Y579715D01*
X499315Y578493D01*
Y575406D01*
X499558Y574185D01*
X500249Y573150D01*
X501285Y572458D01*
X502506Y572215D01*
X508919D01*
Y566603D01*
X508750D01*
X507180Y566291D01*
X505849Y565401D01*
X504959Y564070D01*
X504647Y562500D01*
Y557500D01*
X504959Y555930D01*
X505849Y554599D01*
X507180Y553709D01*
X508750Y553397D01*
X513750D01*
X515320Y553709D01*
X516651Y554599D01*
X517541Y555930D01*
X517853Y557500D01*
Y562500D01*
X517541Y564070D01*
X516651Y565401D01*
X515320Y566291D01*
X513750Y566603D01*
X513581D01*
Y572215D01*
X519994D01*
X521215Y572458D01*
X521691Y572776D01*
X522147Y572721D01*
X522600Y572602D01*
X522681Y572563D01*
X524158Y570492D01*
X524240Y570099D01*
X524021Y568995D01*
Y565805D01*
X524240Y564701D01*
X524865Y563765D01*
X525801Y563140D01*
X526905Y562921D01*
X530095D01*
X531199Y563140D01*
X531987Y563667D01*
X532326Y563812D01*
X532386Y563826D01*
X535262Y563916D01*
X535516Y563837D01*
X536187Y563165D01*
X537850Y562476D01*
X539650D01*
X541313Y563165D01*
X542585Y564437D01*
X543274Y566100D01*
Y567900D01*
X542585Y569563D01*
X541313Y570835D01*
X539650Y571524D01*
X537850D01*
X536187Y570835D01*
X535758Y570406D01*
X534953Y570323D01*
X534798Y570452D01*
X533418Y573554D01*
X534103Y574669D01*
X537750D01*
X538642Y574847D01*
X539398Y575352D01*
X541001Y576955D01*
X660309D01*
X661000Y576211D01*
X662260Y573955D01*
X662077Y573034D01*
Y572520D01*
X668000D01*
Y569980D01*
X662077D01*
Y569466D01*
X662275Y568469D01*
X661091Y566303D01*
X660360Y565469D01*
X559888D01*
X558996Y565292D01*
X558240Y564786D01*
X538285Y544831D01*
X465103D01*
Y545000D01*
X464790Y546570D01*
X463901Y547901D01*
X462570Y548791D01*
X461000Y549103D01*
X456000D01*
X454430Y548791D01*
X453099Y547901D01*
X452210Y546570D01*
X451897Y545000D01*
Y540000D01*
X452210Y538430D01*
X453099Y537099D01*
X454295Y536300D01*
X454503Y535366D01*
X454700Y533097D01*
X454672Y533078D01*
X454002Y532075D01*
X453767Y530892D01*
Y528108D01*
X454002Y526925D01*
X454672Y525922D01*
X455675Y525252D01*
X456858Y525017D01*
X459642D01*
X460825Y525252D01*
X461043Y525398D01*
X461410Y525600D01*
X462841Y525735D01*
X465008Y525336D01*
X465151Y525240D01*
X465719Y525127D01*
Y517274D01*
X464726D01*
Y508226D01*
X465669D01*
Y503900D01*
X465847Y503008D01*
X466352Y502252D01*
X469830Y498774D01*
X468587Y495774D01*
X468376D01*
Y468726D01*
X478076D01*
X481076Y468726D01*
X482024Y468726D01*
X490776D01*
X493776Y468726D01*
X494724Y468726D01*
X503476D01*
X506476Y468726D01*
X507424Y468726D01*
X516176D01*
X519176Y468726D01*
X520124Y468726D01*
X529824D01*
Y495774D01*
X526581D01*
Y507476D01*
X527524D01*
Y509419D01*
X536597D01*
X536740Y508701D01*
X537365Y507765D01*
X538301Y507140D01*
X539405Y506921D01*
X542595D01*
X543699Y507140D01*
X544635Y507765D01*
X545260Y508701D01*
X545479Y509805D01*
Y512995D01*
X545260Y514099D01*
X545164Y514242D01*
X544765Y516409D01*
X544900Y517840D01*
X545102Y518207D01*
X545248Y518425D01*
X545483Y519608D01*
Y522392D01*
X545248Y523575D01*
X544578Y524578D01*
X543575Y525248D01*
X543331Y525297D01*
Y529535D01*
X548965Y535169D01*
X565261D01*
X565865Y534265D01*
X566801Y533640D01*
X567905Y533421D01*
X571095D01*
X572199Y533640D01*
X573135Y534265D01*
X573739Y535169D01*
X599927D01*
X611995Y523102D01*
X612751Y522597D01*
X613643Y522419D01*
X617702D01*
Y496933D01*
X614891Y495167D01*
X613928Y495258D01*
X613561Y495460D01*
X613343Y495606D01*
X612160Y495841D01*
X609376D01*
X608193Y495606D01*
X607190Y494936D01*
X606520Y493933D01*
X606471Y493689D01*
X600913D01*
X600770Y494406D01*
X600054Y495478D01*
X598982Y496194D01*
X597718Y496446D01*
X594550D01*
X593286Y496194D01*
X592187Y496203D01*
X591133Y497210D01*
X592336Y500210D01*
X596506D01*
Y506480D01*
X586716D01*
X576926D01*
Y500210D01*
X583390D01*
X583686Y497210D01*
X583389Y497151D01*
X581982Y496211D01*
X581041Y494803D01*
X580710Y493142D01*
Y492628D01*
X586634D01*
Y491358D01*
X587904D01*
Y485235D01*
X588218D01*
X589879Y485565D01*
X591286Y486506D01*
X593286Y486522D01*
X594550Y486271D01*
X597718D01*
X598982Y486522D01*
X600054Y487238D01*
X600770Y488310D01*
X600913Y489027D01*
X606471D01*
X606520Y488783D01*
X607190Y487780D01*
X608193Y487110D01*
X609376Y486875D01*
X612160D01*
X613343Y487110D01*
X613561Y487256D01*
X613928Y487458D01*
X615359Y487593D01*
X617526Y487194D01*
X617669Y487098D01*
X618773Y486879D01*
X621963D01*
X623067Y487098D01*
X624002Y487724D01*
X624628Y488659D01*
X624847Y489763D01*
Y492953D01*
X624628Y494057D01*
X624002Y494993D01*
X623067Y495618D01*
X622363Y495758D01*
Y522419D01*
X629442D01*
Y518226D01*
X646990D01*
Y521669D01*
X650569D01*
X650665Y521437D01*
X651937Y520165D01*
X653600Y519476D01*
X655400D01*
X657063Y520165D01*
X658335Y521437D01*
X659024Y523100D01*
Y524900D01*
X658335Y526563D01*
X657063Y527835D01*
X655400Y528524D01*
X653600D01*
X651937Y527835D01*
X650665Y526563D01*
X650569Y526331D01*
X646990D01*
Y531274D01*
X629442D01*
Y527081D01*
X621500D01*
X621500Y527081D01*
X614608D01*
X602541Y539148D01*
X601785Y539653D01*
X600893Y539831D01*
X576483D01*
X575073Y542494D01*
X576937Y543665D01*
X578600Y542976D01*
X580400D01*
X582063Y543665D01*
X583335Y544937D01*
X584024Y546600D01*
Y548400D01*
X583335Y550063D01*
X582063Y551335D01*
X580400Y552024D01*
X578600D01*
X576937Y551335D01*
X576519Y550917D01*
X576253Y550836D01*
X573240Y551059D01*
X572890Y551203D01*
X572075Y551748D01*
X570892Y551983D01*
X568108D01*
X566925Y551748D01*
X565922Y551078D01*
X565252Y550075D01*
X565017Y548892D01*
Y546108D01*
X565252Y544925D01*
X565398Y544707D01*
X565600Y544340D01*
X565735Y542909D01*
X565336Y540742D01*
X565240Y540599D01*
X565087Y539831D01*
X550120D01*
X548877Y542831D01*
X562854Y556807D01*
X675439D01*
X676279Y553807D01*
X675598Y553352D01*
X674657Y551945D01*
X674327Y550284D01*
Y549770D01*
X680250D01*
Y548500D01*
X681520D01*
Y542377D01*
X681834D01*
X683495Y542707D01*
X684902Y543648D01*
X686902Y543664D01*
X688166Y543413D01*
X691334D01*
X692598Y543664D01*
X693670Y544380D01*
X694386Y545452D01*
X694527Y546161D01*
X710337D01*
X711232Y546339D01*
X711471Y546499D01*
X713874Y547973D01*
X714865Y547511D01*
X715850Y547315D01*
X717594Y544685D01*
Y526532D01*
X715584Y523873D01*
X715270D01*
Y517750D01*
Y511627D01*
X715584D01*
X717494Y508948D01*
Y505350D01*
X717582Y504912D01*
Y504465D01*
X717712Y503807D01*
X718390Y502172D01*
X718762Y501614D01*
Y499486D01*
X718390Y498928D01*
X717712Y497293D01*
X717582Y496635D01*
Y496188D01*
X717494Y495750D01*
Y491236D01*
X715834Y489873D01*
X715520D01*
Y483750D01*
Y477627D01*
X715834D01*
X717744Y474948D01*
Y471600D01*
X717832Y471162D01*
Y470715D01*
X717962Y470057D01*
X718640Y468422D01*
X719013Y467864D01*
X719013Y467864D01*
X719236Y467641D01*
X719500Y464750D01*
Y464750D01*
X719517Y461757D01*
Y461140D01*
X719013Y460636D01*
X719013Y460636D01*
X718640Y460078D01*
X717962Y458443D01*
X717832Y457785D01*
Y457493D01*
X717786Y457345D01*
X717375Y453165D01*
X716285Y449575D01*
X714517Y446265D01*
X712136Y443364D01*
X709235Y440984D01*
X705926Y439215D01*
X702335Y438125D01*
X701400Y438033D01*
X698400Y440752D01*
Y457250D01*
X697916Y458416D01*
X696750Y458900D01*
X656750D01*
X655584Y458416D01*
X655100Y457250D01*
Y436750D01*
X655584Y435584D01*
X656750Y435100D01*
X665350D01*
Y418400D01*
X656750D01*
X655584Y417916D01*
X655100Y416750D01*
X654092Y415746D01*
X529796Y416243D01*
X283769Y417226D01*
X282558Y417517D01*
X277073Y419789D01*
X272011Y422891D01*
X267497Y426747D01*
X263641Y431261D01*
X260539Y436324D01*
X258267Y441809D01*
X256881Y447581D01*
X256426Y453371D01*
X256451Y453500D01*
Y995250D01*
X256426Y995379D01*
X256881Y1001169D01*
X258267Y1006942D01*
X260539Y1012427D01*
X263641Y1017489D01*
X267497Y1022003D01*
X272011Y1025859D01*
X277073Y1028961D01*
X282558Y1031233D01*
X288331Y1032619D01*
X294121Y1033074D01*
X294250Y1033049D01*
X872500D01*
X873000Y1033053D01*
Y1033053D01*
X873032Y1033082D01*
X878919Y1032619D01*
D02*
G37*
G36*
X725500Y850500D02*
X689000D01*
Y931000D01*
X725500D01*
Y850500D01*
D02*
G37*
G36*
X539912Y858368D02*
X539990Y858245D01*
X540909Y855183D01*
X540683Y854845D01*
X540385Y853345D01*
Y853020D01*
X545900D01*
Y850480D01*
X540385D01*
Y850155D01*
X540683Y848655D01*
X541533Y847383D01*
X541502Y845325D01*
X541267Y844142D01*
Y841358D01*
X541502Y840175D01*
X542172Y839172D01*
X543175Y838502D01*
X543812Y838375D01*
Y832750D01*
X543989Y831858D01*
X544495Y831102D01*
X545251Y830597D01*
X545384Y830570D01*
X552669Y823285D01*
Y809465D01*
X550202Y806998D01*
X549954Y806922D01*
X546720Y807220D01*
X545648Y807936D01*
X544384Y808187D01*
Y811113D01*
X545648Y811364D01*
X546720Y812080D01*
X547436Y813152D01*
X547687Y814416D01*
Y817584D01*
X547436Y818848D01*
X546720Y819920D01*
X545648Y820636D01*
X544384Y820888D01*
X536337D01*
Y825862D01*
Y856127D01*
X538689Y858400D01*
X539912Y858368D01*
D02*
G37*
G36*
X728500Y940500D02*
X681500D01*
Y832000D01*
X702000D01*
Y773250D01*
X647581Y772948D01*
X646500Y774022D01*
Y981500D01*
X728500D01*
Y940500D01*
D02*
G37*
G36*
X787500Y963620D02*
X787476Y963531D01*
Y959969D01*
X787500Y959880D01*
Y772019D01*
X786410Y770953D01*
X744653Y771895D01*
X743855Y979670D01*
X744930Y980750D01*
X787500D01*
Y963620D01*
D02*
G37*
G36*
X811270Y743140D02*
X812102Y741131D01*
X808058Y737086D01*
X807440Y736162D01*
X807223Y735072D01*
X805170Y734099D01*
X804170Y733430D01*
X803501Y732430D01*
X803463Y732236D01*
X794327D01*
X794327Y740072D01*
X794327Y740473D01*
X794201Y740776D01*
X794201Y741105D01*
X793895Y741845D01*
X793662Y742077D01*
X793537Y742380D01*
X792970Y742947D01*
X792667Y743073D01*
X792435Y743305D01*
X792094Y743446D01*
X791789Y744842D01*
X791918Y746519D01*
X793262Y746910D01*
X795498Y747533D01*
X795625Y747598D01*
X795761Y747637D01*
X797819Y748708D01*
X799231Y749422D01*
X801613Y748492D01*
X802317Y747818D01*
X802544Y746674D01*
X803437Y745337D01*
X804774Y744444D01*
X806350Y744131D01*
X808730D01*
Y749750D01*
X811270D01*
Y743140D01*
D02*
G37*
G36*
X790662Y742087D02*
X791063Y742087D01*
X791804Y741781D01*
X792371Y741214D01*
X792677Y740473D01*
X792677Y740072D01*
X792677Y732236D01*
X786047D01*
X786047Y732236D01*
X784957Y732019D01*
X784033Y731401D01*
X784032Y731401D01*
X783670Y731038D01*
X783052Y730114D01*
X782835Y729024D01*
X783052Y727934D01*
X783670Y727010D01*
X784594Y726392D01*
X785684Y726175D01*
X786774Y726392D01*
X786993Y726538D01*
X792460D01*
X792397Y726385D01*
X791880Y725867D01*
X791203Y725587D01*
X790837Y725587D01*
X757067D01*
X756430Y725852D01*
X755941Y726340D01*
X755677Y726977D01*
Y727322D01*
Y740177D01*
X755677Y740557D01*
X755968Y741259D01*
X756505Y741797D01*
X757207Y742087D01*
X757587Y742087D01*
X790663Y742087D01*
X790662Y742087D01*
D02*
G37*
G36*
X348641Y650385D02*
X350501Y650140D01*
X364460D01*
X365830Y648771D01*
X366421Y648317D01*
X369569Y645169D01*
X371057Y644027D01*
X372790Y643309D01*
X374650Y643064D01*
X374793D01*
X376035Y640064D01*
X372870Y636899D01*
X364454D01*
X361695Y638405D01*
Y638730D01*
X356180D01*
Y640000D01*
X354910D01*
Y645515D01*
X354585D01*
X353085Y645217D01*
X351813Y644367D01*
X349155Y644248D01*
X347972Y644483D01*
X345758D01*
X344828Y645850D01*
X344422Y647390D01*
X346420Y649388D01*
X347536Y650843D01*
X348641Y650385D01*
D02*
G37*
G36*
X785030Y564923D02*
X785344D01*
X787004Y565253D01*
X787674Y565701D01*
X790172Y564776D01*
X790674Y564372D01*
Y555037D01*
X790187Y554835D01*
X788915Y553563D01*
X788226Y551900D01*
Y551063D01*
X785424Y549622D01*
X775642Y559404D01*
X775496Y559973D01*
X775720Y563087D01*
X775868Y563320D01*
X776159Y563611D01*
X776567Y564596D01*
X777321Y565070D01*
X778688Y565535D01*
X779848Y565699D01*
X780515Y565253D01*
X782176Y564923D01*
X782490D01*
Y571046D01*
X785030D01*
Y564923D01*
D02*
G37*
G36*
X289313Y594092D02*
X288486Y593264D01*
X287868Y592340D01*
X287651Y591250D01*
X287868Y590160D01*
X288486Y589236D01*
X289410Y588618D01*
X290500Y588401D01*
X291590Y588618D01*
X292514Y589236D01*
X293342Y590063D01*
X294750Y589480D01*
Y559500D01*
X277000D01*
Y595500D01*
X288730D01*
X289313Y594092D01*
D02*
G37*
G36*
X330000Y557000D02*
X330000Y546000D01*
X329913Y545884D01*
X329689Y545697D01*
X329429Y545567D01*
X329146Y545500D01*
X321750D01*
X320250Y547000D01*
X300250Y547000D01*
X299504D01*
X298126Y547571D01*
X297071Y548626D01*
X296500Y550004D01*
Y550750D01*
X296500Y550750D01*
X296500Y562500D01*
Y563345D01*
X297147Y564907D01*
X298342Y566103D01*
X299905Y566750D01*
X300750D01*
Y566750D01*
X320250D01*
X330000Y557000D01*
D02*
G37*
G36*
X504276Y537169D02*
X504210Y537070D01*
X503897Y535500D01*
Y532712D01*
X499823D01*
X499578Y533078D01*
X498575Y533748D01*
X497392Y533983D01*
X494608D01*
X493425Y533748D01*
X493207Y533602D01*
X492840Y533400D01*
X491409Y533265D01*
X489242Y533664D01*
X489099Y533760D01*
X487995Y533979D01*
X484805D01*
X483701Y533760D01*
X482766Y533134D01*
X482140Y532199D01*
X481921Y531095D01*
Y527905D01*
X482140Y526801D01*
X482766Y525865D01*
X483701Y525240D01*
X484244Y525132D01*
Y516774D01*
X483476D01*
Y507726D01*
X484419D01*
Y495774D01*
X479024Y495774D01*
X476281Y497950D01*
X476103Y498842D01*
X475598Y499598D01*
X470986Y504210D01*
X471913Y507210D01*
X473230D01*
Y512750D01*
Y518290D01*
X470381D01*
Y525207D01*
X470549Y525240D01*
X471485Y525865D01*
X472110Y526801D01*
X472329Y527905D01*
Y531095D01*
X472110Y532199D01*
X471485Y533135D01*
X470549Y533760D01*
X469445Y533979D01*
X466255D01*
X465151Y533760D01*
X465047Y533691D01*
X464965Y533708D01*
X464675Y534008D01*
X463901Y537099D01*
X464790Y538430D01*
X465103Y540000D01*
Y540169D01*
X502756D01*
X504276Y537169D01*
D02*
G37*
G36*
X535739Y530669D02*
X536661Y530103D01*
X538135Y529187D01*
X538669Y528593D01*
Y525297D01*
X538425Y525248D01*
X537422Y524578D01*
X536752Y523575D01*
X536517Y522392D01*
Y519608D01*
X536752Y518425D01*
X536898Y518207D01*
X537100Y517840D01*
X537189Y516893D01*
X535377Y514081D01*
X527524D01*
Y516524D01*
X522040D01*
Y517540D01*
X519020D01*
Y512000D01*
Y506460D01*
X521919D01*
Y497895D01*
X519798Y495774D01*
X517124Y495774D01*
X516176Y495774D01*
X507424D01*
X504424Y495774D01*
X503476Y495774D01*
X494724D01*
X491724Y495774D01*
X489081Y498072D01*
Y506710D01*
X491980D01*
Y512250D01*
Y517790D01*
X488960D01*
X488906Y520768D01*
Y524446D01*
X491696Y525708D01*
X492840Y525600D01*
X493207Y525398D01*
X493425Y525252D01*
X494608Y525017D01*
X497392D01*
X498575Y525252D01*
X499578Y525922D01*
X500248Y526925D01*
X500472Y528050D01*
X504797D01*
X505099Y527599D01*
X506430Y526710D01*
X508000Y526397D01*
X513000D01*
X514570Y526710D01*
X515901Y527599D01*
X516791Y528930D01*
X517103Y530500D01*
Y530669D01*
X535739D01*
D02*
G37*
%LPC*%
G36*
X553774Y1021024D02*
X528726D01*
Y1007501D01*
X525726Y1006697D01*
X525371Y1007313D01*
X524063Y1008621D01*
X522461Y1009545D01*
X520675Y1010024D01*
X518825D01*
X517039Y1009545D01*
X515437Y1008621D01*
X514129Y1007313D01*
X513205Y1005711D01*
X512726Y1003925D01*
Y1002075D01*
X513205Y1000289D01*
X514129Y998687D01*
X515437Y997379D01*
X517039Y996455D01*
X518825Y995976D01*
X520675D01*
X522461Y996455D01*
X524063Y997379D01*
X525371Y998687D01*
X525726Y999303D01*
X528726Y998499D01*
Y961976D01*
X553774D01*
Y1021024D01*
D02*
G37*
G36*
X463774D02*
X438726D01*
Y961976D01*
X463774D01*
Y998499D01*
X466774Y999303D01*
X467129Y998687D01*
X468437Y997379D01*
X470039Y996455D01*
X471825Y995976D01*
X473675D01*
X475461Y996455D01*
X477063Y997379D01*
X478371Y998687D01*
X479295Y1000289D01*
X479774Y1002075D01*
Y1003925D01*
X479295Y1005711D01*
X478371Y1007313D01*
X477063Y1008621D01*
X475461Y1009545D01*
X473675Y1010024D01*
X471825D01*
X470039Y1009545D01*
X468437Y1008621D01*
X467129Y1007313D01*
X466774Y1006697D01*
X463774Y1007501D01*
Y1021024D01*
D02*
G37*
G36*
X874874Y1014274D02*
X871126D01*
X867451Y1013543D01*
X863989Y1012109D01*
X860873Y1010027D01*
X858223Y1007377D01*
X856141Y1004261D01*
X854707Y1000799D01*
X853976Y997124D01*
Y993376D01*
X854707Y989701D01*
X856141Y986239D01*
X858223Y983123D01*
X860873Y980473D01*
X863989Y978391D01*
X867451Y976957D01*
X871126Y976226D01*
X874874D01*
X878549Y976957D01*
X882011Y978391D01*
X885127Y980473D01*
X887777Y983123D01*
X889859Y986239D01*
X891293Y989701D01*
X892024Y993376D01*
Y997124D01*
X891293Y1000799D01*
X889859Y1004261D01*
X887777Y1007377D01*
X885127Y1010027D01*
X882011Y1012109D01*
X878549Y1013543D01*
X874874Y1014274D01*
D02*
G37*
G36*
X296124D02*
X292376D01*
X288701Y1013543D01*
X285239Y1012109D01*
X282123Y1010027D01*
X279473Y1007377D01*
X277391Y1004261D01*
X275957Y1000799D01*
X275226Y997124D01*
Y993376D01*
X275957Y989701D01*
X277391Y986239D01*
X279473Y983123D01*
X282123Y980473D01*
X285239Y978391D01*
X288701Y976957D01*
X292376Y976226D01*
X296124D01*
X299799Y976957D01*
X303261Y978391D01*
X306377Y980473D01*
X309027Y983123D01*
X311109Y986239D01*
X312543Y989701D01*
X313274Y993376D01*
Y997124D01*
X312543Y1000799D01*
X311109Y1004261D01*
X309027Y1007377D01*
X306377Y1010027D01*
X303261Y1012109D01*
X299799Y1013543D01*
X296124Y1014274D01*
D02*
G37*
G36*
X516274Y967024D02*
X501226D01*
Y931976D01*
X516274D01*
Y931976D01*
X519187Y932415D01*
X520850Y931726D01*
X522650D01*
X524313Y932415D01*
X525585Y933687D01*
X526274Y935350D01*
Y937150D01*
X525585Y938813D01*
X524313Y940085D01*
X522650Y940774D01*
X520850D01*
X519656Y940279D01*
X516991Y941808D01*
Y943442D01*
X519656Y944971D01*
X520850Y944476D01*
X522650D01*
X524313Y945165D01*
X525585Y946437D01*
X526274Y948100D01*
Y949900D01*
X525585Y951563D01*
X524313Y952835D01*
X522650Y953524D01*
X520850D01*
X519187Y952835D01*
X516274Y954165D01*
Y967024D01*
D02*
G37*
G36*
X518380Y906230D02*
X514135D01*
Y905905D01*
X514433Y904405D01*
X515283Y903133D01*
X516555Y902283D01*
X518055Y901985D01*
X518380D01*
Y906230D01*
D02*
G37*
G36*
X436250Y888519D02*
X436020D01*
Y882020D01*
X440369D01*
Y884400D01*
X440056Y885976D01*
X439163Y887313D01*
X437826Y888206D01*
X436250Y888519D01*
D02*
G37*
G36*
X433480D02*
X433250D01*
X431674Y888206D01*
X430337Y887313D01*
X429444Y885976D01*
X429131Y884400D01*
Y882531D01*
X426766Y880922D01*
X426131Y880775D01*
X424485Y881103D01*
X393306D01*
X391335Y880711D01*
X389665Y879594D01*
X369230Y859160D01*
X359519D01*
X359356Y859981D01*
X358274Y861600D01*
Y870524D01*
X323226D01*
Y855476D01*
X349448D01*
Y855195D01*
X349840Y853224D01*
X350957Y851553D01*
X352010Y850500D01*
X350957Y849447D01*
X349840Y847776D01*
X349448Y845805D01*
Y845524D01*
X323226D01*
Y830476D01*
X358274D01*
Y839400D01*
X359356Y841019D01*
X359519Y841840D01*
X374272D01*
X376242Y842232D01*
X377913Y843348D01*
X398348Y863782D01*
X417913D01*
Y862437D01*
X418305Y860467D01*
X419421Y858796D01*
X420167Y858051D01*
Y857100D01*
X420401Y855920D01*
X420782Y855350D01*
Y852568D01*
X421064Y851150D01*
X420002Y849143D01*
X419202Y848150D01*
X415819D01*
X415651Y848401D01*
X414320Y849290D01*
X412750Y849603D01*
X407750D01*
X406180Y849290D01*
X404849Y848401D01*
X403960Y847070D01*
X403647Y845500D01*
Y840500D01*
X403960Y838930D01*
X404849Y837599D01*
X406180Y836710D01*
X407750Y836397D01*
X412750D01*
X414320Y836710D01*
X415651Y837599D01*
X415819Y837850D01*
X425090D01*
Y831245D01*
X423759Y829914D01*
X423690Y829811D01*
X423600Y829751D01*
X422908Y828715D01*
X422887Y828608D01*
X422642Y828243D01*
X422435Y827202D01*
X419435Y827494D01*
X419192Y828715D01*
X418500Y829751D01*
X417465Y830442D01*
X416244Y830685D01*
X413157D01*
X411935Y830442D01*
X410900Y829751D01*
X410208Y828715D01*
X409965Y827494D01*
Y815589D01*
X406998D01*
X406236Y816750D01*
X405681Y818589D01*
X406293Y819505D01*
X406623Y821166D01*
Y821480D01*
X400500D01*
X394377D01*
Y821166D01*
X394707Y819505D01*
X395648Y818098D01*
X395664Y816098D01*
X395412Y814834D01*
Y811666D01*
X395664Y810402D01*
X396380Y809330D01*
X397452Y808614D01*
X398036Y808498D01*
Y804980D01*
X397687Y804835D01*
X396415Y803563D01*
X395726Y801900D01*
Y800100D01*
X396415Y798437D01*
X397687Y797165D01*
X399350Y796476D01*
X401150D01*
X402813Y797165D01*
X404085Y798437D01*
X404774Y800100D01*
Y801900D01*
X404085Y803563D01*
X402813Y804835D01*
X402714Y804876D01*
Y808448D01*
X403548Y808614D01*
X404620Y809330D01*
X405336Y810402D01*
X405437Y810911D01*
X409965D01*
Y810006D01*
X410208Y808785D01*
X410900Y807749D01*
X411935Y807058D01*
X413157Y806815D01*
X416244D01*
X417465Y807058D01*
X418500Y807749D01*
X419192Y808785D01*
X419435Y810006D01*
Y813856D01*
X422435Y815066D01*
X422665Y814828D01*
Y810006D01*
X422908Y808785D01*
X423600Y807749D01*
X424635Y807058D01*
X425857Y806815D01*
X428943D01*
X430165Y807058D01*
X431200Y807749D01*
X431892Y808785D01*
X432135Y810006D01*
Y813160D01*
X435135Y814370D01*
X435365Y814131D01*
Y810006D01*
X435608Y808785D01*
X436300Y807749D01*
X437335Y807058D01*
X438557Y806815D01*
X441643D01*
X442865Y807058D01*
X443900Y807749D01*
X444300Y808347D01*
X446399Y808395D01*
X447506Y808156D01*
X448267Y807017D01*
X449639Y806101D01*
X451256Y805779D01*
X451530D01*
Y818750D01*
Y831721D01*
X451256D01*
X449639Y831399D01*
X448267Y830483D01*
X447506Y829344D01*
X446399Y829105D01*
X444300Y829153D01*
X443900Y829751D01*
X443810Y829811D01*
X443741Y829914D01*
X442410Y831245D01*
Y837600D01*
X452264D01*
X452599Y837099D01*
X453930Y836209D01*
X455500Y835897D01*
X460500D01*
X462070Y836209D01*
X463401Y837099D01*
X464291Y838430D01*
X464603Y840000D01*
Y845000D01*
X464291Y846570D01*
X463401Y847901D01*
X462070Y848791D01*
X460500Y849103D01*
X455500D01*
X453930Y848791D01*
X452599Y847901D01*
X452598Y847900D01*
X448616D01*
X447951Y848847D01*
X447287Y850900D01*
X448024Y852002D01*
X448416Y853973D01*
X448416Y853973D01*
Y854911D01*
X448430Y854920D01*
X449099Y855920D01*
X449333Y857100D01*
Y858518D01*
X449508Y858779D01*
X449900Y860750D01*
X449508Y862721D01*
X449333Y862982D01*
Y864400D01*
X449099Y865580D01*
X448430Y866580D01*
X447430Y867249D01*
X446250Y867483D01*
X443250D01*
X442070Y867249D01*
X441070Y866580D01*
X440913Y866565D01*
X437339Y870139D01*
X437692Y872428D01*
X438168Y873523D01*
X439163Y874187D01*
X440056Y875524D01*
X440369Y877100D01*
Y879480D01*
X434750D01*
Y880750D01*
X433480D01*
Y888519D01*
D02*
G37*
G36*
X525718Y887062D02*
X522075D01*
Y884428D01*
X522365Y882970D01*
X523190Y881734D01*
X524426Y880909D01*
X525718Y880652D01*
Y887062D01*
D02*
G37*
G36*
X504308Y880887D02*
X503983D01*
X502483Y880589D01*
X501211Y879739D01*
X500361Y878467D01*
X500063Y876967D01*
Y876642D01*
X504308D01*
Y880887D01*
D02*
G37*
G36*
X328274Y908024D02*
X269226D01*
Y882976D01*
X282749D01*
X283553Y879976D01*
X282937Y879621D01*
X281629Y878313D01*
X280705Y876711D01*
X280226Y874925D01*
Y873075D01*
X280705Y871289D01*
X281629Y869687D01*
X282937Y868379D01*
X284539Y867455D01*
X286325Y866976D01*
X288175D01*
X289961Y867455D01*
X291563Y868379D01*
X292871Y869687D01*
X293795Y871289D01*
X294274Y873075D01*
Y874925D01*
X293795Y876711D01*
X292871Y878313D01*
X291563Y879621D01*
X290947Y879976D01*
X291751Y882976D01*
X328274D01*
Y908024D01*
D02*
G37*
G36*
X573730Y835123D02*
X573416D01*
X571755Y834793D01*
X570348Y833852D01*
X569407Y832445D01*
X569077Y830784D01*
Y830270D01*
X573730D01*
Y835123D01*
D02*
G37*
G36*
X511480Y832623D02*
X511166D01*
X509505Y832293D01*
X508098Y831352D01*
X507157Y829945D01*
X506827Y828284D01*
Y827770D01*
X511480D01*
Y832623D01*
D02*
G37*
G36*
X402284Y828673D02*
X401770D01*
Y824020D01*
X406623D01*
Y824334D01*
X406293Y825995D01*
X405352Y827402D01*
X403945Y828343D01*
X402284Y828673D01*
D02*
G37*
G36*
X399230D02*
X398716D01*
X397055Y828343D01*
X395648Y827402D01*
X394707Y825995D01*
X394377Y824334D01*
Y824020D01*
X399230D01*
Y828673D01*
D02*
G37*
G36*
X454343Y831721D02*
X454070D01*
Y820020D01*
X458571D01*
Y827494D01*
X458249Y829111D01*
X457333Y830483D01*
X455961Y831399D01*
X454343Y831721D01*
D02*
G37*
G36*
X359290Y821540D02*
X342020D01*
Y814270D01*
X359290D01*
Y821540D01*
D02*
G37*
G36*
X339480D02*
X322210D01*
Y814270D01*
X339480D01*
Y821540D01*
D02*
G37*
G36*
X458571Y817480D02*
X454070D01*
Y805779D01*
X454343D01*
X455961Y806101D01*
X457333Y807017D01*
X458249Y808389D01*
X458571Y810006D01*
Y817480D01*
D02*
G37*
G36*
X359290Y811730D02*
X342020D01*
Y804460D01*
X359290D01*
Y811730D01*
D02*
G37*
G36*
X339480D02*
X322210D01*
Y804460D01*
X339480D01*
Y811730D01*
D02*
G37*
G36*
X441643Y782185D02*
X438557D01*
X437335Y781942D01*
X436300Y781251D01*
X435608Y780215D01*
X435365Y778994D01*
Y773099D01*
X432135D01*
Y778994D01*
X431892Y780215D01*
X431200Y781251D01*
X430165Y781942D01*
X428943Y782185D01*
X425857D01*
X424635Y781942D01*
X423600Y781251D01*
X422908Y780215D01*
X422665Y778994D01*
Y761507D01*
X422908Y760285D01*
X423600Y759250D01*
X423962Y759007D01*
X424676Y758356D01*
X425183Y755845D01*
X424885Y754345D01*
Y754020D01*
X430400D01*
Y752750D01*
X431670D01*
Y747235D01*
X431995D01*
X433495Y747533D01*
X434468Y748183D01*
X435848Y747840D01*
X437468Y747026D01*
Y740202D01*
X437187Y740085D01*
X435915Y738813D01*
X435226Y737150D01*
Y735350D01*
X435915Y733687D01*
X437187Y732415D01*
X438850Y731726D01*
X440650D01*
X442313Y732415D01*
X443585Y733687D01*
X444274Y735350D01*
Y737150D01*
X443585Y738813D01*
X442313Y740085D01*
X442130Y740161D01*
Y748413D01*
X442575Y748502D01*
X443578Y749172D01*
X444248Y750175D01*
X444483Y751358D01*
Y754142D01*
X444248Y755325D01*
X443837Y755941D01*
X443834Y758646D01*
X443900Y759250D01*
X444592Y760285D01*
X444835Y761507D01*
Y778994D01*
X444592Y780215D01*
X443900Y781251D01*
X442865Y781942D01*
X441643Y782185D01*
D02*
G37*
G36*
X534780Y776630D02*
X523377D01*
Y776316D01*
X523707Y774655D01*
X524648Y773248D01*
X526055Y772307D01*
X527716Y771977D01*
X534780D01*
Y776630D01*
D02*
G37*
G36*
X288175Y809024D02*
X286325D01*
X284539Y808545D01*
X282937Y807621D01*
X281629Y806313D01*
X280705Y804711D01*
X280226Y802925D01*
Y801075D01*
X280705Y799289D01*
X281629Y797687D01*
X282937Y796379D01*
X283553Y796024D01*
X282749Y793024D01*
X269226D01*
Y767976D01*
X328274D01*
Y793024D01*
X291751D01*
X290947Y796024D01*
X291563Y796379D01*
X292871Y797687D01*
X293795Y799289D01*
X294274Y801075D01*
Y802925D01*
X293795Y804711D01*
X292871Y806313D01*
X291563Y807621D01*
X289961Y808545D01*
X288175Y809024D01*
D02*
G37*
G36*
X416244Y782185D02*
X413157D01*
X411935Y781942D01*
X410900Y781251D01*
X410208Y780215D01*
X409965Y778994D01*
Y763534D01*
X409148Y762888D01*
X407055Y762244D01*
X406801Y762392D01*
X406274Y763152D01*
Y764650D01*
X405585Y766313D01*
X404313Y767585D01*
X402650Y768274D01*
X400850D01*
X399187Y767585D01*
X397915Y766313D01*
X397226Y764650D01*
Y762850D01*
X397915Y761187D01*
X399187Y759915D01*
X400547Y759352D01*
X401067Y757938D01*
X401354Y756226D01*
X400752Y755325D01*
X400517Y754142D01*
Y751358D01*
X400752Y750175D01*
X401422Y749172D01*
X402425Y748502D01*
X403608Y748267D01*
X406392D01*
X407575Y748502D01*
X407793Y748648D01*
X408160Y748850D01*
X409492Y748976D01*
X412261Y748239D01*
Y743853D01*
X412000D01*
X410430Y743540D01*
X409099Y742651D01*
X408209Y741320D01*
X407897Y739750D01*
Y734750D01*
X408209Y733180D01*
X409099Y731849D01*
X410430Y730959D01*
X412000Y730647D01*
X417000D01*
X417767Y730800D01*
X423032Y725535D01*
X422976Y725400D01*
Y723600D01*
X423665Y721937D01*
X424937Y720665D01*
X426600Y719976D01*
X428400D01*
X430063Y720665D01*
X431335Y721937D01*
X432024Y723600D01*
Y725400D01*
X431335Y727063D01*
X430063Y728335D01*
X428400Y729024D01*
X426600D01*
X426288Y728895D01*
X420992Y734191D01*
X421103Y734750D01*
Y739750D01*
X420790Y741320D01*
X419901Y742651D01*
X418570Y743540D01*
X417000Y743853D01*
X416939D01*
Y748419D01*
X417299Y748490D01*
X418234Y749115D01*
X418860Y750051D01*
X419079Y751155D01*
Y754345D01*
X418860Y755449D01*
X418533Y755938D01*
X418529Y755947D01*
X418501Y759206D01*
X418635Y759451D01*
X419192Y760285D01*
X419435Y761507D01*
Y778994D01*
X419192Y780215D01*
X418500Y781251D01*
X417465Y781942D01*
X416244Y782185D01*
D02*
G37*
G36*
X429130Y751480D02*
X424885D01*
Y751155D01*
X425183Y749655D01*
X426033Y748383D01*
X427305Y747533D01*
X428805Y747235D01*
X429130D01*
Y751480D01*
D02*
G37*
G36*
X454343Y782185D02*
X451256D01*
X450035Y781942D01*
X448999Y781251D01*
X448308Y780215D01*
X448065Y778994D01*
Y761507D01*
X448308Y760285D01*
X448999Y759250D01*
X450035Y758558D01*
X450469Y758471D01*
Y742898D01*
X449930Y742791D01*
X448599Y741901D01*
X447710Y740570D01*
X447397Y739000D01*
Y734000D01*
X447710Y732430D01*
X448599Y731099D01*
X449930Y730210D01*
X451500Y729897D01*
X456500D01*
X458070Y730210D01*
X459401Y731099D01*
X460290Y732430D01*
X460603Y734000D01*
Y734169D01*
X464569D01*
X464665Y733937D01*
X465937Y732665D01*
X467600Y731976D01*
X469400D01*
X471063Y732665D01*
X472335Y733937D01*
X473024Y735600D01*
Y737400D01*
X472335Y739063D01*
X471063Y740335D01*
X469400Y741024D01*
X467600D01*
X465937Y740335D01*
X464665Y739063D01*
X464569Y738831D01*
X460603D01*
Y739000D01*
X460290Y740570D01*
X459401Y741901D01*
X458070Y742791D01*
X456500Y743103D01*
X455131D01*
Y758471D01*
X455565Y758558D01*
X456600Y759250D01*
X457292Y760285D01*
X457535Y761507D01*
Y778994D01*
X457292Y780215D01*
X456600Y781251D01*
X455565Y781942D01*
X454343Y782185D01*
D02*
G37*
G36*
X794753Y718254D02*
X786954D01*
Y713955D01*
X790629D01*
X792207Y714269D01*
X793545Y715163D01*
X794439Y716500D01*
X794753Y718079D01*
Y718254D01*
D02*
G37*
G36*
X784414D02*
X776615D01*
Y718079D01*
X776928Y716500D01*
X777822Y715163D01*
X779160Y714269D01*
X780738Y713955D01*
X784414D01*
Y718254D01*
D02*
G37*
G36*
X737630Y717730D02*
X733385D01*
Y717405D01*
X733683Y715905D01*
X734533Y714633D01*
X735805Y713783D01*
X737305Y713485D01*
X737630D01*
Y717730D01*
D02*
G37*
G36*
X330750Y708855D02*
X326520D01*
Y702520D01*
X338188D01*
X338096Y703218D01*
X337336Y705052D01*
X336128Y706628D01*
X334552Y707836D01*
X332718Y708596D01*
X330750Y708855D01*
D02*
G37*
G36*
X323980D02*
X319750D01*
X317782Y708596D01*
X315947Y707836D01*
X314372Y706628D01*
X313164Y705052D01*
X312404Y703218D01*
X312312Y702520D01*
X323980D01*
Y708855D01*
D02*
G37*
G36*
X289950Y708889D02*
X284720D01*
Y702520D01*
X295089D01*
Y703750D01*
X294698Y705716D01*
X293584Y707384D01*
X291917Y708497D01*
X289950Y708889D01*
D02*
G37*
G36*
X282180D02*
X276950D01*
X274984Y708497D01*
X273316Y707384D01*
X272202Y705716D01*
X271811Y703750D01*
Y702520D01*
X282180D01*
Y708889D01*
D02*
G37*
G36*
X295089Y699980D02*
X284720D01*
Y693611D01*
X289950D01*
X291917Y694002D01*
X293584Y695116D01*
X294698Y696784D01*
X295089Y698750D01*
Y699980D01*
D02*
G37*
G36*
X282180D02*
X271811D01*
Y698750D01*
X272202Y696784D01*
X273316Y695116D01*
X274984Y694002D01*
X276950Y693611D01*
X282180D01*
Y699980D01*
D02*
G37*
G36*
X743330Y658482D02*
X742816D01*
X741156Y658151D01*
X739748Y657211D01*
X738807Y655803D01*
X738477Y654142D01*
Y653828D01*
X743330D01*
Y658482D01*
D02*
G37*
G36*
X757306Y658228D02*
X756792D01*
Y653574D01*
X761646D01*
Y653888D01*
X761315Y655549D01*
X760375Y656957D01*
X758967Y657897D01*
X757306Y658228D01*
D02*
G37*
G36*
X683982Y636718D02*
X683468D01*
X681807Y636387D01*
X680399Y635447D01*
X679459Y634039D01*
X679128Y632378D01*
Y632064D01*
X683982D01*
Y636718D01*
D02*
G37*
G36*
X431730Y634873D02*
X431416D01*
X429755Y634543D01*
X428348Y633602D01*
X427407Y632195D01*
X427077Y630534D01*
Y630020D01*
X431730D01*
Y634873D01*
D02*
G37*
G36*
X501808Y634635D02*
X501494D01*
X499833Y634305D01*
X498426Y633364D01*
X497485Y631957D01*
X497155Y630296D01*
Y629782D01*
X501808D01*
Y634635D01*
D02*
G37*
G36*
X783634Y622450D02*
X783320D01*
Y617596D01*
X787973D01*
Y618110D01*
X787643Y619771D01*
X786702Y621179D01*
X785294Y622119D01*
X783634Y622450D01*
D02*
G37*
G36*
X289950Y622489D02*
X284720D01*
Y616120D01*
X295089D01*
Y617350D01*
X294698Y619316D01*
X293584Y620984D01*
X291917Y622098D01*
X289950Y622489D01*
D02*
G37*
G36*
X282180D02*
X276950D01*
X274984Y622098D01*
X273316Y620984D01*
X272202Y619316D01*
X271811Y617350D01*
Y616120D01*
X282180D01*
Y622489D01*
D02*
G37*
G36*
X434584Y634873D02*
X434270D01*
Y628750D01*
X433000D01*
Y627480D01*
X427077D01*
Y626966D01*
X427407Y625305D01*
X428348Y623898D01*
X429755Y622957D01*
X431416Y622627D01*
X432512D01*
X433321Y621615D01*
X434370Y619627D01*
X434213Y618841D01*
Y615091D01*
X434477Y613765D01*
X435229Y612640D01*
X436353Y611889D01*
X437679Y611625D01*
X447929D01*
X449255Y611889D01*
X451750Y611250D01*
X452785Y610558D01*
X454007Y610315D01*
X471493D01*
X472715Y610558D01*
X473750Y611250D01*
X474442Y612285D01*
X474685Y613507D01*
Y616594D01*
X474442Y617815D01*
X473750Y618851D01*
X472715Y619542D01*
X471493Y619785D01*
X454007D01*
X451131Y620167D01*
X450379Y621292D01*
X449255Y622043D01*
X448169Y622259D01*
X447742Y622838D01*
X446872Y625307D01*
X447136Y625702D01*
X447388Y626966D01*
Y630534D01*
X447136Y631798D01*
X446420Y632870D01*
X445348Y633586D01*
X444084Y633838D01*
X440916D01*
X439652Y633586D01*
X437652Y633602D01*
X436245Y634543D01*
X434584Y634873D01*
D02*
G37*
G36*
X338188Y613580D02*
X326520D01*
Y607245D01*
X330750D01*
X332718Y607504D01*
X334552Y608264D01*
X336128Y609472D01*
X337336Y611048D01*
X338096Y612882D01*
X338188Y613580D01*
D02*
G37*
G36*
X323980D02*
X312312D01*
X312404Y612882D01*
X313164Y611048D01*
X314372Y609472D01*
X315947Y608264D01*
X317782Y607504D01*
X319750Y607245D01*
X323980D01*
Y613580D01*
D02*
G37*
G36*
X295089D02*
X284720D01*
Y607211D01*
X289950D01*
X291917Y607602D01*
X293584Y608716D01*
X294698Y610383D01*
X295089Y612350D01*
Y613580D01*
D02*
G37*
G36*
X282180D02*
X271811D01*
Y612350D01*
X272202Y610383D01*
X273316Y608716D01*
X274984Y607602D01*
X276950Y607211D01*
X282180D01*
Y613580D01*
D02*
G37*
G36*
X787929Y604482D02*
X783276D01*
Y599629D01*
X783590D01*
X785250Y599959D01*
X786658Y600900D01*
X787599Y602308D01*
X787929Y603968D01*
Y604482D01*
D02*
G37*
G36*
X447929Y607807D02*
X437679D01*
X436353Y607543D01*
X435229Y606791D01*
X434477Y605667D01*
X434213Y604341D01*
Y600591D01*
X434477Y599265D01*
X435229Y598140D01*
X435549Y597370D01*
X434020Y595513D01*
Y588750D01*
Y582627D01*
X434334D01*
X435995Y582957D01*
X437402Y583898D01*
X439402Y583914D01*
X440666Y583662D01*
X443834D01*
X445098Y583914D01*
X446170Y584630D01*
X446886Y585702D01*
X447137Y586966D01*
Y590534D01*
X446886Y591798D01*
X446170Y592870D01*
X445098Y593586D01*
X444581Y593689D01*
Y597125D01*
X447929D01*
X449255Y597389D01*
X451750Y598550D01*
X452785Y597858D01*
X452785Y597858D01*
X454007Y597615D01*
X471493D01*
X472715Y597858D01*
X473750Y598550D01*
X474442Y599585D01*
X474685Y600807D01*
Y603894D01*
X474442Y605115D01*
X473750Y606151D01*
X472715Y606842D01*
X471493Y607085D01*
X454007D01*
X452785Y606842D01*
X452785Y606842D01*
X451750Y606151D01*
X449255Y607543D01*
X447929Y607807D01*
D02*
G37*
G36*
X385500Y597150D02*
X384833Y597150D01*
X367250D01*
X366084Y596666D01*
X365600Y595500D01*
Y592373D01*
X362637Y592284D01*
X362386Y593548D01*
X361670Y594620D01*
X360598Y595336D01*
X359334Y595588D01*
X356166D01*
X354902Y595336D01*
X353830Y594620D01*
X352170D01*
X351098Y595336D01*
X349834Y595588D01*
X346666D01*
X345402Y595336D01*
X344330Y594620D01*
X343614Y593548D01*
X343363Y592284D01*
Y588716D01*
X343614Y587452D01*
X342889Y586037D01*
X340825Y584748D01*
X339642Y584983D01*
X336858D01*
X335675Y584748D01*
X333017Y584867D01*
X331745Y585717D01*
X330245Y586015D01*
X329920D01*
Y580500D01*
Y574985D01*
X330245D01*
X331745Y575283D01*
X333017Y576133D01*
X335675Y576252D01*
X335905Y576206D01*
X336682Y573464D01*
X336656Y573100D01*
X336515Y573005D01*
X335418Y571364D01*
X335033Y569427D01*
Y568020D01*
X342420D01*
Y565480D01*
X335033D01*
Y564072D01*
X335418Y562136D01*
X336515Y560495D01*
X338156Y559398D01*
X340093Y559013D01*
X341441D01*
X341941Y558362D01*
X342770Y556013D01*
X342709Y555921D01*
X342528Y555014D01*
Y553414D01*
X342709Y552507D01*
X342490Y550922D01*
X341752Y549817D01*
X341586Y548984D01*
X346898D01*
Y546444D01*
X341586D01*
X341752Y545611D01*
X342505Y544360D01*
X342590Y543556D01*
X342476Y543280D01*
X342476Y542952D01*
X342350Y542649D01*
X342350Y542500D01*
X342350Y542500D01*
X342350Y542500D01*
X342350Y539500D01*
Y525750D01*
X342350Y525750D01*
X342350Y525452D01*
X342476Y525149D01*
X342476Y524820D01*
X342476Y524820D01*
X342704Y524269D01*
X342936Y524037D01*
X343062Y523734D01*
X343484Y523312D01*
X343787Y523186D01*
X344019Y522954D01*
X344570Y522726D01*
X344570Y522726D01*
X344608Y522726D01*
X344898Y522726D01*
X345202Y522600D01*
X359250Y522600D01*
X382000D01*
X382000Y522601D01*
X382199D01*
X382502Y522726D01*
X382830Y522726D01*
X382830Y522726D01*
X383198Y522878D01*
X383430Y523110D01*
X383733Y523236D01*
X384014Y523517D01*
X384140Y523820D01*
X384372Y524052D01*
X384524Y524420D01*
X384524Y524420D01*
X384524Y524748D01*
X384650Y525051D01*
X384650Y536250D01*
X384649Y536250D01*
X384650Y536498D01*
X384524Y536801D01*
X384524Y537130D01*
X384334Y537589D01*
X384102Y537821D01*
X384000Y538067D01*
Y544597D01*
X384128Y544726D01*
X385047Y545106D01*
X385279Y545339D01*
X385583Y545464D01*
X386286Y546167D01*
X386412Y546470D01*
X386643Y546703D01*
X387024Y547621D01*
X387024Y547950D01*
X387150Y548253D01*
X387150Y548750D01*
X387150Y594833D01*
X387150Y595500D01*
X387150Y595500D01*
X386666Y596666D01*
X385500Y597150D01*
X385500Y597150D01*
D02*
G37*
G36*
X406040Y596040D02*
X400770D01*
Y590770D01*
X406040D01*
Y596040D01*
D02*
G37*
G36*
X398230D02*
X392960D01*
Y590770D01*
X398230D01*
Y596040D01*
D02*
G37*
G36*
X431480Y594873D02*
X431166D01*
X429505Y594543D01*
X428098Y593602D01*
X427157Y592195D01*
X426827Y590534D01*
Y590020D01*
X431480D01*
Y594873D01*
D02*
G37*
G36*
X406040Y588230D02*
X400770D01*
Y582960D01*
X406040D01*
Y588230D01*
D02*
G37*
G36*
X398230D02*
X392960D01*
Y582960D01*
X398230D01*
Y588230D01*
D02*
G37*
G36*
X431480Y587480D02*
X426827D01*
Y586966D01*
X427157Y585305D01*
X428098Y583898D01*
X429505Y582957D01*
X431166Y582627D01*
X431480D01*
Y587480D01*
D02*
G37*
G36*
X327380Y586015D02*
X327055D01*
X325555Y585717D01*
X324283Y584867D01*
X323433Y583595D01*
X323135Y582095D01*
Y581770D01*
X327380D01*
Y586015D01*
D02*
G37*
G36*
X471493Y594385D02*
X454007D01*
X452785Y594142D01*
X451750Y593451D01*
X451058Y592415D01*
X450815Y591194D01*
Y588106D01*
X451058Y586885D01*
X451750Y585850D01*
X452348Y585450D01*
X452395Y583351D01*
X452156Y582244D01*
X451017Y581483D01*
X450101Y580111D01*
X449779Y578493D01*
Y578220D01*
X462750D01*
X475721D01*
Y578493D01*
X475399Y580111D01*
X474483Y581483D01*
X473344Y582244D01*
X473105Y583351D01*
X473153Y585450D01*
X473750Y585850D01*
X474442Y586885D01*
X474685Y588106D01*
Y591194D01*
X474442Y592415D01*
X473750Y593451D01*
X472715Y594142D01*
X471493Y594385D01*
D02*
G37*
G36*
X327380Y579230D02*
X323135D01*
Y578905D01*
X323433Y577405D01*
X324283Y576133D01*
X325555Y575283D01*
X327055Y574985D01*
X327380D01*
Y579230D01*
D02*
G37*
G36*
X302072Y579139D02*
X301758D01*
Y574286D01*
X306411D01*
Y574800D01*
X306081Y576461D01*
X305140Y577868D01*
X303733Y578809D01*
X302072Y579139D01*
D02*
G37*
G36*
X475721Y575680D02*
X464020D01*
Y571179D01*
X471493D01*
X473111Y571501D01*
X474483Y572417D01*
X475399Y573789D01*
X475721Y575406D01*
Y575680D01*
D02*
G37*
G36*
X461480D02*
X449779D01*
Y575406D01*
X450101Y573789D01*
X451017Y572417D01*
X452389Y571501D01*
X454007Y571179D01*
X461480D01*
Y575680D01*
D02*
G37*
G36*
X289210Y550410D02*
X284557D01*
Y549896D01*
X284887Y548235D01*
X285828Y546828D01*
X287235Y545887D01*
X288896Y545557D01*
X289210D01*
Y550410D01*
D02*
G37*
G36*
X678980Y547230D02*
X674327D01*
Y546716D01*
X674657Y545055D01*
X675598Y543648D01*
X677005Y542707D01*
X678666Y542377D01*
X678980D01*
Y547230D01*
D02*
G37*
G36*
X332610Y539944D02*
X328568D01*
Y537009D01*
X329298D01*
X330601Y537268D01*
X331706Y538006D01*
X332444Y539111D01*
X332610Y539944D01*
D02*
G37*
G36*
X313980Y536150D02*
X307513D01*
Y535093D01*
X307898Y533156D01*
X308995Y531515D01*
X310636Y530418D01*
X312572Y530033D01*
X313980D01*
Y536150D01*
D02*
G37*
G36*
X821540Y529730D02*
X816270D01*
Y524460D01*
X821540D01*
Y529730D01*
D02*
G37*
G36*
X712730Y523873D02*
X712416D01*
X710755Y523543D01*
X709348Y522602D01*
X708407Y521195D01*
X708077Y519534D01*
Y519020D01*
X712730D01*
Y523873D01*
D02*
G37*
G36*
Y516480D02*
X708077D01*
Y515966D01*
X708407Y514305D01*
X709348Y512898D01*
X710755Y511957D01*
X712416Y511627D01*
X712730D01*
Y516480D01*
D02*
G37*
G36*
X806873Y514980D02*
X802020D01*
Y510327D01*
X802534D01*
X804195Y510657D01*
X805602Y511598D01*
X806543Y513005D01*
X806873Y514666D01*
Y514980D01*
D02*
G37*
G36*
X595490Y531274D02*
X577942D01*
Y518290D01*
X577942Y518226D01*
X577787Y515290D01*
X576926D01*
Y509020D01*
X586716D01*
X596506D01*
Y515290D01*
X595644D01*
X595490Y518226D01*
X595490Y518290D01*
Y531274D01*
D02*
G37*
G36*
X646990Y514274D02*
X629442D01*
Y501226D01*
X646990D01*
Y514274D01*
D02*
G37*
G36*
X749623Y500480D02*
X744770D01*
Y495827D01*
X745284D01*
X746945Y496157D01*
X748352Y497098D01*
X749293Y498505D01*
X749623Y500166D01*
Y500480D01*
D02*
G37*
G36*
X742230D02*
X737377D01*
Y500166D01*
X737707Y498505D01*
X738648Y497098D01*
X740055Y496157D01*
X741716Y495827D01*
X742230D01*
Y500480D01*
D02*
G37*
G36*
X778176Y492224D02*
X773522D01*
Y487371D01*
X773836D01*
X775497Y487701D01*
X776905Y488642D01*
X777845Y490050D01*
X778176Y491710D01*
Y492224D01*
D02*
G37*
G36*
X585364Y490088D02*
X580710D01*
Y489574D01*
X581041Y487914D01*
X581982Y486506D01*
X583389Y485565D01*
X585050Y485235D01*
X585364D01*
Y490088D01*
D02*
G37*
G36*
X712980Y489873D02*
X712666D01*
X711005Y489543D01*
X709598Y488602D01*
X708657Y487195D01*
X708327Y485534D01*
Y485020D01*
X712980D01*
Y489873D01*
D02*
G37*
G36*
Y482480D02*
X708327D01*
Y481966D01*
X708657Y480305D01*
X709598Y478898D01*
X711005Y477957D01*
X712666Y477627D01*
X712980D01*
Y482480D01*
D02*
G37*
G36*
X505440Y457790D02*
X503897Y457790D01*
X500370D01*
Y443250D01*
Y428710D01*
X505440Y428710D01*
X508019Y429726D01*
X516176D01*
X519176Y429726D01*
X520124Y429726D01*
X529824D01*
Y456774D01*
X520124D01*
X517124Y456774D01*
X516176Y456774D01*
X508019D01*
X505440Y457790D01*
D02*
G37*
G36*
X492760D02*
X489760Y457790D01*
X487670D01*
Y443250D01*
Y428710D01*
X489760D01*
X492740Y428710D01*
X495740Y428710D01*
X497830D01*
Y443250D01*
Y457790D01*
X495740D01*
X492760Y457790D01*
D02*
G37*
G36*
X874874Y472524D02*
X871126D01*
X867451Y471793D01*
X863989Y470359D01*
X860873Y468277D01*
X858223Y465627D01*
X856141Y462511D01*
X854707Y459049D01*
X853976Y455374D01*
Y451626D01*
X854707Y447951D01*
X856141Y444489D01*
X858223Y441373D01*
X860873Y438723D01*
X863989Y436641D01*
X867451Y435207D01*
X871126Y434476D01*
X874874D01*
X878549Y435207D01*
X882011Y436641D01*
X885127Y438723D01*
X887777Y441373D01*
X889859Y444489D01*
X891293Y447951D01*
X892024Y451626D01*
Y455374D01*
X891293Y459049D01*
X889859Y462511D01*
X887777Y465627D01*
X885127Y468277D01*
X882011Y470359D01*
X878549Y471793D01*
X874874Y472524D01*
D02*
G37*
G36*
X296124D02*
X292376D01*
X288701Y471793D01*
X285239Y470359D01*
X282123Y468277D01*
X279473Y465627D01*
X277391Y462511D01*
X275957Y459049D01*
X275226Y455374D01*
Y451626D01*
X275957Y447951D01*
X277391Y444489D01*
X279473Y441373D01*
X282123Y438723D01*
X285239Y436641D01*
X288701Y435207D01*
X292376Y434476D01*
X296124D01*
X299799Y435207D01*
X303261Y436641D01*
X306377Y438723D01*
X309027Y441373D01*
X311109Y444489D01*
X312543Y447951D01*
X313274Y451626D01*
Y455374D01*
X312543Y459049D01*
X311109Y462511D01*
X309027Y465627D01*
X306377Y468277D01*
X303261Y470359D01*
X299799Y471793D01*
X296124Y472524D01*
D02*
G37*
G36*
X405024Y579024D02*
X393976D01*
Y567976D01*
X394609D01*
X395485Y565589D01*
X395604Y564976D01*
X395002Y564075D01*
X394767Y562892D01*
Y560108D01*
X395002Y558925D01*
X395148Y558707D01*
X395350Y558340D01*
X395485Y556909D01*
X395086Y554742D01*
X394990Y554599D01*
X394771Y553495D01*
Y550305D01*
X394990Y549201D01*
X395615Y548265D01*
X396551Y547640D01*
X397655Y547421D01*
X400845D01*
X401949Y547640D01*
X402155Y547778D01*
X403000Y548252D01*
X405937Y547915D01*
X406161Y547822D01*
Y489500D01*
X406339Y488605D01*
X406846Y487846D01*
X452346Y442346D01*
X453105Y441839D01*
X454000Y441661D01*
X468376D01*
Y429726D01*
X477481D01*
X480060Y428710D01*
X481603Y428710D01*
X485130D01*
Y443250D01*
Y457790D01*
X480060Y457790D01*
X477481Y456774D01*
X468376D01*
Y446339D01*
X454969D01*
X410839Y490469D01*
Y547822D01*
X411063Y547915D01*
X412335Y549187D01*
X413024Y550850D01*
Y552650D01*
X412335Y554313D01*
X411063Y555585D01*
X409400Y556274D01*
X407600D01*
X406131Y555665D01*
X406127Y555664D01*
X405271Y555788D01*
X403405Y558034D01*
X403261Y558541D01*
X403352Y558707D01*
X403498Y558925D01*
X403733Y560108D01*
Y562892D01*
X403498Y564075D01*
X402896Y564976D01*
X403015Y565589D01*
X403891Y567976D01*
X405024D01*
Y579024D01*
D02*
G37*
%LPD*%
G36*
X385500Y548750D02*
X385500Y548253D01*
X385120Y547334D01*
X384416Y546631D01*
X383497Y546250D01*
X383166D01*
X383000Y546250D01*
X362500D01*
X362052Y546250D01*
X361226Y546592D01*
X360592Y547225D01*
X360250Y548052D01*
X360250Y548500D01*
Y548500D01*
X360250Y561500D01*
X354750Y561500D01*
X354284D01*
X353424Y561856D01*
X352766Y562515D01*
X352409Y563375D01*
X352409Y563841D01*
Y563841D01*
Y569909D01*
Y570325D01*
X352728Y571094D01*
X353316Y571682D01*
X354084Y572000D01*
X354500D01*
X367000Y572000D01*
X367250Y572250D01*
Y572750D01*
Y595500D01*
X385500D01*
X385500Y548750D01*
D02*
G37*
G36*
X355750Y537500D02*
X381750Y537500D01*
X381793D01*
X381999D01*
X382458Y537310D01*
X382810Y536958D01*
X383000Y536499D01*
X383000Y536250D01*
X383000Y536250D01*
X383000Y525250D01*
Y525051D01*
X382848Y524684D01*
X382566Y524402D01*
X382199Y524250D01*
X382000D01*
X382000Y524250D01*
X359250D01*
X345500Y524250D01*
X345202D01*
X344650Y524478D01*
X344228Y524900D01*
X344000Y525452D01*
X344000Y525750D01*
X344000Y525750D01*
Y539500D01*
X344000Y542500D01*
X344000Y542649D01*
X344114Y542925D01*
X344325Y543136D01*
X344601Y543250D01*
X344750Y543250D01*
X344750Y543250D01*
X350000D01*
X355750Y537500D01*
D02*
G37*
%LPC*%
G36*
X674680Y975274D02*
X671120D01*
X667680Y974352D01*
X664596Y972572D01*
X662078Y970054D01*
X660298Y966970D01*
X659376Y963531D01*
Y959969D01*
X660298Y956530D01*
X662078Y953446D01*
X664596Y950928D01*
X667680Y949148D01*
X671120Y948226D01*
X674680D01*
X678120Y949148D01*
X681204Y950928D01*
X683722Y953446D01*
X685502Y956530D01*
X686424Y959969D01*
Y963531D01*
X685502Y966970D01*
X683722Y970054D01*
X681204Y972572D01*
X678120Y974352D01*
X674680Y975274D01*
D02*
G37*
G36*
X357775Y645515D02*
X357450D01*
Y641270D01*
X361695D01*
Y641595D01*
X361397Y643095D01*
X360547Y644367D01*
X359275Y645217D01*
X357775Y645515D01*
D02*
G37*
G36*
X478790Y518290D02*
X475770D01*
Y514020D01*
X478790D01*
Y518290D01*
D02*
G37*
G36*
Y511480D02*
X475770D01*
Y507210D01*
X478790D01*
Y511480D01*
D02*
G37*
G36*
X494520Y517790D02*
Y513520D01*
X497540D01*
Y517790D01*
X494520D01*
D02*
G37*
G36*
X516480Y517540D02*
X513460D01*
Y513270D01*
X516480D01*
Y517540D01*
D02*
G37*
G36*
X497540Y510980D02*
X494520D01*
Y506710D01*
X497540D01*
Y510980D01*
D02*
G37*
G36*
X516480Y510730D02*
X513460D01*
Y506460D01*
X516480D01*
Y510730D01*
D02*
G37*
%LPD*%
D12*
X331000Y670550D02*
X340416D01*
X341830Y671964D02*
Y672056D01*
X345750Y675975D01*
Y676250D01*
X340416Y670550D02*
X341830Y671964D01*
D13*
X669250Y626564D02*
X672675Y623139D01*
Y623090D02*
Y623139D01*
Y623090D02*
X674471Y621294D01*
X685252D01*
X669250Y626564D02*
Y627500D01*
X697420Y628964D02*
X701350D01*
X702814Y627500D02*
X703750D01*
X695666Y630718D02*
X697420Y628964D01*
X701350D02*
X702814Y627500D01*
X303000Y627000D02*
X314750Y638750D01*
Y639000D01*
X290500Y591250D02*
X303000Y603750D01*
Y627000D01*
X685250Y621292D02*
X685252Y621294D01*
X344000Y634050D02*
X374050D01*
X331000D02*
X344000D01*
X344500Y633550D01*
Y625000D02*
Y633550D01*
X343500Y682050D02*
X377469D01*
X331000D02*
X343500D01*
Y690500D01*
X398070Y661430D02*
X399750Y659750D01*
X377469Y682050D02*
X398070Y661449D01*
Y661430D02*
Y661449D01*
X329954Y681004D02*
X331000Y682050D01*
X329856Y635194D02*
X331000Y634050D01*
X384506Y644506D02*
X384525D01*
X374050Y634050D02*
X384506Y644506D01*
X384525D02*
X386594Y646575D01*
Y646594D02*
X399750Y659750D01*
X386594Y646575D02*
Y646594D01*
X399750Y659750D02*
X402850D01*
X319492Y635194D02*
X329856D01*
X315686Y639000D02*
X319492Y635194D01*
X314750Y639000D02*
X315686D01*
X321440Y681004D02*
X329954D01*
X315686Y675250D02*
X321440Y681004D01*
X314750Y675250D02*
X315686D01*
X377750Y659750D02*
X377875Y659875D01*
X388125D01*
X388250Y660000D01*
X810072Y729822D02*
Y735072D01*
X841250Y766250D02*
Y813250D01*
X810072Y735072D02*
X841250Y766250D01*
X809637Y729387D02*
X810072Y729822D01*
X786047Y729387D02*
X809637D01*
X785684Y729024D02*
X786047Y729387D01*
X830000Y739750D02*
X830125Y739625D01*
Y715375D02*
Y739625D01*
X870914Y785051D02*
X871250Y784715D01*
Y753500D02*
Y784715D01*
X830000Y739750D02*
X857500D01*
X871250Y753500D01*
X859357Y831357D02*
X870231D01*
X870914Y832041D01*
X841250Y813250D02*
X859357Y831357D01*
X533488Y825862D02*
Y865832D01*
Y817628D02*
Y825862D01*
X522888D02*
X533488D01*
X519416Y816000D02*
X534002D01*
X535116D01*
X533488Y817628D02*
X535116Y816000D01*
X529250Y899024D02*
X533211Y895063D01*
X529250Y899024D02*
Y907500D01*
X533211Y888609D02*
X533488Y888332D01*
X533211Y888609D02*
Y895063D01*
X493988Y915512D02*
X526488D01*
X529250Y912750D01*
Y907500D02*
Y912750D01*
X483000Y926500D02*
Y950250D01*
Y926500D02*
X493988Y915512D01*
X483000Y950250D02*
X484000Y951250D01*
X535116Y816000D02*
X536050D01*
X515416Y812000D02*
X519416Y816000D01*
X522250Y826500D02*
X522888Y825862D01*
X505578Y865772D02*
X505651Y865845D01*
X514649D02*
X514722Y865918D01*
X505651Y865845D02*
X514649D01*
X514722Y865918D02*
X526902D01*
X526988Y865832D01*
X533488D02*
X539988D01*
X440050Y752800D02*
Y770200D01*
X440100Y770250D01*
X427400D02*
X440100D01*
X427325Y770175D02*
X427400Y770250D01*
D18*
X670234Y669500D02*
X727850Y611884D01*
X543000Y736000D02*
X609500Y669500D01*
X670234D01*
X673500Y681500D02*
X718964Y636036D01*
X584250Y735750D02*
X638500Y681500D01*
X673500D01*
X770000Y535750D02*
X776180Y529570D01*
X755500Y535750D02*
X770000D01*
X698362Y601138D02*
X711850D01*
X685250Y614250D02*
X698362Y601138D01*
X685250Y614250D02*
Y621292D01*
X540362Y583138D02*
X705850D01*
X533750Y589750D02*
X540362Y583138D01*
X699612Y595138D02*
X705850D01*
X693500Y601250D02*
X699612Y595138D01*
X804900Y570738D02*
X816112D01*
X816500Y570350D01*
X804512Y571126D02*
X804900Y570738D01*
X793005Y570791D02*
X793260Y571046D01*
Y581206D01*
X805375Y559875D02*
X815625D01*
X816500Y560750D01*
X804500Y559000D02*
X805375Y559875D01*
X753850Y587138D02*
X792107D01*
X793000Y581466D02*
Y586245D01*
X792107Y587138D02*
X793000Y586245D01*
Y581466D02*
X793260Y581206D01*
X442500Y617270D02*
X442804Y616966D01*
X442500Y617270D02*
Y628750D01*
X443762Y616008D02*
X461792D01*
X442804Y616966D02*
X443762Y616008D01*
X461792D02*
X462750Y615050D01*
X442862Y602408D02*
X462692D01*
X442804Y602466D02*
X442862Y602408D01*
X462692D02*
X462750Y602350D01*
X442250Y601912D02*
X442804Y602466D01*
X442250Y588750D02*
Y601912D01*
X792750Y551000D02*
X793005Y551255D01*
Y558750D01*
X753850Y563138D02*
X768636D01*
X771998Y566500D01*
X771865Y573708D02*
Y576865D01*
X765295Y567138D02*
X771865Y573708D01*
Y576865D02*
X772500Y577500D01*
X771998Y566500D02*
X771998D01*
X753850Y567138D02*
X765295D01*
X771998Y566500D02*
X771998Y566500D01*
Y566500D02*
X772324Y566174D01*
X493250Y512250D02*
X500500D01*
X493250Y512250D02*
X493250Y512250D01*
X517750Y519263D02*
X517750Y519263D01*
X474625Y519138D02*
X474750Y519263D01*
X474625Y512875D02*
Y519138D01*
X517750Y512000D02*
Y519263D01*
X474500Y512750D02*
X474625Y512875D01*
X724250Y638094D02*
Y723250D01*
X718964Y635905D02*
Y636036D01*
Y635905D02*
X722060Y632808D01*
X735850Y601138D02*
Y619150D01*
X722060Y632808D02*
X722192D01*
X735850Y619150D01*
X724250Y723250D02*
X729048Y728048D01*
X717131Y614869D02*
X723850Y608150D01*
Y601138D02*
Y608150D01*
X638966Y524000D02*
X654500D01*
X638216Y524750D02*
X638966Y524000D01*
X696250Y574000D02*
X697461D01*
X698599Y575138D01*
X540036Y579286D02*
X698439D01*
X698587Y579138D01*
X698599Y575138D02*
X705850D01*
X537750Y577000D02*
X540036Y579286D01*
X698587Y579138D02*
X705850D01*
X743850Y547400D02*
X755500Y535750D01*
X743850Y547400D02*
Y553138D01*
X739850Y546417D02*
Y553138D01*
Y546417D02*
X751500Y534766D01*
Y518777D02*
Y534766D01*
X355350Y676250D02*
X365000D01*
X356180Y640000D02*
X356215Y640035D01*
Y649715D01*
X356250Y649750D01*
X685750Y601250D02*
X693500D01*
X783760Y571046D02*
Y581206D01*
X783755Y560755D02*
Y571041D01*
X783760Y571046D01*
X783750Y560750D02*
X783755Y560755D01*
X638100Y524866D02*
X638216Y524750D01*
X528500Y577000D02*
X537750D01*
X528500Y589750D02*
X533750D01*
X528475Y576975D02*
X528500Y577000D01*
X458500Y542500D02*
X539250D01*
X559888Y563138D02*
X705850D01*
X539250Y542500D02*
X559888Y563138D01*
X535750Y533000D02*
X561888Y559138D01*
X705850D01*
X510500Y533000D02*
X535750D01*
X541000Y530500D02*
X548000Y537500D01*
X541000Y521000D02*
Y530500D01*
X548000Y537500D02*
X600893D01*
X507881Y530381D02*
X510500Y533000D01*
X350000Y556137D02*
Y573500D01*
X348094Y575406D02*
Y580606D01*
Y575406D02*
X350000Y573500D01*
X439799Y752351D02*
X440099Y752651D01*
X439799Y736299D02*
Y752351D01*
X789750Y542000D02*
X821150D01*
X772612Y559138D02*
X789750Y542000D01*
X753850Y559138D02*
X772612D01*
X757954Y624548D02*
Y639374D01*
X743941Y601229D02*
Y607941D01*
X757954Y615242D02*
Y624548D01*
X754211Y611500D02*
X757954Y615242D01*
X743941Y607941D02*
X747500Y611500D01*
X754211D01*
X639540Y675476D02*
X672024D01*
X731850Y601138D02*
Y615650D01*
X672024Y675476D02*
X731850Y615650D01*
X639366Y675650D02*
X639540Y675476D01*
X624850Y675650D02*
X639366D01*
X727850Y601138D02*
Y611884D01*
X731759Y553047D02*
X731850Y553138D01*
X731759Y543024D02*
Y553047D01*
X730957Y542223D02*
X731759Y543024D01*
X735850Y545267D02*
X743500Y537616D01*
Y511250D02*
Y537616D01*
X793005Y558750D02*
Y570791D01*
Y558750D02*
X793255Y559000D01*
X804500D01*
X735850Y545267D02*
Y553138D01*
X620033Y491693D02*
Y524750D01*
Y491693D02*
X620368Y491358D01*
X613643Y524750D02*
X620033D01*
X621500D01*
Y524750D02*
X638216D01*
X600893Y537500D02*
X613643Y524750D01*
X757671Y639656D02*
Y640655D01*
Y639656D02*
X757954Y639374D01*
X755522Y642804D02*
X757671Y640655D01*
X744170Y642628D02*
X744600Y643058D01*
X744170Y625264D02*
Y642628D01*
X776180Y529570D02*
X783107D01*
X787222Y525454D01*
X798362D01*
X751500Y518777D02*
X763022Y507254D01*
X496000Y529500D02*
X496881Y530381D01*
X507881D01*
X729048Y728048D02*
X738198D01*
X346898Y554214D02*
X348078D01*
X350000Y556137D01*
X762752Y493494D02*
Y506984D01*
X458500Y530500D02*
Y542500D01*
X468050Y530450D02*
X468100Y530500D01*
X468050Y512800D02*
Y530450D01*
X468000Y512750D02*
X468050Y512800D01*
X830750Y531250D02*
Y542000D01*
Y531250D02*
X831000Y531000D01*
X738198Y728048D02*
X738900Y728750D01*
X739850Y601138D02*
Y609654D01*
X743454Y613258D01*
X524000Y493250D02*
X524500Y492750D01*
X473700Y482250D02*
X473950Y482500D01*
X524500Y511750D02*
X541900D01*
X468000Y503900D02*
X473950Y497950D01*
X524250Y490250D02*
Y512000D01*
X486575Y512425D02*
X486750Y512250D01*
X486400Y492750D02*
X486500Y492850D01*
X524250Y512000D02*
X524500Y511750D01*
X468000Y503900D02*
Y512750D01*
X486400Y529500D02*
X486575Y529325D01*
Y512425D02*
Y529325D01*
X473950Y482500D02*
Y497950D01*
X486750Y489850D02*
Y512250D01*
X596134Y491358D02*
X610768D01*
X454000Y736500D02*
X468500D01*
X452800Y737700D02*
X454000Y736500D01*
X452800Y737700D02*
Y770250D01*
X511250Y560000D02*
Y576950D01*
X485250Y560000D02*
Y585500D01*
X488750Y589000D01*
X510600D02*
X511250Y589650D01*
X488750Y589000D02*
X510600D01*
X511300Y589700D02*
X528450D01*
X511250Y589650D02*
X511300Y589700D01*
X528450D02*
X528500Y589750D01*
X511275Y576975D02*
X528475D01*
X511250Y576950D02*
X511275Y576975D01*
X569807Y790557D02*
X584207D01*
X563750Y784500D02*
X569807Y790557D01*
X563750Y753250D02*
Y784500D01*
X556000Y795500D02*
X563800Y803300D01*
X584250D01*
X543000Y766500D02*
X556000Y779500D01*
Y795500D01*
X543000Y736000D02*
Y753750D01*
Y766500D01*
X584207Y790557D02*
X584250Y790600D01*
Y753500D02*
Y777900D01*
Y735750D02*
Y753500D01*
X563750Y736750D02*
X624850Y675650D01*
X563750Y736750D02*
Y753250D01*
X546143Y832750D02*
Y842357D01*
Y832750D02*
X546500D01*
X545750Y842750D02*
X546143Y842357D01*
X546500Y832750D02*
X555000Y824250D01*
X748762Y719262D02*
X762322D01*
X748500Y719000D02*
Y728750D01*
Y719000D02*
X748762Y719262D01*
X762322D02*
X762584Y719524D01*
X753850Y591138D02*
X794100D01*
X804512Y580726D01*
X555000Y808500D02*
Y824250D01*
X555500Y851750D02*
X556000Y852250D01*
X575250D01*
X579000Y856000D01*
X546488Y888332D02*
X557332D01*
X560500Y891500D02*
X563250D01*
X557332Y888332D02*
X560500Y891500D01*
X563250D02*
X572250Y882500D01*
X579000Y875750D01*
Y856000D02*
Y875750D01*
X555425Y842825D02*
Y851675D01*
X555500Y851750D01*
X540000Y902500D02*
X540000Y902500D01*
X539994Y902494D02*
X540000Y902500D01*
X536050Y803300D02*
X549800D01*
X555000Y808500D01*
X550900Y902500D02*
X550900Y902500D01*
X550900Y902500D02*
X550900Y902500D01*
X550900Y902500D02*
Y912000D01*
X560500Y891500D02*
Y902500D01*
X540000Y902500D02*
X550900D01*
X539988Y888332D02*
X539994Y888338D01*
Y902494D01*
X523550Y803300D02*
X536050D01*
X515000Y794750D02*
X523550Y803300D01*
X743454Y613258D02*
Y624548D01*
X744170Y625264D01*
X338303Y580553D02*
X348041D01*
X338250Y580500D02*
X338303Y580553D01*
X348041D02*
X348094Y580606D01*
X348172Y580684D02*
Y590422D01*
X348094Y580606D02*
X348172Y580684D01*
Y590422D02*
X348250Y590500D01*
D21*
X327298Y541214D02*
D03*
Y547714D02*
D03*
Y554214D02*
D03*
X346898D02*
D03*
Y547714D02*
D03*
Y541214D02*
D03*
D22*
X831000Y531000D02*
D03*
X815000D02*
D03*
D23*
X399500Y573500D02*
D03*
Y589500D02*
D03*
D24*
X729850Y577138D02*
D03*
D25*
X753850Y595138D02*
D03*
Y591138D02*
D03*
Y587138D02*
D03*
Y583138D02*
D03*
Y579138D02*
D03*
Y575138D02*
D03*
Y571138D02*
D03*
Y567138D02*
D03*
Y563138D02*
D03*
Y559138D02*
D03*
X705850D02*
D03*
Y563138D02*
D03*
Y567138D02*
D03*
Y571138D02*
D03*
Y575138D02*
D03*
Y579138D02*
D03*
Y583138D02*
D03*
Y587138D02*
D03*
Y591138D02*
D03*
Y595138D02*
D03*
D26*
X747850Y553138D02*
D03*
X743850D02*
D03*
X739850D02*
D03*
X735850D02*
D03*
X731850D02*
D03*
X727850D02*
D03*
X723850D02*
D03*
X719850D02*
D03*
X715850D02*
D03*
X711850D02*
D03*
Y601138D02*
D03*
X715850D02*
D03*
X719850D02*
D03*
X723850D02*
D03*
X727850D02*
D03*
X731850D02*
D03*
X735850D02*
D03*
X739850D02*
D03*
X743850D02*
D03*
X747850D02*
D03*
D27*
X301100Y562500D02*
D03*
X291900D02*
D03*
X748500Y728750D02*
D03*
Y719000D02*
D03*
X560500Y912000D02*
D03*
X560500Y902500D02*
D03*
X545750Y842750D02*
D03*
X555500Y851750D02*
D03*
X529250Y907500D02*
D03*
X405000Y752750D02*
D03*
X458250Y529500D02*
D03*
X438750Y843000D02*
D03*
X496000Y529500D02*
D03*
X610768Y491358D02*
D03*
X440000Y752750D02*
D03*
X357694Y580606D02*
D03*
X338250Y580500D02*
D03*
X345750Y676250D02*
D03*
X346580Y640000D02*
D03*
X830750Y542000D02*
D03*
D28*
X377750Y669250D02*
D03*
Y659750D02*
D03*
Y650250D02*
D03*
X402850D02*
D03*
Y659750D02*
D03*
Y669250D02*
D03*
D29*
X340750Y813000D02*
D03*
Y838000D02*
D03*
Y863000D02*
D03*
D30*
X298750Y780500D02*
D03*
Y895500D02*
D03*
D31*
X541250Y991500D02*
D03*
X451250D02*
D03*
D32*
X508750Y949500D02*
D03*
X483750D02*
D03*
D33*
X743454Y624548D02*
D03*
X757954D02*
D03*
D34*
X442804Y616966D02*
D03*
Y602466D02*
D03*
D35*
X331000Y690050D02*
D03*
Y626050D02*
D03*
Y682050D02*
D03*
Y634050D02*
D03*
D36*
Y655550D02*
D03*
Y660550D02*
D03*
Y650550D02*
D03*
Y645550D02*
D03*
Y640550D02*
D03*
Y665550D02*
D03*
Y670550D02*
D03*
Y675550D02*
D03*
D37*
X524250Y512000D02*
D03*
X517750D02*
D03*
X486750Y512250D02*
D03*
X493250D02*
D03*
X468000Y512750D02*
D03*
X474500D02*
D03*
D38*
X694150Y867750D02*
D03*
D39*
X665450D02*
D03*
D40*
X738900Y728750D02*
D03*
Y719000D02*
D03*
X550900Y912000D02*
D03*
X550900Y902500D02*
D03*
X555350Y842750D02*
D03*
X545900Y851750D02*
D03*
X519650Y907500D02*
D03*
X414600Y752750D02*
D03*
X467850Y529500D02*
D03*
X429150Y843000D02*
D03*
X486400Y529500D02*
D03*
X620368Y491358D02*
D03*
X430400Y752750D02*
D03*
X348094Y580606D02*
D03*
X328650Y580500D02*
D03*
X355350Y676250D02*
D03*
X356180Y640000D02*
D03*
X821150Y542000D02*
D03*
D41*
X540000Y902500D02*
D03*
X514722Y875518D02*
D03*
X505578Y865772D02*
D03*
X569500Y547500D02*
D03*
X528500Y577000D02*
D03*
Y589750D02*
D03*
X541000Y521000D02*
D03*
X399250Y561500D02*
D03*
X816500Y560750D02*
D03*
X804512Y571126D02*
D03*
X723750Y495750D02*
D03*
X724000Y462000D02*
D03*
D42*
X540000Y912100D02*
D03*
X514722Y865918D02*
D03*
X505578Y875372D02*
D03*
X569500Y537900D02*
D03*
X528500Y567400D02*
D03*
Y599350D02*
D03*
X541000Y511400D02*
D03*
X399250Y551900D02*
D03*
X816500Y570350D02*
D03*
X804512Y580726D02*
D03*
X723750Y505350D02*
D03*
X724000Y471600D02*
D03*
D43*
X371250Y530850D02*
D03*
Y552150D02*
D03*
D44*
X755828Y870134D02*
D03*
X715028D02*
D03*
X755900Y908000D02*
D03*
X715100D02*
D03*
D45*
X315250Y552120D02*
D03*
Y537420D02*
D03*
D46*
X357120Y566750D02*
D03*
X342420D02*
D03*
D47*
X800750Y516250D02*
D03*
Y525750D02*
D03*
X755522Y642804D02*
D03*
Y652304D02*
D03*
X744600Y643058D02*
D03*
Y652558D02*
D03*
X743500Y501750D02*
D03*
Y511250D02*
D03*
X804500Y549500D02*
D03*
Y559000D02*
D03*
X695666Y621218D02*
D03*
Y630718D02*
D03*
X685252Y621294D02*
D03*
Y630794D02*
D03*
X400500Y822750D02*
D03*
Y813250D02*
D03*
D48*
X793260Y571046D02*
D03*
X783760D02*
D03*
X793260Y581206D02*
D03*
X783760D02*
D03*
X772252Y493494D02*
D03*
X762752D02*
D03*
X772506Y605752D02*
D03*
X782006D02*
D03*
X766000Y544000D02*
D03*
X775500D02*
D03*
X772550Y616326D02*
D03*
X782050D02*
D03*
X723500Y517750D02*
D03*
X714000D02*
D03*
X723750Y483750D02*
D03*
X714250D02*
D03*
X689750Y548500D02*
D03*
X680250D02*
D03*
X512750Y826500D02*
D03*
X522250D02*
D03*
X559250Y865750D02*
D03*
X568750D02*
D03*
X584500Y829000D02*
D03*
X575000D02*
D03*
X685750Y601250D02*
D03*
X676250D02*
D03*
X677500Y571250D02*
D03*
X668000D02*
D03*
X512578Y628512D02*
D03*
X503078D02*
D03*
X442500Y628750D02*
D03*
X433000D02*
D03*
X442250Y588750D02*
D03*
X432750D02*
D03*
X586634Y491358D02*
D03*
X596134D02*
D03*
X290988Y573016D02*
D03*
X300488D02*
D03*
X299980Y551680D02*
D03*
X290480D02*
D03*
X357750Y590500D02*
D03*
X348250D02*
D03*
D49*
X763022Y507254D02*
D03*
X787222D02*
D03*
Y525454D02*
D03*
X763022D02*
D03*
D50*
X499100Y482250D02*
D03*
Y443250D02*
D03*
X511800Y482250D02*
D03*
X524500D02*
D03*
X511800Y443250D02*
D03*
X524500D02*
D03*
X486400Y482250D02*
D03*
X473700D02*
D03*
Y443250D02*
D03*
X486400D02*
D03*
D51*
X546488Y865832D02*
D03*
X539988D02*
D03*
X533488D02*
D03*
X526988D02*
D03*
Y888332D02*
D03*
X533488D02*
D03*
X539988D02*
D03*
X546488D02*
D03*
D52*
X424750Y860750D02*
D03*
X444750D02*
D03*
X434750Y880750D02*
D03*
D53*
X810000Y749750D02*
D03*
Y729750D02*
D03*
X830000Y739750D02*
D03*
D54*
X785684Y738524D02*
D03*
Y729024D02*
D03*
Y719524D02*
D03*
X762584D02*
D03*
Y729024D02*
D03*
Y738524D02*
D03*
D55*
X638216Y524750D02*
D03*
Y507750D02*
D03*
X586716Y524750D02*
D03*
Y507750D02*
D03*
D56*
X462750Y615050D02*
D03*
Y602350D02*
D03*
Y589650D02*
D03*
Y576950D02*
D03*
X511250D02*
D03*
Y589650D02*
D03*
Y602350D02*
D03*
Y615050D02*
D03*
D57*
X414700Y770250D02*
D03*
X427400D02*
D03*
X440100D02*
D03*
X452800D02*
D03*
Y818750D02*
D03*
X440100D02*
D03*
X427400D02*
D03*
X414700D02*
D03*
D58*
X536050Y816000D02*
D03*
Y803300D02*
D03*
Y790600D02*
D03*
Y777900D02*
D03*
X584250D02*
D03*
Y790600D02*
D03*
Y803300D02*
D03*
Y816000D02*
D03*
D59*
X660750Y426750D02*
D03*
D60*
X692750Y431500D02*
D03*
Y422000D02*
D03*
D110*
X870914Y832041D02*
D03*
Y785051D02*
D03*
X755852D02*
D03*
X685748D02*
D03*
D112*
X698600Y431500D02*
G03*
X724000Y456900I0J25400D01*
G01*
X692750Y431500D02*
X698600D01*
X724000Y456900D02*
Y462000D01*
X723875Y471725D02*
X724000Y471600D01*
X723750Y483750D02*
X723875Y483625D01*
Y471725D02*
Y483625D01*
X723750Y483750D02*
Y495750D01*
D113*
X337098Y547714D02*
D03*
D114*
X572250Y882500D02*
D03*
X458500Y542500D02*
D03*
X510500Y533000D02*
D03*
D115*
X514750Y812000D02*
D03*
X543000Y753750D02*
D03*
X515000Y794750D02*
D03*
X563750Y753250D02*
D03*
X584250Y753500D02*
D03*
X414500Y737250D02*
D03*
X410250Y843000D02*
D03*
X485250Y560000D02*
D03*
X511250D02*
D03*
X454000Y736500D02*
D03*
X458000Y842500D02*
D03*
D116*
X685290Y630756D02*
X695545D01*
X695583Y630718D01*
X693799Y632502D02*
X695545Y630756D01*
X695583Y630718D02*
X695666D01*
X693799Y632502D02*
Y635639D01*
X691250Y638188D02*
X693799Y635639D01*
X691250Y638188D02*
Y639000D01*
X685252Y630794D02*
X685290Y630756D01*
X812150Y749750D02*
X813650Y751250D01*
X810000Y749750D02*
X812150D01*
X813650Y751250D02*
Y753838D01*
X816000Y756188D01*
Y757000D01*
X586500Y498500D02*
Y507534D01*
X586716Y507750D01*
X586567Y491425D02*
Y498433D01*
Y491425D02*
X586634Y491358D01*
X586500Y498500D02*
X586567Y498433D01*
X775500Y544000D02*
X777167Y542333D01*
Y540597D02*
X778745Y539019D01*
Y538207D02*
Y539019D01*
X777167Y540597D02*
Y542333D01*
X540375Y851625D02*
X545775D01*
X540250Y851500D02*
X540375Y851625D01*
X545775D02*
X545900Y851750D01*
X568750Y858750D02*
X568750Y858750D01*
Y865750D01*
X346898Y547714D02*
X346916Y547732D01*
X352732D01*
X352750Y547750D01*
X305710Y537210D02*
X315040D01*
X315250Y537420D01*
X305500Y537000D02*
X305710Y537210D01*
X322660Y537420D02*
X325287Y540047D01*
Y540386D01*
X315250Y537420D02*
X322660D01*
X325287Y540386D02*
X326114Y541214D01*
X327298D01*
X327399Y541113D01*
D117*
X766000Y544000D02*
Y553000D01*
X357694Y567324D02*
X358370Y568000D01*
X357120Y566750D02*
X357694Y567324D01*
X358370Y568000D02*
X371000D01*
X546570Y865750D02*
X559250D01*
X546488Y865832D02*
X546570Y865750D01*
X412384Y813250D02*
X414700Y815566D01*
X400500Y813250D02*
X412384D01*
X414700Y815566D02*
Y818750D01*
X400375Y801125D02*
Y813125D01*
X400500Y813250D01*
X400250Y801000D02*
X400375Y801125D01*
X584500Y816250D02*
Y829000D01*
X584250Y816000D02*
X584500Y816250D01*
X584750Y829250D02*
Y840500D01*
X585000Y840750D01*
X584500Y829000D02*
X584750Y829250D01*
X401750Y762740D02*
Y763750D01*
X405000Y752750D02*
Y759491D01*
X401750Y762740D02*
X405000Y759491D01*
X551250Y923500D02*
X555766Y918984D01*
Y916734D02*
X560500Y912000D01*
X555766Y916734D02*
Y918984D01*
X565000Y907500D02*
X571250D01*
X560500Y912000D02*
X565000Y907500D01*
X559250Y865750D02*
Y877750D01*
X514611Y875629D02*
Y885889D01*
X514500Y886000D02*
X514611Y885889D01*
Y875629D02*
X514722Y875518D01*
X528700Y567200D02*
X538550D01*
X528500Y567400D02*
X528700Y567200D01*
X538550D02*
X538750Y567000D01*
X761181Y595138D02*
X764043Y598000D01*
X753850Y595138D02*
X761181D01*
X764043Y598000D02*
X765250D01*
X772506Y605256D01*
Y605752D01*
X408500Y489500D02*
X454000Y444000D01*
X408500Y489500D02*
Y551750D01*
X472950Y444000D02*
X473700Y443250D01*
X454000Y444000D02*
X472950D01*
X569500Y547500D02*
X579500D01*
X399250Y551900D02*
X399325Y551825D01*
X408425D01*
X408500Y551750D01*
X512289Y628801D02*
Y640961D01*
Y628801D02*
X512578Y628512D01*
X512000Y641250D02*
X512289Y640961D01*
X528500Y599350D02*
X528500Y599350D01*
Y610250D01*
X512578Y616378D02*
Y628512D01*
X511250Y615050D02*
X512578Y616378D01*
X762397Y574397D02*
X763250Y575250D01*
X762397Y573125D02*
Y574397D01*
X695666Y615584D02*
X700750Y610500D01*
X695666Y615584D02*
Y621218D01*
X677500Y571250D02*
X687500D01*
X747850Y547900D02*
X751750Y544000D01*
X766000D01*
X747850Y547900D02*
Y553138D01*
X414625Y737250D02*
X427375Y724500D01*
X414500Y737250D02*
X414625D01*
X427375Y724500D02*
X427500D01*
X357722Y590472D02*
X357750Y590500D01*
X357694Y580606D02*
X357722Y580634D01*
Y590472D01*
X357694Y567324D02*
Y580606D01*
X691612Y567138D02*
X705850D01*
X687500Y571250D02*
X691612Y567138D01*
X695666Y621218D02*
X702282D01*
X715850Y607650D01*
Y601138D02*
Y607650D01*
Y601138D02*
X719850D01*
X760410Y571138D02*
X762397Y573125D01*
X753850Y571138D02*
X760410D01*
X740850Y588138D02*
X745850Y583138D01*
X753850D01*
X727850Y564138D02*
X729850Y566138D01*
X727850Y553138D02*
Y564138D01*
X399250Y561500D02*
Y573250D01*
X399500Y573500D01*
X710337Y548500D02*
X711850Y550013D01*
Y553138D01*
X689750Y548500D02*
X710337D01*
X414500Y737250D02*
X414600Y737350D01*
Y752750D01*
X414650Y752800D02*
Y770200D01*
X414700Y770250D01*
X414600Y752750D02*
X414650Y752800D01*
X747850Y601138D02*
X751362D01*
X766550Y616326D01*
X772550D01*
D118*
X666023Y592227D02*
X697273D01*
X664015Y587378D02*
X696166D01*
X413163Y657326D02*
X594067D01*
X596076Y662174D02*
X666023Y592227D01*
X413163Y662174D02*
X596076D01*
X594067Y657326D02*
X664015Y587378D01*
X402850Y669250D02*
X405950D01*
X409552Y665648D01*
X409689D02*
X413163Y662174D01*
X409552Y665648D02*
X409689D01*
X402850Y650250D02*
X405950D01*
X409689Y653852D02*
X413163Y657326D01*
X409552Y653852D02*
X409689D01*
X405950Y650250D02*
X409552Y653852D01*
X341339Y660626D02*
X347201D01*
X335477D02*
X341339D01*
X331076Y650626D02*
X337495D01*
X341339Y654470D01*
Y660626D01*
X331000Y650550D02*
X331076Y650626D01*
X330924Y655626D02*
X331000Y655550D01*
X324505Y655626D02*
X330924D01*
X322000Y658130D02*
X324505Y655626D01*
X322000Y658130D02*
Y662970D01*
X324505Y665474D02*
X330924D01*
X331000Y665550D01*
X322000Y662970D02*
X324505Y665474D01*
X371048Y665648D02*
X374650Y669250D01*
X377750D01*
X331076Y660626D02*
X335477D01*
X335477Y660626D01*
X371048Y653852D02*
X374650Y650250D01*
X331000Y665550D02*
X331076Y665474D01*
X352509Y662174D02*
X367437D01*
X370911Y665648D01*
X371048D01*
X331000Y660550D02*
X331076Y660626D01*
X374650Y650250D02*
X377750D01*
X331076Y665474D02*
X349210D01*
X370911Y653852D02*
X371048D01*
X350501Y657326D02*
X367437D01*
X349210Y665474D02*
X352509Y662174D01*
X367437Y657326D02*
X370911Y653852D01*
X347201Y660626D02*
X350501Y657326D01*
D119*
X697273Y592227D02*
X698602Y590898D01*
X702230D01*
X702470Y591138D01*
X705850D01*
X696166Y587378D02*
X702230D01*
X702470Y587138D01*
X705850D01*
D120*
X439000Y842750D02*
X457750D01*
X458000Y842500D01*
X438750Y843000D02*
X439000Y842750D01*
X429150Y843000D02*
Y849350D01*
Y843000D02*
X430239Y841911D01*
X429002Y843148D02*
X429150Y843000D01*
X428854D02*
X429002Y843148D01*
X410250Y843000D02*
X428854D01*
X425932Y852568D02*
X429150Y849350D01*
X425932Y852568D02*
Y859568D01*
X443267Y853973D02*
Y859267D01*
X438750Y843171D02*
Y849456D01*
X443267Y853973D01*
Y859267D02*
X444750Y860750D01*
X437261Y841511D02*
X438750Y843000D01*
X423063Y862437D02*
X425932Y859568D01*
X437261Y829112D02*
Y841511D01*
X393306Y875953D02*
X424485D01*
X431965Y868230D02*
X439445Y860750D01*
X431965Y868230D02*
Y868473D01*
X423063Y862437D02*
Y867446D01*
X424485Y875953D02*
X431965Y868473D01*
X421577Y868932D02*
X423063Y867446D01*
X396214Y868932D02*
X421577D01*
X430239Y829112D02*
Y841911D01*
X437261Y829112D02*
X440100Y826273D01*
X427400D02*
X430239Y829112D01*
X440100Y818750D02*
Y826273D01*
X427400Y818750D02*
Y826273D01*
X439445Y860750D02*
X444750D01*
X374272Y846989D02*
X396214Y868932D01*
X355782Y846989D02*
X374272D01*
X354598Y842989D02*
Y845805D01*
X349608Y838000D02*
X354598Y842989D01*
X340750Y838000D02*
X349608D01*
X371364Y854011D02*
X393306Y875953D01*
X355782Y854011D02*
X371364D01*
X354598Y855195D02*
X355782Y854011D01*
X354598Y845805D02*
X355782Y846989D01*
X349608Y863000D02*
X354598Y858011D01*
Y855195D02*
Y858011D01*
X340750Y863000D02*
X349608D01*
D121*
X509250Y949000D02*
X521750D01*
X508750Y949500D02*
X509250Y949000D01*
X508750Y941480D02*
X513980Y936250D01*
X521750D01*
X508750Y941480D02*
Y949500D01*
D122*
X723750Y547949D02*
X723850Y548049D01*
X723750Y518000D02*
Y547949D01*
X723500Y517750D02*
X723625Y517625D01*
Y505475D02*
Y517625D01*
Y505475D02*
X723750Y505350D01*
X723500Y517750D02*
X723750Y518000D01*
D123*
X325250Y701250D02*
X327554D01*
X331000Y690050D02*
Y697804D01*
X327554Y701250D02*
X331000Y697804D01*
X327554Y614850D02*
X331000Y618296D01*
Y626050D01*
X325250Y614850D02*
X327554D01*
D124*
X723850Y548049D02*
Y553138D01*
X723850Y553138D02*
X723850Y553138D01*
D125*
X329697Y640103D02*
X346580D01*
X329500Y640300D02*
X329697Y640103D01*
D126*
X672900Y961750D02*
D03*
X801000D02*
D03*
D127*
X756000Y952750D02*
D03*
D128*
X717900D02*
D03*
D129*
X287250Y802000D02*
D03*
Y874000D02*
D03*
X519750Y1003000D02*
D03*
X472750D02*
D03*
D130*
X283450Y701250D02*
D03*
Y614850D02*
D03*
D131*
X325250Y701250D02*
D03*
Y614850D02*
D03*
D132*
X320250Y629150D02*
D03*
Y686950D02*
D03*
D133*
X462750Y818750D02*
D03*
X430500Y744000D02*
D03*
X497250Y875000D02*
D03*
X786000Y708750D02*
D03*
X493250Y628500D02*
D03*
X816000Y757000D02*
D03*
X765500Y652750D02*
D03*
X752882Y672882D02*
D03*
X740863Y713113D02*
D03*
X704500Y483750D02*
D03*
X900000Y960000D02*
D03*
X880000Y920000D02*
D03*
X900000Y880000D02*
D03*
Y800000D02*
D03*
X880000Y760000D02*
D03*
X900000Y720000D02*
D03*
X880000Y680000D02*
D03*
X900000Y640000D02*
D03*
X880000Y600000D02*
D03*
X900000Y560000D02*
D03*
X880000Y520000D02*
D03*
X900000Y480000D02*
D03*
X840000Y1000000D02*
D03*
X860000Y960000D02*
D03*
X840000Y920000D02*
D03*
X860000Y880000D02*
D03*
X840000Y840000D02*
D03*
X860000Y800000D02*
D03*
Y720000D02*
D03*
X840000Y680000D02*
D03*
X860000Y640000D02*
D03*
X840000Y600000D02*
D03*
X860000Y560000D02*
D03*
X840000Y520000D02*
D03*
X860000Y480000D02*
D03*
X840000Y440000D02*
D03*
X820000Y960000D02*
D03*
Y880000D02*
D03*
Y800000D02*
D03*
Y720000D02*
D03*
X800000Y680000D02*
D03*
X820000Y640000D02*
D03*
Y480000D02*
D03*
X800000Y440000D02*
D03*
X780000Y480000D02*
D03*
X760000Y440000D02*
D03*
X680000Y520000D02*
D03*
X660000Y640000D02*
D03*
Y480000D02*
D03*
X640000Y440000D02*
D03*
X600000Y1000000D02*
D03*
Y920000D02*
D03*
Y840000D02*
D03*
Y760000D02*
D03*
Y520000D02*
D03*
X620000Y480000D02*
D03*
X600000Y440000D02*
D03*
X560000Y1000000D02*
D03*
X580000Y960000D02*
D03*
X560000Y520000D02*
D03*
X580000Y480000D02*
D03*
X560000Y440000D02*
D03*
X540000Y480000D02*
D03*
X480000Y760000D02*
D03*
Y680000D02*
D03*
X440000Y920000D02*
D03*
X460000Y880000D02*
D03*
X440000Y680000D02*
D03*
X460000Y640000D02*
D03*
X440000Y520000D02*
D03*
X460000Y480000D02*
D03*
X440000Y440000D02*
D03*
X400000Y1000000D02*
D03*
X420000Y960000D02*
D03*
X400000Y920000D02*
D03*
Y840000D02*
D03*
Y680000D02*
D03*
X420000Y640000D02*
D03*
X400000Y520000D02*
D03*
Y440000D02*
D03*
X360000Y1000000D02*
D03*
X380000Y960000D02*
D03*
X360000Y920000D02*
D03*
X380000Y880000D02*
D03*
Y800000D02*
D03*
X360000Y760000D02*
D03*
X380000Y720000D02*
D03*
Y480000D02*
D03*
X360000Y440000D02*
D03*
X320000Y1000000D02*
D03*
X340000Y960000D02*
D03*
X320000Y920000D02*
D03*
X340000Y880000D02*
D03*
X320000Y840000D02*
D03*
X340000Y800000D02*
D03*
X320000Y760000D02*
D03*
X340000Y720000D02*
D03*
X320000Y520000D02*
D03*
X340000Y480000D02*
D03*
X320000Y440000D02*
D03*
X300000Y960000D02*
D03*
X280000Y920000D02*
D03*
Y840000D02*
D03*
X300000Y800000D02*
D03*
X280000Y760000D02*
D03*
X300000Y720000D02*
D03*
X280000Y680000D02*
D03*
X300000Y640000D02*
D03*
X280000Y520000D02*
D03*
X300000Y480000D02*
D03*
X492750Y423500D02*
D03*
X492500Y462750D02*
D03*
X363000Y813000D02*
D03*
X392000Y822250D02*
D03*
X434750Y892750D02*
D03*
X540000Y921500D02*
D03*
X510500Y907500D02*
D03*
X520750Y895750D02*
D03*
X512750Y836500D02*
D03*
X564250Y828750D02*
D03*
X550500Y790500D02*
D03*
X520500Y778000D02*
D03*
X797750Y719500D02*
D03*
X752500Y499750D02*
D03*
X772000Y484000D02*
D03*
X804500Y534750D02*
D03*
X782000Y624250D02*
D03*
X787599Y609197D02*
D03*
X691250Y639000D02*
D03*
X676250Y610000D02*
D03*
X586500Y498500D02*
D03*
X462750Y567750D02*
D03*
X432750Y578500D02*
D03*
X410000Y589750D02*
D03*
X423500Y628500D02*
D03*
X280250Y551000D02*
D03*
X331000Y566250D02*
D03*
X321250Y577500D02*
D03*
X778745Y538207D02*
D03*
X766000Y553000D02*
D03*
X540250Y851500D02*
D03*
X568750Y858750D02*
D03*
X337000Y543750D02*
D03*
Y552250D02*
D03*
X352750Y547750D02*
D03*
X336500Y590250D02*
D03*
X305750Y582000D02*
D03*
X280750Y542000D02*
D03*
X660001Y464001D02*
D03*
X704001Y456001D02*
D03*
X648001Y424001D02*
D03*
Y456001D02*
D03*
X652001Y432001D02*
D03*
X700001Y464001D02*
D03*
X692001D02*
D03*
X652001D02*
D03*
X668001D02*
D03*
X648001Y440000D02*
D03*
X652001Y448000D02*
D03*
X676001Y464001D02*
D03*
X684001D02*
D03*
X305500Y537000D02*
D03*
X655750Y570750D02*
D03*
X668000Y548750D02*
D03*
X488000Y644750D02*
D03*
X679750Y532250D02*
D03*
X703750Y627500D02*
D03*
X732750Y653000D02*
D03*
X767250Y624250D02*
D03*
X816500Y551250D02*
D03*
X812000Y518750D02*
D03*
X514500Y886000D02*
D03*
X780000Y960001D02*
D03*
Y940001D02*
D03*
Y920001D02*
D03*
Y900001D02*
D03*
Y880001D02*
D03*
Y860001D02*
D03*
Y840001D02*
D03*
Y820000D02*
D03*
Y800000D02*
D03*
Y780000D02*
D03*
X775000Y970001D02*
D03*
X770000Y960001D02*
D03*
X775000Y950001D02*
D03*
X770000Y940001D02*
D03*
X775000Y930001D02*
D03*
X770000Y920001D02*
D03*
X775000Y910001D02*
D03*
X770000Y900001D02*
D03*
X775000Y890001D02*
D03*
X770000Y880001D02*
D03*
X775000Y870001D02*
D03*
X770000Y860001D02*
D03*
X775000Y850001D02*
D03*
X770000Y840001D02*
D03*
X775000Y830000D02*
D03*
X770000Y820000D02*
D03*
X775000Y810000D02*
D03*
X770000Y800000D02*
D03*
X775000Y790000D02*
D03*
X770000Y780000D02*
D03*
X765000Y970001D02*
D03*
Y930001D02*
D03*
X760000Y840001D02*
D03*
X765000Y830000D02*
D03*
X760000Y820000D02*
D03*
X765000Y810000D02*
D03*
X760000Y800000D02*
D03*
X755000Y970001D02*
D03*
Y930001D02*
D03*
X750000Y840001D02*
D03*
X755000Y830000D02*
D03*
X750000Y820000D02*
D03*
X755000Y810000D02*
D03*
X750000Y800000D02*
D03*
X725000Y970001D02*
D03*
X715000D02*
D03*
X705000D02*
D03*
X700000Y960001D02*
D03*
X695000Y970001D02*
D03*
X690000Y960001D02*
D03*
X695000Y950001D02*
D03*
X690000Y820000D02*
D03*
X695000Y810000D02*
D03*
X690000Y800000D02*
D03*
X685000Y950001D02*
D03*
X680000Y820000D02*
D03*
X685000Y810000D02*
D03*
X680000Y800000D02*
D03*
X670000Y940001D02*
D03*
X675000Y930001D02*
D03*
X670000Y920001D02*
D03*
X675000Y910001D02*
D03*
X670000Y900001D02*
D03*
X675000Y890001D02*
D03*
Y850001D02*
D03*
X670000Y840001D02*
D03*
X675000Y830000D02*
D03*
X670000Y820000D02*
D03*
X675000Y810000D02*
D03*
X670000Y800000D02*
D03*
Y780000D02*
D03*
X660000Y940001D02*
D03*
X665000Y930001D02*
D03*
X660000Y920001D02*
D03*
X665000Y910001D02*
D03*
X660000Y900001D02*
D03*
X665000Y890001D02*
D03*
X660000Y840001D02*
D03*
X665000Y830000D02*
D03*
X660000Y820000D02*
D03*
X665000Y810000D02*
D03*
X660000Y800000D02*
D03*
X665000Y790000D02*
D03*
X660000Y780000D02*
D03*
X655000Y970001D02*
D03*
X650000Y960001D02*
D03*
X655000Y950001D02*
D03*
X650000Y940001D02*
D03*
X655000Y930001D02*
D03*
X650000Y920001D02*
D03*
X655000Y910001D02*
D03*
X650000Y900001D02*
D03*
X655000Y890001D02*
D03*
X650000Y880001D02*
D03*
X655000Y870001D02*
D03*
X650000Y860001D02*
D03*
X655000Y850001D02*
D03*
X650000Y840001D02*
D03*
X655000Y830000D02*
D03*
X650000Y820000D02*
D03*
X655000Y810000D02*
D03*
X650000Y800000D02*
D03*
X655000Y790000D02*
D03*
X650000Y780000D02*
D03*
X538750Y567000D02*
D03*
X765250Y598000D02*
D03*
X669250Y627500D02*
D03*
X579500Y547500D02*
D03*
X408500Y551750D02*
D03*
X512000Y641250D02*
D03*
X528500Y610250D02*
D03*
X521750Y936250D02*
D03*
Y949000D02*
D03*
X551250Y923500D02*
D03*
X571250Y907500D02*
D03*
X559250Y877750D02*
D03*
X585000Y840750D02*
D03*
X400250Y801000D02*
D03*
X401750Y763750D02*
D03*
X734000Y485000D02*
D03*
X713750Y498750D02*
D03*
X792750Y551000D02*
D03*
X763250Y575250D02*
D03*
X714000Y507250D02*
D03*
X772324Y566174D02*
D03*
X733134Y521875D02*
D03*
X772500Y577500D02*
D03*
X733134Y532875D02*
D03*
X714566Y537503D02*
D03*
X500500Y512250D02*
D03*
X517750Y519263D02*
D03*
X474750D02*
D03*
X724250Y638094D02*
D03*
X700750Y610500D02*
D03*
X716000Y616000D02*
D03*
X687500Y571250D02*
D03*
X654500Y524000D02*
D03*
X696250Y574000D02*
D03*
X427500Y724500D02*
D03*
X468500Y736500D02*
D03*
X280500Y576250D02*
D03*
X285750Y583250D02*
D03*
X290500Y591250D02*
D03*
X280750D02*
D03*
X344500Y625000D02*
D03*
X343500Y690500D02*
D03*
X314750Y639000D02*
D03*
Y675250D02*
D03*
X365000Y676250D02*
D03*
X356250Y649750D02*
D03*
X381250Y568000D02*
D03*
X371000D02*
D03*
X381000Y578500D02*
D03*
X371500D02*
D03*
X381000Y587750D02*
D03*
X371500D02*
D03*
X315250Y562250D02*
D03*
X783750Y560750D02*
D03*
X830125Y715375D02*
D03*
X388250Y660000D02*
D03*
X439750Y736250D02*
D03*
X715501Y460533D02*
D03*
X712985Y449824D02*
D03*
X705067Y442189D02*
D03*
X730957Y542223D02*
D03*
X714566Y526503D02*
D03*
X714728Y471506D02*
D03*
X708002Y423522D02*
D03*
X717986Y428140D02*
D03*
X726021Y435652D02*
D03*
X731302Y445302D02*
D03*
X733297Y456119D02*
D03*
X732250Y465750D02*
D03*
X734000Y476500D02*
D03*
X732010Y499923D02*
D03*
X733034Y510876D02*
D03*
D134*
X718850Y566138D02*
D03*
Y577138D02*
D03*
Y588138D02*
D03*
X729850Y566138D02*
D03*
Y577138D02*
D03*
Y588138D02*
D03*
X740850Y566138D02*
D03*
Y577138D02*
D03*
Y588138D02*
D03*
M02*
