M48
;Layer_Color=9474304
;FILE_FORMAT=4:4
METRIC,LZ
;TYPE=PLATED
T01F00S00C0.3000
T02F00S00C0.3048
T04F00S00C1.0414
T05F00S00C1.2000
;TYPE=NON_PLATED
T06F00S00C0.6500
T07F00S00C1.1000
T08F00S00C2.4000
T09F00S00C3.5000
%
T01
X008Y0044
X0084
X0086Y0048
X009
X0088Y0052
X0084
X00812Y0051875
X008165Y0055125
X0086Y0056
X009
X0088Y006
X0084
X0086Y0064
X009
X0088Y0068
X0084
X008
X0082Y0072
X00830125Y00715375
X0086Y0072
X009
X0088Y0076
X0082Y0064
Y0048
X0078
X00734Y004765
Y00485
X0073201Y00499923
X00733034Y00510876
X00733134Y00521875
Y00532875
X00730957Y00542223
X00714566Y00537503
Y00526503
X00714Y0050725
X0071375Y0049875
X00714728Y00471506
X00715501Y00460533
X00712985Y00449824
X00704001Y00456001
X00700001Y00464001
X00692001
X00684001
X00676001
X00668001
X00660001
X00652001
X00648001Y00456001
X00652001Y00448
X00648001Y0044
X0064Y0044
X00652001Y00432001
X00648001Y00424001
X00708002Y00423522
X00717986Y0042814
X00726021Y00435652
X00731302Y00445302
X00733297Y00456119
X0073225Y0046575
X007Y0048
X0066
X0062
X0058
X0054
X0056Y0052
X006
X005795Y005475
X0053875Y00567
X005285Y0061025
X00512Y0064125
X00488Y0064475
X0046Y0064
X0042
X004Y0068
X0044
X0048
X004685Y007365
X0043975Y0073625
X004275Y007245
X0040175Y0076375
X0048Y0076
X006
X0065Y0078
X0066
X0067
X00665Y0079
X00655
X00775
X0077Y0078
X0078
X0076Y0068
X0073275Y00653
X0072425Y00638094
X00716Y00616
X0070075Y006105
X0070375Y006275
X0066925
X0066Y0064
X0065575Y0057075
X006875Y0057125
X0069625Y00574
X00668Y0054875
X0067975Y0053225
X0068Y0052
X006545Y00524
X00705067Y00442189
X0076Y0044
X00766Y00553
X00772324Y00566174
X007725Y005775
X0076325Y0057525
X0076525Y00598
X0076725Y0062425
X0078375Y0056075
X0079275Y00551
X006Y0044
X0056
X0044
X004
Y0052
X0044
X0047475Y00519263
X005005Y0051225
X0051775Y00519263
X0046Y0048
X004085Y0055175
X0038125Y00568
X00371
X003715Y005785
Y0058775
X00381
Y005785
X003365Y0059025
X003085Y0058625
X002905Y0059125
X0028075
X0028575Y0058325
X002805Y0057625
X0028075Y00542
X0028Y0052
X0032
X003055Y00537
X0031525Y0056225
X0031475Y00639
X003Y0064
X0031475Y0067525
X0028Y0068
X003Y0072
X0034
X003435Y006905
X00365Y0067625
X0035625Y0064975
X003445Y00625
X0038825Y0066
X0038Y0072
X0036Y0076
X0032
X0028
X003Y0048
X0034
X0038
X0036Y0044
X0032
X0034Y008
X0038
Y0088
X0034
X0032Y0092
X0036
X0038Y0096
X0034
X003
X0028Y0092
Y0084
X0032
X003Y008
X0032Y01
X0036
X004
X0042Y0096
X004Y0092
X0044
X0046Y0088
X005145Y00886
X0055925Y0087775
X0057125Y009075
X0055125Y009235
X0052175Y0093625
Y00949
X0058Y0096
X0056Y01
X006
Y0092
X0065Y00920001
X0066
X0067
X00675Y00930001
X00665
X00655
X0065Y00940001
X0066
X0067
X00685Y00950001
X00695
X0069Y00960001
X007
X00705Y00970001
X00715
X00725
X00755
X00765
X00775
X0077Y00960001
X0078
X00775Y00950001
X0077Y00940001
X0078
X00775Y00930001
X00765
X00755
X0077Y00920001
X0078
X00775Y00910001
X0077Y00900001
X0078
X00775Y00890001
X0077Y00880001
X0078
X00775Y00870001
X0077Y00860001
X0078
X00775Y00850001
X0077Y00840001
X0078
X00775Y0083
X00765
X00755
X0075Y00840001
X0076
Y0082
X0077
X0078
X00775Y0081
X00765
X00755
X0075Y0082
Y008
X0076
X0077
X0078
X0069
X0068
X0067
X0066
X0065
X00655Y0081
X00665
X00675
X00685
X00695
X0069Y0082
X0068
X0067
X0066
X0065
X00655Y0083
X00665
X00675
X0067Y00840001
X0066
X0065
X00655Y00850001
X0065Y00860001
X00655Y00870001
X0065Y00880001
X00655Y00890001
X00665
X00675
X0067Y00900001
X0066
X0065
X00655Y00910001
X00665
X00675
Y00850001
X006Y0084
X00585Y0084075
X00655Y00950001
X0065Y00960001
X00655Y00970001
X00695
X004Y0084
X0040025Y00801
X0082Y008
X0086
X009
Y0088
X0086
X0082
X0084Y0092
X0088
X009Y0096
X0086
X0082
X0084Y01
Y0084
T02
X0071885Y00566138
Y00577138
Y00588138
X0072985
Y00577138
Y00566138
X0074085
Y00577138
Y00588138
T04
X00870914Y00785051
X00755852
X00685748
X00870914Y00832041
T05
X007179Y0095275
X00756
T06
X0032025Y0062915
Y0068695
T07
X0028725Y00802
Y00874
X0047275Y01003
X0051975
T08
X006729Y0096175
X00801
T09
X00873Y004535
X0029425
Y0099525
X00873
M30
