%TF.GenerationSoftware,Altium Limited,Altium Designer,24.4.1 (13)*%
G04 Layer_Physical_Order=1*
G04 Layer_Color=255*
%FSLAX45Y45*%
%MOMM*%
%TF.SameCoordinates,BD841E63-566E-43FA-B15A-678BD665FBE9*%
%TF.FilePolarity,Positive*%
%TF.FileFunction,Copper,L1,Top,Signal*%
%TF.Part,Single*%
G01*
G75*
%TA.AperFunction,Conductor*%
%ADD10C,0.32126*%
%TA.AperFunction,SMDPad,CuDef*%
G04:AMPARAMS|DCode=11|XSize=0.56mm|YSize=0.32mm|CornerRadius=0.08mm|HoleSize=0mm|Usage=FLASHONLY|Rotation=0.000|XOffset=0mm|YOffset=0mm|HoleType=Round|Shape=RoundedRectangle|*
%AMROUNDEDRECTD11*
21,1,0.56000,0.16000,0,0,0.0*
21,1,0.40000,0.32000,0,0,0.0*
1,1,0.16000,0.20000,-0.08000*
1,1,0.16000,-0.20000,-0.08000*
1,1,0.16000,-0.20000,0.08000*
1,1,0.16000,0.20000,0.08000*
%
%ADD11ROUNDEDRECTD11*%
%TA.AperFunction,SMDPad,SMDef*%
%ADD12R,1.00000X1.00000*%
%TA.AperFunction,SMDPad,CuDef*%
%ADD13R,0.80000X0.80000*%
%ADD14R,0.80000X0.80000*%
%ADD15O,0.20000X0.85000*%
%ADD16O,0.85000X0.20000*%
%ADD17R,3.50000X3.50000*%
G04:AMPARAMS|DCode=18|XSize=0.58mm|YSize=0.58mm|CornerRadius=0.1508mm|HoleSize=0mm|Usage=FLASHONLY|Rotation=0.000|XOffset=0mm|YOffset=0mm|HoleType=Round|Shape=RoundedRectangle|*
%AMROUNDEDRECTD18*
21,1,0.58000,0.27840,0,0,0.0*
21,1,0.27840,0.58000,0,0,0.0*
1,1,0.30160,0.13920,-0.13920*
1,1,0.30160,-0.13920,-0.13920*
1,1,0.30160,-0.13920,0.13920*
1,1,0.30160,0.13920,0.13920*
%
%ADD18ROUNDEDRECTD18*%
G04:AMPARAMS|DCode=19|XSize=1.21mm|YSize=0.59mm|CornerRadius=0.07375mm|HoleSize=0mm|Usage=FLASHONLY|Rotation=0.000|XOffset=0mm|YOffset=0mm|HoleType=Round|Shape=RoundedRectangle|*
%AMROUNDEDRECTD19*
21,1,1.21000,0.44250,0,0,0.0*
21,1,1.06250,0.59000,0,0,0.0*
1,1,0.14750,0.53125,-0.22125*
1,1,0.14750,-0.53125,-0.22125*
1,1,0.14750,-0.53125,0.22125*
1,1,0.14750,0.53125,0.22125*
%
%ADD19ROUNDEDRECTD19*%
%TA.AperFunction,ConnectorPad*%
%ADD20R,5.60000X2.20000*%
%ADD21R,3.20000X1.20000*%
%ADD22R,1.20000X3.20000*%
%ADD23R,2.20000X5.60000*%
%TA.AperFunction,SMDPad,CuDef*%
G04:AMPARAMS|DCode=24|XSize=0.75mm|YSize=1.4mm|CornerRadius=0.1875mm|HoleSize=0mm|Usage=FLASHONLY|Rotation=180.000|XOffset=0mm|YOffset=0mm|HoleType=Round|Shape=RoundedRectangle|*
%AMROUNDEDRECTD24*
21,1,0.75000,1.02500,0,0,180.0*
21,1,0.37500,1.40000,0,0,180.0*
1,1,0.37500,-0.18750,0.51250*
1,1,0.37500,0.18750,0.51250*
1,1,0.37500,0.18750,-0.51250*
1,1,0.37500,-0.18750,-0.51250*
%
%ADD24ROUNDEDRECTD24*%
G04:AMPARAMS|DCode=25|XSize=0.75mm|YSize=1.4mm|CornerRadius=0.1875mm|HoleSize=0mm|Usage=FLASHONLY|Rotation=90.000|XOffset=0mm|YOffset=0mm|HoleType=Round|Shape=RoundedRectangle|*
%AMROUNDEDRECTD25*
21,1,0.75000,1.02500,0,0,90.0*
21,1,0.37500,1.40000,0,0,90.0*
1,1,0.37500,0.51250,0.18750*
1,1,0.37500,0.51250,-0.18750*
1,1,0.37500,-0.51250,-0.18750*
1,1,0.37500,-0.51250,0.18750*
%
%ADD25ROUNDEDRECTD25*%
%TA.AperFunction,ConnectorPad*%
%ADD26R,1.15000X0.60000*%
%ADD27R,1.15000X0.30000*%
%TA.AperFunction,SMDPad,CuDef*%
%ADD28R,0.35000X0.60000*%
G04:AMPARAMS|DCode=29|XSize=1.07mm|YSize=2.77mm|CornerRadius=0.25145mm|HoleSize=0mm|Usage=FLASHONLY|Rotation=180.000|XOffset=0mm|YOffset=0mm|HoleType=Round|Shape=RoundedRectangle|*
%AMROUNDEDRECTD29*
21,1,1.07000,2.26710,0,0,180.0*
21,1,0.56710,2.77000,0,0,180.0*
1,1,0.50290,-0.28355,1.13355*
1,1,0.50290,0.28355,1.13355*
1,1,0.50290,0.28355,-1.13355*
1,1,0.50290,-0.28355,-1.13355*
%
%ADD29ROUNDEDRECTD29*%
G04:AMPARAMS|DCode=30|XSize=1.05mm|YSize=2.77mm|CornerRadius=0.252mm|HoleSize=0mm|Usage=FLASHONLY|Rotation=0.000|XOffset=0mm|YOffset=0mm|HoleType=Round|Shape=RoundedRectangle|*
%AMROUNDEDRECTD30*
21,1,1.05000,2.26600,0,0,0.0*
21,1,0.54600,2.77000,0,0,0.0*
1,1,0.50400,0.27300,-1.13300*
1,1,0.50400,-0.27300,-1.13300*
1,1,0.50400,-0.27300,1.13300*
1,1,0.50400,0.27300,1.13300*
%
%ADD30ROUNDEDRECTD30*%
G04:AMPARAMS|DCode=31|XSize=0.58mm|YSize=0.58mm|CornerRadius=0.1305mm|HoleSize=0mm|Usage=FLASHONLY|Rotation=180.000|XOffset=0mm|YOffset=0mm|HoleType=Round|Shape=RoundedRectangle|*
%AMROUNDEDRECTD31*
21,1,0.58000,0.31900,0,0,180.0*
21,1,0.31900,0.58000,0,0,180.0*
1,1,0.26100,-0.15950,0.15950*
1,1,0.26100,0.15950,0.15950*
1,1,0.26100,0.15950,-0.15950*
1,1,0.26100,-0.15950,-0.15950*
%
%ADD31ROUNDEDRECTD31*%
G04:AMPARAMS|DCode=32|XSize=0.58mm|YSize=0.58mm|CornerRadius=0.1305mm|HoleSize=0mm|Usage=FLASHONLY|Rotation=90.000|XOffset=0mm|YOffset=0mm|HoleType=Round|Shape=RoundedRectangle|*
%AMROUNDEDRECTD32*
21,1,0.58000,0.31900,0,0,90.0*
21,1,0.31900,0.58000,0,0,90.0*
1,1,0.26100,0.15950,0.15950*
1,1,0.26100,0.15950,-0.15950*
1,1,0.26100,-0.15950,-0.15950*
1,1,0.26100,-0.15950,0.15950*
%
%ADD32ROUNDEDRECTD32*%
G04:AMPARAMS|DCode=33|XSize=0.58mm|YSize=0.58mm|CornerRadius=0.1508mm|HoleSize=0mm|Usage=FLASHONLY|Rotation=270.000|XOffset=0mm|YOffset=0mm|HoleType=Round|Shape=RoundedRectangle|*
%AMROUNDEDRECTD33*
21,1,0.58000,0.27840,0,0,270.0*
21,1,0.27840,0.58000,0,0,270.0*
1,1,0.30160,-0.13920,-0.13920*
1,1,0.30160,-0.13920,0.13920*
1,1,0.30160,0.13920,0.13920*
1,1,0.30160,0.13920,-0.13920*
%
%ADD33ROUNDEDRECTD33*%
G04:AMPARAMS|DCode=34|XSize=1.19mm|YSize=2.22mm|CornerRadius=0.2499mm|HoleSize=0mm|Usage=FLASHONLY|Rotation=90.000|XOffset=0mm|YOffset=0mm|HoleType=Round|Shape=RoundedRectangle|*
%AMROUNDEDRECTD34*
21,1,1.19000,1.72020,0,0,90.0*
21,1,0.69020,2.22000,0,0,90.0*
1,1,0.49980,0.86010,0.34510*
1,1,0.49980,0.86010,-0.34510*
1,1,0.49980,-0.86010,-0.34510*
1,1,0.49980,-0.86010,0.34510*
%
%ADD34ROUNDEDRECTD34*%
G04:AMPARAMS|DCode=35|XSize=1.62mm|YSize=3.51mm|CornerRadius=0.2511mm|HoleSize=0mm|Usage=FLASHONLY|Rotation=0.000|XOffset=0mm|YOffset=0mm|HoleType=Round|Shape=RoundedRectangle|*
%AMROUNDEDRECTD35*
21,1,1.62000,3.00780,0,0,0.0*
21,1,1.11780,3.51000,0,0,0.0*
1,1,0.50220,0.55890,-1.50390*
1,1,0.50220,-0.55890,-1.50390*
1,1,0.50220,-0.55890,1.50390*
1,1,0.50220,0.55890,1.50390*
%
%ADD35ROUNDEDRECTD35*%
G04:AMPARAMS|DCode=36|XSize=0.95mm|YSize=1.02mm|CornerRadius=0.24225mm|HoleSize=0mm|Usage=FLASHONLY|Rotation=270.000|XOffset=0mm|YOffset=0mm|HoleType=Round|Shape=RoundedRectangle|*
%AMROUNDEDRECTD36*
21,1,0.95000,0.53550,0,0,270.0*
21,1,0.46550,1.02000,0,0,270.0*
1,1,0.48450,-0.26775,-0.23275*
1,1,0.48450,-0.26775,0.23275*
1,1,0.48450,0.26775,0.23275*
1,1,0.48450,0.26775,-0.23275*
%
%ADD36ROUNDEDRECTD36*%
G04:AMPARAMS|DCode=37|XSize=0.95mm|YSize=1.02mm|CornerRadius=0.24225mm|HoleSize=0mm|Usage=FLASHONLY|Rotation=180.000|XOffset=0mm|YOffset=0mm|HoleType=Round|Shape=RoundedRectangle|*
%AMROUNDEDRECTD37*
21,1,0.95000,0.53550,0,0,180.0*
21,1,0.46550,1.02000,0,0,180.0*
1,1,0.48450,-0.23275,0.26775*
1,1,0.48450,0.23275,0.26775*
1,1,0.48450,0.23275,-0.26775*
1,1,0.48450,-0.23275,-0.26775*
%
%ADD37ROUNDEDRECTD37*%
G04:AMPARAMS|DCode=38|XSize=0.66mm|YSize=0.7mm|CornerRadius=0.1716mm|HoleSize=0mm|Usage=FLASHONLY|Rotation=90.000|XOffset=0mm|YOffset=0mm|HoleType=Round|Shape=RoundedRectangle|*
%AMROUNDEDRECTD38*
21,1,0.66000,0.35680,0,0,90.0*
21,1,0.31680,0.70000,0,0,90.0*
1,1,0.34320,0.17840,0.15840*
1,1,0.34320,0.17840,-0.15840*
1,1,0.34320,-0.17840,-0.15840*
1,1,0.34320,-0.17840,0.15840*
%
%ADD38ROUNDEDRECTD38*%
G04:AMPARAMS|DCode=39|XSize=0.66mm|YSize=0.7mm|CornerRadius=0.1716mm|HoleSize=0mm|Usage=FLASHONLY|Rotation=180.000|XOffset=0mm|YOffset=0mm|HoleType=Round|Shape=RoundedRectangle|*
%AMROUNDEDRECTD39*
21,1,0.66000,0.35680,0,0,180.0*
21,1,0.31680,0.70000,0,0,180.0*
1,1,0.34320,-0.15840,0.17840*
1,1,0.34320,0.15840,0.17840*
1,1,0.34320,0.15840,-0.17840*
1,1,0.34320,-0.15840,-0.17840*
%
%ADD39ROUNDEDRECTD39*%
G04:AMPARAMS|DCode=40|XSize=1mm|YSize=1mm|CornerRadius=0.25mm|HoleSize=0mm|Usage=FLASHONLY|Rotation=270.000|XOffset=0mm|YOffset=0mm|HoleType=Round|Shape=RoundedRectangle|*
%AMROUNDEDRECTD40*
21,1,1.00000,0.50000,0,0,270.0*
21,1,0.50000,1.00000,0,0,270.0*
1,1,0.50000,-0.25000,-0.25000*
1,1,0.50000,-0.25000,0.25000*
1,1,0.50000,0.25000,0.25000*
1,1,0.50000,0.25000,-0.25000*
%
%ADD40ROUNDEDRECTD40*%
G04:AMPARAMS|DCode=41|XSize=1mm|YSize=1mm|CornerRadius=0.25mm|HoleSize=0mm|Usage=FLASHONLY|Rotation=0.000|XOffset=0mm|YOffset=0mm|HoleType=Round|Shape=RoundedRectangle|*
%AMROUNDEDRECTD41*
21,1,1.00000,0.50000,0,0,0.0*
21,1,0.50000,1.00000,0,0,0.0*
1,1,0.50000,0.25000,-0.25000*
1,1,0.50000,-0.25000,-0.25000*
1,1,0.50000,-0.25000,0.25000*
1,1,0.50000,0.25000,0.25000*
%
%ADD41ROUNDEDRECTD41*%
G04:AMPARAMS|DCode=42|XSize=1.19mm|YSize=1.29mm|CornerRadius=0.2499mm|HoleSize=0mm|Usage=FLASHONLY|Rotation=90.000|XOffset=0mm|YOffset=0mm|HoleType=Round|Shape=RoundedRectangle|*
%AMROUNDEDRECTD42*
21,1,1.19000,0.79020,0,0,90.0*
21,1,0.69020,1.29000,0,0,90.0*
1,1,0.49980,0.39510,0.34510*
1,1,0.49980,0.39510,-0.34510*
1,1,0.49980,-0.39510,-0.34510*
1,1,0.49980,-0.39510,0.34510*
%
%ADD42ROUNDEDRECTD42*%
%ADD43R,0.76000X2.40000*%
G04:AMPARAMS|DCode=44|XSize=1.02mm|YSize=0.46mm|CornerRadius=0.1196mm|HoleSize=0mm|Usage=FLASHONLY|Rotation=270.000|XOffset=0mm|YOffset=0mm|HoleType=Round|Shape=RoundedRectangle|*
%AMROUNDEDRECTD44*
21,1,1.02000,0.22080,0,0,270.0*
21,1,0.78080,0.46000,0,0,270.0*
1,1,0.23920,-0.11040,-0.39040*
1,1,0.23920,-0.11040,0.39040*
1,1,0.23920,0.11040,0.39040*
1,1,0.23920,0.11040,-0.39040*
%
%ADD44ROUNDEDRECTD44*%
G04:AMPARAMS|DCode=45|XSize=1.03mm|YSize=0.6mm|CornerRadius=0.15mm|HoleSize=0mm|Usage=FLASHONLY|Rotation=270.000|XOffset=0mm|YOffset=0mm|HoleType=Round|Shape=RoundedRectangle|*
%AMROUNDEDRECTD45*
21,1,1.03000,0.30000,0,0,270.0*
21,1,0.73000,0.60000,0,0,270.0*
1,1,0.30000,-0.15000,-0.36500*
1,1,0.30000,-0.15000,0.36500*
1,1,0.30000,0.15000,0.36500*
1,1,0.30000,0.15000,-0.36500*
%
%ADD45ROUNDEDRECTD45*%
G04:AMPARAMS|DCode=46|XSize=1.03mm|YSize=0.6mm|CornerRadius=0.15mm|HoleSize=0mm|Usage=FLASHONLY|Rotation=180.000|XOffset=0mm|YOffset=0mm|HoleType=Round|Shape=RoundedRectangle|*
%AMROUNDEDRECTD46*
21,1,1.03000,0.30000,0,0,180.0*
21,1,0.73000,0.60000,0,0,180.0*
1,1,0.30000,-0.36500,0.15000*
1,1,0.30000,0.36500,0.15000*
1,1,0.30000,0.36500,-0.15000*
1,1,0.30000,-0.36500,-0.15000*
%
%ADD46ROUNDEDRECTD46*%
G04:AMPARAMS|DCode=47|XSize=1.29mm|YSize=0.59mm|CornerRadius=0.15045mm|HoleSize=0mm|Usage=FLASHONLY|Rotation=180.000|XOffset=0mm|YOffset=0mm|HoleType=Round|Shape=RoundedRectangle|*
%AMROUNDEDRECTD47*
21,1,1.29000,0.28910,0,0,180.0*
21,1,0.98910,0.59000,0,0,180.0*
1,1,0.30090,-0.49455,0.14455*
1,1,0.30090,0.49455,0.14455*
1,1,0.30090,0.49455,-0.14455*
1,1,0.30090,-0.49455,-0.14455*
%
%ADD47ROUNDEDRECTD47*%
%ADD48R,1.45000X1.00000*%
G04:AMPARAMS|DCode=49|XSize=2.07mm|YSize=0.63mm|CornerRadius=0.16065mm|HoleSize=0mm|Usage=FLASHONLY|Rotation=180.000|XOffset=0mm|YOffset=0mm|HoleType=Round|Shape=RoundedRectangle|*
%AMROUNDEDRECTD49*
21,1,2.07000,0.30870,0,0,180.0*
21,1,1.74870,0.63000,0,0,180.0*
1,1,0.32130,-0.87435,0.15435*
1,1,0.32130,0.87435,0.15435*
1,1,0.32130,0.87435,-0.15435*
1,1,0.32130,-0.87435,-0.15435*
%
%ADD49ROUNDEDRECTD49*%
G04:AMPARAMS|DCode=50|XSize=2.07mm|YSize=0.63mm|CornerRadius=0.16065mm|HoleSize=0mm|Usage=FLASHONLY|Rotation=270.000|XOffset=0mm|YOffset=0mm|HoleType=Round|Shape=RoundedRectangle|*
%AMROUNDEDRECTD50*
21,1,2.07000,0.30870,0,0,270.0*
21,1,1.74870,0.63000,0,0,270.0*
1,1,0.32130,-0.15435,-0.87435*
1,1,0.32130,-0.15435,0.87435*
1,1,0.32130,0.15435,0.87435*
1,1,0.32130,0.15435,-0.87435*
%
%ADD50ROUNDEDRECTD50*%
G04:AMPARAMS|DCode=51|XSize=2.01mm|YSize=0.66mm|CornerRadius=0.1716mm|HoleSize=0mm|Usage=FLASHONLY|Rotation=180.000|XOffset=0mm|YOffset=0mm|HoleType=Round|Shape=RoundedRectangle|*
%AMROUNDEDRECTD51*
21,1,2.01000,0.31680,0,0,180.0*
21,1,1.66680,0.66000,0,0,180.0*
1,1,0.34320,-0.83340,0.15840*
1,1,0.34320,0.83340,0.15840*
1,1,0.34320,0.83340,-0.15840*
1,1,0.34320,-0.83340,-0.15840*
%
%ADD51ROUNDEDRECTD51*%
%TA.AperFunction,ConnectorPad*%
%ADD52R,0.80000X1.60000*%
%ADD53R,0.80000X0.65000*%
%TA.AperFunction,Conductor*%
%ADD54C,0.28487*%
%ADD55C,0.15200*%
%ADD56C,0.15240*%
%ADD57C,0.25400*%
%ADD58C,0.15400*%
%ADD59C,0.30000*%
%ADD60C,0.20213*%
%ADD61C,0.32100*%
%ADD62C,0.20000*%
%ADD63C,0.17500*%
%ADD64C,0.26065*%
%TA.AperFunction,ComponentPad*%
%ADD65C,1.80000*%
%ADD66R,1.80000X1.80000*%
%ADD67C,2.40000*%
%ADD68C,1.10000*%
G04:AMPARAMS|DCode=69|XSize=1.8mm|YSize=1mm|CornerRadius=0.25mm|HoleSize=0mm|Usage=FLASHONLY|Rotation=0.000|XOffset=0mm|YOffset=0mm|HoleType=Round|Shape=RoundedRectangle|*
%AMROUNDEDRECTD69*
21,1,1.80000,0.50000,0,0,0.0*
21,1,1.30000,1.00000,0,0,0.0*
1,1,0.50000,0.65000,-0.25000*
1,1,0.50000,-0.65000,-0.25000*
1,1,0.50000,-0.65000,0.25000*
1,1,0.50000,0.65000,0.25000*
%
%ADD69ROUNDEDRECTD69*%
%ADD70O,2.10000X1.00000*%
%ADD71C,0.65000*%
%ADD72C,1.54940*%
%TA.AperFunction,ViaPad*%
%ADD73C,0.60960*%
%ADD74C,0.60000*%
G36*
X8789186Y10326188D02*
X8846916Y10312329D01*
X8901766Y10289609D01*
X8952386Y10258589D01*
X8997531Y10220031D01*
X9036089Y10174886D01*
X9067109Y10124266D01*
X9089829Y10069415D01*
X9103688Y10011686D01*
X9108244Y9953794D01*
X9107987Y9952500D01*
Y4535000D01*
X9108244Y4533706D01*
X9103688Y4475814D01*
X9089829Y4418085D01*
X9067109Y4363235D01*
X9036089Y4312614D01*
X8997531Y4267469D01*
X8952386Y4228912D01*
X8901766Y4197891D01*
X8846916Y4175171D01*
X8789186Y4161312D01*
X8731294Y4156756D01*
X8730000Y4157013D01*
X7006033D01*
X6992900Y4162100D01*
Y4207300D01*
X6927500D01*
Y4232700D01*
X6992900D01*
Y4252340D01*
X7032062Y4255423D01*
X7035511Y4256395D01*
X7039093Y4256536D01*
X7080549Y4266489D01*
X7083804Y4267989D01*
X7087319Y4268688D01*
X7126708Y4285004D01*
X7129688Y4286995D01*
X7133051Y4288236D01*
X7169403Y4310512D01*
X7172035Y4312945D01*
X7175162Y4314696D01*
X7207581Y4342385D01*
X7209800Y4345199D01*
X7212615Y4347419D01*
X7240304Y4379838D01*
X7242055Y4382965D01*
X7244488Y4385597D01*
X7266764Y4421949D01*
X7268005Y4425312D01*
X7269996Y4428291D01*
X7286311Y4467680D01*
X7287011Y4471196D01*
X7288511Y4474451D01*
X7298464Y4515907D01*
X7298604Y4519488D01*
X7299577Y4522938D01*
X7302922Y4565441D01*
X7302711Y4567231D01*
X7303062Y4569000D01*
X7301684Y4575930D01*
Y4577850D01*
X7301116Y4580706D01*
X7300842Y4583018D01*
X7300553Y4583534D01*
X7300375Y4584429D01*
X7299640Y4586203D01*
X7299609Y4586360D01*
X7299520Y4586493D01*
X7293602Y4600781D01*
X7289875Y4606360D01*
X7284834Y4611400D01*
Y4633364D01*
X7287500Y4647500D01*
X7287500D01*
X7287500Y4647500D01*
Y4676265D01*
X7289875Y4678640D01*
X7293602Y4684218D01*
X7300375Y4700571D01*
X7301684Y4707150D01*
Y4711618D01*
X7302555Y4716000D01*
Y4835000D01*
X7301684Y4839382D01*
Y4843850D01*
X7300375Y4850429D01*
X7300056Y4851201D01*
Y4957500D01*
X7299184Y4961882D01*
Y4966350D01*
X7297875Y4972929D01*
X7291102Y4989281D01*
X7287375Y4994859D01*
X7287375Y4994860D01*
X7284832Y4997403D01*
Y5013597D01*
X7287375Y5016140D01*
X7291102Y5021718D01*
X7297875Y5038071D01*
X7299184Y5044650D01*
Y5049118D01*
X7300056Y5053500D01*
Y5171516D01*
X7300181Y5172147D01*
Y5176615D01*
X7301052Y5180997D01*
Y5376989D01*
X7318571D01*
X7335198Y5383876D01*
X7347924Y5396603D01*
X7351475Y5405174D01*
X7368892Y5409309D01*
X7411692Y5366509D01*
Y5160287D01*
X7404518Y5158860D01*
X7393801Y5151699D01*
X7386640Y5140982D01*
X7384125Y5128340D01*
Y5096660D01*
X7386640Y5084018D01*
X7387359Y5082943D01*
X7386476Y5064024D01*
X7377070Y5049946D01*
X7373766Y5033340D01*
Y5030200D01*
X7435000D01*
X7496234D01*
Y5033340D01*
X7492931Y5049946D01*
X7483524Y5064024D01*
X7482642Y5082943D01*
X7483360Y5084018D01*
X7485875Y5096660D01*
Y5128340D01*
X7483360Y5140982D01*
X7476199Y5151699D01*
X7465482Y5158860D01*
X7458308Y5160287D01*
Y5351482D01*
X7472388Y5357314D01*
X7491692Y5338009D01*
Y5187766D01*
X7493466Y5178847D01*
X7498519Y5171285D01*
X7551860Y5117943D01*
X7549694Y5107054D01*
Y5038034D01*
X7552817Y5022337D01*
X7561708Y5009029D01*
X7575016Y5000138D01*
X7590713Y4997015D01*
X7594218D01*
X7596144Y4991539D01*
X7596753Y4981775D01*
X7588323Y4976143D01*
X7581162Y4965425D01*
X7578648Y4952784D01*
Y4917104D01*
X7581162Y4904462D01*
X7588323Y4893745D01*
X7599041Y4886584D01*
X7611683Y4884069D01*
X7643362D01*
X7656004Y4886584D01*
X7657080Y4887302D01*
X7675999Y4886419D01*
X7690077Y4877013D01*
X7706683Y4873710D01*
X7709823D01*
Y4934944D01*
Y4996177D01*
X7706683D01*
X7701194Y5005055D01*
X7699589Y5010305D01*
X7707628Y5022337D01*
X7710751Y5038034D01*
Y5107054D01*
X7707628Y5122750D01*
X7698737Y5136058D01*
X7685429Y5144949D01*
X7669732Y5148072D01*
X7590713D01*
X7588164Y5147565D01*
X7565684Y5170044D01*
X7575016Y5182138D01*
X7590713Y5179016D01*
X7669732D01*
X7685429Y5182138D01*
X7698737Y5191029D01*
X7707628Y5204337D01*
X7710751Y5220034D01*
Y5289054D01*
X7709961Y5293025D01*
X7724006Y5300532D01*
X7745319Y5279220D01*
X7752880Y5274167D01*
X7761800Y5272393D01*
X7791694D01*
Y5220034D01*
X7794817Y5204337D01*
X7803708Y5191029D01*
X7817016Y5182138D01*
X7832713Y5179016D01*
X7911732D01*
X7927429Y5182138D01*
X7932105Y5185262D01*
X7941537Y5180652D01*
X7946267Y5176395D01*
Y5175200D01*
X8007500D01*
X8068734D01*
Y5178340D01*
X8065431Y5194946D01*
X8056025Y5209024D01*
X8055142Y5227943D01*
X8055860Y5229018D01*
X8058375Y5241660D01*
Y5273340D01*
X8055860Y5285982D01*
X8048699Y5296699D01*
X8037982Y5303860D01*
X8025340Y5306375D01*
X7989660D01*
X7977019Y5303860D01*
X7966302Y5296699D01*
X7950482Y5300456D01*
X7949628Y5304751D01*
X7940737Y5318058D01*
X7927429Y5326949D01*
X7911732Y5330072D01*
X7832713D01*
X7817016Y5326949D01*
X7805131Y5319009D01*
X7771454D01*
X7724274Y5366189D01*
X7731781Y5380234D01*
X7739160Y5378766D01*
X7742300D01*
Y5440000D01*
X7755000D01*
Y5452700D01*
X7823767D01*
X7829474Y5455064D01*
X7881019Y5403519D01*
X7888580Y5398466D01*
X7897500Y5396692D01*
X8156441D01*
X8160068Y5390640D01*
X8151435Y5375400D01*
X8084600D01*
Y5322700D01*
X8215400D01*
Y5375206D01*
X8227450D01*
X8238488Y5377401D01*
X8247846Y5383654D01*
X8251505Y5389131D01*
X8252090Y5389352D01*
X8265564Y5389909D01*
X8266610Y5389626D01*
X8272869Y5380408D01*
X8266516Y5365240D01*
X8254760D01*
Y5254760D01*
X8365240D01*
Y5365240D01*
X8342304D01*
X8337681Y5380480D01*
X8343279Y5384221D01*
X8349981Y5394250D01*
X8352334Y5406080D01*
Y5433920D01*
X8349981Y5445750D01*
X8343279Y5455780D01*
X8333250Y5462481D01*
X8321420Y5464834D01*
X8293580D01*
X8281750Y5462481D01*
X8271720Y5455780D01*
X8268439Y5450869D01*
X8265564Y5450091D01*
X8252090Y5450648D01*
X8251505Y5450869D01*
X8247846Y5456346D01*
X8238488Y5462599D01*
X8227450Y5464794D01*
X8195550D01*
X8184512Y5462599D01*
X8175154Y5456346D01*
X8168901Y5446988D01*
X8168169Y5443308D01*
X8108400D01*
X8100254Y5458548D01*
X8102930Y5462554D01*
X8106234Y5479160D01*
Y5482300D01*
X8045000D01*
Y5507700D01*
X8106234D01*
Y5510840D01*
X8102930Y5527446D01*
X8093524Y5541524D01*
X8092641Y5560443D01*
X8093360Y5561518D01*
X8095875Y5574160D01*
Y5575442D01*
X8126734D01*
X8129220Y5571721D01*
X8139250Y5565019D01*
X8151080Y5562666D01*
X8178920D01*
X8190750Y5565019D01*
X8200779Y5571721D01*
X8207481Y5581750D01*
X8209834Y5593580D01*
Y5621420D01*
X8207481Y5633250D01*
X8200779Y5643280D01*
X8195869Y5646560D01*
X8195091Y5649436D01*
X8195648Y5662910D01*
X8195869Y5663494D01*
X8201346Y5667154D01*
X8207599Y5676512D01*
X8209794Y5687550D01*
Y5719450D01*
X8207599Y5730488D01*
X8201346Y5739846D01*
X8191988Y5746098D01*
X8180950Y5748294D01*
X8149050D01*
X8138012Y5746098D01*
X8128654Y5739846D01*
X8122535Y5730689D01*
X8088855D01*
X8087597Y5737012D01*
X8080896Y5747042D01*
X8075986Y5750323D01*
X8075207Y5753198D01*
X8075764Y5766672D01*
X8075986Y5767256D01*
X8081462Y5770916D01*
X8087715Y5780274D01*
X8089911Y5791312D01*
Y5823212D01*
X8087715Y5834250D01*
X8081462Y5843608D01*
X8072105Y5849861D01*
X8061066Y5852056D01*
X8033284D01*
X7957477Y5927863D01*
X7949916Y5932916D01*
X7940996Y5934690D01*
X7692721D01*
X7686409Y5949930D01*
X7690853Y5954374D01*
X7697740Y5971001D01*
Y5988999D01*
X7696813Y5991236D01*
X7712225Y6006647D01*
X7740897D01*
X7753538Y6009162D01*
X7754614Y6009881D01*
X7773533Y6008998D01*
X7787611Y5999592D01*
X7804217Y5996288D01*
X7807357D01*
Y6057522D01*
X7820057D01*
Y6070222D01*
X7879291D01*
Y6075362D01*
X7875987Y6091968D01*
X7871169Y6099180D01*
X7868072Y6110796D01*
X7871337Y6121197D01*
X7876427Y6128816D01*
X7879731Y6145422D01*
Y6150562D01*
X7820497D01*
Y6163262D01*
X7807797D01*
Y6224496D01*
X7804657D01*
X7788051Y6221193D01*
X7773973Y6211786D01*
X7755054Y6210904D01*
X7753979Y6211622D01*
X7741337Y6214137D01*
X7709657D01*
X7697015Y6211622D01*
X7686298Y6204461D01*
X7679137Y6193744D01*
X7677726Y6186651D01*
X7665497D01*
X7656546Y6184871D01*
X7648958Y6179801D01*
X7645706Y6180280D01*
X7632943Y6194233D01*
Y6296732D01*
X7630305Y6309994D01*
X7622792Y6321238D01*
X7611549Y6328750D01*
X7602845Y6330482D01*
Y6393735D01*
X7602121Y6397374D01*
X7603582Y6399561D01*
X7606097Y6412203D01*
Y6443882D01*
X7603582Y6456524D01*
X7602863Y6457600D01*
X7603746Y6476519D01*
X7613152Y6490597D01*
X7616456Y6507203D01*
Y6510343D01*
X7555222D01*
Y6523043D01*
X7542522D01*
Y6582276D01*
X7537382D01*
X7520776Y6578973D01*
X7510124Y6571856D01*
X7494526Y6572107D01*
X7480448Y6581513D01*
X7463842Y6584816D01*
X7458702D01*
Y6525583D01*
X7446002D01*
Y6512883D01*
X7384768D01*
Y6509743D01*
X7388071Y6493137D01*
X7397478Y6479059D01*
X7398360Y6460140D01*
X7397642Y6459064D01*
X7395127Y6446422D01*
Y6414743D01*
X7397642Y6402101D01*
X7404803Y6391383D01*
X7415520Y6384222D01*
X7418389Y6383652D01*
Y6331388D01*
X7415786D01*
X7402524Y6328750D01*
X7391281Y6321238D01*
X7383768Y6309994D01*
X7381130Y6296732D01*
Y6223385D01*
X7365890Y6217072D01*
X7260168Y6322795D01*
X7263743Y6340772D01*
X7268126Y6342587D01*
X7280853Y6355313D01*
X7287740Y6371941D01*
Y6389938D01*
X7280853Y6406566D01*
X7268126Y6419292D01*
X7265808Y6420253D01*
Y7222846D01*
X7300134Y7257171D01*
X7335642D01*
X7343308Y7249047D01*
X7345328Y7233671D01*
X7336830Y7220953D01*
X7333846Y7205950D01*
Y7202701D01*
X7388999D01*
Y7190001D01*
X7401699D01*
Y7134847D01*
X7404949D01*
X7419952Y7137831D01*
X7432670Y7146329D01*
X7434417Y7148943D01*
X7437774Y7150140D01*
X7453937Y7151069D01*
X7459249Y7147519D01*
X7471079Y7145166D01*
X7498919D01*
X7510750Y7147519D01*
X7520779Y7154221D01*
X7527480Y7164250D01*
X7528487Y7169312D01*
X7547788D01*
X7547856Y7168969D01*
X7554550Y7158951D01*
X7564567Y7152257D01*
X7576384Y7149907D01*
X7675294D01*
X7687111Y7152257D01*
X7697128Y7158951D01*
X7703822Y7168969D01*
X7706172Y7180785D01*
Y7209695D01*
X7703822Y7221512D01*
X7702067Y7224138D01*
X7710213Y7239378D01*
X7760246D01*
X7768730Y7226329D01*
X7769019Y7224138D01*
X7766146Y7209695D01*
Y7207940D01*
X7947531D01*
Y7209695D01*
X7944392Y7225476D01*
X7938161Y7234801D01*
X7935456Y7239089D01*
X7935635Y7252187D01*
X7936643Y7254619D01*
X7937493Y7255820D01*
X7939211Y7257538D01*
X7939846Y7259070D01*
X7953454Y7265213D01*
X7955072Y7265383D01*
X8038568D01*
X8041698Y7260698D01*
X8051701Y7254015D01*
X8063500Y7251668D01*
X8136500D01*
X8148299Y7254015D01*
X8158302Y7260698D01*
X8164985Y7270701D01*
X8167332Y7282500D01*
Y7312500D01*
X8164985Y7324299D01*
X8158302Y7334302D01*
X8151012Y7339172D01*
X8147518Y7350921D01*
X8147058Y7356771D01*
X8217315Y7427028D01*
X8220187Y7426466D01*
X8232668Y7412500D01*
Y7382500D01*
X8235015Y7370701D01*
X8241698Y7360698D01*
X8251701Y7354015D01*
X8263500Y7351668D01*
X8272762D01*
Y7189242D01*
X8262897Y7179377D01*
X8256010Y7162749D01*
Y7144752D01*
X8262897Y7128124D01*
X8275624Y7115398D01*
X8292251Y7108510D01*
X8310249D01*
X8326876Y7115398D01*
X8339602Y7128124D01*
X8346490Y7144752D01*
Y7162749D01*
X8339602Y7179377D01*
X8329737Y7189242D01*
Y7351668D01*
X8336500D01*
X8348299Y7354015D01*
X8358302Y7360698D01*
X8363857Y7369013D01*
X8574999D01*
X8575000Y7369012D01*
X8585902Y7371181D01*
X8595144Y7377356D01*
X8732643Y7514856D01*
X8732644Y7514856D01*
X8738819Y7524098D01*
X8740988Y7535000D01*
X8740987Y7535001D01*
Y7763061D01*
X8744929Y7764118D01*
X8766070Y7776323D01*
X8783331Y7793584D01*
X8795536Y7814725D01*
X8801854Y7838304D01*
Y7862715D01*
X8795536Y7886294D01*
X8783331Y7907435D01*
X8766070Y7924696D01*
X8744929Y7936902D01*
X8721350Y7943220D01*
X8696939D01*
X8673360Y7936902D01*
X8652219Y7924696D01*
X8634958Y7907435D01*
X8622752Y7886294D01*
X8616434Y7862715D01*
Y7838304D01*
X8622752Y7814725D01*
X8634958Y7793584D01*
X8652219Y7776323D01*
X8673360Y7764118D01*
X8684013Y7761263D01*
Y7546800D01*
X8563200Y7425987D01*
X8363857D01*
X8358302Y7434302D01*
X8348299Y7440985D01*
X8336500Y7443332D01*
X8263500D01*
X8249534Y7455813D01*
X8248972Y7458685D01*
X8432643Y7642356D01*
X8432644Y7642356D01*
X8438819Y7651598D01*
X8440988Y7662500D01*
X8440987Y7662501D01*
Y8120700D01*
X8605374Y8285087D01*
X8622628D01*
X8622752Y8284625D01*
X8634958Y8263484D01*
X8652219Y8246223D01*
X8673360Y8234018D01*
X8696939Y8227700D01*
X8721350D01*
X8744929Y8234018D01*
X8766070Y8246223D01*
X8783331Y8263484D01*
X8795536Y8284625D01*
X8801854Y8308204D01*
Y8332615D01*
X8795536Y8356194D01*
X8783331Y8377335D01*
X8766070Y8394596D01*
X8744929Y8406802D01*
X8721350Y8413120D01*
X8696939D01*
X8673360Y8406802D01*
X8652219Y8394596D01*
X8634958Y8377335D01*
X8622752Y8356194D01*
X8618965Y8342062D01*
X8593576D01*
X8593574Y8342062D01*
X8582673Y8339893D01*
X8573431Y8333718D01*
X8573430Y8333717D01*
X8392356Y8152644D01*
X8386181Y8143402D01*
X8384012Y8132500D01*
X8384013Y8132499D01*
Y7674300D01*
X8180551Y7470838D01*
X8166506Y7478346D01*
X8167332Y7482500D01*
Y7512500D01*
X8164985Y7524299D01*
X8158302Y7534302D01*
X8148299Y7540985D01*
X8136500Y7543332D01*
X8072987D01*
X8065779Y7558572D01*
X8067364Y7560505D01*
X8082286Y7578274D01*
X8082971Y7579521D01*
X8083873Y7580621D01*
X8094815Y7601091D01*
X8105988Y7621440D01*
X8106417Y7622797D01*
X8107087Y7624052D01*
X8113824Y7646260D01*
X8120814Y7668401D01*
X8120970Y7669817D01*
X8121383Y7671177D01*
X8123656Y7694260D01*
X8126194Y7717352D01*
X8126070Y7718771D01*
X8126210Y7720185D01*
Y9548300D01*
X8136024Y9565299D01*
X8145240Y9599695D01*
Y9635305D01*
X8136024Y9669700D01*
X8126210Y9686699D01*
Y9807500D01*
X8121383Y9856509D01*
X8107087Y9903634D01*
X8083873Y9947065D01*
X8052632Y9985132D01*
X8014565Y10016373D01*
X7971134Y10039587D01*
X7924009Y10053883D01*
X7875000Y10058710D01*
X7449302D01*
X7449063Y10058686D01*
X7448823Y10058709D01*
X7424503Y10056267D01*
X7400294Y10053883D01*
X7400063Y10053813D01*
X7399823Y10053789D01*
X7379503Y10047582D01*
X7334008Y10061382D01*
X7285000Y10066209D01*
X6465000D01*
X6415991Y10061382D01*
X6368866Y10047087D01*
X6325435Y10023873D01*
X6287368Y9992632D01*
X6256127Y9954565D01*
X6232913Y9911134D01*
X6218617Y9864008D01*
X6213790Y9815000D01*
Y7740223D01*
X6213825Y7739875D01*
X6213791Y7739524D01*
X6216244Y7715316D01*
X6218617Y7691214D01*
X6218719Y7690879D01*
X6218755Y7690529D01*
X6225873Y7667295D01*
X6232913Y7644089D01*
X6233078Y7643780D01*
X6233181Y7643444D01*
X6244677Y7622079D01*
X6256127Y7600658D01*
X6256350Y7600387D01*
X6256516Y7600078D01*
X6271942Y7581388D01*
X6287368Y7562591D01*
X6287640Y7562368D01*
X6287863Y7562098D01*
X6298669Y7551351D01*
X6298940Y7551130D01*
X6299164Y7550860D01*
X6318039Y7535544D01*
X6336823Y7520216D01*
X6337132Y7520052D01*
X6337404Y7519831D01*
X6358903Y7508493D01*
X6380318Y7497123D01*
X6380653Y7497022D01*
X6380964Y7496859D01*
X6404250Y7489936D01*
X6427483Y7482959D01*
X6427832Y7482925D01*
X6428167Y7482826D01*
X6452310Y7480583D01*
X6476505Y7478268D01*
X6476854Y7478303D01*
X6477202Y7478271D01*
X7021396Y7481294D01*
X7045201Y7483772D01*
X7069008Y7486117D01*
X7069679Y7486321D01*
X7070377Y7486393D01*
X7093225Y7493464D01*
X7116134Y7500412D01*
X7116752Y7500743D01*
X7117421Y7500950D01*
X7138457Y7512345D01*
X7159565Y7523627D01*
X7160106Y7524071D01*
X7160723Y7524405D01*
X7179133Y7539686D01*
X7197632Y7554868D01*
X7198077Y7555410D01*
X7198616Y7555857D01*
X7213690Y7574434D01*
X7219070Y7580990D01*
X7225312Y7582256D01*
X7230664Y7581904D01*
X7237644Y7579600D01*
X7238192Y7578584D01*
X7251781Y7562156D01*
X7264935Y7545369D01*
X7267459Y7543201D01*
X7269579Y7540637D01*
X7286116Y7527172D01*
X7302288Y7513278D01*
X7305186Y7511644D01*
X7307766Y7509543D01*
X7326611Y7499563D01*
X7345185Y7489090D01*
X7348346Y7488052D01*
X7351286Y7486495D01*
X7371714Y7480384D01*
X7391976Y7473736D01*
X7395278Y7473335D01*
X7398466Y7472381D01*
X7419699Y7470372D01*
X7440863Y7467805D01*
X7858438Y7458386D01*
X7859854Y7458493D01*
X7861270Y7458337D01*
X7884424Y7460355D01*
X7907542Y7462106D01*
X7908911Y7462488D01*
X7910329Y7462611D01*
X7932624Y7469101D01*
X7954978Y7475335D01*
X7956248Y7475977D01*
X7957613Y7476374D01*
X7978193Y7487078D01*
X7998922Y7497564D01*
X8000042Y7498442D01*
X8001303Y7499098D01*
X8017427Y7512029D01*
X8023959Y7510527D01*
X8032667Y7504646D01*
Y7482500D01*
X8035014Y7470701D01*
X8041698Y7460698D01*
X8051701Y7454015D01*
X8063500Y7451668D01*
X8136500D01*
X8140654Y7452494D01*
X8148162Y7438449D01*
X8080577Y7370865D01*
X8074402Y7361623D01*
X8072233Y7350721D01*
X8060619Y7342759D01*
X8051701Y7340985D01*
X8041698Y7334302D01*
X8035014Y7324299D01*
X8034628Y7322357D01*
X7943269D01*
X7943269Y7400724D01*
X7943269Y7404732D01*
X7942014Y7407764D01*
X7942013Y7411046D01*
X7938946Y7418452D01*
X7936625Y7420772D01*
X7935369Y7423804D01*
X7929701Y7429471D01*
X7926669Y7430726D01*
X7924349Y7433047D01*
X7916943Y7436113D01*
X7913661Y7436113D01*
X7910629Y7437368D01*
X7906631Y7437368D01*
X7906625Y7437370D01*
X7575874Y7437369D01*
X7572075Y7437370D01*
X7569043Y7436114D01*
X7565761D01*
X7558741Y7433206D01*
X7556421Y7430886D01*
X7553389Y7429630D01*
X7548017Y7424257D01*
X7546762Y7421226D01*
X7544441Y7418906D01*
X7541534Y7411886D01*
Y7408604D01*
X7540278Y7405572D01*
X7540278Y7401773D01*
Y7321082D01*
X7525038Y7316905D01*
X7520779Y7323279D01*
X7510750Y7329981D01*
X7498919Y7332334D01*
X7471079D01*
X7459249Y7329981D01*
X7449220Y7323279D01*
X7445939Y7318369D01*
X7443063Y7317591D01*
X7429590Y7318148D01*
X7429005Y7318369D01*
X7425345Y7323846D01*
X7415988Y7330099D01*
X7404949Y7332294D01*
X7373050D01*
X7362011Y7330099D01*
X7352654Y7323846D01*
X7346401Y7314488D01*
X7344272Y7303787D01*
X7290479D01*
X7281559Y7302013D01*
X7273998Y7296960D01*
X7226019Y7248981D01*
X7220967Y7241420D01*
X7219192Y7232500D01*
Y6420253D01*
X7216874Y6419292D01*
X7204148Y6406566D01*
X7202332Y6402183D01*
X7184355Y6398607D01*
X6776481Y6806481D01*
X6768920Y6811533D01*
X6760000Y6813308D01*
X6419655D01*
X5865808Y7367154D01*
Y7468972D01*
X5867500D01*
X5883201Y7472095D01*
X5896511Y7480989D01*
X5905405Y7494299D01*
X5908528Y7510000D01*
Y7560000D01*
X5905405Y7575701D01*
X5896511Y7589011D01*
X5883201Y7597905D01*
X5867500Y7601028D01*
X5865808D01*
Y7730126D01*
X5925840D01*
X5938482Y7732640D01*
X5949199Y7739801D01*
X5956360Y7750518D01*
X5958875Y7763160D01*
Y7794840D01*
X5956360Y7807482D01*
X5949199Y7818199D01*
X5938482Y7825360D01*
X5925840Y7827875D01*
X5759160D01*
X5746518Y7825360D01*
X5735801Y7818199D01*
X5728640Y7807482D01*
X5726125Y7794840D01*
Y7763160D01*
X5728640Y7750518D01*
X5735801Y7739801D01*
X5746518Y7732640D01*
X5759160Y7730126D01*
X5819192D01*
Y7601028D01*
X5817500D01*
X5801799Y7597905D01*
X5788489Y7589011D01*
X5779595Y7575701D01*
X5776472Y7560000D01*
Y7510000D01*
X5779595Y7494299D01*
X5788489Y7480989D01*
X5801799Y7472095D01*
X5817500Y7468972D01*
X5819192D01*
Y7357500D01*
X5820967Y7348580D01*
X5826019Y7341019D01*
X6373147Y6793891D01*
X6367315Y6779811D01*
X6258151D01*
X5660808Y7377154D01*
Y7466471D01*
X5662500D01*
X5678201Y7469595D01*
X5691511Y7478488D01*
X5700405Y7491799D01*
X5703528Y7507500D01*
Y7557500D01*
X5700405Y7573200D01*
X5691511Y7586511D01*
X5678201Y7595405D01*
X5662500Y7598528D01*
X5660808D01*
Y7835346D01*
X5707722Y7882260D01*
X5727697D01*
X5728640Y7877518D01*
X5735801Y7866801D01*
X5746518Y7859640D01*
X5759160Y7857126D01*
X5925840D01*
X5938482Y7859640D01*
X5949199Y7866801D01*
X5956360Y7877518D01*
X5958875Y7890160D01*
Y7921840D01*
X5956360Y7934482D01*
X5949199Y7945199D01*
X5938482Y7952360D01*
X5925840Y7954875D01*
X5759160D01*
X5746518Y7952360D01*
X5735801Y7945199D01*
X5728640Y7934482D01*
X5727525Y7928875D01*
X5698068D01*
X5689148Y7927101D01*
X5681587Y7922049D01*
X5621019Y7861481D01*
X5615966Y7853920D01*
X5614192Y7845000D01*
Y7598528D01*
X5612500D01*
X5596799Y7595405D01*
X5583489Y7586511D01*
X5574595Y7573200D01*
X5571472Y7557500D01*
Y7507500D01*
X5574595Y7491799D01*
X5583489Y7478488D01*
X5596799Y7469595D01*
X5612500Y7466471D01*
X5614192D01*
Y7367500D01*
X5615966Y7358580D01*
X5621019Y7351019D01*
X6232016Y6740022D01*
X6239577Y6734970D01*
X6248497Y6733195D01*
X6386640D01*
X6395404Y6731452D01*
X6710586D01*
X6985225Y6456813D01*
X6978096Y6443073D01*
X6977757Y6442728D01*
X6690561D01*
X6564308Y6568981D01*
X6556746Y6574034D01*
X6547827Y6575808D01*
X6247154D01*
X5453308Y7369654D01*
Y7471471D01*
X5455000D01*
X5470701Y7474595D01*
X5484011Y7483488D01*
X5492905Y7496799D01*
X5496028Y7512500D01*
Y7562500D01*
X5492905Y7578200D01*
X5484011Y7591511D01*
X5470701Y7600405D01*
X5455000Y7603528D01*
X5453308D01*
Y7655346D01*
X5576481Y7778519D01*
X5581534Y7786081D01*
X5583308Y7795000D01*
Y7945346D01*
X5647655Y8009692D01*
X5727611D01*
X5728640Y8004518D01*
X5735801Y7993801D01*
X5746518Y7986640D01*
X5759160Y7984126D01*
X5925840D01*
X5938482Y7986640D01*
X5949199Y7993801D01*
X5956360Y8004518D01*
X5958875Y8017160D01*
Y8048840D01*
X5956360Y8061482D01*
X5949199Y8072199D01*
X5938482Y8079360D01*
X5925840Y8081875D01*
X5759160D01*
X5746518Y8079360D01*
X5735801Y8072199D01*
X5728640Y8061482D01*
X5727611Y8056308D01*
X5638000D01*
X5629081Y8054534D01*
X5621519Y8049481D01*
X5543519Y7971481D01*
X5538466Y7963920D01*
X5536692Y7955000D01*
Y7804654D01*
X5502474Y7770436D01*
X5487234Y7776749D01*
Y7794840D01*
X5483931Y7811446D01*
X5474524Y7825524D01*
X5460907Y7834623D01*
X5460446Y7837479D01*
Y7847522D01*
X5460907Y7850378D01*
X5474524Y7859476D01*
X5483931Y7873554D01*
X5487234Y7890160D01*
Y7893300D01*
X5360501D01*
Y7906000D01*
D01*
Y7893300D01*
X5233766D01*
Y7890160D01*
X5237070Y7873554D01*
X5246476Y7859476D01*
X5260093Y7850378D01*
X5260554Y7847522D01*
Y7837479D01*
X5260093Y7834623D01*
X5246476Y7825524D01*
X5237070Y7811446D01*
X5233766Y7794840D01*
Y7791700D01*
X5360501D01*
Y7779000D01*
X5373201D01*
Y7719766D01*
X5430252D01*
X5436564Y7704526D01*
X5413519Y7681481D01*
X5408466Y7673920D01*
X5406692Y7665000D01*
Y7603528D01*
X5405000D01*
X5389299Y7600405D01*
X5375989Y7591511D01*
X5367095Y7578200D01*
X5363972Y7562500D01*
Y7512500D01*
X5367095Y7496799D01*
X5375989Y7483488D01*
X5389299Y7474595D01*
X5405000Y7471471D01*
X5406692D01*
Y7360000D01*
X5408466Y7351080D01*
X5413519Y7343519D01*
X6221019Y6536019D01*
X6228580Y6530966D01*
X6237500Y6529192D01*
X6538173D01*
X6664425Y6402939D01*
X6671987Y6397887D01*
X6680907Y6396112D01*
X6968262D01*
X6984387Y6379987D01*
X6976880Y6365942D01*
X6974497Y6366416D01*
X6969357D01*
Y6307182D01*
X6943957D01*
Y6366416D01*
X6938817D01*
X6922211Y6363113D01*
X6908133Y6353706D01*
X6901549D01*
X6901041Y6354466D01*
X6886963Y6363873D01*
X6870357Y6367176D01*
X6865217D01*
Y6307942D01*
X6852517D01*
Y6295242D01*
X6791283D01*
Y6292102D01*
X6794586Y6275496D01*
X6803993Y6261418D01*
X6804215Y6256647D01*
X6789821Y6241429D01*
X6756511D01*
X6747869Y6250072D01*
X6746894Y6251531D01*
X6746893Y6251531D01*
X6736183Y6262242D01*
X6737740Y6266001D01*
Y6283999D01*
X6730852Y6300626D01*
X6718126Y6313352D01*
X6701499Y6320240D01*
X6683501D01*
X6666874Y6313352D01*
X6654147Y6300626D01*
X6647260Y6283999D01*
Y6266001D01*
X6654147Y6249374D01*
X6666874Y6236647D01*
X6683501Y6229760D01*
X6688090D01*
X6705631Y6212219D01*
X6706607Y6210759D01*
X6724567Y6192799D01*
X6724567Y6192798D01*
X6733809Y6186623D01*
X6744711Y6184455D01*
X6804161D01*
X6811318Y6173743D01*
X6822035Y6166582D01*
X6829192Y6165158D01*
Y6142500D01*
X6830966Y6133581D01*
X6836019Y6126019D01*
X6885554Y6076484D01*
X6878046Y6062438D01*
X6873340Y6063375D01*
X6841660D01*
X6829018Y6060860D01*
X6827943Y6060142D01*
X6809024Y6061024D01*
X6794946Y6070431D01*
X6778340Y6073734D01*
X6775200D01*
Y6012500D01*
X6762500D01*
Y5999800D01*
X6703266D01*
Y5998883D01*
X6688026Y5996097D01*
X6011568Y6672555D01*
X5996686Y6683974D01*
X5979355Y6691153D01*
X5960757Y6693602D01*
X4161397D01*
X4147703Y6707295D01*
X4141790Y6711832D01*
X4110311Y6743311D01*
X4095429Y6754731D01*
X4078098Y6761910D01*
X4059500Y6764358D01*
X4028500D01*
X4009902Y6761910D01*
X3992571Y6754731D01*
X3977688Y6743311D01*
X3973008Y6737212D01*
X3966551Y6735928D01*
X3959070Y6730929D01*
X3954072Y6723449D01*
X3952317Y6714625D01*
Y6703076D01*
X3938237Y6697244D01*
X3794837Y6840644D01*
X3785595Y6846819D01*
X3774693Y6848988D01*
X3774692Y6848987D01*
X3463487D01*
Y6869508D01*
X3473352Y6879374D01*
X3480240Y6896001D01*
Y6913999D01*
X3473352Y6930626D01*
X3460626Y6943352D01*
X3443999Y6950240D01*
X3426001D01*
X3409374Y6943352D01*
X3408140Y6942119D01*
X3392900Y6948431D01*
Y6955900D01*
X3378319D01*
X3370803Y6971140D01*
X3373362Y6974474D01*
X3380959Y6992816D01*
X3381879Y6999800D01*
X3123121D01*
X3124040Y6992816D01*
X3131638Y6974474D01*
X3143724Y6958724D01*
X3159475Y6946638D01*
X3177816Y6939040D01*
X3197500Y6936449D01*
X3217253D01*
X3218950Y6930855D01*
X3217007Y6927050D01*
X3207154Y6917240D01*
X3193004D01*
X3175457Y6909972D01*
X3162028Y6896542D01*
X3154760Y6878996D01*
Y6860004D01*
X3162028Y6842457D01*
X3173504Y6830981D01*
X3176688Y6822841D01*
X3178385Y6814310D01*
X3160258Y6796183D01*
X3156499Y6797740D01*
X3138501D01*
X3121874Y6790853D01*
X3109147Y6778126D01*
X3102260Y6761499D01*
Y6743501D01*
X3109147Y6726874D01*
X3121874Y6714148D01*
X3138501Y6707260D01*
X3156499D01*
X3173126Y6714148D01*
X3185852Y6726874D01*
X3192740Y6743501D01*
Y6748090D01*
X3222020Y6777370D01*
X3227758Y6776575D01*
X3237260Y6771459D01*
Y6725576D01*
X3226449Y6724153D01*
X3209119Y6716975D01*
X3194236Y6705555D01*
X3169188Y6680507D01*
X3157769Y6665625D01*
X3150590Y6648294D01*
X3148142Y6629696D01*
Y6581304D01*
X3150590Y6562706D01*
X3157769Y6545375D01*
X3169188Y6530493D01*
X3194236Y6505445D01*
X3209119Y6494025D01*
X3226449Y6486847D01*
X3237260Y6485424D01*
Y6380427D01*
X3206722D01*
X3192740Y6394410D01*
Y6398999D01*
X3185852Y6415626D01*
X3173126Y6428352D01*
X3156499Y6435240D01*
X3138501D01*
X3121874Y6428352D01*
X3109147Y6415626D01*
X3102260Y6398999D01*
Y6382547D01*
X3009856Y6290144D01*
X3003681Y6280902D01*
X3001512Y6270000D01*
X3001513Y6269999D01*
Y6049300D01*
X2917422Y5965210D01*
X2910187Y5963315D01*
X2898964Y5966664D01*
X2895933Y5967920D01*
X2893613Y5970240D01*
X2890332D01*
X2887301Y5971496D01*
X2770000D01*
X2758336Y5966664D01*
X2753504Y5955000D01*
Y5595000D01*
X2758336Y5583336D01*
X2770000Y5578504D01*
X2850570D01*
X2854555Y5571688D01*
X2856900Y5563264D01*
X2848870Y5551246D01*
X2845566Y5534640D01*
Y5529500D01*
X2904800D01*
Y5516800D01*
X2917500D01*
Y5455566D01*
X2920640D01*
X2937246Y5458869D01*
X2951324Y5468276D01*
X2967935Y5465704D01*
X2969594Y5464045D01*
X2972625Y5462789D01*
X2974945Y5460469D01*
X2988728Y5454760D01*
X2992010D01*
X2995041Y5453504D01*
X3092824D01*
X3097447Y5438264D01*
X3089947Y5433253D01*
X3078979Y5416838D01*
X3076213Y5402933D01*
X3057102D01*
X3057100Y5402933D01*
X3045301Y5400586D01*
X3035298Y5393902D01*
X3035298Y5393901D01*
X3033198Y5391802D01*
X3026515Y5381799D01*
X3024167Y5370000D01*
X3026515Y5358201D01*
X3033198Y5348198D01*
X3043201Y5341515D01*
X3055000Y5339167D01*
X3062575Y5340674D01*
X3078482Y5334062D01*
X3078979Y5331563D01*
X3089947Y5315148D01*
X3106362Y5304179D01*
X3125725Y5300328D01*
X3139800D01*
Y5374200D01*
X3165200D01*
Y5300328D01*
X3179275D01*
X3198637Y5304179D01*
X3215052Y5315148D01*
X3226021Y5331563D01*
X3228442Y5343734D01*
X3238399Y5345715D01*
X3248402Y5352398D01*
X3260280Y5364277D01*
Y5412140D01*
X3285680D01*
Y5370086D01*
X3292980D01*
X3306012Y5372678D01*
X3317060Y5380060D01*
X3320679Y5381316D01*
X3321449Y5381137D01*
X3322753Y5381351D01*
X3323931Y5380754D01*
X3324711Y5380693D01*
X3325355Y5380903D01*
X3325980Y5380644D01*
X3390980D01*
X3402645Y5385476D01*
X3408264Y5391095D01*
X3423504Y5384783D01*
Y5257500D01*
X3423504Y5257499D01*
X3423504Y5254518D01*
X3424760Y5251486D01*
X3424760Y5248204D01*
X3427043Y5242691D01*
X3429363Y5240371D01*
X3430619Y5237339D01*
X3434838Y5233119D01*
X3437870Y5231863D01*
X3440190Y5229543D01*
X3445704Y5227260D01*
X3448985Y5227260D01*
X3452016Y5226004D01*
X3592500Y5226004D01*
X3820000D01*
X3820000Y5226005D01*
X3821989D01*
X3825020Y5227260D01*
X3828301Y5227260D01*
X3831976Y5228782D01*
X3834297Y5231103D01*
X3837328Y5232358D01*
X3840141Y5235171D01*
X3841397Y5238203D01*
X3843717Y5240523D01*
X3845239Y5244198D01*
Y5247479D01*
X3846495Y5250511D01*
X3846496Y5362500D01*
X3846494Y5362503D01*
X3846495Y5364982D01*
X3845240Y5368015D01*
X3845240Y5371297D01*
X3843337Y5375892D01*
X3841017Y5378213D01*
X3839761Y5381245D01*
X3836244Y5384761D01*
X3833213Y5386016D01*
X3830894Y5388336D01*
X3826299Y5390240D01*
X3823017Y5390240D01*
X3819984Y5391496D01*
X3817498Y5391495D01*
X3564332Y5391496D01*
X3512855Y5442974D01*
X3513061Y5445060D01*
X3520442Y5456108D01*
X3522100Y5464440D01*
X3468980D01*
Y5489840D01*
X3522100D01*
X3520442Y5498172D01*
X3513061Y5509220D01*
X3510872Y5525073D01*
X3512676Y5534140D01*
Y5541079D01*
X3516481Y5544885D01*
X3521533Y5552446D01*
X3523308Y5561366D01*
Y5588741D01*
X3536532Y5599759D01*
X3539813D01*
X3542844Y5598504D01*
X3586004Y5598504D01*
X3586004Y5558685D01*
X3585472Y5556010D01*
Y5486990D01*
X3586004Y5484314D01*
X3586004Y5480525D01*
X3587260Y5477493D01*
X3587260Y5474212D01*
X3590685Y5465942D01*
X3593005Y5463622D01*
X3594261Y5460590D01*
X3600591Y5454260D01*
X3603622Y5453005D01*
X3605942Y5450685D01*
X3614212Y5447259D01*
X3617493Y5447260D01*
X3620525Y5446004D01*
X3626328Y5446004D01*
X3626490Y5445972D01*
X3798510D01*
X3798672Y5446004D01*
X3829997D01*
X3834970Y5446003D01*
X3838002Y5447259D01*
X3841284Y5447259D01*
X3850473Y5451064D01*
X3852794Y5453385D01*
X3855826Y5454640D01*
X3862859Y5461673D01*
X3864115Y5464705D01*
X3866435Y5467026D01*
X3870241Y5476215D01*
X3870240Y5479497D01*
X3871496Y5482529D01*
X3871495Y5487502D01*
X3871496Y5955000D01*
X3866664Y5966664D01*
X3855000Y5971496D01*
X3672500D01*
X3660836Y5966664D01*
X3656004Y5955000D01*
Y5736496D01*
X3600329Y5736496D01*
Y5763110D01*
X3602690Y5763580D01*
X3612719Y5770281D01*
X3619421Y5780310D01*
X3621774Y5792140D01*
Y5819980D01*
X3619421Y5831811D01*
X3612719Y5841840D01*
X3610947Y5843024D01*
X3610699Y5843705D01*
X3611991Y5860656D01*
X3616699Y5863801D01*
X3623860Y5874518D01*
X3626375Y5887160D01*
Y5922840D01*
X3623860Y5935482D01*
X3616699Y5946199D01*
X3605982Y5953360D01*
X3593340Y5955875D01*
X3561660D01*
X3549018Y5953360D01*
X3538301Y5946199D01*
X3521699D01*
X3510982Y5953360D01*
X3498340Y5955875D01*
X3466660D01*
X3454018Y5953360D01*
X3443301Y5946199D01*
X3436140Y5935482D01*
X3433625Y5922840D01*
Y5887160D01*
X3436140Y5874518D01*
X3443301Y5863801D01*
X3446651Y5861562D01*
X3446615Y5843757D01*
X3444594Y5842406D01*
X3439360Y5834573D01*
X3434676Y5833328D01*
X3433894Y5833263D01*
X3422950Y5833789D01*
X3418279Y5840780D01*
X3408250Y5847481D01*
X3396420Y5849834D01*
X3368580D01*
X3356749Y5847481D01*
X3351438Y5843932D01*
X3335275Y5844860D01*
X3331917Y5846057D01*
X3330171Y5848671D01*
X3317452Y5857169D01*
X3302450Y5860153D01*
X3299200D01*
Y5805001D01*
Y5749847D01*
X3302450D01*
X3317452Y5752831D01*
X3330171Y5761329D01*
X3331917Y5763943D01*
X3335275Y5765140D01*
X3351438Y5766068D01*
X3356749Y5762519D01*
X3368580Y5760166D01*
X3396420D01*
X3408250Y5762519D01*
X3418279Y5769221D01*
X3423275Y5776698D01*
X3431627Y5778014D01*
X3432000Y5778011D01*
X3439992Y5776602D01*
X3444594Y5769714D01*
X3446718Y5768296D01*
X3449144Y5757949D01*
X3437933Y5744872D01*
X3436900D01*
Y5667500D01*
Y5590128D01*
X3447475D01*
X3452494Y5591126D01*
X3464677Y5578129D01*
X3463473Y5573836D01*
X3448980D01*
X3439913Y5572032D01*
X3430288Y5568285D01*
X3427533Y5570259D01*
X3426863Y5570669D01*
X3426233Y5570769D01*
X3424595Y5571827D01*
X3423876Y5572127D01*
X3422787Y5572129D01*
X3421281Y5572964D01*
X3420511Y5573144D01*
X3419207Y5572929D01*
X3418029Y5573527D01*
X3417249Y5573587D01*
X3416606Y5573377D01*
X3415980Y5573636D01*
X3325981D01*
X3314163Y5579166D01*
X3309518Y5583810D01*
X3214163Y5679164D01*
X3202499Y5683996D01*
X3069915D01*
X3061511Y5699236D01*
X3064114Y5712320D01*
Y5717460D01*
X3004880D01*
Y5730160D01*
X2992180D01*
Y5791394D01*
X2989040D01*
X2979236Y5789443D01*
X2963996Y5799386D01*
Y5894801D01*
X2962740Y5897832D01*
Y5901113D01*
X2960420Y5903433D01*
X2959165Y5906464D01*
X2955815Y5917687D01*
X2957710Y5924922D01*
X3050143Y6017356D01*
X3050144Y6017356D01*
X3056319Y6026598D01*
X3058487Y6037500D01*
Y6258200D01*
X3142621Y6342334D01*
X3158723Y6340982D01*
X3164307Y6331498D01*
X3164358Y6320873D01*
X3162028Y6318543D01*
X3154760Y6300996D01*
Y6282004D01*
X3162028Y6264457D01*
X3175457Y6251028D01*
X3193004Y6243760D01*
X3207154D01*
X3217007Y6233950D01*
X3218950Y6230145D01*
X3217253Y6224551D01*
X3197500D01*
X3177816Y6221959D01*
X3159475Y6214362D01*
X3143724Y6202276D01*
X3131638Y6186525D01*
X3124040Y6168183D01*
X3123121Y6161200D01*
X3381879D01*
X3380959Y6168183D01*
X3373362Y6186525D01*
X3370803Y6189860D01*
X3378319Y6205100D01*
X3392900D01*
Y6218209D01*
X3401165Y6221915D01*
X3408140Y6222881D01*
X3419374Y6211647D01*
X3436001Y6204760D01*
X3453999D01*
X3470626Y6211647D01*
X3483352Y6224374D01*
X3490240Y6241001D01*
Y6258999D01*
X3483352Y6275626D01*
X3473487Y6285491D01*
Y6312013D01*
X3740498D01*
X3740500Y6312012D01*
X3751401Y6314181D01*
X3760643Y6320356D01*
X3864813Y6424526D01*
X3865397Y6424916D01*
X3886083Y6445603D01*
X3886084Y6445603D01*
X3886473Y6446185D01*
X3938237Y6497949D01*
X3952317Y6492117D01*
Y6480375D01*
X3954072Y6471551D01*
X3959070Y6464071D01*
X3966551Y6459072D01*
X3973008Y6457788D01*
X3977688Y6451688D01*
X3992571Y6440269D01*
X4009902Y6433090D01*
X4028500Y6430642D01*
X4059500D01*
X4078098Y6433090D01*
X4095429Y6440269D01*
X4110311Y6451688D01*
X4141790Y6483167D01*
X4147703Y6487705D01*
X4161397Y6501398D01*
X5910908D01*
X6543537Y5868770D01*
X6537704Y5854690D01*
X5413272D01*
X5353981Y5913981D01*
X5346420Y5919034D01*
X5337500Y5920808D01*
X5327966D01*
X5327481Y5923250D01*
X5320779Y5933279D01*
X5315869Y5936560D01*
X5315091Y5939436D01*
X5315647Y5952910D01*
X5315869Y5953494D01*
X5321346Y5957154D01*
X5327598Y5966512D01*
X5329794Y5977550D01*
Y6009450D01*
X5327598Y6020488D01*
X5321346Y6029846D01*
X5311988Y6036098D01*
X5308389Y6036814D01*
Y6063221D01*
X5310626Y6064148D01*
X5323353Y6076874D01*
X5330240Y6093501D01*
Y6111499D01*
X5323353Y6128126D01*
X5310626Y6140853D01*
X5293999Y6147740D01*
X5276001D01*
X5259374Y6140853D01*
X5246647Y6128127D01*
X5245365Y6125191D01*
X5245364Y6125191D01*
D01*
X5230770Y6129618D01*
X5231116Y6131356D01*
X5231853Y6135065D01*
Y6165935D01*
X5229424Y6178150D01*
X5222505Y6188505D01*
X5212150Y6195424D01*
X5199935Y6197853D01*
X5149170D01*
Y6235747D01*
X5154262Y6236760D01*
X5164979Y6243921D01*
X5172140Y6254638D01*
X5174655Y6267280D01*
Y6302960D01*
X5172140Y6315602D01*
X5164979Y6326319D01*
X5154262Y6333480D01*
X5146280Y6335068D01*
Y6374801D01*
X5158352Y6386874D01*
X5165240Y6403501D01*
Y6421499D01*
X5158352Y6438126D01*
X5145626Y6450852D01*
X5128999Y6457740D01*
X5111001D01*
X5094374Y6450852D01*
X5081647Y6438126D01*
X5074760Y6421499D01*
Y6403501D01*
X5081647Y6386874D01*
X5094374Y6374148D01*
X5099501Y6372024D01*
Y6346779D01*
X5084514Y6333308D01*
X5077304Y6333644D01*
X5063226Y6343051D01*
X5046620Y6346354D01*
X5043480D01*
Y6285120D01*
Y6223886D01*
X5046620D01*
X5063226Y6227190D01*
X5077304Y6236596D01*
X5087703Y6237081D01*
X5102391Y6224820D01*
Y6197853D01*
X5025065D01*
X5012851Y6195424D01*
X5002495Y6188505D01*
X4995576Y6178150D01*
X4993147Y6165935D01*
Y6135065D01*
X4995576Y6122851D01*
X5002495Y6112496D01*
X5012851Y6105577D01*
X5025065Y6103147D01*
X5199935D01*
X5212150Y6105577D01*
X5222505Y6112496D01*
X5224960Y6116171D01*
X5225680Y6117248D01*
X5238776Y6111900D01*
X5239760Y6110889D01*
Y6093501D01*
X5246648Y6076874D01*
X5259374Y6064148D01*
X5261611Y6063221D01*
Y6036814D01*
X5258012Y6036098D01*
X5248654Y6029846D01*
X5247093Y6027510D01*
X5231853Y6032133D01*
Y6038935D01*
X5229424Y6051150D01*
X5222505Y6061505D01*
X5212150Y6068424D01*
X5199935Y6070853D01*
X5025065D01*
X5012851Y6068424D01*
X5002495Y6061505D01*
X4995576Y6051150D01*
X4993147Y6038935D01*
Y6008065D01*
X4995576Y5995851D01*
X5002495Y5985496D01*
X5012851Y5978577D01*
X5025065Y5976147D01*
X5199935D01*
X5212150Y5978577D01*
X5222505Y5985496D01*
X5224966Y5989179D01*
X5240206Y5984556D01*
Y5977550D01*
X5242401Y5966512D01*
X5248654Y5957154D01*
X5254131Y5953494D01*
X5254352Y5952910D01*
X5254909Y5939436D01*
X5254131Y5936560D01*
X5249220Y5933279D01*
X5244540Y5926274D01*
X5236480Y5925142D01*
X5233751Y5925230D01*
X5227805Y5926572D01*
X5222505Y5934505D01*
X5212150Y5941424D01*
X5199935Y5943853D01*
X5025065D01*
X5012851Y5941424D01*
X5002495Y5934505D01*
X4995576Y5924150D01*
X4993420Y5913308D01*
X4887500D01*
X4878581Y5911534D01*
X4871019Y5906481D01*
X4836019Y5871481D01*
X4830966Y5863919D01*
X4829192Y5855000D01*
Y5666028D01*
X4827500D01*
X4811799Y5662905D01*
X4798488Y5654011D01*
X4789595Y5640701D01*
X4786472Y5625000D01*
Y5575000D01*
X4789595Y5559299D01*
X4798488Y5545989D01*
X4811799Y5537095D01*
X4827500Y5533972D01*
X4877500D01*
X4893201Y5537095D01*
X4906511Y5545989D01*
X4915405Y5559299D01*
X4918528Y5575000D01*
Y5625000D01*
X4915405Y5640701D01*
X4906511Y5654011D01*
X4893201Y5662905D01*
X4877500Y5666028D01*
X4875808D01*
Y5845345D01*
X4897154Y5866692D01*
X4997019D01*
X5002495Y5858496D01*
X5012851Y5851577D01*
X5025065Y5849147D01*
X5199935D01*
X5212150Y5851577D01*
X5222505Y5858496D01*
X5228473Y5867428D01*
X5231375Y5868321D01*
X5234582Y5868656D01*
X5244846Y5868267D01*
X5249220Y5861721D01*
X5259250Y5855019D01*
X5271080Y5852666D01*
X5298920D01*
X5310750Y5855019D01*
X5320779Y5861721D01*
X5339593Y5862445D01*
X5378177Y5823861D01*
X5383486Y5810340D01*
X5377908Y5803370D01*
X5367845Y5793307D01*
X5327966D01*
X5327481Y5795750D01*
X5320779Y5805779D01*
X5310750Y5812480D01*
X5298920Y5814834D01*
X5271080D01*
X5259250Y5812480D01*
X5249220Y5805779D01*
X5244616Y5798889D01*
X5236062Y5797910D01*
X5233121Y5798058D01*
X5227972Y5799322D01*
X5222505Y5807505D01*
X5212150Y5814424D01*
X5199935Y5816853D01*
X5025065D01*
X5012851Y5814424D01*
X5002495Y5807505D01*
X4995576Y5797150D01*
X4993147Y5784935D01*
Y5754065D01*
X4995576Y5741851D01*
X5002495Y5731496D01*
X5012851Y5724577D01*
X5025065Y5722147D01*
X5089192D01*
Y5666028D01*
X5087500D01*
X5071799Y5662905D01*
X5058489Y5654011D01*
X5049595Y5640701D01*
X5046472Y5625000D01*
Y5575000D01*
X5049595Y5559299D01*
X5058489Y5545989D01*
X5071799Y5537095D01*
X5087500Y5533972D01*
X5137500D01*
X5153201Y5537095D01*
X5166511Y5545989D01*
X5175405Y5559299D01*
X5178528Y5575000D01*
Y5625000D01*
X5175405Y5640701D01*
X5166511Y5654011D01*
X5153201Y5662905D01*
X5137500Y5666028D01*
X5135808D01*
Y5722147D01*
X5199935D01*
X5212150Y5724577D01*
X5222505Y5731496D01*
X5228306Y5740178D01*
X5231930Y5741216D01*
X5235117Y5741491D01*
X5244770Y5740881D01*
X5249220Y5734220D01*
X5254131Y5730939D01*
X5254909Y5728063D01*
X5254352Y5714590D01*
X5254131Y5714005D01*
X5248654Y5710346D01*
X5242401Y5700988D01*
X5240206Y5689950D01*
Y5658050D01*
X5242401Y5647012D01*
X5248654Y5637654D01*
X5258012Y5631401D01*
X5269050Y5629206D01*
X5300950D01*
X5311988Y5631401D01*
X5321346Y5637654D01*
X5327598Y5647012D01*
X5327916Y5648611D01*
X5347392D01*
X5349148Y5644374D01*
X5361874Y5631648D01*
X5378501Y5624760D01*
X5396499D01*
X5413126Y5631648D01*
X5425852Y5644374D01*
X5432740Y5661001D01*
Y5678999D01*
X5425852Y5695626D01*
X5413126Y5708353D01*
X5396499Y5715240D01*
X5378501D01*
X5361874Y5708353D01*
X5349148Y5695626D01*
X5349049Y5695389D01*
X5328712D01*
X5327598Y5700988D01*
X5321346Y5710346D01*
X5315869Y5714005D01*
X5315647Y5714590D01*
X5315091Y5728063D01*
X5315869Y5730939D01*
X5320779Y5734220D01*
X5327481Y5744249D01*
X5327966Y5746692D01*
X5377500D01*
X5386419Y5748466D01*
X5393981Y5753519D01*
X5410014Y5769552D01*
X6620896D01*
X6628991Y5754312D01*
X6624069Y5746946D01*
X6620766Y5730340D01*
Y5725199D01*
X6680000D01*
Y5699799D01*
X6620766D01*
Y5694660D01*
X6624069Y5678054D01*
X6629497Y5669930D01*
X6622030Y5654690D01*
X5598882D01*
X5589963Y5652916D01*
X5582401Y5647863D01*
X5382846Y5448308D01*
X4651028D01*
Y5450000D01*
X4647905Y5465701D01*
X4639011Y5479011D01*
X4625701Y5487905D01*
X4610000Y5491028D01*
X4560000D01*
X4544299Y5487905D01*
X4530989Y5479011D01*
X4522095Y5465701D01*
X4518972Y5450000D01*
Y5400000D01*
X4522095Y5384299D01*
X4530989Y5370989D01*
X4544299Y5362095D01*
X4560000Y5358972D01*
X4561692D01*
Y5338464D01*
X4556750Y5337481D01*
X4546721Y5330780D01*
X4540019Y5320750D01*
X4537666Y5308920D01*
Y5281080D01*
X4540019Y5269250D01*
X4546721Y5259221D01*
X4556750Y5252519D01*
X4568580Y5250166D01*
X4596420D01*
X4608250Y5252519D01*
X4618280Y5259221D01*
X4621560Y5264131D01*
X4624436Y5264909D01*
X4637910Y5264352D01*
X4638494Y5264131D01*
X4642154Y5258654D01*
X4651512Y5252401D01*
X4657192Y5251272D01*
Y5172740D01*
X4647260D01*
Y5082260D01*
X4656692D01*
Y5039000D01*
X4658466Y5030080D01*
X4663519Y5022519D01*
X4713058Y4972980D01*
X4708624Y4957740D01*
X4683761D01*
Y4687260D01*
X4790240D01*
Y4957740D01*
X4762808D01*
Y4979499D01*
X4761034Y4988419D01*
X4755982Y4995980D01*
X4703308Y5048654D01*
Y5072100D01*
X4732301D01*
Y5127500D01*
X4745001D01*
Y5140200D01*
X4787900D01*
Y5182900D01*
X4784187D01*
X4770808Y5192632D01*
X4769034Y5201552D01*
X4763981Y5209113D01*
X4756419Y5214166D01*
X4747500Y5215940D01*
X4738580Y5214166D01*
X4731019Y5209113D01*
X4729769Y5207863D01*
X4724716Y5200302D01*
X4722942Y5191382D01*
Y5182900D01*
X4703808D01*
Y5252067D01*
X4705488Y5252401D01*
X4714846Y5258654D01*
X4721099Y5268012D01*
X4723294Y5279050D01*
Y5310950D01*
X4721099Y5321988D01*
X4714846Y5331346D01*
X4705488Y5337599D01*
X4694450Y5339794D01*
X4662550D01*
X4651512Y5337599D01*
X4642154Y5331346D01*
X4638494Y5325869D01*
X4637910Y5325648D01*
X4624436Y5325091D01*
X4621560Y5325869D01*
X4618280Y5330780D01*
X4608308Y5337442D01*
Y5358972D01*
X4610000D01*
X4625701Y5362095D01*
X4639011Y5370989D01*
X4647905Y5384299D01*
X4651028Y5400000D01*
Y5401692D01*
X5050019D01*
X5054642Y5386452D01*
X5050989Y5384011D01*
X5042095Y5370701D01*
X5038972Y5355000D01*
Y5327117D01*
X4998226D01*
X4995780Y5330778D01*
X4985751Y5337480D01*
X4973921Y5339833D01*
X4946081D01*
X4934250Y5337480D01*
X4924221Y5330778D01*
X4920940Y5325868D01*
X4918065Y5325090D01*
X4904591Y5325646D01*
X4904006Y5325868D01*
X4900347Y5331345D01*
X4890989Y5337597D01*
X4879951Y5339793D01*
X4848051D01*
X4837013Y5337597D01*
X4827655Y5331345D01*
X4821402Y5321987D01*
X4819207Y5310949D01*
Y5279049D01*
X4821402Y5268011D01*
X4827655Y5258653D01*
X4837013Y5252400D01*
X4842443Y5251320D01*
Y5167740D01*
X4834760D01*
Y5077260D01*
X4844192D01*
Y4957740D01*
X4810761D01*
Y4687260D01*
X4917240D01*
Y4957740D01*
X4890808D01*
Y5067100D01*
X4919800D01*
Y5122500D01*
Y5177900D01*
X4889601D01*
X4889058Y5192915D01*
Y5252016D01*
X4890989Y5252400D01*
X4900347Y5258653D01*
X4904006Y5264130D01*
X4904591Y5264351D01*
X4918065Y5264908D01*
X4920940Y5264130D01*
X4924221Y5259219D01*
X4934250Y5252518D01*
X4946081Y5250165D01*
X4973921D01*
X4985751Y5252518D01*
X4995780Y5259219D01*
X5002481Y5269249D01*
X5004720Y5280502D01*
X5047973D01*
X5050989Y5275989D01*
X5064299Y5267095D01*
X5080000Y5263972D01*
X5130000D01*
X5145701Y5267095D01*
X5159011Y5275989D01*
X5167905Y5289299D01*
X5171028Y5305000D01*
Y5306692D01*
X5357500D01*
X5366420Y5308466D01*
X5372674Y5312646D01*
X5377507Y5311156D01*
X5385573Y5305750D01*
X5386692Y5304677D01*
Y5252966D01*
X5384250Y5252480D01*
X5374221Y5245779D01*
X5367519Y5235750D01*
X5365166Y5223920D01*
Y5196080D01*
X5367519Y5184249D01*
X5374221Y5174220D01*
X5379131Y5170939D01*
X5379909Y5168064D01*
X5379352Y5154590D01*
X5379131Y5154005D01*
X5373654Y5150346D01*
X5367402Y5140988D01*
X5367366Y5140808D01*
X5275240D01*
Y5165240D01*
X5220400D01*
Y5175400D01*
X5200808D01*
Y5192632D01*
X5199034Y5201552D01*
X5193981Y5209113D01*
X5193981D01*
X5186419Y5214166D01*
X5177500Y5215940D01*
X5168580Y5214166D01*
X5161019Y5209113D01*
X5155966Y5201552D01*
X5154192Y5192632D01*
X5154192Y5192631D01*
Y5175400D01*
X5134600D01*
Y5132700D01*
X5177500D01*
Y5120000D01*
X5190200D01*
Y5064600D01*
X5219193D01*
Y4957740D01*
X5191761D01*
Y4687260D01*
X5298240D01*
Y4957740D01*
X5265808D01*
Y5074760D01*
X5275240D01*
Y5094192D01*
X5365973D01*
X5367402Y5087012D01*
X5373654Y5077654D01*
X5383012Y5071401D01*
X5394050Y5069206D01*
X5425950D01*
X5436988Y5071401D01*
X5446346Y5077654D01*
X5452599Y5087012D01*
X5454794Y5098050D01*
Y5129950D01*
X5452599Y5140988D01*
X5446346Y5150346D01*
X5440869Y5154005D01*
X5440648Y5154590D01*
X5440091Y5168064D01*
X5440869Y5170939D01*
X5445780Y5174220D01*
X5452481Y5184249D01*
X5454834Y5196080D01*
Y5223920D01*
X5452481Y5235750D01*
X5445780Y5245779D01*
X5435750Y5252480D01*
X5433308Y5252966D01*
Y5295346D01*
X5489654Y5351692D01*
X5652615D01*
X5658654Y5342654D01*
X5668012Y5336402D01*
X5679050Y5334206D01*
X5710950D01*
X5721988Y5336402D01*
X5731346Y5342654D01*
X5737385Y5351692D01*
X5999273D01*
X6119947Y5231019D01*
X6127508Y5225966D01*
X6136428Y5224192D01*
X6177018D01*
Y4956244D01*
X6176690Y4956179D01*
X6167333Y4949926D01*
X6163673Y4944450D01*
X6163089Y4944228D01*
X6149615Y4943671D01*
X6146739Y4944450D01*
X6143458Y4949360D01*
X6133429Y4956061D01*
X6121599Y4958415D01*
X6093759D01*
X6081929Y4956061D01*
X6071899Y4949360D01*
X6065198Y4939331D01*
X6064712Y4936888D01*
X6009126D01*
X6007699Y4944062D01*
X6000538Y4954780D01*
X5989821Y4961941D01*
X5977179Y4964455D01*
X5945499D01*
X5932857Y4961941D01*
X5931782Y4961222D01*
X5912863Y4962105D01*
X5898785Y4971511D01*
X5882179Y4974814D01*
X5879039D01*
Y4913580D01*
Y4852347D01*
X5882179D01*
X5898785Y4855650D01*
X5912863Y4865056D01*
X5931782Y4865939D01*
X5932857Y4865220D01*
X5945499Y4862706D01*
X5977179D01*
X5989821Y4865220D01*
X6000538Y4872381D01*
X6007699Y4883099D01*
X6009126Y4890273D01*
X6064712D01*
X6065198Y4887830D01*
X6071899Y4877801D01*
X6081929Y4871100D01*
X6093759Y4868746D01*
X6121599D01*
X6133429Y4871100D01*
X6143458Y4877801D01*
X6146739Y4882711D01*
X6149615Y4883490D01*
X6163089Y4882933D01*
X6163673Y4882711D01*
X6167333Y4877235D01*
X6176690Y4870982D01*
X6187729Y4868786D01*
X6219629D01*
X6230667Y4870982D01*
X6240025Y4877235D01*
X6246277Y4886592D01*
X6248473Y4897631D01*
Y4929530D01*
X6246277Y4940569D01*
X6240025Y4949926D01*
X6230667Y4956179D01*
X6223634Y4957578D01*
Y5224193D01*
X6294419D01*
Y5182261D01*
X6469899D01*
Y5216692D01*
X6505687D01*
X6506648Y5214374D01*
X6519374Y5201647D01*
X6536001Y5194760D01*
X6553999D01*
X6570626Y5201647D01*
X6583353Y5214374D01*
X6590240Y5231001D01*
Y5248999D01*
X6583353Y5265626D01*
X6570626Y5278352D01*
X6553999Y5285240D01*
X6536001D01*
X6519374Y5278352D01*
X6506648Y5265626D01*
X6505687Y5263308D01*
X6469899D01*
Y5312740D01*
X6294419D01*
Y5270808D01*
X6215001D01*
X6214998Y5270808D01*
X6146082D01*
X6025409Y5391481D01*
X6017847Y5396534D01*
X6008928Y5398308D01*
X5739126D01*
X5737599Y5405988D01*
X5731346Y5415346D01*
X5725869Y5419006D01*
X5725648Y5419590D01*
X5725091Y5433064D01*
X5725869Y5435940D01*
X5730779Y5439221D01*
X5737481Y5449250D01*
X5737950Y5451611D01*
X5755721D01*
X5756648Y5449374D01*
X5769374Y5436647D01*
X5786001Y5429760D01*
X5803999D01*
X5820626Y5436647D01*
X5833353Y5449374D01*
X5840240Y5466001D01*
Y5483999D01*
X5833353Y5500626D01*
X5820626Y5513352D01*
X5803999Y5520240D01*
X5786001D01*
X5769374Y5513352D01*
X5756648Y5500626D01*
X5755721Y5498389D01*
X5737950D01*
X5737481Y5500750D01*
X5730779Y5510779D01*
X5720750Y5517481D01*
X5708920Y5519834D01*
X5681080D01*
X5669250Y5517481D01*
X5659221Y5510779D01*
X5652519Y5500750D01*
X5650166Y5488920D01*
Y5461080D01*
X5652519Y5449250D01*
X5659221Y5439221D01*
X5664131Y5435940D01*
X5664909Y5433064D01*
X5664352Y5419590D01*
X5664131Y5419006D01*
X5658654Y5415346D01*
X5652401Y5405988D01*
X5650874Y5398308D01*
X5480323D01*
X5479644Y5399016D01*
X5472895Y5412433D01*
X5628537Y5568074D01*
X7015448D01*
X7016149Y5567607D01*
X7025997Y5565648D01*
X7078055D01*
X7091186Y5564071D01*
X7092762Y5550941D01*
Y5508389D01*
X6945271D01*
X6943860Y5515482D01*
X6936699Y5526199D01*
X6925982Y5533360D01*
X6913340Y5535875D01*
X6881660D01*
X6869018Y5533360D01*
X6867943Y5532641D01*
X6849024Y5533524D01*
X6834946Y5542930D01*
X6818340Y5546234D01*
X6815200D01*
Y5485000D01*
Y5423766D01*
X6818340D01*
X6834946Y5427069D01*
X6849024Y5436476D01*
X6867943Y5437358D01*
X6869018Y5436640D01*
X6881660Y5434125D01*
X6913340D01*
X6925982Y5436640D01*
X6936699Y5443801D01*
X6943860Y5454518D01*
X6945271Y5461611D01*
X7103370D01*
X7112321Y5463391D01*
X7119909Y5468461D01*
X7126109Y5474662D01*
X7128345Y5475106D01*
X7138497Y5479843D01*
X7148649Y5475106D01*
X7158497Y5473148D01*
X7160701Y5473586D01*
X7175941Y5463248D01*
Y5250029D01*
X7160701Y5237767D01*
X7155840Y5238734D01*
X7152700D01*
Y5177500D01*
Y5116266D01*
X7155840D01*
X7159704Y5117035D01*
X7174944Y5104528D01*
Y5053500D01*
X7175816Y5049118D01*
Y5044650D01*
X7177124Y5038071D01*
X7183897Y5021719D01*
X7187624Y5016141D01*
Y4994859D01*
X7183898Y4989282D01*
X7177124Y4972929D01*
X7175816Y4966350D01*
Y4961882D01*
X7174944Y4957500D01*
Y4907443D01*
X7163163Y4897774D01*
X7158340Y4898734D01*
X7155200D01*
Y4837500D01*
Y4776266D01*
X7158340D01*
X7162204Y4777035D01*
X7177444Y4764528D01*
Y4716000D01*
X7178316Y4711618D01*
Y4707150D01*
X7179624Y4700571D01*
X7186397Y4684219D01*
X7190125Y4678641D01*
X7190125Y4678640D01*
X7195000Y4673765D01*
Y4647500D01*
X7194999Y4647500D01*
X7195000D01*
X7195166Y4632329D01*
Y4611401D01*
X7190125Y4606360D01*
X7190125Y4606359D01*
X7186397Y4600781D01*
X7179624Y4584429D01*
X7178316Y4577850D01*
Y4574934D01*
X7177864Y4573446D01*
X7173748Y4531654D01*
X7162855Y4495745D01*
X7145165Y4462649D01*
X7121359Y4433641D01*
X7092351Y4409835D01*
X7059255Y4392145D01*
X7023346Y4381252D01*
X6999236Y4378877D01*
X6983996Y4392546D01*
Y4572500D01*
X6979164Y4584164D01*
X6967500Y4588996D01*
X6567500D01*
X6555836Y4584164D01*
X6551004Y4572500D01*
Y4372900D01*
X6542100D01*
Y4280200D01*
X6607500D01*
Y4254800D01*
X6542100D01*
Y4162100D01*
X6528967Y4157013D01*
X2942500D01*
X2941206Y4156756D01*
X2883314Y4161312D01*
X2825585Y4175171D01*
X2770735Y4197891D01*
X2720114Y4228912D01*
X2674969Y4267469D01*
X2636412Y4312614D01*
X2605391Y4363235D01*
X2582671Y4418085D01*
X2568812Y4475814D01*
X2564256Y4533706D01*
X2564513Y4535000D01*
Y9952500D01*
X2564256Y9953794D01*
X2568812Y10011686D01*
X2582671Y10069415D01*
X2605391Y10124266D01*
X2636412Y10174886D01*
X2674969Y10220031D01*
X2720114Y10258589D01*
X2770735Y10289609D01*
X2825585Y10312329D01*
X2883314Y10326188D01*
X2941206Y10330744D01*
X2942500Y10330487D01*
X8725000D01*
X8730000Y10330527D01*
Y10330528D01*
X8730318Y10330821D01*
X8789186Y10326188D01*
D02*
G37*
G36*
X7255000Y8505000D02*
X6890000D01*
Y9310000D01*
X7255000D01*
Y8505000D01*
D02*
G37*
G36*
X7285000Y9405000D02*
X6815000D01*
Y8320000D01*
X7020000D01*
Y7732500D01*
X6475806Y7729477D01*
X6465000Y7740223D01*
Y9815000D01*
X7285000D01*
Y9405000D01*
D02*
G37*
G36*
X7875000Y9636199D02*
X7874760Y9635305D01*
Y9599695D01*
X7875000Y9598800D01*
Y7720185D01*
X7864103Y7709531D01*
X7446528Y7718950D01*
X7438546Y9796703D01*
X7449302Y9807500D01*
X7875000D01*
Y9636199D01*
D02*
G37*
G36*
X7906624Y7420872D02*
X7910632Y7420873D01*
X7918038Y7417806D01*
X7923706Y7412138D01*
X7926774Y7404733D01*
X7926773Y7400725D01*
X7926774Y7322357D01*
X7860470D01*
X7860469Y7322358D01*
X7849567Y7320189D01*
X7840325Y7314014D01*
X7840324Y7314013D01*
X7836695Y7310384D01*
X7830520Y7301142D01*
X7828351Y7290240D01*
X7830520Y7279339D01*
X7836695Y7270096D01*
X7845937Y7263921D01*
X7856839Y7261753D01*
X7867740Y7263921D01*
X7869928Y7265383D01*
X7924605D01*
X7923971Y7263851D01*
X7918795Y7258675D01*
X7912033Y7255874D01*
X7908373Y7255874D01*
X7570673D01*
X7564296Y7258516D01*
X7559415Y7263397D01*
X7556774Y7269774D01*
Y7273225D01*
Y7401774D01*
X7556774Y7405573D01*
X7559681Y7412593D01*
X7565054Y7417966D01*
X7572074Y7420874D01*
X7575873Y7420874D01*
X7906625Y7420874D01*
X7906624Y7420872D01*
D02*
G37*
G36*
X3854999Y5487500D02*
X3855000Y5482527D01*
X3851195Y5473338D01*
X3844162Y5466305D01*
X3834973Y5462499D01*
X3829999Y5462500D01*
X3625000D01*
X3620524Y5462500D01*
X3612255Y5465925D01*
X3605925Y5472254D01*
X3602500Y5480524D01*
X3602500Y5485000D01*
X3602500Y5615000D01*
X3542844Y5615000D01*
X3534241Y5618563D01*
X3527657Y5625147D01*
X3524093Y5633751D01*
X3524093Y5638407D01*
Y5703252D01*
X3527276Y5710936D01*
X3533157Y5716817D01*
X3538311Y5718952D01*
X3553551Y5712798D01*
Y5682377D01*
X3549591Y5676451D01*
X3547811Y5667500D01*
X3549591Y5658550D01*
X3554661Y5650962D01*
X3562249Y5645891D01*
X3571200Y5644111D01*
X3580151Y5645891D01*
X3587739Y5650962D01*
X3593388Y5656611D01*
X3710000D01*
X3718951Y5658391D01*
X3726539Y5663461D01*
X3731609Y5671049D01*
X3733389Y5680000D01*
X3731609Y5688951D01*
X3726539Y5696539D01*
X3718951Y5701609D01*
X3710000Y5703389D01*
X3600329D01*
Y5720000D01*
X3670000Y5720000D01*
X3672500Y5722500D01*
Y5955000D01*
X3855000D01*
X3854999Y5487500D01*
D02*
G37*
G36*
X2893133Y5940920D02*
X2884856Y5932644D01*
X2878681Y5923402D01*
X2876512Y5912500D01*
X2878681Y5901598D01*
X2884856Y5892356D01*
X2894098Y5886181D01*
X2905000Y5884012D01*
X2915902Y5886181D01*
X2925144Y5892356D01*
X2933420Y5900633D01*
X2947500Y5894801D01*
Y5595000D01*
X2770000D01*
Y5955000D01*
X2887301D01*
X2893133Y5940920D01*
D02*
G37*
G36*
X3302499Y5567501D02*
X3302500Y5467500D01*
Y5465014D01*
X3300597Y5460419D01*
X3297081Y5456903D01*
X3292486Y5455000D01*
X3217500D01*
X3202500Y5470000D01*
X3002500Y5470000D01*
X2995041D01*
X2981258Y5475709D01*
X2970709Y5486258D01*
X2965000Y5500040D01*
Y5507500D01*
X2965000Y5507500D01*
X2965000Y5625000D01*
Y5633453D01*
X2971470Y5649074D01*
X2983425Y5661029D01*
X2999046Y5667500D01*
X3007500D01*
Y5667500D01*
X3202499D01*
X3302499Y5567501D01*
D02*
G37*
G36*
X7791072Y5661938D02*
X7805151Y5652531D01*
X7814240Y5650723D01*
Y5607743D01*
X7814192Y5607500D01*
X7815966Y5598581D01*
X7821019Y5591019D01*
X7828580Y5585966D01*
X7837500Y5584192D01*
X7846419Y5585966D01*
X7853981Y5591019D01*
X7854029Y5591067D01*
X7859082Y5598629D01*
X7860856Y5607548D01*
Y5650704D01*
X7870042Y5652531D01*
X7884120Y5661938D01*
X7891797Y5662296D01*
X7906740Y5649002D01*
Y5550368D01*
X7901874Y5548352D01*
X7889148Y5535626D01*
X7882260Y5518999D01*
Y5501001D01*
X7889148Y5484374D01*
X7901874Y5471647D01*
X7918501Y5464760D01*
X7936499D01*
X7953126Y5471647D01*
X7965852Y5484374D01*
X7968526Y5490828D01*
X7983766Y5487796D01*
Y5479160D01*
X7987069Y5462554D01*
X7989746Y5458548D01*
X7981600Y5443308D01*
X7907154D01*
X7745121Y5605341D01*
X7745293Y5615959D01*
X7747589Y5622858D01*
X7748867Y5623388D01*
X7761593Y5636114D01*
X7768480Y5652742D01*
Y5670739D01*
X7782560Y5674677D01*
X7791072Y5661938D01*
D02*
G37*
G36*
X3557500Y5375000D02*
X3817500Y5375000D01*
X3819986Y5375000D01*
X3824580Y5373097D01*
X3828096Y5369580D01*
X3829999Y5364986D01*
X3829999Y5362499D01*
X3830000Y5362500D01*
X3829999Y5252500D01*
Y5250511D01*
X3828477Y5246836D01*
X3825664Y5244023D01*
X3821989Y5242500D01*
X3819999D01*
X3820000Y5242500D01*
X3592500D01*
X3454999Y5242500D01*
X3452016D01*
X3446503Y5244783D01*
X3442283Y5249003D01*
X3440000Y5254516D01*
X3440000Y5257500D01*
X3440000Y5257500D01*
Y5395000D01*
X3440000Y5425000D01*
X3439999Y5426492D01*
X3441141Y5429247D01*
X3443250Y5431357D01*
X3446007Y5432498D01*
X3447498Y5432498D01*
X3447500Y5432500D01*
X3500000D01*
X3557500Y5375000D01*
D02*
G37*
G36*
X3416760Y5557080D02*
X3417530Y5556900D01*
X3418250Y5556600D01*
X3418920Y5556190D01*
X3419520Y5555680D01*
X3420030Y5555080D01*
X3420440Y5554410D01*
X3420740Y5553690D01*
X3420920Y5552920D01*
X3420980Y5427140D01*
X3390980Y5397140D01*
X3325980D01*
X3325200Y5397200D01*
X3324430Y5397380D01*
X3323710Y5397680D01*
X3323040Y5398090D01*
X3322440Y5398600D01*
X3321930Y5399200D01*
X3321520Y5399870D01*
X3321220Y5400590D01*
X3321040Y5401360D01*
X3320980Y5552140D01*
X3321040Y5552920D01*
X3321220Y5553690D01*
X3321520Y5554410D01*
X3321930Y5555080D01*
X3322440Y5555680D01*
X3323040Y5556190D01*
X3323710Y5556600D01*
X3324430Y5556900D01*
X3325200Y5557080D01*
X3325980Y5557140D01*
X3415980D01*
X3416760Y5557080D01*
D02*
G37*
%LPC*%
G36*
X5206747Y10100240D02*
X5188253D01*
X5170388Y10095453D01*
X5154372Y10086206D01*
X5141294Y10073128D01*
X5132047Y10057111D01*
X5127260Y10039247D01*
Y10020753D01*
X5132047Y10002889D01*
X5141294Y9986872D01*
X5154372Y9973794D01*
X5170388Y9964547D01*
X5188253Y9959760D01*
X5206747D01*
X5224611Y9964547D01*
X5240628Y9973794D01*
X5253706Y9986872D01*
X5262953Y10002889D01*
X5267740Y10020753D01*
Y10039247D01*
X5262953Y10057111D01*
X5253706Y10073128D01*
X5240628Y10086206D01*
X5224611Y10095453D01*
X5206747Y10100240D01*
D02*
G37*
G36*
X4736747D02*
X4718253D01*
X4700389Y10095453D01*
X4684372Y10086206D01*
X4671294Y10073128D01*
X4662047Y10057111D01*
X4657260Y10039247D01*
Y10020753D01*
X4662047Y10002889D01*
X4671294Y9986872D01*
X4684372Y9973794D01*
X4700389Y9964547D01*
X4718253Y9959760D01*
X4736747D01*
X4754612Y9964547D01*
X4770628Y9973794D01*
X4783706Y9986872D01*
X4792953Y10002889D01*
X4797740Y10020753D01*
Y10039247D01*
X4792953Y10057111D01*
X4783706Y10073128D01*
X4770628Y10086206D01*
X4754612Y10095453D01*
X4736747Y10100240D01*
D02*
G37*
G36*
X8748737Y10142740D02*
X8711263D01*
X8674509Y10135429D01*
X8639888Y10121088D01*
X8608729Y10100269D01*
X8582231Y10073771D01*
X8561412Y10042612D01*
X8547071Y10007991D01*
X8539760Y9971237D01*
Y9933763D01*
X8547071Y9897009D01*
X8561412Y9862388D01*
X8582231Y9831229D01*
X8608729Y9804731D01*
X8639888Y9783912D01*
X8674509Y9769571D01*
X8711263Y9762260D01*
X8748737D01*
X8785491Y9769571D01*
X8820112Y9783912D01*
X8851271Y9804731D01*
X8877769Y9831229D01*
X8898589Y9862388D01*
X8912929Y9897009D01*
X8920240Y9933763D01*
Y9971237D01*
X8912929Y10007991D01*
X8898589Y10042612D01*
X8877769Y10073771D01*
X8851271Y10100269D01*
X8820112Y10121088D01*
X8785491Y10135429D01*
X8748737Y10142740D01*
D02*
G37*
G36*
X2961237D02*
X2923763D01*
X2887009Y10135429D01*
X2852388Y10121088D01*
X2821229Y10100269D01*
X2794731Y10073771D01*
X2773912Y10042612D01*
X2759571Y10007991D01*
X2752260Y9971237D01*
Y9933763D01*
X2759571Y9897009D01*
X2773912Y9862388D01*
X2794731Y9831229D01*
X2821229Y9804731D01*
X2852388Y9783912D01*
X2887009Y9769571D01*
X2923763Y9762260D01*
X2961237D01*
X2997991Y9769571D01*
X3032612Y9783912D01*
X3063771Y9804731D01*
X3090269Y9831229D01*
X3111089Y9862388D01*
X3125429Y9897009D01*
X3132740Y9933763D01*
Y9971237D01*
X3125429Y10007991D01*
X3111089Y10042612D01*
X3090269Y10073771D01*
X3063771Y10100269D01*
X3032612Y10121088D01*
X2997991Y10135429D01*
X2961237Y10142740D01*
D02*
G37*
G36*
X5537740Y10210240D02*
X5287260D01*
Y9619760D01*
X5537740D01*
Y10210240D01*
D02*
G37*
G36*
X4637740D02*
X4387260D01*
Y9619760D01*
X4637740D01*
Y10210240D01*
D02*
G37*
G36*
X5162740Y9670240D02*
X5012260D01*
Y9319760D01*
X5162740D01*
Y9339111D01*
X5178221D01*
X5179148Y9336874D01*
X5191874Y9324147D01*
X5208501Y9317260D01*
X5226499D01*
X5243126Y9324147D01*
X5255853Y9336874D01*
X5262740Y9353501D01*
Y9371499D01*
X5255853Y9388126D01*
X5243126Y9400852D01*
X5226499Y9407740D01*
X5208501D01*
X5191874Y9400852D01*
X5179148Y9388126D01*
X5178221Y9385889D01*
X5162740D01*
Y9466611D01*
X5178221D01*
X5179148Y9464374D01*
X5191874Y9451648D01*
X5208501Y9444760D01*
X5226499D01*
X5243126Y9451648D01*
X5255853Y9464374D01*
X5262740Y9481001D01*
Y9498999D01*
X5255853Y9515626D01*
X5243126Y9528353D01*
X5226499Y9535240D01*
X5208501D01*
X5191874Y9528353D01*
X5179148Y9515626D01*
X5178221Y9513389D01*
X5162740D01*
Y9670240D01*
D02*
G37*
G36*
X4912740D02*
X4762260D01*
Y9319760D01*
X4801513D01*
Y9265002D01*
X4801512Y9265000D01*
X4803681Y9254099D01*
X4809856Y9244857D01*
X4919735Y9134978D01*
X4919736Y9134977D01*
X4928978Y9128802D01*
X4939880Y9126633D01*
X4939881Y9126633D01*
X5139821D01*
X5147967Y9111393D01*
X5144331Y9105952D01*
X5141347Y9090950D01*
Y9087699D01*
X5196501D01*
Y9074999D01*
X5209201D01*
Y9019847D01*
X5212450D01*
X5227453Y9022831D01*
X5240171Y9031329D01*
X5255414Y9029619D01*
X5264013Y9021675D01*
Y8990241D01*
X5264013Y8990240D01*
X5266181Y8979338D01*
X5268617Y8975692D01*
X5261674Y8960934D01*
X5261111Y8960452D01*
X5258841D01*
X5244263Y8957552D01*
X5231905Y8949295D01*
X5223648Y8936937D01*
X5220749Y8922360D01*
Y8896020D01*
X5269880D01*
Y8883320D01*
X5282580D01*
Y8806518D01*
X5295498Y8809088D01*
X5307856Y8817345D01*
X5308044Y8817627D01*
X5313228Y8818658D01*
X5323841Y8816547D01*
X5345920D01*
X5356533Y8818658D01*
X5365530Y8824670D01*
X5369231D01*
X5378228Y8818658D01*
X5388841Y8816547D01*
X5410920D01*
X5421533Y8818658D01*
X5430530Y8824670D01*
X5434231D01*
X5443228Y8818658D01*
X5453841Y8816547D01*
X5475920D01*
X5486533Y8818658D01*
X5495530Y8824670D01*
X5501542Y8833667D01*
X5503653Y8844280D01*
Y8860012D01*
X5573320D01*
X5582240Y8861786D01*
X5589801Y8866839D01*
X5614655Y8891692D01*
X5622846D01*
X5657810Y8856728D01*
X5656472Y8850000D01*
Y8800000D01*
X5659595Y8784299D01*
X5668489Y8770989D01*
X5681800Y8762095D01*
X5697500Y8758972D01*
X5747500D01*
X5754228Y8760310D01*
X5766693Y8747845D01*
Y8569654D01*
X5742846Y8545808D01*
X5595772D01*
X5590780Y8553279D01*
X5580750Y8559981D01*
X5568920Y8562334D01*
X5541080D01*
X5529250Y8559981D01*
X5523938Y8556431D01*
X5507775Y8557360D01*
X5504418Y8558557D01*
X5502671Y8561171D01*
X5489953Y8569669D01*
X5474950Y8572653D01*
X5471701D01*
Y8517500D01*
X5459001D01*
Y8504800D01*
X5403847D01*
Y8501550D01*
X5406831Y8486547D01*
X5415329Y8473829D01*
X5416154Y8454949D01*
X5415019Y8453250D01*
X5412666Y8441420D01*
Y8413580D01*
X5415019Y8401750D01*
X5421721Y8391721D01*
X5431750Y8385019D01*
X5438120Y8383752D01*
Y8327500D01*
X5439894Y8318581D01*
X5444946Y8311019D01*
X5452508Y8305966D01*
X5453836Y8305702D01*
X5526692Y8232846D01*
Y8094655D01*
X5490093Y8058055D01*
X5474648Y8060032D01*
X5474360Y8061482D01*
X5467199Y8072199D01*
X5456482Y8079360D01*
X5443840Y8081875D01*
X5277160D01*
X5264518Y8079360D01*
X5253801Y8072199D01*
X5246640Y8061482D01*
X5245611Y8056308D01*
X5235500D01*
X5226581Y8054534D01*
X5219019Y8049481D01*
X5181728Y8012190D01*
X5175000Y8013528D01*
X5125000D01*
X5109299Y8010405D01*
X5095989Y8001511D01*
X5087095Y7988201D01*
X5083972Y7972500D01*
Y7922500D01*
X5087095Y7906799D01*
X5095989Y7893489D01*
X5109299Y7884595D01*
X5125000Y7881472D01*
X5175000D01*
X5190701Y7884595D01*
X5204011Y7893489D01*
X5212905Y7906799D01*
X5216028Y7922500D01*
Y7972500D01*
X5214690Y7979228D01*
X5233561Y7998099D01*
X5252605Y7995590D01*
X5253801Y7993801D01*
X5264518Y7986640D01*
X5277160Y7984126D01*
X5443840D01*
X5456482Y7986640D01*
X5467199Y7993801D01*
X5474360Y8004518D01*
X5475389Y8009692D01*
X5498000D01*
X5506920Y8011467D01*
X5514481Y8016519D01*
X5566481Y8068519D01*
X5571534Y8076080D01*
X5573308Y8085000D01*
Y8242500D01*
X5571534Y8251419D01*
X5566481Y8258981D01*
X5484735Y8340727D01*
Y8386011D01*
X5493280Y8391721D01*
X5496561Y8396631D01*
X5499436Y8397409D01*
X5512910Y8396852D01*
X5513494Y8396631D01*
X5517154Y8391154D01*
X5526512Y8384901D01*
X5537550Y8382706D01*
X5569450D01*
X5580488Y8384901D01*
X5589846Y8391154D01*
X5596099Y8400512D01*
X5598294Y8411550D01*
Y8443450D01*
X5596099Y8454488D01*
X5590344Y8463100D01*
X5589858Y8464112D01*
X5590653Y8481636D01*
X5590780Y8481720D01*
X5597481Y8491750D01*
X5598961Y8499192D01*
X5752500D01*
X5761420Y8500966D01*
X5768981Y8506019D01*
X5806481Y8543519D01*
X5811534Y8551081D01*
X5813308Y8560000D01*
Y8757500D01*
X5811534Y8766420D01*
X5806481Y8773981D01*
X5787190Y8793272D01*
X5788529Y8800000D01*
Y8850000D01*
X5785405Y8865701D01*
X5776512Y8879011D01*
X5763201Y8887905D01*
X5747500Y8891028D01*
X5697500D01*
X5690772Y8889690D01*
X5648981Y8931481D01*
X5641420Y8936534D01*
X5632500Y8938308D01*
X5628308D01*
Y8982034D01*
X5630751Y8982520D01*
X5640780Y8989221D01*
X5647481Y8999250D01*
X5649835Y9011081D01*
Y9037222D01*
X5649854Y9038940D01*
X5659141Y9047995D01*
X5674148Y9049373D01*
X5686874Y9036647D01*
X5703501Y9029760D01*
X5721499D01*
X5738126Y9036647D01*
X5750852Y9049374D01*
X5757740Y9066001D01*
Y9083999D01*
X5750852Y9100626D01*
X5738126Y9113352D01*
X5721499Y9120240D01*
X5703501D01*
X5686874Y9113352D01*
X5674148Y9100626D01*
X5659995Y9100391D01*
X5649834Y9109918D01*
Y9133920D01*
X5647481Y9145750D01*
X5640780Y9155780D01*
X5630750Y9162481D01*
X5618920Y9164834D01*
X5593244D01*
X5581051Y9177026D01*
Y9189838D01*
X5579271Y9198789D01*
X5574201Y9206377D01*
X5556813Y9223764D01*
X5557740Y9226001D01*
Y9243999D01*
X5550852Y9260626D01*
X5538126Y9273353D01*
X5521499Y9280240D01*
X5503501D01*
X5486874Y9273353D01*
X5474148Y9260626D01*
X5467260Y9243999D01*
Y9226001D01*
X5474148Y9209374D01*
X5486874Y9196648D01*
X5503501Y9189760D01*
X5521499D01*
X5523736Y9190687D01*
X5534273Y9180150D01*
Y9178479D01*
X5525682Y9165868D01*
X5519411Y9164794D01*
X5493050D01*
X5482012Y9162599D01*
X5472655Y9156346D01*
X5468169Y9149633D01*
X5457302Y9149736D01*
X5452310Y9151242D01*
X5452169Y9151952D01*
X5443671Y9164671D01*
X5430953Y9173169D01*
X5415950Y9176153D01*
X5412700D01*
Y9121000D01*
X5387300D01*
Y9176153D01*
X5384050D01*
X5369048Y9173169D01*
X5356329Y9164671D01*
X5347831Y9151952D01*
X5344847Y9136950D01*
Y9119332D01*
X5329624Y9113375D01*
X5320988Y9119934D01*
Y9127500D01*
X5318819Y9138401D01*
X5312644Y9147643D01*
X5312643Y9147644D01*
X5285023Y9175264D01*
X5275781Y9181440D01*
X5264879Y9183608D01*
X5264878Y9183608D01*
X4951679D01*
X4858487Y9276800D01*
Y9319760D01*
X4912740D01*
Y9670240D01*
D02*
G37*
G36*
X5183801Y9062299D02*
X5141347D01*
Y9059050D01*
X5144331Y9044047D01*
X5152829Y9031329D01*
X5165548Y9022831D01*
X5180550Y9019847D01*
X5183801D01*
Y9062299D01*
D02*
G37*
G36*
X3282740Y9080240D02*
X2692260D01*
Y8829760D01*
X3282740D01*
Y9080240D01*
D02*
G37*
G36*
X4362500Y8885192D02*
X4360200D01*
Y8820201D01*
X4403691D01*
Y8844000D01*
X4400556Y8859764D01*
X4391626Y8873127D01*
X4378263Y8882056D01*
X4362500Y8885192D01*
D02*
G37*
G36*
X5257180Y8870620D02*
X5220749D01*
Y8844280D01*
X5223648Y8829703D01*
X5231905Y8817345D01*
X5244263Y8809088D01*
X5257180Y8806518D01*
Y8870620D01*
D02*
G37*
G36*
X4334800Y8885192D02*
X4332500D01*
X4316737Y8882056D01*
X4303373Y8873127D01*
X4294444Y8859764D01*
X4291308Y8844000D01*
Y8806253D01*
X4276068Y8799415D01*
X4264555Y8807108D01*
X4244849Y8811028D01*
X3933061D01*
X3913355Y8807108D01*
X3896648Y8795945D01*
X3692305Y8591602D01*
X3595188D01*
X3593555Y8599813D01*
X3582740Y8615999D01*
Y8705240D01*
X3232260D01*
Y8554760D01*
X3494483D01*
Y8551947D01*
X3498403Y8532240D01*
X3509566Y8515534D01*
X3520099Y8505000D01*
X3509566Y8494466D01*
X3498403Y8477760D01*
X3494483Y8458053D01*
Y8455240D01*
X3232260D01*
Y8304760D01*
X3582740D01*
Y8394001D01*
X3593555Y8410187D01*
X3595188Y8418398D01*
X3742719D01*
X3762425Y8422318D01*
X3779132Y8433480D01*
X3983475Y8637823D01*
X4179131D01*
Y8624373D01*
X4183051Y8604666D01*
X4194214Y8587959D01*
X4201667Y8580506D01*
Y8571000D01*
X4204014Y8559201D01*
X4207823Y8553501D01*
Y8525681D01*
X4211743Y8505975D01*
X4217916Y8496736D01*
X4209770Y8481496D01*
X4158192D01*
X4156511Y8484011D01*
X4143201Y8492905D01*
X4127500Y8496028D01*
X4077500D01*
X4061799Y8492905D01*
X4048488Y8484011D01*
X4039595Y8470701D01*
X4036471Y8455000D01*
Y8405000D01*
X4039595Y8389299D01*
X4048488Y8375989D01*
X4061799Y8367095D01*
X4077500Y8363972D01*
X4127500D01*
X4143201Y8367095D01*
X4156511Y8375989D01*
X4158192Y8378504D01*
X4250898D01*
Y8312449D01*
X4237587Y8299138D01*
X4236898Y8298108D01*
X4235995Y8297505D01*
X4229076Y8287150D01*
X4228865Y8286084D01*
X4226424Y8282431D01*
X4222504Y8262725D01*
Y8187500D01*
X4226424Y8167793D01*
X4226647Y8167460D01*
Y8100065D01*
X4229076Y8087850D01*
X4235995Y8077495D01*
X4246350Y8070576D01*
X4258565Y8068147D01*
X4289435D01*
X4301649Y8070576D01*
X4312004Y8077495D01*
X4318923Y8087850D01*
X4321353Y8100065D01*
Y8167460D01*
X4321576Y8167793D01*
X4325496Y8187500D01*
Y8241394D01*
X4337500Y8253399D01*
X4349504Y8241394D01*
Y8187500D01*
X4353424Y8167793D01*
X4353647Y8167460D01*
Y8100065D01*
X4356076Y8087850D01*
X4362995Y8077495D01*
X4373350Y8070576D01*
X4385565Y8068147D01*
X4416435D01*
X4428649Y8070576D01*
X4439004Y8077495D01*
X4445923Y8087850D01*
X4448353Y8100065D01*
Y8167460D01*
X4448576Y8167793D01*
X4452496Y8187500D01*
Y8262725D01*
X4448576Y8282431D01*
X4446135Y8286084D01*
X4445923Y8287150D01*
X4439004Y8297505D01*
X4438101Y8298108D01*
X4437413Y8299138D01*
X4424102Y8312449D01*
Y8376004D01*
X4522638D01*
X4525989Y8370989D01*
X4539299Y8362095D01*
X4555000Y8358972D01*
X4605000D01*
X4620701Y8362095D01*
X4634011Y8370989D01*
X4642905Y8384299D01*
X4646028Y8400000D01*
Y8450000D01*
X4642905Y8465701D01*
X4634011Y8479011D01*
X4620701Y8487905D01*
X4605000Y8491028D01*
X4555000D01*
X4539299Y8487905D01*
X4525989Y8479011D01*
X4525978Y8478996D01*
X4464671D01*
X4458839Y8493076D01*
X4469080Y8503317D01*
X4469080Y8503317D01*
X4480243Y8520024D01*
X4484163Y8539730D01*
X4484163Y8539732D01*
Y8549106D01*
X4484302Y8549198D01*
X4490985Y8559201D01*
X4493332Y8571000D01*
Y8585184D01*
X4495076Y8587794D01*
X4498996Y8607500D01*
X4495076Y8627207D01*
X4493332Y8629816D01*
Y8644000D01*
X4490985Y8655799D01*
X4484302Y8665802D01*
X4474299Y8672486D01*
X4462500Y8674833D01*
X4432500D01*
X4420701Y8672486D01*
X4410698Y8665802D01*
X4409126Y8665647D01*
X4360962Y8713811D01*
X4360456Y8714569D01*
X4361071Y8719157D01*
X4366931Y8730437D01*
X4367316Y8730767D01*
X4378263Y8732944D01*
X4391626Y8741874D01*
X4400556Y8755237D01*
X4403691Y8771000D01*
Y8794801D01*
X4347500D01*
Y8807501D01*
X4334800D01*
Y8885192D01*
D02*
G37*
G36*
X5153999Y8905240D02*
X5136001D01*
X5119374Y8898353D01*
X5106648Y8885626D01*
X5099760Y8868999D01*
Y8851001D01*
X5106648Y8834374D01*
X5118061Y8822961D01*
X5118899Y8809968D01*
X5118744Y8806181D01*
X5107973Y8796722D01*
X5099451Y8797390D01*
X5086733Y8805888D01*
X5071731Y8808872D01*
X5068480D01*
Y8753719D01*
X5055780D01*
Y8741019D01*
X5000627D01*
Y8737769D01*
X5003612Y8722767D01*
X5012110Y8710048D01*
X5014724Y8708302D01*
X5015920Y8704944D01*
X5016849Y8688781D01*
X5013300Y8683470D01*
X5010947Y8671639D01*
Y8643799D01*
X5013300Y8631969D01*
X5020001Y8621940D01*
X5030030Y8615239D01*
X5041861Y8612885D01*
X5069701D01*
X5081531Y8615239D01*
X5091560Y8621940D01*
X5092941Y8624006D01*
X5110091Y8624006D01*
X5110875Y8622833D01*
X5120232Y8616581D01*
X5131271Y8614385D01*
X5163171D01*
X5174209Y8616581D01*
X5183566Y8622833D01*
X5188817Y8630692D01*
X5231108D01*
Y8619280D01*
X5233219Y8608667D01*
X5239231Y8599670D01*
X5248228Y8593658D01*
X5258841Y8591547D01*
X5280920D01*
X5291153Y8593583D01*
X5291547Y8593650D01*
X5306393Y8585258D01*
Y8287108D01*
X5270526D01*
X5268860Y8295482D01*
X5261699Y8306199D01*
X5250982Y8313360D01*
X5238340Y8315875D01*
X5206660D01*
X5194018Y8313360D01*
X5192943Y8312641D01*
X5174024Y8313524D01*
X5159946Y8322931D01*
X5143340Y8326234D01*
X5140200D01*
Y8265000D01*
Y8203766D01*
X5143340D01*
X5159946Y8207069D01*
X5174024Y8216476D01*
X5192943Y8217358D01*
X5194018Y8216640D01*
X5206660Y8214125D01*
X5238340D01*
X5250982Y8216640D01*
X5261699Y8223801D01*
X5265930Y8230133D01*
X5306393D01*
Y8208875D01*
X5277160D01*
X5264518Y8206360D01*
X5253801Y8199199D01*
X5246644Y8188488D01*
X5194157D01*
X5183256Y8186319D01*
X5180452Y8184446D01*
X5172500Y8186028D01*
X5122500D01*
X5106800Y8182905D01*
X5093489Y8174011D01*
X5084595Y8160700D01*
X5081472Y8145000D01*
Y8095000D01*
X5084595Y8079299D01*
X5093489Y8065988D01*
X5106800Y8057095D01*
X5122500Y8053971D01*
X5172500D01*
X5188201Y8057095D01*
X5201512Y8065988D01*
X5210405Y8079299D01*
X5213529Y8095000D01*
Y8131513D01*
X5246644D01*
X5253801Y8120801D01*
X5264518Y8113640D01*
X5277160Y8111126D01*
X5443840D01*
X5456482Y8113640D01*
X5467199Y8120801D01*
X5474360Y8131518D01*
X5476875Y8144160D01*
Y8175840D01*
X5474360Y8188482D01*
X5467199Y8199199D01*
X5456482Y8206360D01*
X5443840Y8208875D01*
X5363368D01*
Y8258620D01*
Y8585258D01*
X5378214Y8593650D01*
X5378608Y8593583D01*
X5388841Y8591547D01*
X5410920D01*
X5421533Y8593658D01*
X5432381Y8598794D01*
X5443228Y8593658D01*
X5453841Y8591547D01*
X5475920D01*
X5486533Y8593658D01*
X5495530Y8599670D01*
X5501542Y8608667D01*
X5503653Y8619280D01*
Y8634110D01*
X5544729D01*
X5546140Y8627018D01*
X5553301Y8616301D01*
X5564018Y8609140D01*
X5576660Y8606625D01*
X5608340D01*
X5620982Y8609140D01*
X5622057Y8609858D01*
X5640976Y8608976D01*
X5655054Y8599569D01*
X5671660Y8596266D01*
X5674800D01*
Y8657500D01*
Y8718734D01*
X5671660D01*
X5655054Y8715430D01*
X5640976Y8706024D01*
X5630577Y8705539D01*
X5615889Y8717800D01*
Y8738221D01*
X5618126Y8739148D01*
X5630853Y8751874D01*
X5637740Y8768501D01*
Y8786499D01*
X5630853Y8803126D01*
X5618126Y8815853D01*
X5601499Y8822740D01*
X5583501D01*
X5566874Y8815853D01*
X5554148Y8803126D01*
X5547260Y8786499D01*
Y8768501D01*
X5554148Y8751874D01*
X5566874Y8739148D01*
X5569111Y8738221D01*
Y8706873D01*
X5564018Y8705860D01*
X5553301Y8698699D01*
X5546140Y8687982D01*
X5544729Y8680889D01*
X5503653D01*
Y8697360D01*
X5501542Y8707973D01*
X5495530Y8716970D01*
X5486533Y8722982D01*
X5475920Y8725093D01*
X5453841D01*
X5443228Y8722982D01*
X5432380Y8717846D01*
X5421533Y8722982D01*
X5410920Y8725093D01*
X5388841D01*
X5378228Y8722982D01*
X5369231Y8716970D01*
X5365530D01*
X5356533Y8722982D01*
X5345920Y8725093D01*
X5323841D01*
X5313228Y8722982D01*
X5304231Y8716970D01*
X5300530D01*
X5291533Y8722982D01*
X5280920Y8725093D01*
X5258841D01*
X5248228Y8722982D01*
X5239231Y8716970D01*
X5233219Y8707973D01*
X5231108Y8697360D01*
Y8687667D01*
X5188817D01*
X5183566Y8695525D01*
X5178090Y8699185D01*
X5177868Y8699769D01*
X5177311Y8713243D01*
X5178090Y8716119D01*
X5183000Y8719400D01*
X5189701Y8729429D01*
X5192055Y8741259D01*
Y8769099D01*
X5189701Y8780929D01*
X5183000Y8790959D01*
X5172971Y8797660D01*
X5169500Y8798350D01*
Y8821181D01*
X5170626Y8821648D01*
X5183353Y8834374D01*
X5190240Y8851001D01*
Y8868999D01*
X5183353Y8885626D01*
X5170626Y8898353D01*
X5153999Y8905240D01*
D02*
G37*
G36*
X5043080Y8808872D02*
X5039831D01*
X5024828Y8805888D01*
X5012110Y8797390D01*
X5003612Y8784672D01*
X5000627Y8769669D01*
Y8766419D01*
X5043080D01*
Y8808872D01*
D02*
G37*
G36*
X5703340Y8718734D02*
X5700200D01*
Y8670200D01*
X5746734D01*
Y8675340D01*
X5743431Y8691946D01*
X5734024Y8706024D01*
X5719946Y8715430D01*
X5703340Y8718734D01*
D02*
G37*
G36*
X2881747Y8810240D02*
X2863253D01*
X2845389Y8805453D01*
X2829372Y8796206D01*
X2816294Y8783128D01*
X2807047Y8767111D01*
X2802260Y8749247D01*
Y8730753D01*
X2807047Y8712889D01*
X2816294Y8696872D01*
X2829372Y8683794D01*
X2845389Y8674547D01*
X2863253Y8669760D01*
X2881747D01*
X2899611Y8674547D01*
X2915628Y8683794D01*
X2928706Y8696872D01*
X2937953Y8712889D01*
X2942740Y8730753D01*
Y8749247D01*
X2937953Y8767111D01*
X2928706Y8783128D01*
X2915628Y8796206D01*
X2899611Y8805453D01*
X2881747Y8810240D01*
D02*
G37*
G36*
X5746734Y8644800D02*
X5700200D01*
Y8596266D01*
X5703340D01*
X5719946Y8599569D01*
X5734024Y8608976D01*
X5743431Y8623054D01*
X5746734Y8639660D01*
Y8644800D01*
D02*
G37*
G36*
X5446301Y8572653D02*
X5443050D01*
X5428048Y8569669D01*
X5415329Y8561171D01*
X5406831Y8548452D01*
X5403847Y8533450D01*
Y8530200D01*
X5446301D01*
Y8572653D01*
D02*
G37*
G36*
X5858999Y8452740D02*
X5841001D01*
X5824374Y8445853D01*
X5811648Y8433126D01*
X5804760Y8416499D01*
Y8398501D01*
X5811648Y8381874D01*
X5824111Y8369411D01*
Y8349125D01*
X5809682Y8337910D01*
X5796524Y8338524D01*
X5782446Y8347930D01*
X5765840Y8351234D01*
X5762700D01*
Y8290000D01*
Y8228766D01*
X5765840D01*
X5782446Y8232069D01*
X5796524Y8241476D01*
X5806923Y8241961D01*
X5821611Y8229700D01*
Y8208875D01*
X5759160D01*
X5746518Y8206360D01*
X5735801Y8199199D01*
X5728640Y8188482D01*
X5726125Y8175840D01*
Y8144160D01*
X5728640Y8131518D01*
X5735801Y8120801D01*
X5746518Y8113640D01*
X5759160Y8111126D01*
X5925840D01*
X5938482Y8113640D01*
X5949199Y8120801D01*
X5956360Y8131518D01*
X5958875Y8144160D01*
Y8175840D01*
X5956360Y8188482D01*
X5949199Y8199199D01*
X5938482Y8206360D01*
X5925840Y8208875D01*
X5868389D01*
Y8240627D01*
X5873482Y8241640D01*
X5884199Y8248801D01*
X5891360Y8259518D01*
X5893875Y8272160D01*
Y8307840D01*
X5891360Y8320482D01*
X5884199Y8331199D01*
X5873482Y8338360D01*
X5870889Y8338876D01*
Y8367185D01*
X5875626Y8369148D01*
X5888352Y8381874D01*
X5895240Y8398501D01*
Y8416499D01*
X5888352Y8433126D01*
X5875626Y8445853D01*
X5858999Y8452740D01*
D02*
G37*
G36*
X5737300Y8351234D02*
X5734160D01*
X5717554Y8347930D01*
X5703476Y8338524D01*
X5694069Y8324446D01*
X5690766Y8307840D01*
Y8302700D01*
X5737300D01*
Y8351234D01*
D02*
G37*
G36*
X5114800Y8326234D02*
X5111660D01*
X5095054Y8322931D01*
X5080976Y8313524D01*
X5071569Y8299446D01*
X5068266Y8282840D01*
Y8277700D01*
X5114800D01*
Y8326234D01*
D02*
G37*
G36*
X4022840Y8286734D02*
X4017700D01*
Y8240200D01*
X4066234D01*
Y8243340D01*
X4062931Y8259946D01*
X4053524Y8274024D01*
X4039446Y8283430D01*
X4022840Y8286734D01*
D02*
G37*
G36*
X3992300D02*
X3987160D01*
X3970554Y8283430D01*
X3956476Y8274024D01*
X3947070Y8259946D01*
X3943766Y8243340D01*
Y8240200D01*
X3992300D01*
Y8286734D01*
D02*
G37*
G36*
X5737300Y8277300D02*
X5690766D01*
Y8272160D01*
X5694069Y8255554D01*
X5703476Y8241476D01*
X5717554Y8232069D01*
X5734160Y8228766D01*
X5737300D01*
Y8277300D01*
D02*
G37*
G36*
X5114800Y8252300D02*
X5068266D01*
Y8247160D01*
X5071569Y8230554D01*
X5080976Y8216476D01*
X5095054Y8207069D01*
X5111660Y8203766D01*
X5114800D01*
Y8252300D01*
D02*
G37*
G36*
X4543435Y8317212D02*
X4540700D01*
Y8200200D01*
X4585712D01*
Y8274935D01*
X4582494Y8291114D01*
X4573329Y8304829D01*
X4559613Y8313994D01*
X4543435Y8317212D01*
D02*
G37*
G36*
X4515300D02*
X4512565D01*
X4496386Y8313994D01*
X4482670Y8304829D01*
X4473506Y8291114D01*
X4470288Y8274935D01*
Y8200200D01*
X4515300D01*
Y8317212D01*
D02*
G37*
G36*
X4162435Y8306853D02*
X4131565D01*
X4119350Y8304424D01*
X4108995Y8297505D01*
X4102076Y8287150D01*
X4099647Y8274935D01*
Y8155889D01*
X4065300D01*
X4053039Y8170577D01*
X4053524Y8180976D01*
X4062931Y8195054D01*
X4066234Y8211660D01*
Y8214800D01*
X4005000D01*
X3943766D01*
Y8211660D01*
X3947070Y8195054D01*
X3956476Y8180976D01*
X3957359Y8162057D01*
X3956640Y8160982D01*
X3954125Y8148340D01*
Y8116660D01*
X3956640Y8104018D01*
X3963801Y8093301D01*
X3974518Y8086140D01*
X3980361Y8084978D01*
Y8049797D01*
X3976874Y8048352D01*
X3964148Y8035626D01*
X3957260Y8018999D01*
Y8001001D01*
X3964148Y7984374D01*
X3976874Y7971648D01*
X3993501Y7964760D01*
X4011499D01*
X4028126Y7971648D01*
X4040852Y7984374D01*
X4047740Y8001001D01*
Y8018999D01*
X4040852Y8035626D01*
X4028126Y8048352D01*
X4027140Y8048761D01*
Y8084480D01*
X4035482Y8086140D01*
X4046199Y8093301D01*
X4053360Y8104018D01*
X4054373Y8109111D01*
X4099647D01*
Y8100065D01*
X4102076Y8087850D01*
X4108995Y8077495D01*
X4119350Y8070576D01*
X4131565Y8068147D01*
X4162435D01*
X4174649Y8070576D01*
X4185004Y8077495D01*
X4191923Y8087850D01*
X4194353Y8100065D01*
Y8274935D01*
X4191923Y8287150D01*
X4185004Y8297505D01*
X4174649Y8304424D01*
X4162435Y8306853D01*
D02*
G37*
G36*
X3592900Y8215400D02*
X3420200D01*
Y8142700D01*
X3592900D01*
Y8215400D01*
D02*
G37*
G36*
X3394800D02*
X3222100D01*
Y8142700D01*
X3394800D01*
Y8215400D01*
D02*
G37*
G36*
X4585712Y8174800D02*
X4540700D01*
Y8057788D01*
X4543435D01*
X4559613Y8061006D01*
X4573329Y8070171D01*
X4582494Y8083886D01*
X4585712Y8100065D01*
Y8174800D01*
D02*
G37*
G36*
X4515300D02*
X4470288D01*
Y8100065D01*
X4473506Y8083886D01*
X4482670Y8070171D01*
X4496386Y8061006D01*
X4512565Y8057788D01*
X4515300D01*
Y8174800D01*
D02*
G37*
G36*
X3592900Y8117300D02*
X3420200D01*
Y8044600D01*
X3592900D01*
Y8117300D01*
D02*
G37*
G36*
X3394800D02*
X3222100D01*
Y8044600D01*
X3394800D01*
Y8117300D01*
D02*
G37*
G36*
X2881747Y8090240D02*
X2863253D01*
X2845389Y8085453D01*
X2829372Y8076206D01*
X2816294Y8063128D01*
X2807047Y8047112D01*
X2802260Y8029247D01*
Y8010753D01*
X2807047Y7992889D01*
X2816294Y7976872D01*
X2829372Y7963794D01*
X2845389Y7954547D01*
X2863253Y7949760D01*
X2881747D01*
X2899611Y7954547D01*
X2915628Y7963794D01*
X2928706Y7976872D01*
X2937953Y7992889D01*
X2942740Y8010753D01*
Y8029247D01*
X2937953Y8047112D01*
X2928706Y8063128D01*
X2915628Y8076206D01*
X2899611Y8085453D01*
X2881747Y8090240D01*
D02*
G37*
G36*
X5443840Y7965234D02*
X5373201D01*
Y7918700D01*
X5487234D01*
Y7921840D01*
X5483931Y7938446D01*
X5474524Y7952524D01*
X5460446Y7961931D01*
X5443840Y7965234D01*
D02*
G37*
G36*
X5347801D02*
X5277160D01*
X5260554Y7961931D01*
X5246476Y7952524D01*
X5237070Y7938446D01*
X5233766Y7921840D01*
Y7918700D01*
X5347801D01*
Y7965234D01*
D02*
G37*
G36*
X4416435Y7821854D02*
X4385565D01*
X4373350Y7819424D01*
X4362995Y7812505D01*
X4356076Y7802150D01*
X4353647Y7789935D01*
Y7730988D01*
X4321353D01*
Y7789935D01*
X4318923Y7802150D01*
X4312004Y7812505D01*
X4301649Y7819424D01*
X4289435Y7821854D01*
X4258565D01*
X4246350Y7819424D01*
X4235995Y7812505D01*
X4229076Y7802150D01*
X4226647Y7789935D01*
Y7615065D01*
X4229076Y7602851D01*
X4235995Y7592496D01*
X4246350Y7585577D01*
X4252597Y7584334D01*
X4255692Y7579064D01*
X4258289Y7570415D01*
X4258238Y7568042D01*
X4251831Y7558452D01*
X4248846Y7543450D01*
Y7540201D01*
X4303999D01*
Y7527501D01*
X4316699D01*
Y7472347D01*
X4319950D01*
X4334952Y7475331D01*
X4347671Y7483829D01*
X4363599Y7485566D01*
X4374682Y7475707D01*
Y7402016D01*
X4371874Y7400852D01*
X4359147Y7388126D01*
X4352260Y7371499D01*
Y7353501D01*
X4359147Y7336874D01*
X4371874Y7324147D01*
X4388501Y7317260D01*
X4406499D01*
X4423126Y7324147D01*
X4435852Y7336874D01*
X4442740Y7353501D01*
Y7371499D01*
X4435852Y7388126D01*
X4423126Y7400852D01*
X4421298Y7401610D01*
Y7484134D01*
X4425750Y7485019D01*
X4435779Y7491721D01*
X4442480Y7501750D01*
X4444834Y7513580D01*
Y7541420D01*
X4442480Y7553250D01*
X4435779Y7563280D01*
X4428987Y7567818D01*
Y7585802D01*
X4439004Y7592496D01*
X4445923Y7602851D01*
X4448353Y7615065D01*
Y7789935D01*
X4445923Y7802150D01*
X4439004Y7812505D01*
X4428649Y7819424D01*
X4416435Y7821854D01*
D02*
G37*
G36*
X5347801Y7766300D02*
X5233766D01*
Y7763160D01*
X5237070Y7746554D01*
X5246476Y7732476D01*
X5260554Y7723070D01*
X5277160Y7719766D01*
X5347801D01*
Y7766300D01*
D02*
G37*
G36*
X3282740Y7930240D02*
X2692260D01*
Y7679760D01*
X3282740D01*
Y7930240D01*
D02*
G37*
G36*
X4162435Y7821854D02*
X4131565D01*
X4119350Y7819424D01*
X4108995Y7812505D01*
X4102076Y7802150D01*
X4099647Y7789935D01*
Y7615065D01*
X4102076Y7602851D01*
X4108995Y7592496D01*
X4119203Y7585675D01*
X4119337Y7584955D01*
X4119028Y7570102D01*
X4119011Y7570099D01*
X4109654Y7563846D01*
X4105994Y7558369D01*
X4105409Y7558148D01*
X4091936Y7557591D01*
X4089060Y7558369D01*
X4085779Y7563280D01*
X4075750Y7569981D01*
X4073389Y7570450D01*
Y7594906D01*
X4071609Y7603857D01*
X4066538Y7611445D01*
X4058856Y7619126D01*
X4062740Y7628501D01*
Y7646499D01*
X4055852Y7663126D01*
X4043126Y7675853D01*
X4026499Y7682740D01*
X4008501D01*
X3991874Y7675853D01*
X3979147Y7663126D01*
X3972260Y7646499D01*
Y7628501D01*
X3979147Y7611874D01*
X3991874Y7599148D01*
X4008501Y7592260D01*
X4019568D01*
X4026610Y7585217D01*
Y7570450D01*
X4024250Y7569981D01*
X4014220Y7563280D01*
X4007519Y7553250D01*
X4005166Y7541420D01*
Y7513580D01*
X4007519Y7501750D01*
X4014220Y7491721D01*
X4024250Y7485019D01*
X4036080Y7482666D01*
X4063920D01*
X4075750Y7485019D01*
X4085779Y7491721D01*
X4089060Y7496631D01*
X4091936Y7497409D01*
X4105409Y7496852D01*
X4105994Y7496631D01*
X4109654Y7491154D01*
X4119011Y7484901D01*
X4122610Y7484186D01*
Y7438528D01*
X4120000D01*
X4104299Y7435405D01*
X4090989Y7426511D01*
X4082095Y7413201D01*
X4078972Y7397500D01*
Y7347500D01*
X4082095Y7331799D01*
X4090989Y7318489D01*
X4104299Y7309595D01*
X4120000Y7306472D01*
X4170000D01*
X4177675Y7307998D01*
X4230321Y7255352D01*
X4229760Y7253999D01*
Y7236001D01*
X4236648Y7219374D01*
X4249374Y7206648D01*
X4266001Y7199760D01*
X4283999D01*
X4300626Y7206648D01*
X4313353Y7219374D01*
X4320240Y7236001D01*
Y7253999D01*
X4313353Y7270626D01*
X4300626Y7283352D01*
X4283999Y7290240D01*
X4266001D01*
X4262880Y7288947D01*
X4209917Y7341911D01*
X4211028Y7347500D01*
Y7397500D01*
X4207905Y7413201D01*
X4199011Y7426511D01*
X4185701Y7435405D01*
X4170000Y7438528D01*
X4169389D01*
Y7484186D01*
X4172988Y7484901D01*
X4182345Y7491154D01*
X4188598Y7500512D01*
X4190794Y7511550D01*
Y7543450D01*
X4188598Y7554488D01*
X4182345Y7563846D01*
X4173439Y7569797D01*
X4173102Y7571876D01*
X4173971Y7585442D01*
X4174649Y7585577D01*
X4185004Y7592496D01*
X4191923Y7602851D01*
X4194353Y7615065D01*
Y7789935D01*
X4191923Y7802150D01*
X4185004Y7812505D01*
X4174649Y7819424D01*
X4162435Y7821854D01*
D02*
G37*
G36*
X4291299Y7514801D02*
X4248846D01*
Y7511550D01*
X4251831Y7496548D01*
X4260329Y7483829D01*
X4273047Y7475331D01*
X4288050Y7472347D01*
X4291299D01*
Y7514801D01*
D02*
G37*
G36*
X4543435Y7821854D02*
X4512565D01*
X4500350Y7819424D01*
X4489995Y7812505D01*
X4483076Y7802150D01*
X4480647Y7789935D01*
Y7615065D01*
X4483076Y7602851D01*
X4489995Y7592496D01*
X4500350Y7585577D01*
X4504692Y7584713D01*
Y7428978D01*
X4499299Y7427905D01*
X4485989Y7419011D01*
X4477095Y7405701D01*
X4473972Y7390000D01*
Y7340000D01*
X4477095Y7324299D01*
X4485989Y7310989D01*
X4499299Y7302095D01*
X4515000Y7298972D01*
X4565000D01*
X4580701Y7302095D01*
X4594011Y7310989D01*
X4602905Y7324299D01*
X4606028Y7340000D01*
Y7341692D01*
X4645687D01*
X4646648Y7339374D01*
X4659374Y7326648D01*
X4676001Y7319760D01*
X4693999D01*
X4710626Y7326648D01*
X4723353Y7339374D01*
X4730240Y7356001D01*
Y7373999D01*
X4723353Y7390626D01*
X4710626Y7403352D01*
X4693999Y7410240D01*
X4676001D01*
X4659374Y7403352D01*
X4646648Y7390626D01*
X4645687Y7388308D01*
X4606028D01*
Y7390000D01*
X4602905Y7405701D01*
X4594011Y7419011D01*
X4580701Y7427905D01*
X4565000Y7431028D01*
X4551308D01*
Y7584713D01*
X4555649Y7585577D01*
X4566004Y7592496D01*
X4572923Y7602851D01*
X4575353Y7615065D01*
Y7789935D01*
X4572923Y7802150D01*
X4566004Y7812505D01*
X4555649Y7819424D01*
X4543435Y7821854D01*
D02*
G37*
G36*
X7947531Y7182540D02*
X7869539D01*
Y7139548D01*
X7906294D01*
X7922075Y7142687D01*
X7935453Y7151626D01*
X7944392Y7165004D01*
X7947531Y7180785D01*
Y7182540D01*
D02*
G37*
G36*
X7844139D02*
X7766146D01*
Y7180785D01*
X7769285Y7165004D01*
X7778224Y7151626D01*
X7791603Y7142687D01*
X7807384Y7139548D01*
X7844139D01*
Y7182540D01*
D02*
G37*
G36*
X7376299Y7177301D02*
X7333846D01*
Y7174050D01*
X7336830Y7159048D01*
X7345328Y7146329D01*
X7358047Y7137831D01*
X7373050Y7134847D01*
X7376299D01*
Y7177301D01*
D02*
G37*
G36*
X3307500Y7088550D02*
X3265200D01*
Y7025200D01*
X3381879D01*
X3380959Y7032183D01*
X3373362Y7050525D01*
X3361276Y7066276D01*
X3345525Y7078362D01*
X3327184Y7085959D01*
X3307500Y7088550D01*
D02*
G37*
G36*
X3239800D02*
X3197500D01*
X3177816Y7085959D01*
X3159475Y7078362D01*
X3143724Y7066276D01*
X3131638Y7050525D01*
X3124040Y7032183D01*
X3123121Y7025200D01*
X3239800D01*
Y7088550D01*
D02*
G37*
G36*
X2899500Y7088887D02*
X2847200D01*
Y7025200D01*
X2950887D01*
Y7037500D01*
X2946976Y7057165D01*
X2935836Y7073836D01*
X2919165Y7084975D01*
X2899500Y7088887D01*
D02*
G37*
G36*
X2821800D02*
X2769500D01*
X2749835Y7084975D01*
X2733164Y7073836D01*
X2722025Y7057165D01*
X2718113Y7037500D01*
Y7025200D01*
X2821800D01*
Y7088887D01*
D02*
G37*
G36*
X2950887Y6999800D02*
X2847200D01*
Y6936113D01*
X2899500D01*
X2919165Y6940024D01*
X2935836Y6951164D01*
X2946976Y6967835D01*
X2950887Y6987500D01*
Y6999800D01*
D02*
G37*
G36*
X2821800D02*
X2718113D01*
Y6987500D01*
X2722025Y6967835D01*
X2733164Y6951164D01*
X2749835Y6940024D01*
X2769500Y6936113D01*
X2821800D01*
Y6999800D01*
D02*
G37*
G36*
X7433302Y6584816D02*
X7428162D01*
X7411556Y6581513D01*
X7397478Y6572107D01*
X7388071Y6558029D01*
X7384768Y6541423D01*
Y6538283D01*
X7433302D01*
Y6584816D01*
D02*
G37*
G36*
X7573062Y6582276D02*
X7567922D01*
Y6535743D01*
X7616456D01*
Y6538883D01*
X7613152Y6555489D01*
X7603746Y6569567D01*
X7589668Y6578973D01*
X7573062Y6582276D01*
D02*
G37*
G36*
X6839817Y6367176D02*
X6834677D01*
X6818071Y6363873D01*
X6803993Y6354466D01*
X6794586Y6340388D01*
X6791283Y6323782D01*
Y6320642D01*
X6839817D01*
Y6367176D01*
D02*
G37*
G36*
X4317300Y6348734D02*
X4314160D01*
X4297554Y6345431D01*
X4283476Y6336024D01*
X4274069Y6321946D01*
X4270766Y6305340D01*
Y6300199D01*
X4317300D01*
Y6348734D01*
D02*
G37*
G36*
X5018080Y6346354D02*
X5014940D01*
X4998334Y6343051D01*
X4984256Y6333644D01*
X4974850Y6319566D01*
X4971546Y6302960D01*
Y6297820D01*
X5018080D01*
Y6346354D01*
D02*
G37*
G36*
X4317300Y6274799D02*
X4270766D01*
Y6269660D01*
X4274069Y6253054D01*
X4283476Y6238976D01*
X4297554Y6229569D01*
X4314160Y6226266D01*
X4317300D01*
Y6274799D01*
D02*
G37*
G36*
X5018080Y6272420D02*
X4971546D01*
Y6267280D01*
X4974850Y6250674D01*
X4984256Y6236596D01*
X4998334Y6227190D01*
X5014940Y6223886D01*
X5018080D01*
Y6272420D01*
D02*
G37*
G36*
X7836337Y6224496D02*
X7833197D01*
Y6175962D01*
X7879731D01*
Y6181102D01*
X7876427Y6197708D01*
X7867021Y6211786D01*
X7852943Y6221193D01*
X7836337Y6224496D01*
D02*
G37*
G36*
X2899500Y6224887D02*
X2847200D01*
Y6161200D01*
X2950887D01*
Y6173500D01*
X2946976Y6193165D01*
X2935836Y6209836D01*
X2919165Y6220976D01*
X2899500Y6224887D01*
D02*
G37*
G36*
X2821800D02*
X2769500D01*
X2749835Y6220976D01*
X2733164Y6209836D01*
X2722025Y6193165D01*
X2718113Y6173500D01*
Y6161200D01*
X2821800D01*
Y6224887D01*
D02*
G37*
G36*
X4345840Y6348734D02*
X4342700D01*
Y6287499D01*
Y6226266D01*
X4344834D01*
X4346923Y6224023D01*
X4349836Y6217987D01*
X4351586Y6211870D01*
X4344772Y6201673D01*
X4342134Y6188411D01*
Y6150910D01*
X4344772Y6137648D01*
X4352285Y6126405D01*
X4363528Y6118893D01*
X4376790Y6116254D01*
X4479290D01*
X4492552Y6118893D01*
X4495441Y6120823D01*
X4497939Y6121158D01*
X4514277Y6117078D01*
X4514664Y6116734D01*
X4517496Y6112496D01*
X4527851Y6105577D01*
X4540065Y6103147D01*
X4714935D01*
X4727150Y6105577D01*
X4737505Y6112496D01*
X4744424Y6122851D01*
X4746854Y6135065D01*
Y6165935D01*
X4744424Y6178150D01*
X4737505Y6188505D01*
X4727150Y6195424D01*
X4714935Y6197853D01*
X4540065D01*
X4528081Y6195469D01*
X4527835Y6195430D01*
X4511308Y6201673D01*
X4503795Y6212916D01*
X4492552Y6220429D01*
X4479290Y6223067D01*
X4448308D01*
Y6238111D01*
X4453482Y6239140D01*
X4464199Y6246301D01*
X4471360Y6257018D01*
X4473875Y6269660D01*
Y6305340D01*
X4471360Y6317982D01*
X4464199Y6328699D01*
X4453482Y6335860D01*
X4440840Y6338375D01*
X4409160D01*
X4396518Y6335860D01*
X4395443Y6335142D01*
X4376524Y6336024D01*
X4362446Y6345431D01*
X4345840Y6348734D01*
D02*
G37*
G36*
X3381879Y6135800D02*
X3265200D01*
Y6072449D01*
X3307500D01*
X3327184Y6075041D01*
X3345525Y6082638D01*
X3361276Y6094724D01*
X3373362Y6110475D01*
X3380959Y6128817D01*
X3381879Y6135800D01*
D02*
G37*
G36*
X3239800D02*
X3123121D01*
X3124040Y6128817D01*
X3131638Y6110475D01*
X3143724Y6094724D01*
X3159475Y6082638D01*
X3177816Y6075041D01*
X3197500Y6072449D01*
X3239800D01*
Y6135800D01*
D02*
G37*
G36*
X2950887D02*
X2847200D01*
Y6072113D01*
X2899500D01*
X2919165Y6076024D01*
X2935836Y6087164D01*
X2946976Y6103835D01*
X2950887Y6123500D01*
Y6135800D01*
D02*
G37*
G36*
X2821800D02*
X2718113D01*
Y6123500D01*
X2722025Y6103835D01*
X2733164Y6087164D01*
X2749835Y6076024D01*
X2769500Y6072113D01*
X2821800D01*
Y6135800D01*
D02*
G37*
G36*
X6749800Y6073734D02*
X6746660D01*
X6730054Y6070431D01*
X6715976Y6061024D01*
X6706570Y6046946D01*
X6703266Y6030340D01*
Y6025200D01*
X6749800D01*
Y6073734D01*
D02*
G37*
G36*
X7879291Y6044822D02*
X7832757D01*
Y5996288D01*
X7835897D01*
X7852503Y5999592D01*
X7866581Y6008998D01*
X7875987Y6023076D01*
X7879291Y6039682D01*
Y6044822D01*
D02*
G37*
G36*
X4479290Y6078066D02*
X4376790D01*
X4363528Y6075428D01*
X4352285Y6067915D01*
X4344772Y6056672D01*
X4342134Y6043410D01*
Y6005910D01*
X4344772Y5992648D01*
X4352285Y5981405D01*
X4363528Y5973892D01*
X4376790Y5971254D01*
X4399192D01*
Y5947762D01*
X4384513Y5935535D01*
X4374024Y5936024D01*
X4359946Y5945431D01*
X4343340Y5948734D01*
X4340200D01*
Y5887500D01*
Y5826266D01*
X4343340D01*
X4359946Y5829569D01*
X4374024Y5838976D01*
X4392943Y5839859D01*
X4394018Y5839140D01*
X4406660Y5836625D01*
X4438340D01*
X4450982Y5839140D01*
X4461699Y5846301D01*
X4468860Y5857018D01*
X4471375Y5869660D01*
Y5905340D01*
X4468860Y5917982D01*
X4461699Y5928699D01*
X4450982Y5935860D01*
X4445808Y5936889D01*
Y5971254D01*
X4479290D01*
X4492552Y5973892D01*
X4502485Y5980529D01*
X4510539Y5983418D01*
X4517495Y5985496D01*
X4521621Y5982739D01*
X4527851Y5978577D01*
X4540065Y5976147D01*
X4714935D01*
X4727150Y5978577D01*
X4737505Y5985496D01*
X4744424Y5995851D01*
X4746854Y6008065D01*
Y6038935D01*
X4744424Y6051150D01*
X4737505Y6061505D01*
X4727150Y6068424D01*
X4714935Y6070853D01*
X4540065D01*
X4527851Y6068424D01*
X4517496Y6061505D01*
X4503907Y6067863D01*
X4503557Y6068075D01*
X4492552Y6075428D01*
X4479290Y6078066D01*
D02*
G37*
G36*
X4060400Y5960400D02*
X4007700D01*
Y5907700D01*
X4060400D01*
Y5960400D01*
D02*
G37*
G36*
X3982300D02*
X3929600D01*
Y5907700D01*
X3982300D01*
Y5960400D01*
D02*
G37*
G36*
X4314800Y5948734D02*
X4311660D01*
X4295054Y5945431D01*
X4280976Y5936024D01*
X4271570Y5921946D01*
X4268266Y5905340D01*
Y5900200D01*
X4314800D01*
Y5948734D01*
D02*
G37*
G36*
X4714935Y5943853D02*
X4540065D01*
X4527851Y5941424D01*
X4517496Y5934505D01*
X4510577Y5924150D01*
X4508147Y5911935D01*
Y5881065D01*
X4510577Y5868851D01*
X4517496Y5858496D01*
X4527851Y5851577D01*
X4540065Y5849147D01*
X4714935D01*
X4727150Y5851577D01*
X4737505Y5858496D01*
X4744424Y5868851D01*
X4746854Y5881065D01*
Y5911935D01*
X4744424Y5924150D01*
X4737505Y5934505D01*
X4727150Y5941424D01*
X4714935Y5943853D01*
D02*
G37*
G36*
X4060400Y5882300D02*
X4007700D01*
Y5829600D01*
X4060400D01*
Y5882300D01*
D02*
G37*
G36*
X3982300D02*
X3929600D01*
Y5829600D01*
X3982300D01*
Y5882300D01*
D02*
G37*
G36*
X4314800Y5874800D02*
X4268266D01*
Y5869660D01*
X4271570Y5853054D01*
X4280976Y5838976D01*
X4295054Y5829569D01*
X4311660Y5826266D01*
X4314800D01*
Y5874800D01*
D02*
G37*
G36*
X3273800Y5860153D02*
X3270550D01*
X3255547Y5857169D01*
X3242829Y5848671D01*
X3234331Y5835953D01*
X3231347Y5820950D01*
Y5817701D01*
X3273800D01*
Y5860153D01*
D02*
G37*
G36*
X4714935Y5827212D02*
X4640200D01*
Y5782200D01*
X4757212D01*
Y5784935D01*
X4753994Y5801114D01*
X4744830Y5814830D01*
X4731114Y5823994D01*
X4714935Y5827212D01*
D02*
G37*
G36*
X4614800D02*
X4540065D01*
X4523887Y5823994D01*
X4510171Y5814830D01*
X4501006Y5801114D01*
X4497788Y5784935D01*
Y5782200D01*
X4614800D01*
Y5827212D01*
D02*
G37*
G36*
X3273800Y5792301D02*
X3231347D01*
Y5789050D01*
X3234331Y5774048D01*
X3242829Y5761329D01*
X3255547Y5752831D01*
X3270550Y5749847D01*
X3273800D01*
Y5792301D01*
D02*
G37*
G36*
X3020720Y5791394D02*
X3017580D01*
Y5742860D01*
X3064114D01*
Y5748000D01*
X3060811Y5764606D01*
X3051404Y5778684D01*
X3037326Y5788090D01*
X3020720Y5791394D01*
D02*
G37*
G36*
X4757212Y5756800D02*
X4640200D01*
Y5711788D01*
X4714935D01*
X4731114Y5715006D01*
X4744830Y5724171D01*
X4753994Y5737887D01*
X4757212Y5754065D01*
Y5756800D01*
D02*
G37*
G36*
X4614800D02*
X4497788D01*
Y5754065D01*
X4501006Y5737887D01*
X4510171Y5724171D01*
X4523887Y5715006D01*
X4540065Y5711788D01*
X4614800D01*
Y5756800D01*
D02*
G37*
G36*
X3411500Y5744872D02*
X3400925D01*
X3381562Y5741021D01*
X3365147Y5730053D01*
X3354179Y5713638D01*
X3350328Y5694275D01*
Y5680200D01*
X3411500D01*
Y5744872D01*
D02*
G37*
G36*
Y5654800D02*
X3350328D01*
Y5640725D01*
X3354179Y5621363D01*
X3365147Y5604948D01*
X3381562Y5593979D01*
X3400925Y5590128D01*
X3411500D01*
Y5654800D01*
D02*
G37*
G36*
X6789800Y5546234D02*
X6786660D01*
X6770054Y5542930D01*
X6755976Y5533524D01*
X6746569Y5519446D01*
X6743266Y5502840D01*
Y5497700D01*
X6789800D01*
Y5546234D01*
D02*
G37*
G36*
X2892100Y5504100D02*
X2845566D01*
Y5498960D01*
X2848870Y5482354D01*
X2858276Y5468276D01*
X2872354Y5458869D01*
X2888960Y5455566D01*
X2892100D01*
Y5504100D01*
D02*
G37*
G36*
X6789800Y5472300D02*
X6743266D01*
Y5467160D01*
X6746569Y5450554D01*
X6755976Y5436476D01*
X6770054Y5427069D01*
X6786660Y5423766D01*
X6789800D01*
Y5472300D01*
D02*
G37*
G36*
X7814234Y5427300D02*
X7767700D01*
Y5378766D01*
X7770840D01*
X7787446Y5382069D01*
X7801524Y5391476D01*
X7810931Y5405554D01*
X7814234Y5422160D01*
Y5427300D01*
D02*
G37*
G36*
X8215400Y5297300D02*
X8162700D01*
Y5244600D01*
X8215400D01*
Y5297300D01*
D02*
G37*
G36*
X8137300D02*
X8084600D01*
Y5244600D01*
X8137300D01*
Y5297300D01*
D02*
G37*
G36*
X7127300Y5238734D02*
X7124160D01*
X7107554Y5235430D01*
X7093476Y5226024D01*
X7084069Y5211946D01*
X7080766Y5195340D01*
Y5190200D01*
X7127300D01*
Y5238734D01*
D02*
G37*
G36*
X5954899Y5312740D02*
X5779419D01*
Y5182261D01*
X5954899D01*
Y5312740D01*
D02*
G37*
G36*
X7994800Y5149800D02*
X7945085D01*
X7937229Y5143873D01*
X7931626Y5142145D01*
X7927429Y5144949D01*
X7911732Y5148072D01*
X7832713D01*
X7817016Y5144949D01*
X7803708Y5136058D01*
X7794817Y5122750D01*
X7791694Y5107054D01*
Y5038034D01*
X7794817Y5022337D01*
X7803708Y5009029D01*
X7817016Y5000138D01*
X7832713Y4997015D01*
X7911732D01*
X7927429Y5000138D01*
X7940737Y5009029D01*
X7949628Y5022337D01*
X7952751Y5038034D01*
Y5101807D01*
X7963846Y5109369D01*
X7967670Y5110167D01*
X7973054Y5106570D01*
X7989660Y5103266D01*
X7994800D01*
Y5149800D01*
D02*
G37*
G36*
X7127300Y5164800D02*
X7080766D01*
Y5159660D01*
X7084069Y5143054D01*
X7093476Y5128976D01*
X7107554Y5119569D01*
X7124160Y5116266D01*
X7127300D01*
Y5164800D01*
D02*
G37*
G36*
X8068734Y5149800D02*
X8020200D01*
Y5103266D01*
X8025340D01*
X8041946Y5106570D01*
X8056025Y5115976D01*
X8065431Y5130054D01*
X8068734Y5146660D01*
Y5149800D01*
D02*
G37*
G36*
X5965059Y5152900D02*
X5879859D01*
Y5090201D01*
X5965059D01*
Y5152900D01*
D02*
G37*
G36*
X5854459D02*
X5769259D01*
Y5090201D01*
X5854459D01*
Y5152900D01*
D02*
G37*
G36*
X4787900Y5114800D02*
X4757701D01*
Y5072100D01*
X4787900D01*
Y5114800D01*
D02*
G37*
G36*
X4945200Y5177900D02*
Y5122500D01*
Y5067100D01*
X4975400D01*
Y5099192D01*
X5005000D01*
X5013919Y5100966D01*
X5021481Y5106019D01*
X5026534Y5113581D01*
X5028308Y5122500D01*
X5026534Y5131420D01*
X5021481Y5138981D01*
X5013919Y5144034D01*
X5005000Y5145808D01*
X4975400D01*
Y5177900D01*
X4945200D01*
D02*
G37*
G36*
X5164800Y5107300D02*
X5134600D01*
Y5064600D01*
X5164800D01*
Y5107300D01*
D02*
G37*
G36*
X6469899Y5142740D02*
X6294419D01*
Y5012260D01*
X6469899D01*
Y5142740D01*
D02*
G37*
G36*
X5965059Y5064801D02*
X5879859D01*
Y5002100D01*
X5965059D01*
Y5064801D01*
D02*
G37*
G36*
X5854459D02*
X5769259D01*
Y5002100D01*
X5854459D01*
Y5064801D01*
D02*
G37*
G36*
X7496234Y5004800D02*
X7447700D01*
Y4958266D01*
X7452840D01*
X7469446Y4961569D01*
X7483524Y4970976D01*
X7492931Y4985054D01*
X7496234Y5001660D01*
Y5004800D01*
D02*
G37*
G36*
X7422300D02*
X7373766D01*
Y5001660D01*
X7377070Y4985054D01*
X7386476Y4970976D01*
X7400554Y4961569D01*
X7417160Y4958266D01*
X7422300D01*
Y5004800D01*
D02*
G37*
G36*
X7738362Y4996177D02*
X7735223D01*
Y4947644D01*
X7781756D01*
Y4952784D01*
X7778453Y4969390D01*
X7769047Y4983468D01*
X7754968Y4992874D01*
X7738362Y4996177D01*
D02*
G37*
G36*
X5853639Y4974814D02*
X5850499D01*
X5833893Y4971511D01*
X5819815Y4962105D01*
X5810408Y4948026D01*
X5807105Y4931420D01*
Y4926280D01*
X5853639D01*
Y4974814D01*
D02*
G37*
G36*
X7781756Y4922244D02*
X7735223D01*
Y4873710D01*
X7738362D01*
X7754968Y4877013D01*
X7769047Y4886419D01*
X7778453Y4900498D01*
X7781756Y4917104D01*
Y4922244D01*
D02*
G37*
G36*
X5853639Y4900880D02*
X5807105D01*
Y4895741D01*
X5810408Y4879135D01*
X5819815Y4865056D01*
X5833893Y4855650D01*
X5850499Y4852347D01*
X5853639D01*
Y4900880D01*
D02*
G37*
G36*
X7129800Y4898734D02*
X7126660D01*
X7110054Y4895431D01*
X7095976Y4886024D01*
X7086569Y4871946D01*
X7083266Y4855340D01*
Y4850200D01*
X7129800D01*
Y4898734D01*
D02*
G37*
G36*
Y4824800D02*
X7083266D01*
Y4819660D01*
X7086569Y4803054D01*
X7095976Y4788976D01*
X7110054Y4779570D01*
X7126660Y4776266D01*
X7129800D01*
Y4824800D01*
D02*
G37*
G36*
X5171240Y4957740D02*
X5064761D01*
Y4687260D01*
X5171240D01*
Y4957740D01*
D02*
G37*
G36*
X5044240D02*
X4937761D01*
Y4687260D01*
X5044240D01*
Y4957740D01*
D02*
G37*
G36*
X5054400Y4577900D02*
X5053729Y4577900D01*
X5003700D01*
Y4432500D01*
Y4287100D01*
X5054401Y4287099D01*
X5065432Y4297259D01*
X5069641Y4297260D01*
X5171240D01*
Y4567740D01*
X5069641D01*
X5065432Y4567740D01*
X5054400Y4577900D01*
D02*
G37*
G36*
X4927601D02*
X4912360Y4577900D01*
X4876700D01*
Y4432500D01*
Y4287100D01*
X4912360D01*
X4927400Y4287099D01*
X4942641Y4287100D01*
X4978300D01*
Y4432500D01*
Y4577900D01*
X4942641D01*
X4927601Y4577900D01*
D02*
G37*
G36*
X8748737Y4725240D02*
X8711263D01*
X8674509Y4717929D01*
X8639888Y4703589D01*
X8608729Y4682769D01*
X8582231Y4656271D01*
X8561412Y4625112D01*
X8547071Y4590491D01*
X8539760Y4553737D01*
Y4516263D01*
X8547071Y4479509D01*
X8561412Y4444888D01*
X8582231Y4413729D01*
X8608729Y4387231D01*
X8639888Y4366412D01*
X8674509Y4352071D01*
X8711263Y4344760D01*
X8748737D01*
X8785491Y4352071D01*
X8820112Y4366412D01*
X8851271Y4387231D01*
X8877769Y4413729D01*
X8898589Y4444888D01*
X8912929Y4479509D01*
X8920240Y4516263D01*
Y4553737D01*
X8912929Y4590491D01*
X8898589Y4625112D01*
X8877769Y4656271D01*
X8851271Y4682769D01*
X8820112Y4703589D01*
X8785491Y4717929D01*
X8748737Y4725240D01*
D02*
G37*
G36*
X2961237D02*
X2923763D01*
X2887009Y4717929D01*
X2852388Y4703589D01*
X2821229Y4682769D01*
X2794731Y4656271D01*
X2773912Y4625112D01*
X2759571Y4590491D01*
X2752260Y4553737D01*
Y4516263D01*
X2759571Y4479509D01*
X2773912Y4444888D01*
X2794731Y4413729D01*
X2821229Y4387231D01*
X2852388Y4366412D01*
X2887009Y4352071D01*
X2923763Y4344760D01*
X2961237D01*
X2997991Y4352071D01*
X3032612Y4366412D01*
X3063771Y4387231D01*
X3090269Y4413729D01*
X3111089Y4444888D01*
X3125429Y4479509D01*
X3132740Y4516263D01*
Y4553737D01*
X3125429Y4590491D01*
X3111089Y4625112D01*
X3090269Y4656271D01*
X3063771Y4682769D01*
X3032612Y4703589D01*
X2997991Y4717929D01*
X2961237Y4725240D01*
D02*
G37*
G36*
X5298240Y4567740D02*
X5191761D01*
Y4297260D01*
X5298240D01*
Y4567740D01*
D02*
G37*
G36*
X4050240Y5790240D02*
X3939760D01*
Y5679760D01*
X3969111D01*
Y5657950D01*
X3966750Y5657481D01*
X3956721Y5650779D01*
X3950019Y5640750D01*
X3947666Y5628920D01*
Y5601080D01*
X3950019Y5589250D01*
X3956721Y5579220D01*
X3961631Y5575940D01*
X3962409Y5573064D01*
X3961852Y5559590D01*
X3961631Y5559006D01*
X3956154Y5555346D01*
X3949901Y5545988D01*
X3947706Y5534950D01*
Y5503050D01*
X3949901Y5492012D01*
X3956154Y5482654D01*
X3965512Y5476402D01*
X3976550Y5474206D01*
X4008450D01*
X4019488Y5476402D01*
X4028846Y5482654D01*
X4032009Y5487389D01*
X4036563Y5488784D01*
X4046659Y5489412D01*
X4049820Y5488701D01*
X4059374Y5479148D01*
X4061611Y5478221D01*
Y4895000D01*
X4063391Y4886049D01*
X4068461Y4878461D01*
X4523461Y4423461D01*
X4531049Y4418391D01*
X4540000Y4416611D01*
X4683761D01*
Y4297260D01*
X4785360D01*
X4789569Y4297259D01*
X4800601Y4287099D01*
X4801272Y4287100D01*
X4851300D01*
Y4432500D01*
Y4577900D01*
X4800600Y4577900D01*
X4789569Y4567740D01*
X4785360Y4567740D01*
X4683761D01*
Y4463389D01*
X4549688D01*
X4108389Y4904688D01*
Y5478221D01*
X4110626Y5479148D01*
X4123352Y5491874D01*
X4130240Y5508501D01*
Y5526499D01*
X4123352Y5543126D01*
X4110626Y5555852D01*
X4093999Y5562740D01*
X4076001D01*
X4059374Y5555852D01*
X4050450Y5546929D01*
X4045046Y5546598D01*
X4035851Y5547962D01*
X4032895Y5549286D01*
X4028846Y5555346D01*
X4023369Y5559006D01*
X4023148Y5559590D01*
X4022591Y5573064D01*
X4023369Y5575940D01*
X4028279Y5579220D01*
X4034981Y5589250D01*
X4037334Y5601080D01*
Y5628920D01*
X4034981Y5640750D01*
X4028279Y5650779D01*
X4018250Y5657481D01*
X4015889Y5657950D01*
Y5679760D01*
X4050240D01*
Y5790240D01*
D02*
G37*
G36*
X6746805Y9752740D02*
X6711196D01*
X6676800Y9743524D01*
X6645961Y9725719D01*
X6620781Y9700539D01*
X6602977Y9669700D01*
X6593760Y9635305D01*
Y9599695D01*
X6602977Y9565299D01*
X6620781Y9534461D01*
X6645961Y9509281D01*
X6676800Y9491476D01*
X6711196Y9482260D01*
X6746805D01*
X6781201Y9491476D01*
X6812039Y9509281D01*
X6837219Y9534461D01*
X6855024Y9565299D01*
X6864240Y9599695D01*
Y9635305D01*
X6855024Y9669700D01*
X6837219Y9700539D01*
X6812039Y9725719D01*
X6781201Y9743524D01*
X6746805Y9752740D01*
D02*
G37*
%LPD*%
D10*
X6986000Y4315000D02*
G03*
X7240000Y4569000I0J254000D01*
G01*
X6927500Y4315000D02*
X6986000D01*
X7240000Y4569000D02*
Y4620000D01*
X7238750Y4717250D02*
X7240000Y4716000D01*
X7237500Y4837500D02*
X7238750Y4836250D01*
Y4717250D02*
Y4836250D01*
X7237500Y4837500D02*
Y4957500D01*
D11*
X3468980Y5412140D02*
D03*
Y5477140D02*
D03*
Y5542140D02*
D03*
X3272980D02*
D03*
Y5477140D02*
D03*
Y5412140D02*
D03*
D12*
X3370980Y5477140D02*
D03*
D13*
X8150000Y5310000D02*
D03*
X8310000D02*
D03*
D14*
X3995000Y5895000D02*
D03*
Y5735000D02*
D03*
D15*
X7478497Y6011382D02*
D03*
X7438497D02*
D03*
X7398497D02*
D03*
X7358497D02*
D03*
X7318497D02*
D03*
X7278497D02*
D03*
X7238497D02*
D03*
X7198497D02*
D03*
X7158497D02*
D03*
X7118497D02*
D03*
Y5531382D02*
D03*
X7158497D02*
D03*
X7198497D02*
D03*
X7238497D02*
D03*
X7278497D02*
D03*
X7318497D02*
D03*
X7358497D02*
D03*
X7398497D02*
D03*
X7438497D02*
D03*
X7478497D02*
D03*
D16*
X7058497Y5951382D02*
D03*
Y5911382D02*
D03*
Y5871382D02*
D03*
Y5831382D02*
D03*
Y5791382D02*
D03*
Y5751382D02*
D03*
Y5711382D02*
D03*
Y5671382D02*
D03*
Y5631382D02*
D03*
Y5591382D02*
D03*
X7538497D02*
D03*
Y5631382D02*
D03*
Y5671382D02*
D03*
Y5711382D02*
D03*
Y5751382D02*
D03*
Y5791382D02*
D03*
Y5831382D02*
D03*
Y5871382D02*
D03*
Y5911382D02*
D03*
Y5951382D02*
D03*
D17*
X7298497Y5771382D02*
D03*
D18*
X3011000Y5625000D02*
D03*
X2919000D02*
D03*
X7484999Y7287500D02*
D03*
Y7190000D02*
D03*
X5605000Y9120000D02*
D03*
X5605000Y9025000D02*
D03*
X5457500Y8427500D02*
D03*
X5555000Y8517500D02*
D03*
X5292500Y9075000D02*
D03*
X4050000Y7527500D02*
D03*
X4582500Y5295000D02*
D03*
X4387500Y8430000D02*
D03*
X4960001Y5294999D02*
D03*
X6107679Y4913580D02*
D03*
X4400000Y7527500D02*
D03*
X3576940Y5806060D02*
D03*
X3382500Y5805000D02*
D03*
X3457500Y6762500D02*
D03*
X3465800Y6400000D02*
D03*
X8307500Y5420000D02*
D03*
D19*
X4028500Y6692500D02*
D03*
Y6597500D02*
D03*
Y6502500D02*
D03*
X3777500D02*
D03*
Y6597500D02*
D03*
Y6692500D02*
D03*
D20*
X2987500Y8955000D02*
D03*
Y7805000D02*
D03*
D21*
X3407500Y8630000D02*
D03*
Y8380000D02*
D03*
Y8130000D02*
D03*
D22*
X4837500Y9495000D02*
D03*
X5087500D02*
D03*
D23*
X4512500Y9915000D02*
D03*
X5412500D02*
D03*
D24*
X7579537Y6245482D02*
D03*
X7434536D02*
D03*
D25*
X4428040Y6024660D02*
D03*
Y6169661D02*
D03*
D26*
X3310000Y6900500D02*
D03*
Y6260500D02*
D03*
Y6820500D02*
D03*
Y6340500D02*
D03*
D27*
Y6555500D02*
D03*
Y6605500D02*
D03*
Y6505500D02*
D03*
Y6455500D02*
D03*
Y6405500D02*
D03*
Y6655500D02*
D03*
Y6705500D02*
D03*
Y6755500D02*
D03*
D28*
X5242500Y5120000D02*
D03*
X5177500D02*
D03*
X4867500Y5122500D02*
D03*
X4932500D02*
D03*
X4680000Y5127500D02*
D03*
X4745000D02*
D03*
D29*
X6654500Y8677500D02*
D03*
D30*
X6941500D02*
D03*
D31*
X7388999Y7287500D02*
D03*
Y7190000D02*
D03*
X5509000Y9120000D02*
D03*
X5509001Y9025000D02*
D03*
X5553500Y8427500D02*
D03*
X5459000Y8517500D02*
D03*
X5196500Y9075000D02*
D03*
X4146000Y7527500D02*
D03*
X4678500Y5295000D02*
D03*
X4291500Y8430000D02*
D03*
X4864001Y5294999D02*
D03*
X6203679Y4913580D02*
D03*
X4304000Y7527500D02*
D03*
X3480940Y5806060D02*
D03*
X3286500Y5805000D02*
D03*
X3553500Y6762500D02*
D03*
X3561800Y6400000D02*
D03*
X8211500Y5420000D02*
D03*
D32*
X5400000Y9121000D02*
D03*
X5147221Y8659179D02*
D03*
X5055781Y8753719D02*
D03*
X5695000Y5379000D02*
D03*
X5285000Y5674000D02*
D03*
Y5993500D02*
D03*
X5410000Y5114000D02*
D03*
X3992500Y5519000D02*
D03*
X8165000Y5703500D02*
D03*
X8045116Y5807262D02*
D03*
X7237500Y5053500D02*
D03*
X7240000Y4716000D02*
D03*
D33*
X5400000Y9025000D02*
D03*
X5147221Y8755179D02*
D03*
X5055781Y8657719D02*
D03*
X5695000Y5475000D02*
D03*
X5285000Y5770000D02*
D03*
Y5897500D02*
D03*
X5410000Y5210000D02*
D03*
X3992500Y5615000D02*
D03*
X8165000Y5607500D02*
D03*
X8045116Y5711262D02*
D03*
X7237500Y4957500D02*
D03*
X7240000Y4620000D02*
D03*
D34*
X3712500Y5521500D02*
D03*
Y5308500D02*
D03*
D35*
X7558281Y8701341D02*
D03*
X7150280D02*
D03*
X7559000Y9080000D02*
D03*
X7151000D02*
D03*
D36*
X3152500Y5374200D02*
D03*
Y5521200D02*
D03*
D37*
X3424200Y5667500D02*
D03*
X3571200D02*
D03*
D38*
X8007500Y5257500D02*
D03*
Y5162500D02*
D03*
X7555222Y6523043D02*
D03*
Y6428043D02*
D03*
X7446002Y6525583D02*
D03*
Y6430583D02*
D03*
X7435000Y5112500D02*
D03*
Y5017500D02*
D03*
X8045000Y5590000D02*
D03*
Y5495000D02*
D03*
X6956657Y6307182D02*
D03*
Y6212182D02*
D03*
X6852517Y6307942D02*
D03*
Y6212942D02*
D03*
X4005000Y8132500D02*
D03*
Y8227500D02*
D03*
D39*
X7837596Y5710462D02*
D03*
X7932597D02*
D03*
X7837596Y5812062D02*
D03*
X7932597D02*
D03*
X7627522Y4934944D02*
D03*
X7722523D02*
D03*
X7820057Y6057522D02*
D03*
X7725057D02*
D03*
X7755000Y5440000D02*
D03*
X7660000D02*
D03*
X7820497Y6163262D02*
D03*
X7725497D02*
D03*
X7140000Y5177500D02*
D03*
X7235000D02*
D03*
X7142500Y4837500D02*
D03*
X7237500D02*
D03*
X6802500Y5485000D02*
D03*
X6897500D02*
D03*
X5222500Y8265000D02*
D03*
X5127500D02*
D03*
X5687500Y8657500D02*
D03*
X5592500D02*
D03*
X5750000Y8290000D02*
D03*
X5845000D02*
D03*
X6762500Y6012500D02*
D03*
X6857500D02*
D03*
X6680000Y5712500D02*
D03*
X6775000D02*
D03*
X5030780Y6285120D02*
D03*
X5125780D02*
D03*
X4330000Y6287500D02*
D03*
X4425000D02*
D03*
X4327500Y5887500D02*
D03*
X4422500D02*
D03*
X5961339Y4913580D02*
D03*
X5866339D02*
D03*
X3004880Y5730160D02*
D03*
X2909880D02*
D03*
X2904800Y5516800D02*
D03*
X2999800D02*
D03*
X3482500Y5905000D02*
D03*
X3577500D02*
D03*
D40*
X5722500Y8825000D02*
D03*
X4585000Y5425000D02*
D03*
X5105000Y5330000D02*
D03*
D41*
X5147500Y8120000D02*
D03*
X5430000Y7537500D02*
D03*
X5150000Y7947500D02*
D03*
X5637500Y7532500D02*
D03*
X5842500Y7535000D02*
D03*
X4145000Y7372500D02*
D03*
X4102500Y8430000D02*
D03*
X4852500Y5600000D02*
D03*
X5112500D02*
D03*
X4540000Y7365000D02*
D03*
X4580000Y8425000D02*
D03*
D42*
X7630222Y5254544D02*
D03*
X7872223D02*
D03*
Y5072544D02*
D03*
X7630222D02*
D03*
D43*
X4991000Y4822500D02*
D03*
Y4432500D02*
D03*
X5118000Y4822500D02*
D03*
X5245000D02*
D03*
X5118000Y4432500D02*
D03*
X5245000D02*
D03*
X4864000Y4822500D02*
D03*
X4737000D02*
D03*
Y4432500D02*
D03*
X4864000D02*
D03*
D44*
X5464880Y8658320D02*
D03*
X5399880D02*
D03*
X5334880D02*
D03*
X5269880D02*
D03*
Y8883320D02*
D03*
X5334880D02*
D03*
X5399880D02*
D03*
X5464880D02*
D03*
D45*
X4247500Y8607500D02*
D03*
X4447500D02*
D03*
X4347500Y8807500D02*
D03*
D46*
X8100000Y7497500D02*
D03*
Y7297500D02*
D03*
X8300000Y7397500D02*
D03*
D47*
X7625839Y7385240D02*
D03*
Y7290240D02*
D03*
Y7195240D02*
D03*
X7856839D02*
D03*
Y7290240D02*
D03*
Y7385240D02*
D03*
D48*
X5867159Y5077500D02*
D03*
Y5247501D02*
D03*
X6382159Y5077500D02*
D03*
Y5247501D02*
D03*
D49*
X4627500Y6150500D02*
D03*
Y6023500D02*
D03*
Y5896500D02*
D03*
Y5769500D02*
D03*
X5112500D02*
D03*
Y5896500D02*
D03*
Y6023500D02*
D03*
Y6150500D02*
D03*
D50*
X4147000Y7702500D02*
D03*
X4274000D02*
D03*
X4401000D02*
D03*
X4528000D02*
D03*
Y8187500D02*
D03*
X4401000D02*
D03*
X4274000D02*
D03*
X4147000D02*
D03*
D51*
X5360500Y8160000D02*
D03*
Y8033000D02*
D03*
Y7906000D02*
D03*
Y7779000D02*
D03*
X5842500D02*
D03*
Y7906000D02*
D03*
Y8033000D02*
D03*
Y8160000D02*
D03*
D52*
X6607500Y4267500D02*
D03*
D53*
X6927500Y4315000D02*
D03*
Y4220000D02*
D03*
D54*
X6660231Y5922269D02*
X6972731D01*
X6640148Y5873782D02*
X6961662D01*
X4131632Y6573256D02*
X5940673D01*
X5960757Y6621743D02*
X6660231Y5922269D01*
X4131632Y6621743D02*
X5960757D01*
X5940673Y6573256D02*
X6640148Y5873782D01*
X4028500Y6692500D02*
X4059500D01*
X4095516Y6656484D01*
X4096892D02*
X4131632Y6621743D01*
X4095516Y6656484D02*
X4096892D01*
X4028500Y6502500D02*
X4059500D01*
X4096892Y6538516D02*
X4131632Y6573256D01*
X4095516Y6538516D02*
X4096892D01*
X4059500Y6502500D02*
X4095516Y6538516D01*
X3413390Y6606257D02*
X3472011D01*
X3354770D02*
X3413390D01*
X3310756Y6506256D02*
X3374952D01*
X3413390Y6544695D01*
Y6606257D01*
X3310000Y6505500D02*
X3310756Y6506256D01*
X3309244Y6556256D02*
X3310000Y6555500D01*
X3245048Y6556256D02*
X3309244D01*
X3220000Y6581304D02*
X3245048Y6556256D01*
X3220000Y6581304D02*
Y6629696D01*
X3245048Y6654744D02*
X3309244D01*
X3310000Y6655500D01*
X3220000Y6629696D02*
X3245048Y6654744D01*
X3710484Y6656484D02*
X3746500Y6692500D01*
X3777500D01*
X3310756Y6606256D02*
X3354769D01*
X3354770Y6606257D01*
X3710484Y6538516D02*
X3746500Y6502500D01*
X3310000Y6655500D02*
X3310756Y6654744D01*
X3525095Y6621743D02*
X3674368D01*
X3709108Y6656484D01*
X3710484D01*
X3310000Y6605500D02*
X3310756Y6606256D01*
X3746500Y6502500D02*
X3777500D01*
X3310756Y6654744D02*
X3492095D01*
X3709108Y6538516D02*
X3710484D01*
X3505011Y6573256D02*
X3674368D01*
X3492095Y6654744D02*
X3525095Y6621743D01*
X3674368Y6573256D02*
X3709108Y6538516D01*
X3472011Y6606257D02*
X3505011Y6573256D01*
D55*
X6972731Y5922269D02*
X6986018Y5908982D01*
X7022298D01*
X7024698Y5911382D01*
X7058497D01*
X6961662Y5873782D02*
X7022298D01*
X7024698Y5871382D01*
X7058497D01*
D56*
X6237500Y6552500D02*
X6547827D01*
X5430000Y7360000D02*
X6237500Y6552500D01*
X6983618Y6011382D02*
X7118497D01*
X6852500Y6142500D02*
X6983618Y6011382D01*
X6852500Y6142500D02*
Y6212925D01*
X6547827Y6552500D02*
X6680907Y6419420D01*
X5403618Y5831382D02*
X7058497D01*
X5337500Y5897500D02*
X5403618Y5831382D01*
X6996118Y5951382D02*
X7058497D01*
X6935000Y6012500D02*
X6996118Y5951382D01*
X8048998Y5707381D02*
X8161119D01*
X8165000Y5703500D01*
X8045116Y5711262D02*
X8048998Y5707381D01*
X7930048Y5707914D02*
X7932597Y5710462D01*
Y5812062D01*
X8053750Y5598750D02*
X8156250D01*
X8165000Y5607500D01*
X8045000Y5590000D02*
X8053750Y5598750D01*
X7538497Y5871382D02*
X7921072D01*
X7930000Y5814659D02*
Y5862455D01*
X7921072Y5871382D02*
X7930000Y5862455D01*
Y5814659D02*
X7932597Y5812062D01*
X4425000Y6172701D02*
X4428040Y6169661D01*
X4425000Y6172701D02*
Y6287500D01*
X4437620Y6160080D02*
X4617920D01*
X4428040Y6169661D02*
X4437620Y6160080D01*
X4617920D02*
X4627500Y6150500D01*
X4428620Y6024080D02*
X4626920D01*
X4428040Y6024660D02*
X4428620Y6024080D01*
X4626920D02*
X4627500Y6023500D01*
X4422500Y6019120D02*
X4428040Y6024660D01*
X4422500Y5887500D02*
Y6019120D01*
X7927500Y5510000D02*
X7930048Y5512548D01*
Y5587500D01*
X7538497Y5631382D02*
X7686363D01*
X7719980Y5665000D01*
X7718647Y5737078D02*
Y5768647D01*
X7652952Y5671382D02*
X7718647Y5737078D01*
Y5768647D02*
X7725000Y5775000D01*
X7719980Y5665000D02*
X7719981D01*
X7538497Y5671382D02*
X7652952D01*
X7719980Y5665000D02*
X7719981Y5665000D01*
Y5665000D02*
X7723240Y5661740D01*
X4932500Y5122500D02*
X5005000D01*
X4932500Y5122500D02*
X4932500Y5122500D01*
X5177500Y5192632D02*
X5177500Y5192632D01*
X4746250Y5191382D02*
X4747500Y5192632D01*
X4746250Y5128750D02*
Y5191382D01*
X5177500Y5120000D02*
Y5192632D01*
X4745000Y5127500D02*
X4746250Y5128750D01*
X7242500Y6380940D02*
Y7232500D01*
X7189640Y6359045D02*
Y6360360D01*
Y6359045D02*
X7220605Y6328080D01*
X7358497Y6011382D02*
Y6191503D01*
X7220605Y6328080D02*
X7221921D01*
X7358497Y6191503D01*
X6760000Y6790000D02*
X7189640Y6360360D01*
X6410000Y6790000D02*
X6760000D01*
X7242500Y7232500D02*
X7290479Y7280479D01*
X7171305Y6148695D02*
X7238497Y6081503D01*
Y6011382D02*
Y6081503D01*
X6389660Y5240000D02*
X6545000D01*
X6382159Y5247501D02*
X6389660Y5240000D01*
X6962500Y5740000D02*
X6974612D01*
X6985994Y5751382D01*
X5400360Y5792860D02*
X6984395D01*
X6985873Y5791382D01*
X6985994Y5751382D02*
X7058497D01*
X5377500Y5770000D02*
X5400360Y5792860D01*
X6985873Y5791382D02*
X7058497D01*
X7438497Y5474004D02*
X7555000Y5357500D01*
X7700000D02*
X7761800Y5295701D01*
X7555000Y5357500D02*
X7700000D01*
X7438497Y5474004D02*
Y5531382D01*
X7398497Y5464167D02*
Y5531382D01*
Y5464167D02*
X7515000Y5347664D01*
Y5187766D02*
Y5347664D01*
X3553500Y6762500D02*
X3650000D01*
X3561800Y6400000D02*
X3562150Y6400350D01*
Y6497150D01*
X3562500Y6497500D01*
X6857500Y6012500D02*
X6935000D01*
X7837596Y5710462D02*
Y5812062D01*
X7837548Y5607548D02*
Y5710414D01*
X7837596Y5710462D01*
X7837500Y5607500D02*
X7837548Y5607548D01*
X6380999Y5248660D02*
X6382159Y5247501D01*
X6977916Y6419420D02*
X7278497Y6118840D01*
X5285000Y5770000D02*
X5377500D01*
X5285000Y5897500D02*
X5337500D01*
X5284750Y5769750D02*
X5285000Y5770000D01*
X4585000Y5425000D02*
X5392500D01*
X5598882Y5631382D02*
X7058497D01*
X5392500Y5425000D02*
X5598882Y5631382D01*
X5357500Y5330000D02*
X5618882Y5591382D01*
X7058497D01*
X5105000Y5330000D02*
X5357500D01*
X5410000Y5305000D02*
X5480000Y5375000D01*
X5410000Y5210000D02*
Y5305000D01*
X5480000Y5375000D02*
X6008928D01*
X5078809Y5303809D02*
X5105000Y5330000D01*
X3500000Y5561366D02*
Y5735000D01*
X3480940Y5754060D02*
Y5806060D01*
Y5754060D02*
X3500000Y5735000D01*
X4397990Y7523510D02*
X4400990Y7526510D01*
X4397990Y7362990D02*
Y7523510D01*
X7897500Y5420000D02*
X8211499D01*
X7726118Y5591382D02*
X7897500Y5420000D01*
X7538497Y5591382D02*
X7726118D01*
X7579537Y6245482D02*
Y6393735D01*
X7439407Y6012293D02*
Y6079407D01*
X7579537Y6152422D02*
Y6245482D01*
X7542114Y6115000D02*
X7579537Y6152422D01*
X7439407Y6079407D02*
X7475000Y6115000D01*
X7542114D01*
X6395404Y6754760D02*
X6720240D01*
X7318497Y6011382D02*
Y6156504D01*
X6720240Y6754760D02*
X7318497Y6156504D01*
X6393660Y6756503D02*
X6395404Y6754760D01*
X6248497Y6756503D02*
X6393660D01*
X7278497Y6011382D02*
Y6118840D01*
X6680907Y6419420D02*
X6977916D01*
X7317586Y5530472D02*
X7318497Y5531382D01*
X7317586Y5430243D02*
Y5530472D01*
X7309572Y5422229D02*
X7317586Y5430243D01*
X7358497Y5452666D02*
X7435000Y5376163D01*
Y5112500D02*
Y5376163D01*
X7930048Y5587500D02*
Y5707914D01*
Y5587500D02*
X7932548Y5590000D01*
X8045000D01*
X7358497Y5452666D02*
Y5531382D01*
X6200326Y4916933D02*
Y5247500D01*
Y4916933D02*
X6203679Y4913580D01*
X6136428Y5247500D02*
X6200326D01*
X6215001D01*
Y5247501D02*
X6382159D01*
X6008928Y5375000D02*
X6136428Y5247500D01*
X7576713Y6396559D02*
Y6406552D01*
Y6396559D02*
X7579537Y6393735D01*
X7555222Y6428043D02*
X7576713Y6406552D01*
X7441696Y6426277D02*
X7446002Y6430583D01*
X7441696Y6252642D02*
Y6426277D01*
X7761800Y5295701D02*
X7831065D01*
X7872223Y5254544D01*
X7983616D01*
X7515000Y5187766D02*
X7630222Y5072544D01*
X4960001Y5294999D02*
X4968811Y5303809D01*
X5078809D01*
X7290479Y7280479D02*
X7381979D01*
X3468980Y5542140D02*
X3480775D01*
X3500000Y5561366D01*
X7627522Y4934944D02*
Y5069844D01*
X4585000Y5305000D02*
Y5425000D01*
X4680500Y5304500D02*
X4681000Y5305000D01*
X4680500Y5128000D02*
Y5304500D01*
X4680000Y5127500D02*
X4680500Y5128000D01*
X5842500Y7357500D02*
X6410000Y6790000D01*
X8307500Y5312501D02*
Y5420000D01*
Y5312501D02*
X8310000Y5310000D01*
X7381979Y7280479D02*
X7388999Y7287500D01*
X7398497Y6011382D02*
Y6096540D01*
X7434536Y6132580D01*
X5240000Y4932500D02*
X5245001Y4927499D01*
X4737000Y4822500D02*
X4739501Y4825000D01*
X5245000Y5117500D02*
X5419000D01*
X4680000Y5039000D02*
X4739501Y4979499D01*
X5242500Y4902499D02*
Y5120000D01*
X4865750Y5124249D02*
X4867500Y5122500D01*
X4864001Y4927499D02*
X4865000Y4928499D01*
X5242500Y5120000D02*
X5245000Y5117500D01*
X4680000Y5039000D02*
Y5127500D01*
X4864001Y5294999D02*
X4865750Y5293249D01*
Y5124249D02*
Y5293249D01*
X4739501Y4825000D02*
Y4979499D01*
X4867500Y4898499D02*
Y5122500D01*
X5961339Y4913580D02*
X6107679D01*
X4540000Y7365000D02*
X4685000D01*
X4528000Y7377000D02*
X4540000Y7365000D01*
X4528000Y7377000D02*
Y7702500D01*
X5112500Y5600000D02*
Y5769500D01*
X4852500Y5600000D02*
Y5855000D01*
X4887500Y5890000D01*
X5106000D02*
X5112500Y5896500D01*
X4887500Y5890000D02*
X5106000D01*
X5113000Y5897000D02*
X5284500D01*
X5112500Y5896500D02*
X5113000Y5897000D01*
X5284500D02*
X5285000Y5897500D01*
X5112750Y5769750D02*
X5284750D01*
X5112500Y5769500D02*
X5112750Y5769750D01*
X5698068Y7905568D02*
X5842068D01*
X5637500Y7845000D02*
X5698068Y7905568D01*
X5637500Y7532500D02*
Y7845000D01*
X5560000Y7955000D02*
X5638000Y8033000D01*
X5842500D01*
X5430000Y7665000D02*
X5560000Y7795000D01*
Y7955000D01*
X5430000Y7360000D02*
Y7537500D01*
Y7665000D01*
X5842068Y7905568D02*
X5842500Y7906000D01*
Y7535000D02*
Y7779000D01*
Y7357500D02*
Y7535000D01*
X5637500Y7367500D02*
X6248497Y6756503D01*
X5637500Y7367500D02*
Y7532500D01*
X5461427Y8327500D02*
Y8423573D01*
Y8327500D02*
X5465000D01*
X5457500Y8427500D02*
X5461427Y8423573D01*
X5465000Y8327500D02*
X5550000Y8242500D01*
X7487619Y7192620D02*
X7623219D01*
X7484999Y7190000D02*
Y7287500D01*
Y7190000D02*
X7487619Y7192620D01*
X7623219D02*
X7625839Y7195240D01*
X7538497Y5911382D02*
X7940996D01*
X8045116Y5807262D01*
X5550000Y8085000D02*
Y8242500D01*
X5555000Y8517500D02*
X5560000Y8522500D01*
X5752500D01*
X5790000Y8560000D01*
X5464880Y8883320D02*
X5573320D01*
X5605000Y8915000D02*
X5632500D01*
X5573320Y8883320D02*
X5605000Y8915000D01*
X5632500D02*
X5722500Y8825000D01*
X5790000Y8757500D01*
Y8560000D02*
Y8757500D01*
X5554250Y8428250D02*
Y8516750D01*
X5555000Y8517500D01*
X5400000Y9025000D02*
X5400000Y9025000D01*
X5399940Y9024940D02*
X5400000Y9025000D01*
X5360500Y8033000D02*
X5498000D01*
X5550000Y8085000D01*
X5509000Y9025000D02*
X5509001Y9025000D01*
X5509000Y9025001D02*
X5509001Y9025000D01*
X5509000Y9025001D02*
Y9120000D01*
X5605000Y8915000D02*
Y9025000D01*
X5400000Y9025000D02*
X5509000D01*
X5399880Y8883320D02*
X5399940Y8883379D01*
Y9024940D01*
X5235500Y8033000D02*
X5360500D01*
X5150000Y7947500D02*
X5235500Y8033000D01*
X7434536Y6132580D02*
Y6245482D01*
X7441696Y6252642D01*
X3383030Y5805530D02*
X3480410D01*
X3382500Y5805000D02*
X3383030Y5805530D01*
X3480410D02*
X3480940Y5806060D01*
X3481720Y5806840D02*
Y5904220D01*
X3480940Y5806060D02*
X3481720Y5806840D01*
Y5904220D02*
X3482500Y5905000D01*
D57*
X6692500Y6265637D02*
X6726750Y6231387D01*
Y6230903D02*
Y6231387D01*
Y6230903D02*
X6744711Y6212942D01*
X6852517D01*
X6692500Y6265637D02*
Y6275000D01*
X6974204Y6289635D02*
X7013502D01*
X7028137Y6275000D02*
X7037500D01*
X6956657Y6307182D02*
X6974204Y6289635D01*
X7013502D02*
X7028137Y6275000D01*
X3030000Y6270000D02*
X3147500Y6387500D01*
Y6390000D01*
X2905000Y5912500D02*
X3030000Y6037500D01*
Y6270000D01*
X6852500Y6212925D02*
X6852517Y6212942D01*
X3440000Y6340500D02*
X3740500D01*
X3310000D02*
X3440000D01*
X3445000Y6335500D01*
Y6250000D02*
Y6335500D01*
X3435000Y6820500D02*
X3774693D01*
X3310000D02*
X3435000D01*
Y6905000D01*
X3252500Y7012500D02*
X3275539D01*
X3310000Y6900500D02*
Y6978039D01*
X3275539Y7012500D02*
X3310000Y6978039D01*
X3275539Y6148500D02*
X3310000Y6182961D01*
Y6260500D01*
X3252500Y6148500D02*
X3275539D01*
X3980700Y6614300D02*
X3997500Y6597500D01*
X3774693Y6820500D02*
X3980700Y6614493D01*
Y6614300D02*
Y6614493D01*
X3299537Y6810037D02*
X3310000Y6820500D01*
X3298560Y6351940D02*
X3310000Y6340500D01*
X3845060Y6445060D02*
X3845253D01*
X3740500Y6340500D02*
X3845060Y6445060D01*
X3845253D02*
X3865940Y6465747D01*
Y6465940D02*
X3997500Y6597500D01*
X3865940Y6465747D02*
Y6465940D01*
X3997500Y6597500D02*
X4028500D01*
X3194922Y6351940D02*
X3298560D01*
X3156863Y6390000D02*
X3194922Y6351940D01*
X3147500Y6390000D02*
X3156863D01*
X3214400Y6810037D02*
X3299537D01*
X3156863Y6752500D02*
X3214400Y6810037D01*
X3147500Y6752500D02*
X3156863D01*
X3777500Y6597500D02*
X3778750Y6598750D01*
X3881250D01*
X3882500Y6600000D01*
X8100721Y7298221D02*
Y7350721D01*
X8412500Y7662500D02*
Y8132500D01*
X8100721Y7350721D02*
X8412500Y7662500D01*
X8096370Y7293870D02*
X8100721Y7298221D01*
X7860469Y7293870D02*
X8096370D01*
X7856839Y7290240D02*
X7860469Y7293870D01*
X8300000Y7397500D02*
X8301250Y7396250D01*
Y7153750D02*
Y7396250D01*
X8709144Y7850510D02*
X8712500Y7847154D01*
Y7535000D02*
Y7847154D01*
X8300000Y7397500D02*
X8575000D01*
X8712500Y7535000D01*
X8593574Y8313574D02*
X8702309D01*
X8709144Y8320410D01*
X8412500Y8132500D02*
X8593574Y8313574D01*
X5334880Y8258620D02*
Y8658320D01*
Y8176281D02*
Y8258620D01*
X5228880D02*
X5334880D01*
X5194157Y8160000D02*
X5340020D01*
X5351161D01*
X5334880Y8176281D02*
X5351161Y8160000D01*
X5292500Y8990240D02*
X5332113Y8950627D01*
X5292500Y8990240D02*
Y9075000D01*
X5332113Y8886088D02*
X5334880Y8883320D01*
X5332113Y8886088D02*
Y8950627D01*
X4939880Y9155121D02*
X5264879D01*
X5292500Y9127500D01*
Y9075000D02*
Y9127500D01*
X4830000Y9265000D02*
Y9502500D01*
Y9265000D02*
X4939880Y9155121D01*
X4830000Y9502500D02*
X4840000Y9512500D01*
X5351161Y8160000D02*
X5360500D01*
X5154157Y8120000D02*
X5194157Y8160000D01*
X5222500Y8265000D02*
X5228880Y8258620D01*
X5055781Y8657719D02*
X5056511Y8658449D01*
X5146491D02*
X5147221Y8659179D01*
X5056511Y8658449D02*
X5146491D01*
X5147221Y8659179D02*
X5269021D01*
X5269880Y8658320D01*
X5334880D02*
X5399880D01*
X4400500Y7528000D02*
Y7702000D01*
X4401000Y7702500D01*
X4274000D02*
X4401000D01*
X4273250Y7701750D02*
X4274000Y7702500D01*
D58*
X3576940Y5673240D02*
X3583700Y5680000D01*
X3571200Y5667500D02*
X3576940Y5673240D01*
X3583700Y5680000D02*
X3710000D01*
X5465701Y8657500D02*
X5592500D01*
X5464880Y8658320D02*
X5465701Y8657500D01*
X4123837Y8132500D02*
X4147000Y8155663D01*
X4005000Y8132500D02*
X4123837D01*
X4147000Y8155663D02*
Y8187500D01*
X4003750Y8011250D02*
Y8131250D01*
X4005000Y8132500D01*
X4002500Y8010000D02*
X4003750Y8011250D01*
X5845000Y8162500D02*
Y8290000D01*
X5842500Y8160000D02*
X5845000Y8162500D01*
X5847500Y8292500D02*
Y8405000D01*
X5850000Y8407500D01*
X5845000Y8290000D02*
X5847500Y8292500D01*
X4017500Y7627405D02*
Y7637500D01*
X4050000Y7527500D02*
Y7594906D01*
X4017500Y7627405D02*
X4050000Y7594906D01*
X5512500Y9235000D02*
X5557662Y9189838D01*
Y9167338D02*
X5605000Y9120000D01*
X5557662Y9167338D02*
Y9189838D01*
X5092500Y9490000D02*
X5217500D01*
X5087500Y9495000D02*
X5092500Y9490000D01*
X5087500Y9414800D02*
X5139800Y9362500D01*
X5217500D01*
X5087500Y9414800D02*
Y9495000D01*
X5650000Y9075000D02*
X5712500D01*
X5605000Y9120000D02*
X5650000Y9075000D01*
X5592500Y8657500D02*
Y8777500D01*
X5146110Y8756289D02*
Y8858890D01*
X5145000Y8860000D02*
X5146110Y8858890D01*
Y8756289D02*
X5147221Y8755179D01*
X5287000Y5672000D02*
X5385500D01*
X5285000Y5674000D02*
X5287000Y5672000D01*
X5385500D02*
X5387500Y5670000D01*
X7611814Y5951382D02*
X7640431Y5980000D01*
X7538497Y5951382D02*
X7611814D01*
X7640431Y5980000D02*
X7652500D01*
X7725057Y6052557D01*
Y6057522D01*
X4085000Y4895000D02*
X4540000Y4440000D01*
X4085000Y4895000D02*
Y5517500D01*
X4729500Y4440000D02*
X4737000Y4432500D01*
X4540000Y4440000D02*
X4729500D01*
X5695000Y5475000D02*
X5795000D01*
X3992500Y5519000D02*
X3993250Y5518250D01*
X4084250D01*
X4085000Y5517500D01*
X5122890Y6288010D02*
Y6409610D01*
Y6288010D02*
X5125780Y6285120D01*
X5120000Y6412500D02*
X5122890Y6409610D01*
X5285000Y5993500D02*
X5285000Y5993500D01*
Y6102500D01*
X5125780Y6163780D02*
Y6285120D01*
X5112500Y6150500D02*
X5125780Y6163780D01*
X7623966Y5743966D02*
X7632500Y5752500D01*
X7660000Y5440000D02*
Y5530000D01*
X7623966Y5731252D02*
Y5743966D01*
X6956657Y6155843D02*
X7007500Y6105000D01*
X6956657Y6155843D02*
Y6212182D01*
X6775000Y5712500D02*
X6875000D01*
X7478497Y5479004D02*
X7517500Y5440000D01*
X7660000D01*
X7478497Y5479004D02*
Y5531382D01*
X4146250Y7372500D02*
X4273750Y7245000D01*
X4145000Y7372500D02*
X4146250D01*
X4273750Y7245000D02*
X4275000D01*
X3577220Y5904720D02*
X3577500Y5905000D01*
X3576940Y5806060D02*
X3577220Y5806340D01*
Y5904720D01*
X3576940Y5673240D02*
Y5806060D01*
X6916118Y5671382D02*
X7058497D01*
X6875000Y5712500D02*
X6916118Y5671382D01*
X6956657Y6212182D02*
X7022818D01*
X7158497Y6076503D01*
Y6011382D02*
Y6076503D01*
Y6011382D02*
X7198497D01*
X7604097Y5711382D02*
X7623966Y5731252D01*
X7538497Y5711382D02*
X7604097D01*
X7408497Y5881382D02*
X7458497Y5831382D01*
X7538497D01*
X7278497Y5641382D02*
X7298497Y5661382D01*
X7278497Y5531382D02*
Y5641382D01*
X3992500Y5615000D02*
Y5732500D01*
X3995000Y5735000D01*
X7103370Y5485000D02*
X7118497Y5500127D01*
Y5531382D01*
X6897500Y5485000D02*
X7103370D01*
X4145000Y7372500D02*
X4146000Y7373500D01*
Y7527500D01*
X4146500Y7528000D02*
Y7702000D01*
X4147000Y7702500D01*
X4146000Y7527500D02*
X4146500Y7528000D01*
X7478497Y6011382D02*
X7513617D01*
X7665497Y6163262D01*
X7725497D01*
D59*
X3057100Y5372100D02*
X3150400D01*
X3152500Y5374200D01*
X3055000Y5370000D02*
X3057100Y5372100D01*
X3226600Y5374200D02*
X3252866Y5400466D01*
Y5403863D01*
X3152500Y5374200D02*
X3226600D01*
X3252866Y5403863D02*
X3261143Y5412140D01*
X3272980D01*
X3273990Y5411130D01*
D60*
X4390000Y8427500D02*
X4577500D01*
X4580000Y8425000D01*
X4387500Y8430000D02*
X4390000Y8427500D01*
X4291500Y8430000D02*
Y8493500D01*
Y8430000D02*
X4302394Y8419106D01*
X4290021Y8431479D02*
X4291500Y8430000D01*
X4288543D02*
X4290021Y8431479D01*
X4102500Y8430000D02*
X4288543D01*
X4259319Y8525681D02*
X4291500Y8493500D01*
X4259319Y8525681D02*
Y8595681D01*
X4432667Y8539730D02*
Y8592668D01*
X4387500Y8431709D02*
Y8494563D01*
X4432667Y8539730D01*
Y8592668D02*
X4447500Y8607500D01*
X4372606Y8415107D02*
X4387500Y8430000D01*
X4230627Y8624373D02*
X4259319Y8595681D01*
X4372606Y8291118D02*
Y8415107D01*
X3933061Y8759532D02*
X4244849D01*
X4319648Y8682299D02*
X4394447Y8607500D01*
X4319648Y8682299D02*
Y8684733D01*
X4230627Y8624373D02*
Y8674458D01*
X4244849Y8759532D02*
X4319648Y8684733D01*
X4215766Y8689319D02*
X4230627Y8674458D01*
X3962144Y8689319D02*
X4215766D01*
X4302394Y8291119D02*
Y8419106D01*
X4372606Y8291118D02*
X4401000Y8262725D01*
X4274000D02*
X4302394Y8291119D01*
X4401000Y8187500D02*
Y8262725D01*
X4274000Y8187500D02*
Y8262725D01*
X4394447Y8607500D02*
X4447500D01*
X3742719Y8469894D02*
X3962144Y8689319D01*
X3557819Y8469894D02*
X3742719D01*
X3545979Y8429894D02*
Y8458053D01*
X3496085Y8380000D02*
X3545979Y8429894D01*
X3407500Y8380000D02*
X3496085D01*
X3713636Y8540106D02*
X3933061Y8759532D01*
X3557819Y8540106D02*
X3713636D01*
X3545979Y8551947D02*
X3557819Y8540106D01*
X3545979Y8458053D02*
X3557819Y8469894D01*
X3496085Y8630000D02*
X3545979Y8580106D01*
Y8551947D02*
Y8580106D01*
X3407500Y8630000D02*
X3496085D01*
D61*
X7237500Y5479492D02*
X7238497Y5480490D01*
X7237500Y5180000D02*
Y5479492D01*
X7235000Y5177500D02*
X7236250Y5176250D01*
Y5054750D02*
Y5176250D01*
Y5054750D02*
X7237500Y5053500D01*
X7235000Y5177500D02*
X7237500Y5180000D01*
D62*
X3310000Y6705500D02*
X3404162D01*
X3418304Y6719642D02*
Y6720555D01*
X3457500Y6759751D01*
Y6762500D01*
X3404162Y6705500D02*
X3418304Y6719642D01*
D63*
X7238497Y5480490D02*
Y5531382D01*
X7238497Y5531382D02*
X7238497Y5531382D01*
D64*
X3296967Y6401033D02*
X3465800D01*
X3295000Y6403000D02*
X3296967Y6401033D01*
D65*
X7179000Y9527500D02*
D03*
D66*
X7560000D02*
D03*
D67*
X8010000Y9617500D02*
D03*
X6729000D02*
D03*
D68*
X2872500Y8740000D02*
D03*
Y8020000D02*
D03*
X4727500Y10030000D02*
D03*
X5197500D02*
D03*
D69*
X2834500Y7012500D02*
D03*
Y6148500D02*
D03*
D70*
X3252500Y7012500D02*
D03*
Y6148500D02*
D03*
D71*
X3202500Y6291500D02*
D03*
Y6869500D02*
D03*
D72*
X6857484Y7850510D02*
D03*
X7558524D02*
D03*
X8709144D02*
D03*
Y8320410D02*
D03*
D73*
X7408497Y5881382D02*
D03*
Y5771382D02*
D03*
Y5661382D02*
D03*
X7298497Y5881382D02*
D03*
Y5771382D02*
D03*
Y5661382D02*
D03*
X7188497Y5881382D02*
D03*
Y5771382D02*
D03*
Y5661382D02*
D03*
D74*
X3365000Y5902500D02*
D03*
X3085000Y5862500D02*
D03*
X2807500Y5420000D02*
D03*
X6600008Y4640005D02*
D03*
X7040008Y4560005D02*
D03*
X6480008Y4240005D02*
D03*
Y4560005D02*
D03*
X6520008Y4320005D02*
D03*
X7000008Y4640005D02*
D03*
X6920008D02*
D03*
X6520008D02*
D03*
X6680008D02*
D03*
X6480008Y4400005D02*
D03*
X6520008Y4480005D02*
D03*
X6760008Y4640005D02*
D03*
X6840008D02*
D03*
X3055000Y5370000D02*
D03*
X8999999Y9599999D02*
D03*
X8799999Y9199999D02*
D03*
X8999999Y8799999D02*
D03*
Y7999999D02*
D03*
X8799999Y7599999D02*
D03*
X8999999Y7199999D02*
D03*
X8799999Y6799999D02*
D03*
X8999999Y6399999D02*
D03*
X8799999Y5999999D02*
D03*
X8999999Y5599999D02*
D03*
X8799999Y5200000D02*
D03*
X8999999Y4800000D02*
D03*
X8399999Y9999999D02*
D03*
X8599999Y9599999D02*
D03*
X8399999Y9199999D02*
D03*
X8599999Y8799999D02*
D03*
X8399999Y8399999D02*
D03*
X8599999Y7999999D02*
D03*
Y7199999D02*
D03*
X8399999Y6799999D02*
D03*
X8599999Y6399999D02*
D03*
X8399999Y5999999D02*
D03*
X8599999Y5599999D02*
D03*
X8399999Y5200000D02*
D03*
X8599999Y4800000D02*
D03*
X8399999Y4400000D02*
D03*
X8199999Y9599999D02*
D03*
Y8799999D02*
D03*
Y7999999D02*
D03*
Y7199999D02*
D03*
X7999999Y6799999D02*
D03*
X8199999Y6399999D02*
D03*
Y4800000D02*
D03*
X7999999Y4400000D02*
D03*
X7599999Y6799999D02*
D03*
X7799999Y4800000D02*
D03*
X7599999Y4400000D02*
D03*
X6799999Y5200000D02*
D03*
X6999999Y4800000D02*
D03*
X6599999Y6399999D02*
D03*
Y4800000D02*
D03*
X6399999Y4400000D02*
D03*
X5999999Y9999999D02*
D03*
Y9199999D02*
D03*
Y8399999D02*
D03*
Y7599999D02*
D03*
Y5200000D02*
D03*
X6199999Y4800000D02*
D03*
X5999999Y4400000D02*
D03*
X5599999Y9999999D02*
D03*
X5799999Y9599999D02*
D03*
X5599999Y5200000D02*
D03*
X5799999Y4800000D02*
D03*
X5599999Y4400000D02*
D03*
X5399999Y4800000D02*
D03*
X4800000Y7599999D02*
D03*
Y6799999D02*
D03*
X4400000Y9199999D02*
D03*
X4599999Y8799999D02*
D03*
X4400000Y6799999D02*
D03*
X4599999Y6399999D02*
D03*
X4400000Y5200000D02*
D03*
X4599999Y4800000D02*
D03*
X4400000Y4400000D02*
D03*
X4000000Y9999999D02*
D03*
X4199999Y9599999D02*
D03*
X4000000Y9199999D02*
D03*
Y8399999D02*
D03*
Y6799999D02*
D03*
X4199999Y6399999D02*
D03*
X4000000Y5200000D02*
D03*
Y4400000D02*
D03*
X3600000Y9999999D02*
D03*
X3800000Y9599999D02*
D03*
X3600000Y9199999D02*
D03*
X3800000Y8799999D02*
D03*
Y7999999D02*
D03*
X3600000Y7599999D02*
D03*
X3800000Y7199999D02*
D03*
Y4800000D02*
D03*
X3600000Y4400000D02*
D03*
X3200000Y9999999D02*
D03*
X3400000Y9599999D02*
D03*
X3200000Y9199999D02*
D03*
X3400000Y8799999D02*
D03*
X3200000Y8399999D02*
D03*
X3400000Y7999999D02*
D03*
X3200000Y7599999D02*
D03*
X3400000Y7199999D02*
D03*
X3200000Y5200000D02*
D03*
X3400000Y4800000D02*
D03*
X3200000Y4400000D02*
D03*
X3000000Y9599999D02*
D03*
X2800000Y9199999D02*
D03*
Y8399999D02*
D03*
X3000000Y7999999D02*
D03*
X2800000Y7599999D02*
D03*
X3000000Y7199999D02*
D03*
X2800000Y6799999D02*
D03*
X3000000Y6399999D02*
D03*
X2800000Y5200000D02*
D03*
X3000000Y4800000D02*
D03*
X6557500Y5707500D02*
D03*
X6680000Y5487500D02*
D03*
X4880000Y6447500D02*
D03*
X6797500Y5322500D02*
D03*
X7037500Y6275000D02*
D03*
X7327500Y6530000D02*
D03*
X7672500Y6242500D02*
D03*
X8165000Y5512500D02*
D03*
X8120000Y5187500D02*
D03*
X5145000Y8860000D02*
D03*
X7800004Y9600005D02*
D03*
Y9400005D02*
D03*
Y9200005D02*
D03*
Y9000005D02*
D03*
Y8800005D02*
D03*
Y8600005D02*
D03*
Y8400005D02*
D03*
Y8200004D02*
D03*
Y8000004D02*
D03*
Y7800004D02*
D03*
X7750004Y9700005D02*
D03*
X7700004Y9600005D02*
D03*
X7750004Y9500005D02*
D03*
X7700004Y9400005D02*
D03*
X7750004Y9300005D02*
D03*
X7700004Y9200005D02*
D03*
X7750004Y9100005D02*
D03*
X7700004Y9000005D02*
D03*
X7750004Y8900005D02*
D03*
X7700004Y8800005D02*
D03*
X7750004Y8700005D02*
D03*
X7700004Y8600005D02*
D03*
X7750004Y8500005D02*
D03*
X7700004Y8400005D02*
D03*
X7750004Y8300004D02*
D03*
X7700004Y8200004D02*
D03*
X7750004Y8100004D02*
D03*
X7700004Y8000004D02*
D03*
X7750004Y7900004D02*
D03*
X7700004Y7800004D02*
D03*
X7650004Y9700005D02*
D03*
Y9300005D02*
D03*
X7600004Y8400005D02*
D03*
X7650004Y8300004D02*
D03*
X7600004Y8200004D02*
D03*
X7650004Y8100004D02*
D03*
X7600004Y8000004D02*
D03*
X7550004Y9700005D02*
D03*
Y9300005D02*
D03*
X7500004Y8400005D02*
D03*
X7550004Y8300004D02*
D03*
X7500004Y8200004D02*
D03*
X7550004Y8100004D02*
D03*
X7500004Y8000004D02*
D03*
X7250004Y9700005D02*
D03*
X7150004D02*
D03*
X7050004D02*
D03*
X7000004Y9600005D02*
D03*
X6950004Y9700005D02*
D03*
X6900004Y9600005D02*
D03*
X6950004Y9500005D02*
D03*
X6900004Y8200004D02*
D03*
X6950004Y8100004D02*
D03*
X6900004Y8000004D02*
D03*
X6850004Y9500005D02*
D03*
X6800004Y8200004D02*
D03*
X6850004Y8100004D02*
D03*
X6800004Y8000004D02*
D03*
X6700004Y9400005D02*
D03*
X6750004Y9300005D02*
D03*
X6700004Y9200005D02*
D03*
X6750004Y9100005D02*
D03*
X6700004Y9000005D02*
D03*
X6750004Y8900005D02*
D03*
Y8500005D02*
D03*
X6700004Y8400005D02*
D03*
X6750004Y8300004D02*
D03*
X6700004Y8200004D02*
D03*
X6750004Y8100004D02*
D03*
X6700004Y8000004D02*
D03*
Y7800004D02*
D03*
X6600004Y9400005D02*
D03*
X6650003Y9300005D02*
D03*
X6600004Y9200005D02*
D03*
X6650003Y9100005D02*
D03*
X6600004Y9000005D02*
D03*
X6650003Y8900005D02*
D03*
X6600004Y8400005D02*
D03*
X6650003Y8300004D02*
D03*
X6600004Y8200004D02*
D03*
X6650003Y8100004D02*
D03*
X6600004Y8000004D02*
D03*
X6650003Y7900004D02*
D03*
X6600004Y7800004D02*
D03*
X6550003Y9700005D02*
D03*
X6500004Y9600005D02*
D03*
X6550003Y9500005D02*
D03*
X6500004Y9400005D02*
D03*
X6550003Y9300005D02*
D03*
X6500004Y9200005D02*
D03*
X6550003Y9100005D02*
D03*
X6500004Y9000005D02*
D03*
X6550003Y8900005D02*
D03*
X6500004Y8800005D02*
D03*
X6550003Y8700005D02*
D03*
X6500004Y8600005D02*
D03*
X6550003Y8500005D02*
D03*
X6500004Y8400005D02*
D03*
X6550003Y8300004D02*
D03*
X6500004Y8200004D02*
D03*
X6550003Y8100004D02*
D03*
X6500004Y8000004D02*
D03*
X6550003Y7900004D02*
D03*
X6500004Y7800004D02*
D03*
X5387500Y5670000D02*
D03*
X7652500Y5980000D02*
D03*
X6692500Y6275000D02*
D03*
X5795000Y5475000D02*
D03*
X4085000Y5517500D02*
D03*
X5120000Y6412500D02*
D03*
X5285000Y6102500D02*
D03*
X5217500Y9362500D02*
D03*
Y9490000D02*
D03*
X5512500Y9235000D02*
D03*
X5712500Y9075000D02*
D03*
X5592500Y8777500D02*
D03*
X5850000Y8407500D02*
D03*
X4002500Y8010000D02*
D03*
X4017500Y7637500D02*
D03*
X7340000Y4850000D02*
D03*
X7137500Y4987500D02*
D03*
X7927500Y5510000D02*
D03*
X7660000Y5530000D02*
D03*
X7632500Y5752500D02*
D03*
X7140000Y5072500D02*
D03*
X7723240Y5661740D02*
D03*
X7331336Y5218752D02*
D03*
X7725000Y5775000D02*
D03*
X7331336Y5328751D02*
D03*
X7145658Y5375026D02*
D03*
X5005000Y5122500D02*
D03*
X5177500Y5192632D02*
D03*
X4747500D02*
D03*
X7242500Y6380940D02*
D03*
X7007500Y6105000D02*
D03*
X7160000Y6160000D02*
D03*
X6875000Y5712500D02*
D03*
X6545000Y5240000D02*
D03*
X6962500Y5740000D02*
D03*
X4275000Y7245000D02*
D03*
X4685000Y7365000D02*
D03*
X2805000Y5762500D02*
D03*
X2857500Y5832500D02*
D03*
X2905000Y5912500D02*
D03*
X2807500D02*
D03*
X3445000Y6250000D02*
D03*
X3435000Y6905000D02*
D03*
X3147500Y6390000D02*
D03*
Y6752500D02*
D03*
X3650000Y6762500D02*
D03*
X3562500Y6497500D02*
D03*
X3812500Y5680000D02*
D03*
X3710000D02*
D03*
X3810000Y5785000D02*
D03*
X3715000D02*
D03*
X3810000Y5877500D02*
D03*
X3715000D02*
D03*
X3152500Y5622500D02*
D03*
X7837500Y5607500D02*
D03*
X8301250Y7153750D02*
D03*
X3882500Y6600000D02*
D03*
X4397500Y7362500D02*
D03*
X7155012Y4605329D02*
D03*
X7129853Y4498245D02*
D03*
X7050668Y4421893D02*
D03*
X7309572Y5422229D02*
D03*
X7145658Y5265026D02*
D03*
X7147285Y4715057D02*
D03*
X7080020Y4235218D02*
D03*
X7179856Y4281400D02*
D03*
X7260212Y4356519D02*
D03*
X7313016Y4453016D02*
D03*
X7332965Y4561192D02*
D03*
X7322500Y4657500D02*
D03*
X7340000Y4765000D02*
D03*
X7320095Y4999234D02*
D03*
X7330339Y5108756D02*
D03*
%TF.MD5,64c4e2acc85862f13bb3c52c6147a6f8*%
M02*
