G04*
G04 #@! TF.GenerationSoftware,Altium Limited,Altium Designer,24.4.1 (13)*
G04*
G04 Layer_Color=2752767*
%FSLAX44Y44*%
%MOMM*%
G71*
G04*
G04 #@! TF.SameCoordinates,8C4884AE-FE68-42B2-B831-9760C43879B3*
G04*
G04*
G04 #@! TF.FilePolarity,Positive*
G04*
G01*
G75*
%ADD10C,0.1270*%
%ADD144C,0.1693*%
%ADD145C,0.1016*%
D10*
X756000Y947670D02*
X750920Y957830D01*
X761080D01*
X756000Y947670D01*
X717900D02*
X712820Y957830D01*
X722980D01*
X717900Y947670D01*
X287250Y796920D02*
X289790Y799460D01*
X292330D01*
X289790Y802000D01*
X292330Y804540D01*
X289790D01*
X287250Y807080D01*
X284710Y804540D01*
X282170D01*
X284710Y802000D01*
X282170Y799460D01*
X284710D01*
X287250Y796920D01*
Y868920D02*
X289790Y871460D01*
X292330D01*
X289790Y874000D01*
X292330Y876540D01*
X289790D01*
X287250Y879080D01*
X284710Y876540D01*
X282170D01*
X284710Y874000D01*
X282170Y871460D01*
X284710D01*
X287250Y868920D01*
X519750Y997920D02*
X522290Y1000460D01*
X524830D01*
X522290Y1003000D01*
X524830Y1005540D01*
X522290D01*
X519750Y1008080D01*
X517210Y1005540D01*
X514670D01*
X517210Y1003000D01*
X514670Y1000460D01*
X517210D01*
X519750Y997920D01*
X472750D02*
X475290Y1000460D01*
X477830D01*
X475290Y1003000D01*
X477830Y1005540D01*
X475290D01*
X472750Y1008080D01*
X470210Y1005540D01*
X467670D01*
X470210Y1003000D01*
X467670Y1000460D01*
X470210D01*
X472750Y997920D01*
X278370Y696170D02*
X280910Y701250D01*
X278370Y706330D01*
X283450Y703790D01*
X288530Y706330D01*
X285990Y701250D01*
X288530Y696170D01*
X283450Y698710D01*
X278370Y696170D01*
Y609770D02*
X280910Y614850D01*
X278370Y619930D01*
X283450Y617390D01*
X288530Y619930D01*
X285990Y614850D01*
X288530Y609770D01*
X283450Y612310D01*
X278370Y609770D01*
X322710Y698710D02*
Y696170D01*
X327790D01*
Y698710D01*
X330330D01*
Y703790D01*
X327790D01*
Y706330D01*
X322710D01*
Y703790D01*
X320170D01*
Y698710D01*
X322710D01*
Y612310D02*
Y609770D01*
X327790D01*
Y612310D01*
X330330D01*
Y617390D01*
X327790D01*
Y619930D01*
X322710D01*
Y617390D01*
X320170D01*
Y612310D01*
X322710D01*
X315170Y624070D02*
X317710D01*
X320250Y626610D01*
X322790Y624070D01*
X325330D01*
Y626610D01*
X322790Y629150D01*
X325330Y631690D01*
Y634230D01*
X322790D01*
X320250Y631690D01*
X317710Y634230D01*
X315170D01*
Y631690D01*
X317710Y629150D01*
X315170Y626610D01*
Y624070D01*
Y681870D02*
X317710D01*
X320250Y684410D01*
X322790Y681870D01*
X325330D01*
Y684410D01*
X322790Y686950D01*
X325330Y689490D01*
Y692030D01*
X322790D01*
X320250Y689490D01*
X317710Y692030D01*
X315170D01*
Y689490D01*
X317710Y686950D01*
X315170Y684410D01*
Y681870D01*
X865834Y826961D02*
Y837121D01*
X875994D01*
Y826961D01*
X865834D01*
Y779971D02*
Y790131D01*
X875994D01*
Y779971D01*
X865834D01*
X750772D02*
Y790131D01*
X760932D01*
Y779971D01*
X750772D01*
X680668D02*
Y790131D01*
X690828D01*
Y779971D01*
X680668D01*
X462750Y813670D02*
X457670Y823830D01*
X467830D01*
X462750Y813670D01*
Y815702D02*
X459702Y821798D01*
X465798D01*
X462750Y815702D01*
X430500Y738920D02*
X425420Y749080D01*
X435580D01*
X430500Y738920D01*
Y740952D02*
X427452Y747048D01*
X433548D01*
X430500Y740952D01*
X497250Y869920D02*
X492170Y880080D01*
X502330D01*
X497250Y869920D01*
Y871952D02*
X494202Y878048D01*
X500298D01*
X497250Y871952D01*
X786000Y703670D02*
X780920Y713830D01*
X791080D01*
X786000Y703670D01*
Y705702D02*
X782952Y711798D01*
X789048D01*
X786000Y705702D01*
X493250Y623420D02*
X488170Y633580D01*
X498330D01*
X493250Y623420D01*
Y625452D02*
X490202Y631548D01*
X496298D01*
X493250Y625452D01*
X816000Y751920D02*
X810920Y762080D01*
X821080D01*
X816000Y751920D01*
Y753952D02*
X812952Y760048D01*
X819048D01*
X816000Y753952D01*
X765500Y647670D02*
X760420Y657830D01*
X770580D01*
X765500Y647670D01*
Y649702D02*
X762452Y655798D01*
X768548D01*
X765500Y649702D01*
X752882Y667802D02*
X747802Y677962D01*
X757962D01*
X752882Y667802D01*
Y669834D02*
X749834Y675930D01*
X755930D01*
X752882Y669834D01*
X740863Y708033D02*
X735783Y718193D01*
X745943D01*
X740863Y708033D01*
Y710065D02*
X737815Y716161D01*
X743911D01*
X740863Y710065D01*
X704500Y478670D02*
X699420Y488830D01*
X709580D01*
X704500Y478670D01*
Y480702D02*
X701452Y486798D01*
X707548D01*
X704500Y480702D01*
X900000Y954920D02*
X894920Y965080D01*
X905080D01*
X900000Y954920D01*
Y956952D02*
X896952Y963048D01*
X903048D01*
X900000Y956952D01*
X880000Y914920D02*
X874920Y925080D01*
X885080D01*
X880000Y914920D01*
Y916952D02*
X876952Y923048D01*
X883048D01*
X880000Y916952D01*
X900000Y874920D02*
X894920Y885080D01*
X905080D01*
X900000Y874920D01*
Y876952D02*
X896952Y883048D01*
X903048D01*
X900000Y876952D01*
Y794920D02*
X894920Y805080D01*
X905080D01*
X900000Y794920D01*
Y796952D02*
X896952Y803048D01*
X903048D01*
X900000Y796952D01*
X880000Y754920D02*
X874920Y765080D01*
X885080D01*
X880000Y754920D01*
Y756952D02*
X876952Y763048D01*
X883048D01*
X880000Y756952D01*
X900000Y714920D02*
X894920Y725080D01*
X905080D01*
X900000Y714920D01*
Y716952D02*
X896952Y723048D01*
X903048D01*
X900000Y716952D01*
X880000Y674920D02*
X874920Y685080D01*
X885080D01*
X880000Y674920D01*
Y676952D02*
X876952Y683048D01*
X883048D01*
X880000Y676952D01*
X900000Y634920D02*
X894920Y645080D01*
X905080D01*
X900000Y634920D01*
Y636952D02*
X896952Y643048D01*
X903048D01*
X900000Y636952D01*
X880000Y594920D02*
X874920Y605080D01*
X885080D01*
X880000Y594920D01*
Y596952D02*
X876952Y603048D01*
X883048D01*
X880000Y596952D01*
X900000Y554920D02*
X894920Y565080D01*
X905080D01*
X900000Y554920D01*
Y556952D02*
X896952Y563048D01*
X903048D01*
X900000Y556952D01*
X880000Y514920D02*
X874920Y525080D01*
X885080D01*
X880000Y514920D01*
Y516952D02*
X876952Y523048D01*
X883048D01*
X880000Y516952D01*
X900000Y474920D02*
X894920Y485080D01*
X905080D01*
X900000Y474920D01*
Y476952D02*
X896952Y483048D01*
X903048D01*
X900000Y476952D01*
X840000Y994920D02*
X834920Y1005080D01*
X845080D01*
X840000Y994920D01*
Y996952D02*
X836952Y1003048D01*
X843048D01*
X840000Y996952D01*
X860000Y954920D02*
X854920Y965080D01*
X865080D01*
X860000Y954920D01*
Y956952D02*
X856952Y963048D01*
X863048D01*
X860000Y956952D01*
X840000Y914920D02*
X834920Y925080D01*
X845080D01*
X840000Y914920D01*
Y916952D02*
X836952Y923048D01*
X843048D01*
X840000Y916952D01*
X860000Y874920D02*
X854920Y885080D01*
X865080D01*
X860000Y874920D01*
Y876952D02*
X856952Y883048D01*
X863048D01*
X860000Y876952D01*
X840000Y834920D02*
X834920Y845080D01*
X845080D01*
X840000Y834920D01*
Y836952D02*
X836952Y843048D01*
X843048D01*
X840000Y836952D01*
X860000Y794920D02*
X854920Y805080D01*
X865080D01*
X860000Y794920D01*
Y796952D02*
X856952Y803048D01*
X863048D01*
X860000Y796952D01*
Y714920D02*
X854920Y725080D01*
X865080D01*
X860000Y714920D01*
Y716952D02*
X856952Y723048D01*
X863048D01*
X860000Y716952D01*
X840000Y674920D02*
X834920Y685080D01*
X845080D01*
X840000Y674920D01*
Y676952D02*
X836952Y683048D01*
X843048D01*
X840000Y676952D01*
X860000Y634920D02*
X854920Y645080D01*
X865080D01*
X860000Y634920D01*
Y636952D02*
X856952Y643048D01*
X863048D01*
X860000Y636952D01*
X840000Y594920D02*
X834920Y605080D01*
X845080D01*
X840000Y594920D01*
Y596952D02*
X836952Y603048D01*
X843048D01*
X840000Y596952D01*
X860000Y554920D02*
X854920Y565080D01*
X865080D01*
X860000Y554920D01*
Y556952D02*
X856952Y563048D01*
X863048D01*
X860000Y556952D01*
X840000Y514920D02*
X834920Y525080D01*
X845080D01*
X840000Y514920D01*
Y516952D02*
X836952Y523048D01*
X843048D01*
X840000Y516952D01*
X860000Y474920D02*
X854920Y485080D01*
X865080D01*
X860000Y474920D01*
Y476952D02*
X856952Y483048D01*
X863048D01*
X860000Y476952D01*
X840000Y434920D02*
X834920Y445080D01*
X845080D01*
X840000Y434920D01*
Y436952D02*
X836952Y443048D01*
X843048D01*
X840000Y436952D01*
X820000Y954920D02*
X814920Y965080D01*
X825080D01*
X820000Y954920D01*
Y956952D02*
X816952Y963048D01*
X823048D01*
X820000Y956952D01*
Y874920D02*
X814920Y885080D01*
X825080D01*
X820000Y874920D01*
Y876952D02*
X816952Y883048D01*
X823048D01*
X820000Y876952D01*
Y794920D02*
X814920Y805080D01*
X825080D01*
X820000Y794920D01*
Y796952D02*
X816952Y803048D01*
X823048D01*
X820000Y796952D01*
Y714920D02*
X814920Y725080D01*
X825080D01*
X820000Y714920D01*
Y716952D02*
X816952Y723048D01*
X823048D01*
X820000Y716952D01*
X800000Y674920D02*
X794920Y685080D01*
X805080D01*
X800000Y674920D01*
Y676952D02*
X796952Y683048D01*
X803048D01*
X800000Y676952D01*
X820000Y634920D02*
X814920Y645080D01*
X825080D01*
X820000Y634920D01*
Y636952D02*
X816952Y643048D01*
X823048D01*
X820000Y636952D01*
Y474920D02*
X814920Y485080D01*
X825080D01*
X820000Y474920D01*
Y476952D02*
X816952Y483048D01*
X823048D01*
X820000Y476952D01*
X800000Y434920D02*
X794920Y445080D01*
X805080D01*
X800000Y434920D01*
Y436952D02*
X796952Y443048D01*
X803048D01*
X800000Y436952D01*
X780000Y474920D02*
X774920Y485080D01*
X785080D01*
X780000Y474920D01*
Y476952D02*
X776952Y483048D01*
X783048D01*
X780000Y476952D01*
X760000Y434920D02*
X754920Y445080D01*
X765080D01*
X760000Y434920D01*
Y436952D02*
X756952Y443048D01*
X763048D01*
X760000Y436952D01*
X680000Y514920D02*
X674920Y525080D01*
X685080D01*
X680000Y514920D01*
Y516952D02*
X676952Y523048D01*
X683048D01*
X680000Y516952D01*
X660000Y634920D02*
X654920Y645080D01*
X665080D01*
X660000Y634920D01*
Y636952D02*
X656952Y643048D01*
X663048D01*
X660000Y636952D01*
Y474920D02*
X654920Y485080D01*
X665080D01*
X660000Y474920D01*
Y476952D02*
X656952Y483048D01*
X663048D01*
X660000Y476952D01*
X640000Y434920D02*
X634920Y445080D01*
X645080D01*
X640000Y434920D01*
Y436952D02*
X636952Y443048D01*
X643048D01*
X640000Y436952D01*
X600000Y994920D02*
X594920Y1005080D01*
X605080D01*
X600000Y994920D01*
Y996952D02*
X596952Y1003048D01*
X603048D01*
X600000Y996952D01*
Y914920D02*
X594920Y925080D01*
X605080D01*
X600000Y914920D01*
Y916952D02*
X596952Y923048D01*
X603048D01*
X600000Y916952D01*
Y834920D02*
X594920Y845080D01*
X605080D01*
X600000Y834920D01*
Y836952D02*
X596952Y843048D01*
X603048D01*
X600000Y836952D01*
Y754920D02*
X594920Y765080D01*
X605080D01*
X600000Y754920D01*
Y756952D02*
X596952Y763048D01*
X603048D01*
X600000Y756952D01*
Y514920D02*
X594920Y525080D01*
X605080D01*
X600000Y514920D01*
Y516952D02*
X596952Y523048D01*
X603048D01*
X600000Y516952D01*
X620000Y474920D02*
X614920Y485080D01*
X625080D01*
X620000Y474920D01*
Y476952D02*
X616952Y483048D01*
X623048D01*
X620000Y476952D01*
X600000Y434920D02*
X594920Y445080D01*
X605080D01*
X600000Y434920D01*
Y436952D02*
X596952Y443048D01*
X603048D01*
X600000Y436952D01*
X560000Y994920D02*
X554920Y1005080D01*
X565080D01*
X560000Y994920D01*
Y996952D02*
X556952Y1003048D01*
X563048D01*
X560000Y996952D01*
X580000Y954920D02*
X574920Y965080D01*
X585080D01*
X580000Y954920D01*
Y956952D02*
X576952Y963048D01*
X583048D01*
X580000Y956952D01*
X560000Y514920D02*
X554920Y525080D01*
X565080D01*
X560000Y514920D01*
Y516952D02*
X556952Y523048D01*
X563048D01*
X560000Y516952D01*
X580000Y474920D02*
X574920Y485080D01*
X585080D01*
X580000Y474920D01*
Y476952D02*
X576952Y483048D01*
X583048D01*
X580000Y476952D01*
X560000Y434920D02*
X554920Y445080D01*
X565080D01*
X560000Y434920D01*
Y436952D02*
X556952Y443048D01*
X563048D01*
X560000Y436952D01*
X540000Y474920D02*
X534920Y485080D01*
X545080D01*
X540000Y474920D01*
Y476952D02*
X536952Y483048D01*
X543048D01*
X540000Y476952D01*
X480000Y754920D02*
X474920Y765080D01*
X485080D01*
X480000Y754920D01*
Y756952D02*
X476952Y763048D01*
X483048D01*
X480000Y756952D01*
Y674920D02*
X474920Y685080D01*
X485080D01*
X480000Y674920D01*
Y676952D02*
X476952Y683048D01*
X483048D01*
X480000Y676952D01*
X440000Y914920D02*
X434920Y925080D01*
X445080D01*
X440000Y914920D01*
Y916952D02*
X436952Y923048D01*
X443048D01*
X440000Y916952D01*
X460000Y874920D02*
X454920Y885080D01*
X465080D01*
X460000Y874920D01*
Y876952D02*
X456952Y883048D01*
X463048D01*
X460000Y876952D01*
X440000Y674920D02*
X434920Y685080D01*
X445080D01*
X440000Y674920D01*
Y676952D02*
X436952Y683048D01*
X443048D01*
X440000Y676952D01*
X460000Y634920D02*
X454920Y645080D01*
X465080D01*
X460000Y634920D01*
Y636952D02*
X456952Y643048D01*
X463048D01*
X460000Y636952D01*
X440000Y514920D02*
X434920Y525080D01*
X445080D01*
X440000Y514920D01*
Y516952D02*
X436952Y523048D01*
X443048D01*
X440000Y516952D01*
X460000Y474920D02*
X454920Y485080D01*
X465080D01*
X460000Y474920D01*
Y476952D02*
X456952Y483048D01*
X463048D01*
X460000Y476952D01*
X440000Y434920D02*
X434920Y445080D01*
X445080D01*
X440000Y434920D01*
Y436952D02*
X436952Y443048D01*
X443048D01*
X440000Y436952D01*
X400000Y994920D02*
X394920Y1005080D01*
X405080D01*
X400000Y994920D01*
Y996952D02*
X396952Y1003048D01*
X403048D01*
X400000Y996952D01*
X420000Y954920D02*
X414920Y965080D01*
X425080D01*
X420000Y954920D01*
Y956952D02*
X416952Y963048D01*
X423048D01*
X420000Y956952D01*
X400000Y914920D02*
X394920Y925080D01*
X405080D01*
X400000Y914920D01*
Y916952D02*
X396952Y923048D01*
X403048D01*
X400000Y916952D01*
Y834920D02*
X394920Y845080D01*
X405080D01*
X400000Y834920D01*
Y836952D02*
X396952Y843048D01*
X403048D01*
X400000Y836952D01*
Y674920D02*
X394920Y685080D01*
X405080D01*
X400000Y674920D01*
Y676952D02*
X396952Y683048D01*
X403048D01*
X400000Y676952D01*
X420000Y634920D02*
X414920Y645080D01*
X425080D01*
X420000Y634920D01*
Y636952D02*
X416952Y643048D01*
X423048D01*
X420000Y636952D01*
X400000Y514920D02*
X394920Y525080D01*
X405080D01*
X400000Y514920D01*
Y516952D02*
X396952Y523048D01*
X403048D01*
X400000Y516952D01*
Y434920D02*
X394920Y445080D01*
X405080D01*
X400000Y434920D01*
Y436952D02*
X396952Y443048D01*
X403048D01*
X400000Y436952D01*
X360000Y994920D02*
X354920Y1005080D01*
X365080D01*
X360000Y994920D01*
Y996952D02*
X356952Y1003048D01*
X363048D01*
X360000Y996952D01*
X380000Y954920D02*
X374920Y965080D01*
X385080D01*
X380000Y954920D01*
Y956952D02*
X376952Y963048D01*
X383048D01*
X380000Y956952D01*
X360000Y914920D02*
X354920Y925080D01*
X365080D01*
X360000Y914920D01*
Y916952D02*
X356952Y923048D01*
X363048D01*
X360000Y916952D01*
X380000Y874920D02*
X374920Y885080D01*
X385080D01*
X380000Y874920D01*
Y876952D02*
X376952Y883048D01*
X383048D01*
X380000Y876952D01*
Y794920D02*
X374920Y805080D01*
X385080D01*
X380000Y794920D01*
Y796952D02*
X376952Y803048D01*
X383048D01*
X380000Y796952D01*
X360000Y754920D02*
X354920Y765080D01*
X365080D01*
X360000Y754920D01*
Y756952D02*
X356952Y763048D01*
X363048D01*
X360000Y756952D01*
X380000Y714920D02*
X374920Y725080D01*
X385080D01*
X380000Y714920D01*
Y716952D02*
X376952Y723048D01*
X383048D01*
X380000Y716952D01*
Y474920D02*
X374920Y485080D01*
X385080D01*
X380000Y474920D01*
Y476952D02*
X376952Y483048D01*
X383048D01*
X380000Y476952D01*
X360000Y434920D02*
X354920Y445080D01*
X365080D01*
X360000Y434920D01*
Y436952D02*
X356952Y443048D01*
X363048D01*
X360000Y436952D01*
X320000Y994920D02*
X314920Y1005080D01*
X325080D01*
X320000Y994920D01*
Y996952D02*
X316952Y1003048D01*
X323048D01*
X320000Y996952D01*
X340000Y954920D02*
X334920Y965080D01*
X345080D01*
X340000Y954920D01*
Y956952D02*
X336952Y963048D01*
X343048D01*
X340000Y956952D01*
X320000Y914920D02*
X314920Y925080D01*
X325080D01*
X320000Y914920D01*
Y916952D02*
X316952Y923048D01*
X323048D01*
X320000Y916952D01*
X340000Y874920D02*
X334920Y885080D01*
X345080D01*
X340000Y874920D01*
Y876952D02*
X336952Y883048D01*
X343048D01*
X340000Y876952D01*
X320000Y834920D02*
X314920Y845080D01*
X325080D01*
X320000Y834920D01*
Y836952D02*
X316952Y843048D01*
X323048D01*
X320000Y836952D01*
X340000Y794920D02*
X334920Y805080D01*
X345080D01*
X340000Y794920D01*
Y796952D02*
X336952Y803048D01*
X343048D01*
X340000Y796952D01*
X320000Y754920D02*
X314920Y765080D01*
X325080D01*
X320000Y754920D01*
Y756952D02*
X316952Y763048D01*
X323048D01*
X320000Y756952D01*
X340000Y714920D02*
X334920Y725080D01*
X345080D01*
X340000Y714920D01*
Y716952D02*
X336952Y723048D01*
X343048D01*
X340000Y716952D01*
X320000Y514920D02*
X314920Y525080D01*
X325080D01*
X320000Y514920D01*
Y516952D02*
X316952Y523048D01*
X323048D01*
X320000Y516952D01*
X340000Y474920D02*
X334920Y485080D01*
X345080D01*
X340000Y474920D01*
Y476952D02*
X336952Y483048D01*
X343048D01*
X340000Y476952D01*
X320000Y434920D02*
X314920Y445080D01*
X325080D01*
X320000Y434920D01*
Y436952D02*
X316952Y443048D01*
X323048D01*
X320000Y436952D01*
X300000Y954920D02*
X294920Y965080D01*
X305080D01*
X300000Y954920D01*
Y956952D02*
X296952Y963048D01*
X303048D01*
X300000Y956952D01*
X280000Y914920D02*
X274920Y925080D01*
X285080D01*
X280000Y914920D01*
Y916952D02*
X276952Y923048D01*
X283048D01*
X280000Y916952D01*
Y834920D02*
X274920Y845080D01*
X285080D01*
X280000Y834920D01*
Y836952D02*
X276952Y843048D01*
X283048D01*
X280000Y836952D01*
X300000Y794920D02*
X294920Y805080D01*
X305080D01*
X300000Y794920D01*
Y796952D02*
X296952Y803048D01*
X303048D01*
X300000Y796952D01*
X280000Y754920D02*
X274920Y765080D01*
X285080D01*
X280000Y754920D01*
Y756952D02*
X276952Y763048D01*
X283048D01*
X280000Y756952D01*
X300000Y714920D02*
X294920Y725080D01*
X305080D01*
X300000Y714920D01*
Y716952D02*
X296952Y723048D01*
X303048D01*
X300000Y716952D01*
X280000Y674920D02*
X274920Y685080D01*
X285080D01*
X280000Y674920D01*
Y676952D02*
X276952Y683048D01*
X283048D01*
X280000Y676952D01*
X300000Y634920D02*
X294920Y645080D01*
X305080D01*
X300000Y634920D01*
Y636952D02*
X296952Y643048D01*
X303048D01*
X300000Y636952D01*
X280000Y514920D02*
X274920Y525080D01*
X285080D01*
X280000Y514920D01*
Y516952D02*
X276952Y523048D01*
X283048D01*
X280000Y516952D01*
X300000Y474920D02*
X294920Y485080D01*
X305080D01*
X300000Y474920D01*
Y476952D02*
X296952Y483048D01*
X303048D01*
X300000Y476952D01*
X492750Y418420D02*
X487670Y428580D01*
X497830D01*
X492750Y418420D01*
Y420452D02*
X489702Y426548D01*
X495798D01*
X492750Y420452D01*
X492500Y457670D02*
X487420Y467830D01*
X497580D01*
X492500Y457670D01*
Y459702D02*
X489452Y465798D01*
X495548D01*
X492500Y459702D01*
X363000Y807920D02*
X357920Y818080D01*
X368080D01*
X363000Y807920D01*
Y809952D02*
X359952Y816048D01*
X366048D01*
X363000Y809952D01*
X392000Y817170D02*
X386920Y827330D01*
X397080D01*
X392000Y817170D01*
Y819202D02*
X388952Y825298D01*
X395048D01*
X392000Y819202D01*
X434750Y887670D02*
X429670Y897830D01*
X439830D01*
X434750Y887670D01*
Y889702D02*
X431702Y895798D01*
X437798D01*
X434750Y889702D01*
X540000Y916420D02*
X534920Y926580D01*
X545080D01*
X540000Y916420D01*
Y918452D02*
X536952Y924548D01*
X543048D01*
X540000Y918452D01*
X510500Y902420D02*
X505420Y912580D01*
X515580D01*
X510500Y902420D01*
Y904452D02*
X507452Y910548D01*
X513548D01*
X510500Y904452D01*
X520750Y890670D02*
X515670Y900830D01*
X525830D01*
X520750Y890670D01*
Y892702D02*
X517702Y898798D01*
X523798D01*
X520750Y892702D01*
X512750Y831420D02*
X507670Y841580D01*
X517830D01*
X512750Y831420D01*
Y833452D02*
X509702Y839548D01*
X515798D01*
X512750Y833452D01*
X564250Y823670D02*
X559170Y833830D01*
X569330D01*
X564250Y823670D01*
Y825702D02*
X561202Y831798D01*
X567298D01*
X564250Y825702D01*
X550500Y785420D02*
X545420Y795580D01*
X555580D01*
X550500Y785420D01*
Y787452D02*
X547452Y793548D01*
X553548D01*
X550500Y787452D01*
X520500Y772920D02*
X515420Y783080D01*
X525580D01*
X520500Y772920D01*
Y774952D02*
X517452Y781048D01*
X523548D01*
X520500Y774952D01*
X797750Y714420D02*
X792670Y724580D01*
X802830D01*
X797750Y714420D01*
Y716452D02*
X794702Y722548D01*
X800798D01*
X797750Y716452D01*
X752500Y494670D02*
X747420Y504830D01*
X757580D01*
X752500Y494670D01*
Y496702D02*
X749452Y502798D01*
X755548D01*
X752500Y496702D01*
X772000Y478920D02*
X766920Y489080D01*
X777080D01*
X772000Y478920D01*
Y480952D02*
X768952Y487048D01*
X775048D01*
X772000Y480952D01*
X804500Y529670D02*
X799420Y539830D01*
X809580D01*
X804500Y529670D01*
Y531702D02*
X801452Y537798D01*
X807548D01*
X804500Y531702D01*
X782000Y619170D02*
X776920Y629330D01*
X787080D01*
X782000Y619170D01*
Y621202D02*
X778952Y627298D01*
X785048D01*
X782000Y621202D01*
X787599Y604117D02*
X782519Y614277D01*
X792679D01*
X787599Y604117D01*
Y606149D02*
X784551Y612245D01*
X790647D01*
X787599Y606149D01*
X691250Y633920D02*
X686170Y644080D01*
X696330D01*
X691250Y633920D01*
Y635952D02*
X688202Y642048D01*
X694298D01*
X691250Y635952D01*
X676250Y604920D02*
X671170Y615080D01*
X681330D01*
X676250Y604920D01*
Y606952D02*
X673202Y613048D01*
X679298D01*
X676250Y606952D01*
X586500Y493420D02*
X581420Y503580D01*
X591580D01*
X586500Y493420D01*
Y495452D02*
X583452Y501548D01*
X589548D01*
X586500Y495452D01*
X462750Y562670D02*
X457670Y572830D01*
X467830D01*
X462750Y562670D01*
Y564702D02*
X459702Y570798D01*
X465798D01*
X462750Y564702D01*
X432750Y573420D02*
X427670Y583580D01*
X437830D01*
X432750Y573420D01*
Y575452D02*
X429702Y581548D01*
X435798D01*
X432750Y575452D01*
X410000Y584670D02*
X404920Y594830D01*
X415080D01*
X410000Y584670D01*
Y586702D02*
X406952Y592798D01*
X413048D01*
X410000Y586702D01*
X423500Y623420D02*
X418420Y633580D01*
X428580D01*
X423500Y623420D01*
Y625452D02*
X420452Y631548D01*
X426548D01*
X423500Y625452D01*
X280250Y545920D02*
X275170Y556080D01*
X285330D01*
X280250Y545920D01*
Y547952D02*
X277202Y554048D01*
X283298D01*
X280250Y547952D01*
X331000Y561170D02*
X325920Y571330D01*
X336080D01*
X331000Y561170D01*
Y563202D02*
X327952Y569298D01*
X334048D01*
X331000Y563202D01*
X321250Y572420D02*
X316170Y582580D01*
X326330D01*
X321250Y572420D01*
Y574452D02*
X318202Y580548D01*
X324298D01*
X321250Y574452D01*
X713770Y566138D02*
X718850Y571218D01*
X723930Y566138D01*
X718850Y561058D01*
X713770Y566138D01*
Y577138D02*
X718850Y582218D01*
X723930Y577138D01*
X718850Y572058D01*
X713770Y577138D01*
Y588138D02*
X718850Y593218D01*
X723930Y588138D01*
X718850Y583058D01*
X713770Y588138D01*
X724770Y566138D02*
X729850Y571218D01*
X734930Y566138D01*
X729850Y561058D01*
X724770Y566138D01*
Y577138D02*
X729850Y582218D01*
X734930Y577138D01*
X729850Y572058D01*
X724770Y577138D01*
Y588138D02*
X729850Y593218D01*
X734930Y588138D01*
X729850Y583058D01*
X724770Y588138D01*
X735770Y566138D02*
X740850Y571218D01*
X745930Y566138D01*
X740850Y561058D01*
X735770Y566138D01*
Y577138D02*
X740850Y582218D01*
X745930Y577138D01*
X740850Y572058D01*
X735770Y577138D01*
Y588138D02*
X740850Y593218D01*
X745930Y588138D01*
X740850Y583058D01*
X735770Y588138D01*
X778745Y533127D02*
X773665Y543287D01*
X783825D01*
X778745Y533127D01*
Y535159D02*
X775697Y541255D01*
X781793D01*
X778745Y535159D01*
X766000Y547920D02*
X760920Y558080D01*
X771080D01*
X766000Y547920D01*
Y549952D02*
X762952Y556048D01*
X769048D01*
X766000Y549952D01*
X540250Y846420D02*
X535170Y856580D01*
X545330D01*
X540250Y846420D01*
Y848452D02*
X537202Y854548D01*
X543298D01*
X540250Y848452D01*
X568750Y853670D02*
X563670Y863830D01*
X573830D01*
X568750Y853670D01*
Y855702D02*
X565702Y861798D01*
X571798D01*
X568750Y855702D01*
X337000Y538670D02*
X331920Y548830D01*
X342080D01*
X337000Y538670D01*
Y540702D02*
X333952Y546798D01*
X340048D01*
X337000Y540702D01*
Y547170D02*
X331920Y557330D01*
X342080D01*
X337000Y547170D01*
Y549202D02*
X333952Y555298D01*
X340048D01*
X337000Y549202D01*
X352750Y542670D02*
X347670Y552830D01*
X357830D01*
X352750Y542670D01*
Y544702D02*
X349702Y550798D01*
X355798D01*
X352750Y544702D01*
X336500Y585170D02*
X331420Y595330D01*
X341580D01*
X336500Y585170D01*
Y587202D02*
X333452Y593298D01*
X339548D01*
X336500Y587202D01*
X305750Y576920D02*
X300670Y587080D01*
X310830D01*
X305750Y576920D01*
Y578952D02*
X302702Y585048D01*
X308798D01*
X305750Y578952D01*
X280750Y536920D02*
X275670Y547080D01*
X285830D01*
X280750Y536920D01*
Y538952D02*
X277702Y545048D01*
X283798D01*
X280750Y538952D01*
X660001Y458921D02*
X654921Y469081D01*
X665081D01*
X660001Y458921D01*
Y460952D02*
X656953Y467048D01*
X663049D01*
X660001Y460952D01*
X704001Y450920D02*
X698921Y461081D01*
X709081D01*
X704001Y450920D01*
Y452952D02*
X700953Y459049D01*
X707049D01*
X704001Y452952D01*
X648001Y418921D02*
X642921Y429081D01*
X653081D01*
X648001Y418921D01*
Y420952D02*
X644953Y427048D01*
X651049D01*
X648001Y420952D01*
Y450920D02*
X642921Y461081D01*
X653081D01*
X648001Y450920D01*
Y452952D02*
X644953Y459049D01*
X651049D01*
X648001Y452952D01*
X652001Y426921D02*
X646921Y437080D01*
X657081D01*
X652001Y426921D01*
Y428952D02*
X648953Y435048D01*
X655049D01*
X652001Y428952D01*
X700001Y458921D02*
X694921Y469081D01*
X705081D01*
X700001Y458921D01*
Y460952D02*
X696953Y467048D01*
X703049D01*
X700001Y460952D01*
X692001Y458921D02*
X686921Y469081D01*
X697081D01*
X692001Y458921D01*
Y460952D02*
X688953Y467048D01*
X695049D01*
X692001Y460952D01*
X652001Y458921D02*
X646921Y469081D01*
X657081D01*
X652001Y458921D01*
Y460952D02*
X648953Y467048D01*
X655049D01*
X652001Y460952D01*
X668001Y458921D02*
X662921Y469081D01*
X673081D01*
X668001Y458921D01*
Y460952D02*
X664953Y467048D01*
X671049D01*
X668001Y460952D01*
X648001Y434921D02*
X642921Y445080D01*
X653081D01*
X648001Y434921D01*
Y436953D02*
X644953Y443049D01*
X651049D01*
X648001Y436953D01*
X652001Y442920D02*
X646921Y453080D01*
X657081D01*
X652001Y442920D01*
Y444953D02*
X648953Y451049D01*
X655049D01*
X652001Y444953D01*
X676001Y458921D02*
X670921Y469081D01*
X681081D01*
X676001Y458921D01*
Y460952D02*
X672953Y467048D01*
X679049D01*
X676001Y460952D01*
X684001Y458921D02*
X678921Y469081D01*
X689081D01*
X684001Y458921D01*
Y460952D02*
X680953Y467048D01*
X687049D01*
X684001Y460952D01*
X305500Y531920D02*
X300420Y542080D01*
X310580D01*
X305500Y531920D01*
Y533952D02*
X302452Y540048D01*
X308548D01*
X305500Y533952D01*
X655750Y565670D02*
X650670Y575830D01*
X660830D01*
X655750Y565670D01*
Y567702D02*
X652702Y573798D01*
X658798D01*
X655750Y567702D01*
X668000Y543670D02*
X662920Y553830D01*
X673080D01*
X668000Y543670D01*
Y545702D02*
X664952Y551798D01*
X671048D01*
X668000Y545702D01*
X488000Y639670D02*
X482920Y649830D01*
X493080D01*
X488000Y639670D01*
Y641702D02*
X484952Y647798D01*
X491048D01*
X488000Y641702D01*
X679750Y527170D02*
X674670Y537330D01*
X684830D01*
X679750Y527170D01*
Y529202D02*
X676702Y535298D01*
X682798D01*
X679750Y529202D01*
X703750Y622420D02*
X698670Y632580D01*
X708830D01*
X703750Y622420D01*
Y624452D02*
X700702Y630548D01*
X706798D01*
X703750Y624452D01*
X732750Y647920D02*
X727670Y658080D01*
X737830D01*
X732750Y647920D01*
Y649952D02*
X729702Y656048D01*
X735798D01*
X732750Y649952D01*
X767250Y619170D02*
X762170Y629330D01*
X772330D01*
X767250Y619170D01*
Y621202D02*
X764202Y627298D01*
X770298D01*
X767250Y621202D01*
X816500Y546170D02*
X811420Y556330D01*
X821580D01*
X816500Y546170D01*
Y548202D02*
X813452Y554298D01*
X819548D01*
X816500Y548202D01*
X812000Y513670D02*
X806920Y523830D01*
X817080D01*
X812000Y513670D01*
Y515702D02*
X808952Y521798D01*
X815048D01*
X812000Y515702D01*
X514500Y880920D02*
X509420Y891080D01*
X519580D01*
X514500Y880920D01*
Y882952D02*
X511452Y889048D01*
X517548D01*
X514500Y882952D01*
X780000Y954921D02*
X774920Y965080D01*
X785080D01*
X780000Y954921D01*
Y956953D02*
X776952Y963048D01*
X783048D01*
X780000Y956953D01*
Y934921D02*
X774920Y945080D01*
X785080D01*
X780000Y934921D01*
Y936953D02*
X776952Y943048D01*
X783048D01*
X780000Y936953D01*
Y914921D02*
X774920Y925080D01*
X785080D01*
X780000Y914921D01*
Y916953D02*
X776952Y923048D01*
X783048D01*
X780000Y916953D01*
Y894921D02*
X774920Y905080D01*
X785080D01*
X780000Y894921D01*
Y896953D02*
X776952Y903048D01*
X783048D01*
X780000Y896953D01*
Y874921D02*
X774920Y885080D01*
X785080D01*
X780000Y874921D01*
Y876953D02*
X776952Y883048D01*
X783048D01*
X780000Y876953D01*
Y854921D02*
X774920Y865080D01*
X785080D01*
X780000Y854921D01*
Y856953D02*
X776952Y863048D01*
X783048D01*
X780000Y856953D01*
Y834921D02*
X774920Y845080D01*
X785080D01*
X780000Y834921D01*
Y836953D02*
X776952Y843048D01*
X783048D01*
X780000Y836953D01*
Y814920D02*
X774920Y825080D01*
X785080D01*
X780000Y814920D01*
Y816952D02*
X776952Y823048D01*
X783048D01*
X780000Y816952D01*
Y794920D02*
X774920Y805080D01*
X785080D01*
X780000Y794920D01*
Y796952D02*
X776952Y803048D01*
X783048D01*
X780000Y796952D01*
Y774920D02*
X774920Y785080D01*
X785080D01*
X780000Y774920D01*
Y776952D02*
X776952Y783048D01*
X783048D01*
X780000Y776952D01*
X775000Y964921D02*
X769920Y975080D01*
X780080D01*
X775000Y964921D01*
Y966953D02*
X771952Y973048D01*
X778048D01*
X775000Y966953D01*
X770000Y954921D02*
X764920Y965080D01*
X775080D01*
X770000Y954921D01*
Y956953D02*
X766952Y963048D01*
X773048D01*
X770000Y956953D01*
X775000Y944921D02*
X769920Y955080D01*
X780080D01*
X775000Y944921D01*
Y946953D02*
X771952Y953048D01*
X778048D01*
X775000Y946953D01*
X770000Y934921D02*
X764920Y945080D01*
X775080D01*
X770000Y934921D01*
Y936953D02*
X766952Y943048D01*
X773048D01*
X770000Y936953D01*
X775000Y924921D02*
X769920Y935080D01*
X780080D01*
X775000Y924921D01*
Y926953D02*
X771952Y933048D01*
X778048D01*
X775000Y926953D01*
X770000Y914921D02*
X764920Y925080D01*
X775080D01*
X770000Y914921D01*
Y916953D02*
X766952Y923048D01*
X773048D01*
X770000Y916953D01*
X775000Y904921D02*
X769920Y915080D01*
X780080D01*
X775000Y904921D01*
Y906953D02*
X771952Y913048D01*
X778048D01*
X775000Y906953D01*
X770000Y894921D02*
X764920Y905080D01*
X775080D01*
X770000Y894921D01*
Y896953D02*
X766952Y903048D01*
X773048D01*
X770000Y896953D01*
X775000Y884921D02*
X769920Y895080D01*
X780080D01*
X775000Y884921D01*
Y886953D02*
X771952Y893048D01*
X778048D01*
X775000Y886953D01*
X770000Y874921D02*
X764920Y885080D01*
X775080D01*
X770000Y874921D01*
Y876953D02*
X766952Y883048D01*
X773048D01*
X770000Y876953D01*
X775000Y864921D02*
X769920Y875080D01*
X780080D01*
X775000Y864921D01*
Y866953D02*
X771952Y873048D01*
X778048D01*
X775000Y866953D01*
X770000Y854921D02*
X764920Y865080D01*
X775080D01*
X770000Y854921D01*
Y856953D02*
X766952Y863048D01*
X773048D01*
X770000Y856953D01*
X775000Y844921D02*
X769920Y855080D01*
X780080D01*
X775000Y844921D01*
Y846953D02*
X771952Y853048D01*
X778048D01*
X775000Y846953D01*
X770000Y834921D02*
X764920Y845080D01*
X775080D01*
X770000Y834921D01*
Y836953D02*
X766952Y843048D01*
X773048D01*
X770000Y836953D01*
X775000Y824920D02*
X769920Y835080D01*
X780080D01*
X775000Y824920D01*
Y826952D02*
X771952Y833048D01*
X778048D01*
X775000Y826952D01*
X770000Y814920D02*
X764920Y825080D01*
X775080D01*
X770000Y814920D01*
Y816952D02*
X766952Y823048D01*
X773048D01*
X770000Y816952D01*
X775000Y804920D02*
X769920Y815080D01*
X780080D01*
X775000Y804920D01*
Y806952D02*
X771952Y813048D01*
X778048D01*
X775000Y806952D01*
X770000Y794920D02*
X764920Y805080D01*
X775080D01*
X770000Y794920D01*
Y796952D02*
X766952Y803048D01*
X773048D01*
X770000Y796952D01*
X775000Y784920D02*
X769920Y795080D01*
X780080D01*
X775000Y784920D01*
Y786952D02*
X771952Y793048D01*
X778048D01*
X775000Y786952D01*
X770000Y774920D02*
X764920Y785080D01*
X775080D01*
X770000Y774920D01*
Y776952D02*
X766952Y783048D01*
X773048D01*
X770000Y776952D01*
X765000Y964921D02*
X759920Y975080D01*
X770080D01*
X765000Y964921D01*
Y966953D02*
X761952Y973048D01*
X768048D01*
X765000Y966953D01*
Y924921D02*
X759920Y935080D01*
X770080D01*
X765000Y924921D01*
Y926953D02*
X761952Y933048D01*
X768048D01*
X765000Y926953D01*
X760000Y834921D02*
X754920Y845080D01*
X765080D01*
X760000Y834921D01*
Y836953D02*
X756952Y843048D01*
X763048D01*
X760000Y836953D01*
X765000Y824920D02*
X759920Y835080D01*
X770080D01*
X765000Y824920D01*
Y826952D02*
X761952Y833048D01*
X768048D01*
X765000Y826952D01*
X760000Y814920D02*
X754920Y825080D01*
X765080D01*
X760000Y814920D01*
Y816952D02*
X756952Y823048D01*
X763048D01*
X760000Y816952D01*
X765000Y804920D02*
X759920Y815080D01*
X770080D01*
X765000Y804920D01*
Y806952D02*
X761952Y813048D01*
X768048D01*
X765000Y806952D01*
X760000Y794920D02*
X754920Y805080D01*
X765080D01*
X760000Y794920D01*
Y796952D02*
X756952Y803048D01*
X763048D01*
X760000Y796952D01*
X755000Y964921D02*
X749920Y975080D01*
X760080D01*
X755000Y964921D01*
Y966953D02*
X751952Y973048D01*
X758048D01*
X755000Y966953D01*
Y924921D02*
X749920Y935080D01*
X760080D01*
X755000Y924921D01*
Y926953D02*
X751952Y933048D01*
X758048D01*
X755000Y926953D01*
X750000Y834921D02*
X744920Y845080D01*
X755080D01*
X750000Y834921D01*
Y836953D02*
X746952Y843048D01*
X753048D01*
X750000Y836953D01*
X755000Y824920D02*
X749920Y835080D01*
X760080D01*
X755000Y824920D01*
Y826952D02*
X751952Y833048D01*
X758048D01*
X755000Y826952D01*
X750000Y814920D02*
X744920Y825080D01*
X755080D01*
X750000Y814920D01*
Y816952D02*
X746952Y823048D01*
X753048D01*
X750000Y816952D01*
X755000Y804920D02*
X749920Y815080D01*
X760080D01*
X755000Y804920D01*
Y806952D02*
X751952Y813048D01*
X758048D01*
X755000Y806952D01*
X750000Y794920D02*
X744920Y805080D01*
X755080D01*
X750000Y794920D01*
Y796952D02*
X746952Y803048D01*
X753048D01*
X750000Y796952D01*
X725000Y964921D02*
X719920Y975080D01*
X730080D01*
X725000Y964921D01*
Y966953D02*
X721952Y973048D01*
X728048D01*
X725000Y966953D01*
X715000Y964921D02*
X709920Y975080D01*
X720080D01*
X715000Y964921D01*
Y966953D02*
X711952Y973048D01*
X718048D01*
X715000Y966953D01*
X705000Y964921D02*
X699920Y975080D01*
X710080D01*
X705000Y964921D01*
Y966953D02*
X701952Y973048D01*
X708048D01*
X705000Y966953D01*
X700000Y954921D02*
X694920Y965080D01*
X705080D01*
X700000Y954921D01*
Y956953D02*
X696952Y963048D01*
X703048D01*
X700000Y956953D01*
X695000Y964921D02*
X689920Y975080D01*
X700080D01*
X695000Y964921D01*
Y966953D02*
X691952Y973048D01*
X698048D01*
X695000Y966953D01*
X690000Y954921D02*
X684920Y965080D01*
X695080D01*
X690000Y954921D01*
Y956953D02*
X686952Y963048D01*
X693048D01*
X690000Y956953D01*
X695000Y944921D02*
X689920Y955080D01*
X700080D01*
X695000Y944921D01*
Y946953D02*
X691952Y953048D01*
X698048D01*
X695000Y946953D01*
X690000Y814920D02*
X684920Y825080D01*
X695080D01*
X690000Y814920D01*
Y816952D02*
X686952Y823048D01*
X693048D01*
X690000Y816952D01*
X695000Y804920D02*
X689920Y815080D01*
X700080D01*
X695000Y804920D01*
Y806952D02*
X691952Y813048D01*
X698048D01*
X695000Y806952D01*
X690000Y794920D02*
X684920Y805080D01*
X695080D01*
X690000Y794920D01*
Y796952D02*
X686952Y803048D01*
X693048D01*
X690000Y796952D01*
X685000Y944921D02*
X679920Y955080D01*
X690080D01*
X685000Y944921D01*
Y946953D02*
X681952Y953048D01*
X688048D01*
X685000Y946953D01*
X680000Y814920D02*
X674920Y825080D01*
X685080D01*
X680000Y814920D01*
Y816952D02*
X676952Y823048D01*
X683048D01*
X680000Y816952D01*
X685000Y804920D02*
X679920Y815080D01*
X690080D01*
X685000Y804920D01*
Y806952D02*
X681952Y813048D01*
X688048D01*
X685000Y806952D01*
X680000Y794920D02*
X674920Y805080D01*
X685080D01*
X680000Y794920D01*
Y796952D02*
X676952Y803048D01*
X683048D01*
X680000Y796952D01*
X670000Y934921D02*
X664920Y945080D01*
X675080D01*
X670000Y934921D01*
Y936953D02*
X666952Y943048D01*
X673048D01*
X670000Y936953D01*
X675000Y924921D02*
X669920Y935080D01*
X680080D01*
X675000Y924921D01*
Y926953D02*
X671952Y933048D01*
X678048D01*
X675000Y926953D01*
X670000Y914921D02*
X664920Y925080D01*
X675080D01*
X670000Y914921D01*
Y916953D02*
X666952Y923048D01*
X673048D01*
X670000Y916953D01*
X675000Y904921D02*
X669920Y915080D01*
X680080D01*
X675000Y904921D01*
Y906953D02*
X671952Y913048D01*
X678048D01*
X675000Y906953D01*
X670000Y894921D02*
X664920Y905080D01*
X675080D01*
X670000Y894921D01*
Y896953D02*
X666952Y903048D01*
X673048D01*
X670000Y896953D01*
X675000Y884921D02*
X669920Y895080D01*
X680080D01*
X675000Y884921D01*
Y886953D02*
X671952Y893048D01*
X678048D01*
X675000Y886953D01*
Y844921D02*
X669920Y855080D01*
X680080D01*
X675000Y844921D01*
Y846953D02*
X671952Y853048D01*
X678048D01*
X675000Y846953D01*
X670000Y834921D02*
X664920Y845080D01*
X675080D01*
X670000Y834921D01*
Y836953D02*
X666952Y843048D01*
X673048D01*
X670000Y836953D01*
X675000Y824920D02*
X669920Y835080D01*
X680080D01*
X675000Y824920D01*
Y826952D02*
X671952Y833048D01*
X678048D01*
X675000Y826952D01*
X670000Y814920D02*
X664920Y825080D01*
X675080D01*
X670000Y814920D01*
Y816952D02*
X666952Y823048D01*
X673048D01*
X670000Y816952D01*
X675000Y804920D02*
X669920Y815080D01*
X680080D01*
X675000Y804920D01*
Y806952D02*
X671952Y813048D01*
X678048D01*
X675000Y806952D01*
X670000Y794920D02*
X664920Y805080D01*
X675080D01*
X670000Y794920D01*
Y796952D02*
X666952Y803048D01*
X673048D01*
X670000Y796952D01*
Y774920D02*
X664920Y785080D01*
X675080D01*
X670000Y774920D01*
Y776952D02*
X666952Y783048D01*
X673048D01*
X670000Y776952D01*
X660000Y934921D02*
X654920Y945080D01*
X665080D01*
X660000Y934921D01*
Y936953D02*
X656952Y943048D01*
X663048D01*
X660000Y936953D01*
X665000Y924921D02*
X659920Y935080D01*
X670080D01*
X665000Y924921D01*
Y926953D02*
X661952Y933048D01*
X668048D01*
X665000Y926953D01*
X660000Y914921D02*
X654920Y925080D01*
X665080D01*
X660000Y914921D01*
Y916953D02*
X656952Y923048D01*
X663048D01*
X660000Y916953D01*
X665000Y904921D02*
X659920Y915080D01*
X670080D01*
X665000Y904921D01*
Y906953D02*
X661952Y913048D01*
X668048D01*
X665000Y906953D01*
X660000Y894921D02*
X654920Y905080D01*
X665080D01*
X660000Y894921D01*
Y896953D02*
X656952Y903048D01*
X663048D01*
X660000Y896953D01*
X665000Y884921D02*
X659920Y895080D01*
X670080D01*
X665000Y884921D01*
Y886953D02*
X661952Y893048D01*
X668048D01*
X665000Y886953D01*
X660000Y834921D02*
X654920Y845080D01*
X665080D01*
X660000Y834921D01*
Y836953D02*
X656952Y843048D01*
X663048D01*
X660000Y836953D01*
X665000Y824920D02*
X659920Y835080D01*
X670080D01*
X665000Y824920D01*
Y826952D02*
X661952Y833048D01*
X668048D01*
X665000Y826952D01*
X660000Y814920D02*
X654920Y825080D01*
X665080D01*
X660000Y814920D01*
Y816952D02*
X656952Y823048D01*
X663048D01*
X660000Y816952D01*
X665000Y804920D02*
X659920Y815080D01*
X670080D01*
X665000Y804920D01*
Y806952D02*
X661952Y813048D01*
X668048D01*
X665000Y806952D01*
X660000Y794920D02*
X654920Y805080D01*
X665080D01*
X660000Y794920D01*
Y796952D02*
X656952Y803048D01*
X663048D01*
X660000Y796952D01*
X665000Y784920D02*
X659920Y795080D01*
X670080D01*
X665000Y784920D01*
Y786952D02*
X661952Y793048D01*
X668048D01*
X665000Y786952D01*
X660000Y774920D02*
X654920Y785080D01*
X665080D01*
X660000Y774920D01*
Y776952D02*
X656952Y783048D01*
X663048D01*
X660000Y776952D01*
X655000Y964921D02*
X649920Y975080D01*
X660080D01*
X655000Y964921D01*
Y966953D02*
X651952Y973048D01*
X658048D01*
X655000Y966953D01*
X650000Y954921D02*
X644920Y965080D01*
X655080D01*
X650000Y954921D01*
Y956953D02*
X646952Y963048D01*
X653048D01*
X650000Y956953D01*
X655000Y944921D02*
X649920Y955080D01*
X660080D01*
X655000Y944921D01*
Y946953D02*
X651952Y953048D01*
X658048D01*
X655000Y946953D01*
X650000Y934921D02*
X644920Y945080D01*
X655080D01*
X650000Y934921D01*
Y936953D02*
X646952Y943048D01*
X653048D01*
X650000Y936953D01*
X655000Y924921D02*
X649920Y935080D01*
X660080D01*
X655000Y924921D01*
Y926953D02*
X651952Y933048D01*
X658048D01*
X655000Y926953D01*
X650000Y914921D02*
X644920Y925080D01*
X655080D01*
X650000Y914921D01*
Y916953D02*
X646952Y923048D01*
X653048D01*
X650000Y916953D01*
X655000Y904921D02*
X649920Y915080D01*
X660080D01*
X655000Y904921D01*
Y906953D02*
X651952Y913048D01*
X658048D01*
X655000Y906953D01*
X650000Y894921D02*
X644920Y905080D01*
X655080D01*
X650000Y894921D01*
Y896953D02*
X646952Y903048D01*
X653048D01*
X650000Y896953D01*
X655000Y884921D02*
X649920Y895080D01*
X660080D01*
X655000Y884921D01*
Y886953D02*
X651952Y893048D01*
X658048D01*
X655000Y886953D01*
X650000Y874921D02*
X644920Y885080D01*
X655080D01*
X650000Y874921D01*
Y876953D02*
X646952Y883048D01*
X653048D01*
X650000Y876953D01*
X655000Y864921D02*
X649920Y875080D01*
X660080D01*
X655000Y864921D01*
Y866953D02*
X651952Y873048D01*
X658048D01*
X655000Y866953D01*
X650000Y854921D02*
X644920Y865080D01*
X655080D01*
X650000Y854921D01*
Y856953D02*
X646952Y863048D01*
X653048D01*
X650000Y856953D01*
X655000Y844921D02*
X649920Y855080D01*
X660080D01*
X655000Y844921D01*
Y846953D02*
X651952Y853048D01*
X658048D01*
X655000Y846953D01*
X650000Y834921D02*
X644920Y845080D01*
X655080D01*
X650000Y834921D01*
Y836953D02*
X646952Y843048D01*
X653048D01*
X650000Y836953D01*
X655000Y824920D02*
X649920Y835080D01*
X660080D01*
X655000Y824920D01*
Y826952D02*
X651952Y833048D01*
X658048D01*
X655000Y826952D01*
X650000Y814920D02*
X644920Y825080D01*
X655080D01*
X650000Y814920D01*
Y816952D02*
X646952Y823048D01*
X653048D01*
X650000Y816952D01*
X655000Y804920D02*
X649920Y815080D01*
X660080D01*
X655000Y804920D01*
Y806952D02*
X651952Y813048D01*
X658048D01*
X655000Y806952D01*
X650000Y794920D02*
X644920Y805080D01*
X655080D01*
X650000Y794920D01*
Y796952D02*
X646952Y803048D01*
X653048D01*
X650000Y796952D01*
X655000Y784920D02*
X649920Y795080D01*
X660080D01*
X655000Y784920D01*
Y786952D02*
X651952Y793048D01*
X658048D01*
X655000Y786952D01*
X650000Y774920D02*
X644920Y785080D01*
X655080D01*
X650000Y774920D01*
Y776952D02*
X646952Y783048D01*
X653048D01*
X650000Y776952D01*
X538750Y561920D02*
X533670Y572080D01*
X543830D01*
X538750Y561920D01*
Y563952D02*
X535702Y570048D01*
X541798D01*
X538750Y563952D01*
X765250Y592920D02*
X760170Y603080D01*
X770330D01*
X765250Y592920D01*
Y594952D02*
X762202Y601048D01*
X768298D01*
X765250Y594952D01*
X669250Y622420D02*
X664170Y632580D01*
X674330D01*
X669250Y622420D01*
Y624452D02*
X666202Y630548D01*
X672298D01*
X669250Y624452D01*
X579500Y542420D02*
X574420Y552580D01*
X584580D01*
X579500Y542420D01*
Y544452D02*
X576452Y550548D01*
X582548D01*
X579500Y544452D01*
X408500Y546670D02*
X403420Y556830D01*
X413580D01*
X408500Y546670D01*
Y548702D02*
X405452Y554798D01*
X411548D01*
X408500Y548702D01*
X512000Y636170D02*
X506920Y646330D01*
X517080D01*
X512000Y636170D01*
Y638202D02*
X508952Y644298D01*
X515048D01*
X512000Y638202D01*
X528500Y605170D02*
X523420Y615330D01*
X533580D01*
X528500Y605170D01*
Y607202D02*
X525452Y613298D01*
X531548D01*
X528500Y607202D01*
X521750Y931170D02*
X516670Y941330D01*
X526830D01*
X521750Y931170D01*
Y933202D02*
X518702Y939298D01*
X524798D01*
X521750Y933202D01*
Y943920D02*
X516670Y954080D01*
X526830D01*
X521750Y943920D01*
Y945952D02*
X518702Y952048D01*
X524798D01*
X521750Y945952D01*
X551250Y918420D02*
X546170Y928580D01*
X556330D01*
X551250Y918420D01*
Y920452D02*
X548202Y926548D01*
X554298D01*
X551250Y920452D01*
X571250Y902420D02*
X566170Y912580D01*
X576330D01*
X571250Y902420D01*
Y904452D02*
X568202Y910548D01*
X574298D01*
X571250Y904452D01*
X559250Y872670D02*
X554170Y882830D01*
X564330D01*
X559250Y872670D01*
Y874702D02*
X556202Y880798D01*
X562298D01*
X559250Y874702D01*
X585000Y835670D02*
X579920Y845830D01*
X590080D01*
X585000Y835670D01*
Y837702D02*
X581952Y843798D01*
X588048D01*
X585000Y837702D01*
X400250Y795920D02*
X395170Y806080D01*
X405330D01*
X400250Y795920D01*
Y797952D02*
X397202Y804048D01*
X403298D01*
X400250Y797952D01*
X401750Y758670D02*
X396670Y768830D01*
X406830D01*
X401750Y758670D01*
Y760702D02*
X398702Y766798D01*
X404798D01*
X401750Y760702D01*
X734000Y479920D02*
X728920Y490080D01*
X739080D01*
X734000Y479920D01*
Y481952D02*
X730952Y488048D01*
X737048D01*
X734000Y481952D01*
X713750Y493670D02*
X708670Y503830D01*
X718830D01*
X713750Y493670D01*
Y495702D02*
X710702Y501798D01*
X716798D01*
X713750Y495702D01*
X792750Y545920D02*
X787670Y556080D01*
X797830D01*
X792750Y545920D01*
Y547952D02*
X789702Y554048D01*
X795798D01*
X792750Y547952D01*
X763250Y570170D02*
X758170Y580330D01*
X768330D01*
X763250Y570170D01*
Y572202D02*
X760202Y578298D01*
X766298D01*
X763250Y572202D01*
X714000Y502170D02*
X708920Y512330D01*
X719080D01*
X714000Y502170D01*
Y504202D02*
X710952Y510298D01*
X717048D01*
X714000Y504202D01*
X772324Y561094D02*
X767244Y571254D01*
X777404D01*
X772324Y561094D01*
Y563126D02*
X769276Y569222D01*
X775372D01*
X772324Y563126D01*
X733134Y516795D02*
X728054Y526955D01*
X738214D01*
X733134Y516795D01*
Y518827D02*
X730086Y524923D01*
X736182D01*
X733134Y518827D01*
X772500Y572420D02*
X767420Y582580D01*
X777580D01*
X772500Y572420D01*
Y574452D02*
X769452Y580548D01*
X775548D01*
X772500Y574452D01*
X733134Y527795D02*
X728054Y537955D01*
X738214D01*
X733134Y527795D01*
Y529827D02*
X730086Y535923D01*
X736182D01*
X733134Y529827D01*
X714566Y532423D02*
X709486Y542583D01*
X719646D01*
X714566Y532423D01*
Y534455D02*
X711518Y540551D01*
X717614D01*
X714566Y534455D01*
X500500Y507170D02*
X495420Y517330D01*
X505580D01*
X500500Y507170D01*
Y509202D02*
X497452Y515298D01*
X503548D01*
X500500Y509202D01*
X517750Y514183D02*
X512670Y524343D01*
X522830D01*
X517750Y514183D01*
Y516215D02*
X514702Y522311D01*
X520798D01*
X517750Y516215D01*
X474750Y514183D02*
X469670Y524343D01*
X479830D01*
X474750Y514183D01*
Y516215D02*
X471702Y522311D01*
X477798D01*
X474750Y516215D01*
X724250Y633014D02*
X719170Y643174D01*
X729330D01*
X724250Y633014D01*
Y635046D02*
X721202Y641142D01*
X727298D01*
X724250Y635046D01*
X700750Y605420D02*
X695670Y615580D01*
X705830D01*
X700750Y605420D01*
Y607452D02*
X697702Y613548D01*
X703798D01*
X700750Y607452D01*
X716000Y610920D02*
X710920Y621080D01*
X721080D01*
X716000Y610920D01*
Y612952D02*
X712952Y619048D01*
X719048D01*
X716000Y612952D01*
X687500Y566170D02*
X682420Y576330D01*
X692580D01*
X687500Y566170D01*
Y568202D02*
X684452Y574298D01*
X690548D01*
X687500Y568202D01*
X654500Y518920D02*
X649420Y529080D01*
X659580D01*
X654500Y518920D01*
Y520952D02*
X651452Y527048D01*
X657548D01*
X654500Y520952D01*
X696250Y568920D02*
X691170Y579080D01*
X701330D01*
X696250Y568920D01*
Y570952D02*
X693202Y577048D01*
X699298D01*
X696250Y570952D01*
X427500Y719420D02*
X422420Y729580D01*
X432580D01*
X427500Y719420D01*
Y721452D02*
X424452Y727548D01*
X430548D01*
X427500Y721452D01*
X468500Y731420D02*
X463420Y741580D01*
X473580D01*
X468500Y731420D01*
Y733452D02*
X465452Y739548D01*
X471548D01*
X468500Y733452D01*
X280500Y571170D02*
X275420Y581330D01*
X285580D01*
X280500Y571170D01*
Y573202D02*
X277452Y579298D01*
X283548D01*
X280500Y573202D01*
X285750Y578170D02*
X280670Y588330D01*
X290830D01*
X285750Y578170D01*
Y580202D02*
X282702Y586298D01*
X288798D01*
X285750Y580202D01*
X290500Y586170D02*
X285420Y596330D01*
X295580D01*
X290500Y586170D01*
Y588202D02*
X287452Y594298D01*
X293548D01*
X290500Y588202D01*
X280750Y586170D02*
X275670Y596330D01*
X285830D01*
X280750Y586170D01*
Y588202D02*
X277702Y594298D01*
X283798D01*
X280750Y588202D01*
X344500Y619920D02*
X339420Y630080D01*
X349580D01*
X344500Y619920D01*
Y621952D02*
X341452Y628048D01*
X347548D01*
X344500Y621952D01*
X343500Y685420D02*
X338420Y695580D01*
X348580D01*
X343500Y685420D01*
Y687452D02*
X340452Y693548D01*
X346548D01*
X343500Y687452D01*
X314750Y633920D02*
X309670Y644080D01*
X319830D01*
X314750Y633920D01*
Y635952D02*
X311702Y642048D01*
X317798D01*
X314750Y635952D01*
Y670170D02*
X309670Y680330D01*
X319830D01*
X314750Y670170D01*
Y672202D02*
X311702Y678298D01*
X317798D01*
X314750Y672202D01*
X365000Y671170D02*
X359920Y681330D01*
X370080D01*
X365000Y671170D01*
Y673202D02*
X361952Y679298D01*
X368048D01*
X365000Y673202D01*
X356250Y644670D02*
X351170Y654830D01*
X361330D01*
X356250Y644670D01*
Y646702D02*
X353202Y652798D01*
X359298D01*
X356250Y646702D01*
X381250Y562920D02*
X376170Y573080D01*
X386330D01*
X381250Y562920D01*
Y564952D02*
X378202Y571048D01*
X384298D01*
X381250Y564952D01*
X371000Y562920D02*
X365920Y573080D01*
X376080D01*
X371000Y562920D01*
Y564952D02*
X367952Y571048D01*
X374048D01*
X371000Y564952D01*
X381000Y573420D02*
X375920Y583580D01*
X386080D01*
X381000Y573420D01*
Y575452D02*
X377952Y581548D01*
X384048D01*
X381000Y575452D01*
X371500Y573420D02*
X366420Y583580D01*
X376580D01*
X371500Y573420D01*
Y575452D02*
X368452Y581548D01*
X374548D01*
X371500Y575452D01*
X381000Y582670D02*
X375920Y592830D01*
X386080D01*
X381000Y582670D01*
Y584702D02*
X377952Y590798D01*
X384048D01*
X381000Y584702D01*
X371500Y582670D02*
X366420Y592830D01*
X376580D01*
X371500Y582670D01*
Y584702D02*
X368452Y590798D01*
X374548D01*
X371500Y584702D01*
X315250Y557170D02*
X310170Y567330D01*
X320330D01*
X315250Y557170D01*
Y559202D02*
X312202Y565298D01*
X318298D01*
X315250Y559202D01*
X783750Y555670D02*
X778670Y565830D01*
X788830D01*
X783750Y555670D01*
Y557702D02*
X780702Y563798D01*
X786798D01*
X783750Y557702D01*
X830125Y710295D02*
X825045Y720455D01*
X835205D01*
X830125Y710295D01*
Y712327D02*
X827077Y718423D01*
X833173D01*
X830125Y712327D01*
X388250Y654920D02*
X383170Y665080D01*
X393330D01*
X388250Y654920D01*
Y656952D02*
X385202Y663048D01*
X391298D01*
X388250Y656952D01*
X439750Y731170D02*
X434670Y741330D01*
X444830D01*
X439750Y731170D01*
Y733202D02*
X436702Y739298D01*
X442798D01*
X439750Y733202D01*
X715501Y455453D02*
X710421Y465613D01*
X720581D01*
X715501Y455453D01*
Y457485D02*
X712453Y463581D01*
X718549D01*
X715501Y457485D01*
X712985Y444744D02*
X707905Y454905D01*
X718065D01*
X712985Y444744D01*
Y446777D02*
X709937Y452873D01*
X716033D01*
X712985Y446777D01*
X705067Y437109D02*
X699987Y447269D01*
X710147D01*
X705067Y437109D01*
Y439141D02*
X702019Y445237D01*
X708115D01*
X705067Y439141D01*
X730957Y537143D02*
X725877Y547303D01*
X736037D01*
X730957Y537143D01*
Y539175D02*
X727909Y545271D01*
X734005D01*
X730957Y539175D01*
X714566Y521423D02*
X709486Y531583D01*
X719646D01*
X714566Y521423D01*
Y523455D02*
X711518Y529551D01*
X717614D01*
X714566Y523455D01*
X714728Y466426D02*
X709649Y476586D01*
X719809D01*
X714728Y466426D01*
Y468458D02*
X711681Y474554D01*
X717776D01*
X714728Y468458D01*
X708002Y418442D02*
X702922Y428602D01*
X713082D01*
X708002Y418442D01*
Y420474D02*
X704954Y426570D01*
X711050D01*
X708002Y420474D01*
X717986Y423060D02*
X712906Y433220D01*
X723066D01*
X717986Y423060D01*
Y425092D02*
X714938Y431188D01*
X721034D01*
X717986Y425092D01*
X726021Y430572D02*
X720941Y440732D01*
X731101D01*
X726021Y430572D01*
Y432604D02*
X722973Y438700D01*
X729069D01*
X726021Y432604D01*
X731302Y440222D02*
X726222Y450382D01*
X736382D01*
X731302Y440222D01*
Y442254D02*
X728254Y448350D01*
X734350D01*
X731302Y442254D01*
X733297Y451039D02*
X728216Y461199D01*
X738376D01*
X733297Y451039D01*
Y453071D02*
X730248Y459167D01*
X736345D01*
X733297Y453071D01*
X732250Y460670D02*
X727170Y470830D01*
X737330D01*
X732250Y460670D01*
Y462702D02*
X729202Y468798D01*
X735298D01*
X732250Y462702D01*
X734000Y471420D02*
X728920Y481580D01*
X739080D01*
X734000Y471420D01*
Y473452D02*
X730952Y479548D01*
X737048D01*
X734000Y473452D01*
X732010Y494843D02*
X726929Y505003D01*
X737089D01*
X732010Y494843D01*
Y496875D02*
X728961Y502971D01*
X735058D01*
X732010Y496875D01*
X733034Y505796D02*
X727954Y515956D01*
X738114D01*
X733034Y505796D01*
Y507828D02*
X729986Y513924D01*
X736082D01*
X733034Y507828D01*
D144*
X677980Y961750D02*
G03*
X677980Y961750I-5080J0D01*
G01*
X806080D02*
G03*
X806080Y961750I-5080J0D01*
G01*
X878080Y995250D02*
G03*
X878080Y995250I-5080J0D01*
G01*
Y453500D02*
G03*
X878080Y453500I-5080J0D01*
G01*
X299330D02*
G03*
X299330Y453500I-5080J0D01*
G01*
Y995250D02*
G03*
X299330Y995250I-5080J0D01*
G01*
D145*
X876048D02*
G03*
X876048Y995250I-3048J0D01*
G01*
Y453500D02*
G03*
X876048Y453500I-3048J0D01*
G01*
X297298D02*
G03*
X297298Y453500I-3048J0D01*
G01*
Y995250D02*
G03*
X297298Y995250I-3048J0D01*
G01*
M02*
