G04*
G04 #@! TF.GenerationSoftware,Altium Limited,Altium Designer,24.4.1 (13)*
G04*
G04 Layer_Color=8388736*
%FSLAX44Y44*%
%MOMM*%
G71*
G04*
G04 #@! TF.SameCoordinates,92E24F71-BE29-44F9-BD6D-AE99B804E02A*
G04*
G04*
G04 #@! TF.FilePolarity,Positive*
G04*
G01*
G75*
%ADD12C,0.2000*%
%ADD14C,0.1000*%
%ADD18C,0.1524*%
%ADD135C,0.0500*%
G36*
X883868Y769938D02*
X673810D01*
Y847154D01*
X883868D01*
Y769938D01*
D02*
G37*
D12*
X516000Y509000D02*
X526000D01*
X516000D02*
Y515000D01*
X526000D01*
Y509000D02*
Y515000D01*
X485000Y515250D02*
X495000D01*
Y509250D02*
Y515250D01*
X485000Y509250D02*
X495000D01*
X485000D02*
Y515250D01*
X466250Y515750D02*
X476250D01*
Y509750D02*
Y515750D01*
X466250Y509750D02*
X476250D01*
X466250D02*
Y515750D01*
X588966Y498750D02*
Y533750D01*
X635966D01*
Y498750D02*
Y533750D01*
X588966Y498750D02*
X635966D01*
D14*
X729850Y572138D02*
Y582138D01*
X724850Y577138D02*
X734850D01*
D18*
X673810Y769938D02*
X883868D01*
X673810D02*
Y847154D01*
X883868D01*
Y769938D02*
Y847154D01*
D135*
X339598Y547714D02*
G03*
X339598Y547714I-2500J0D01*
G01*
X298150Y562500D02*
G03*
X298150Y562500I-1650J0D01*
G01*
X682250Y867750D02*
G03*
X682250Y867750I-2500J0D01*
G01*
X745150Y728750D02*
G03*
X745150Y728750I-1650J0D01*
G01*
Y719000D02*
G03*
X745150Y719000I-1650J0D01*
G01*
X557150Y912000D02*
G03*
X557150Y912000I-1650J0D01*
G01*
X557150Y902500D02*
G03*
X557150Y902500I-1650J0D01*
G01*
X541650Y907500D02*
G03*
X541650Y907500I-1650J0D01*
G01*
X552400Y842750D02*
G03*
X552400Y842750I-1650J0D01*
G01*
X552150Y851750D02*
G03*
X552150Y851750I-1650J0D01*
G01*
X516372Y870518D02*
G03*
X516372Y870518I-1650J0D01*
G01*
X525900Y907500D02*
G03*
X525900Y907500I-1650J0D01*
G01*
X507228Y870772D02*
G03*
X507228Y870772I-1650J0D01*
G01*
X411650Y752750D02*
G03*
X411650Y752750I-1650J0D01*
G01*
X464900Y529500D02*
G03*
X464900Y529500I-1650J0D01*
G01*
X571150Y542500D02*
G03*
X571150Y542500I-1650J0D01*
G01*
X435400Y843000D02*
G03*
X435400Y843000I-1650J0D01*
G01*
X492650Y529500D02*
G03*
X492650Y529500I-1650J0D01*
G01*
X617418Y491358D02*
G03*
X617418Y491358I-1650J0D01*
G01*
X530150Y572000D02*
G03*
X530150Y572000I-1650J0D01*
G01*
Y594750D02*
G03*
X530150Y594750I-1650J0D01*
G01*
X542650Y516000D02*
G03*
X542650Y516000I-1650J0D01*
G01*
X436650Y752750D02*
G03*
X436650Y752750I-1650J0D01*
G01*
X354344Y580606D02*
G03*
X354344Y580606I-1650J0D01*
G01*
X334900Y580500D02*
G03*
X334900Y580500I-1650J0D01*
G01*
X352400Y676250D02*
G03*
X352400Y676250I-1650J0D01*
G01*
X353230Y640000D02*
G03*
X353230Y640000I-1650J0D01*
G01*
X827400Y542000D02*
G03*
X827400Y542000I-1650J0D01*
G01*
X400900Y556500D02*
G03*
X400900Y556500I-1650J0D01*
G01*
X373750Y541500D02*
G03*
X373750Y541500I-2500J0D01*
G01*
X818150Y565750D02*
G03*
X818150Y565750I-1650J0D01*
G01*
X806162Y576126D02*
G03*
X806162Y576126I-1650J0D01*
G01*
X725400Y500750D02*
G03*
X725400Y500750I-1650J0D01*
G01*
X725650Y467000D02*
G03*
X725650Y467000I-1650J0D01*
G01*
X737928Y870134D02*
G03*
X737928Y870134I-2500J0D01*
G01*
X738000Y908000D02*
G03*
X738000Y908000I-2500J0D01*
G01*
X317750Y544770D02*
G03*
X317750Y544770I-2500J0D01*
G01*
X352270Y566750D02*
G03*
X352270Y566750I-2500J0D01*
G01*
X802625Y521000D02*
G03*
X802625Y521000I-1875J0D01*
G01*
X790385Y571046D02*
G03*
X790385Y571046I-1875J0D01*
G01*
Y581206D02*
G03*
X790385Y581206I-1875J0D01*
G01*
X757397Y647554D02*
G03*
X757397Y647554I-1875J0D01*
G01*
X769377Y493494D02*
G03*
X769377Y493494I-1875J0D01*
G01*
X779131Y605752D02*
G03*
X779131Y605752I-1875J0D01*
G01*
X772625Y544000D02*
G03*
X772625Y544000I-1875J0D01*
G01*
X746475Y647808D02*
G03*
X746475Y647808I-1875J0D01*
G01*
X745375Y506500D02*
G03*
X745375Y506500I-1875J0D01*
G01*
X779175Y616326D02*
G03*
X779175Y616326I-1875J0D01*
G01*
X806375Y554250D02*
G03*
X806375Y554250I-1875J0D01*
G01*
X720625Y517750D02*
G03*
X720625Y517750I-1875J0D01*
G01*
X720875Y483750D02*
G03*
X720875Y483750I-1875J0D01*
G01*
X697541Y625968D02*
G03*
X697541Y625968I-1875J0D01*
G01*
X686875Y548500D02*
G03*
X686875Y548500I-1875J0D01*
G01*
X687127Y626044D02*
G03*
X687127Y626044I-1875J0D01*
G01*
X519375Y826500D02*
G03*
X519375Y826500I-1875J0D01*
G01*
X565875Y865750D02*
G03*
X565875Y865750I-1875J0D01*
G01*
X581625Y829000D02*
G03*
X581625Y829000I-1875J0D01*
G01*
X682875Y601250D02*
G03*
X682875Y601250I-1875J0D01*
G01*
X674625Y571250D02*
G03*
X674625Y571250I-1875J0D01*
G01*
X509703Y628512D02*
G03*
X509703Y628512I-1875J0D01*
G01*
X402375Y818000D02*
G03*
X402375Y818000I-1875J0D01*
G01*
X439625Y628750D02*
G03*
X439625Y628750I-1875J0D01*
G01*
X439375Y588750D02*
G03*
X439375Y588750I-1875J0D01*
G01*
X593259Y491358D02*
G03*
X593259Y491358I-1875J0D01*
G01*
X297613Y573016D02*
G03*
X297613Y573016I-1875J0D01*
G01*
X297105Y551680D02*
G03*
X297105Y551680I-1875J0D01*
G01*
X354875Y590500D02*
G03*
X354875Y590500I-1875J0D01*
G01*
X777622Y516354D02*
G03*
X777622Y516354I-2500J0D01*
G01*
X539238Y877082D02*
G03*
X539238Y877082I-2500J0D01*
G01*
X437250Y870750D02*
G03*
X437250Y870750I-2500J0D01*
G01*
X822500Y739750D02*
G03*
X822500Y739750I-2500J0D01*
G01*
X776634Y729024D02*
G03*
X776634Y729024I-2500J0D01*
G01*
X489500Y596000D02*
G03*
X489500Y596000I-2500J0D01*
G01*
X436250Y794500D02*
G03*
X436250Y794500I-2500J0D01*
G01*
X562650Y796950D02*
G03*
X562650Y796950I-2500J0D01*
G01*
X333598Y547714D02*
X340598D01*
X337098Y544214D02*
Y551214D01*
X324598Y560214D02*
X349598D01*
X324598Y557814D02*
Y560214D01*
X322498Y557814D02*
X324598D01*
X322498Y537614D02*
Y557814D01*
Y537614D02*
X324598D01*
Y535214D02*
Y537614D01*
Y535214D02*
X349598D01*
Y537614D01*
X351698D01*
Y557814D01*
X349598D02*
X351698D01*
X349598D02*
Y560214D01*
X809000Y525000D02*
Y537000D01*
Y525000D02*
X837000D01*
Y537000D01*
X809000D02*
X837000D01*
X823000Y526000D02*
Y536000D01*
X818000Y531000D02*
X828000D01*
X393500Y595500D02*
X405500D01*
X393500Y567500D02*
Y595500D01*
Y567500D02*
X405500D01*
Y595500D01*
X394500Y581500D02*
X404500D01*
X399500Y576500D02*
Y586500D01*
X699100Y607888D02*
X760600D01*
X699100Y546388D02*
X760600D01*
Y607888D01*
X699100Y546388D02*
Y607888D01*
X296500Y560300D02*
Y564700D01*
X294300Y562500D02*
X298700D01*
X287500Y558100D02*
X305500D01*
Y566900D01*
X287500D02*
X305500D01*
X287500Y558100D02*
Y566900D01*
X369200Y676875D02*
X411400D01*
Y642625D02*
Y676875D01*
X369200Y642625D02*
X411400D01*
X369200D02*
Y676875D01*
X644400Y1035250D02*
X829500D01*
Y938250D02*
Y1035250D01*
X644400Y938250D02*
X829500D01*
X644400D02*
Y1035250D01*
X359250Y767000D02*
Y909000D01*
X256250Y767000D02*
X359250D01*
X256250D02*
Y909000D01*
X359250D01*
X554750Y931000D02*
Y1034000D01*
X437750D02*
X554750D01*
X437750Y931000D02*
Y1034000D01*
Y931000D02*
X554750D01*
X254950Y708750D02*
X339250D01*
X254950Y607350D02*
Y708750D01*
Y607350D02*
X339250D01*
Y708750D01*
X658050Y851850D02*
Y883650D01*
X701450D01*
Y851850D02*
Y883650D01*
X658050Y851850D02*
X701450D01*
X676250Y867750D02*
X683250D01*
X679750Y864250D02*
Y871250D01*
X734500Y724350D02*
Y733150D01*
X752500D01*
Y724350D02*
Y733150D01*
X734500Y724350D02*
X752500D01*
X741300Y728750D02*
X745700D01*
X743500Y726550D02*
Y730950D01*
X734500Y714600D02*
Y723400D01*
X752500D01*
Y714600D02*
Y723400D01*
X734500Y714600D02*
X752500D01*
X741300Y719000D02*
X745700D01*
X743500Y716800D02*
Y721200D01*
X546500Y907600D02*
Y916400D01*
X564500D01*
Y907600D02*
Y916400D01*
X546500Y907600D02*
X564500D01*
X553300Y912000D02*
X557700D01*
X555500Y909800D02*
Y914200D01*
X546500Y898100D02*
Y906900D01*
X564500D01*
Y898100D02*
Y906900D01*
X546500Y898100D02*
X564500D01*
X553300Y902500D02*
X557700D01*
X555500Y900300D02*
Y904700D01*
X535600Y916500D02*
X544400D01*
Y898500D02*
Y916500D01*
X535600Y898500D02*
X544400D01*
X535600D02*
Y916500D01*
X540000Y905300D02*
Y909700D01*
X537800Y907500D02*
X542200D01*
X559750Y838350D02*
Y847150D01*
X541750Y838350D02*
X559750D01*
X541750D02*
Y847150D01*
X559750D01*
X548550Y842750D02*
X552950D01*
X550750Y840550D02*
Y844950D01*
X541500Y847350D02*
Y856150D01*
X559500D01*
Y847350D02*
Y856150D01*
X541500Y847350D02*
X559500D01*
X548300Y851750D02*
X552700D01*
X550500Y849550D02*
Y853950D01*
X510322Y861518D02*
X519122D01*
X510322D02*
Y879518D01*
X519122D01*
Y861518D02*
Y879518D01*
X514722Y868318D02*
Y872718D01*
X512522Y870518D02*
X516922D01*
X515250Y903100D02*
Y911900D01*
X533250D01*
Y903100D02*
Y911900D01*
X515250Y903100D02*
X533250D01*
X522050Y907500D02*
X526450D01*
X524250Y905300D02*
Y909700D01*
X501178Y879772D02*
X509978D01*
Y861772D02*
Y879772D01*
X501178Y861772D02*
X509978D01*
X501178D02*
Y879772D01*
X505578Y868572D02*
Y872972D01*
X503378Y870772D02*
X507778D01*
X419000Y748350D02*
Y757150D01*
X401000Y748350D02*
X419000D01*
X401000D02*
Y757150D01*
X419000D01*
X407800Y752750D02*
X412200D01*
X410000Y750550D02*
Y754950D01*
X472250Y525100D02*
Y533900D01*
X454250Y525100D02*
X472250D01*
X454250D02*
Y533900D01*
X472250D01*
X461050Y529500D02*
X465450D01*
X463250Y527300D02*
Y531700D01*
X565100Y533500D02*
X573900D01*
X565100D02*
Y551500D01*
X573900D01*
Y533500D02*
Y551500D01*
X569500Y540300D02*
Y544700D01*
X567300Y542500D02*
X571700D01*
X424750Y838600D02*
Y847400D01*
X442750D01*
Y838600D02*
Y847400D01*
X424750Y838600D02*
X442750D01*
X431550Y843000D02*
X435950D01*
X433750Y840800D02*
Y845200D01*
X482000Y525100D02*
Y533900D01*
X500000D01*
Y525100D02*
Y533900D01*
X482000Y525100D02*
X500000D01*
X488800Y529500D02*
X493200D01*
X491000Y527300D02*
Y531700D01*
X624768Y486958D02*
Y495758D01*
X606768Y486958D02*
X624768D01*
X606768D02*
Y495758D01*
X624768D01*
X613568Y491358D02*
X617968D01*
X615768Y489158D02*
Y493558D01*
X524100Y563000D02*
X532900D01*
X524100D02*
Y581000D01*
X532900D01*
Y563000D02*
Y581000D01*
X528500Y569800D02*
Y574200D01*
X526300Y572000D02*
X530700D01*
X524100Y603750D02*
X532900D01*
Y585750D02*
Y603750D01*
X524100Y585750D02*
X532900D01*
X524100D02*
Y603750D01*
X528500Y592550D02*
Y596950D01*
X526300Y594750D02*
X530700D01*
X536600Y507000D02*
X545400D01*
X536600D02*
Y525000D01*
X545400D01*
Y507000D02*
Y525000D01*
X541000Y513800D02*
Y518200D01*
X538800Y516000D02*
X543200D01*
X426000Y748350D02*
Y757150D01*
X444000D01*
Y748350D02*
Y757150D01*
X426000Y748350D02*
X444000D01*
X432800Y752750D02*
X437200D01*
X435000Y750550D02*
Y754950D01*
X343694Y576206D02*
Y585006D01*
X361694D01*
Y576206D02*
Y585006D01*
X343694Y576206D02*
X361694D01*
X350494Y580606D02*
X354894D01*
X352694Y578406D02*
Y582806D01*
X324250Y576100D02*
Y584900D01*
X342250D01*
Y576100D02*
Y584900D01*
X324250Y576100D02*
X342250D01*
X331050Y580500D02*
X335450D01*
X333250Y578300D02*
Y582700D01*
X359750Y671850D02*
Y680650D01*
X341750Y671850D02*
X359750D01*
X341750D02*
Y680650D01*
X359750D01*
X348550Y676250D02*
X352950D01*
X350750Y674050D02*
Y678450D01*
X360580Y635600D02*
Y644400D01*
X342580Y635600D02*
X360580D01*
X342580D02*
Y644400D01*
X360580D01*
X349380Y640000D02*
X353780D01*
X351580Y637800D02*
Y642200D01*
X816750Y537600D02*
Y546400D01*
X834750D01*
Y537600D02*
Y546400D01*
X816750Y537600D02*
X834750D01*
X823550Y542000D02*
X827950D01*
X825750Y539800D02*
Y544200D01*
X394850Y547500D02*
X403650D01*
X394850D02*
Y565500D01*
X403650D01*
Y547500D02*
Y565500D01*
X399250Y554300D02*
Y558700D01*
X397050Y556500D02*
X401450D01*
X367750Y541500D02*
X374750D01*
X371250Y538000D02*
Y545000D01*
X384350Y522900D02*
Y560100D01*
X358150D02*
X384350D01*
X358150Y522900D02*
Y560100D01*
Y522900D02*
X384350D01*
X812100Y574750D02*
X820900D01*
Y556750D02*
Y574750D01*
X812100Y556750D02*
X820900D01*
X812100D02*
Y574750D01*
X816500Y563550D02*
Y567950D01*
X814300Y565750D02*
X818700D01*
X800112Y585126D02*
X808912D01*
Y567126D02*
Y585126D01*
X800112Y567126D02*
X808912D01*
X800112D02*
Y585126D01*
X804512Y573926D02*
Y578326D01*
X802312Y576126D02*
X806712D01*
X719350Y509750D02*
X728150D01*
Y491750D02*
Y509750D01*
X719350Y491750D02*
X728150D01*
X719350D02*
Y509750D01*
X723750Y498550D02*
Y502950D01*
X721550Y500750D02*
X725950D01*
X719600Y476000D02*
X728400D01*
Y458000D02*
Y476000D01*
X719600Y458000D02*
X728400D01*
X719600D02*
Y476000D01*
X724000Y464800D02*
Y469200D01*
X721800Y467000D02*
X726200D01*
X735428Y866634D02*
Y873634D01*
X731928Y870134D02*
X738928D01*
X704928Y850534D02*
X765928D01*
Y889734D01*
X704928D02*
X765928D01*
X704928Y850534D02*
Y889734D01*
X735500Y904500D02*
Y911500D01*
X732000Y908000D02*
X739000D01*
X705000Y888400D02*
X766000D01*
Y927600D01*
X705000D02*
X766000D01*
X705000Y888400D02*
Y927600D01*
X308150Y530670D02*
X322350D01*
X308150D02*
Y558870D01*
X322350D01*
Y530670D02*
Y558870D01*
X315250Y541270D02*
Y548270D01*
X311750Y544770D02*
X318750D01*
X335670Y559650D02*
Y573850D01*
X363870D01*
Y559650D02*
Y573850D01*
X335670Y559650D02*
X363870D01*
X346270Y566750D02*
X353270D01*
X349770Y563250D02*
Y570250D01*
X795750Y530600D02*
X805750D01*
Y511400D02*
Y530600D01*
X795750Y511400D02*
X805750D01*
X795750D02*
Y530600D01*
X800750Y518500D02*
Y523500D01*
X798250Y521000D02*
X803250D01*
X778910Y566046D02*
Y576046D01*
X798110D01*
Y566046D02*
Y576046D01*
X778910Y566046D02*
X798110D01*
X786010Y571046D02*
X791010D01*
X788510Y568546D02*
Y573546D01*
X778910Y576206D02*
Y586206D01*
X798110D01*
Y576206D02*
Y586206D01*
X778910Y576206D02*
X798110D01*
X786010Y581206D02*
X791010D01*
X788510Y578706D02*
Y583706D01*
X750522Y657154D02*
X760522D01*
Y637954D02*
Y657154D01*
X750522Y637954D02*
X760522D01*
X750522D02*
Y657154D01*
X755522Y645054D02*
Y650054D01*
X753022Y647554D02*
X758022D01*
X757902Y488494D02*
Y498494D01*
X777102D01*
Y488494D02*
Y498494D01*
X757902Y488494D02*
X777102D01*
X765002Y493494D02*
X770002D01*
X767502Y490994D02*
Y495994D01*
X786856Y600752D02*
Y610752D01*
X767656Y600752D02*
X786856D01*
X767656D02*
Y610752D01*
X786856D01*
X774756Y605752D02*
X779756D01*
X777256Y603252D02*
Y608252D01*
X780350Y539000D02*
Y549000D01*
X761150Y539000D02*
X780350D01*
X761150D02*
Y549000D01*
X780350D01*
X768250Y544000D02*
X773250D01*
X770750Y541500D02*
Y546500D01*
X739600Y657408D02*
X749600D01*
Y638208D02*
Y657408D01*
X739600Y638208D02*
X749600D01*
X739600D02*
Y657408D01*
X744600Y645308D02*
Y650308D01*
X742100Y647808D02*
X747100D01*
X738500Y516100D02*
X748500D01*
Y496900D02*
Y516100D01*
X738500Y496900D02*
X748500D01*
X738500D02*
Y516100D01*
X743500Y504000D02*
Y509000D01*
X741000Y506500D02*
X746000D01*
X786900Y611326D02*
Y621326D01*
X767700Y611326D02*
X786900D01*
X767700D02*
Y621326D01*
X786900D01*
X774800Y616326D02*
X779800D01*
X777300Y613826D02*
Y618826D01*
X799500Y563850D02*
X809500D01*
Y544650D02*
Y563850D01*
X799500Y544650D02*
X809500D01*
X799500D02*
Y563850D01*
X804500Y551750D02*
Y556750D01*
X802000Y554250D02*
X807000D01*
X709150Y512750D02*
Y522750D01*
X728350D01*
Y512750D02*
Y522750D01*
X709150Y512750D02*
X728350D01*
X716250Y517750D02*
X721250D01*
X718750Y515250D02*
Y520250D01*
X709400Y478750D02*
Y488750D01*
X728600D01*
Y478750D02*
Y488750D01*
X709400Y478750D02*
X728600D01*
X716500Y483750D02*
X721500D01*
X719000Y481250D02*
Y486250D01*
X690666Y635568D02*
X700666D01*
Y616368D02*
Y635568D01*
X690666Y616368D02*
X700666D01*
X690666D02*
Y635568D01*
X695666Y623468D02*
Y628468D01*
X693166Y625968D02*
X698166D01*
X675400Y543500D02*
Y553500D01*
X694600D01*
Y543500D02*
Y553500D01*
X675400Y543500D02*
X694600D01*
X682500Y548500D02*
X687500D01*
X685000Y546000D02*
Y551000D01*
X680252Y635644D02*
X690252D01*
Y616444D02*
Y635644D01*
X680252Y616444D02*
X690252D01*
X680252D02*
Y635644D01*
X685252Y623544D02*
Y628544D01*
X682752Y626044D02*
X687752D01*
X527100Y821500D02*
Y831500D01*
X507900Y821500D02*
X527100D01*
X507900D02*
Y831500D01*
X527100D01*
X515000Y826500D02*
X520000D01*
X517500Y824000D02*
Y829000D01*
X573600Y860750D02*
Y870750D01*
X554400Y860750D02*
X573600D01*
X554400D02*
Y870750D01*
X573600D01*
X561500Y865750D02*
X566500D01*
X564000Y863250D02*
Y868250D01*
X570150Y824000D02*
Y834000D01*
X589350D01*
Y824000D02*
Y834000D01*
X570150Y824000D02*
X589350D01*
X577250Y829000D02*
X582250D01*
X579750Y826500D02*
Y831500D01*
X671400Y596250D02*
Y606250D01*
X690600D01*
Y596250D02*
Y606250D01*
X671400Y596250D02*
X690600D01*
X678500Y601250D02*
X683500D01*
X681000Y598750D02*
Y603750D01*
X663150Y566250D02*
Y576250D01*
X682350D01*
Y566250D02*
Y576250D01*
X663150Y566250D02*
X682350D01*
X670250Y571250D02*
X675250D01*
X672750Y568750D02*
Y573750D01*
X498228Y623512D02*
Y633512D01*
X517428D01*
Y623512D02*
Y633512D01*
X498228Y623512D02*
X517428D01*
X505328Y628512D02*
X510328D01*
X507828Y626012D02*
Y631012D01*
X395500Y808400D02*
X405500D01*
X395500D02*
Y827600D01*
X405500D01*
Y808400D02*
Y827600D01*
X400500Y815500D02*
Y820500D01*
X398000Y818000D02*
X403000D01*
X428150Y623750D02*
Y633750D01*
X447350D01*
Y623750D02*
Y633750D01*
X428150Y623750D02*
X447350D01*
X435250Y628750D02*
X440250D01*
X437750Y626250D02*
Y631250D01*
X427900Y583750D02*
Y593750D01*
X447100D01*
Y583750D02*
Y593750D01*
X427900Y583750D02*
X447100D01*
X435000Y588750D02*
X440000D01*
X437500Y586250D02*
Y591250D01*
X600984Y486358D02*
Y496358D01*
X581784Y486358D02*
X600984D01*
X581784D02*
Y496358D01*
X600984D01*
X588884Y491358D02*
X593884D01*
X591384Y488858D02*
Y493858D01*
X305338Y568016D02*
Y578016D01*
X286138Y568016D02*
X305338D01*
X286138D02*
Y578016D01*
X305338D01*
X293238Y573016D02*
X298238D01*
X295738Y570516D02*
Y575516D01*
X285630Y546680D02*
Y556680D01*
X304830D01*
Y546680D02*
Y556680D01*
X285630Y546680D02*
X304830D01*
X292730Y551680D02*
X297730D01*
X295230Y549180D02*
Y554180D01*
X343400Y585500D02*
Y595500D01*
X362600D01*
Y585500D02*
Y595500D01*
X343400Y585500D02*
X362600D01*
X350500Y590500D02*
X355500D01*
X353000Y588000D02*
Y593000D01*
X572250Y880000D02*
Y885000D01*
X569750Y882500D02*
X574750D01*
X514750Y809500D02*
Y814500D01*
X512250Y812000D02*
X517250D01*
X540500Y753750D02*
X545500D01*
X543000Y751250D02*
Y756250D01*
X515000Y792250D02*
Y797250D01*
X512500Y794750D02*
X517500D01*
X561250Y753250D02*
X566250D01*
X563750Y750750D02*
Y755750D01*
X584250Y751000D02*
Y756000D01*
X581750Y753500D02*
X586750D01*
X412000Y737250D02*
X417000D01*
X414500Y734750D02*
Y739750D01*
X456000Y542500D02*
X461000D01*
X458500Y540000D02*
Y545000D01*
X407750Y843000D02*
X412750D01*
X410250Y840500D02*
Y845500D01*
X485250Y557500D02*
Y562500D01*
X482750Y560000D02*
X487750D01*
X508750D02*
X513750D01*
X511250Y557500D02*
Y562500D01*
X508000Y533000D02*
X513000D01*
X510500Y530500D02*
Y535500D01*
X451500Y736500D02*
X456500D01*
X454000Y734000D02*
Y739000D01*
X458000Y840000D02*
Y845000D01*
X455500Y842500D02*
X460500D01*
X771622Y516354D02*
X778622D01*
X775122Y512854D02*
Y519854D01*
X754522Y499254D02*
X795722D01*
Y533454D01*
X754522D02*
X795722D01*
X754522Y499254D02*
Y533454D01*
X433350Y428750D02*
Y496750D01*
Y428750D02*
X564850D01*
Y496750D01*
X433350D02*
X564850D01*
X519938Y887382D02*
X522688D01*
Y895432D01*
X550788D01*
Y887382D02*
Y895432D01*
Y887382D02*
X553538D01*
Y866782D02*
Y887382D01*
X550788Y866782D02*
X553538D01*
X550788Y858732D02*
Y866782D01*
X522688Y858732D02*
X550788D01*
X522688D02*
Y866782D01*
X519938D02*
X522688D01*
X519938D02*
Y887382D01*
X533238Y877082D02*
X540238D01*
X536738Y873582D02*
Y880582D01*
X434750Y867250D02*
Y874250D01*
X431250Y870750D02*
X438250D01*
X452250Y861550D02*
Y879950D01*
X439750D02*
X452250D01*
X439750D02*
Y887900D01*
X429750D02*
X439750D01*
X429750Y879950D02*
Y887900D01*
X417250Y879950D02*
X429750D01*
X417250Y861550D02*
Y879950D01*
Y861550D02*
X419750D01*
Y853600D02*
Y861550D01*
Y853600D02*
X449750D01*
Y861550D01*
X452250D01*
X816500Y739750D02*
X823500D01*
X820000Y736250D02*
Y743250D01*
X810800Y722250D02*
X829200D01*
Y734750D01*
X837150D01*
Y744750D01*
X829200D02*
X837150D01*
X829200D02*
Y757250D01*
X810800D02*
X829200D01*
X810800Y754750D02*
Y757250D01*
X802850Y754750D02*
X810800D01*
X802850Y724750D02*
Y754750D01*
Y724750D02*
X810800D01*
Y722250D02*
Y724750D01*
X770634Y729024D02*
X777634D01*
X774134Y725524D02*
Y732524D01*
X763634Y711524D02*
X784634D01*
Y714574D01*
X794134D01*
Y743474D01*
X784634D02*
X794134D01*
X784634D02*
Y746524D01*
X763634D02*
X784634D01*
X763634Y743474D02*
Y746524D01*
X754134Y743474D02*
X763634D01*
X754134Y714574D02*
Y743474D01*
Y714574D02*
X763634D01*
Y711524D02*
Y714574D01*
X483500Y596000D02*
X490500D01*
X487000Y592500D02*
Y599500D01*
X465000Y569000D02*
X509000D01*
Y571800D01*
X523600D01*
Y620200D01*
X509000D02*
X523600D01*
X509000D02*
Y623000D01*
X465000D02*
X509000D01*
X465000Y620200D02*
Y623000D01*
X450400Y620200D02*
X465000D01*
X450400Y571800D02*
Y620200D01*
Y571800D02*
X465000D01*
Y569000D02*
Y571800D01*
X433750Y791000D02*
Y798000D01*
X430250Y794500D02*
X437250D01*
X460750Y772500D02*
Y816500D01*
X457950D02*
X460750D01*
X457950D02*
Y831100D01*
X409550D02*
X457950D01*
X409550Y816500D02*
Y831100D01*
X406750Y816500D02*
X409550D01*
X406750Y772500D02*
Y816500D01*
Y772500D02*
X409550D01*
Y757900D02*
Y772500D01*
Y757900D02*
X457950D01*
Y772500D01*
X460750D01*
X556650Y796950D02*
X563650D01*
X560150Y793450D02*
Y800450D01*
X537650Y769450D02*
X582650D01*
Y772600D01*
X596300D01*
Y821300D01*
X582650D02*
X596300D01*
X582650D02*
Y824450D01*
X537650D02*
X582650D01*
X537650Y821300D02*
Y824450D01*
X524000Y821300D02*
X537650D01*
X524000Y772600D02*
Y821300D01*
Y772600D02*
X537650D01*
Y769450D02*
Y772600D01*
X654250Y412250D02*
X699250D01*
Y459750D01*
X654250D02*
X699250D01*
X654250Y412250D02*
Y459750D01*
M02*
