G04*
G04 #@! TF.GenerationSoftware,Altium Limited,Altium Designer,24.4.1 (13)*
G04*
G04 Layer_Color=16711935*
%FSLAX44Y44*%
%MOMM*%
G71*
G04*
G04 #@! TF.SameCoordinates,CB49997C-C3C6-4264-A903-5888FDE2464A*
G04*
G04*
G04 #@! TF.FilePolarity,Positive*
G04*
G01*
G75*
%ADD10C,0.1270*%
%ADD12C,0.2000*%
%ADD14C,0.1000*%
%ADD19C,0.0762*%
%ADD138C,0.0000*%
%ADD139C,0.0254*%
%ADD140C,0.0846*%
D10*
X382175Y645125D02*
Y674375D01*
Y645125D02*
X398425D01*
Y674375D01*
X382175D02*
X398425D01*
X646900Y1029500D02*
X827000D01*
X646900Y940750D02*
Y1029500D01*
Y940750D02*
X827000D01*
Y1029500D01*
X333750Y792000D02*
Y884000D01*
X320750Y792000D02*
X333750D01*
X260750D02*
Y884000D01*
X276750D01*
X320750D02*
Y894500D01*
X276750Y884000D02*
Y894500D01*
X320750D01*
Y781500D02*
Y792000D01*
X276750Y781500D02*
Y792000D01*
Y781500D02*
X320750D01*
Y884000D02*
X333750D01*
X260750Y792000D02*
X276750D01*
X462750Y956500D02*
X529750D01*
X462750D02*
Y969500D01*
Y1029500D02*
X529750D01*
Y1013500D02*
Y1029500D01*
Y969500D02*
X540250D01*
X529750Y1013500D02*
X540250D01*
Y969500D02*
Y1013500D01*
X452250Y969500D02*
X462750D01*
X452250Y1013500D02*
X462750D01*
X452250Y969500D02*
Y1013500D01*
X529750Y956500D02*
Y969500D01*
X462750Y1013500D02*
Y1029500D01*
X435850Y488250D02*
X562350D01*
Y437250D02*
Y488250D01*
X435850Y437250D02*
X562350D01*
X435850D02*
Y488250D01*
X660750Y418750D02*
Y434750D01*
Y418750D02*
X692750D01*
Y434750D01*
X660750D02*
X692750D01*
D12*
X365750Y669200D02*
G03*
X365750Y669200I-1000J0D01*
G01*
X757000Y933250D02*
G03*
X757000Y933250I-1000J0D01*
G01*
X364750Y863000D02*
G03*
X364750Y863000I-1000J0D01*
G01*
X509750Y926500D02*
G03*
X509750Y926500I-1000J0D01*
G01*
X344450Y690550D02*
G03*
X344450Y690550I-1000J0D01*
G01*
X474700Y424750D02*
G03*
X474700Y424750I-1000J0D01*
G01*
D14*
X257450Y574050D02*
Y613350D01*
Y702750D02*
X330950D01*
X257450Y613350D02*
Y702750D01*
Y613350D02*
X330950D01*
Y702750D01*
D19*
X611161Y781876D02*
X619624Y790340D01*
Y781876D02*
X611161Y790340D01*
X615392Y781876D02*
Y790340D01*
X619624Y786108D02*
X611161D01*
D138*
X676350Y805498D02*
G03*
X676350Y811594I0J3048D01*
G01*
D139*
X881328Y772478D02*
Y844614D01*
X676350D02*
X881328D01*
X676350Y772478D02*
Y844614D01*
Y772478D02*
X881328D01*
D140*
X258450Y604050D02*
X262513D01*
Y602019D01*
X261836Y601342D01*
X260481D01*
X259804Y602019D01*
Y604050D01*
X261836Y597279D02*
X262513Y597956D01*
Y599310D01*
X261836Y599987D01*
X259127D01*
X258450Y599310D01*
Y597956D01*
X259127Y597279D01*
X262513Y595925D02*
X258450D01*
Y593893D01*
X259127Y593216D01*
X259804D01*
X260481Y593893D01*
Y595925D01*
Y593893D01*
X261159Y593216D01*
X261836D01*
X262513Y593893D01*
Y595925D01*
Y585091D02*
Y587799D01*
X258450D01*
Y585091D01*
X260481Y587799D02*
Y586445D01*
X262513Y583737D02*
X258450D01*
Y581705D01*
X259127Y581028D01*
X261836D01*
X262513Y581705D01*
Y583737D01*
X261836Y576965D02*
X262513Y577643D01*
Y578997D01*
X261836Y579674D01*
X259127D01*
X258450Y578997D01*
Y577643D01*
X259127Y576965D01*
X260481D01*
Y578320D01*
X262513Y572903D02*
Y575611D01*
X258450D01*
Y572903D01*
X260481Y575611D02*
Y574257D01*
M02*
