%TF.GenerationSoftware,Altium Limited,Altium Designer,24.4.1 (13)*%
G04 Layer_Color=128*
%FSLAX45Y45*%
%MOMM*%
%TF.SameCoordinates,EFC9E65E-F59A-4C70-970D-A36E2AA460D7*%
%TF.FilePolarity,Positive*%
%TF.FileFunction,Drillmap*%
%TF.Part,Single*%
G01*
G75*
%TA.AperFunction,NonConductor*%
%ADD78C,0.12700*%
D78*
X6609000Y9617500D02*
X6849000D01*
X6729000Y9497500D02*
Y9737500D01*
X7890000Y9617500D02*
X8130000D01*
X8010000Y9497500D02*
Y9737500D01*
X7500000Y9527500D02*
X7620000D01*
X7560000Y9467500D02*
Y9587500D01*
X7119000Y9527500D02*
X7239000D01*
X7179000Y9467500D02*
Y9587500D01*
X2817500Y8020000D02*
X2927500D01*
X2872500Y7965000D02*
Y8075000D01*
X2817500Y8740000D02*
X2927500D01*
X2872500Y8685000D02*
Y8795000D01*
X5142500Y10030000D02*
X5252500D01*
X5197500Y9975000D02*
Y10085000D01*
X4672500Y10030000D02*
X4782500D01*
X4727500Y9975000D02*
Y10085000D01*
X2804500Y7012500D02*
X2864500D01*
X2834500Y6982500D02*
Y7042500D01*
X2804500Y6148500D02*
X2864500D01*
X2834500Y6118500D02*
Y6178500D01*
X3222500Y7012500D02*
X3282500D01*
X3252500Y6982500D02*
Y7042500D01*
X3222500Y6148500D02*
X3282500D01*
X3252500Y6118500D02*
Y6178500D01*
X3170000Y6291500D02*
X3235000D01*
X3202500Y6259000D02*
Y6324000D01*
X3170000Y6869500D02*
X3235000D01*
X3202500Y6837000D02*
Y6902000D01*
X8657074Y8320410D02*
X8761214D01*
X8709144Y8268340D02*
Y8372480D01*
X8657074Y7850510D02*
X8761214D01*
X8709144Y7798440D02*
Y7902580D01*
X7506454Y7850510D02*
X7610594D01*
X7558524Y7798440D02*
Y7902580D01*
X6805414Y7850510D02*
X6909554D01*
X6857484Y7798440D02*
Y7902580D01*
X8555000Y9952500D02*
X8905000D01*
X8730000Y9777500D02*
Y10127500D01*
X8555000Y4535000D02*
X8905000D01*
X8730000Y4360000D02*
Y4710000D01*
X2767500Y4535000D02*
X3117500D01*
X2942500Y4360000D02*
Y4710000D01*
X2767500Y9952500D02*
X3117500D01*
X2942500Y9777500D02*
Y10127500D01*
X4612500Y8187500D02*
X4642500D01*
X4627500Y8172500D02*
Y8202500D01*
X4290000Y7440000D02*
X4320000D01*
X4305000Y7425000D02*
Y7455000D01*
X4957500Y8750000D02*
X4987500D01*
X4972500Y8735000D02*
Y8765000D01*
X7845000Y7087500D02*
X7875000D01*
X7860000Y7072500D02*
Y7102500D01*
X4917500Y6285000D02*
X4947500D01*
X4932500Y6270000D02*
Y6300000D01*
X8145000Y7570000D02*
X8175000D01*
X8160000Y7555000D02*
Y7585000D01*
X7640000Y6527500D02*
X7670000D01*
X7655000Y6512500D02*
Y6542500D01*
X7513816Y6728816D02*
X7543816D01*
X7528816Y6713816D02*
Y6743816D01*
X7393628Y7131127D02*
X7423628D01*
X7408628Y7116128D02*
Y7146127D01*
X7030000Y4837500D02*
X7060000D01*
X7045000Y4822500D02*
Y4852500D01*
X8984999Y9599999D02*
X9014999D01*
X8999999Y9584999D02*
Y9614999D01*
X8784999Y9199999D02*
X8814999D01*
X8799999Y9184999D02*
Y9214999D01*
X8984999Y8799999D02*
X9014999D01*
X8999999Y8784999D02*
Y8814999D01*
X8984999Y7999999D02*
X9014999D01*
X8999999Y7984999D02*
Y8014999D01*
X8784999Y7599999D02*
X8814999D01*
X8799999Y7584999D02*
Y7614999D01*
X8984999Y7199999D02*
X9014999D01*
X8999999Y7184999D02*
Y7214999D01*
X8784999Y6799999D02*
X8814999D01*
X8799999Y6784999D02*
Y6814999D01*
X8984999Y6399999D02*
X9014999D01*
X8999999Y6384999D02*
Y6414999D01*
X8784999Y5999999D02*
X8814999D01*
X8799999Y5984999D02*
Y6014999D01*
X8984999Y5599999D02*
X9014999D01*
X8999999Y5584999D02*
Y5614999D01*
X8784999Y5200000D02*
X8814999D01*
X8799999Y5185000D02*
Y5214999D01*
X8984999Y4800000D02*
X9014999D01*
X8999999Y4785000D02*
Y4815000D01*
X8384999Y9999999D02*
X8414999D01*
X8399999Y9984999D02*
Y10014999D01*
X8584999Y9599999D02*
X8614999D01*
X8599999Y9584999D02*
Y9614999D01*
X8384999Y9199999D02*
X8414999D01*
X8399999Y9184999D02*
Y9214999D01*
X8584999Y8799999D02*
X8614999D01*
X8599999Y8784999D02*
Y8814999D01*
X8384999Y8399999D02*
X8414999D01*
X8399999Y8384999D02*
Y8414999D01*
X8584999Y7999999D02*
X8614999D01*
X8599999Y7984999D02*
Y8014999D01*
X8584999Y7199999D02*
X8614999D01*
X8599999Y7184999D02*
Y7214999D01*
X8384999Y6799999D02*
X8414999D01*
X8399999Y6784999D02*
Y6814999D01*
X8584999Y6399999D02*
X8614999D01*
X8599999Y6384999D02*
Y6414999D01*
X8384999Y5999999D02*
X8414999D01*
X8399999Y5984999D02*
Y6014999D01*
X8584999Y5599999D02*
X8614999D01*
X8599999Y5584999D02*
Y5614999D01*
X8384999Y5200000D02*
X8414999D01*
X8399999Y5185000D02*
Y5214999D01*
X8584999Y4800000D02*
X8614999D01*
X8599999Y4785000D02*
Y4815000D01*
X8384999Y4400000D02*
X8414999D01*
X8399999Y4385000D02*
Y4415000D01*
X8184999Y9599999D02*
X8214999D01*
X8199999Y9584999D02*
Y9614999D01*
X8184999Y8799999D02*
X8214999D01*
X8199999Y8784999D02*
Y8814999D01*
X8184999Y7999999D02*
X8214999D01*
X8199999Y7984999D02*
Y8014999D01*
X8184999Y7199999D02*
X8214999D01*
X8199999Y7184999D02*
Y7214999D01*
X7984999Y6799999D02*
X8014999D01*
X7999999Y6784999D02*
Y6814999D01*
X8184999Y6399999D02*
X8214999D01*
X8199999Y6384999D02*
Y6414999D01*
X8184999Y4800000D02*
X8214999D01*
X8199999Y4785000D02*
Y4815000D01*
X7984999Y4400000D02*
X8014999D01*
X7999999Y4385000D02*
Y4415000D01*
X7784999Y4800000D02*
X7814999D01*
X7799999Y4785000D02*
Y4815000D01*
X7584999Y4400000D02*
X7614999D01*
X7599999Y4385000D02*
Y4415000D01*
X6784999Y5200000D02*
X6814999D01*
X6799999Y5185000D02*
Y5214999D01*
X6584999Y6399999D02*
X6614999D01*
X6599999Y6384999D02*
Y6414999D01*
X6584999Y4800000D02*
X6614999D01*
X6599999Y4785000D02*
Y4815000D01*
X6384999Y4400000D02*
X6414999D01*
X6399999Y4385000D02*
Y4415000D01*
X5984999Y9999999D02*
X6014999D01*
X5999999Y9984999D02*
Y10014999D01*
X5984999Y9199999D02*
X6014999D01*
X5999999Y9184999D02*
Y9214999D01*
X5984999Y8399999D02*
X6014999D01*
X5999999Y8384999D02*
Y8414999D01*
X5984999Y7599999D02*
X6014999D01*
X5999999Y7584999D02*
Y7614999D01*
X5984999Y5200000D02*
X6014999D01*
X5999999Y5185000D02*
Y5214999D01*
X6184999Y4800000D02*
X6214999D01*
X6199999Y4785000D02*
Y4815000D01*
X5984999Y4400000D02*
X6014999D01*
X5999999Y4385000D02*
Y4415000D01*
X5584999Y9999999D02*
X5614999D01*
X5599999Y9984999D02*
Y10014999D01*
X5784999Y9599999D02*
X5814999D01*
X5799999Y9584999D02*
Y9614999D01*
X5584999Y5200000D02*
X5614999D01*
X5599999Y5185000D02*
Y5214999D01*
X5784999Y4800000D02*
X5814999D01*
X5799999Y4785000D02*
Y4815000D01*
X5584999Y4400000D02*
X5614999D01*
X5599999Y4385000D02*
Y4415000D01*
X5384999Y4800000D02*
X5414999D01*
X5399999Y4785000D02*
Y4815000D01*
X4785000Y7599999D02*
X4815000D01*
X4800000Y7584999D02*
Y7614999D01*
X4785000Y6799999D02*
X4815000D01*
X4800000Y6784999D02*
Y6814999D01*
X4385000Y9199999D02*
X4415000D01*
X4400000Y9184999D02*
Y9214999D01*
X4584999Y8799999D02*
X4614999D01*
X4599999Y8784999D02*
Y8814999D01*
X4385000Y6799999D02*
X4415000D01*
X4400000Y6784999D02*
Y6814999D01*
X4584999Y6399999D02*
X4614999D01*
X4599999Y6384999D02*
Y6414999D01*
X4385000Y5200000D02*
X4415000D01*
X4400000Y5185000D02*
Y5214999D01*
X4584999Y4800000D02*
X4614999D01*
X4599999Y4785000D02*
Y4815000D01*
X4385000Y4400000D02*
X4415000D01*
X4400000Y4385000D02*
Y4415000D01*
X3985000Y9999999D02*
X4015000D01*
X4000000Y9984999D02*
Y10014999D01*
X4185000Y9599999D02*
X4214999D01*
X4199999Y9584999D02*
Y9614999D01*
X3985000Y9199999D02*
X4015000D01*
X4000000Y9184999D02*
Y9214999D01*
X3985000Y8399999D02*
X4015000D01*
X4000000Y8384999D02*
Y8414999D01*
X3985000Y6799999D02*
X4015000D01*
X4000000Y6784999D02*
Y6814999D01*
X4185000Y6399999D02*
X4214999D01*
X4199999Y6384999D02*
Y6414999D01*
X3985000Y5200000D02*
X4015000D01*
X4000000Y5185000D02*
Y5214999D01*
X3985000Y4400000D02*
X4015000D01*
X4000000Y4385000D02*
Y4415000D01*
X3585000Y9999999D02*
X3615000D01*
X3600000Y9984999D02*
Y10014999D01*
X3785000Y9599999D02*
X3814999D01*
X3800000Y9584999D02*
Y9614999D01*
X3585000Y9199999D02*
X3615000D01*
X3600000Y9184999D02*
Y9214999D01*
X3785000Y8799999D02*
X3814999D01*
X3800000Y8784999D02*
Y8814999D01*
X3785000Y7999999D02*
X3814999D01*
X3800000Y7984999D02*
Y8014999D01*
X3585000Y7599999D02*
X3615000D01*
X3600000Y7584999D02*
Y7614999D01*
X3785000Y7199999D02*
X3814999D01*
X3800000Y7184999D02*
Y7214999D01*
X3785000Y4800000D02*
X3814999D01*
X3800000Y4785000D02*
Y4815000D01*
X3585000Y4400000D02*
X3615000D01*
X3600000Y4385000D02*
Y4415000D01*
X3185000Y9999999D02*
X3215000D01*
X3200000Y9984999D02*
Y10014999D01*
X3385000Y9599999D02*
X3415000D01*
X3400000Y9584999D02*
Y9614999D01*
X3185000Y9199999D02*
X3215000D01*
X3200000Y9184999D02*
Y9214999D01*
X3385000Y8799999D02*
X3415000D01*
X3400000Y8784999D02*
Y8814999D01*
X3185000Y8399999D02*
X3215000D01*
X3200000Y8384999D02*
Y8414999D01*
X3385000Y7999999D02*
X3415000D01*
X3400000Y7984999D02*
Y8014999D01*
X3185000Y7599999D02*
X3215000D01*
X3200000Y7584999D02*
Y7614999D01*
X3385000Y7199999D02*
X3415000D01*
X3400000Y7184999D02*
Y7214999D01*
X3185000Y5200000D02*
X3215000D01*
X3200000Y5185000D02*
Y5214999D01*
X3385000Y4800000D02*
X3415000D01*
X3400000Y4785000D02*
Y4815000D01*
X3185000Y4400000D02*
X3215000D01*
X3200000Y4385000D02*
Y4415000D01*
X2985000Y9599999D02*
X3015000D01*
X3000000Y9584999D02*
Y9614999D01*
X2785000Y9199999D02*
X2815000D01*
X2800000Y9184999D02*
Y9214999D01*
X2785000Y8399999D02*
X2815000D01*
X2800000Y8384999D02*
Y8414999D01*
X2985000Y7999999D02*
X3015000D01*
X3000000Y7984999D02*
Y8014999D01*
X2785000Y7599999D02*
X2815000D01*
X2800000Y7584999D02*
Y7614999D01*
X2985000Y7199999D02*
X3015000D01*
X3000000Y7184999D02*
Y7214999D01*
X2785000Y6799999D02*
X2815000D01*
X2800000Y6784999D02*
Y6814999D01*
X2985000Y6399999D02*
X3015000D01*
X3000000Y6384999D02*
Y6414999D01*
X2785000Y5200000D02*
X2815000D01*
X2800000Y5185000D02*
Y5214999D01*
X2985000Y4800000D02*
X3015000D01*
X3000000Y4785000D02*
Y4815000D01*
X4912500Y4235000D02*
X4942500D01*
X4927500Y4220000D02*
Y4250000D01*
X4910000Y4627500D02*
X4940000D01*
X4925000Y4612500D02*
Y4642500D01*
X3615000Y8130000D02*
X3645000D01*
X3630000Y8115000D02*
Y8145000D01*
X3905000Y8222500D02*
X3935000D01*
X3920000Y8207500D02*
Y8237500D01*
X4332500Y8927500D02*
X4362500D01*
X4347500Y8912500D02*
Y8942500D01*
X5385000Y9215000D02*
X5415000D01*
X5400000Y9200000D02*
Y9230000D01*
X5090000Y9075000D02*
X5120000D01*
X5105000Y9060000D02*
Y9090000D01*
X5192500Y8957500D02*
X5222500D01*
X5207500Y8942500D02*
Y8972500D01*
X5112500Y8365000D02*
X5142500D01*
X5127500Y8350000D02*
Y8380000D01*
X5627500Y8287500D02*
X5657500D01*
X5642500Y8272500D02*
Y8302500D01*
X5490000Y7905000D02*
X5520000D01*
X5505000Y7890000D02*
Y7920000D01*
X5190000Y7780000D02*
X5220000D01*
X5205000Y7765000D02*
Y7795000D01*
X7962500Y7195000D02*
X7992500D01*
X7977500Y7180000D02*
Y7210000D01*
X7510000Y4997500D02*
X7540000D01*
X7525000Y4982500D02*
Y5012500D01*
X7705000Y4840000D02*
X7735000D01*
X7720000Y4825000D02*
Y4855000D01*
X8030000Y5347500D02*
X8060000D01*
X8045000Y5332500D02*
Y5362500D01*
X7805000Y6242500D02*
X7835000D01*
X7820000Y6227500D02*
Y6257500D01*
X7860987Y6091968D02*
X7890987D01*
X7875987Y6076968D02*
Y6106968D01*
X6897500Y6390000D02*
X6927500D01*
X6912500Y6375000D02*
Y6405000D01*
X6747500Y6100000D02*
X6777500D01*
X6762500Y6085000D02*
Y6115000D01*
X5850000Y4985000D02*
X5880000D01*
X5865000Y4970000D02*
Y5000000D01*
X4612500Y5677500D02*
X4642500D01*
X4627500Y5662500D02*
Y5692500D01*
X4312500Y5785000D02*
X4342500D01*
X4327500Y5770000D02*
Y5800000D01*
X4085000Y5897500D02*
X4115000D01*
X4100000Y5882500D02*
Y5912500D01*
X4220000Y6285000D02*
X4250000D01*
X4235000Y6270000D02*
Y6300000D01*
X2787500Y5510000D02*
X2817500D01*
X2802500Y5495000D02*
Y5525000D01*
X3295000Y5662500D02*
X3325000D01*
X3310000Y5647500D02*
Y5677500D01*
X3197500Y5775000D02*
X3227500D01*
X3212500Y5760000D02*
Y5790000D01*
X7173257Y5661382D02*
X7203737D01*
X7188497Y5646142D02*
Y5676622D01*
X7173257Y5771382D02*
X7203737D01*
X7188497Y5756142D02*
Y5786622D01*
X7173257Y5881382D02*
X7203737D01*
X7188497Y5866142D02*
Y5896622D01*
X7283257Y5661382D02*
X7313737D01*
X7298497Y5646142D02*
Y5676622D01*
X7283257Y5771382D02*
X7313737D01*
X7298497Y5756142D02*
Y5786622D01*
X7283257Y5881382D02*
X7313737D01*
X7298497Y5866142D02*
Y5896622D01*
X7393257Y5661382D02*
X7423737D01*
X7408497Y5646142D02*
Y5676622D01*
X7393257Y5771382D02*
X7423737D01*
X7408497Y5756142D02*
Y5786622D01*
X7393257Y5881382D02*
X7423737D01*
X7408497Y5866142D02*
Y5896622D01*
X7772446Y5382069D02*
X7802446D01*
X7787446Y5367070D02*
Y5397069D01*
X7645000Y5530000D02*
X7675000D01*
X7660000Y5515000D02*
Y5545000D01*
X5387500Y8515000D02*
X5417500D01*
X5402500Y8500000D02*
Y8530000D01*
X5672500Y8587500D02*
X5702500D01*
X5687500Y8572500D02*
Y8602500D01*
X3355000Y5437500D02*
X3385000D01*
X3370000Y5422500D02*
Y5452500D01*
X3355000Y5522500D02*
X3385000D01*
X3370000Y5507500D02*
Y5537500D01*
X3512500Y5477500D02*
X3542500D01*
X3527500Y5462500D02*
Y5492500D01*
X3350000Y5902500D02*
X3380000D01*
X3365000Y5887500D02*
Y5917500D01*
X3042500Y5820000D02*
X3072500D01*
X3057500Y5805000D02*
Y5835000D01*
X2792500Y5420000D02*
X2822500D01*
X2807500Y5405000D02*
Y5435000D01*
X6585008Y4640005D02*
X6615008D01*
X6600008Y4625005D02*
Y4655005D01*
X7025008Y4560005D02*
X7055008D01*
X7040008Y4545005D02*
Y4575005D01*
X6465008Y4240005D02*
X6495008D01*
X6480008Y4225005D02*
Y4255005D01*
X6465008Y4560005D02*
X6495008D01*
X6480008Y4545005D02*
Y4575005D01*
X6505008Y4320005D02*
X6535008D01*
X6520008Y4305005D02*
Y4335005D01*
X6985008Y4640005D02*
X7015008D01*
X7000008Y4625005D02*
Y4655005D01*
X6905008Y4640005D02*
X6935008D01*
X6920008Y4625005D02*
Y4655005D01*
X6505008Y4640005D02*
X6535008D01*
X6520008Y4625005D02*
Y4655005D01*
X6665008Y4640005D02*
X6695008D01*
X6680008Y4625005D02*
Y4655005D01*
X6465008Y4400005D02*
X6495008D01*
X6480008Y4385005D02*
Y4415005D01*
X6505008Y4480005D02*
X6535008D01*
X6520008Y4465005D02*
Y4495005D01*
X6745008Y4640005D02*
X6775008D01*
X6760008Y4625005D02*
Y4655005D01*
X6825008Y4640005D02*
X6855008D01*
X6840008Y4625005D02*
Y4655005D01*
X3040000Y5370000D02*
X3070000D01*
X3055000Y5355000D02*
Y5385000D01*
X6542500Y5707500D02*
X6572500D01*
X6557500Y5692500D02*
Y5722500D01*
X6665000Y5487500D02*
X6695000D01*
X6680000Y5472500D02*
Y5502500D01*
X4865000Y6447500D02*
X4895000D01*
X4880000Y6432500D02*
Y6462500D01*
X6782500Y5322500D02*
X6812500D01*
X6797500Y5307500D02*
Y5337500D01*
X7022500Y6275000D02*
X7052500D01*
X7037500Y6260000D02*
Y6290000D01*
X7312500Y6530000D02*
X7342500D01*
X7327500Y6515000D02*
Y6545000D01*
X7657500Y6242500D02*
X7687500D01*
X7672500Y6227500D02*
Y6257500D01*
X8150000Y5512500D02*
X8180000D01*
X8165000Y5497500D02*
Y5527500D01*
X8105000Y5187500D02*
X8135000D01*
X8120000Y5172500D02*
Y5202500D01*
X5130000Y8860000D02*
X5160000D01*
X5145000Y8845000D02*
Y8875000D01*
X7785004Y9600005D02*
X7815004D01*
X7800004Y9585005D02*
Y9615005D01*
X7785004Y9400005D02*
X7815004D01*
X7800004Y9385005D02*
Y9415005D01*
X7785004Y9200005D02*
X7815004D01*
X7800004Y9185005D02*
Y9215005D01*
X7785004Y9000005D02*
X7815004D01*
X7800004Y8985005D02*
Y9015005D01*
X7785004Y8800005D02*
X7815004D01*
X7800004Y8785005D02*
Y8815005D01*
X7785004Y8600005D02*
X7815004D01*
X7800004Y8585005D02*
Y8615005D01*
X7785004Y8400005D02*
X7815004D01*
X7800004Y8385005D02*
Y8415005D01*
X7785004Y8200004D02*
X7815004D01*
X7800004Y8185004D02*
Y8215004D01*
X7785004Y8000004D02*
X7815004D01*
X7800004Y7985004D02*
Y8015004D01*
X7785004Y7800004D02*
X7815004D01*
X7800004Y7785004D02*
Y7815004D01*
X7735004Y9700005D02*
X7765004D01*
X7750004Y9685005D02*
Y9715005D01*
X7685004Y9600005D02*
X7715004D01*
X7700004Y9585005D02*
Y9615005D01*
X7735004Y9500005D02*
X7765004D01*
X7750004Y9485005D02*
Y9515005D01*
X7685004Y9400005D02*
X7715004D01*
X7700004Y9385005D02*
Y9415005D01*
X7735004Y9300005D02*
X7765004D01*
X7750004Y9285005D02*
Y9315005D01*
X7685004Y9200005D02*
X7715004D01*
X7700004Y9185005D02*
Y9215005D01*
X7735004Y9100005D02*
X7765004D01*
X7750004Y9085005D02*
Y9115005D01*
X7685004Y9000005D02*
X7715004D01*
X7700004Y8985005D02*
Y9015005D01*
X7735004Y8900005D02*
X7765004D01*
X7750004Y8885005D02*
Y8915005D01*
X7685004Y8800005D02*
X7715004D01*
X7700004Y8785005D02*
Y8815005D01*
X7735004Y8700005D02*
X7765004D01*
X7750004Y8685005D02*
Y8715005D01*
X7685004Y8600005D02*
X7715004D01*
X7700004Y8585005D02*
Y8615005D01*
X7735004Y8500005D02*
X7765004D01*
X7750004Y8485005D02*
Y8515005D01*
X7685004Y8400005D02*
X7715004D01*
X7700004Y8385005D02*
Y8415005D01*
X7735004Y8300004D02*
X7765004D01*
X7750004Y8285005D02*
Y8315004D01*
X7685004Y8200004D02*
X7715004D01*
X7700004Y8185004D02*
Y8215004D01*
X7735004Y8100004D02*
X7765004D01*
X7750004Y8085004D02*
Y8115004D01*
X7685004Y8000004D02*
X7715004D01*
X7700004Y7985004D02*
Y8015004D01*
X7735004Y7900004D02*
X7765004D01*
X7750004Y7885004D02*
Y7915004D01*
X7685004Y7800004D02*
X7715004D01*
X7700004Y7785004D02*
Y7815004D01*
X7635004Y9700005D02*
X7665004D01*
X7650004Y9685005D02*
Y9715005D01*
X7635004Y9300005D02*
X7665004D01*
X7650004Y9285005D02*
Y9315005D01*
X7585004Y8400005D02*
X7615004D01*
X7600004Y8385005D02*
Y8415005D01*
X7635004Y8300004D02*
X7665004D01*
X7650004Y8285005D02*
Y8315004D01*
X7585004Y8200004D02*
X7615004D01*
X7600004Y8185004D02*
Y8215004D01*
X7635004Y8100004D02*
X7665004D01*
X7650004Y8085004D02*
Y8115004D01*
X7585004Y8000004D02*
X7615004D01*
X7600004Y7985004D02*
Y8015004D01*
X7535004Y9700005D02*
X7565004D01*
X7550004Y9685005D02*
Y9715005D01*
X7535004Y9300005D02*
X7565004D01*
X7550004Y9285005D02*
Y9315005D01*
X7485004Y8400005D02*
X7515004D01*
X7500004Y8385005D02*
Y8415005D01*
X7535004Y8300004D02*
X7565004D01*
X7550004Y8285005D02*
Y8315004D01*
X7485004Y8200004D02*
X7515004D01*
X7500004Y8185004D02*
Y8215004D01*
X7535004Y8100004D02*
X7565004D01*
X7550004Y8085004D02*
Y8115004D01*
X7485004Y8000004D02*
X7515004D01*
X7500004Y7985004D02*
Y8015004D01*
X7235004Y9700005D02*
X7265004D01*
X7250004Y9685005D02*
Y9715005D01*
X7135004Y9700005D02*
X7165004D01*
X7150004Y9685005D02*
Y9715005D01*
X7035004Y9700005D02*
X7065004D01*
X7050004Y9685005D02*
Y9715005D01*
X6985004Y9600005D02*
X7015004D01*
X7000004Y9585005D02*
Y9615005D01*
X6935004Y9700005D02*
X6965004D01*
X6950004Y9685005D02*
Y9715005D01*
X6885004Y9600005D02*
X6915004D01*
X6900004Y9585005D02*
Y9615005D01*
X6935004Y9500005D02*
X6965004D01*
X6950004Y9485005D02*
Y9515005D01*
X6885004Y8200004D02*
X6915004D01*
X6900004Y8185004D02*
Y8215004D01*
X6935004Y8100004D02*
X6965004D01*
X6950004Y8085004D02*
Y8115004D01*
X6885004Y8000004D02*
X6915004D01*
X6900004Y7985004D02*
Y8015004D01*
X6835004Y9500005D02*
X6865004D01*
X6850004Y9485005D02*
Y9515005D01*
X6785004Y8200004D02*
X6815004D01*
X6800004Y8185004D02*
Y8215004D01*
X6835004Y8100004D02*
X6865004D01*
X6850004Y8085004D02*
Y8115004D01*
X6785004Y8000004D02*
X6815004D01*
X6800004Y7985004D02*
Y8015004D01*
X6685004Y9400005D02*
X6715004D01*
X6700004Y9385005D02*
Y9415005D01*
X6735004Y9300005D02*
X6765003D01*
X6750004Y9285005D02*
Y9315005D01*
X6685004Y9200005D02*
X6715004D01*
X6700004Y9185005D02*
Y9215005D01*
X6735004Y9100005D02*
X6765003D01*
X6750004Y9085005D02*
Y9115005D01*
X6685004Y9000005D02*
X6715004D01*
X6700004Y8985005D02*
Y9015005D01*
X6735004Y8900005D02*
X6765003D01*
X6750004Y8885005D02*
Y8915005D01*
X6735004Y8500005D02*
X6765003D01*
X6750004Y8485005D02*
Y8515005D01*
X6685004Y8400005D02*
X6715004D01*
X6700004Y8385005D02*
Y8415005D01*
X6735004Y8300004D02*
X6765003D01*
X6750004Y8285005D02*
Y8315004D01*
X6685004Y8200004D02*
X6715004D01*
X6700004Y8185004D02*
Y8215004D01*
X6735004Y8100004D02*
X6765003D01*
X6750004Y8085004D02*
Y8115004D01*
X6685004Y8000004D02*
X6715004D01*
X6700004Y7985004D02*
Y8015004D01*
X6685004Y7800004D02*
X6715004D01*
X6700004Y7785004D02*
Y7815004D01*
X6585004Y9400005D02*
X6615004D01*
X6600004Y9385005D02*
Y9415005D01*
X6635003Y9300005D02*
X6665003D01*
X6650003Y9285005D02*
Y9315005D01*
X6585004Y9200005D02*
X6615004D01*
X6600004Y9185005D02*
Y9215005D01*
X6635003Y9100005D02*
X6665003D01*
X6650003Y9085005D02*
Y9115005D01*
X6585004Y9000005D02*
X6615004D01*
X6600004Y8985005D02*
Y9015005D01*
X6635003Y8900005D02*
X6665003D01*
X6650003Y8885005D02*
Y8915005D01*
X6585004Y8400005D02*
X6615004D01*
X6600004Y8385005D02*
Y8415005D01*
X6635003Y8300004D02*
X6665003D01*
X6650003Y8285005D02*
Y8315004D01*
X6585004Y8200004D02*
X6615004D01*
X6600004Y8185004D02*
Y8215004D01*
X6635003Y8100004D02*
X6665003D01*
X6650003Y8085004D02*
Y8115004D01*
X6585004Y8000004D02*
X6615004D01*
X6600004Y7985004D02*
Y8015004D01*
X6635003Y7900004D02*
X6665003D01*
X6650003Y7885004D02*
Y7915004D01*
X6585004Y7800004D02*
X6615004D01*
X6600004Y7785004D02*
Y7815004D01*
X6535003Y9700005D02*
X6565003D01*
X6550003Y9685005D02*
Y9715005D01*
X6485004Y9600005D02*
X6515003D01*
X6500004Y9585005D02*
Y9615005D01*
X6535003Y9500005D02*
X6565003D01*
X6550003Y9485005D02*
Y9515005D01*
X6485004Y9400005D02*
X6515003D01*
X6500004Y9385005D02*
Y9415005D01*
X6535003Y9300005D02*
X6565003D01*
X6550003Y9285005D02*
Y9315005D01*
X6485004Y9200005D02*
X6515003D01*
X6500004Y9185005D02*
Y9215005D01*
X6535003Y9100005D02*
X6565003D01*
X6550003Y9085005D02*
Y9115005D01*
X6485004Y9000005D02*
X6515003D01*
X6500004Y8985005D02*
Y9015005D01*
X6535003Y8900005D02*
X6565003D01*
X6550003Y8885005D02*
Y8915005D01*
X6485004Y8800005D02*
X6515003D01*
X6500004Y8785005D02*
Y8815005D01*
X6535003Y8700005D02*
X6565003D01*
X6550003Y8685005D02*
Y8715005D01*
X6485004Y8600005D02*
X6515003D01*
X6500004Y8585005D02*
Y8615005D01*
X6535003Y8500005D02*
X6565003D01*
X6550003Y8485005D02*
Y8515005D01*
X6485004Y8400005D02*
X6515003D01*
X6500004Y8385005D02*
Y8415005D01*
X6535003Y8300004D02*
X6565003D01*
X6550003Y8285005D02*
Y8315004D01*
X6485004Y8200004D02*
X6515003D01*
X6500004Y8185004D02*
Y8215004D01*
X6535003Y8100004D02*
X6565003D01*
X6550003Y8085004D02*
Y8115004D01*
X6485004Y8000004D02*
X6515003D01*
X6500004Y7985004D02*
Y8015004D01*
X6535003Y7900004D02*
X6565003D01*
X6550003Y7885004D02*
Y7915004D01*
X6485004Y7800004D02*
X6515003D01*
X6500004Y7785004D02*
Y7815004D01*
X5372500Y5670000D02*
X5402500D01*
X5387500Y5655000D02*
Y5685000D01*
X7637500Y5980000D02*
X7667500D01*
X7652500Y5965000D02*
Y5995000D01*
X6677500Y6275000D02*
X6707500D01*
X6692500Y6260000D02*
Y6290000D01*
X5780000Y5475000D02*
X5810000D01*
X5795000Y5460000D02*
Y5490000D01*
X4070000Y5517500D02*
X4100000D01*
X4085000Y5502500D02*
Y5532500D01*
X5105000Y6412500D02*
X5135000D01*
X5120000Y6397500D02*
Y6427500D01*
X5270000Y6102500D02*
X5300000D01*
X5285000Y6087500D02*
Y6117500D01*
X5202500Y9362500D02*
X5232500D01*
X5217500Y9347500D02*
Y9377500D01*
X5202500Y9490000D02*
X5232500D01*
X5217500Y9475000D02*
Y9505000D01*
X5497500Y9235000D02*
X5527500D01*
X5512500Y9220000D02*
Y9250000D01*
X5697500Y9075000D02*
X5727500D01*
X5712500Y9060000D02*
Y9090000D01*
X5577500Y8777500D02*
X5607500D01*
X5592500Y8762500D02*
Y8792500D01*
X5835000Y8407500D02*
X5865000D01*
X5850000Y8392500D02*
Y8422500D01*
X3987500Y8010000D02*
X4017500D01*
X4002500Y7995000D02*
Y8025000D01*
Y7637500D02*
X4032500D01*
X4017500Y7622500D02*
Y7652500D01*
X7325000Y4850000D02*
X7355000D01*
X7340000Y4835000D02*
Y4865000D01*
X7122500Y4987500D02*
X7152500D01*
X7137500Y4972500D02*
Y5002500D01*
X7912500Y5510000D02*
X7942500D01*
X7927500Y5495000D02*
Y5525000D01*
X7617500Y5752500D02*
X7647500D01*
X7632500Y5737500D02*
Y5767500D01*
X7125000Y5072500D02*
X7155000D01*
X7140000Y5057500D02*
Y5087500D01*
X7708240Y5661740D02*
X7738240D01*
X7723240Y5646740D02*
Y5676740D01*
X7316336Y5218752D02*
X7346336D01*
X7331336Y5203752D02*
Y5233752D01*
X7710000Y5775000D02*
X7740000D01*
X7725000Y5760000D02*
Y5790000D01*
X7316336Y5328751D02*
X7346336D01*
X7331336Y5313751D02*
Y5343751D01*
X7130658Y5375026D02*
X7160658D01*
X7145658Y5360026D02*
Y5390026D01*
X4990000Y5122500D02*
X5020000D01*
X5005000Y5107500D02*
Y5137500D01*
X5162500Y5192632D02*
X5192500D01*
X5177500Y5177632D02*
Y5207632D01*
X4732500Y5192632D02*
X4762500D01*
X4747500Y5177632D02*
Y5207632D01*
X7227500Y6380940D02*
X7257500D01*
X7242500Y6365940D02*
Y6395940D01*
X6992500Y6105000D02*
X7022500D01*
X7007500Y6090000D02*
Y6120000D01*
X7145000Y6160000D02*
X7175000D01*
X7160000Y6145000D02*
Y6175000D01*
X6860000Y5712500D02*
X6890000D01*
X6875000Y5697500D02*
Y5727500D01*
X6530000Y5240000D02*
X6560000D01*
X6545000Y5225000D02*
Y5255000D01*
X6947500Y5740000D02*
X6977500D01*
X6962500Y5725000D02*
Y5755000D01*
X4260000Y7245000D02*
X4290000D01*
X4275000Y7230000D02*
Y7260000D01*
X4670000Y7365000D02*
X4700000D01*
X4685000Y7350000D02*
Y7380000D01*
X2790000Y5762500D02*
X2820000D01*
X2805000Y5747500D02*
Y5777500D01*
X2842500Y5832500D02*
X2872500D01*
X2857500Y5817500D02*
Y5847500D01*
X2890000Y5912500D02*
X2920000D01*
X2905000Y5897500D02*
Y5927500D01*
X2792500Y5912500D02*
X2822500D01*
X2807500Y5897500D02*
Y5927500D01*
X3430000Y6250000D02*
X3460000D01*
X3445000Y6235000D02*
Y6265000D01*
X3420000Y6905000D02*
X3450000D01*
X3435000Y6890000D02*
Y6920000D01*
X3132500Y6390000D02*
X3162500D01*
X3147500Y6375000D02*
Y6405000D01*
X3132500Y6752500D02*
X3162500D01*
X3147500Y6737500D02*
Y6767500D01*
X3635000Y6762500D02*
X3665000D01*
X3650000Y6747500D02*
Y6777500D01*
X3547500Y6497500D02*
X3577500D01*
X3562500Y6482500D02*
Y6512500D01*
X3797500Y5680000D02*
X3827500D01*
X3812500Y5665000D02*
Y5695000D01*
X3695000Y5680000D02*
X3725000D01*
X3710000Y5665000D02*
Y5695000D01*
X3795000Y5785000D02*
X3825000D01*
X3810000Y5770000D02*
Y5800000D01*
X3700000Y5785000D02*
X3730000D01*
X3715000Y5770000D02*
Y5800000D01*
X3795000Y5877500D02*
X3825000D01*
X3810000Y5862500D02*
Y5892500D01*
X3700000Y5877500D02*
X3730000D01*
X3715000Y5862500D02*
Y5892500D01*
X3137500Y5622500D02*
X3167500D01*
X3152500Y5607500D02*
Y5637500D01*
X7822500Y5607500D02*
X7852500D01*
X7837500Y5592500D02*
Y5622500D01*
X8286250Y7153750D02*
X8316250D01*
X8301250Y7138750D02*
Y7168750D01*
X3867500Y6600000D02*
X3897500D01*
X3882500Y6585000D02*
Y6615000D01*
X4382500Y7362500D02*
X4412500D01*
X4397500Y7347500D02*
Y7377500D01*
X7140012Y4605329D02*
X7170012D01*
X7155012Y4590329D02*
Y4620329D01*
X7114853Y4498245D02*
X7144853D01*
X7129853Y4483245D02*
Y4513245D01*
X7035668Y4421893D02*
X7065668D01*
X7050668Y4406893D02*
Y4436893D01*
X7294572Y5422229D02*
X7324572D01*
X7309572Y5407229D02*
Y5437229D01*
X7130658Y5265026D02*
X7160658D01*
X7145658Y5250026D02*
Y5280026D01*
X7132285Y4715057D02*
X7162285D01*
X7147285Y4700057D02*
Y4730057D01*
X7065020Y4235218D02*
X7095020D01*
X7080020Y4220218D02*
Y4250218D01*
X7164856Y4281400D02*
X7194856D01*
X7179856Y4266400D02*
Y4296400D01*
X7245212Y4356519D02*
X7275212D01*
X7260212Y4341519D02*
Y4371519D01*
X7298016Y4453016D02*
X7328016D01*
X7313016Y4438016D02*
Y4468016D01*
X7317965Y4561192D02*
X7347965D01*
X7332965Y4546192D02*
Y4576192D01*
X7307500Y4657500D02*
X7337500D01*
X7322500Y4642500D02*
Y4672500D01*
X7325000Y4765000D02*
X7355000D01*
X7340000Y4750000D02*
Y4780000D01*
X7305095Y4999234D02*
X7335095D01*
X7320095Y4984234D02*
Y5014234D01*
X7315339Y5108756D02*
X7345339D01*
X7330339Y5093756D02*
Y5123756D01*
%TF.MD5,c44161a6b2a356c22c5065a46848e7a4*%
M02*
