G04*
G04 #@! TF.GenerationSoftware,Altium Limited,Altium Designer,24.4.1 (13)*
G04*
G04 Layer_Color=16711935*
%FSLAX44Y44*%
%MOMM*%
G71*
G04*
G04 #@! TF.SameCoordinates,8C4884AE-FE68-42B2-B831-9760C43879B3*
G04*
G04*
G04 #@! TF.FilePolarity,Negative*
G04*
G01*
G75*
%ADD103C,2.5016*%
%ADD104R,1.9016X1.9016*%
%ADD105C,1.9016*%
%ADD106C,1.2016*%
G04:AMPARAMS|DCode=107|XSize=1.9016mm|YSize=1.1016mm|CornerRadius=0.3008mm|HoleSize=0mm|Usage=FLASHONLY|Rotation=0.000|XOffset=0mm|YOffset=0mm|HoleType=Round|Shape=RoundedRectangle|*
%AMROUNDEDRECTD107*
21,1,1.9016,0.5000,0,0,0.0*
21,1,1.3000,1.1016,0,0,0.0*
1,1,0.6016,0.6500,-0.2500*
1,1,0.6016,-0.6500,-0.2500*
1,1,0.6016,-0.6500,0.2500*
1,1,0.6016,0.6500,0.2500*
%
%ADD107ROUNDEDRECTD107*%
%ADD108O,2.2016X1.1016*%
%ADD109C,0.7516*%
%ADD110C,1.5494*%
%ADD111C,0.1016*%
D103*
X672900Y961750D02*
D03*
X801000D02*
D03*
D104*
X756000Y952750D02*
D03*
D105*
X717900D02*
D03*
D106*
X287250Y802000D02*
D03*
Y874000D02*
D03*
X519750Y1003000D02*
D03*
X472750D02*
D03*
D107*
X283450Y701250D02*
D03*
Y614850D02*
D03*
D108*
X325250Y701250D02*
D03*
Y614850D02*
D03*
D109*
X320250Y629150D02*
D03*
Y686950D02*
D03*
D110*
X870914Y832041D02*
D03*
Y785051D02*
D03*
X755852D02*
D03*
X685748D02*
D03*
D111*
X873000Y995250D02*
D03*
Y453500D02*
D03*
X294250D02*
D03*
Y995250D02*
D03*
M02*
