%TF.GenerationSoftware,Altium Limited,Altium Designer,24.4.1 (13)*%
G04 Layer_Color=2752767*
%FSLAX45Y45*%
%MOMM*%
%TF.SameCoordinates,BD841E63-566E-43FA-B15A-678BD665FBE9*%
%TF.FilePolarity,Positive*%
%TF.FileFunction,Drawing*%
%TF.Part,Single*%
G01*
G75*
%TA.AperFunction,NonConductor*%
%ADD76C,0.12700*%
%ADD161C,0.16933*%
%ADD162C,0.10160*%
D76*
X7179000Y9476700D02*
X7128200Y9578300D01*
X7229800D01*
X7179000Y9476700D01*
X7560000D02*
X7509200Y9578300D01*
X7610800D01*
X7560000Y9476700D01*
X2872500Y8689200D02*
X2897900Y8714600D01*
X2923300D01*
X2897900Y8740000D01*
X2923300Y8765400D01*
X2897900D01*
X2872500Y8790800D01*
X2847100Y8765400D01*
X2821700D01*
X2847100Y8740000D01*
X2821700Y8714600D01*
X2847100D01*
X2872500Y8689200D01*
Y7969200D02*
X2897900Y7994600D01*
X2923300D01*
X2897900Y8020000D01*
X2923300Y8045400D01*
X2897900D01*
X2872500Y8070800D01*
X2847100Y8045400D01*
X2821700D01*
X2847100Y8020000D01*
X2821700Y7994600D01*
X2847100D01*
X2872500Y7969200D01*
X4727500Y9979200D02*
X4752900Y10004600D01*
X4778300D01*
X4752900Y10030000D01*
X4778300Y10055400D01*
X4752900D01*
X4727500Y10080800D01*
X4702100Y10055400D01*
X4676700D01*
X4702100Y10030000D01*
X4676700Y10004600D01*
X4702100D01*
X4727500Y9979200D01*
X5197500D02*
X5222900Y10004600D01*
X5248300D01*
X5222900Y10030000D01*
X5248300Y10055400D01*
X5222900D01*
X5197500Y10080800D01*
X5172100Y10055400D01*
X5146700D01*
X5172100Y10030000D01*
X5146700Y10004600D01*
X5172100D01*
X5197500Y9979200D01*
X2783700Y6961700D02*
X2809100Y7012500D01*
X2783700Y7063300D01*
X2834500Y7037900D01*
X2885300Y7063300D01*
X2859900Y7012500D01*
X2885300Y6961700D01*
X2834500Y6987100D01*
X2783700Y6961700D01*
Y6097700D02*
X2809100Y6148500D01*
X2783700Y6199300D01*
X2834500Y6173900D01*
X2885300Y6199300D01*
X2859900Y6148500D01*
X2885300Y6097700D01*
X2834500Y6123100D01*
X2783700Y6097700D01*
X3227100Y6987100D02*
Y6961700D01*
X3277900D01*
Y6987100D01*
X3303300D01*
Y7037900D01*
X3277900D01*
Y7063300D01*
X3227100D01*
Y7037900D01*
X3201700D01*
Y6987100D01*
X3227100D01*
Y6123100D02*
Y6097700D01*
X3277900D01*
Y6123100D01*
X3303300D01*
Y6173900D01*
X3277900D01*
Y6199300D01*
X3227100D01*
Y6173900D01*
X3201700D01*
Y6123100D01*
X3227100D01*
X3151700Y6240700D02*
X3177100D01*
X3202500Y6266100D01*
X3227900Y6240700D01*
X3253300D01*
Y6266100D01*
X3227900Y6291500D01*
X3253300Y6316900D01*
Y6342300D01*
X3227900D01*
X3202500Y6316900D01*
X3177100Y6342300D01*
X3151700D01*
Y6316900D01*
X3177100Y6291500D01*
X3151700Y6266100D01*
Y6240700D01*
Y6818700D02*
X3177100D01*
X3202500Y6844100D01*
X3227900Y6818700D01*
X3253300D01*
Y6844100D01*
X3227900Y6869500D01*
X3253300Y6894900D01*
Y6920300D01*
X3227900D01*
X3202500Y6894900D01*
X3177100Y6920300D01*
X3151700D01*
Y6894900D01*
X3177100Y6869500D01*
X3151700Y6844100D01*
Y6818700D01*
X6806684Y7799710D02*
Y7901310D01*
X6908284D01*
Y7799710D01*
X6806684D01*
X7507724D02*
Y7901310D01*
X7609324D01*
Y7799710D01*
X7507724D01*
X8658344D02*
Y7901310D01*
X8759944D01*
Y7799710D01*
X8658344D01*
Y8269610D02*
Y8371210D01*
X8759944D01*
Y8269610D01*
X8658344D01*
X7357697Y5881382D02*
X7408497Y5932182D01*
X7459297Y5881382D01*
X7408497Y5830582D01*
X7357697Y5881382D01*
Y5771382D02*
X7408497Y5822182D01*
X7459297Y5771382D01*
X7408497Y5720582D01*
X7357697Y5771382D01*
Y5661382D02*
X7408497Y5712182D01*
X7459297Y5661382D01*
X7408497Y5610582D01*
X7357697Y5661382D01*
X7247697Y5881382D02*
X7298497Y5932182D01*
X7349297Y5881382D01*
X7298497Y5830582D01*
X7247697Y5881382D01*
Y5771382D02*
X7298497Y5822182D01*
X7349297Y5771382D01*
X7298497Y5720582D01*
X7247697Y5771382D01*
Y5661382D02*
X7298497Y5712182D01*
X7349297Y5661382D01*
X7298497Y5610582D01*
X7247697Y5661382D01*
X7137697Y5881382D02*
X7188497Y5932182D01*
X7239297Y5881382D01*
X7188497Y5830582D01*
X7137697Y5881382D01*
Y5771382D02*
X7188497Y5822182D01*
X7239297Y5771382D01*
X7188497Y5720582D01*
X7137697Y5771382D01*
Y5661382D02*
X7188497Y5712182D01*
X7239297Y5661382D01*
X7188497Y5610582D01*
X7137697Y5661382D01*
X3365000Y5851700D02*
X3314200Y5953300D01*
X3415800D01*
X3365000Y5851700D01*
Y5872020D02*
X3334520Y5932980D01*
X3395480D01*
X3365000Y5872020D01*
X3085000Y5811700D02*
X3034200Y5913300D01*
X3135800D01*
X3085000Y5811700D01*
Y5832020D02*
X3054520Y5892980D01*
X3115480D01*
X3085000Y5832020D01*
X2807500Y5369200D02*
X2756700Y5470800D01*
X2858300D01*
X2807500Y5369200D01*
Y5389520D02*
X2777020Y5450480D01*
X2837980D01*
X2807500Y5389520D01*
X6600008Y4589205D02*
X6549208Y4690805D01*
X6650808D01*
X6600008Y4589205D01*
Y4609525D02*
X6569528Y4670485D01*
X6630488D01*
X6600008Y4609525D01*
X7040008Y4509205D02*
X6989208Y4610805D01*
X7090808D01*
X7040008Y4509205D01*
Y4529525D02*
X7009528Y4590485D01*
X7070488D01*
X7040008Y4529525D01*
X6480008Y4189205D02*
X6429208Y4290805D01*
X6530808D01*
X6480008Y4189205D01*
Y4209525D02*
X6449528Y4270485D01*
X6510488D01*
X6480008Y4209525D01*
Y4509205D02*
X6429208Y4610805D01*
X6530808D01*
X6480008Y4509205D01*
Y4529525D02*
X6449528Y4590485D01*
X6510488D01*
X6480008Y4529525D01*
X6520008Y4269205D02*
X6469208Y4370805D01*
X6570808D01*
X6520008Y4269205D01*
Y4289525D02*
X6489528Y4350485D01*
X6550488D01*
X6520008Y4289525D01*
X7000008Y4589205D02*
X6949208Y4690805D01*
X7050808D01*
X7000008Y4589205D01*
Y4609525D02*
X6969528Y4670485D01*
X7030488D01*
X7000008Y4609525D01*
X6920008Y4589205D02*
X6869208Y4690805D01*
X6970808D01*
X6920008Y4589205D01*
Y4609525D02*
X6889528Y4670485D01*
X6950488D01*
X6920008Y4609525D01*
X6520008Y4589205D02*
X6469208Y4690805D01*
X6570808D01*
X6520008Y4589205D01*
Y4609525D02*
X6489528Y4670485D01*
X6550488D01*
X6520008Y4609525D01*
X6680008Y4589205D02*
X6629208Y4690805D01*
X6730808D01*
X6680008Y4589205D01*
Y4609525D02*
X6649528Y4670485D01*
X6710488D01*
X6680008Y4609525D01*
X6480008Y4349205D02*
X6429208Y4450805D01*
X6530808D01*
X6480008Y4349205D01*
Y4369525D02*
X6449528Y4430485D01*
X6510488D01*
X6480008Y4369525D01*
X6520008Y4429205D02*
X6469208Y4530805D01*
X6570808D01*
X6520008Y4429205D01*
Y4449525D02*
X6489528Y4510485D01*
X6550488D01*
X6520008Y4449525D01*
X6760008Y4589205D02*
X6709208Y4690805D01*
X6810808D01*
X6760008Y4589205D01*
Y4609525D02*
X6729528Y4670485D01*
X6790488D01*
X6760008Y4609525D01*
X6840008Y4589205D02*
X6789208Y4690805D01*
X6890808D01*
X6840008Y4589205D01*
Y4609525D02*
X6809528Y4670485D01*
X6870488D01*
X6840008Y4609525D01*
X3055000Y5319200D02*
X3004200Y5420800D01*
X3105800D01*
X3055000Y5319200D01*
Y5339520D02*
X3024520Y5400480D01*
X3085480D01*
X3055000Y5339520D01*
X8999999Y9549199D02*
X8949199Y9650799D01*
X9050799D01*
X8999999Y9549199D01*
Y9569519D02*
X8969519Y9630479D01*
X9030479D01*
X8999999Y9569519D01*
X8799999Y9149199D02*
X8749199Y9250799D01*
X8850799D01*
X8799999Y9149199D01*
Y9169519D02*
X8769519Y9230479D01*
X8830479D01*
X8799999Y9169519D01*
X8999999Y8749199D02*
X8949199Y8850799D01*
X9050799D01*
X8999999Y8749199D01*
Y8769519D02*
X8969519Y8830479D01*
X9030479D01*
X8999999Y8769519D01*
Y7949199D02*
X8949199Y8050799D01*
X9050799D01*
X8999999Y7949199D01*
Y7969519D02*
X8969519Y8030479D01*
X9030479D01*
X8999999Y7969519D01*
X8799999Y7549199D02*
X8749199Y7650799D01*
X8850799D01*
X8799999Y7549199D01*
Y7569519D02*
X8769519Y7630479D01*
X8830479D01*
X8799999Y7569519D01*
X8999999Y7149199D02*
X8949199Y7250799D01*
X9050799D01*
X8999999Y7149199D01*
Y7169519D02*
X8969519Y7230479D01*
X9030479D01*
X8999999Y7169519D01*
X8799999Y6749199D02*
X8749199Y6850799D01*
X8850799D01*
X8799999Y6749199D01*
Y6769519D02*
X8769519Y6830479D01*
X8830479D01*
X8799999Y6769519D01*
X8999999Y6349199D02*
X8949199Y6450799D01*
X9050799D01*
X8999999Y6349199D01*
Y6369519D02*
X8969519Y6430479D01*
X9030479D01*
X8999999Y6369519D01*
X8799999Y5949199D02*
X8749199Y6050799D01*
X8850799D01*
X8799999Y5949199D01*
Y5969519D02*
X8769519Y6030479D01*
X8830479D01*
X8799999Y5969519D01*
X8999999Y5549199D02*
X8949199Y5650799D01*
X9050799D01*
X8999999Y5549199D01*
Y5569519D02*
X8969519Y5630479D01*
X9030479D01*
X8999999Y5569519D01*
X8799999Y5149200D02*
X8749199Y5250800D01*
X8850799D01*
X8799999Y5149200D01*
Y5169520D02*
X8769519Y5230480D01*
X8830479D01*
X8799999Y5169520D01*
X8999999Y4749200D02*
X8949199Y4850800D01*
X9050799D01*
X8999999Y4749200D01*
Y4769520D02*
X8969519Y4830480D01*
X9030479D01*
X8999999Y4769520D01*
X8399999Y9949199D02*
X8349199Y10050799D01*
X8450799D01*
X8399999Y9949199D01*
Y9969519D02*
X8369519Y10030479D01*
X8430479D01*
X8399999Y9969519D01*
X8599999Y9549199D02*
X8549199Y9650799D01*
X8650799D01*
X8599999Y9549199D01*
Y9569519D02*
X8569519Y9630479D01*
X8630479D01*
X8599999Y9569519D01*
X8399999Y9149199D02*
X8349199Y9250799D01*
X8450799D01*
X8399999Y9149199D01*
Y9169519D02*
X8369519Y9230479D01*
X8430479D01*
X8399999Y9169519D01*
X8599999Y8749199D02*
X8549199Y8850799D01*
X8650799D01*
X8599999Y8749199D01*
Y8769519D02*
X8569519Y8830479D01*
X8630479D01*
X8599999Y8769519D01*
X8399999Y8349199D02*
X8349199Y8450799D01*
X8450799D01*
X8399999Y8349199D01*
Y8369519D02*
X8369519Y8430479D01*
X8430479D01*
X8399999Y8369519D01*
X8599999Y7949199D02*
X8549199Y8050799D01*
X8650799D01*
X8599999Y7949199D01*
Y7969519D02*
X8569519Y8030479D01*
X8630479D01*
X8599999Y7969519D01*
Y7149199D02*
X8549199Y7250799D01*
X8650799D01*
X8599999Y7149199D01*
Y7169519D02*
X8569519Y7230479D01*
X8630479D01*
X8599999Y7169519D01*
X8399999Y6749199D02*
X8349199Y6850799D01*
X8450799D01*
X8399999Y6749199D01*
Y6769519D02*
X8369519Y6830479D01*
X8430479D01*
X8399999Y6769519D01*
X8599999Y6349199D02*
X8549199Y6450799D01*
X8650799D01*
X8599999Y6349199D01*
Y6369519D02*
X8569519Y6430479D01*
X8630479D01*
X8599999Y6369519D01*
X8399999Y5949199D02*
X8349199Y6050799D01*
X8450799D01*
X8399999Y5949199D01*
Y5969519D02*
X8369519Y6030479D01*
X8430479D01*
X8399999Y5969519D01*
X8599999Y5549199D02*
X8549199Y5650799D01*
X8650799D01*
X8599999Y5549199D01*
Y5569519D02*
X8569519Y5630479D01*
X8630479D01*
X8599999Y5569519D01*
X8399999Y5149200D02*
X8349199Y5250800D01*
X8450799D01*
X8399999Y5149200D01*
Y5169520D02*
X8369519Y5230480D01*
X8430479D01*
X8399999Y5169520D01*
X8599999Y4749200D02*
X8549199Y4850800D01*
X8650799D01*
X8599999Y4749200D01*
Y4769520D02*
X8569519Y4830480D01*
X8630479D01*
X8599999Y4769520D01*
X8399999Y4349200D02*
X8349199Y4450800D01*
X8450799D01*
X8399999Y4349200D01*
Y4369520D02*
X8369519Y4430480D01*
X8430479D01*
X8399999Y4369520D01*
X8199999Y9549199D02*
X8149199Y9650799D01*
X8250799D01*
X8199999Y9549199D01*
Y9569519D02*
X8169519Y9630479D01*
X8230479D01*
X8199999Y9569519D01*
Y8749199D02*
X8149199Y8850799D01*
X8250799D01*
X8199999Y8749199D01*
Y8769519D02*
X8169519Y8830479D01*
X8230479D01*
X8199999Y8769519D01*
Y7949199D02*
X8149199Y8050799D01*
X8250799D01*
X8199999Y7949199D01*
Y7969519D02*
X8169519Y8030479D01*
X8230479D01*
X8199999Y7969519D01*
Y7149199D02*
X8149199Y7250799D01*
X8250799D01*
X8199999Y7149199D01*
Y7169519D02*
X8169519Y7230479D01*
X8230479D01*
X8199999Y7169519D01*
X7999999Y6749199D02*
X7949199Y6850799D01*
X8050799D01*
X7999999Y6749199D01*
Y6769519D02*
X7969519Y6830479D01*
X8030479D01*
X7999999Y6769519D01*
X8199999Y6349199D02*
X8149199Y6450799D01*
X8250799D01*
X8199999Y6349199D01*
Y6369519D02*
X8169519Y6430479D01*
X8230479D01*
X8199999Y6369519D01*
Y4749200D02*
X8149199Y4850800D01*
X8250799D01*
X8199999Y4749200D01*
Y4769520D02*
X8169519Y4830480D01*
X8230479D01*
X8199999Y4769520D01*
X7999999Y4349200D02*
X7949199Y4450800D01*
X8050799D01*
X7999999Y4349200D01*
Y4369520D02*
X7969519Y4430480D01*
X8030479D01*
X7999999Y4369520D01*
X7599999Y6749199D02*
X7549199Y6850799D01*
X7650799D01*
X7599999Y6749199D01*
Y6769519D02*
X7569519Y6830479D01*
X7630479D01*
X7599999Y6769519D01*
X7799999Y4749200D02*
X7749199Y4850800D01*
X7850799D01*
X7799999Y4749200D01*
Y4769520D02*
X7769519Y4830480D01*
X7830479D01*
X7799999Y4769520D01*
X7599999Y4349200D02*
X7549199Y4450800D01*
X7650799D01*
X7599999Y4349200D01*
Y4369520D02*
X7569519Y4430480D01*
X7630479D01*
X7599999Y4369520D01*
X6799999Y5149200D02*
X6749199Y5250800D01*
X6850799D01*
X6799999Y5149200D01*
Y5169520D02*
X6769519Y5230480D01*
X6830479D01*
X6799999Y5169520D01*
X6999999Y4749200D02*
X6949199Y4850800D01*
X7050799D01*
X6999999Y4749200D01*
Y4769520D02*
X6969519Y4830480D01*
X7030479D01*
X6999999Y4769520D01*
X6599999Y6349199D02*
X6549199Y6450799D01*
X6650799D01*
X6599999Y6349199D01*
Y6369519D02*
X6569519Y6430479D01*
X6630479D01*
X6599999Y6369519D01*
Y4749200D02*
X6549199Y4850800D01*
X6650799D01*
X6599999Y4749200D01*
Y4769520D02*
X6569519Y4830480D01*
X6630479D01*
X6599999Y4769520D01*
X6399999Y4349200D02*
X6349199Y4450800D01*
X6450799D01*
X6399999Y4349200D01*
Y4369520D02*
X6369519Y4430480D01*
X6430479D01*
X6399999Y4369520D01*
X5999999Y9949199D02*
X5949199Y10050799D01*
X6050799D01*
X5999999Y9949199D01*
Y9969519D02*
X5969519Y10030479D01*
X6030479D01*
X5999999Y9969519D01*
Y9149199D02*
X5949199Y9250799D01*
X6050799D01*
X5999999Y9149199D01*
Y9169519D02*
X5969519Y9230479D01*
X6030479D01*
X5999999Y9169519D01*
Y8349199D02*
X5949199Y8450799D01*
X6050799D01*
X5999999Y8349199D01*
Y8369519D02*
X5969519Y8430479D01*
X6030479D01*
X5999999Y8369519D01*
Y7549199D02*
X5949199Y7650799D01*
X6050799D01*
X5999999Y7549199D01*
Y7569519D02*
X5969519Y7630479D01*
X6030479D01*
X5999999Y7569519D01*
Y5149200D02*
X5949199Y5250800D01*
X6050799D01*
X5999999Y5149200D01*
Y5169520D02*
X5969519Y5230480D01*
X6030479D01*
X5999999Y5169520D01*
X6199999Y4749200D02*
X6149199Y4850800D01*
X6250799D01*
X6199999Y4749200D01*
Y4769520D02*
X6169519Y4830480D01*
X6230479D01*
X6199999Y4769520D01*
X5999999Y4349200D02*
X5949199Y4450800D01*
X6050799D01*
X5999999Y4349200D01*
Y4369520D02*
X5969519Y4430480D01*
X6030479D01*
X5999999Y4369520D01*
X5599999Y9949199D02*
X5549199Y10050799D01*
X5650799D01*
X5599999Y9949199D01*
Y9969519D02*
X5569519Y10030479D01*
X5630479D01*
X5599999Y9969519D01*
X5799999Y9549199D02*
X5749199Y9650799D01*
X5850799D01*
X5799999Y9549199D01*
Y9569519D02*
X5769519Y9630479D01*
X5830479D01*
X5799999Y9569519D01*
X5599999Y5149200D02*
X5549199Y5250800D01*
X5650799D01*
X5599999Y5149200D01*
Y5169520D02*
X5569519Y5230480D01*
X5630479D01*
X5599999Y5169520D01*
X5799999Y4749200D02*
X5749199Y4850800D01*
X5850799D01*
X5799999Y4749200D01*
Y4769520D02*
X5769519Y4830480D01*
X5830479D01*
X5799999Y4769520D01*
X5599999Y4349200D02*
X5549199Y4450800D01*
X5650799D01*
X5599999Y4349200D01*
Y4369520D02*
X5569519Y4430480D01*
X5630479D01*
X5599999Y4369520D01*
X5399999Y4749200D02*
X5349199Y4850800D01*
X5450799D01*
X5399999Y4749200D01*
Y4769520D02*
X5369519Y4830480D01*
X5430479D01*
X5399999Y4769520D01*
X4800000Y7549199D02*
X4749200Y7650799D01*
X4850800D01*
X4800000Y7549199D01*
Y7569519D02*
X4769520Y7630479D01*
X4830480D01*
X4800000Y7569519D01*
Y6749199D02*
X4749200Y6850799D01*
X4850800D01*
X4800000Y6749199D01*
Y6769519D02*
X4769520Y6830479D01*
X4830480D01*
X4800000Y6769519D01*
X4400000Y9149199D02*
X4349200Y9250799D01*
X4450800D01*
X4400000Y9149199D01*
Y9169519D02*
X4369520Y9230479D01*
X4430480D01*
X4400000Y9169519D01*
X4599999Y8749199D02*
X4549199Y8850799D01*
X4650799D01*
X4599999Y8749199D01*
Y8769519D02*
X4569519Y8830479D01*
X4630479D01*
X4599999Y8769519D01*
X4400000Y6749199D02*
X4349200Y6850799D01*
X4450800D01*
X4400000Y6749199D01*
Y6769519D02*
X4369520Y6830479D01*
X4430480D01*
X4400000Y6769519D01*
X4599999Y6349199D02*
X4549199Y6450799D01*
X4650799D01*
X4599999Y6349199D01*
Y6369519D02*
X4569519Y6430479D01*
X4630479D01*
X4599999Y6369519D01*
X4400000Y5149200D02*
X4349200Y5250800D01*
X4450800D01*
X4400000Y5149200D01*
Y5169520D02*
X4369520Y5230480D01*
X4430480D01*
X4400000Y5169520D01*
X4599999Y4749200D02*
X4549199Y4850800D01*
X4650799D01*
X4599999Y4749200D01*
Y4769520D02*
X4569519Y4830480D01*
X4630479D01*
X4599999Y4769520D01*
X4400000Y4349200D02*
X4349200Y4450800D01*
X4450800D01*
X4400000Y4349200D01*
Y4369520D02*
X4369520Y4430480D01*
X4430480D01*
X4400000Y4369520D01*
X4000000Y9949199D02*
X3949200Y10050799D01*
X4050800D01*
X4000000Y9949199D01*
Y9969519D02*
X3969520Y10030479D01*
X4030480D01*
X4000000Y9969519D01*
X4199999Y9549199D02*
X4149199Y9650799D01*
X4250799D01*
X4199999Y9549199D01*
Y9569519D02*
X4169519Y9630479D01*
X4230479D01*
X4199999Y9569519D01*
X4000000Y9149199D02*
X3949200Y9250799D01*
X4050800D01*
X4000000Y9149199D01*
Y9169519D02*
X3969520Y9230479D01*
X4030480D01*
X4000000Y9169519D01*
Y8349199D02*
X3949200Y8450799D01*
X4050800D01*
X4000000Y8349199D01*
Y8369519D02*
X3969520Y8430479D01*
X4030480D01*
X4000000Y8369519D01*
Y6749199D02*
X3949200Y6850799D01*
X4050800D01*
X4000000Y6749199D01*
Y6769519D02*
X3969520Y6830479D01*
X4030480D01*
X4000000Y6769519D01*
X4199999Y6349199D02*
X4149199Y6450799D01*
X4250799D01*
X4199999Y6349199D01*
Y6369519D02*
X4169519Y6430479D01*
X4230479D01*
X4199999Y6369519D01*
X4000000Y5149200D02*
X3949200Y5250800D01*
X4050800D01*
X4000000Y5149200D01*
Y5169520D02*
X3969520Y5230480D01*
X4030480D01*
X4000000Y5169520D01*
Y4349200D02*
X3949200Y4450800D01*
X4050800D01*
X4000000Y4349200D01*
Y4369520D02*
X3969520Y4430480D01*
X4030480D01*
X4000000Y4369520D01*
X3600000Y9949199D02*
X3549200Y10050799D01*
X3650800D01*
X3600000Y9949199D01*
Y9969519D02*
X3569520Y10030479D01*
X3630480D01*
X3600000Y9969519D01*
X3800000Y9549199D02*
X3749200Y9650799D01*
X3850800D01*
X3800000Y9549199D01*
Y9569519D02*
X3769520Y9630479D01*
X3830480D01*
X3800000Y9569519D01*
X3600000Y9149199D02*
X3549200Y9250799D01*
X3650800D01*
X3600000Y9149199D01*
Y9169519D02*
X3569520Y9230479D01*
X3630480D01*
X3600000Y9169519D01*
X3800000Y8749199D02*
X3749200Y8850799D01*
X3850800D01*
X3800000Y8749199D01*
Y8769519D02*
X3769520Y8830479D01*
X3830480D01*
X3800000Y8769519D01*
Y7949199D02*
X3749200Y8050799D01*
X3850800D01*
X3800000Y7949199D01*
Y7969519D02*
X3769520Y8030479D01*
X3830480D01*
X3800000Y7969519D01*
X3600000Y7549199D02*
X3549200Y7650799D01*
X3650800D01*
X3600000Y7549199D01*
Y7569519D02*
X3569520Y7630479D01*
X3630480D01*
X3600000Y7569519D01*
X3800000Y7149199D02*
X3749200Y7250799D01*
X3850800D01*
X3800000Y7149199D01*
Y7169519D02*
X3769520Y7230479D01*
X3830480D01*
X3800000Y7169519D01*
Y4749200D02*
X3749200Y4850800D01*
X3850800D01*
X3800000Y4749200D01*
Y4769520D02*
X3769520Y4830480D01*
X3830480D01*
X3800000Y4769520D01*
X3600000Y4349200D02*
X3549200Y4450800D01*
X3650800D01*
X3600000Y4349200D01*
Y4369520D02*
X3569520Y4430480D01*
X3630480D01*
X3600000Y4369520D01*
X3200000Y9949199D02*
X3149200Y10050799D01*
X3250800D01*
X3200000Y9949199D01*
Y9969519D02*
X3169520Y10030479D01*
X3230480D01*
X3200000Y9969519D01*
X3400000Y9549199D02*
X3349200Y9650799D01*
X3450800D01*
X3400000Y9549199D01*
Y9569519D02*
X3369520Y9630479D01*
X3430480D01*
X3400000Y9569519D01*
X3200000Y9149199D02*
X3149200Y9250799D01*
X3250800D01*
X3200000Y9149199D01*
Y9169519D02*
X3169520Y9230479D01*
X3230480D01*
X3200000Y9169519D01*
X3400000Y8749199D02*
X3349200Y8850799D01*
X3450800D01*
X3400000Y8749199D01*
Y8769519D02*
X3369520Y8830479D01*
X3430480D01*
X3400000Y8769519D01*
X3200000Y8349199D02*
X3149200Y8450799D01*
X3250800D01*
X3200000Y8349199D01*
Y8369519D02*
X3169520Y8430479D01*
X3230480D01*
X3200000Y8369519D01*
X3400000Y7949199D02*
X3349200Y8050799D01*
X3450800D01*
X3400000Y7949199D01*
Y7969519D02*
X3369520Y8030479D01*
X3430480D01*
X3400000Y7969519D01*
X3200000Y7549199D02*
X3149200Y7650799D01*
X3250800D01*
X3200000Y7549199D01*
Y7569519D02*
X3169520Y7630479D01*
X3230480D01*
X3200000Y7569519D01*
X3400000Y7149199D02*
X3349200Y7250799D01*
X3450800D01*
X3400000Y7149199D01*
Y7169519D02*
X3369520Y7230479D01*
X3430480D01*
X3400000Y7169519D01*
X3200000Y5149200D02*
X3149200Y5250800D01*
X3250800D01*
X3200000Y5149200D01*
Y5169520D02*
X3169520Y5230480D01*
X3230480D01*
X3200000Y5169520D01*
X3400000Y4749200D02*
X3349200Y4850800D01*
X3450800D01*
X3400000Y4749200D01*
Y4769520D02*
X3369520Y4830480D01*
X3430480D01*
X3400000Y4769520D01*
X3200000Y4349200D02*
X3149200Y4450800D01*
X3250800D01*
X3200000Y4349200D01*
Y4369520D02*
X3169520Y4430480D01*
X3230480D01*
X3200000Y4369520D01*
X3000000Y9549199D02*
X2949200Y9650799D01*
X3050800D01*
X3000000Y9549199D01*
Y9569519D02*
X2969520Y9630479D01*
X3030480D01*
X3000000Y9569519D01*
X2800000Y9149199D02*
X2749200Y9250799D01*
X2850800D01*
X2800000Y9149199D01*
Y9169519D02*
X2769520Y9230479D01*
X2830480D01*
X2800000Y9169519D01*
Y8349199D02*
X2749200Y8450799D01*
X2850800D01*
X2800000Y8349199D01*
Y8369519D02*
X2769520Y8430479D01*
X2830480D01*
X2800000Y8369519D01*
X3000000Y7949199D02*
X2949200Y8050799D01*
X3050800D01*
X3000000Y7949199D01*
Y7969519D02*
X2969520Y8030479D01*
X3030480D01*
X3000000Y7969519D01*
X2800000Y7549199D02*
X2749200Y7650799D01*
X2850800D01*
X2800000Y7549199D01*
Y7569519D02*
X2769520Y7630479D01*
X2830480D01*
X2800000Y7569519D01*
X3000000Y7149199D02*
X2949200Y7250799D01*
X3050800D01*
X3000000Y7149199D01*
Y7169519D02*
X2969520Y7230479D01*
X3030480D01*
X3000000Y7169519D01*
X2800000Y6749199D02*
X2749200Y6850799D01*
X2850800D01*
X2800000Y6749199D01*
Y6769519D02*
X2769520Y6830479D01*
X2830480D01*
X2800000Y6769519D01*
X3000000Y6349199D02*
X2949200Y6450799D01*
X3050800D01*
X3000000Y6349199D01*
Y6369519D02*
X2969520Y6430479D01*
X3030480D01*
X3000000Y6369519D01*
X2800000Y5149200D02*
X2749200Y5250800D01*
X2850800D01*
X2800000Y5149200D01*
Y5169520D02*
X2769520Y5230480D01*
X2830480D01*
X2800000Y5169520D01*
X3000000Y4749200D02*
X2949200Y4850800D01*
X3050800D01*
X3000000Y4749200D01*
Y4769520D02*
X2969520Y4830480D01*
X3030480D01*
X3000000Y4769520D01*
X6557500Y5656700D02*
X6506700Y5758300D01*
X6608300D01*
X6557500Y5656700D01*
Y5677020D02*
X6527020Y5737980D01*
X6587980D01*
X6557500Y5677020D01*
X6680000Y5436700D02*
X6629200Y5538300D01*
X6730800D01*
X6680000Y5436700D01*
Y5457020D02*
X6649520Y5517980D01*
X6710480D01*
X6680000Y5457020D01*
X4880000Y6396700D02*
X4829200Y6498300D01*
X4930800D01*
X4880000Y6396700D01*
Y6417020D02*
X4849520Y6477980D01*
X4910480D01*
X4880000Y6417020D01*
X6797500Y5271700D02*
X6746700Y5373300D01*
X6848300D01*
X6797500Y5271700D01*
Y5292020D02*
X6767020Y5352980D01*
X6827980D01*
X6797500Y5292020D01*
X7037500Y6224200D02*
X6986700Y6325800D01*
X7088300D01*
X7037500Y6224200D01*
Y6244520D02*
X7007020Y6305480D01*
X7067980D01*
X7037500Y6244520D01*
X7327500Y6479200D02*
X7276700Y6580800D01*
X7378300D01*
X7327500Y6479200D01*
Y6499520D02*
X7297020Y6560480D01*
X7357980D01*
X7327500Y6499520D01*
X7672500Y6191700D02*
X7621700Y6293300D01*
X7723300D01*
X7672500Y6191700D01*
Y6212020D02*
X7642020Y6272980D01*
X7702980D01*
X7672500Y6212020D01*
X8165000Y5461700D02*
X8114200Y5563300D01*
X8215800D01*
X8165000Y5461700D01*
Y5482020D02*
X8134520Y5542980D01*
X8195480D01*
X8165000Y5482020D01*
X8120000Y5136700D02*
X8069200Y5238300D01*
X8170800D01*
X8120000Y5136700D01*
Y5157020D02*
X8089520Y5217980D01*
X8150480D01*
X8120000Y5157020D01*
X5145000Y8809200D02*
X5094200Y8910800D01*
X5195800D01*
X5145000Y8809200D01*
Y8829520D02*
X5114520Y8890480D01*
X5175480D01*
X5145000Y8829520D01*
X7800004Y9549205D02*
X7749204Y9650805D01*
X7850804D01*
X7800004Y9549205D01*
Y9569525D02*
X7769524Y9630485D01*
X7830484D01*
X7800004Y9569525D01*
Y9349205D02*
X7749204Y9450805D01*
X7850804D01*
X7800004Y9349205D01*
Y9369525D02*
X7769524Y9430485D01*
X7830484D01*
X7800004Y9369525D01*
Y9149205D02*
X7749204Y9250805D01*
X7850804D01*
X7800004Y9149205D01*
Y9169525D02*
X7769524Y9230485D01*
X7830484D01*
X7800004Y9169525D01*
Y8949205D02*
X7749204Y9050805D01*
X7850804D01*
X7800004Y8949205D01*
Y8969525D02*
X7769524Y9030485D01*
X7830484D01*
X7800004Y8969525D01*
Y8749205D02*
X7749204Y8850805D01*
X7850804D01*
X7800004Y8749205D01*
Y8769525D02*
X7769524Y8830485D01*
X7830484D01*
X7800004Y8769525D01*
Y8549205D02*
X7749204Y8650805D01*
X7850804D01*
X7800004Y8549205D01*
Y8569525D02*
X7769524Y8630485D01*
X7830484D01*
X7800004Y8569525D01*
Y8349205D02*
X7749204Y8450805D01*
X7850804D01*
X7800004Y8349205D01*
Y8369525D02*
X7769524Y8430485D01*
X7830484D01*
X7800004Y8369525D01*
Y8149204D02*
X7749204Y8250804D01*
X7850804D01*
X7800004Y8149204D01*
Y8169524D02*
X7769524Y8230484D01*
X7830484D01*
X7800004Y8169524D01*
Y7949204D02*
X7749204Y8050804D01*
X7850804D01*
X7800004Y7949204D01*
Y7969524D02*
X7769524Y8030484D01*
X7830484D01*
X7800004Y7969524D01*
Y7749204D02*
X7749204Y7850804D01*
X7850804D01*
X7800004Y7749204D01*
Y7769524D02*
X7769524Y7830484D01*
X7830484D01*
X7800004Y7769524D01*
X7750004Y9649205D02*
X7699204Y9750805D01*
X7800804D01*
X7750004Y9649205D01*
Y9669525D02*
X7719524Y9730485D01*
X7780484D01*
X7750004Y9669525D01*
X7700004Y9549205D02*
X7649204Y9650805D01*
X7750804D01*
X7700004Y9549205D01*
Y9569525D02*
X7669524Y9630485D01*
X7730484D01*
X7700004Y9569525D01*
X7750004Y9449205D02*
X7699204Y9550805D01*
X7800804D01*
X7750004Y9449205D01*
Y9469525D02*
X7719524Y9530485D01*
X7780484D01*
X7750004Y9469525D01*
X7700004Y9349205D02*
X7649204Y9450805D01*
X7750804D01*
X7700004Y9349205D01*
Y9369525D02*
X7669524Y9430485D01*
X7730484D01*
X7700004Y9369525D01*
X7750004Y9249205D02*
X7699204Y9350805D01*
X7800804D01*
X7750004Y9249205D01*
Y9269525D02*
X7719524Y9330485D01*
X7780484D01*
X7750004Y9269525D01*
X7700004Y9149205D02*
X7649204Y9250805D01*
X7750804D01*
X7700004Y9149205D01*
Y9169525D02*
X7669524Y9230485D01*
X7730484D01*
X7700004Y9169525D01*
X7750004Y9049205D02*
X7699204Y9150805D01*
X7800804D01*
X7750004Y9049205D01*
Y9069525D02*
X7719524Y9130485D01*
X7780484D01*
X7750004Y9069525D01*
X7700004Y8949205D02*
X7649204Y9050805D01*
X7750804D01*
X7700004Y8949205D01*
Y8969525D02*
X7669524Y9030485D01*
X7730484D01*
X7700004Y8969525D01*
X7750004Y8849205D02*
X7699204Y8950805D01*
X7800804D01*
X7750004Y8849205D01*
Y8869525D02*
X7719524Y8930485D01*
X7780484D01*
X7750004Y8869525D01*
X7700004Y8749205D02*
X7649204Y8850805D01*
X7750804D01*
X7700004Y8749205D01*
Y8769525D02*
X7669524Y8830485D01*
X7730484D01*
X7700004Y8769525D01*
X7750004Y8649205D02*
X7699204Y8750805D01*
X7800804D01*
X7750004Y8649205D01*
Y8669525D02*
X7719524Y8730485D01*
X7780484D01*
X7750004Y8669525D01*
X7700004Y8549205D02*
X7649204Y8650805D01*
X7750804D01*
X7700004Y8549205D01*
Y8569525D02*
X7669524Y8630485D01*
X7730484D01*
X7700004Y8569525D01*
X7750004Y8449205D02*
X7699204Y8550805D01*
X7800804D01*
X7750004Y8449205D01*
Y8469525D02*
X7719524Y8530485D01*
X7780484D01*
X7750004Y8469525D01*
X7700004Y8349205D02*
X7649204Y8450805D01*
X7750804D01*
X7700004Y8349205D01*
Y8369525D02*
X7669524Y8430485D01*
X7730484D01*
X7700004Y8369525D01*
X7750004Y8249204D02*
X7699204Y8350804D01*
X7800804D01*
X7750004Y8249204D01*
Y8269524D02*
X7719524Y8330484D01*
X7780484D01*
X7750004Y8269524D01*
X7700004Y8149204D02*
X7649204Y8250804D01*
X7750804D01*
X7700004Y8149204D01*
Y8169524D02*
X7669524Y8230484D01*
X7730484D01*
X7700004Y8169524D01*
X7750004Y8049204D02*
X7699204Y8150804D01*
X7800804D01*
X7750004Y8049204D01*
Y8069524D02*
X7719524Y8130484D01*
X7780484D01*
X7750004Y8069524D01*
X7700004Y7949204D02*
X7649204Y8050804D01*
X7750804D01*
X7700004Y7949204D01*
Y7969524D02*
X7669524Y8030484D01*
X7730484D01*
X7700004Y7969524D01*
X7750004Y7849204D02*
X7699204Y7950804D01*
X7800804D01*
X7750004Y7849204D01*
Y7869524D02*
X7719524Y7930484D01*
X7780484D01*
X7750004Y7869524D01*
X7700004Y7749204D02*
X7649204Y7850804D01*
X7750804D01*
X7700004Y7749204D01*
Y7769524D02*
X7669524Y7830484D01*
X7730484D01*
X7700004Y7769524D01*
X7650004Y9649205D02*
X7599204Y9750805D01*
X7700804D01*
X7650004Y9649205D01*
Y9669525D02*
X7619524Y9730485D01*
X7680484D01*
X7650004Y9669525D01*
Y9249205D02*
X7599204Y9350805D01*
X7700804D01*
X7650004Y9249205D01*
Y9269525D02*
X7619524Y9330485D01*
X7680484D01*
X7650004Y9269525D01*
X7600004Y8349205D02*
X7549204Y8450805D01*
X7650804D01*
X7600004Y8349205D01*
Y8369525D02*
X7569524Y8430485D01*
X7630484D01*
X7600004Y8369525D01*
X7650004Y8249204D02*
X7599204Y8350804D01*
X7700804D01*
X7650004Y8249204D01*
Y8269524D02*
X7619524Y8330484D01*
X7680484D01*
X7650004Y8269524D01*
X7600004Y8149204D02*
X7549204Y8250804D01*
X7650804D01*
X7600004Y8149204D01*
Y8169524D02*
X7569524Y8230484D01*
X7630484D01*
X7600004Y8169524D01*
X7650004Y8049204D02*
X7599204Y8150804D01*
X7700804D01*
X7650004Y8049204D01*
Y8069524D02*
X7619524Y8130484D01*
X7680484D01*
X7650004Y8069524D01*
X7600004Y7949204D02*
X7549204Y8050804D01*
X7650804D01*
X7600004Y7949204D01*
Y7969524D02*
X7569524Y8030484D01*
X7630484D01*
X7600004Y7969524D01*
X7550004Y9649205D02*
X7499204Y9750805D01*
X7600804D01*
X7550004Y9649205D01*
Y9669525D02*
X7519524Y9730485D01*
X7580484D01*
X7550004Y9669525D01*
Y9249205D02*
X7499204Y9350805D01*
X7600804D01*
X7550004Y9249205D01*
Y9269525D02*
X7519524Y9330485D01*
X7580484D01*
X7550004Y9269525D01*
X7500004Y8349205D02*
X7449204Y8450805D01*
X7550804D01*
X7500004Y8349205D01*
Y8369525D02*
X7469524Y8430485D01*
X7530484D01*
X7500004Y8369525D01*
X7550004Y8249204D02*
X7499204Y8350804D01*
X7600804D01*
X7550004Y8249204D01*
Y8269524D02*
X7519524Y8330484D01*
X7580484D01*
X7550004Y8269524D01*
X7500004Y8149204D02*
X7449204Y8250804D01*
X7550804D01*
X7500004Y8149204D01*
Y8169524D02*
X7469524Y8230484D01*
X7530484D01*
X7500004Y8169524D01*
X7550004Y8049204D02*
X7499204Y8150804D01*
X7600804D01*
X7550004Y8049204D01*
Y8069524D02*
X7519524Y8130484D01*
X7580484D01*
X7550004Y8069524D01*
X7500004Y7949204D02*
X7449204Y8050804D01*
X7550804D01*
X7500004Y7949204D01*
Y7969524D02*
X7469524Y8030484D01*
X7530484D01*
X7500004Y7969524D01*
X7250004Y9649205D02*
X7199204Y9750805D01*
X7300804D01*
X7250004Y9649205D01*
Y9669525D02*
X7219524Y9730485D01*
X7280484D01*
X7250004Y9669525D01*
X7150004Y9649205D02*
X7099204Y9750805D01*
X7200804D01*
X7150004Y9649205D01*
Y9669525D02*
X7119524Y9730485D01*
X7180484D01*
X7150004Y9669525D01*
X7050004Y9649205D02*
X6999204Y9750805D01*
X7100804D01*
X7050004Y9649205D01*
Y9669525D02*
X7019524Y9730485D01*
X7080484D01*
X7050004Y9669525D01*
X7000004Y9549205D02*
X6949204Y9650805D01*
X7050804D01*
X7000004Y9549205D01*
Y9569525D02*
X6969524Y9630485D01*
X7030484D01*
X7000004Y9569525D01*
X6950004Y9649205D02*
X6899204Y9750805D01*
X7000804D01*
X6950004Y9649205D01*
Y9669525D02*
X6919524Y9730485D01*
X6980484D01*
X6950004Y9669525D01*
X6900004Y9549205D02*
X6849204Y9650805D01*
X6950804D01*
X6900004Y9549205D01*
Y9569525D02*
X6869524Y9630485D01*
X6930484D01*
X6900004Y9569525D01*
X6950004Y9449205D02*
X6899204Y9550805D01*
X7000804D01*
X6950004Y9449205D01*
Y9469525D02*
X6919524Y9530485D01*
X6980484D01*
X6950004Y9469525D01*
X6900004Y8149204D02*
X6849204Y8250804D01*
X6950804D01*
X6900004Y8149204D01*
Y8169524D02*
X6869524Y8230484D01*
X6930484D01*
X6900004Y8169524D01*
X6950004Y8049204D02*
X6899204Y8150804D01*
X7000804D01*
X6950004Y8049204D01*
Y8069524D02*
X6919524Y8130484D01*
X6980484D01*
X6950004Y8069524D01*
X6900004Y7949204D02*
X6849204Y8050804D01*
X6950804D01*
X6900004Y7949204D01*
Y7969524D02*
X6869524Y8030484D01*
X6930484D01*
X6900004Y7969524D01*
X6850004Y9449205D02*
X6799204Y9550805D01*
X6900804D01*
X6850004Y9449205D01*
Y9469525D02*
X6819524Y9530485D01*
X6880484D01*
X6850004Y9469525D01*
X6800004Y8149204D02*
X6749204Y8250804D01*
X6850804D01*
X6800004Y8149204D01*
Y8169524D02*
X6769524Y8230484D01*
X6830484D01*
X6800004Y8169524D01*
X6850004Y8049204D02*
X6799204Y8150804D01*
X6900804D01*
X6850004Y8049204D01*
Y8069524D02*
X6819524Y8130484D01*
X6880484D01*
X6850004Y8069524D01*
X6800004Y7949204D02*
X6749204Y8050804D01*
X6850804D01*
X6800004Y7949204D01*
Y7969524D02*
X6769524Y8030484D01*
X6830484D01*
X6800004Y7969524D01*
X6700004Y9349205D02*
X6649204Y9450805D01*
X6750804D01*
X6700004Y9349205D01*
Y9369525D02*
X6669524Y9430485D01*
X6730484D01*
X6700004Y9369525D01*
X6750004Y9249205D02*
X6699204Y9350805D01*
X6800804D01*
X6750004Y9249205D01*
Y9269525D02*
X6719524Y9330485D01*
X6780484D01*
X6750004Y9269525D01*
X6700004Y9149205D02*
X6649204Y9250805D01*
X6750804D01*
X6700004Y9149205D01*
Y9169525D02*
X6669524Y9230485D01*
X6730484D01*
X6700004Y9169525D01*
X6750004Y9049205D02*
X6699204Y9150805D01*
X6800804D01*
X6750004Y9049205D01*
Y9069525D02*
X6719524Y9130485D01*
X6780484D01*
X6750004Y9069525D01*
X6700004Y8949205D02*
X6649204Y9050805D01*
X6750804D01*
X6700004Y8949205D01*
Y8969525D02*
X6669524Y9030485D01*
X6730484D01*
X6700004Y8969525D01*
X6750004Y8849205D02*
X6699204Y8950805D01*
X6800804D01*
X6750004Y8849205D01*
Y8869525D02*
X6719524Y8930485D01*
X6780484D01*
X6750004Y8869525D01*
Y8449205D02*
X6699204Y8550805D01*
X6800804D01*
X6750004Y8449205D01*
Y8469525D02*
X6719524Y8530485D01*
X6780484D01*
X6750004Y8469525D01*
X6700004Y8349205D02*
X6649204Y8450805D01*
X6750804D01*
X6700004Y8349205D01*
Y8369525D02*
X6669524Y8430485D01*
X6730484D01*
X6700004Y8369525D01*
X6750004Y8249204D02*
X6699204Y8350804D01*
X6800804D01*
X6750004Y8249204D01*
Y8269524D02*
X6719524Y8330484D01*
X6780484D01*
X6750004Y8269524D01*
X6700004Y8149204D02*
X6649204Y8250804D01*
X6750804D01*
X6700004Y8149204D01*
Y8169524D02*
X6669524Y8230484D01*
X6730484D01*
X6700004Y8169524D01*
X6750004Y8049204D02*
X6699204Y8150804D01*
X6800804D01*
X6750004Y8049204D01*
Y8069524D02*
X6719524Y8130484D01*
X6780484D01*
X6750004Y8069524D01*
X6700004Y7949204D02*
X6649204Y8050804D01*
X6750804D01*
X6700004Y7949204D01*
Y7969524D02*
X6669524Y8030484D01*
X6730484D01*
X6700004Y7969524D01*
Y7749204D02*
X6649204Y7850804D01*
X6750804D01*
X6700004Y7749204D01*
Y7769524D02*
X6669524Y7830484D01*
X6730484D01*
X6700004Y7769524D01*
X6600004Y9349205D02*
X6549204Y9450805D01*
X6650804D01*
X6600004Y9349205D01*
Y9369525D02*
X6569524Y9430485D01*
X6630484D01*
X6600004Y9369525D01*
X6650003Y9249205D02*
X6599203Y9350805D01*
X6700803D01*
X6650003Y9249205D01*
Y9269525D02*
X6619523Y9330485D01*
X6680483D01*
X6650003Y9269525D01*
X6600004Y9149205D02*
X6549204Y9250805D01*
X6650804D01*
X6600004Y9149205D01*
Y9169525D02*
X6569524Y9230485D01*
X6630484D01*
X6600004Y9169525D01*
X6650003Y9049205D02*
X6599203Y9150805D01*
X6700803D01*
X6650003Y9049205D01*
Y9069525D02*
X6619523Y9130485D01*
X6680483D01*
X6650003Y9069525D01*
X6600004Y8949205D02*
X6549204Y9050805D01*
X6650804D01*
X6600004Y8949205D01*
Y8969525D02*
X6569524Y9030485D01*
X6630484D01*
X6600004Y8969525D01*
X6650003Y8849205D02*
X6599203Y8950805D01*
X6700803D01*
X6650003Y8849205D01*
Y8869525D02*
X6619523Y8930485D01*
X6680483D01*
X6650003Y8869525D01*
X6600004Y8349205D02*
X6549204Y8450805D01*
X6650804D01*
X6600004Y8349205D01*
Y8369525D02*
X6569524Y8430485D01*
X6630484D01*
X6600004Y8369525D01*
X6650003Y8249204D02*
X6599203Y8350804D01*
X6700803D01*
X6650003Y8249204D01*
Y8269524D02*
X6619523Y8330484D01*
X6680483D01*
X6650003Y8269524D01*
X6600004Y8149204D02*
X6549204Y8250804D01*
X6650804D01*
X6600004Y8149204D01*
Y8169524D02*
X6569524Y8230484D01*
X6630484D01*
X6600004Y8169524D01*
X6650003Y8049204D02*
X6599203Y8150804D01*
X6700803D01*
X6650003Y8049204D01*
Y8069524D02*
X6619523Y8130484D01*
X6680483D01*
X6650003Y8069524D01*
X6600004Y7949204D02*
X6549204Y8050804D01*
X6650804D01*
X6600004Y7949204D01*
Y7969524D02*
X6569524Y8030484D01*
X6630484D01*
X6600004Y7969524D01*
X6650003Y7849204D02*
X6599203Y7950804D01*
X6700803D01*
X6650003Y7849204D01*
Y7869524D02*
X6619523Y7930484D01*
X6680483D01*
X6650003Y7869524D01*
X6600004Y7749204D02*
X6549204Y7850804D01*
X6650804D01*
X6600004Y7749204D01*
Y7769524D02*
X6569524Y7830484D01*
X6630484D01*
X6600004Y7769524D01*
X6550003Y9649205D02*
X6499203Y9750805D01*
X6600803D01*
X6550003Y9649205D01*
Y9669525D02*
X6519523Y9730485D01*
X6580483D01*
X6550003Y9669525D01*
X6500004Y9549205D02*
X6449204Y9650805D01*
X6550804D01*
X6500004Y9549205D01*
Y9569525D02*
X6469524Y9630485D01*
X6530484D01*
X6500004Y9569525D01*
X6550003Y9449205D02*
X6499203Y9550805D01*
X6600803D01*
X6550003Y9449205D01*
Y9469525D02*
X6519523Y9530485D01*
X6580483D01*
X6550003Y9469525D01*
X6500004Y9349205D02*
X6449204Y9450805D01*
X6550804D01*
X6500004Y9349205D01*
Y9369525D02*
X6469524Y9430485D01*
X6530484D01*
X6500004Y9369525D01*
X6550003Y9249205D02*
X6499203Y9350805D01*
X6600803D01*
X6550003Y9249205D01*
Y9269525D02*
X6519523Y9330485D01*
X6580483D01*
X6550003Y9269525D01*
X6500004Y9149205D02*
X6449204Y9250805D01*
X6550804D01*
X6500004Y9149205D01*
Y9169525D02*
X6469524Y9230485D01*
X6530484D01*
X6500004Y9169525D01*
X6550003Y9049205D02*
X6499203Y9150805D01*
X6600803D01*
X6550003Y9049205D01*
Y9069525D02*
X6519523Y9130485D01*
X6580483D01*
X6550003Y9069525D01*
X6500004Y8949205D02*
X6449204Y9050805D01*
X6550804D01*
X6500004Y8949205D01*
Y8969525D02*
X6469524Y9030485D01*
X6530484D01*
X6500004Y8969525D01*
X6550003Y8849205D02*
X6499203Y8950805D01*
X6600803D01*
X6550003Y8849205D01*
Y8869525D02*
X6519523Y8930485D01*
X6580483D01*
X6550003Y8869525D01*
X6500004Y8749205D02*
X6449204Y8850805D01*
X6550804D01*
X6500004Y8749205D01*
Y8769525D02*
X6469524Y8830485D01*
X6530484D01*
X6500004Y8769525D01*
X6550003Y8649205D02*
X6499203Y8750805D01*
X6600803D01*
X6550003Y8649205D01*
Y8669525D02*
X6519523Y8730485D01*
X6580483D01*
X6550003Y8669525D01*
X6500004Y8549205D02*
X6449204Y8650805D01*
X6550804D01*
X6500004Y8549205D01*
Y8569525D02*
X6469524Y8630485D01*
X6530484D01*
X6500004Y8569525D01*
X6550003Y8449205D02*
X6499203Y8550805D01*
X6600803D01*
X6550003Y8449205D01*
Y8469525D02*
X6519523Y8530485D01*
X6580483D01*
X6550003Y8469525D01*
X6500004Y8349205D02*
X6449204Y8450805D01*
X6550804D01*
X6500004Y8349205D01*
Y8369525D02*
X6469524Y8430485D01*
X6530484D01*
X6500004Y8369525D01*
X6550003Y8249204D02*
X6499203Y8350804D01*
X6600803D01*
X6550003Y8249204D01*
Y8269524D02*
X6519523Y8330484D01*
X6580483D01*
X6550003Y8269524D01*
X6500004Y8149204D02*
X6449204Y8250804D01*
X6550804D01*
X6500004Y8149204D01*
Y8169524D02*
X6469524Y8230484D01*
X6530484D01*
X6500004Y8169524D01*
X6550003Y8049204D02*
X6499203Y8150804D01*
X6600803D01*
X6550003Y8049204D01*
Y8069524D02*
X6519523Y8130484D01*
X6580483D01*
X6550003Y8069524D01*
X6500004Y7949204D02*
X6449204Y8050804D01*
X6550804D01*
X6500004Y7949204D01*
Y7969524D02*
X6469524Y8030484D01*
X6530484D01*
X6500004Y7969524D01*
X6550003Y7849204D02*
X6499203Y7950804D01*
X6600803D01*
X6550003Y7849204D01*
Y7869524D02*
X6519523Y7930484D01*
X6580483D01*
X6550003Y7869524D01*
X6500004Y7749204D02*
X6449204Y7850804D01*
X6550804D01*
X6500004Y7749204D01*
Y7769524D02*
X6469524Y7830484D01*
X6530484D01*
X6500004Y7769524D01*
X5387500Y5619200D02*
X5336700Y5720800D01*
X5438300D01*
X5387500Y5619200D01*
Y5639520D02*
X5357020Y5700480D01*
X5417980D01*
X5387500Y5639520D01*
X7652500Y5929200D02*
X7601700Y6030800D01*
X7703300D01*
X7652500Y5929200D01*
Y5949520D02*
X7622020Y6010480D01*
X7682980D01*
X7652500Y5949520D01*
X6692500Y6224200D02*
X6641700Y6325800D01*
X6743300D01*
X6692500Y6224200D01*
Y6244520D02*
X6662020Y6305480D01*
X6722980D01*
X6692500Y6244520D01*
X5795000Y5424200D02*
X5744200Y5525800D01*
X5845800D01*
X5795000Y5424200D01*
Y5444520D02*
X5764520Y5505480D01*
X5825480D01*
X5795000Y5444520D01*
X4085000Y5466700D02*
X4034200Y5568300D01*
X4135800D01*
X4085000Y5466700D01*
Y5487020D02*
X4054520Y5547980D01*
X4115480D01*
X4085000Y5487020D01*
X5120000Y6361700D02*
X5069200Y6463300D01*
X5170800D01*
X5120000Y6361700D01*
Y6382020D02*
X5089520Y6442980D01*
X5150480D01*
X5120000Y6382020D01*
X5285000Y6051700D02*
X5234200Y6153300D01*
X5335800D01*
X5285000Y6051700D01*
Y6072020D02*
X5254520Y6132980D01*
X5315480D01*
X5285000Y6072020D01*
X5217500Y9311700D02*
X5166700Y9413300D01*
X5268300D01*
X5217500Y9311700D01*
Y9332020D02*
X5187020Y9392980D01*
X5247980D01*
X5217500Y9332020D01*
Y9439200D02*
X5166700Y9540800D01*
X5268300D01*
X5217500Y9439200D01*
Y9459520D02*
X5187020Y9520480D01*
X5247980D01*
X5217500Y9459520D01*
X5512500Y9184200D02*
X5461700Y9285800D01*
X5563300D01*
X5512500Y9184200D01*
Y9204520D02*
X5482020Y9265480D01*
X5542980D01*
X5512500Y9204520D01*
X5712500Y9024200D02*
X5661700Y9125800D01*
X5763300D01*
X5712500Y9024200D01*
Y9044520D02*
X5682020Y9105480D01*
X5742980D01*
X5712500Y9044520D01*
X5592500Y8726700D02*
X5541700Y8828300D01*
X5643300D01*
X5592500Y8726700D01*
Y8747020D02*
X5562020Y8807980D01*
X5622980D01*
X5592500Y8747020D01*
X5850000Y8356700D02*
X5799200Y8458300D01*
X5900800D01*
X5850000Y8356700D01*
Y8377020D02*
X5819520Y8437980D01*
X5880480D01*
X5850000Y8377020D01*
X4002500Y7959200D02*
X3951700Y8060800D01*
X4053300D01*
X4002500Y7959200D01*
Y7979520D02*
X3972020Y8040480D01*
X4032980D01*
X4002500Y7979520D01*
X4017500Y7586700D02*
X3966700Y7688300D01*
X4068300D01*
X4017500Y7586700D01*
Y7607020D02*
X3987020Y7667980D01*
X4047980D01*
X4017500Y7607020D01*
X7340000Y4799200D02*
X7289200Y4900800D01*
X7390800D01*
X7340000Y4799200D01*
Y4819520D02*
X7309520Y4880480D01*
X7370480D01*
X7340000Y4819520D01*
X7137500Y4936700D02*
X7086700Y5038300D01*
X7188300D01*
X7137500Y4936700D01*
Y4957020D02*
X7107020Y5017980D01*
X7167980D01*
X7137500Y4957020D01*
X7927500Y5459200D02*
X7876700Y5560800D01*
X7978300D01*
X7927500Y5459200D01*
Y5479520D02*
X7897020Y5540480D01*
X7957980D01*
X7927500Y5479520D01*
X7660000Y5479200D02*
X7609200Y5580800D01*
X7710800D01*
X7660000Y5479200D01*
Y5499520D02*
X7629520Y5560480D01*
X7690480D01*
X7660000Y5499520D01*
X7632500Y5701700D02*
X7581700Y5803300D01*
X7683300D01*
X7632500Y5701700D01*
Y5722020D02*
X7602020Y5782980D01*
X7662980D01*
X7632500Y5722020D01*
X7140000Y5021700D02*
X7089200Y5123300D01*
X7190800D01*
X7140000Y5021700D01*
Y5042020D02*
X7109520Y5102980D01*
X7170480D01*
X7140000Y5042020D01*
X7723240Y5610940D02*
X7672440Y5712540D01*
X7774040D01*
X7723240Y5610940D01*
Y5631260D02*
X7692760Y5692220D01*
X7753720D01*
X7723240Y5631260D01*
X7331336Y5167952D02*
X7280536Y5269552D01*
X7382136D01*
X7331336Y5167952D01*
Y5188272D02*
X7300856Y5249232D01*
X7361816D01*
X7331336Y5188272D01*
X7725000Y5724200D02*
X7674200Y5825800D01*
X7775800D01*
X7725000Y5724200D01*
Y5744520D02*
X7694520Y5805480D01*
X7755480D01*
X7725000Y5744520D01*
X7331336Y5277951D02*
X7280536Y5379551D01*
X7382136D01*
X7331336Y5277951D01*
Y5298271D02*
X7300856Y5359231D01*
X7361816D01*
X7331336Y5298271D01*
X7145658Y5324226D02*
X7094858Y5425826D01*
X7196458D01*
X7145658Y5324226D01*
Y5344546D02*
X7115178Y5405506D01*
X7176138D01*
X7145658Y5344546D01*
X5005000Y5071700D02*
X4954200Y5173300D01*
X5055800D01*
X5005000Y5071700D01*
Y5092020D02*
X4974520Y5152980D01*
X5035480D01*
X5005000Y5092020D01*
X5177500Y5141832D02*
X5126700Y5243432D01*
X5228300D01*
X5177500Y5141832D01*
Y5162152D02*
X5147020Y5223112D01*
X5207980D01*
X5177500Y5162152D01*
X4747500Y5141832D02*
X4696700Y5243432D01*
X4798300D01*
X4747500Y5141832D01*
Y5162152D02*
X4717020Y5223112D01*
X4777980D01*
X4747500Y5162152D01*
X7242500Y6330140D02*
X7191700Y6431740D01*
X7293300D01*
X7242500Y6330140D01*
Y6350460D02*
X7212020Y6411420D01*
X7272980D01*
X7242500Y6350460D01*
X7007500Y6054200D02*
X6956700Y6155800D01*
X7058300D01*
X7007500Y6054200D01*
Y6074520D02*
X6977020Y6135480D01*
X7037980D01*
X7007500Y6074520D01*
X7160000Y6109200D02*
X7109200Y6210800D01*
X7210800D01*
X7160000Y6109200D01*
Y6129520D02*
X7129520Y6190480D01*
X7190480D01*
X7160000Y6129520D01*
X6875000Y5661700D02*
X6824200Y5763300D01*
X6925800D01*
X6875000Y5661700D01*
Y5682020D02*
X6844520Y5742980D01*
X6905480D01*
X6875000Y5682020D01*
X6545000Y5189200D02*
X6494200Y5290800D01*
X6595800D01*
X6545000Y5189200D01*
Y5209520D02*
X6514520Y5270480D01*
X6575480D01*
X6545000Y5209520D01*
X6962500Y5689200D02*
X6911700Y5790800D01*
X7013300D01*
X6962500Y5689200D01*
Y5709520D02*
X6932020Y5770480D01*
X6992980D01*
X6962500Y5709520D01*
X4275000Y7194200D02*
X4224200Y7295800D01*
X4325800D01*
X4275000Y7194200D01*
Y7214520D02*
X4244520Y7275480D01*
X4305480D01*
X4275000Y7214520D01*
X4685000Y7314200D02*
X4634200Y7415800D01*
X4735800D01*
X4685000Y7314200D01*
Y7334520D02*
X4654520Y7395480D01*
X4715480D01*
X4685000Y7334520D01*
X2805000Y5711700D02*
X2754200Y5813300D01*
X2855800D01*
X2805000Y5711700D01*
Y5732020D02*
X2774520Y5792980D01*
X2835480D01*
X2805000Y5732020D01*
X2857500Y5781700D02*
X2806700Y5883300D01*
X2908300D01*
X2857500Y5781700D01*
Y5802020D02*
X2827020Y5862980D01*
X2887980D01*
X2857500Y5802020D01*
X2905000Y5861700D02*
X2854200Y5963300D01*
X2955800D01*
X2905000Y5861700D01*
Y5882020D02*
X2874520Y5942980D01*
X2935480D01*
X2905000Y5882020D01*
X2807500Y5861700D02*
X2756700Y5963300D01*
X2858300D01*
X2807500Y5861700D01*
Y5882020D02*
X2777020Y5942980D01*
X2837980D01*
X2807500Y5882020D01*
X3445000Y6199200D02*
X3394200Y6300800D01*
X3495800D01*
X3445000Y6199200D01*
Y6219520D02*
X3414520Y6280480D01*
X3475480D01*
X3445000Y6219520D01*
X3435000Y6854200D02*
X3384200Y6955800D01*
X3485800D01*
X3435000Y6854200D01*
Y6874520D02*
X3404520Y6935480D01*
X3465480D01*
X3435000Y6874520D01*
X3147500Y6339200D02*
X3096700Y6440800D01*
X3198300D01*
X3147500Y6339200D01*
Y6359520D02*
X3117020Y6420480D01*
X3177980D01*
X3147500Y6359520D01*
Y6701700D02*
X3096700Y6803300D01*
X3198300D01*
X3147500Y6701700D01*
Y6722020D02*
X3117020Y6782980D01*
X3177980D01*
X3147500Y6722020D01*
X3650000Y6711700D02*
X3599200Y6813300D01*
X3700800D01*
X3650000Y6711700D01*
Y6732020D02*
X3619520Y6792980D01*
X3680480D01*
X3650000Y6732020D01*
X3562500Y6446700D02*
X3511700Y6548300D01*
X3613300D01*
X3562500Y6446700D01*
Y6467020D02*
X3532020Y6527980D01*
X3592980D01*
X3562500Y6467020D01*
X3812500Y5629200D02*
X3761700Y5730800D01*
X3863300D01*
X3812500Y5629200D01*
Y5649520D02*
X3782020Y5710480D01*
X3842980D01*
X3812500Y5649520D01*
X3710000Y5629200D02*
X3659200Y5730800D01*
X3760800D01*
X3710000Y5629200D01*
Y5649520D02*
X3679520Y5710480D01*
X3740480D01*
X3710000Y5649520D01*
X3810000Y5734200D02*
X3759200Y5835800D01*
X3860800D01*
X3810000Y5734200D01*
Y5754520D02*
X3779520Y5815480D01*
X3840480D01*
X3810000Y5754520D01*
X3715000Y5734200D02*
X3664200Y5835800D01*
X3765800D01*
X3715000Y5734200D01*
Y5754520D02*
X3684520Y5815480D01*
X3745480D01*
X3715000Y5754520D01*
X3810000Y5826700D02*
X3759200Y5928300D01*
X3860800D01*
X3810000Y5826700D01*
Y5847020D02*
X3779520Y5907980D01*
X3840480D01*
X3810000Y5847020D01*
X3715000Y5826700D02*
X3664200Y5928300D01*
X3765800D01*
X3715000Y5826700D01*
Y5847020D02*
X3684520Y5907980D01*
X3745480D01*
X3715000Y5847020D01*
X3152500Y5571700D02*
X3101700Y5673300D01*
X3203300D01*
X3152500Y5571700D01*
Y5592020D02*
X3122020Y5652980D01*
X3182980D01*
X3152500Y5592020D01*
X7837500Y5556700D02*
X7786700Y5658300D01*
X7888300D01*
X7837500Y5556700D01*
Y5577020D02*
X7807020Y5637980D01*
X7867980D01*
X7837500Y5577020D01*
X8301250Y7102950D02*
X8250450Y7204550D01*
X8352050D01*
X8301250Y7102950D01*
Y7123270D02*
X8270770Y7184230D01*
X8331730D01*
X8301250Y7123270D01*
X3882500Y6549200D02*
X3831700Y6650800D01*
X3933300D01*
X3882500Y6549200D01*
Y6569520D02*
X3852020Y6630480D01*
X3912980D01*
X3882500Y6569520D01*
X4397500Y7311700D02*
X4346700Y7413300D01*
X4448300D01*
X4397500Y7311700D01*
Y7332020D02*
X4367020Y7392980D01*
X4427980D01*
X4397500Y7332020D01*
X7155012Y4554529D02*
X7104212Y4656129D01*
X7205812D01*
X7155012Y4554529D01*
Y4574849D02*
X7124532Y4635809D01*
X7185492D01*
X7155012Y4574849D01*
X7129853Y4447445D02*
X7079053Y4549045D01*
X7180653D01*
X7129853Y4447445D01*
Y4467765D02*
X7099373Y4528725D01*
X7160333D01*
X7129853Y4467765D01*
X7050668Y4371093D02*
X6999868Y4472693D01*
X7101468D01*
X7050668Y4371093D01*
Y4391413D02*
X7020188Y4452373D01*
X7081148D01*
X7050668Y4391413D01*
X7309572Y5371429D02*
X7258772Y5473029D01*
X7360372D01*
X7309572Y5371429D01*
Y5391749D02*
X7279092Y5452709D01*
X7340052D01*
X7309572Y5391749D01*
X7145658Y5214226D02*
X7094858Y5315826D01*
X7196458D01*
X7145658Y5214226D01*
Y5234546D02*
X7115178Y5295506D01*
X7176138D01*
X7145658Y5234546D01*
X7147285Y4664257D02*
X7096485Y4765857D01*
X7198085D01*
X7147285Y4664257D01*
Y4684577D02*
X7116805Y4745537D01*
X7177765D01*
X7147285Y4684577D01*
X7080020Y4184418D02*
X7029220Y4286018D01*
X7130820D01*
X7080020Y4184418D01*
Y4204738D02*
X7049540Y4265698D01*
X7110500D01*
X7080020Y4204738D01*
X7179856Y4230600D02*
X7129056Y4332200D01*
X7230656D01*
X7179856Y4230600D01*
Y4250920D02*
X7149376Y4311880D01*
X7210336D01*
X7179856Y4250920D01*
X7260212Y4305719D02*
X7209412Y4407319D01*
X7311012D01*
X7260212Y4305719D01*
Y4326039D02*
X7229732Y4386999D01*
X7290692D01*
X7260212Y4326039D01*
X7313016Y4402216D02*
X7262216Y4503816D01*
X7363816D01*
X7313016Y4402216D01*
Y4422536D02*
X7282536Y4483496D01*
X7343496D01*
X7313016Y4422536D01*
X7332965Y4510392D02*
X7282165Y4611992D01*
X7383765D01*
X7332965Y4510392D01*
Y4530712D02*
X7302485Y4591672D01*
X7363445D01*
X7332965Y4530712D01*
X7322500Y4606700D02*
X7271700Y4708300D01*
X7373300D01*
X7322500Y4606700D01*
Y4627020D02*
X7292020Y4687980D01*
X7352980D01*
X7322500Y4627020D01*
X7340000Y4714200D02*
X7289200Y4815800D01*
X7390800D01*
X7340000Y4714200D01*
Y4734520D02*
X7309520Y4795480D01*
X7370480D01*
X7340000Y4734520D01*
X7320095Y4948434D02*
X7269295Y5050034D01*
X7370895D01*
X7320095Y4948434D01*
Y4968754D02*
X7289615Y5029714D01*
X7350575D01*
X7320095Y4968754D01*
X7330339Y5057956D02*
X7279539Y5159556D01*
X7381139D01*
X7330339Y5057956D01*
Y5078276D02*
X7299859Y5139236D01*
X7360819D01*
X7330339Y5078276D01*
D161*
X8060800Y9617500D02*
G03*
X8060800Y9617500I-50800J0D01*
G01*
X6779800D02*
G03*
X6779800Y9617500I-50800J0D01*
G01*
X8780800Y9952500D02*
G03*
X8780800Y9952500I-50800J0D01*
G01*
Y4535000D02*
G03*
X8780800Y4535000I-50800J0D01*
G01*
X2993300D02*
G03*
X2993300Y4535000I-50800J0D01*
G01*
Y9952500D02*
G03*
X2993300Y9952500I-50800J0D01*
G01*
D162*
X8760480D02*
G03*
X8760480Y9952500I-30480J0D01*
G01*
Y4535000D02*
G03*
X8760480Y4535000I-30480J0D01*
G01*
X2972980D02*
G03*
X2972980Y4535000I-30480J0D01*
G01*
Y9952500D02*
G03*
X2972980Y9952500I-30480J0D01*
G01*
%TF.MD5,64f9a3420f6961abc3c18f4580759280*%
M02*
