G04*
G04 #@! TF.GenerationSoftware,Altium Limited,Altium Designer,24.4.1 (13)*
G04*
G04 Layer_Color=8388736*
%FSLAX44Y44*%
%MOMM*%
G71*
G04*
G04 #@! TF.SameCoordinates,CB49997C-C3C6-4264-A903-5888FDE2464A*
G04*
G04*
G04 #@! TF.FilePolarity,Positive*
G04*
G01*
G75*
%ADD135C,0.0500*%
D135*
X818000Y531000D02*
X828000D01*
X823000Y526000D02*
Y536000D01*
X809000Y537000D02*
X837000D01*
Y525000D02*
Y537000D01*
X809000Y525000D02*
X837000D01*
X809000D02*
Y537000D01*
X399500Y576500D02*
Y586500D01*
X394500Y581500D02*
X404500D01*
X405500Y567500D02*
Y595500D01*
X393500Y567500D02*
X405500D01*
X393500D02*
Y595500D01*
X405500D01*
X572250Y880000D02*
Y885000D01*
X569750Y882500D02*
X574750D01*
X512250Y812000D02*
X517250D01*
X514750Y809500D02*
Y814500D01*
X540500Y753750D02*
X545500D01*
X543000Y751250D02*
Y756250D01*
X512500Y794750D02*
X517500D01*
X515000Y792250D02*
Y797250D01*
X561250Y753250D02*
X566250D01*
X563750Y750750D02*
Y755750D01*
X581750Y753500D02*
X586750D01*
X584250Y751000D02*
Y756000D01*
X412000Y737250D02*
X417000D01*
X414500Y734750D02*
Y739750D01*
X458500Y540000D02*
Y545000D01*
X456000Y542500D02*
X461000D01*
X407750Y843000D02*
X412750D01*
X410250Y840500D02*
Y845500D01*
X482750Y560000D02*
X487750D01*
X485250Y557500D02*
Y562500D01*
X508750Y560000D02*
X513750D01*
X511250Y557500D02*
Y562500D01*
X510500Y530500D02*
Y535500D01*
X508000Y533000D02*
X513000D01*
X451500Y736500D02*
X456500D01*
X454000Y734000D02*
Y739000D01*
X455500Y842500D02*
X460500D01*
X458000Y840000D02*
Y845000D01*
M02*
